solid terrain_band_2
  facet normal 0.4364357804720661 0.21821789023597493 0.87287156094393314
    outer loop
      vertex 161.36000000000001 60.160000000000004 -0.12000000000000001
      vertex 161.40000000000001 60.079999999999998 -0.12000000000000001
      vertex 161.40000000000001 60.200000000000003 -0.14999999999999999
    endloop
  endfacet
  facet normal 0.60000000000007636 -0 0.79999999999994287
    outer loop
      vertex 161.36000000000001 60.160000000000004 -0.12000000000000001
      vertex 161.40000000000001 60.200000000000003 -0.14999999999999999
      vertex 161.36000000000001 60.200000000000003 -0.12000000000000001
    endloop
  endfacet
  facet normal 0.60000000000007625 0 0.79999999999994287
    outer loop
      vertex 161.36000000000001 76.040000000000006 -0.12000000000000001
      vertex 161.36000000000001 60.200000000000003 -0.12000000000000001
      vertex 161.40000000000001 60.200000000000003 -0.14999999999999999
    endloop
  endfacet
  facet normal 0.60000000000007625 0 0.79999999999994276
    outer loop
      vertex 161.36000000000001 76.040000000000006 -0.12000000000000001
      vertex 161.40000000000001 60.200000000000003 -0.14999999999999999
      vertex 161.40000000000001 80 -0.14999999999999999
    endloop
  endfacet
  facet normal 0.60000000000007614 -0 0.79999999999994276
    outer loop
      vertex 161.36000000000001 76.040000000000006 -0.12000000000000001
      vertex 161.40000000000001 80 -0.14999999999999999
      vertex 161.36000000000001 80 -0.12000000000000001
    endloop
  endfacet
  facet normal 0.58834840541465083 0.19611613513817053 0.78446454055266546
    outer loop
      vertex 161.36000000000001 80.159999999999997 -0.16
      vertex 161.32000000000002 80.120000000000005 -0.12000000000000001
      vertex 161.36000000000001 80 -0.12000000000000001
    endloop
  endfacet
  facet normal 0.58834840541462785 0.19611613513817458 0.78446454055268156
    outer loop
      vertex 161.36000000000001 80.159999999999997 -0.16
      vertex 161.36000000000001 80 -0.12000000000000001
      vertex 161.40000000000001 80 -0.14999999999999999
    endloop
  endfacet
  facet normal 0.58834840541454148 0.19611613513815723 0.78446454055275072
    outer loop
      vertex 161.36000000000001 80.159999999999997 -0.16
      vertex 161.40000000000001 80 -0.14999999999999999
      vertex 161.40000000000001 80.040000000000006 -0.16
    endloop
  endfacet
  facet normal 0.70710678118636661 0 0.70710678118672843
    outer loop
      vertex 161.31999999999999 80.120000000000005 -0.12000000000000001
      vertex 161.36000000000001 80.159999999999997 -0.16
      vertex 161.36000000000001 80.200000000000003 -0.16
    endloop
  endfacet
  facet normal 0.70710678118661785 -2.5121479338943436e-13 0.70710678118647718
    outer loop
      vertex 161.31999999999999 80.120000000000005 -0.12000000000000001
      vertex 161.36000000000001 80.200000000000003 -0.16
      vertex 161.32000000000002 80.200000000000003 -0.12000000000000001
    endloop
  endfacet
  facet normal 0.70710678118670156 -1.6913981671414128e-15 0.70710678118639347
    outer loop
      vertex 161.36000000000001 96.040000000000006 -0.16
      vertex 161.32000000000002 92.080000000000013 -0.12000000000000001
      vertex 161.31999999999999 80.200000000000003 -0.12000000000000001
    endloop
  endfacet
  facet normal 0.70710678118636672 0 0.70710678118672843
    outer loop
      vertex 161.36000000000001 96.040000000000006 -0.16
      vertex 161.31999999999999 80.200000000000003 -0.12000000000000001
      vertex 161.36000000000001 80.200000000000003 -0.16
    endloop
  endfacet
  facet normal 0.70710678118636661 0 0.70710678118672843
    outer loop
      vertex 161.31999999999999 92.079999999999998 -0.12000000000000001
      vertex 161.36000000000001 96.039999999999992 -0.16
      vertex 161.36000000000001 100 -0.16
    endloop
  endfacet
  facet normal 0.70710678118661785 -2.5375231655497872e-15 0.70710678118647718
    outer loop
      vertex 161.31999999999999 92.079999999999998 -0.12000000000000001
      vertex 161.36000000000001 100 -0.16
      vertex 161.32000000000002 100 -0.12000000000000001
    endloop
  endfacet
  facet normal -0 0.24253562503632425 0.97014250014533421
    outer loop
      vertex 161.47999999999999 60.079999999999998 -0.12000000000000001
      vertex 161.59999999999999 60.079999999999998 -0.12000000000000001
      vertex 161.59999999999999 60.200000000000003 -0.14999999999999999
    endloop
  endfacet
  facet normal -0 0.24253562503632423 0.9701425001453341
    outer loop
      vertex 161.40000000000001 60.079999999999998 -0.12000000000000001
      vertex 161.47999999999999 60.079999999999998 -0.12000000000000001
      vertex 161.59999999999999 60.200000000000003 -0.14999999999999999
    endloop
  endfacet
  facet normal 0 0.24253562503632417 0.97014250014533399
    outer loop
      vertex 161.40000000000001 60.079999999999998 -0.12000000000000001
      vertex 161.59999999999999 60.200000000000003 -0.14999999999999999
      vertex 161.40000000000001 60.200000000000003 -0.14999999999999999
    endloop
  endfacet
  facet normal 0 0 1
    outer loop
      vertex 161.40000000000001 60.200000000000003 -0.14999999999999999
      vertex 161.59999999999999 60.200000000000003 -0.14999999999999999
      vertex 161.59999999999999 80 -0.14999999999999999
    endloop
  endfacet
  facet normal 0 0 1
    outer loop
      vertex 161.40000000000001 60.200000000000003 -0.14999999999999999
      vertex 161.59999999999999 80 -0.14999999999999999
      vertex 161.40000000000001 80 -0.14999999999999999
    endloop
  endfacet
  facet normal 0 0.2425356250362975 0.97014250014534076
    outer loop
      vertex 161.44 80.040000000000006 -0.16
      vertex 161.40000000000001 80 -0.14999999999999999
      vertex 161.59999999999999 80 -0.14999999999999999
    endloop
  endfacet
  facet normal -0 0.24253562503629753 0.97014250014534087
    outer loop
      vertex 161.44 80.040000000000006 -0.16
      vertex 161.59999999999999 80 -0.14999999999999999
      vertex 161.59999999999999 80.040000000000006 -0.16
    endloop
  endfacet
  facet normal -0 0.2425356250362975 0.97014250014534087
    outer loop
      vertex 161.40000000000001 80.040000000000006 -0.16
      vertex 161.40000000000001 80 -0.14999999999999999
      vertex 161.44 80.040000000000006 -0.16
    endloop
  endfacet
  facet normal -0 0.24253562503632423 0.9701425001453341
    outer loop
      vertex 163.59999999999999 60.079999999999998 -0.12000000000000001
      vertex 166.59999999999999 60.079999999999998 -0.12000000000000001
      vertex 166.59999999999999 60.200000000000003 -0.14999999999999999
    endloop
  endfacet
  facet normal -0 0.2425356250363242 0.9701425001453341
    outer loop
      vertex 161.59999999999999 60.079999999999998 -0.12000000000000001
      vertex 163.59999999999999 60.079999999999998 -0.12000000000000001
      vertex 166.59999999999999 60.200000000000003 -0.14999999999999999
    endloop
  endfacet
  facet normal 0 0.2425356250363242 0.9701425001453341
    outer loop
      vertex 161.59999999999999 60.079999999999998 -0.12000000000000001
      vertex 166.59999999999999 60.200000000000003 -0.14999999999999999
      vertex 161.59999999999999 60.200000000000003 -0.14999999999999999
    endloop
  endfacet
  facet normal 0 0 1
    outer loop
      vertex 161.59999999999999 60.200000000000003 -0.14999999999999999
      vertex 166.59999999999999 60.200000000000003 -0.14999999999999999
      vertex 166.59999999999999 80 -0.14999999999999999
    endloop
  endfacet
  facet normal 0 0 1
    outer loop
      vertex 161.59999999999999 60.200000000000003 -0.14999999999999999
      vertex 166.59999999999999 80 -0.14999999999999999
      vertex 161.59999999999999 80 -0.14999999999999999
    endloop
  endfacet
  facet normal 0 0.2425356250362975 0.97014250014534076
    outer loop
      vertex 162.59999999999999 80.040000000000006 -0.16
      vertex 161.59999999999999 80 -0.14999999999999999
      vertex 166.59999999999999 80 -0.14999999999999999
    endloop
  endfacet
  facet normal -0 0.2425356250362975 0.97014250014534076
    outer loop
      vertex 162.59999999999999 80.040000000000006 -0.16
      vertex 166.59999999999999 80 -0.14999999999999999
      vertex 166.59999999999999 80.040000000000006 -0.16
    endloop
  endfacet
  facet normal -0 0.2425356250362975 0.97014250014534076
    outer loop
      vertex 161.59999999999999 80.040000000000006 -0.16
      vertex 161.59999999999999 80 -0.14999999999999999
      vertex 162.59999999999999 80.040000000000006 -0.16
    endloop
  endfacet
  facet normal -0 0.24253562503632425 0.97014250014533421
    outer loop
      vertex 166.68000000000001 60.079999999999998 -0.12000000000000001
      vertex 166.80000000000001 60.079999999999998 -0.12000000000000001
      vertex 166.80000000000001 60.200000000000003 -0.14999999999999999
    endloop
  endfacet
  facet normal -0 0.24253562503632423 0.97014250014533399
    outer loop
      vertex 166.59999999999999 60.079999999999998 -0.12000000000000001
      vertex 166.68000000000001 60.079999999999998 -0.12000000000000001
      vertex 166.80000000000001 60.200000000000003 -0.14999999999999999
    endloop
  endfacet
  facet normal 0 0.2425356250363242 0.9701425001453341
    outer loop
      vertex 166.59999999999999 60.079999999999998 -0.12000000000000001
      vertex 166.80000000000001 60.200000000000003 -0.14999999999999999
      vertex 166.59999999999999 60.200000000000003 -0.14999999999999999
    endloop
  endfacet
  facet normal 0 0 1
    outer loop
      vertex 166.59999999999999 60.200000000000003 -0.14999999999999999
      vertex 166.80000000000001 60.200000000000003 -0.14999999999999999
      vertex 166.80000000000001 80 -0.14999999999999999
    endloop
  endfacet
  facet normal 0 0 1
    outer loop
      vertex 166.59999999999999 60.200000000000003 -0.14999999999999999
      vertex 166.80000000000001 80 -0.14999999999999999
      vertex 166.59999999999999 80 -0.14999999999999999
    endloop
  endfacet
  facet normal 0 0.2425356250362975 0.97014250014534076
    outer loop
      vertex 166.63999999999999 80.040000000000006 -0.16
      vertex 166.59999999999999 80 -0.14999999999999999
      vertex 166.80000000000001 80 -0.14999999999999999
    endloop
  endfacet
  facet normal -0 0.2425356250362975 0.97014250014534076
    outer loop
      vertex 166.63999999999999 80.040000000000006 -0.16
      vertex 166.80000000000001 80 -0.14999999999999999
      vertex 166.80000000000001 80.040000000000006 -0.16
    endloop
  endfacet
  facet normal -0 0.2425356250362975 0.97014250014534087
    outer loop
      vertex 166.59999999999999 80.040000000000006 -0.16
      vertex 166.59999999999999 80 -0.14999999999999999
      vertex 166.63999999999999 80.040000000000006 -0.16
    endloop
  endfacet
  facet normal -0.029091956313327335 0.2424329692777186 0.96973187711091169
    outer loop
      vertex 166.80000000000001 60.079999999999998 -0.12000000000000001
      vertex 167.80000000000001 60.200000000000003 -0.12000000000000001
      vertex 166.80000000000001 60.200000000000003 -0.14999999999999999
    endloop
  endfacet
  facet normal -0.029986509105670987 0 0.99955030352236673
    outer loop
      vertex 167.80000000000001 64.159999999999997 -0.12000000000000001
      vertex 166.80000000000001 60.200000000000003 -0.14999999999999999
      vertex 167.80000000000001 60.200000000000003 -0.12000000000000001
    endloop
  endfacet
  facet normal -0.029986509105670991 0 0.99955030352236673
    outer loop
      vertex 166.80000000000001 60.200000000000003 -0.14999999999999999
      vertex 167.80000000000001 64.159999999999997 -0.12000000000000001
      vertex 167.80000000000001 80 -0.12000000000000001
    endloop
  endfacet
  facet normal -0.029986509105670987 0 0.99955030352236673
    outer loop
      vertex 166.80000000000001 60.200000000000003 -0.14999999999999999
      vertex 167.80000000000001 80 -0.12000000000000001
      vertex 166.80000000000001 80 -0.14999999999999999
    endloop
  endfacet
  facet normal -0.029986509105670987 0 0.99955030352236662
    outer loop
      vertex 167.80000000000001 80.040000000000006 -0.12000000000000001
      vertex 166.80000000000001 80 -0.14999999999999999
      vertex 167.80000000000001 80 -0.12000000000000001
    endloop
  endfacet
  facet normal -0.038776514554656034 0.24235321596656259 0.96941286386640102
    outer loop
      vertex 166.80000000000001 80.040000000000006 -0.16
      vertex 166.80000000000001 80 -0.14999999999999999
      vertex 167.80000000000001 80.040000000000006 -0.12000000000000001
    endloop
  endfacet
  facet normal -0.038776514554655625 0.24235321596660284 0.96941286386639081
    outer loop
      vertex 166.80000000000001 80.040000000000006 -0.16
      vertex 167.80000000000001 80.040000000000006 -0.12000000000000001
      vertex 168.80000000000001 80.200000000000003 -0.12000000000000001
    endloop
  endfacet
  facet normal -0.038776514554655625 0.24235321596660284 0.96941286386639081
    outer loop
      vertex 166.80000000000001 80.040000000000006 -0.16
      vertex 168.80000000000001 80.200000000000003 -0.12000000000000001
      vertex 167.80000000000001 80.200000000000003 -0.16
    endloop
  endfacet
  facet normal -0.039968038348871575 0 0.99920095872178949
    outer loop
      vertex 168.80000000000001 88.120000000000005 -0.12000000000000001
      vertex 167.80000000000001 84.159999999999997 -0.16
      vertex 167.80000000000001 80.200000000000003 -0.16
    endloop
  endfacet
  facet normal -0.039968038348871575 0 0.99920095872178949
    outer loop
      vertex 168.80000000000001 88.120000000000005 -0.12000000000000001
      vertex 167.80000000000001 80.200000000000003 -0.16
      vertex 168.80000000000001 80.200000000000003 -0.12000000000000001
    endloop
  endfacet
  facet normal -0.039968038348871575 0 0.99920095872178949
    outer loop
      vertex 167.80000000000001 84.159999999999997 -0.16
      vertex 168.80000000000001 88.11999999999999 -0.12000000000000001
      vertex 168.80000000000001 100 -0.12000000000000001
    endloop
  endfacet
  facet normal -0.039968038348871575 0 0.99920095872178949
    outer loop
      vertex 167.80000000000001 84.159999999999997 -0.16
      vertex 168.80000000000001 100 -0.12000000000000001
      vertex 167.80000000000001 100 -0.16
    endloop
  endfacet
  facet normal 0.43643578047206039 0.2182178902359817 0.87287156094393448
    outer loop
      vertex 204.96000000000001 20.16 -0.12000000000000001
      vertex 205 20.079999999999998 -0.12000000000000001
      vertex 205 20.199999999999999 -0.14999999999999999
    endloop
  endfacet
  facet normal 0.60000000000007636 -0 0.79999999999994287
    outer loop
      vertex 204.96000000000001 20.16 -0.12000000000000001
      vertex 205 20.199999999999999 -0.14999999999999999
      vertex 204.96000000000001 20.199999999999999 -0.12000000000000001
    endloop
  endfacet
  facet normal 0.60000000000007614 0 0.79999999999994287
    outer loop
      vertex 204.96000000000001 36.039999999999999 -0.12000000000000001
      vertex 204.96000000000001 20.199999999999999 -0.12000000000000001
      vertex 205 20.199999999999999 -0.14999999999999999
    endloop
  endfacet
  facet normal 0.60000000000007614 0 0.79999999999994276
    outer loop
      vertex 204.96000000000001 36.039999999999999 -0.12000000000000001
      vertex 205 20.199999999999999 -0.14999999999999999
      vertex 205 40 -0.14999999999999999
    endloop
  endfacet
  facet normal 0.60000000000007625 -0 0.79999999999994287
    outer loop
      vertex 204.96000000000001 36.039999999999999 -0.12000000000000001
      vertex 205 40 -0.14999999999999999
      vertex 204.96000000000001 40 -0.12000000000000001
    endloop
  endfacet
  facet normal 0.58834840541463473 0.19611613513816514 0.78446454055267878
    outer loop
      vertex 204.96000000000001 40.160000000000004 -0.16
      vertex 204.92000000000002 40.120000000000005 -0.12000000000000001
      vertex 204.96000000000001 40 -0.12000000000000001
    endloop
  endfacet
  facet normal 0.58834840541462896 0.1961161351381662 0.78446454055268289
    outer loop
      vertex 204.96000000000001 40.160000000000004 -0.16
      vertex 204.96000000000001 40 -0.12000000000000001
      vertex 205 40 -0.14999999999999999
    endloop
  endfacet
  facet normal 0.58834840541465128 0.19611613513817064 0.78446454055266523
    outer loop
      vertex 204.96000000000001 40.160000000000004 -0.16
      vertex 205 40 -0.14999999999999999
      vertex 205 40.039999999999999 -0.16
    endloop
  endfacet
  facet normal 0.70710678118661785 0 0.70710678118647718
    outer loop
      vertex 204.92000000000002 40.120000000000005 -0.12000000000000001
      vertex 204.96000000000001 40.160000000000004 -0.16
      vertex 204.96000000000001 40.200000000000003 -0.16
    endloop
  endfacet
  facet normal 0.70710678118661785 -0 0.70710678118647718
    outer loop
      vertex 204.92000000000002 40.120000000000005 -0.12000000000000001
      vertex 204.96000000000001 40.200000000000003 -0.16
      vertex 204.92000000000002 40.200000000000003 -0.12000000000000001
    endloop
  endfacet
  facet normal 0.70710678118661774 0 0.70710678118647718
    outer loop
      vertex 204.96000000000001 56.039999999999999 -0.16
      vertex 204.92000000000002 52.079999999999998 -0.12000000000000001
      vertex 204.92000000000002 40.200000000000003 -0.12000000000000001
    endloop
  endfacet
  facet normal 0.70710678118661785 0 0.7071067811864773
    outer loop
      vertex 204.96000000000001 56.039999999999999 -0.16
      vertex 204.92000000000002 40.200000000000003 -0.12000000000000001
      vertex 204.96000000000001 40.200000000000003 -0.16
    endloop
  endfacet
  facet normal 0.70710678118661785 0 0.70710678118647718
    outer loop
      vertex 204.92000000000002 52.079999999999998 -0.12000000000000001
      vertex 204.96000000000001 56.039999999999999 -0.16
      vertex 204.96000000000001 60 -0.16
    endloop
  endfacet
  facet normal 0.70710678118661785 -0 0.70710678118647718
    outer loop
      vertex 204.92000000000002 52.079999999999998 -0.12000000000000001
      vertex 204.96000000000001 60 -0.16
      vertex 204.92000000000002 60 -0.12000000000000001
    endloop
  endfacet
  facet normal 0.62469504755450311 -0.46852128566577333 0.62469504755437888
    outer loop
      vertex 204.92000000000002 60 -0.12000000000000001
      vertex 204.96000000000001 60 -0.16
      vertex 205 60.053333333333335 -0.16
    endloop
  endfacet
  facet normal 0.62469504755450311 -0.46852128566577333 0.62469504755437888
    outer loop
      vertex 204.92000000000002 60 -0.12000000000000001
      vertex 205 60.053333333333335 -0.16
      vertex 205 60.106666666666669 -0.12000000000000001
    endloop
  endfacet
  facet normal -0 0.24253562503633097 0.97014250014533243
    outer loop
      vertex 205.07999999999998 20.079999999999998 -0.12000000000000001
      vertex 205.19999999999999 20.079999999999998 -0.12000000000000001
      vertex 205.19999999999999 20.199999999999999 -0.14999999999999999
    endloop
  endfacet
  facet normal -0 0.242535625036331 0.97014250014533243
    outer loop
      vertex 205 20.079999999999998 -0.12000000000000001
      vertex 205.07999999999998 20.079999999999998 -0.12000000000000001
      vertex 205.19999999999999 20.199999999999999 -0.14999999999999999
    endloop
  endfacet
  facet normal 0 0.24253562503633094 0.97014250014533232
    outer loop
      vertex 205 20.079999999999998 -0.12000000000000001
      vertex 205.19999999999999 20.199999999999999 -0.14999999999999999
      vertex 205 20.199999999999999 -0.14999999999999999
    endloop
  endfacet
  facet normal 0 0 1
    outer loop
      vertex 205 20.199999999999999 -0.14999999999999999
      vertex 205.19999999999999 20.199999999999999 -0.14999999999999999
      vertex 205.19999999999999 40 -0.14999999999999999
    endloop
  endfacet
  facet normal 0 0 1
    outer loop
      vertex 205 20.199999999999999 -0.14999999999999999
      vertex 205.19999999999999 40 -0.14999999999999999
      vertex 205 40 -0.14999999999999999
    endloop
  endfacet
  facet normal 0 0.24253562503633805 0.97014250014533054
    outer loop
      vertex 205.03999999999999 40.039999999999999 -0.16
      vertex 205 40 -0.14999999999999999
      vertex 205.19999999999999 40 -0.14999999999999999
    endloop
  endfacet
  facet normal -0 0.24253562503633805 0.97014250014533066
    outer loop
      vertex 205.03999999999999 40.039999999999999 -0.16
      vertex 205.19999999999999 40 -0.14999999999999999
      vertex 205.19999999999999 40.039999999999999 -0.16
    endloop
  endfacet
  facet normal -0 0.24253562503633808 0.97014250014533066
    outer loop
      vertex 205 40.039999999999999 -0.16
      vertex 205 40 -0.14999999999999999
      vertex 205.03999999999999 40.039999999999999 -0.16
    endloop
  endfacet
  facet normal 0 -0.59999999999999098 0.80000000000000659
    outer loop
      vertex 205.10666666666665 60.106666666666669 -0.12000000000000001
      vertex 205.05333333333334 60.053333333333335 -0.16
      vertex 205.19999999999999 60.053333333333335 -0.16
    endloop
  endfacet
  facet normal 0 -0.5999999999999911 0.80000000000000682
    outer loop
      vertex 205.10666666666665 60.106666666666669 -0.12000000000000001
      vertex 205.19999999999999 60.053333333333335 -0.16
      vertex 205.19999999999999 60.106666666666669 -0.12000000000000001
    endloop
  endfacet
  facet normal 0 -0.5999999999999911 0.80000000000000671
    outer loop
      vertex 205 60.106666666666669 -0.12000000000000001
      vertex 205 60.053333333333335 -0.16
      vertex 205.05333333333334 60.053333333333335 -0.16
    endloop
  endfacet
  facet normal 0 -0.5999999999999911 0.80000000000000671
    outer loop
      vertex 205 60.106666666666669 -0.12000000000000001
      vertex 205.05333333333334 60.053333333333335 -0.16
      vertex 205.10666666666665 60.106666666666669 -0.12000000000000001
    endloop
  endfacet
  facet normal 1.2558631391024893e-13 0.70710678118655501 0.70710678118654013
    outer loop
      vertex 205.36000000000001 -80.040000000000006 -0.16
      vertex 205.32000000000002 -80.079999999999998 -0.12000000000000001
      vertex 205.40000000000001 -80.080000000000013 -0.12000000000000001
    endloop
  endfacet
  facet normal -0 0.70710678118649228 0.70710678118660286
    outer loop
      vertex 205.36000000000001 -80.040000000000006 -0.16
      vertex 205.40000000000001 -80.080000000000013 -0.12000000000000001
      vertex 205.40000000000001 -80.040000000000006 -0.16
    endloop
  endfacet
  facet normal 0.70710678118636661 0 0.70710678118672843
    outer loop
      vertex 205.31999999999999 -80.080000000000013 -0.12000000000000001
      vertex 205.36000000000001 -80.040000000000006 -0.16
      vertex 205.36000000000001 -80 -0.16
    endloop
  endfacet
  facet normal 0.70710678118661785 -2.5121479338938973e-13 0.7071067811864773
    outer loop
      vertex 205.31999999999999 -80.080000000000013 -0.12000000000000001
      vertex 205.36000000000001 -80 -0.16
      vertex 205.32000000000002 -80 -0.12000000000000001
    endloop
  endfacet
  facet normal 0.70710678118670156 -1.6913981671414128e-15 0.70710678118639347
    outer loop
      vertex 205.36000000000001 -64.159999999999997 -0.16
      vertex 205.32000000000002 -68.11999999999999 -0.12000000000000001
      vertex 205.31999999999999 -80 -0.12000000000000001
    endloop
  endfacet
  facet normal 0.70710678118636672 0 0.70710678118672843
    outer loop
      vertex 205.36000000000001 -64.159999999999997 -0.16
      vertex 205.31999999999999 -80 -0.12000000000000001
      vertex 205.36000000000001 -80 -0.16
    endloop
  endfacet
  facet normal 0.70710678118636672 0 0.70710678118672843
    outer loop
      vertex 205.31999999999999 -68.120000000000005 -0.12000000000000001
      vertex 205.36000000000001 -64.159999999999997 -0.16
      vertex 205.36000000000001 -60.200000000000003 -0.16
    endloop
  endfacet
  facet normal 0.70710678118661785 -2.5375231655497872e-15 0.70710678118647718
    outer loop
      vertex 205.31999999999999 -68.120000000000005 -0.12000000000000001
      vertex 205.36000000000001 -60.200000000000003 -0.16
      vertex 205.32000000000002 -60.200000000000003 -0.12000000000000001
    endloop
  endfacet
  facet normal 0.57735026918956145 -0.57735026918945886 0.57735026918985688
    outer loop
      vertex 205.31999999999999 -60.200000000000003 -0.12000000000000001
      vertex 205.36000000000001 -60.200000000000003 -0.16
      vertex 205.40000000000001 -60.160000000000004 -0.16
    endloop
  endfacet
  facet normal 0.57735026918956145 -0.57735026918966403 0.57735026918965182
    outer loop
      vertex 205.31999999999999 -60.200000000000003 -0.12000000000000001
      vertex 205.40000000000001 -60.160000000000004 -0.16
      vertex 205.40000000000001 -60.120000000000005 -0.12000000000000001
    endloop
  endfacet
  facet normal -0.58834840541462863 0.19611613513816892 0.78446454055268244
    outer loop
      vertex 205.19999999999999 20.079999999999998 -0.12000000000000001
      vertex 205.23999999999998 20.199999999999999 -0.12000000000000001
      vertex 205.19999999999999 20.199999999999999 -0.14999999999999999
    endloop
  endfacet
  facet normal -0.60000000000007625 0 0.79999999999994287
    outer loop
      vertex 205.23999999999998 24.159999999999997 -0.12000000000000001
      vertex 205.19999999999999 20.199999999999999 -0.14999999999999999
      vertex 205.23999999999998 20.199999999999999 -0.12000000000000001
    endloop
  endfacet
  facet normal -0.60000000000007625 0 0.79999999999994287
    outer loop
      vertex 205.19999999999999 20.199999999999999 -0.14999999999999999
      vertex 205.23999999999998 24.159999999999997 -0.12000000000000001
      vertex 205.23999999999998 40 -0.12000000000000001
    endloop
  endfacet
  facet normal -0.60000000000007614 0 0.79999999999994287
    outer loop
      vertex 205.19999999999999 20.199999999999999 -0.14999999999999999
      vertex 205.23999999999998 40 -0.12000000000000001
      vertex 205.19999999999999 40 -0.14999999999999999
    endloop
  endfacet
  facet normal -0.60000000000007636 0 0.79999999999994287
    outer loop
      vertex 205.23999999999998 40.039999999999999 -0.12000000000000001
      vertex 205.19999999999999 40 -0.14999999999999999
      vertex 205.23999999999998 40 -0.12000000000000001
    endloop
  endfacet
  facet normal -0.69631062382286213 0.17407765595568481 0.6963106238227238
    outer loop
      vertex 205.19999999999999 40.039999999999999 -0.16
      vertex 205.19999999999999 40 -0.14999999999999999
      vertex 205.23999999999998 40.039999999999999 -0.12000000000000001
    endloop
  endfacet
  facet normal -0.69631062382286313 0.17407765595567715 0.69631062382272468
    outer loop
      vertex 205.19999999999999 40.039999999999999 -0.16
      vertex 205.23999999999998 40.039999999999999 -0.12000000000000001
      vertex 205.27999999999997 40.200000000000003 -0.12000000000000001
    endloop
  endfacet
  facet normal -0.69631062382286313 0.17407765595567715 0.69631062382272468
    outer loop
      vertex 205.19999999999999 40.039999999999999 -0.16
      vertex 205.27999999999997 40.200000000000003 -0.12000000000000001
      vertex 205.23999999999998 40.200000000000003 -0.16
    endloop
  endfacet
  facet normal -0.70710678118661785 0 0.70710678118647718
    outer loop
      vertex 205.27999999999997 48.120000000000005 -0.12000000000000001
      vertex 205.23999999999998 44.160000000000004 -0.16
      vertex 205.23999999999998 40.200000000000003 -0.16
    endloop
  endfacet
  facet normal -0.70710678118661785 0 0.70710678118647718
    outer loop
      vertex 205.27999999999997 48.120000000000005 -0.12000000000000001
      vertex 205.23999999999998 40.200000000000003 -0.16
      vertex 205.27999999999997 40.200000000000003 -0.12000000000000001
    endloop
  endfacet
  facet normal -0.70710678118661774 0 0.70710678118647718
    outer loop
      vertex 205.23999999999998 44.160000000000004 -0.16
      vertex 205.27999999999997 48.120000000000005 -0.12000000000000001
      vertex 205.27999999999997 60 -0.12000000000000001
    endloop
  endfacet
  facet normal -0.70710678118661785 0 0.7071067811864773
    outer loop
      vertex 205.23999999999998 44.160000000000004 -0.16
      vertex 205.27999999999997 60 -0.12000000000000001
      vertex 205.23999999999998 60 -0.16
    endloop
  endfacet
  facet normal -0.70710678118661785 0 0.70710678118647718
    outer loop
      vertex 205.27999999999997 60.079999999999998 -0.12000000000000001
      vertex 205.23999999999998 60.039999999999999 -0.16
      vertex 205.23999999999998 60 -0.16
    endloop
  endfacet
  facet normal -0.70710678118661785 0 0.70710678118647718
    outer loop
      vertex 205.27999999999997 60.079999999999998 -0.12000000000000001
      vertex 205.23999999999998 60 -0.16
      vertex 205.27999999999997 60 -0.12000000000000001
    endloop
  endfacet
  facet normal -0.19611613513824813 -0.5883484054145357 0.7844645405527324
    outer loop
      vertex 205.19999999999999 60.106666666666669 -0.12000000000000001
      vertex 205.19999999999999 60.053333333333335 -0.16
      vertex 205.23999999999998 60.039999999999999 -0.16
    endloop
  endfacet
  facet normal -0.19611613513824822 -0.5883484054145357 0.7844645405527324
    outer loop
      vertex 205.19999999999999 60.106666666666669 -0.12000000000000001
      vertex 205.23999999999998 60.039999999999999 -0.16
      vertex 205.27999999999997 60.079999999999998 -0.12000000000000001
    endloop
  endfacet
  facet normal 5.0234525564089588e-15 0.70710678118655501 0.70710678118654002
    outer loop
      vertex 209.40000000000001 -80.040000000000006 -0.16
      vertex 208.40000000000001 -80.079999999999998 -0.12000000000000001
      vertex 210.40000000000001 -80.080000000000013 -0.12000000000000001
    endloop
  endfacet
  facet normal -0 0.70710678118649228 0.70710678118660286
    outer loop
      vertex 209.40000000000001 -80.040000000000006 -0.16
      vertex 210.40000000000001 -80.080000000000013 -0.12000000000000001
      vertex 210.40000000000001 -80.040000000000006 -0.16
    endloop
  endfacet
  facet normal 3.3489683709396031e-15 0.70710678118661785 0.70710678118647718
    outer loop
      vertex 205.40000000000001 -80.040000000000006 -0.16
      vertex 205.40000000000001 -80.079999999999998 -0.12000000000000001
      vertex 208.40000000000001 -80.080000000000013 -0.12000000000000001
    endloop
  endfacet
  facet normal -0 0.70710678118649228 0.70710678118660286
    outer loop
      vertex 205.40000000000001 -80.040000000000006 -0.16
      vertex 208.40000000000001 -80.080000000000013 -0.12000000000000001
      vertex 209.40000000000001 -80.040000000000006 -0.16
    endloop
  endfacet
  facet normal 0 -0.70710678118655501 0.70710678118654002
    outer loop
      vertex 207.40000000000001 -60.120000000000005 -0.12000000000000001
      vertex 206.40000000000001 -60.160000000000004 -0.16
      vertex 210.40000000000001 -60.160000000000004 -0.16
    endloop
  endfacet
  facet normal 0 -0.70710678118655501 0.70710678118654002
    outer loop
      vertex 207.40000000000001 -60.120000000000005 -0.12000000000000001
      vertex 210.40000000000001 -60.160000000000004 -0.16
      vertex 210.40000000000001 -60.120000000000005 -0.12000000000000001
    endloop
  endfacet
  facet normal 0 -0.70710678118655501 0.70710678118654002
    outer loop
      vertex 205.40000000000001 -60.120000000000005 -0.12000000000000001
      vertex 205.40000000000001 -60.160000000000004 -0.16
      vertex 206.40000000000001 -60.160000000000004 -0.16
    endloop
  endfacet
  facet normal 0 -0.70710678118655501 0.70710678118654002
    outer loop
      vertex 205.40000000000001 -60.120000000000005 -0.12000000000000001
      vertex 206.40000000000001 -60.160000000000004 -0.16
      vertex 207.40000000000001 -60.120000000000005 -0.12000000000000001
    endloop
  endfacet
  facet normal 1.2558631391024893e-13 0.70710678118655501 0.70710678118654013
    outer loop
      vertex 210.56 -80.040000000000006 -0.16
      vertex 210.52000000000001 -80.079999999999998 -0.12000000000000001
      vertex 210.59999999999999 -80.080000000000013 -0.12000000000000001
    endloop
  endfacet
  facet normal -0 0.70710678118649228 0.70710678118660286
    outer loop
      vertex 210.56 -80.040000000000006 -0.16
      vertex 210.59999999999999 -80.080000000000013 -0.12000000000000001
      vertex 210.59999999999999 -80.040000000000006 -0.16
    endloop
  endfacet
  facet normal 8.3724209273486907e-14 0.70710678118661785 0.7071067811864773
    outer loop
      vertex 210.40000000000001 -80.040000000000006 -0.16
      vertex 210.40000000000001 -80.079999999999998 -0.12000000000000001
      vertex 210.52000000000001 -80.080000000000013 -0.12000000000000001
    endloop
  endfacet
  facet normal -0 0.70710678118649217 0.70710678118660286
    outer loop
      vertex 210.40000000000001 -80.040000000000006 -0.16
      vertex 210.52000000000001 -80.080000000000013 -0.12000000000000001
      vertex 210.56 -80.040000000000006 -0.16
    endloop
  endfacet
  facet normal 0 -0.70710678118655512 0.70710678118654013
    outer loop
      vertex 210.47999999999999 -60.120000000000005 -0.12000000000000001
      vertex 210.44 -60.160000000000004 -0.16
      vertex 210.59999999999999 -60.160000000000004 -0.16
    endloop
  endfacet
  facet normal 0 -0.7071067811865549 0.70710678118654002
    outer loop
      vertex 210.47999999999999 -60.120000000000005 -0.12000000000000001
      vertex 210.59999999999999 -60.160000000000004 -0.16
      vertex 210.59999999999999 -60.120000000000005 -0.12000000000000001
    endloop
  endfacet
  facet normal 0 -0.70710678118655501 0.70710678118654002
    outer loop
      vertex 210.40000000000001 -60.120000000000005 -0.12000000000000001
      vertex 210.40000000000001 -60.160000000000004 -0.16
      vertex 210.44 -60.160000000000004 -0.16
    endloop
  endfacet
  facet normal 0 -0.70710678118655501 0.70710678118654002
    outer loop
      vertex 210.40000000000001 -60.120000000000005 -0.12000000000000001
      vertex 210.44 -60.160000000000004 -0.16
      vertex 210.47999999999999 -60.120000000000005 -0.12000000000000001
    endloop
  endfacet
  facet normal 1.4374625781409491e-16 0.70710678118654746 0.70710678118654757
    outer loop
      vertex 210.56 0.16 -0.16
      vertex 210.52000000000001 0.12000000000000001 -0.12000000000000001
      vertex 210.59999999999999 0.12 -0.12000000000000001
    endloop
  endfacet
  facet normal -0 0.70710678118654746 0.70710678118654768
    outer loop
      vertex 210.56 0.16 -0.16
      vertex 210.59999999999999 0.12 -0.12000000000000001
      vertex 210.59999999999999 0.16 -0.16
    endloop
  endfacet
  facet normal 0.70710678118661785 0 0.7071067811864773
    outer loop
      vertex 210.52000000000001 0.12 -0.12000000000000001
      vertex 210.56 0.16 -0.16
      vertex 210.56 0.20000000000000001 -0.16
    endloop
  endfacet
  facet normal 0.70710678118661785 -0 0.7071067811864773
    outer loop
      vertex 210.52000000000001 0.12 -0.12000000000000001
      vertex 210.56 0.20000000000000001 -0.16
      vertex 210.52000000000001 0.20000000000000001 -0.12000000000000001
    endloop
  endfacet
  facet normal 0.70710678118661785 0 0.70710678118647718
    outer loop
      vertex 210.56 8.0399999999999991 -0.16
      vertex 210.52000000000001 6.0800000000000001 -0.12000000000000001
      vertex 210.52000000000001 0.20000000000000001 -0.12000000000000001
    endloop
  endfacet
  facet normal 0.70710678118661796 0 0.70710678118647718
    outer loop
      vertex 210.56 8.0399999999999991 -0.16
      vertex 210.52000000000001 0.20000000000000001 -0.12000000000000001
      vertex 210.56 0.20000000000000001 -0.16
    endloop
  endfacet
  facet normal 0.70710678118661785 0 0.7071067811864773
    outer loop
      vertex 210.52000000000001 6.0799999999999992 -0.12000000000000001
      vertex 210.56 8.0399999999999991 -0.16
      vertex 210.56 10 -0.16
    endloop
  endfacet
  facet normal 0.70710678118661774 -0 0.70710678118647718
    outer loop
      vertex 210.52000000000001 6.0799999999999992 -0.12000000000000001
      vertex 210.56 10 -0.16
      vertex 210.52000000000001 10 -0.12000000000000001
    endloop
  endfacet
  facet normal 0.69631062382286268 -0.17407765595568089 0.69631062382272424
    outer loop
      vertex 210.56 10.16 -0.12000000000000001
      vertex 210.52000000000001 10 -0.12000000000000001
      vertex 210.56 10 -0.16
    endloop
  endfacet
  facet normal 0.69631062382286268 -0.17407765595568089 0.69631062382272424
    outer loop
      vertex 210.56 10.16 -0.12000000000000001
      vertex 210.56 10 -0.16
      vertex 210.59999999999999 10.16 -0.16
    endloop
  endfacet
  facet normal 0.69631062382286213 -0.17407765595568483 0.6963106238227238
    outer loop
      vertex 210.56 10.16 -0.12000000000000001
      vertex 210.59999999999999 10.16 -0.16
      vertex 210.59999999999999 10.199999999999999 -0.14999999999999999
    endloop
  endfacet
  facet normal 0.60000000000007636 -0 0.79999999999994287
    outer loop
      vertex 210.56 10.16 -0.12000000000000001
      vertex 210.59999999999999 10.199999999999999 -0.14999999999999999
      vertex 210.56 10.199999999999999 -0.12000000000000001
    endloop
  endfacet
  facet normal 0.60000000000007625 0 0.79999999999994287
    outer loop
      vertex 210.56 18.039999999999999 -0.12000000000000001
      vertex 210.56 10.199999999999999 -0.12000000000000001
      vertex 210.59999999999999 10.199999999999999 -0.14999999999999999
    endloop
  endfacet
  facet normal 0.60000000000007625 0 0.79999999999994287
    outer loop
      vertex 210.56 18.039999999999999 -0.12000000000000001
      vertex 210.59999999999999 10.199999999999999 -0.14999999999999999
      vertex 210.59999999999999 20 -0.14999999999999999
    endloop
  endfacet
  facet normal 0.60000000000007614 -0 0.79999999999994287
    outer loop
      vertex 210.56 18.039999999999999 -0.12000000000000001
      vertex 210.59999999999999 20 -0.14999999999999999
      vertex 210.56 20 -0.12000000000000001
    endloop
  endfacet
  facet normal 0.58834840541462863 -0.19611613513816892 0.78446454055268244
    outer loop
      vertex 210.56 20 -0.12000000000000001
      vertex 210.59999999999999 20 -0.14999999999999999
      vertex 210.59999999999999 20.120000000000001 -0.12000000000000001
    endloop
  endfacet
  facet normal 1.2558631391024893e-13 0.70710678118655501 0.70710678118654013
    outer loop
      vertex 210.76000000000002 -80.040000000000006 -0.16
      vertex 210.72000000000003 -80.079999999999998 -0.12000000000000001
      vertex 210.80000000000001 -80.080000000000013 -0.12000000000000001
    endloop
  endfacet
  facet normal -0 0.70710678118649228 0.70710678118660286
    outer loop
      vertex 210.76000000000002 -80.040000000000006 -0.16
      vertex 210.80000000000001 -80.080000000000013 -0.12000000000000001
      vertex 210.80000000000001 -80.040000000000006 -0.16
    endloop
  endfacet
  facet normal 8.3724209273467066e-14 0.70710678118661774 0.70710678118647718
    outer loop
      vertex 210.59999999999999 -80.040000000000006 -0.16
      vertex 210.59999999999999 -80.079999999999998 -0.12000000000000001
      vertex 210.72000000000003 -80.080000000000013 -0.12000000000000001
    endloop
  endfacet
  facet normal -0 0.70710678118649217 0.70710678118660286
    outer loop
      vertex 210.59999999999999 -80.040000000000006 -0.16
      vertex 210.72000000000003 -80.080000000000013 -0.12000000000000001
      vertex 210.76000000000002 -80.040000000000006 -0.16
    endloop
  endfacet
  facet normal 0 -0.70710678118655501 0.70710678118654002
    outer loop
      vertex 210.68000000000001 -60.120000000000005 -0.12000000000000001
      vertex 210.63999999999999 -60.160000000000004 -0.16
      vertex 210.80000000000001 -60.160000000000004 -0.16
    endloop
  endfacet
  facet normal 0 -0.7071067811865549 0.70710678118654002
    outer loop
      vertex 210.68000000000001 -60.120000000000005 -0.12000000000000001
      vertex 210.80000000000001 -60.160000000000004 -0.16
      vertex 210.80000000000001 -60.120000000000005 -0.12000000000000001
    endloop
  endfacet
  facet normal 0 -0.70710678118655501 0.70710678118654002
    outer loop
      vertex 210.59999999999999 -60.120000000000005 -0.12000000000000001
      vertex 210.59999999999999 -60.160000000000004 -0.16
      vertex 210.63999999999999 -60.160000000000004 -0.16
    endloop
  endfacet
  facet normal 0 -0.70710678118655501 0.70710678118654002
    outer loop
      vertex 210.59999999999999 -60.120000000000005 -0.12000000000000001
      vertex 210.63999999999999 -60.160000000000004 -0.16
      vertex 210.67999999999998 -60.120000000000005 -0.12000000000000001
    endloop
  endfacet
  facet normal 1.4374625781409491e-16 0.70710678118654746 0.70710678118654757
    outer loop
      vertex 210.76000000000002 0.16 -0.16
      vertex 210.72000000000003 0.12000000000000001 -0.12000000000000001
      vertex 210.80000000000001 0.12 -0.12000000000000001
    endloop
  endfacet
  facet normal -0 0.70710678118654746 0.70710678118654768
    outer loop
      vertex 210.76000000000002 0.16 -0.16
      vertex 210.80000000000001 0.12 -0.12000000000000001
      vertex 210.80000000000001 0.16 -0.16
    endloop
  endfacet
  facet normal 9.5830838542684574e-17 0.70710678118654757 0.70710678118654757
    outer loop
      vertex 210.59999999999999 0.16 -0.16
      vertex 210.59999999999999 0.12000000000000001 -0.12000000000000001
      vertex 210.72000000000003 0.12 -0.12000000000000001
    endloop
  endfacet
  facet normal -0 0.70710678118654735 0.70710678118654768
    outer loop
      vertex 210.59999999999999 0.16 -0.16
      vertex 210.72000000000003 0.12 -0.12000000000000001
      vertex 210.76000000000002 0.16 -0.16
    endloop
  endfacet
  facet normal 0 -0.24253562503633808 0.97014250014533066
    outer loop
      vertex 210.76000000000002 10.16 -0.16
      vertex 210.80000000000001 10.16 -0.16
      vertex 210.80000000000001 10.199999999999999 -0.14999999999999999
    endloop
  endfacet
  facet normal 0 -0.24253562503633805 0.97014250014533066
    outer loop
      vertex 210.59999999999999 10.16 -0.16
      vertex 210.76000000000002 10.16 -0.16
      vertex 210.80000000000001 10.199999999999999 -0.14999999999999999
    endloop
  endfacet
  facet normal 0 -0.24253562503633799 0.97014250014533054
    outer loop
      vertex 210.59999999999999 10.16 -0.16
      vertex 210.80000000000001 10.199999999999999 -0.14999999999999999
      vertex 210.59999999999999 10.199999999999999 -0.14999999999999999
    endloop
  endfacet
  facet normal 0 0 1
    outer loop
      vertex 210.59999999999999 10.199999999999999 -0.14999999999999999
      vertex 210.80000000000001 10.199999999999999 -0.14999999999999999
      vertex 210.80000000000001 20 -0.14999999999999999
    endloop
  endfacet
  facet normal 0 0 1
    outer loop
      vertex 210.59999999999999 10.199999999999999 -0.14999999999999999
      vertex 210.80000000000001 20 -0.14999999999999999
      vertex 210.59999999999999 20 -0.14999999999999999
    endloop
  endfacet
  facet normal 0 -0.24253562503633094 0.97014250014533232
    outer loop
      vertex 210.72 20.120000000000001 -0.12000000000000001
      vertex 210.59999999999999 20 -0.14999999999999999
      vertex 210.80000000000001 20 -0.14999999999999999
    endloop
  endfacet
  facet normal 0 -0.24253562503633097 0.97014250014533232
    outer loop
      vertex 210.72 20.120000000000001 -0.12000000000000001
      vertex 210.80000000000001 20 -0.14999999999999999
      vertex 210.80000000000001 20.120000000000001 -0.12000000000000001
    endloop
  endfacet
  facet normal 0 -0.24253562503633097 0.97014250014533243
    outer loop
      vertex 210.59999999999999 20.120000000000001 -0.12000000000000001
      vertex 210.59999999999999 20 -0.14999999999999999
      vertex 210.72 20.120000000000001 -0.12000000000000001
    endloop
  endfacet
  facet normal -0.028272964322667904 0.7068241080667127 0.70682410806657214
    outer loop
      vertex 210.80000000000001 -80.040000000000006 -0.16
      vertex 210.80000000000001 -80.079999999999998 -0.12000000000000001
      vertex 212.80000000000001 -80 -0.12000000000000001
    endloop
  endfacet
  facet normal -0.028272964322667904 0.70682410806658713 0.70682410806669771
    outer loop
      vertex 210.80000000000001 -80.040000000000006 -0.16
      vertex 212.80000000000001 -80 -0.12000000000000001
      vertex 211.80000000000001 -80 -0.16
    endloop
  endfacet
  facet normal -0.039968038348871568 0 0.99920095872178938
    outer loop
      vertex 212.80000000000001 -72.079999999999998 -0.12000000000000001
      vertex 211.80000000000001 -76.039999999999992 -0.16
      vertex 211.80000000000001 -80 -0.16
    endloop
  endfacet
  facet normal -0.039968038348871575 0 0.99920095872178949
    outer loop
      vertex 212.80000000000001 -72.079999999999998 -0.12000000000000001
      vertex 211.80000000000001 -80 -0.16
      vertex 212.80000000000001 -80 -0.12000000000000001
    endloop
  endfacet
  facet normal -0.039968038348871575 0 0.99920095872178949
    outer loop
      vertex 211.80000000000001 -76.040000000000006 -0.16
      vertex 212.80000000000001 -72.080000000000013 -0.12000000000000001
      vertex 212.80000000000001 -60.200000000000003 -0.12000000000000001
    endloop
  endfacet
  facet normal -0.039968038348871575 0 0.99920095872178949
    outer loop
      vertex 211.80000000000001 -76.040000000000006 -0.16
      vertex 212.80000000000001 -60.200000000000003 -0.12000000000000001
      vertex 211.80000000000001 -60.200000000000003 -0.16
    endloop
  endfacet
  facet normal -0.039968038348871575 0 0.99920095872178949
    outer loop
      vertex 212.80000000000001 -60.120000000000005 -0.12000000000000001
      vertex 211.80000000000001 -60.160000000000004 -0.16
      vertex 211.80000000000001 -60.200000000000003 -0.16
    endloop
  endfacet
  facet normal -0.039968038348871575 0 0.99920095872178949
    outer loop
      vertex 212.80000000000001 -60.120000000000005 -0.12000000000000001
      vertex 211.80000000000001 -60.200000000000003 -0.16
      vertex 212.80000000000001 -60.200000000000003 -0.12000000000000001
    endloop
  endfacet
  facet normal 0 -0.70710678118655501 0.70710678118654002
    outer loop
      vertex 210.80000000000001 -60.120000000000005 -0.12000000000000001
      vertex 210.80000000000001 -60.160000000000004 -0.16
      vertex 211.80000000000001 -60.160000000000004 -0.16
    endloop
  endfacet
  facet normal 0 -0.70710678118655501 0.70710678118654002
    outer loop
      vertex 210.80000000000001 -60.120000000000005 -0.12000000000000001
      vertex 211.80000000000001 -60.160000000000004 -0.16
      vertex 212.80000000000001 -60.120000000000005 -0.12000000000000001
    endloop
  endfacet
  facet normal -0.0062468285873951042 0.78085357342438677 0.62468285873950913
    outer loop
      vertex 214.80000000000001 0.16 -0.16
      vertex 213.80000000000001 0.12000000000000001 -0.12000000000000001
      vertex 215.80000000000001 0.13600000000000004 -0.12000000000000001
    endloop
  endfacet
  facet normal -0.0062468285873951198 0.78085357342438655 0.62468285873950935
    outer loop
      vertex 214.80000000000001 0.16 -0.16
      vertex 215.80000000000001 0.13600000000000004 -0.12000000000000001
      vertex 215.80000000000001 0.16800000000000004 -0.16
    endloop
  endfacet
  facet normal 3.8332335417084353e-18 0.70710678118654746 0.70710678118654746
    outer loop
      vertex 210.80000000000001 0.16 -0.16
      vertex 210.80000000000001 0.12000000000000001 -0.12000000000000001
      vertex 213.80000000000001 0.12 -0.12000000000000001
    endloop
  endfacet
  facet normal -0 0.70710678118654746 0.70710678118654768
    outer loop
      vertex 210.80000000000001 0.16 -0.16
      vertex 213.80000000000001 0.12 -0.12000000000000001
      vertex 214.80000000000001 0.16 -0.16
    endloop
  endfacet
  facet normal 0 -0.24253562503633802 0.97014250014533054
    outer loop
      vertex 214.80000000000001 10.16 -0.16
      vertex 215.80000000000001 10.16 -0.16
      vertex 215.80000000000001 10.199999999999999 -0.14999999999999999
    endloop
  endfacet
  facet normal 0 -0.24253562503633802 0.97014250014533054
    outer loop
      vertex 210.80000000000001 10.16 -0.16
      vertex 214.80000000000001 10.16 -0.16
      vertex 215.80000000000001 10.199999999999999 -0.14999999999999999
    endloop
  endfacet
  facet normal 0 -0.24253562503633805 0.97014250014533066
    outer loop
      vertex 210.80000000000001 10.16 -0.16
      vertex 215.80000000000001 10.199999999999999 -0.14999999999999999
      vertex 210.80000000000001 10.199999999999999 -0.14999999999999999
    endloop
  endfacet
  facet normal 0 0 1
    outer loop
      vertex 210.80000000000001 10.199999999999999 -0.14999999999999999
      vertex 215.80000000000001 10.199999999999999 -0.14999999999999999
      vertex 215.80000000000001 20 -0.14999999999999999
    endloop
  endfacet
  facet normal 0 0 1
    outer loop
      vertex 210.80000000000001 10.199999999999999 -0.14999999999999999
      vertex 215.80000000000001 20 -0.14999999999999999
      vertex 210.80000000000001 20 -0.14999999999999999
    endloop
  endfacet
  facet normal 0 -0.24253562503633094 0.97014250014533232
    outer loop
      vertex 213.80000000000001 20.120000000000001 -0.12000000000000001
      vertex 210.80000000000001 20 -0.14999999999999999
      vertex 215.80000000000001 20 -0.14999999999999999
    endloop
  endfacet
  facet normal 0 -0.24253562503633094 0.97014250014533232
    outer loop
      vertex 213.80000000000001 20.120000000000001 -0.12000000000000001
      vertex 215.80000000000001 20 -0.14999999999999999
      vertex 215.80000000000001 20.120000000000001 -0.12000000000000001
    endloop
  endfacet
  facet normal 0 -0.24253562503633097 0.97014250014533243
    outer loop
      vertex 210.80000000000001 20.120000000000001 -0.12000000000000001
      vertex 210.80000000000001 20 -0.14999999999999999
      vertex 213.80000000000001 20.120000000000001 -0.12000000000000001
    endloop
  endfacet
  facet normal -3.3071080454077982e-16 0.78086880944303039 0.62469504755442407
    outer loop
      vertex 215.96799999999999 0.16800000000000001 -0.16
      vertex 215.93600000000001 0.13600000000000001 -0.12000000000000001
      vertex 216 0.13600000000000004 -0.12000000000000001
    endloop
  endfacet
  facet normal -6.7729572769921604e-16 0.78086880944303028 0.62469504755442429
    outer loop
      vertex 215.96799999999999 0.16800000000000001 -0.16
      vertex 216 0.13600000000000004 -0.12000000000000001
      vertex 216 0.16800000000000004 -0.16
    endloop
  endfacet
  facet normal -1.5562861390153121e-16 0.78086880944303028 0.6246950475544244
    outer loop
      vertex 215.80000000000001 0.16800000000000001 -0.16
      vertex 215.80000000000001 0.13600000000000001 -0.12000000000000001
      vertex 215.93600000000001 0.13600000000000004 -0.12000000000000001
    endloop
  endfacet
  facet normal -1.2900871003800595e-16 0.78086880944303039 0.62469504755442429
    outer loop
      vertex 215.80000000000001 0.16800000000000001 -0.16
      vertex 215.93600000000001 0.13600000000000004 -0.12000000000000001
      vertex 215.96799999999999 0.16800000000000004 -0.16
    endloop
  endfacet
  facet normal 0 -0.24253562503633808 0.97014250014533066
    outer loop
      vertex 215.96000000000001 10.16 -0.16
      vertex 216 10.16 -0.16
      vertex 216 10.199999999999999 -0.14999999999999999
    endloop
  endfacet
  facet normal 0 -0.24253562503633805 0.97014250014533066
    outer loop
      vertex 215.80000000000001 10.16 -0.16
      vertex 215.96000000000001 10.16 -0.16
      vertex 216 10.199999999999999 -0.14999999999999999
    endloop
  endfacet
  facet normal 0 -0.24253562503633805 0.97014250014533054
    outer loop
      vertex 215.80000000000001 10.16 -0.16
      vertex 216 10.199999999999999 -0.14999999999999999
      vertex 215.80000000000001 10.199999999999999 -0.14999999999999999
    endloop
  endfacet
  facet normal 0 0 1
    outer loop
      vertex 215.80000000000001 10.199999999999999 -0.14999999999999999
      vertex 216 10.199999999999999 -0.14999999999999999
      vertex 216 20 -0.14999999999999999
    endloop
  endfacet
  facet normal 0 0 1
    outer loop
      vertex 215.80000000000001 10.199999999999999 -0.14999999999999999
      vertex 216 20 -0.14999999999999999
      vertex 215.80000000000001 20 -0.14999999999999999
    endloop
  endfacet
  facet normal 0 -0.24253562503633097 0.97014250014533232
    outer loop
      vertex 215.92000000000002 20.120000000000001 -0.12000000000000001
      vertex 215.80000000000001 20 -0.14999999999999999
      vertex 216 20 -0.14999999999999999
    endloop
  endfacet
  facet normal 0 -0.242535625036331 0.97014250014533243
    outer loop
      vertex 215.92000000000002 20.120000000000001 -0.12000000000000001
      vertex 216 20 -0.14999999999999999
      vertex 216 20.120000000000001 -0.12000000000000001
    endloop
  endfacet
  facet normal 0 -0.24253562503633097 0.97014250014533243
    outer loop
      vertex 215.80000000000001 20.120000000000001 -0.12000000000000001
      vertex 215.80000000000001 20 -0.14999999999999999
      vertex 215.92000000000002 20.120000000000001 -0.12000000000000001
    endloop
  endfacet
  facet normal -0.52981294282609337 0.66226617853248493 0.52981294282598801
    outer loop
      vertex 216 0.16800000000000001 -0.16
      vertex 216 0.13600000000000001 -0.12000000000000001
      vertex 216.07999999999998 0.20000000000000001 -0.12000000000000001
    endloop
  endfacet
  facet normal -0.52981294282609337 0.66226617853248493 0.52981294282598801
    outer loop
      vertex 216 0.16800000000000001 -0.16
      vertex 216.07999999999998 0.20000000000000001 -0.12000000000000001
      vertex 216.03999999999999 0.20000000000000001 -0.16
    endloop
  endfacet
  facet normal -0.70710678118661774 0 0.70710678118647718
    outer loop
      vertex 216.07999999999998 4.1200000000000001 -0.12000000000000001
      vertex 216.03999999999999 2.1600000000000001 -0.16
      vertex 216.03999999999999 0.20000000000000001 -0.16
    endloop
  endfacet
  facet normal -0.70710678118661774 0 0.70710678118647718
    outer loop
      vertex 216.07999999999998 4.1200000000000001 -0.12000000000000001
      vertex 216.03999999999999 0.20000000000000001 -0.16
      vertex 216.07999999999998 0.20000000000000001 -0.12000000000000001
    endloop
  endfacet
  facet normal -0.70710678118661774 0 0.70710678118647718
    outer loop
      vertex 216.03999999999999 2.1600000000000006 -0.16
      vertex 216.07999999999998 4.1200000000000001 -0.12000000000000001
      vertex 216.07999999999998 10 -0.12000000000000001
    endloop
  endfacet
  facet normal -0.70710678118661774 0 0.70710678118647718
    outer loop
      vertex 216.03999999999999 2.1600000000000006 -0.16
      vertex 216.07999999999998 10 -0.12000000000000001
      vertex 216.03999999999999 10 -0.16
    endloop
  endfacet
  facet normal -0.70710678118661785 0 0.70710678118647718
    outer loop
      vertex 216.07999999999998 10.079999999999998 -0.12000000000000001
      vertex 216.03999999999999 10.039999999999999 -0.16
      vertex 216.03999999999999 10 -0.16
    endloop
  endfacet
  facet normal -0.70710678118661785 0 0.70710678118647718
    outer loop
      vertex 216.07999999999998 10.079999999999998 -0.12000000000000001
      vertex 216.03999999999999 10 -0.16
      vertex 216.07999999999998 10 -0.12000000000000001
    endloop
  endfacet
  facet normal -0.58834840541463151 -0.19611613513816986 0.78446454055268011
    outer loop
      vertex 216 10.16 -0.16
      vertex 216.03999999999999 10.039999999999999 -0.16
      vertex 216.07999999999998 10.079999999999998 -0.12000000000000001
    endloop
  endfacet
  facet normal -0.5883484054146314 -0.19611613513816986 0.78446454055268022
    outer loop
      vertex 216 10.16 -0.16
      vertex 216.07999999999998 10.079999999999998 -0.12000000000000001
      vertex 216.03999999999999 10.199999999999999 -0.12000000000000001
    endloop
  endfacet
  facet normal -0.58834840541462785 -0.19611613513817475 0.78446454055268156
    outer loop
      vertex 216 10.16 -0.16
      vertex 216.03999999999999 10.199999999999999 -0.12000000000000001
      vertex 216 10.199999999999999 -0.14999999999999999
    endloop
  endfacet
  facet normal -0.60000000000007614 0 0.79999999999994287
    outer loop
      vertex 216.03999999999999 12.16 -0.12000000000000001
      vertex 216 10.199999999999999 -0.14999999999999999
      vertex 216.03999999999999 10.199999999999999 -0.12000000000000001
    endloop
  endfacet
  facet normal -0.60000000000007625 0 0.79999999999994276
    outer loop
      vertex 216 10.199999999999999 -0.14999999999999999
      vertex 216.03999999999999 12.159999999999998 -0.12000000000000001
      vertex 216.03999999999999 20 -0.12000000000000001
    endloop
  endfacet
  facet normal -0.60000000000007625 0 0.79999999999994287
    outer loop
      vertex 216 10.199999999999999 -0.14999999999999999
      vertex 216.03999999999999 20 -0.12000000000000001
      vertex 216 20 -0.14999999999999999
    endloop
  endfacet
  facet normal -0.60000000000007636 0 0.79999999999994287
    outer loop
      vertex 216.03999999999999 20.039999999999999 -0.12000000000000001
      vertex 216 20 -0.14999999999999999
      vertex 216.03999999999999 20 -0.12000000000000001
    endloop
  endfacet
  facet normal -0.43643578047206039 -0.2182178902359817 0.87287156094393448
    outer loop
      vertex 216 20.120000000000001 -0.12000000000000001
      vertex 216 20 -0.14999999999999999
      vertex 216.03999999999999 20.039999999999999 -0.12000000000000001
    endloop
  endfacet
endsolid terrain_band_2
