solid terrain_band_10
  facet normal -0.2425356250362975 0 0.97014250014534076
    outer loop
      vertex 176.72 -48.000000000000007 0.17999999999999999
      vertex 176.72 -60 0.17999999999999999
      vertex 176.80000000000001 -60 0.20000000000000001
    endloop
  endfacet
  facet normal -0.2425356250362975 0 0.97014250014534076
    outer loop
      vertex 176.72 -48.000000000000007 0.17999999999999999
      vertex 176.80000000000001 -60 0.20000000000000001
      vertex 176.80000000000001 -40 0.20000000000000001
    endloop
  endfacet
  facet normal -0.2425356250362975 0 0.97014250014534076
    outer loop
      vertex 176.72 -48.000000000000007 0.17999999999999999
      vertex 176.80000000000001 -40 0.20000000000000001
      vertex 176.72 -40 0.17999999999999999
    endloop
  endfacet
  facet normal -0.2425356250362975 0 0.97014250014534076
    outer loop
      vertex 176.72 -28.000000000000007 0.17999999999999999
      vertex 176.72 -40 0.17999999999999999
      vertex 176.80000000000001 -40 0.20000000000000001
    endloop
  endfacet
  facet normal -0.2425356250362975 0 0.97014250014534076
    outer loop
      vertex 176.72 -28.000000000000007 0.17999999999999999
      vertex 176.80000000000001 -40 0.20000000000000001
      vertex 176.80000000000001 -20 0.20000000000000001
    endloop
  endfacet
  facet normal -0.2425356250362975 0 0.97014250014534076
    outer loop
      vertex 176.72 -28.000000000000007 0.17999999999999999
      vertex 176.80000000000001 -20 0.20000000000000001
      vertex 176.72 -20 0.17999999999999999
    endloop
  endfacet
  facet normal -0.2425356250362975 0 0.97014250014534076
    outer loop
      vertex 176.72 -14.000000000000004 0.17999999999999999
      vertex 176.72 -20 0.17999999999999999
      vertex 176.80000000000001 -20 0.20000000000000001
    endloop
  endfacet
  facet normal -0.2425356250362975 0 0.97014250014534076
    outer loop
      vertex 176.72 -14.000000000000004 0.17999999999999999
      vertex 176.80000000000001 -20 0.20000000000000001
      vertex 176.80000000000001 -10 0.20000000000000001
    endloop
  endfacet
  facet normal -0.2425356250362975 0 0.97014250014534076
    outer loop
      vertex 176.72 -14.000000000000004 0.17999999999999999
      vertex 176.80000000000001 -10 0.20000000000000001
      vertex 176.72 -10 0.17999999999999999
    endloop
  endfacet
  facet normal -0.2425356250362975 0 0.97014250014534076
    outer loop
      vertex 176.72 -4.0000000000000027 0.17999999999999999
      vertex 176.72 -10 0.17999999999999999
      vertex 176.80000000000001 -10 0.20000000000000001
    endloop
  endfacet
  facet normal -0.2425356250362975 0 0.97014250014534076
    outer loop
      vertex 176.72 -4.0000000000000027 0.17999999999999999
      vertex 176.80000000000001 -10 0.20000000000000001
      vertex 176.80000000000001 0 0.20000000000000001
    endloop
  endfacet
  facet normal -0.2425356250362975 0 0.97014250014534076
    outer loop
      vertex 176.72 -4.0000000000000027 0.17999999999999999
      vertex 176.80000000000001 0 0.20000000000000001
      vertex 176.72 0 0.17999999999999999
    endloop
  endfacet
  facet normal -0.24253562503629747 0 0.97014250014534065
    outer loop
      vertex 176.72 0.00059999999999999984 0.17999999999999999
      vertex 176.72 0 0.17999999999999999
      vertex 176.80000000000001 0 0.20000000000000001
    endloop
  endfacet
  facet normal -0.24253562503629747 0 0.97014250014534076
    outer loop
      vertex 176.72 0.00059999999999999984 0.17999999999999999
      vertex 176.80000000000001 0 0.20000000000000001
      vertex 176.80000000000001 0.001 0.20000000000000001
    endloop
  endfacet
  facet normal -0.2425356250362975 0 0.97014250014534076
    outer loop
      vertex 176.72 0.00059999999999999973 0.17999999999999999
      vertex 176.80000000000001 0.001 0.20000000000000001
      vertex 176.72 0.001 0.17999999999999999
    endloop
  endfacet
  facet normal -0.2425356250362975 0 0.97014250014534076
    outer loop
      vertex 176.72 6.0003999999999973 0.17999999999999999
      vertex 176.72 0.001 0.17999999999999999
      vertex 176.80000000000001 0.001 0.20000000000000001
    endloop
  endfacet
  facet normal -0.2425356250362975 0 0.97014250014534087
    outer loop
      vertex 176.72 6.0003999999999973 0.17999999999999999
      vertex 176.80000000000001 0.001 0.20000000000000001
      vertex 176.80000000000001 10 0.20000000000000001
    endloop
  endfacet
  facet normal -0.2425356250362975 0 0.97014250014534076
    outer loop
      vertex 176.72 6.0003999999999982 0.17999999999999999
      vertex 176.80000000000001 10 0.20000000000000001
      vertex 176.72 10 0.17999999999999999
    endloop
  endfacet
  facet normal -0.2425356250362975 0 0.97014250014534076
    outer loop
      vertex 176.72 15.999999999999996 0.17999999999999999
      vertex 176.72 10 0.17999999999999999
      vertex 176.80000000000001 10 0.20000000000000001
    endloop
  endfacet
  facet normal -0.2425356250362975 0 0.97014250014534076
    outer loop
      vertex 176.72 15.999999999999996 0.17999999999999999
      vertex 176.80000000000001 10 0.20000000000000001
      vertex 176.80000000000001 20 0.20000000000000001
    endloop
  endfacet
  facet normal -0.2425356250362975 0 0.97014250014534076
    outer loop
      vertex 176.72 15.999999999999996 0.17999999999999999
      vertex 176.80000000000001 20 0.20000000000000001
      vertex 176.72 20 0.17999999999999999
    endloop
  endfacet
  facet normal -0.2425356250362975 0 0.97014250014534076
    outer loop
      vertex 176.72 31.999999999999993 0.17999999999999999
      vertex 176.72 20 0.17999999999999999
      vertex 176.80000000000001 20 0.20000000000000001
    endloop
  endfacet
  facet normal -0.2425356250362975 0 0.97014250014534076
    outer loop
      vertex 176.72 31.999999999999993 0.17999999999999999
      vertex 176.80000000000001 20 0.20000000000000001
      vertex 176.80000000000001 40 0.20000000000000001
    endloop
  endfacet
  facet normal -0.2425356250362975 0 0.97014250014534076
    outer loop
      vertex 176.72 31.999999999999993 0.17999999999999999
      vertex 176.80000000000001 40 0.20000000000000001
      vertex 176.72 40 0.17999999999999999
    endloop
  endfacet
  facet normal -0.2425356250362975 0 0.97014250014534076
    outer loop
      vertex 176.72 51.999999999999993 0.17999999999999999
      vertex 176.72 40 0.17999999999999999
      vertex 176.80000000000001 40 0.20000000000000001
    endloop
  endfacet
  facet normal -0.2425356250362975 0 0.97014250014534076
    outer loop
      vertex 176.72 51.999999999999993 0.17999999999999999
      vertex 176.80000000000001 40 0.20000000000000001
      vertex 176.80000000000001 60 0.20000000000000001
    endloop
  endfacet
  facet normal -0.2425356250362975 0 0.97014250014534076
    outer loop
      vertex 176.72 51.999999999999993 0.17999999999999999
      vertex 176.80000000000001 60 0.20000000000000001
      vertex 176.72 60 0.17999999999999999
    endloop
  endfacet
  facet normal 0 0 1
    outer loop
      vertex 176.80000000000001 -60 0.20000000000000001
      vertex 177 -60 0.20000000000000001
      vertex 177 -40 0.20000000000000001
    endloop
  endfacet
  facet normal 0 0 1
    outer loop
      vertex 176.80000000000001 -60 0.20000000000000001
      vertex 177 -40 0.20000000000000001
      vertex 176.80000000000001 -40 0.20000000000000001
    endloop
  endfacet
  facet normal 0 0 1
    outer loop
      vertex 176.80000000000001 -40 0.20000000000000001
      vertex 177 -40 0.20000000000000001
      vertex 177 -20 0.20000000000000001
    endloop
  endfacet
  facet normal 0 0 1
    outer loop
      vertex 176.80000000000001 -40 0.20000000000000001
      vertex 177 -20 0.20000000000000001
      vertex 176.80000000000001 -20 0.20000000000000001
    endloop
  endfacet
  facet normal 0 0 1
    outer loop
      vertex 176.80000000000001 -20 0.20000000000000001
      vertex 177 -20 0.20000000000000001
      vertex 177 -10 0.20000000000000001
    endloop
  endfacet
  facet normal 0 0 1
    outer loop
      vertex 176.80000000000001 -20 0.20000000000000001
      vertex 177 -10 0.20000000000000001
      vertex 176.80000000000001 -10 0.20000000000000001
    endloop
  endfacet
  facet normal 0 0 1
    outer loop
      vertex 176.80000000000001 -10 0.20000000000000001
      vertex 177 -10 0.20000000000000001
      vertex 177 0 0.20000000000000001
    endloop
  endfacet
  facet normal 0 0 1
    outer loop
      vertex 176.80000000000001 -10 0.20000000000000001
      vertex 177 0 0.20000000000000001
      vertex 176.80000000000001 0 0.20000000000000001
    endloop
  endfacet
  facet normal 0 0 1
    outer loop
      vertex 176.80000000000001 0 0.20000000000000001
      vertex 177 0 0.20000000000000001
      vertex 177 0.001 0.20000000000000001
    endloop
  endfacet
  facet normal 0 0 1
    outer loop
      vertex 176.80000000000001 0 0.20000000000000001
      vertex 177 0.001 0.20000000000000001
      vertex 176.80000000000001 0.001 0.20000000000000001
    endloop
  endfacet
  facet normal 0 0 1
    outer loop
      vertex 176.80000000000001 0.001 0.20000000000000001
      vertex 177 0.001 0.20000000000000001
      vertex 177 10 0.20000000000000001
    endloop
  endfacet
  facet normal 0 0 1
    outer loop
      vertex 176.80000000000001 0.001 0.20000000000000001
      vertex 177 10 0.20000000000000001
      vertex 176.80000000000001 10 0.20000000000000001
    endloop
  endfacet
  facet normal 0 0 1
    outer loop
      vertex 176.80000000000001 10 0.20000000000000001
      vertex 177 10 0.20000000000000001
      vertex 177 20 0.20000000000000001
    endloop
  endfacet
  facet normal 0 0 1
    outer loop
      vertex 176.80000000000001 10 0.20000000000000001
      vertex 177 20 0.20000000000000001
      vertex 176.80000000000001 20 0.20000000000000001
    endloop
  endfacet
  facet normal 0 0 1
    outer loop
      vertex 176.80000000000001 20 0.20000000000000001
      vertex 177 20 0.20000000000000001
      vertex 177 40 0.20000000000000001
    endloop
  endfacet
  facet normal 0 0 1
    outer loop
      vertex 176.80000000000001 20 0.20000000000000001
      vertex 177 40 0.20000000000000001
      vertex 176.80000000000001 40 0.20000000000000001
    endloop
  endfacet
  facet normal 0 0 1
    outer loop
      vertex 176.80000000000001 40 0.20000000000000001
      vertex 177 40 0.20000000000000001
      vertex 177 60 0.20000000000000001
    endloop
  endfacet
  facet normal 0 0 1
    outer loop
      vertex 176.80000000000001 40 0.20000000000000001
      vertex 177 60 0.20000000000000001
      vertex 176.80000000000001 60 0.20000000000000001
    endloop
  endfacet
  facet normal 0 0 1
    outer loop
      vertex 177 -60 0.20000000000000001
      vertex 177.19999999999999 -60 0.20000000000000001
      vertex 177.19999999999999 -40 0.20000000000000001
    endloop
  endfacet
  facet normal 0 0 1
    outer loop
      vertex 177 -60 0.20000000000000001
      vertex 177.19999999999999 -40 0.20000000000000001
      vertex 177 -40 0.20000000000000001
    endloop
  endfacet
  facet normal 0 0 1
    outer loop
      vertex 177 -40 0.20000000000000001
      vertex 177.19999999999999 -40 0.20000000000000001
      vertex 177.19999999999999 -20 0.20000000000000001
    endloop
  endfacet
  facet normal 0 0 1
    outer loop
      vertex 177 -40 0.20000000000000001
      vertex 177.19999999999999 -20 0.20000000000000001
      vertex 177 -20 0.20000000000000001
    endloop
  endfacet
  facet normal 0 0 1
    outer loop
      vertex 177 -20 0.20000000000000001
      vertex 177.19999999999999 -20 0.20000000000000001
      vertex 177.19999999999999 -10 0.20000000000000001
    endloop
  endfacet
  facet normal 0 0 1
    outer loop
      vertex 177 -20 0.20000000000000001
      vertex 177.19999999999999 -10 0.20000000000000001
      vertex 177 -10 0.20000000000000001
    endloop
  endfacet
  facet normal 0 0 1
    outer loop
      vertex 177 -10 0.20000000000000001
      vertex 177.19999999999999 -10 0.20000000000000001
      vertex 177.19999999999999 0 0.20000000000000001
    endloop
  endfacet
  facet normal 0 0 1
    outer loop
      vertex 177 -10 0.20000000000000001
      vertex 177.19999999999999 0 0.20000000000000001
      vertex 177 0 0.20000000000000001
    endloop
  endfacet
  facet normal 0 0 1
    outer loop
      vertex 177 0 0.20000000000000001
      vertex 177.19999999999999 0 0.20000000000000001
      vertex 177.19999999999999 0.001 0.20000000000000001
    endloop
  endfacet
  facet normal 0 0 1
    outer loop
      vertex 177 0 0.20000000000000001
      vertex 177.19999999999999 0.001 0.20000000000000001
      vertex 177 0.001 0.20000000000000001
    endloop
  endfacet
  facet normal 0 0 1
    outer loop
      vertex 177 0.001 0.20000000000000001
      vertex 177.19999999999999 0.001 0.20000000000000001
      vertex 177.19999999999999 10 0.20000000000000001
    endloop
  endfacet
  facet normal 0 0 1
    outer loop
      vertex 177 0.001 0.20000000000000001
      vertex 177.19999999999999 10 0.20000000000000001
      vertex 177 10 0.20000000000000001
    endloop
  endfacet
  facet normal 0 0 1
    outer loop
      vertex 177 10 0.20000000000000001
      vertex 177.19999999999999 10 0.20000000000000001
      vertex 177.19999999999999 20 0.20000000000000001
    endloop
  endfacet
  facet normal 0 0 1
    outer loop
      vertex 177 10 0.20000000000000001
      vertex 177.19999999999999 20 0.20000000000000001
      vertex 177 20 0.20000000000000001
    endloop
  endfacet
  facet normal 0 0 1
    outer loop
      vertex 177 20 0.20000000000000001
      vertex 177.19999999999999 20 0.20000000000000001
      vertex 177.19999999999999 40 0.20000000000000001
    endloop
  endfacet
  facet normal 0 0 1
    outer loop
      vertex 177 20 0.20000000000000001
      vertex 177.19999999999999 40 0.20000000000000001
      vertex 177 40 0.20000000000000001
    endloop
  endfacet
  facet normal 0 0 1
    outer loop
      vertex 177 40 0.20000000000000001
      vertex 177.19999999999999 40 0.20000000000000001
      vertex 177.19999999999999 60 0.20000000000000001
    endloop
  endfacet
  facet normal 0 0 1
    outer loop
      vertex 177 40 0.20000000000000001
      vertex 177.19999999999999 60 0.20000000000000001
      vertex 177 60 0.20000000000000001
    endloop
  endfacet
  facet normal 0 0 1
    outer loop
      vertex 177.19999999999999 -60 0.20000000000000001
      vertex 177.40000000000001 -60 0.20000000000000001
      vertex 177.40000000000001 -40 0.20000000000000001
    endloop
  endfacet
  facet normal 0 0 1
    outer loop
      vertex 177.19999999999999 -60 0.20000000000000001
      vertex 177.40000000000001 -40 0.20000000000000001
      vertex 177.19999999999999 -40 0.20000000000000001
    endloop
  endfacet
  facet normal 0 0 1
    outer loop
      vertex 177.19999999999999 -40 0.20000000000000001
      vertex 177.40000000000001 -40 0.20000000000000001
      vertex 177.40000000000001 -20 0.20000000000000001
    endloop
  endfacet
  facet normal 0 0 1
    outer loop
      vertex 177.19999999999999 -40 0.20000000000000001
      vertex 177.40000000000001 -20 0.20000000000000001
      vertex 177.19999999999999 -20 0.20000000000000001
    endloop
  endfacet
  facet normal 0 0 1
    outer loop
      vertex 177.19999999999999 -20 0.20000000000000001
      vertex 177.40000000000001 -20 0.20000000000000001
      vertex 177.40000000000001 -10 0.20000000000000001
    endloop
  endfacet
  facet normal 0 0 1
    outer loop
      vertex 177.19999999999999 -20 0.20000000000000001
      vertex 177.40000000000001 -10 0.20000000000000001
      vertex 177.19999999999999 -10 0.20000000000000001
    endloop
  endfacet
  facet normal 0 0 1
    outer loop
      vertex 177.19999999999999 -10 0.20000000000000001
      vertex 177.40000000000001 -10 0.20000000000000001
      vertex 177.40000000000001 0 0.20000000000000001
    endloop
  endfacet
  facet normal 0 0 1
    outer loop
      vertex 177.19999999999999 -10 0.20000000000000001
      vertex 177.40000000000001 0 0.20000000000000001
      vertex 177.19999999999999 0 0.20000000000000001
    endloop
  endfacet
  facet normal 0 0 1
    outer loop
      vertex 177.19999999999999 0 0.20000000000000001
      vertex 177.40000000000001 0 0.20000000000000001
      vertex 177.40000000000001 0.001 0.20000000000000001
    endloop
  endfacet
  facet normal 0 0 1
    outer loop
      vertex 177.19999999999999 0 0.20000000000000001
      vertex 177.40000000000001 0.001 0.20000000000000001
      vertex 177.19999999999999 0.001 0.20000000000000001
    endloop
  endfacet
  facet normal 0 0 1
    outer loop
      vertex 177.19999999999999 0.001 0.20000000000000001
      vertex 177.40000000000001 0.001 0.20000000000000001
      vertex 177.40000000000001 10 0.20000000000000001
    endloop
  endfacet
  facet normal 0 0 1
    outer loop
      vertex 177.19999999999999 0.001 0.20000000000000001
      vertex 177.40000000000001 10 0.20000000000000001
      vertex 177.19999999999999 10 0.20000000000000001
    endloop
  endfacet
  facet normal 0 0 1
    outer loop
      vertex 177.19999999999999 10 0.20000000000000001
      vertex 177.40000000000001 10 0.20000000000000001
      vertex 177.40000000000001 20 0.20000000000000001
    endloop
  endfacet
  facet normal 0 0 1
    outer loop
      vertex 177.19999999999999 10 0.20000000000000001
      vertex 177.40000000000001 20 0.20000000000000001
      vertex 177.19999999999999 20 0.20000000000000001
    endloop
  endfacet
  facet normal 0 0 1
    outer loop
      vertex 177.19999999999999 20 0.20000000000000001
      vertex 177.40000000000001 20 0.20000000000000001
      vertex 177.40000000000001 40 0.20000000000000001
    endloop
  endfacet
  facet normal 0 0 1
    outer loop
      vertex 177.19999999999999 20 0.20000000000000001
      vertex 177.40000000000001 40 0.20000000000000001
      vertex 177.19999999999999 40 0.20000000000000001
    endloop
  endfacet
  facet normal 0 0 1
    outer loop
      vertex 177.19999999999999 40 0.20000000000000001
      vertex 177.40000000000001 40 0.20000000000000001
      vertex 177.40000000000001 60 0.20000000000000001
    endloop
  endfacet
  facet normal 0 0 1
    outer loop
      vertex 177.19999999999999 40 0.20000000000000001
      vertex 177.40000000000001 60 0.20000000000000001
      vertex 177.19999999999999 60 0.20000000000000001
    endloop
  endfacet
  facet normal 0.44721359550002937 0 0.89442719099988
    outer loop
      vertex 177.44 -56 0.17999999999999999
      vertex 177.40000000000001 -60 0.20000000000000001
      vertex 177.44 -60 0.17999999999999999
    endloop
  endfacet
  facet normal 0.44721359550002937 0 0.89442719099988
    outer loop
      vertex 177.40000000000001 -60 0.20000000000000001
      vertex 177.44 -56 0.17999999999999999
      vertex 177.44 -40 0.17999999999999999
    endloop
  endfacet
  facet normal 0.44721359550002948 -0 0.89442719099988022
    outer loop
      vertex 177.40000000000001 -60 0.20000000000000001
      vertex 177.44 -40 0.17999999999999999
      vertex 177.40000000000001 -40 0.20000000000000001
    endloop
  endfacet
  facet normal 0.44721359550002937 0 0.89442719099988
    outer loop
      vertex 177.44 -36 0.17999999999999999
      vertex 177.40000000000001 -40 0.20000000000000001
      vertex 177.44 -40 0.17999999999999999
    endloop
  endfacet
  facet normal 0.44721359550002937 0 0.89442719099988
    outer loop
      vertex 177.40000000000001 -40 0.20000000000000001
      vertex 177.44 -36 0.17999999999999999
      vertex 177.44 -20 0.17999999999999999
    endloop
  endfacet
  facet normal 0.44721359550002948 -0 0.89442719099988022
    outer loop
      vertex 177.40000000000001 -40 0.20000000000000001
      vertex 177.44 -20 0.17999999999999999
      vertex 177.40000000000001 -20 0.20000000000000001
    endloop
  endfacet
  facet normal 0.44721359550002937 0 0.89442719099988
    outer loop
      vertex 177.44 -18 0.17999999999999999
      vertex 177.40000000000001 -20 0.20000000000000001
      vertex 177.44 -20 0.17999999999999999
    endloop
  endfacet
  facet normal 0.44721359550002937 0 0.89442719099988
    outer loop
      vertex 177.40000000000001 -20 0.20000000000000001
      vertex 177.44 -18 0.17999999999999999
      vertex 177.44 -10 0.17999999999999999
    endloop
  endfacet
  facet normal 0.44721359550002948 -0 0.89442719099988022
    outer loop
      vertex 177.40000000000001 -20 0.20000000000000001
      vertex 177.44 -10 0.17999999999999999
      vertex 177.40000000000001 -10 0.20000000000000001
    endloop
  endfacet
  facet normal 0.44721359550002943 0 0.89442719099988011
    outer loop
      vertex 177.44 -7.9999999999999982 0.17999999999999999
      vertex 177.40000000000001 -10 0.20000000000000001
      vertex 177.44 -10 0.17999999999999999
    endloop
  endfacet
  facet normal 0.44721359550002943 0 0.89442719099988011
    outer loop
      vertex 177.40000000000001 -10 0.20000000000000001
      vertex 177.44 -7.9999999999999982 0.17999999999999999
      vertex 177.44 0 0.17999999999999999
    endloop
  endfacet
  facet normal 0.44721359550002948 -0 0.89442719099988022
    outer loop
      vertex 177.40000000000001 -10 0.20000000000000001
      vertex 177.44 0 0.17999999999999999
      vertex 177.40000000000001 0 0.20000000000000001
    endloop
  endfacet
  facet normal 0.44721359550002943 0 0.89442719099988011
    outer loop
      vertex 177.44 0.0002000000000000002 0.17999999999999999
      vertex 177.40000000000001 0 0.20000000000000001
      vertex 177.44 0 0.17999999999999999
    endloop
  endfacet
  facet normal 0.44721359550002959 0 0.89442719099988011
    outer loop
      vertex 177.40000000000001 0 0.20000000000000001
      vertex 177.44 0.00020000000000000017 0.17999999999999999
      vertex 177.44 0.001 0.17999999999999999
    endloop
  endfacet
  facet normal 0.44721359550002948 -0 0.89442719099988022
    outer loop
      vertex 177.40000000000001 0 0.20000000000000001
      vertex 177.44 0.001 0.17999999999999999
      vertex 177.40000000000001 0.001 0.20000000000000001
    endloop
  endfacet
  facet normal 0.44721359550002943 0 0.89442719099988011
    outer loop
      vertex 177.44 2.0008000000000017 0.17999999999999999
      vertex 177.40000000000001 0.001 0.20000000000000001
      vertex 177.44 0.001 0.17999999999999999
    endloop
  endfacet
  facet normal 0.44721359550002943 0 0.89442719099988011
    outer loop
      vertex 177.40000000000001 0.001 0.20000000000000001
      vertex 177.44 2.0008000000000017 0.17999999999999999
      vertex 177.44 10 0.17999999999999999
    endloop
  endfacet
  facet normal 0.44721359550002948 -0 0.89442719099988011
    outer loop
      vertex 177.40000000000001 0.001 0.20000000000000001
      vertex 177.44 10 0.17999999999999999
      vertex 177.40000000000001 10 0.20000000000000001
    endloop
  endfacet
  facet normal 0.44721359550002943 0 0.89442719099988011
    outer loop
      vertex 177.44 12.000000000000002 0.17999999999999999
      vertex 177.40000000000001 10 0.20000000000000001
      vertex 177.44 10 0.17999999999999999
    endloop
  endfacet
  facet normal 0.44721359550002943 0 0.89442719099988011
    outer loop
      vertex 177.40000000000001 10 0.20000000000000001
      vertex 177.44 12.000000000000002 0.17999999999999999
      vertex 177.44 20 0.17999999999999999
    endloop
  endfacet
  facet normal 0.44721359550002948 -0 0.89442719099988022
    outer loop
      vertex 177.40000000000001 10 0.20000000000000001
      vertex 177.44 20 0.17999999999999999
      vertex 177.40000000000001 20 0.20000000000000001
    endloop
  endfacet
  facet normal 0.44721359550002943 0 0.89442719099988011
    outer loop
      vertex 177.44 24.000000000000004 0.17999999999999999
      vertex 177.40000000000001 20 0.20000000000000001
      vertex 177.44 20 0.17999999999999999
    endloop
  endfacet
  facet normal 0.44721359550002943 0 0.89442719099988011
    outer loop
      vertex 177.40000000000001 20 0.20000000000000001
      vertex 177.44 24.000000000000004 0.17999999999999999
      vertex 177.44 40 0.17999999999999999
    endloop
  endfacet
  facet normal 0.44721359550002948 -0 0.89442719099988022
    outer loop
      vertex 177.40000000000001 20 0.20000000000000001
      vertex 177.44 40 0.17999999999999999
      vertex 177.40000000000001 40 0.20000000000000001
    endloop
  endfacet
  facet normal 0.44721359550002937 0 0.89442719099988
    outer loop
      vertex 177.44 44 0.17999999999999999
      vertex 177.40000000000001 40 0.20000000000000001
      vertex 177.44 40 0.17999999999999999
    endloop
  endfacet
  facet normal 0.44721359550002937 0 0.89442719099988
    outer loop
      vertex 177.40000000000001 40 0.20000000000000001
      vertex 177.44 44 0.17999999999999999
      vertex 177.44 60 0.17999999999999999
    endloop
  endfacet
  facet normal 0.44721359550002948 -0 0.89442719099988022
    outer loop
      vertex 177.40000000000001 40 0.20000000000000001
      vertex 177.44 60 0.17999999999999999
      vertex 177.40000000000001 60 0.20000000000000001
    endloop
  endfacet
endsolid terrain_band_10
