solid terrain_band_1
  facet normal 0.58834840541453715 0.19611613513819065 0.78446454055274573
    outer loop
      vertex 51.359999999999999 80.159999999999997 -0.16
      vertex 51.399999999999999 80.040000000000006 -0.16
      vertex 51.399999999999999 80.200000000000003 -0.20000000000000001
    endloop
  endfacet
  facet normal 0.70710678118655523 -0 0.70710678118654002
    outer loop
      vertex 51.359999999999999 80.159999999999997 -0.16
      vertex 51.399999999999999 80.200000000000003 -0.20000000000000001
      vertex 51.359999999999999 80.200000000000003 -0.16
    endloop
  endfacet
  facet normal 0.70710678118655512 0 0.70710678118653991
    outer loop
      vertex 51.359999999999999 96.040000000000006 -0.16
      vertex 51.359999999999999 80.200000000000003 -0.16
      vertex 51.399999999999999 80.200000000000003 -0.20000000000000001
    endloop
  endfacet
  facet normal 0.70710678118655512 0 0.7071067811865398
    outer loop
      vertex 51.359999999999999 96.040000000000006 -0.16
      vertex 51.399999999999999 80.200000000000003 -0.20000000000000001
      vertex 51.399999999999999 100 -0.20000000000000001
    endloop
  endfacet
  facet normal 0.70710678118655523 -0 0.70710678118653991
    outer loop
      vertex 51.359999999999999 96.039999999999992 -0.16
      vertex 51.399999999999999 100 -0.20000000000000001
      vertex 51.359999999999999 100 -0.16
    endloop
  endfacet
  facet normal -0 0.24253562503633785 0.97014250014533066
    outer loop
      vertex 51.439999999999998 80.040000000000006 -0.16
      vertex 51.600000000000001 80.040000000000006 -0.16
      vertex 51.600000000000001 80.200000000000003 -0.20000000000000001
    endloop
  endfacet
  facet normal -0 0.24253562503633788 0.97014250014533066
    outer loop
      vertex 51.399999999999999 80.040000000000006 -0.16
      vertex 51.439999999999998 80.040000000000006 -0.16
      vertex 51.600000000000001 80.200000000000003 -0.20000000000000001
    endloop
  endfacet
  facet normal 0 0.24253562503633788 0.97014250014533077
    outer loop
      vertex 51.399999999999999 80.040000000000006 -0.16
      vertex 51.600000000000001 80.200000000000003 -0.20000000000000001
      vertex 51.399999999999999 80.200000000000003 -0.20000000000000001
    endloop
  endfacet
  facet normal 0 0 1
    outer loop
      vertex 51.399999999999999 80.200000000000003 -0.20000000000000001
      vertex 51.600000000000001 80.200000000000003 -0.20000000000000001
      vertex 51.600000000000001 100 -0.20000000000000001
    endloop
  endfacet
  facet normal 0 0 1
    outer loop
      vertex 51.399999999999999 80.200000000000003 -0.20000000000000001
      vertex 51.600000000000001 100 -0.20000000000000001
      vertex 51.399999999999999 100 -0.20000000000000001
    endloop
  endfacet
  facet normal -0 0.24253562503633788 0.97014250014533066
    outer loop
      vertex 52.600000000000001 80.040000000000006 -0.16
      vertex 56.600000000000001 80.040000000000006 -0.16
      vertex 56.600000000000001 80.200000000000003 -0.20000000000000001
    endloop
  endfacet
  facet normal -0 0.24253562503633788 0.97014250014533066
    outer loop
      vertex 51.600000000000001 80.040000000000006 -0.16
      vertex 52.600000000000001 80.040000000000006 -0.16
      vertex 56.600000000000001 80.200000000000003 -0.20000000000000001
    endloop
  endfacet
  facet normal 0 0.24253562503633788 0.97014250014533066
    outer loop
      vertex 51.600000000000001 80.040000000000006 -0.16
      vertex 56.600000000000001 80.200000000000003 -0.20000000000000001
      vertex 51.600000000000001 80.200000000000003 -0.20000000000000001
    endloop
  endfacet
  facet normal 0 0 1
    outer loop
      vertex 51.600000000000001 80.200000000000003 -0.20000000000000001
      vertex 56.600000000000001 80.200000000000003 -0.20000000000000001
      vertex 56.600000000000001 100 -0.20000000000000001
    endloop
  endfacet
  facet normal 0 0 1
    outer loop
      vertex 51.600000000000001 80.200000000000003 -0.20000000000000001
      vertex 56.600000000000001 100 -0.20000000000000001
      vertex 51.600000000000001 100 -0.20000000000000001
    endloop
  endfacet
  facet normal -0 0.24253562503633788 0.97014250014533066
    outer loop
      vertex 56.640000000000001 80.040000000000006 -0.16
      vertex 56.799999999999997 80.040000000000006 -0.16
      vertex 56.799999999999997 80.200000000000003 -0.20000000000000001
    endloop
  endfacet
  facet normal -0 0.24253562503633788 0.97014250014533066
    outer loop
      vertex 56.600000000000001 80.040000000000006 -0.16
      vertex 56.640000000000001 80.040000000000006 -0.16
      vertex 56.799999999999997 80.200000000000003 -0.20000000000000001
    endloop
  endfacet
  facet normal 0 0.24253562503633788 0.97014250014533077
    outer loop
      vertex 56.600000000000001 80.040000000000006 -0.16
      vertex 56.799999999999997 80.200000000000003 -0.20000000000000001
      vertex 56.600000000000001 80.200000000000003 -0.20000000000000001
    endloop
  endfacet
  facet normal 0 0 1
    outer loop
      vertex 56.600000000000001 80.200000000000003 -0.20000000000000001
      vertex 56.799999999999997 80.200000000000003 -0.20000000000000001
      vertex 56.799999999999997 100 -0.20000000000000001
    endloop
  endfacet
  facet normal 0 0 1
    outer loop
      vertex 56.600000000000001 80.200000000000003 -0.20000000000000001
      vertex 56.799999999999997 100 -0.20000000000000001
      vertex 56.600000000000001 100 -0.20000000000000001
    endloop
  endfacet
  facet normal -0.038776514554655646 0.24235321596660292 0.96941286386639081
    outer loop
      vertex 56.799999999999997 80.040000000000006 -0.16
      vertex 57.799999999999997 80.200000000000003 -0.16
      vertex 56.799999999999997 80.200000000000003 -0.20000000000000001
    endloop
  endfacet
  facet normal -0.039968038348871589 0 0.99920095872178949
    outer loop
      vertex 57.799999999999997 84.159999999999997 -0.16
      vertex 56.799999999999997 80.200000000000003 -0.20000000000000001
      vertex 57.799999999999997 80.200000000000003 -0.16
    endloop
  endfacet
  facet normal -0.039968038348871589 0 0.99920095872178949
    outer loop
      vertex 56.799999999999997 80.200000000000003 -0.20000000000000001
      vertex 57.799999999999997 84.159999999999997 -0.16
      vertex 57.799999999999997 100 -0.16
    endloop
  endfacet
  facet normal -0.039968038348871582 0 0.99920095872178938
    outer loop
      vertex 56.799999999999997 80.200000000000003 -0.20000000000000001
      vertex 57.799999999999997 100 -0.16
      vertex 56.799999999999997 100 -0.20000000000000001
    endloop
  endfacet
  facet normal 0.58834840541449818 0.19611613513818932 0.78446454055277515
    outer loop
      vertex 94.959999999999994 40.160000000000004 -0.16
      vertex 95 40.039999999999999 -0.16
      vertex 95 40.200000000000003 -0.20000000000000001
    endloop
  endfacet
  facet normal 0.70710678118649239 -0 0.70710678118660275
    outer loop
      vertex 94.959999999999994 40.160000000000004 -0.16
      vertex 95 40.200000000000003 -0.20000000000000001
      vertex 94.959999999999994 40.200000000000003 -0.16
    endloop
  endfacet
  facet normal 0.70710678118649239 0 0.70710678118660275
    outer loop
      vertex 94.959999999999994 56.039999999999999 -0.16
      vertex 94.959999999999994 40.200000000000003 -0.16
      vertex 95 40.200000000000003 -0.20000000000000001
    endloop
  endfacet
  facet normal 0.70710678118649228 0 0.70710678118660275
    outer loop
      vertex 94.959999999999994 56.039999999999999 -0.16
      vertex 95 40.200000000000003 -0.20000000000000001
      vertex 95 60 -0.20000000000000001
    endloop
  endfacet
  facet normal 0.70710678118649228 -0 0.70710678118660264
    outer loop
      vertex 94.959999999999994 56.039999999999999 -0.16
      vertex 95 60 -0.20000000000000001
      vertex 94.959999999999994 60 -0.16
    endloop
  endfacet
  facet normal 0.62469504755436789 -0.46852128566583839 0.62469504755446548
    outer loop
      vertex 94.959999999999994 60 -0.16
      vertex 95 60 -0.20000000000000001
      vertex 95 60.053333333333335 -0.16
    endloop
  endfacet
  facet normal -0 0.24253562503632775 0.97014250014533321
    outer loop
      vertex 95.040000000000006 40.039999999999999 -0.16
      vertex 95.200000000000003 40.039999999999999 -0.16
      vertex 95.200000000000003 40.200000000000003 -0.20000000000000001
    endloop
  endfacet
  facet normal -0 0.24253562503632778 0.97014250014533321
    outer loop
      vertex 95 40.039999999999999 -0.16
      vertex 95.040000000000006 40.039999999999999 -0.16
      vertex 95.200000000000003 40.200000000000003 -0.20000000000000001
    endloop
  endfacet
  facet normal 0 0.24253562503632775 0.97014250014533321
    outer loop
      vertex 95 40.039999999999999 -0.16
      vertex 95.200000000000003 40.200000000000003 -0.20000000000000001
      vertex 95 40.200000000000003 -0.20000000000000001
    endloop
  endfacet
  facet normal 0 0 1
    outer loop
      vertex 95 40.200000000000003 -0.20000000000000001
      vertex 95.200000000000003 40.200000000000003 -0.20000000000000001
      vertex 95.200000000000003 60 -0.20000000000000001
    endloop
  endfacet
  facet normal 0 0 1
    outer loop
      vertex 95 40.200000000000003 -0.20000000000000001
      vertex 95.200000000000003 60 -0.20000000000000001
      vertex 95 60 -0.20000000000000001
    endloop
  endfacet
  facet normal 0 -0.59999999999999121 0.80000000000000659
    outer loop
      vertex 95.053333333333327 60.053333333333335 -0.16
      vertex 95 60 -0.20000000000000001
      vertex 95.200000000000003 60 -0.20000000000000001
    endloop
  endfacet
  facet normal 0 -0.59999999999999121 0.80000000000000648
    outer loop
      vertex 95.053333333333327 60.053333333333335 -0.16
      vertex 95.200000000000003 60 -0.20000000000000001
      vertex 95.200000000000003 60.053333333333335 -0.16
    endloop
  endfacet
  facet normal 0 -0.59999999999999121 0.80000000000000659
    outer loop
      vertex 95 60.053333333333335 -0.16
      vertex 95 60 -0.20000000000000001
      vertex 95.053333333333327 60.053333333333335 -0.16
    endloop
  endfacet
  facet normal -0 0.70710678118649239 0.70710678118660275
    outer loop
      vertex 95.359999999999999 -80.040000000000006 -0.16
      vertex 95.400000000000006 -80.040000000000006 -0.16
      vertex 95.400000000000006 -80 -0.20000000000000001
    endloop
  endfacet
  facet normal 0.70710678118649239 -0 0.70710678118660275
    outer loop
      vertex 95.359999999999999 -80.040000000000006 -0.16
      vertex 95.400000000000006 -80 -0.20000000000000001
      vertex 95.359999999999999 -80 -0.16
    endloop
  endfacet
  facet normal 0.70710678118649228 0 0.70710678118660264
    outer loop
      vertex 95.359999999999999 -64.159999999999997 -0.16
      vertex 95.359999999999999 -80 -0.16
      vertex 95.400000000000006 -80 -0.20000000000000001
    endloop
  endfacet
  facet normal 0.70710678118649228 0 0.70710678118660275
    outer loop
      vertex 95.359999999999999 -64.159999999999997 -0.16
      vertex 95.400000000000006 -80 -0.20000000000000001
      vertex 95.400000000000006 -60.200000000000003 -0.20000000000000001
    endloop
  endfacet
  facet normal 0.70710678118649228 -0 0.70710678118660264
    outer loop
      vertex 95.359999999999999 -64.159999999999997 -0.16
      vertex 95.400000000000006 -60.200000000000003 -0.20000000000000001
      vertex 95.359999999999999 -60.200000000000003 -0.16
    endloop
  endfacet
  facet normal 0.57735026918956156 -0.57735026918966414 0.57735026918965171
    outer loop
      vertex 95.359999999999999 -60.200000000000003 -0.16
      vertex 95.400000000000006 -60.200000000000003 -0.20000000000000001
      vertex 95.400000000000006 -60.160000000000004 -0.16
    endloop
  endfacet
  facet normal -0.69631062382273579 0.17407765595570715 0.69631062382284448
    outer loop
      vertex 95.200000000000003 40.039999999999999 -0.16
      vertex 95.240000000000009 40.200000000000003 -0.16
      vertex 95.200000000000003 40.200000000000003 -0.20000000000000001
    endloop
  endfacet
  facet normal -0.70710678118649228 0 0.70710678118660264
    outer loop
      vertex 95.240000000000009 44.160000000000004 -0.16
      vertex 95.200000000000003 40.200000000000003 -0.20000000000000001
      vertex 95.240000000000009 40.200000000000003 -0.16
    endloop
  endfacet
  facet normal -0.70710678118649228 0 0.70710678118660275
    outer loop
      vertex 95.200000000000003 40.200000000000003 -0.20000000000000001
      vertex 95.240000000000009 44.160000000000004 -0.16
      vertex 95.240000000000009 60 -0.16
    endloop
  endfacet
  facet normal -0.70710678118649228 0 0.70710678118660275
    outer loop
      vertex 95.200000000000003 40.200000000000003 -0.20000000000000001
      vertex 95.240000000000009 60 -0.16
      vertex 95.200000000000003 60 -0.20000000000000001
    endloop
  endfacet
  facet normal -0.70710678118649239 0 0.70710678118660275
    outer loop
      vertex 95.240000000000009 60.039999999999999 -0.16
      vertex 95.200000000000003 60 -0.20000000000000001
      vertex 95.240000000000009 60 -0.16
    endloop
  endfacet
  facet normal -0.19611613513818127 -0.58834840541454381 0.78446454055274295
    outer loop
      vertex 95.200000000000003 60.053333333333335 -0.16
      vertex 95.200000000000003 60 -0.20000000000000001
      vertex 95.240000000000009 60.039999999999999 -0.16
    endloop
  endfacet
  facet normal -0 0.70710678118649228 0.70710678118660275
    outer loop
      vertex 99.400000000000006 -80.040000000000006 -0.16
      vertex 100.40000000000001 -80.040000000000006 -0.16
      vertex 100.40000000000001 -80 -0.20000000000000001
    endloop
  endfacet
  facet normal -0 0.70710678118649228 0.70710678118660275
    outer loop
      vertex 95.400000000000006 -80.040000000000006 -0.16
      vertex 99.400000000000006 -80.040000000000006 -0.16
      vertex 100.40000000000001 -80 -0.20000000000000001
    endloop
  endfacet
  facet normal 0 0.70710678118649228 0.70710678118660264
    outer loop
      vertex 95.400000000000006 -80.040000000000006 -0.16
      vertex 100.40000000000001 -80 -0.20000000000000001
      vertex 95.400000000000006 -80 -0.20000000000000001
    endloop
  endfacet
  facet normal 0 0 1
    outer loop
      vertex 95.400000000000006 -80 -0.20000000000000001
      vertex 100.40000000000001 -80 -0.20000000000000001
      vertex 100.40000000000001 -60.200000000000003 -0.20000000000000001
    endloop
  endfacet
  facet normal 0 0 1
    outer loop
      vertex 95.400000000000006 -80 -0.20000000000000001
      vertex 100.40000000000001 -60.200000000000003 -0.20000000000000001
      vertex 95.400000000000006 -60.200000000000003 -0.20000000000000001
    endloop
  endfacet
  facet normal 0 -0.70710678118655512 0.70710678118653991
    outer loop
      vertex 96.400000000000006 -60.160000000000004 -0.16
      vertex 95.400000000000006 -60.200000000000003 -0.20000000000000001
      vertex 100.40000000000001 -60.200000000000003 -0.20000000000000001
    endloop
  endfacet
  facet normal 0 -0.70710678118655512 0.70710678118653991
    outer loop
      vertex 96.400000000000006 -60.160000000000004 -0.16
      vertex 100.40000000000001 -60.200000000000003 -0.20000000000000001
      vertex 100.40000000000001 -60.160000000000004 -0.16
    endloop
  endfacet
  facet normal 0 -0.70710678118655512 0.70710678118653991
    outer loop
      vertex 95.400000000000006 -60.160000000000004 -0.16
      vertex 95.400000000000006 -60.200000000000003 -0.20000000000000001
      vertex 96.400000000000006 -60.160000000000004 -0.16
    endloop
  endfacet
  facet normal -0 0.70710678118649239 0.70710678118660275
    outer loop
      vertex 100.56 -80.040000000000006 -0.16
      vertex 100.59999999999999 -80.040000000000006 -0.16
      vertex 100.59999999999999 -80 -0.20000000000000001
    endloop
  endfacet
  facet normal -0 0.70710678118649239 0.70710678118660275
    outer loop
      vertex 100.40000000000001 -80.040000000000006 -0.16
      vertex 100.56 -80.040000000000006 -0.16
      vertex 100.59999999999999 -80 -0.20000000000000001
    endloop
  endfacet
  facet normal 0 0.70710678118649239 0.70710678118660275
    outer loop
      vertex 100.40000000000001 -80.040000000000006 -0.16
      vertex 100.59999999999999 -80 -0.20000000000000001
      vertex 100.40000000000001 -80 -0.20000000000000001
    endloop
  endfacet
  facet normal 0 0 1
    outer loop
      vertex 100.40000000000001 -80 -0.20000000000000001
      vertex 100.59999999999999 -80 -0.20000000000000001
      vertex 100.59999999999999 -60.200000000000003 -0.20000000000000001
    endloop
  endfacet
  facet normal 0 0 1
    outer loop
      vertex 100.40000000000001 -80 -0.20000000000000001
      vertex 100.59999999999999 -60.200000000000003 -0.20000000000000001
      vertex 100.40000000000001 -60.200000000000003 -0.20000000000000001
    endloop
  endfacet
  facet normal 0 -0.70710678118655523 0.70710678118653991
    outer loop
      vertex 100.44 -60.160000000000004 -0.16
      vertex 100.40000000000001 -60.200000000000003 -0.20000000000000001
      vertex 100.59999999999999 -60.200000000000003 -0.20000000000000001
    endloop
  endfacet
  facet normal 0 -0.70710678118655523 0.70710678118654002
    outer loop
      vertex 100.44 -60.160000000000004 -0.16
      vertex 100.59999999999999 -60.200000000000003 -0.20000000000000001
      vertex 100.59999999999999 -60.160000000000004 -0.16
    endloop
  endfacet
  facet normal 0 -0.70710678118655523 0.70710678118654002
    outer loop
      vertex 100.40000000000001 -60.160000000000004 -0.16
      vertex 100.40000000000001 -60.200000000000003 -0.20000000000000001
      vertex 100.44 -60.160000000000004 -0.16
    endloop
  endfacet
  facet normal -0 0.70710678118654746 0.70710678118654746
    outer loop
      vertex 100.56 0.16 -0.16
      vertex 100.59999999999999 0.16 -0.16
      vertex 100.59999999999999 0.20000000000000001 -0.20000000000000001
    endloop
  endfacet
  facet normal 0.70710678118661807 -0 0.70710678118647718
    outer loop
      vertex 100.56 0.16 -0.16
      vertex 100.59999999999999 0.20000000000000001 -0.20000000000000001
      vertex 100.56 0.20000000000000001 -0.16
    endloop
  endfacet
  facet normal 0.70710678118661796 0 0.70710678118647707
    outer loop
      vertex 100.56 8.0399999999999991 -0.16
      vertex 100.56 0.20000000000000001 -0.16
      vertex 100.59999999999999 0.20000000000000001 -0.20000000000000001
    endloop
  endfacet
  facet normal 0.70710678118661796 0 0.70710678118647696
    outer loop
      vertex 100.56 8.0399999999999991 -0.16
      vertex 100.59999999999999 0.20000000000000001 -0.20000000000000001
      vertex 100.59999999999999 10 -0.20000000000000001
    endloop
  endfacet
  facet normal 0.70710678118661796 -0 0.70710678118647707
    outer loop
      vertex 100.56 8.0399999999999991 -0.16
      vertex 100.59999999999999 10 -0.20000000000000001
      vertex 100.56 10 -0.16
    endloop
  endfacet
  facet normal 0.6963106238228628 -0.17407765595568092 0.69631062382272413
    outer loop
      vertex 100.56 10 -0.16
      vertex 100.59999999999999 10 -0.20000000000000001
      vertex 100.59999999999999 10.16 -0.16
    endloop
  endfacet
  facet normal -0 0.70710678118649239 0.70710678118660275
    outer loop
      vertex 100.75999999999999 -80.040000000000006 -0.16
      vertex 100.8 -80.040000000000006 -0.16
      vertex 100.8 -80 -0.20000000000000001
    endloop
  endfacet
  facet normal -0 0.70710678118649239 0.70710678118660275
    outer loop
      vertex 100.59999999999999 -80.040000000000006 -0.16
      vertex 100.75999999999999 -80.040000000000006 -0.16
      vertex 100.8 -80 -0.20000000000000001
    endloop
  endfacet
  facet normal 0 0.70710678118649228 0.70710678118660264
    outer loop
      vertex 100.59999999999999 -80.040000000000006 -0.16
      vertex 100.8 -80 -0.20000000000000001
      vertex 100.59999999999999 -80 -0.20000000000000001
    endloop
  endfacet
  facet normal 0 0 1
    outer loop
      vertex 100.59999999999999 -80 -0.20000000000000001
      vertex 100.8 -80 -0.20000000000000001
      vertex 100.8 -60.200000000000003 -0.20000000000000001
    endloop
  endfacet
  facet normal 0 0 1
    outer loop
      vertex 100.59999999999999 -80 -0.20000000000000001
      vertex 100.8 -60.200000000000003 -0.20000000000000001
      vertex 100.59999999999999 -60.200000000000003 -0.20000000000000001
    endloop
  endfacet
  facet normal 0 -0.70710678118655512 0.70710678118653991
    outer loop
      vertex 100.64 -60.160000000000004 -0.16
      vertex 100.59999999999999 -60.200000000000003 -0.20000000000000001
      vertex 100.8 -60.200000000000003 -0.20000000000000001
    endloop
  endfacet
  facet normal 0 -0.70710678118655523 0.70710678118654002
    outer loop
      vertex 100.64 -60.160000000000004 -0.16
      vertex 100.8 -60.200000000000003 -0.20000000000000001
      vertex 100.8 -60.160000000000004 -0.16
    endloop
  endfacet
  facet normal 0 -0.70710678118655523 0.70710678118654002
    outer loop
      vertex 100.59999999999999 -60.160000000000004 -0.16
      vertex 100.59999999999999 -60.200000000000003 -0.20000000000000001
      vertex 100.64 -60.160000000000004 -0.16
    endloop
  endfacet
  facet normal -0 0.70710678118654746 0.70710678118654746
    outer loop
      vertex 100.75999999999999 0.16 -0.16
      vertex 100.8 0.16 -0.16
      vertex 100.8 0.20000000000000001 -0.20000000000000001
    endloop
  endfacet
  facet normal -0 0.70710678118654746 0.70710678118654746
    outer loop
      vertex 100.59999999999999 0.16 -0.16
      vertex 100.75999999999999 0.16 -0.16
      vertex 100.8 0.20000000000000001 -0.20000000000000001
    endloop
  endfacet
  facet normal 0 0.70710678118654746 0.70710678118654746
    outer loop
      vertex 100.59999999999999 0.16 -0.16
      vertex 100.8 0.20000000000000001 -0.20000000000000001
      vertex 100.59999999999999 0.20000000000000001 -0.20000000000000001
    endloop
  endfacet
  facet normal 0 0 1
    outer loop
      vertex 100.59999999999999 0.20000000000000001 -0.20000000000000001
      vertex 100.8 0.20000000000000001 -0.20000000000000001
      vertex 100.8 10 -0.20000000000000001
    endloop
  endfacet
  facet normal 0 0 1
    outer loop
      vertex 100.59999999999999 0.20000000000000001 -0.20000000000000001
      vertex 100.8 10 -0.20000000000000001
      vertex 100.59999999999999 10 -0.20000000000000001
    endloop
  endfacet
  facet normal 0 -0.2425356250363328 0.97014250014533199
    outer loop
      vertex 100.75999999999999 10.16 -0.16
      vertex 100.59999999999999 10 -0.20000000000000001
      vertex 100.8 10 -0.20000000000000001
    endloop
  endfacet
  facet normal 0 -0.24253562503633283 0.97014250014533199
    outer loop
      vertex 100.75999999999999 10.16 -0.16
      vertex 100.8 10 -0.20000000000000001
      vertex 100.8 10.16 -0.16
    endloop
  endfacet
  facet normal 0 -0.2425356250363328 0.97014250014533188
    outer loop
      vertex 100.59999999999999 10.16 -0.16
      vertex 100.59999999999999 10 -0.20000000000000001
      vertex 100.75999999999999 10.16 -0.16
    endloop
  endfacet
  facet normal -0.028272964322667907 0.70682410806658713 0.70682410806669749
    outer loop
      vertex 100.8 -80.040000000000006 -0.16
      vertex 101.8 -80 -0.16
      vertex 100.8 -80 -0.20000000000000001
    endloop
  endfacet
  facet normal -0.039968038348871582 0 0.99920095872178938
    outer loop
      vertex 101.8 -76.039999999999992 -0.16
      vertex 100.8 -80 -0.20000000000000001
      vertex 101.8 -80 -0.16
    endloop
  endfacet
  facet normal -0.039968038348871589 0 0.99920095872178949
    outer loop
      vertex 100.8 -80 -0.20000000000000001
      vertex 101.8 -76.040000000000006 -0.16
      vertex 101.8 -60.200000000000003 -0.16
    endloop
  endfacet
  facet normal -0.039968038348871582 0 0.99920095872178938
    outer loop
      vertex 100.8 -80 -0.20000000000000001
      vertex 101.8 -60.200000000000003 -0.16
      vertex 100.8 -60.200000000000003 -0.20000000000000001
    endloop
  endfacet
  facet normal -0.039968038348871589 0 0.99920095872178949
    outer loop
      vertex 101.8 -60.160000000000004 -0.16
      vertex 100.8 -60.200000000000003 -0.20000000000000001
      vertex 101.8 -60.200000000000003 -0.16
    endloop
  endfacet
  facet normal 0 -0.70710678118655512 0.70710678118653991
    outer loop
      vertex 100.8 -60.160000000000004 -0.16
      vertex 100.8 -60.200000000000003 -0.20000000000000001
      vertex 101.8 -60.160000000000004 -0.16
    endloop
  endfacet
  facet normal -0.0062468285873951224 0.78085357342438699 0.62468285873950891
    outer loop
      vertex 104.8 0.16 -0.16
      vertex 105.8 0.16800000000000004 -0.16
      vertex 105.8 0.20000000000000001 -0.20000000000000001
    endloop
  endfacet
  facet normal -0 0.70710678118654746 0.70710678118654746
    outer loop
      vertex 100.8 0.16 -0.16
      vertex 104.8 0.16 -0.16
      vertex 105.8 0.20000000000000001 -0.20000000000000001
    endloop
  endfacet
  facet normal 0 0.70710678118654757 0.70710678118654757
    outer loop
      vertex 100.8 0.16 -0.16
      vertex 105.8 0.20000000000000001 -0.20000000000000001
      vertex 100.8 0.20000000000000001 -0.20000000000000001
    endloop
  endfacet
  facet normal 0 0 1
    outer loop
      vertex 100.8 0.20000000000000001 -0.20000000000000001
      vertex 105.8 0.20000000000000001 -0.20000000000000001
      vertex 105.8 10 -0.20000000000000001
    endloop
  endfacet
  facet normal 0 0 1
    outer loop
      vertex 100.8 0.20000000000000001 -0.20000000000000001
      vertex 105.8 10 -0.20000000000000001
      vertex 100.8 10 -0.20000000000000001
    endloop
  endfacet
  facet normal 0 -0.2425356250363328 0.97014250014533199
    outer loop
      vertex 104.8 10.16 -0.16
      vertex 100.8 10 -0.20000000000000001
      vertex 105.8 10 -0.20000000000000001
    endloop
  endfacet
  facet normal 0 -0.2425356250363328 0.97014250014533188
    outer loop
      vertex 104.8 10.16 -0.16
      vertex 105.8 10 -0.20000000000000001
      vertex 105.8 10.16 -0.16
    endloop
  endfacet
  facet normal 0 -0.2425356250363328 0.97014250014533188
    outer loop
      vertex 100.8 10.16 -0.16
      vertex 100.8 10 -0.20000000000000001
      vertex 104.8 10.16 -0.16
    endloop
  endfacet
  facet normal -6.7729572769951718e-16 0.78086880944303072 0.62469504755442384
    outer loop
      vertex 105.968 0.16800000000000001 -0.16
      vertex 106 0.16800000000000004 -0.16
      vertex 106 0.20000000000000001 -0.20000000000000001
    endloop
  endfacet
  facet normal -1.2900871003798418e-16 0.78086880944303072 0.62469504755442384
    outer loop
      vertex 105.8 0.16800000000000001 -0.16
      vertex 105.968 0.16800000000000004 -0.16
      vertex 106 0.20000000000000001 -0.20000000000000001
    endloop
  endfacet
  facet normal 0 0.78086880944303039 0.62469504755442429
    outer loop
      vertex 105.8 0.16800000000000001 -0.16
      vertex 106 0.20000000000000001 -0.20000000000000001
      vertex 105.8 0.20000000000000001 -0.20000000000000001
    endloop
  endfacet
  facet normal 0 0 1
    outer loop
      vertex 105.8 0.20000000000000001 -0.20000000000000001
      vertex 106 0.20000000000000001 -0.20000000000000001
      vertex 106 10 -0.20000000000000001
    endloop
  endfacet
  facet normal 0 0 1
    outer loop
      vertex 105.8 0.20000000000000001 -0.20000000000000001
      vertex 106 10 -0.20000000000000001
      vertex 105.8 10 -0.20000000000000001
    endloop
  endfacet
  facet normal 0 -0.2425356250363328 0.97014250014533199
    outer loop
      vertex 105.95999999999999 10.16 -0.16
      vertex 105.8 10 -0.20000000000000001
      vertex 106 10 -0.20000000000000001
    endloop
  endfacet
  facet normal 0 -0.24253562503633283 0.97014250014533199
    outer loop
      vertex 105.95999999999999 10.16 -0.16
      vertex 106 10 -0.20000000000000001
      vertex 106 10.16 -0.16
    endloop
  endfacet
  facet normal 0 -0.2425356250363328 0.97014250014533188
    outer loop
      vertex 105.8 10.16 -0.16
      vertex 105.8 10 -0.20000000000000001
      vertex 105.95999999999999 10.16 -0.16
    endloop
  endfacet
  facet normal -0.52981294282595803 0.6622661785325511 0.52981294282604074
    outer loop
      vertex 106 0.16800000000000001 -0.16
      vertex 106.04000000000001 0.20000000000000001 -0.16
      vertex 106 0.20000000000000001 -0.20000000000000001
    endloop
  endfacet
  facet normal -0.70710678118649239 0 0.70710678118660275
    outer loop
      vertex 106.04000000000001 2.1600000000000001 -0.16
      vertex 106 0.20000000000000001 -0.20000000000000001
      vertex 106.04000000000001 0.20000000000000001 -0.16
    endloop
  endfacet
  facet normal -0.70710678118649239 0 0.70710678118660264
    outer loop
      vertex 106 0.20000000000000001 -0.20000000000000001
      vertex 106.04000000000001 2.1600000000000006 -0.16
      vertex 106.04000000000001 10 -0.16
    endloop
  endfacet
  facet normal -0.70710678118649228 0 0.70710678118660264
    outer loop
      vertex 106 0.20000000000000001 -0.20000000000000001
      vertex 106.04000000000001 10 -0.16
      vertex 106 10 -0.20000000000000001
    endloop
  endfacet
  facet normal -0.70710678118649239 0 0.70710678118660275
    outer loop
      vertex 106.04000000000001 10.039999999999999 -0.16
      vertex 106 10 -0.20000000000000001
      vertex 106.04000000000001 10 -0.16
    endloop
  endfacet
  facet normal -0.58834840541449485 -0.19611613513819404 0.78446454055277659
    outer loop
      vertex 106 10.16 -0.16
      vertex 106 10 -0.20000000000000001
      vertex 106.04000000000001 10.039999999999999 -0.16
    endloop
  endfacet
endsolid terrain_band_1
