solid terrain_band_6
  facet normal 0 0 1
    outer loop
      vertex 150.19999999999999 -60 0.10000000000000001
      vertex 150.40000000000001 -60 0.10000000000000001
      vertex 150.40000000000001 -40 0.10000000000000001
    endloop
  endfacet
  facet normal 0 0 1
    outer loop
      vertex 150.19999999999999 -60 0.10000000000000001
      vertex 150.40000000000001 -40 0.10000000000000001
      vertex 150.19999999999999 -40 0.10000000000000001
    endloop
  endfacet
  facet normal 0 0 1
    outer loop
      vertex 150.19999999999999 -40 0.10000000000000001
      vertex 150.40000000000001 -40 0.10000000000000001
      vertex 150.40000000000001 -20 0.10000000000000001
    endloop
  endfacet
  facet normal 0 0 1
    outer loop
      vertex 150.19999999999999 -40 0.10000000000000001
      vertex 150.40000000000001 -20 0.10000000000000001
      vertex 150.19999999999999 -20 0.10000000000000001
    endloop
  endfacet
  facet normal 0 0 1
    outer loop
      vertex 150.19999999999999 -20 0.10000000000000001
      vertex 150.40000000000001 -20 0.10000000000000001
      vertex 150.40000000000001 -10 0.10000000000000001
    endloop
  endfacet
  facet normal 0 0 1
    outer loop
      vertex 150.19999999999999 -20 0.10000000000000001
      vertex 150.40000000000001 -10 0.10000000000000001
      vertex 150.19999999999999 -10 0.10000000000000001
    endloop
  endfacet
  facet normal 0 0 1
    outer loop
      vertex 150.19999999999999 -10 0.10000000000000001
      vertex 150.40000000000001 -10 0.10000000000000001
      vertex 150.40000000000001 0 0.10000000000000001
    endloop
  endfacet
  facet normal 0 0 1
    outer loop
      vertex 150.19999999999999 -10 0.10000000000000001
      vertex 150.40000000000001 0 0.10000000000000001
      vertex 150.19999999999999 0 0.10000000000000001
    endloop
  endfacet
  facet normal 0 0 1
    outer loop
      vertex 150.19999999999999 0 0.10000000000000001
      vertex 150.40000000000001 0 0.10000000000000001
      vertex 150.40000000000001 0.001 0.10000000000000001
    endloop
  endfacet
  facet normal 0 0 1
    outer loop
      vertex 150.19999999999999 0 0.10000000000000001
      vertex 150.40000000000001 0.001 0.10000000000000001
      vertex 150.19999999999999 0.001 0.10000000000000001
    endloop
  endfacet
  facet normal 0 0 1
    outer loop
      vertex 150.19999999999999 0.001 0.10000000000000001
      vertex 150.40000000000001 0.001 0.10000000000000001
      vertex 150.40000000000001 10 0.10000000000000001
    endloop
  endfacet
  facet normal 0 0 1
    outer loop
      vertex 150.19999999999999 0.001 0.10000000000000001
      vertex 150.40000000000001 10 0.10000000000000001
      vertex 150.19999999999999 10 0.10000000000000001
    endloop
  endfacet
  facet normal 0 0 1
    outer loop
      vertex 150.19999999999999 10 0.10000000000000001
      vertex 150.40000000000001 10 0.10000000000000001
      vertex 150.40000000000001 20 0.10000000000000001
    endloop
  endfacet
  facet normal 0 0 1
    outer loop
      vertex 150.19999999999999 10 0.10000000000000001
      vertex 150.40000000000001 20 0.10000000000000001
      vertex 150.19999999999999 20 0.10000000000000001
    endloop
  endfacet
  facet normal 0 0 1
    outer loop
      vertex 150.19999999999999 20 0.10000000000000001
      vertex 150.40000000000001 20 0.10000000000000001
      vertex 150.40000000000001 40 0.10000000000000001
    endloop
  endfacet
  facet normal 0 0 1
    outer loop
      vertex 150.19999999999999 20 0.10000000000000001
      vertex 150.40000000000001 40 0.10000000000000001
      vertex 150.19999999999999 40 0.10000000000000001
    endloop
  endfacet
  facet normal 0 0 1
    outer loop
      vertex 150.19999999999999 40 0.10000000000000001
      vertex 150.40000000000001 40 0.10000000000000001
      vertex 150.40000000000001 60 0.10000000000000001
    endloop
  endfacet
  facet normal 0 0 1
    outer loop
      vertex 150.19999999999999 40 0.10000000000000001
      vertex 150.40000000000001 60 0.10000000000000001
      vertex 150.19999999999999 60 0.10000000000000001
    endloop
  endfacet
  facet normal 0 0 1
    outer loop
      vertex 150.40000000000001 -60 0.10000000000000001
      vertex 150.59999999999999 -60 0.10000000000000001
      vertex 150.59999999999999 -40 0.10000000000000001
    endloop
  endfacet
  facet normal 0 0 1
    outer loop
      vertex 150.40000000000001 -60 0.10000000000000001
      vertex 150.59999999999999 -40 0.10000000000000001
      vertex 150.40000000000001 -40 0.10000000000000001
    endloop
  endfacet
  facet normal 0 0 1
    outer loop
      vertex 150.40000000000001 -40 0.10000000000000001
      vertex 150.59999999999999 -40 0.10000000000000001
      vertex 150.59999999999999 -20 0.10000000000000001
    endloop
  endfacet
  facet normal 0 0 1
    outer loop
      vertex 150.40000000000001 -40 0.10000000000000001
      vertex 150.59999999999999 -20 0.10000000000000001
      vertex 150.40000000000001 -20 0.10000000000000001
    endloop
  endfacet
  facet normal 0 0 1
    outer loop
      vertex 150.40000000000001 -20 0.10000000000000001
      vertex 150.59999999999999 -20 0.10000000000000001
      vertex 150.59999999999999 -10 0.10000000000000001
    endloop
  endfacet
  facet normal 0 0 1
    outer loop
      vertex 150.40000000000001 -20 0.10000000000000001
      vertex 150.59999999999999 -10 0.10000000000000001
      vertex 150.40000000000001 -10 0.10000000000000001
    endloop
  endfacet
  facet normal 0 0 1
    outer loop
      vertex 150.40000000000001 -10 0.10000000000000001
      vertex 150.59999999999999 -10 0.10000000000000001
      vertex 150.59999999999999 0 0.10000000000000001
    endloop
  endfacet
  facet normal 0 0 1
    outer loop
      vertex 150.40000000000001 -10 0.10000000000000001
      vertex 150.59999999999999 0 0.10000000000000001
      vertex 150.40000000000001 0 0.10000000000000001
    endloop
  endfacet
  facet normal 0 0 1
    outer loop
      vertex 150.40000000000001 0 0.10000000000000001
      vertex 150.59999999999999 0 0.10000000000000001
      vertex 150.59999999999999 0.001 0.10000000000000001
    endloop
  endfacet
  facet normal 0 0 1
    outer loop
      vertex 150.40000000000001 0 0.10000000000000001
      vertex 150.59999999999999 0.001 0.10000000000000001
      vertex 150.40000000000001 0.001 0.10000000000000001
    endloop
  endfacet
  facet normal 0 0 1
    outer loop
      vertex 150.40000000000001 0.001 0.10000000000000001
      vertex 150.59999999999999 0.001 0.10000000000000001
      vertex 150.59999999999999 10 0.10000000000000001
    endloop
  endfacet
  facet normal 0 0 1
    outer loop
      vertex 150.40000000000001 0.001 0.10000000000000001
      vertex 150.59999999999999 10 0.10000000000000001
      vertex 150.40000000000001 10 0.10000000000000001
    endloop
  endfacet
  facet normal 0 0 1
    outer loop
      vertex 150.40000000000001 10 0.10000000000000001
      vertex 150.59999999999999 10 0.10000000000000001
      vertex 150.59999999999999 20 0.10000000000000001
    endloop
  endfacet
  facet normal 0 0 1
    outer loop
      vertex 150.40000000000001 10 0.10000000000000001
      vertex 150.59999999999999 20 0.10000000000000001
      vertex 150.40000000000001 20 0.10000000000000001
    endloop
  endfacet
  facet normal 0 0 1
    outer loop
      vertex 150.40000000000001 20 0.10000000000000001
      vertex 150.59999999999999 20 0.10000000000000001
      vertex 150.59999999999999 40 0.10000000000000001
    endloop
  endfacet
  facet normal 0 0 1
    outer loop
      vertex 150.40000000000001 20 0.10000000000000001
      vertex 150.59999999999999 40 0.10000000000000001
      vertex 150.40000000000001 40 0.10000000000000001
    endloop
  endfacet
  facet normal 0 0 1
    outer loop
      vertex 150.40000000000001 40 0.10000000000000001
      vertex 150.59999999999999 40 0.10000000000000001
      vertex 150.59999999999999 60 0.10000000000000001
    endloop
  endfacet
  facet normal 0 0 1
    outer loop
      vertex 150.40000000000001 40 0.10000000000000001
      vertex 150.59999999999999 60 0.10000000000000001
      vertex 150.40000000000001 60 0.10000000000000001
    endloop
  endfacet
  facet normal 0 0 1
    outer loop
      vertex 150.59999999999999 -60 0.10000000000000001
      vertex 150.80000000000001 -60 0.10000000000000001
      vertex 150.80000000000001 -40 0.10000000000000001
    endloop
  endfacet
  facet normal 0 0 1
    outer loop
      vertex 150.59999999999999 -60 0.10000000000000001
      vertex 150.80000000000001 -40 0.10000000000000001
      vertex 150.59999999999999 -40 0.10000000000000001
    endloop
  endfacet
  facet normal 0 0 1
    outer loop
      vertex 150.59999999999999 -40 0.10000000000000001
      vertex 150.80000000000001 -40 0.10000000000000001
      vertex 150.80000000000001 -20 0.10000000000000001
    endloop
  endfacet
  facet normal 0 0 1
    outer loop
      vertex 150.59999999999999 -40 0.10000000000000001
      vertex 150.80000000000001 -20 0.10000000000000001
      vertex 150.59999999999999 -20 0.10000000000000001
    endloop
  endfacet
  facet normal 0 0 1
    outer loop
      vertex 150.59999999999999 -20 0.10000000000000001
      vertex 150.80000000000001 -20 0.10000000000000001
      vertex 150.80000000000001 -10 0.10000000000000001
    endloop
  endfacet
  facet normal 0 0 1
    outer loop
      vertex 150.59999999999999 -20 0.10000000000000001
      vertex 150.80000000000001 -10 0.10000000000000001
      vertex 150.59999999999999 -10 0.10000000000000001
    endloop
  endfacet
  facet normal 0 0 1
    outer loop
      vertex 150.59999999999999 -10 0.10000000000000001
      vertex 150.80000000000001 -10 0.10000000000000001
      vertex 150.80000000000001 0 0.10000000000000001
    endloop
  endfacet
  facet normal 0 0 1
    outer loop
      vertex 150.59999999999999 -10 0.10000000000000001
      vertex 150.80000000000001 0 0.10000000000000001
      vertex 150.59999999999999 0 0.10000000000000001
    endloop
  endfacet
  facet normal 0 0 1
    outer loop
      vertex 150.59999999999999 0 0.10000000000000001
      vertex 150.80000000000001 0 0.10000000000000001
      vertex 150.80000000000001 0.001 0.10000000000000001
    endloop
  endfacet
  facet normal 0 0 1
    outer loop
      vertex 150.59999999999999 0 0.10000000000000001
      vertex 150.80000000000001 0.001 0.10000000000000001
      vertex 150.59999999999999 0.001 0.10000000000000001
    endloop
  endfacet
  facet normal 0 0 1
    outer loop
      vertex 150.59999999999999 0.001 0.10000000000000001
      vertex 150.80000000000001 0.001 0.10000000000000001
      vertex 150.80000000000001 10 0.10000000000000001
    endloop
  endfacet
  facet normal 0 0 1
    outer loop
      vertex 150.59999999999999 0.001 0.10000000000000001
      vertex 150.80000000000001 10 0.10000000000000001
      vertex 150.59999999999999 10 0.10000000000000001
    endloop
  endfacet
  facet normal 0 0 1
    outer loop
      vertex 150.59999999999999 10 0.10000000000000001
      vertex 150.80000000000001 10 0.10000000000000001
      vertex 150.80000000000001 20 0.10000000000000001
    endloop
  endfacet
  facet normal 0 0 1
    outer loop
      vertex 150.59999999999999 10 0.10000000000000001
      vertex 150.80000000000001 20 0.10000000000000001
      vertex 150.59999999999999 20 0.10000000000000001
    endloop
  endfacet
  facet normal 0 0 1
    outer loop
      vertex 150.59999999999999 20 0.10000000000000001
      vertex 150.80000000000001 20 0.10000000000000001
      vertex 150.80000000000001 40 0.10000000000000001
    endloop
  endfacet
  facet normal 0 0 1
    outer loop
      vertex 150.59999999999999 20 0.10000000000000001
      vertex 150.80000000000001 40 0.10000000000000001
      vertex 150.59999999999999 40 0.10000000000000001
    endloop
  endfacet
  facet normal 0 0 1
    outer loop
      vertex 150.59999999999999 40 0.10000000000000001
      vertex 150.80000000000001 40 0.10000000000000001
      vertex 150.80000000000001 60 0.10000000000000001
    endloop
  endfacet
  facet normal 0 0 1
    outer loop
      vertex 150.59999999999999 40 0.10000000000000001
      vertex 150.80000000000001 60 0.10000000000000001
      vertex 150.59999999999999 60 0.10000000000000001
    endloop
  endfacet
  facet normal 0 0 1
    outer loop
      vertex 175.19999999999999 -60 0.10000000000000001
      vertex 175.40000000000001 -60 0.10000000000000001
      vertex 175.40000000000001 -40 0.10000000000000001
    endloop
  endfacet
  facet normal 0 0 1
    outer loop
      vertex 175.19999999999999 -60 0.10000000000000001
      vertex 175.40000000000001 -40 0.10000000000000001
      vertex 175.19999999999999 -40 0.10000000000000001
    endloop
  endfacet
  facet normal 0 0 1
    outer loop
      vertex 175.19999999999999 -40 0.10000000000000001
      vertex 175.40000000000001 -40 0.10000000000000001
      vertex 175.40000000000001 -20 0.10000000000000001
    endloop
  endfacet
  facet normal 0 0 1
    outer loop
      vertex 175.19999999999999 -40 0.10000000000000001
      vertex 175.40000000000001 -20 0.10000000000000001
      vertex 175.19999999999999 -20 0.10000000000000001
    endloop
  endfacet
  facet normal 0 0 1
    outer loop
      vertex 175.19999999999999 -20 0.10000000000000001
      vertex 175.40000000000001 -20 0.10000000000000001
      vertex 175.40000000000001 -10 0.10000000000000001
    endloop
  endfacet
  facet normal 0 0 1
    outer loop
      vertex 175.19999999999999 -20 0.10000000000000001
      vertex 175.40000000000001 -10 0.10000000000000001
      vertex 175.19999999999999 -10 0.10000000000000001
    endloop
  endfacet
  facet normal 0 0 1
    outer loop
      vertex 175.19999999999999 -10 0.10000000000000001
      vertex 175.40000000000001 -10 0.10000000000000001
      vertex 175.40000000000001 0 0.10000000000000001
    endloop
  endfacet
  facet normal 0 0 1
    outer loop
      vertex 175.19999999999999 -10 0.10000000000000001
      vertex 175.40000000000001 0 0.10000000000000001
      vertex 175.19999999999999 0 0.10000000000000001
    endloop
  endfacet
  facet normal 0 0 1
    outer loop
      vertex 175.19999999999999 0 0.10000000000000001
      vertex 175.40000000000001 0 0.10000000000000001
      vertex 175.40000000000001 0.001 0.10000000000000001
    endloop
  endfacet
  facet normal 0 0 1
    outer loop
      vertex 175.19999999999999 0 0.10000000000000001
      vertex 175.40000000000001 0.001 0.10000000000000001
      vertex 175.19999999999999 0.001 0.10000000000000001
    endloop
  endfacet
  facet normal 0 0 1
    outer loop
      vertex 175.19999999999999 0.001 0.10000000000000001
      vertex 175.40000000000001 0.001 0.10000000000000001
      vertex 175.40000000000001 10 0.10000000000000001
    endloop
  endfacet
  facet normal 0 0 1
    outer loop
      vertex 175.19999999999999 0.001 0.10000000000000001
      vertex 175.40000000000001 10 0.10000000000000001
      vertex 175.19999999999999 10 0.10000000000000001
    endloop
  endfacet
  facet normal 0 0 1
    outer loop
      vertex 175.19999999999999 10 0.10000000000000001
      vertex 175.40000000000001 10 0.10000000000000001
      vertex 175.40000000000001 20 0.10000000000000001
    endloop
  endfacet
  facet normal 0 0 1
    outer loop
      vertex 175.19999999999999 10 0.10000000000000001
      vertex 175.40000000000001 20 0.10000000000000001
      vertex 175.19999999999999 20 0.10000000000000001
    endloop
  endfacet
  facet normal 0 0 1
    outer loop
      vertex 175.19999999999999 20 0.10000000000000001
      vertex 175.40000000000001 20 0.10000000000000001
      vertex 175.40000000000001 40 0.10000000000000001
    endloop
  endfacet
  facet normal 0 0 1
    outer loop
      vertex 175.19999999999999 20 0.10000000000000001
      vertex 175.40000000000001 40 0.10000000000000001
      vertex 175.19999999999999 40 0.10000000000000001
    endloop
  endfacet
  facet normal 0 0 1
    outer loop
      vertex 175.19999999999999 40 0.10000000000000001
      vertex 175.40000000000001 40 0.10000000000000001
      vertex 175.40000000000001 60 0.10000000000000001
    endloop
  endfacet
  facet normal 0 0 1
    outer loop
      vertex 175.19999999999999 40 0.10000000000000001
      vertex 175.40000000000001 60 0.10000000000000001
      vertex 175.19999999999999 60 0.10000000000000001
    endloop
  endfacet
  facet normal 0 0 1
    outer loop
      vertex 175.40000000000001 -60 0.10000000000000001
      vertex 175.59999999999999 -60 0.10000000000000001
      vertex 175.59999999999999 -40 0.10000000000000001
    endloop
  endfacet
  facet normal 0 0 1
    outer loop
      vertex 175.40000000000001 -60 0.10000000000000001
      vertex 175.59999999999999 -40 0.10000000000000001
      vertex 175.40000000000001 -40 0.10000000000000001
    endloop
  endfacet
  facet normal 0 0 1
    outer loop
      vertex 175.40000000000001 -40 0.10000000000000001
      vertex 175.59999999999999 -40 0.10000000000000001
      vertex 175.59999999999999 -20 0.10000000000000001
    endloop
  endfacet
  facet normal 0 0 1
    outer loop
      vertex 175.40000000000001 -40 0.10000000000000001
      vertex 175.59999999999999 -20 0.10000000000000001
      vertex 175.40000000000001 -20 0.10000000000000001
    endloop
  endfacet
  facet normal 0 0 1
    outer loop
      vertex 175.40000000000001 -20 0.10000000000000001
      vertex 175.59999999999999 -20 0.10000000000000001
      vertex 175.59999999999999 -10 0.10000000000000001
    endloop
  endfacet
  facet normal 0 0 1
    outer loop
      vertex 175.40000000000001 -20 0.10000000000000001
      vertex 175.59999999999999 -10 0.10000000000000001
      vertex 175.40000000000001 -10 0.10000000000000001
    endloop
  endfacet
  facet normal 0 0 1
    outer loop
      vertex 175.40000000000001 -10 0.10000000000000001
      vertex 175.59999999999999 -10 0.10000000000000001
      vertex 175.59999999999999 0 0.10000000000000001
    endloop
  endfacet
  facet normal 0 0 1
    outer loop
      vertex 175.40000000000001 -10 0.10000000000000001
      vertex 175.59999999999999 0 0.10000000000000001
      vertex 175.40000000000001 0 0.10000000000000001
    endloop
  endfacet
  facet normal 0 0 1
    outer loop
      vertex 175.40000000000001 0 0.10000000000000001
      vertex 175.59999999999999 0 0.10000000000000001
      vertex 175.59999999999999 0.001 0.10000000000000001
    endloop
  endfacet
  facet normal 0 0 1
    outer loop
      vertex 175.40000000000001 0 0.10000000000000001
      vertex 175.59999999999999 0.001 0.10000000000000001
      vertex 175.40000000000001 0.001 0.10000000000000001
    endloop
  endfacet
  facet normal 0 0 1
    outer loop
      vertex 175.40000000000001 0.001 0.10000000000000001
      vertex 175.59999999999999 0.001 0.10000000000000001
      vertex 175.59999999999999 10 0.10000000000000001
    endloop
  endfacet
  facet normal 0 0 1
    outer loop
      vertex 175.40000000000001 0.001 0.10000000000000001
      vertex 175.59999999999999 10 0.10000000000000001
      vertex 175.40000000000001 10 0.10000000000000001
    endloop
  endfacet
  facet normal 0 0 1
    outer loop
      vertex 175.40000000000001 10 0.10000000000000001
      vertex 175.59999999999999 10 0.10000000000000001
      vertex 175.59999999999999 20 0.10000000000000001
    endloop
  endfacet
  facet normal 0 0 1
    outer loop
      vertex 175.40000000000001 10 0.10000000000000001
      vertex 175.59999999999999 20 0.10000000000000001
      vertex 175.40000000000001 20 0.10000000000000001
    endloop
  endfacet
  facet normal 0 0 1
    outer loop
      vertex 175.40000000000001 20 0.10000000000000001
      vertex 175.59999999999999 20 0.10000000000000001
      vertex 175.59999999999999 40 0.10000000000000001
    endloop
  endfacet
  facet normal 0 0 1
    outer loop
      vertex 175.40000000000001 20 0.10000000000000001
      vertex 175.59999999999999 40 0.10000000000000001
      vertex 175.40000000000001 40 0.10000000000000001
    endloop
  endfacet
  facet normal 0 0 1
    outer loop
      vertex 175.40000000000001 40 0.10000000000000001
      vertex 175.59999999999999 40 0.10000000000000001
      vertex 175.59999999999999 60 0.10000000000000001
    endloop
  endfacet
  facet normal 0 0 1
    outer loop
      vertex 175.40000000000001 40 0.10000000000000001
      vertex 175.59999999999999 60 0.10000000000000001
      vertex 175.40000000000001 60 0.10000000000000001
    endloop
  endfacet
  facet normal 0 0 1
    outer loop
      vertex 175.59999999999999 -60 0.10000000000000001
      vertex 175.80000000000001 -60 0.10000000000000001
      vertex 175.80000000000001 -40 0.10000000000000001
    endloop
  endfacet
  facet normal 0 0 1
    outer loop
      vertex 175.59999999999999 -60 0.10000000000000001
      vertex 175.80000000000001 -40 0.10000000000000001
      vertex 175.59999999999999 -40 0.10000000000000001
    endloop
  endfacet
  facet normal 0 0 1
    outer loop
      vertex 175.59999999999999 -40 0.10000000000000001
      vertex 175.80000000000001 -40 0.10000000000000001
      vertex 175.80000000000001 -20 0.10000000000000001
    endloop
  endfacet
  facet normal 0 0 1
    outer loop
      vertex 175.59999999999999 -40 0.10000000000000001
      vertex 175.80000000000001 -20 0.10000000000000001
      vertex 175.59999999999999 -20 0.10000000000000001
    endloop
  endfacet
  facet normal 0 0 1
    outer loop
      vertex 175.59999999999999 -20 0.10000000000000001
      vertex 175.80000000000001 -20 0.10000000000000001
      vertex 175.80000000000001 -10 0.10000000000000001
    endloop
  endfacet
  facet normal 0 0 1
    outer loop
      vertex 175.59999999999999 -20 0.10000000000000001
      vertex 175.80000000000001 -10 0.10000000000000001
      vertex 175.59999999999999 -10 0.10000000000000001
    endloop
  endfacet
  facet normal 0 0 1
    outer loop
      vertex 175.59999999999999 -10 0.10000000000000001
      vertex 175.80000000000001 -10 0.10000000000000001
      vertex 175.80000000000001 0 0.10000000000000001
    endloop
  endfacet
  facet normal 0 0 1
    outer loop
      vertex 175.59999999999999 -10 0.10000000000000001
      vertex 175.80000000000001 0 0.10000000000000001
      vertex 175.59999999999999 0 0.10000000000000001
    endloop
  endfacet
  facet normal 0 0 1
    outer loop
      vertex 175.59999999999999 0 0.10000000000000001
      vertex 175.80000000000001 0 0.10000000000000001
      vertex 175.80000000000001 0.001 0.10000000000000001
    endloop
  endfacet
  facet normal 0 0 1
    outer loop
      vertex 175.59999999999999 0 0.10000000000000001
      vertex 175.80000000000001 0.001 0.10000000000000001
      vertex 175.59999999999999 0.001 0.10000000000000001
    endloop
  endfacet
  facet normal 0 0 1
    outer loop
      vertex 175.59999999999999 0.001 0.10000000000000001
      vertex 175.80000000000001 0.001 0.10000000000000001
      vertex 175.80000000000001 10 0.10000000000000001
    endloop
  endfacet
  facet normal 0 0 1
    outer loop
      vertex 175.59999999999999 0.001 0.10000000000000001
      vertex 175.80000000000001 10 0.10000000000000001
      vertex 175.59999999999999 10 0.10000000000000001
    endloop
  endfacet
  facet normal 0 0 1
    outer loop
      vertex 175.59999999999999 10 0.10000000000000001
      vertex 175.80000000000001 10 0.10000000000000001
      vertex 175.80000000000001 20 0.10000000000000001
    endloop
  endfacet
  facet normal 0 0 1
    outer loop
      vertex 175.59999999999999 10 0.10000000000000001
      vertex 175.80000000000001 20 0.10000000000000001
      vertex 175.59999999999999 20 0.10000000000000001
    endloop
  endfacet
  facet normal 0 0 1
    outer loop
      vertex 175.59999999999999 20 0.10000000000000001
      vertex 175.80000000000001 20 0.10000000000000001
      vertex 175.80000000000001 40 0.10000000000000001
    endloop
  endfacet
  facet normal 0 0 1
    outer loop
      vertex 175.59999999999999 20 0.10000000000000001
      vertex 175.80000000000001 40 0.10000000000000001
      vertex 175.59999999999999 40 0.10000000000000001
    endloop
  endfacet
  facet normal 0 0 1
    outer loop
      vertex 175.59999999999999 40 0.10000000000000001
      vertex 175.80000000000001 40 0.10000000000000001
      vertex 175.80000000000001 60 0.10000000000000001
    endloop
  endfacet
  facet normal 0 0 1
    outer loop
      vertex 175.59999999999999 40 0.10000000000000001
      vertex 175.80000000000001 60 0.10000000000000001
      vertex 175.59999999999999 60 0.10000000000000001
    endloop
  endfacet
  facet normal -0.2425356250363786 0 0.97014250014532055
    outer loop
      vertex 175.88 -51.999999999999993 0.12000000000000002
      vertex 175.80000000000001 -60 0.10000000000000001
      vertex 175.88 -60 0.12000000000000002
    endloop
  endfacet
  facet normal -0.2425356250363786 0 0.97014250014532055
    outer loop
      vertex 175.80000000000001 -60 0.10000000000000001
      vertex 175.88 -51.999999999999993 0.12000000000000002
      vertex 175.88 -40 0.12000000000000002
    endloop
  endfacet
  facet normal -0.2425356250363786 0 0.97014250014532055
    outer loop
      vertex 175.80000000000001 -60 0.10000000000000001
      vertex 175.88 -40 0.12000000000000002
      vertex 175.80000000000001 -40 0.10000000000000001
    endloop
  endfacet
  facet normal -0.2425356250363786 0 0.97014250014532055
    outer loop
      vertex 175.88 -31.999999999999993 0.12000000000000002
      vertex 175.80000000000001 -40 0.10000000000000001
      vertex 175.88 -40 0.12000000000000002
    endloop
  endfacet
  facet normal -0.2425356250363786 0 0.97014250014532055
    outer loop
      vertex 175.80000000000001 -40 0.10000000000000001
      vertex 175.88 -31.999999999999993 0.12000000000000002
      vertex 175.88 -20 0.12000000000000002
    endloop
  endfacet
  facet normal -0.2425356250363786 0 0.97014250014532055
    outer loop
      vertex 175.80000000000001 -40 0.10000000000000001
      vertex 175.88 -20 0.12000000000000002
      vertex 175.80000000000001 -20 0.10000000000000001
    endloop
  endfacet
  facet normal -0.2425356250363786 0 0.97014250014532055
    outer loop
      vertex 175.88 -15.999999999999996 0.12000000000000002
      vertex 175.80000000000001 -20 0.10000000000000001
      vertex 175.88 -20 0.12000000000000002
    endloop
  endfacet
  facet normal -0.2425356250363786 0 0.97014250014532055
    outer loop
      vertex 175.80000000000001 -20 0.10000000000000001
      vertex 175.88 -15.999999999999996 0.12000000000000002
      vertex 175.88 -10 0.12000000000000002
    endloop
  endfacet
  facet normal -0.2425356250363786 0 0.97014250014532055
    outer loop
      vertex 175.80000000000001 -20 0.10000000000000001
      vertex 175.88 -10 0.12000000000000002
      vertex 175.80000000000001 -10 0.10000000000000001
    endloop
  endfacet
  facet normal -0.2425356250363786 0 0.97014250014532055
    outer loop
      vertex 175.88 -5.9999999999999956 0.12000000000000002
      vertex 175.80000000000001 -10 0.10000000000000001
      vertex 175.88 -10 0.12000000000000002
    endloop
  endfacet
  facet normal -0.2425356250363786 0 0.97014250014532055
    outer loop
      vertex 175.80000000000001 -10 0.10000000000000001
      vertex 175.88 -5.9999999999999956 0.12000000000000002
      vertex 175.88 0 0.12000000000000002
    endloop
  endfacet
  facet normal -0.2425356250363786 0 0.97014250014532055
    outer loop
      vertex 175.80000000000001 -10 0.10000000000000001
      vertex 175.88 0 0.12000000000000002
      vertex 175.80000000000001 0 0.10000000000000001
    endloop
  endfacet
  facet normal -0.24253562503637857 0 0.97014250014532055
    outer loop
      vertex 175.88 0.00040000000000000051 0.12000000000000002
      vertex 175.80000000000001 0 0.10000000000000001
      vertex 175.88 0 0.12000000000000002
    endloop
  endfacet
  facet normal -0.24253562503637863 0 0.97014250014532055
    outer loop
      vertex 175.80000000000001 0 0.10000000000000001
      vertex 175.88 0.00040000000000000045 0.12000000000000002
      vertex 175.88 0.001 0.12000000000000002
    endloop
  endfacet
  facet normal -0.24253562503637857 0 0.97014250014532033
    outer loop
      vertex 175.80000000000001 0 0.10000000000000001
      vertex 175.88 0.001 0.12000000000000002
      vertex 175.80000000000001 0.001 0.10000000000000001
    endloop
  endfacet
  facet normal -0.24253562503637857 0 0.97014250014532055
    outer loop
      vertex 175.88 4.0006000000000039 0.12000000000000002
      vertex 175.80000000000001 0.001 0.10000000000000001
      vertex 175.88 0.001 0.12000000000000002
    endloop
  endfacet
  facet normal -0.2425356250363786 0 0.97014250014532044
    outer loop
      vertex 175.80000000000001 0.001 0.10000000000000001
      vertex 175.88 4.0006000000000048 0.12000000000000002
      vertex 175.88 10 0.12000000000000002
    endloop
  endfacet
  facet normal -0.2425356250363786 0 0.97014250014532044
    outer loop
      vertex 175.80000000000001 0.001 0.10000000000000001
      vertex 175.88 10 0.12000000000000002
      vertex 175.80000000000001 10 0.10000000000000001
    endloop
  endfacet
  facet normal -0.2425356250363786 0 0.97014250014532055
    outer loop
      vertex 175.88 14.000000000000004 0.12000000000000002
      vertex 175.80000000000001 10 0.10000000000000001
      vertex 175.88 10 0.12000000000000002
    endloop
  endfacet
  facet normal -0.2425356250363786 0 0.97014250014532055
    outer loop
      vertex 175.80000000000001 10 0.10000000000000001
      vertex 175.88 14.000000000000004 0.12000000000000002
      vertex 175.88 20 0.12000000000000002
    endloop
  endfacet
  facet normal -0.2425356250363786 0 0.97014250014532055
    outer loop
      vertex 175.80000000000001 10 0.10000000000000001
      vertex 175.88 20 0.12000000000000002
      vertex 175.80000000000001 20 0.10000000000000001
    endloop
  endfacet
  facet normal -0.2425356250363786 0 0.97014250014532055
    outer loop
      vertex 175.88 28.000000000000007 0.12000000000000002
      vertex 175.80000000000001 20 0.10000000000000001
      vertex 175.88 20 0.12000000000000002
    endloop
  endfacet
  facet normal -0.2425356250363786 0 0.97014250014532055
    outer loop
      vertex 175.80000000000001 20 0.10000000000000001
      vertex 175.88 28.000000000000007 0.12000000000000002
      vertex 175.88 40 0.12000000000000002
    endloop
  endfacet
  facet normal -0.2425356250363786 0 0.97014250014532055
    outer loop
      vertex 175.80000000000001 20 0.10000000000000001
      vertex 175.88 40 0.12000000000000002
      vertex 175.80000000000001 40 0.10000000000000001
    endloop
  endfacet
  facet normal -0.2425356250363786 0 0.97014250014532055
    outer loop
      vertex 175.88 48.000000000000007 0.12000000000000002
      vertex 175.80000000000001 40 0.10000000000000001
      vertex 175.88 40 0.12000000000000002
    endloop
  endfacet
  facet normal -0.2425356250363786 0 0.97014250014532055
    outer loop
      vertex 175.80000000000001 40 0.10000000000000001
      vertex 175.88 48.000000000000007 0.12000000000000002
      vertex 175.88 60 0.12000000000000002
    endloop
  endfacet
  facet normal -0.2425356250363786 0 0.97014250014532055
    outer loop
      vertex 175.80000000000001 40 0.10000000000000001
      vertex 175.88 60 0.12000000000000002
      vertex 175.80000000000001 60 0.10000000000000001
    endloop
  endfacet
  facet normal 0.44721359550002937 0 0.89442719099988
    outer loop
      vertex 177.56 -44 0.12000000000000002
      vertex 177.56 -60 0.12000000000000002
      vertex 177.59999999999999 -60 0.10000000000000001
    endloop
  endfacet
  facet normal 0.44721359550002948 0 0.89442719099988022
    outer loop
      vertex 177.56 -44 0.12000000000000002
      vertex 177.59999999999999 -60 0.10000000000000001
      vertex 177.59999999999999 -40 0.10000000000000001
    endloop
  endfacet
  facet normal 0.44721359550002937 -0 0.89442719099988
    outer loop
      vertex 177.56 -44 0.12000000000000002
      vertex 177.59999999999999 -40 0.10000000000000001
      vertex 177.56 -40 0.12000000000000002
    endloop
  endfacet
  facet normal 0.44721359550002943 0 0.89442719099988011
    outer loop
      vertex 177.56 -24.000000000000004 0.12000000000000002
      vertex 177.56 -40 0.12000000000000002
      vertex 177.59999999999999 -40 0.10000000000000001
    endloop
  endfacet
  facet normal 0.44721359550002948 0 0.89442719099988022
    outer loop
      vertex 177.56 -24.000000000000004 0.12000000000000002
      vertex 177.59999999999999 -40 0.10000000000000001
      vertex 177.59999999999999 -20 0.10000000000000001
    endloop
  endfacet
  facet normal 0.44721359550002943 -0 0.89442719099988011
    outer loop
      vertex 177.56 -24.000000000000004 0.12000000000000002
      vertex 177.59999999999999 -20 0.10000000000000001
      vertex 177.56 -20 0.12000000000000002
    endloop
  endfacet
  facet normal 0.44721359550002943 0 0.89442719099988011
    outer loop
      vertex 177.56 -12.000000000000002 0.12000000000000002
      vertex 177.56 -20 0.12000000000000002
      vertex 177.59999999999999 -20 0.10000000000000001
    endloop
  endfacet
  facet normal 0.44721359550002948 0 0.89442719099988022
    outer loop
      vertex 177.56 -12.000000000000002 0.12000000000000002
      vertex 177.59999999999999 -20 0.10000000000000001
      vertex 177.59999999999999 -10 0.10000000000000001
    endloop
  endfacet
  facet normal 0.44721359550002943 -0 0.89442719099988011
    outer loop
      vertex 177.56 -12.000000000000002 0.12000000000000002
      vertex 177.59999999999999 -10 0.10000000000000001
      vertex 177.56 -10 0.12000000000000002
    endloop
  endfacet
  facet normal 0.44721359550002943 0 0.89442719099988011
    outer loop
      vertex 177.56 -2.0000000000000018 0.12000000000000002
      vertex 177.56 -10 0.12000000000000002
      vertex 177.59999999999999 -10 0.10000000000000001
    endloop
  endfacet
  facet normal 0.44721359550002948 0 0.89442719099988022
    outer loop
      vertex 177.56 -2.0000000000000018 0.12000000000000002
      vertex 177.59999999999999 -10 0.10000000000000001
      vertex 177.59999999999999 0 0.10000000000000001
    endloop
  endfacet
  facet normal 0.44721359550002943 -0 0.89442719099988011
    outer loop
      vertex 177.56 -2.0000000000000018 0.12000000000000002
      vertex 177.59999999999999 0 0.10000000000000001
      vertex 177.56 0 0.12000000000000002
    endloop
  endfacet
  facet normal 0.44721359550002937 0 0.89442719099988022
    outer loop
      vertex 177.56 0.00079999999999999982 0.12000000000000002
      vertex 177.56 0 0.12000000000000002
      vertex 177.59999999999999 0 0.10000000000000001
    endloop
  endfacet
  facet normal 0.44721359550002948 0 0.89442719099988022
    outer loop
      vertex 177.56 0.00079999999999999982 0.12000000000000002
      vertex 177.59999999999999 0 0.10000000000000001
      vertex 177.59999999999999 0.001 0.10000000000000001
    endloop
  endfacet
  facet normal 0.44721359550002943 -0 0.89442719099988011
    outer loop
      vertex 177.56 0.00079999999999999982 0.12000000000000002
      vertex 177.59999999999999 0.001 0.10000000000000001
      vertex 177.56 0.001 0.12000000000000002
    endloop
  endfacet
  facet normal 0.44721359550002943 0 0.89442719099988011
    outer loop
      vertex 177.56 8.0001999999999978 0.12000000000000002
      vertex 177.56 0.001 0.12000000000000002
      vertex 177.59999999999999 0.001 0.10000000000000001
    endloop
  endfacet
  facet normal 0.44721359550002948 0 0.89442719099988011
    outer loop
      vertex 177.56 8.0001999999999978 0.12000000000000002
      vertex 177.59999999999999 0.001 0.10000000000000001
      vertex 177.59999999999999 10 0.10000000000000001
    endloop
  endfacet
  facet normal 0.44721359550002943 -0 0.89442719099988011
    outer loop
      vertex 177.56 8.0001999999999978 0.12000000000000002
      vertex 177.59999999999999 10 0.10000000000000001
      vertex 177.56 10 0.12000000000000002
    endloop
  endfacet
  facet normal 0.44721359550002937 0 0.89442719099988
    outer loop
      vertex 177.56 18 0.12000000000000002
      vertex 177.56 10 0.12000000000000002
      vertex 177.59999999999999 10 0.10000000000000001
    endloop
  endfacet
  facet normal 0.44721359550002948 0 0.89442719099988022
    outer loop
      vertex 177.56 18 0.12000000000000002
      vertex 177.59999999999999 10 0.10000000000000001
      vertex 177.59999999999999 20 0.10000000000000001
    endloop
  endfacet
  facet normal 0.44721359550002937 -0 0.89442719099988
    outer loop
      vertex 177.56 18 0.12000000000000002
      vertex 177.59999999999999 20 0.10000000000000001
      vertex 177.56 20 0.12000000000000002
    endloop
  endfacet
  facet normal 0.44721359550002937 0 0.89442719099988
    outer loop
      vertex 177.56 36 0.12000000000000002
      vertex 177.56 20 0.12000000000000002
      vertex 177.59999999999999 20 0.10000000000000001
    endloop
  endfacet
  facet normal 0.44721359550002948 0 0.89442719099988022
    outer loop
      vertex 177.56 36 0.12000000000000002
      vertex 177.59999999999999 20 0.10000000000000001
      vertex 177.59999999999999 40 0.10000000000000001
    endloop
  endfacet
  facet normal 0.44721359550002937 -0 0.89442719099988
    outer loop
      vertex 177.56 36 0.12000000000000002
      vertex 177.59999999999999 40 0.10000000000000001
      vertex 177.56 40 0.12000000000000002
    endloop
  endfacet
  facet normal 0.44721359550002937 0 0.89442719099988
    outer loop
      vertex 177.56 56 0.12000000000000002
      vertex 177.56 40 0.12000000000000002
      vertex 177.59999999999999 40 0.10000000000000001
    endloop
  endfacet
  facet normal 0.44721359550002948 0 0.89442719099988022
    outer loop
      vertex 177.56 56 0.12000000000000002
      vertex 177.59999999999999 40 0.10000000000000001
      vertex 177.59999999999999 60 0.10000000000000001
    endloop
  endfacet
  facet normal 0.44721359550002937 -0 0.89442719099988
    outer loop
      vertex 177.56 56 0.12000000000000002
      vertex 177.59999999999999 60 0.10000000000000001
      vertex 177.56 60 0.12000000000000002
    endloop
  endfacet
  facet normal 0 0 1
    outer loop
      vertex 177.59999999999999 -60 0.10000000000000001
      vertex 177.80000000000001 -60 0.10000000000000001
      vertex 177.80000000000001 -40 0.10000000000000001
    endloop
  endfacet
  facet normal 0 0 1
    outer loop
      vertex 177.59999999999999 -60 0.10000000000000001
      vertex 177.80000000000001 -40 0.10000000000000001
      vertex 177.59999999999999 -40 0.10000000000000001
    endloop
  endfacet
  facet normal 0 0 1
    outer loop
      vertex 177.59999999999999 -40 0.10000000000000001
      vertex 177.80000000000001 -40 0.10000000000000001
      vertex 177.80000000000001 -20 0.10000000000000001
    endloop
  endfacet
  facet normal 0 0 1
    outer loop
      vertex 177.59999999999999 -40 0.10000000000000001
      vertex 177.80000000000001 -20 0.10000000000000001
      vertex 177.59999999999999 -20 0.10000000000000001
    endloop
  endfacet
  facet normal 0 0 1
    outer loop
      vertex 177.59999999999999 -20 0.10000000000000001
      vertex 177.80000000000001 -20 0.10000000000000001
      vertex 177.80000000000001 -10 0.10000000000000001
    endloop
  endfacet
  facet normal 0 0 1
    outer loop
      vertex 177.59999999999999 -20 0.10000000000000001
      vertex 177.80000000000001 -10 0.10000000000000001
      vertex 177.59999999999999 -10 0.10000000000000001
    endloop
  endfacet
  facet normal 0 0 1
    outer loop
      vertex 177.59999999999999 -10 0.10000000000000001
      vertex 177.80000000000001 -10 0.10000000000000001
      vertex 177.80000000000001 0 0.10000000000000001
    endloop
  endfacet
  facet normal 0 0 1
    outer loop
      vertex 177.59999999999999 -10 0.10000000000000001
      vertex 177.80000000000001 0 0.10000000000000001
      vertex 177.59999999999999 0 0.10000000000000001
    endloop
  endfacet
  facet normal 0 0 1
    outer loop
      vertex 177.59999999999999 0 0.10000000000000001
      vertex 177.80000000000001 0 0.10000000000000001
      vertex 177.80000000000001 0.001 0.10000000000000001
    endloop
  endfacet
  facet normal 0 0 1
    outer loop
      vertex 177.59999999999999 0 0.10000000000000001
      vertex 177.80000000000001 0.001 0.10000000000000001
      vertex 177.59999999999999 0.001 0.10000000000000001
    endloop
  endfacet
  facet normal 0 0 1
    outer loop
      vertex 177.59999999999999 0.001 0.10000000000000001
      vertex 177.80000000000001 0.001 0.10000000000000001
      vertex 177.80000000000001 10 0.10000000000000001
    endloop
  endfacet
  facet normal 0 0 1
    outer loop
      vertex 177.59999999999999 0.001 0.10000000000000001
      vertex 177.80000000000001 10 0.10000000000000001
      vertex 177.59999999999999 10 0.10000000000000001
    endloop
  endfacet
  facet normal 0 0 1
    outer loop
      vertex 177.59999999999999 10 0.10000000000000001
      vertex 177.80000000000001 10 0.10000000000000001
      vertex 177.80000000000001 20 0.10000000000000001
    endloop
  endfacet
  facet normal 0 0 1
    outer loop
      vertex 177.59999999999999 10 0.10000000000000001
      vertex 177.80000000000001 20 0.10000000000000001
      vertex 177.59999999999999 20 0.10000000000000001
    endloop
  endfacet
  facet normal 0 0 1
    outer loop
      vertex 177.59999999999999 20 0.10000000000000001
      vertex 177.80000000000001 20 0.10000000000000001
      vertex 177.80000000000001 40 0.10000000000000001
    endloop
  endfacet
  facet normal 0 0 1
    outer loop
      vertex 177.59999999999999 20 0.10000000000000001
      vertex 177.80000000000001 40 0.10000000000000001
      vertex 177.59999999999999 40 0.10000000000000001
    endloop
  endfacet
  facet normal 0 0 1
    outer loop
      vertex 177.59999999999999 40 0.10000000000000001
      vertex 177.80000000000001 40 0.10000000000000001
      vertex 177.80000000000001 60 0.10000000000000001
    endloop
  endfacet
  facet normal 0 0 1
    outer loop
      vertex 177.59999999999999 40 0.10000000000000001
      vertex 177.80000000000001 60 0.10000000000000001
      vertex 177.59999999999999 60 0.10000000000000001
    endloop
  endfacet
endsolid terrain_band_6
