solid terrain_band_9
  facet normal -0.24253562503629719 0 0.97014250014534087
    outer loop
      vertex 176.72 -48.000000000000007 0.17999999999999999
      vertex 176.63999999999999 -56 0.16
      vertex 176.63999999999999 -60 0.16
    endloop
  endfacet
  facet normal -0.24253562503629716 0 0.97014250014534087
    outer loop
      vertex 176.72 -48.000000000000007 0.17999999999999999
      vertex 176.63999999999999 -60 0.16
      vertex 176.72 -60 0.17999999999999999
    endloop
  endfacet
  facet normal -0.24253562503629719 0 0.97014250014534098
    outer loop
      vertex 176.63999999999999 -56 0.16
      vertex 176.72 -48.000000000000007 0.17999999999999999
      vertex 176.72 -40 0.17999999999999999
    endloop
  endfacet
  facet normal -0.24253562503629719 0 0.97014250014534087
    outer loop
      vertex 176.63999999999999 -56 0.16
      vertex 176.72 -40 0.17999999999999999
      vertex 176.63999999999999 -40 0.16
    endloop
  endfacet
  facet normal -0.24253562503629719 0 0.97014250014534087
    outer loop
      vertex 176.72 -28.000000000000007 0.17999999999999999
      vertex 176.63999999999999 -36 0.16
      vertex 176.63999999999999 -40 0.16
    endloop
  endfacet
  facet normal -0.24253562503629716 0 0.97014250014534087
    outer loop
      vertex 176.72 -28.000000000000007 0.17999999999999999
      vertex 176.63999999999999 -40 0.16
      vertex 176.72 -40 0.17999999999999999
    endloop
  endfacet
  facet normal -0.24253562503629719 0 0.97014250014534098
    outer loop
      vertex 176.63999999999999 -36 0.16
      vertex 176.72 -28.000000000000007 0.17999999999999999
      vertex 176.72 -20 0.17999999999999999
    endloop
  endfacet
  facet normal -0.24253562503629719 0 0.97014250014534087
    outer loop
      vertex 176.63999999999999 -36 0.16
      vertex 176.72 -20 0.17999999999999999
      vertex 176.63999999999999 -20 0.16
    endloop
  endfacet
  facet normal -0.24253562503629719 0 0.97014250014534087
    outer loop
      vertex 176.72 -14.000000000000004 0.17999999999999999
      vertex 176.63999999999999 -18 0.16
      vertex 176.63999999999999 -20 0.16
    endloop
  endfacet
  facet normal -0.24253562503629716 0 0.97014250014534087
    outer loop
      vertex 176.72 -14.000000000000004 0.17999999999999999
      vertex 176.63999999999999 -20 0.16
      vertex 176.72 -20 0.17999999999999999
    endloop
  endfacet
  facet normal -0.24253562503629719 0 0.97014250014534098
    outer loop
      vertex 176.63999999999999 -18 0.16
      vertex 176.72 -14.000000000000004 0.17999999999999999
      vertex 176.72 -10 0.17999999999999999
    endloop
  endfacet
  facet normal -0.24253562503629719 0 0.97014250014534087
    outer loop
      vertex 176.63999999999999 -18 0.16
      vertex 176.72 -10 0.17999999999999999
      vertex 176.63999999999999 -10 0.16
    endloop
  endfacet
  facet normal -0.24253562503629716 0 0.97014250014534076
    outer loop
      vertex 176.72 -4.0000000000000018 0.17999999999999999
      vertex 176.63999999999999 -7.9999999999999991 0.16
      vertex 176.63999999999999 -10 0.16
    endloop
  endfacet
  facet normal -0.24253562503629716 0 0.97014250014534087
    outer loop
      vertex 176.72 -4.0000000000000018 0.17999999999999999
      vertex 176.63999999999999 -10 0.16
      vertex 176.72 -10 0.17999999999999999
    endloop
  endfacet
  facet normal -0.24253562503629716 0 0.97014250014534076
    outer loop
      vertex 176.63999999999999 -7.9999999999999982 0.16
      vertex 176.72 -4.0000000000000018 0.17999999999999999
      vertex 176.72 0 0.17999999999999999
    endloop
  endfacet
  facet normal -0.24253562503629719 0 0.97014250014534087
    outer loop
      vertex 176.63999999999999 -7.9999999999999982 0.16
      vertex 176.72 0 0.17999999999999999
      vertex 176.63999999999999 0 0.16
    endloop
  endfacet
  facet normal -0.24253562503629708 0 0.97014250014534076
    outer loop
      vertex 176.72 0.00059999999999999984 0.17999999999999999
      vertex 176.63999999999999 0.00020000000000000009 0.16
      vertex 176.63999999999999 0 0.16
    endloop
  endfacet
  facet normal -0.24253562503629716 0 0.97014250014534076
    outer loop
      vertex 176.72 0.00059999999999999984 0.17999999999999999
      vertex 176.63999999999999 0 0.16
      vertex 176.72 0 0.17999999999999999
    endloop
  endfacet
  facet normal -0.24253562503629708 0 0.97014250014534076
    outer loop
      vertex 176.63999999999999 0.00020000000000000012 0.16
      vertex 176.72 0.00059999999999999984 0.17999999999999999
      vertex 176.72 0.001 0.17999999999999999
    endloop
  endfacet
  facet normal -0.24253562503629714 0 0.97014250014534076
    outer loop
      vertex 176.63999999999999 0.00020000000000000012 0.16
      vertex 176.72 0.001 0.17999999999999999
      vertex 176.63999999999999 0.001 0.16
    endloop
  endfacet
  facet normal -0.24253562503629719 0 0.97014250014534087
    outer loop
      vertex 176.72 6.0003999999999973 0.17999999999999999
      vertex 176.63999999999999 2.0007999999999999 0.16
      vertex 176.63999999999999 0.001 0.16
    endloop
  endfacet
  facet normal -0.24253562503629719 0 0.97014250014534087
    outer loop
      vertex 176.72 6.0003999999999973 0.17999999999999999
      vertex 176.63999999999999 0.001 0.16
      vertex 176.72 0.001 0.17999999999999999
    endloop
  endfacet
  facet normal -0.24253562503629719 0 0.97014250014534087
    outer loop
      vertex 176.63999999999999 2.0008000000000012 0.16
      vertex 176.72 6.0003999999999973 0.17999999999999999
      vertex 176.72 10 0.17999999999999999
    endloop
  endfacet
  facet normal -0.24253562503629714 0 0.97014250014534076
    outer loop
      vertex 176.63999999999999 2.0008000000000012 0.16
      vertex 176.72 10 0.17999999999999999
      vertex 176.63999999999999 10 0.16
    endloop
  endfacet
  facet normal -0.24253562503629719 0 0.97014250014534087
    outer loop
      vertex 176.72 15.999999999999996 0.17999999999999999
      vertex 176.63999999999999 12 0.16
      vertex 176.63999999999999 10 0.16
    endloop
  endfacet
  facet normal -0.24253562503629716 0 0.97014250014534087
    outer loop
      vertex 176.72 15.999999999999996 0.17999999999999999
      vertex 176.63999999999999 10 0.16
      vertex 176.72 10 0.17999999999999999
    endloop
  endfacet
  facet normal -0.24253562503629716 0 0.97014250014534076
    outer loop
      vertex 176.63999999999999 12.000000000000002 0.16
      vertex 176.72 15.999999999999998 0.17999999999999999
      vertex 176.72 20 0.17999999999999999
    endloop
  endfacet
  facet normal -0.24253562503629719 0 0.97014250014534087
    outer loop
      vertex 176.63999999999999 12.000000000000002 0.16
      vertex 176.72 20 0.17999999999999999
      vertex 176.63999999999999 20 0.16
    endloop
  endfacet
  facet normal -0.24253562503629719 0 0.97014250014534087
    outer loop
      vertex 176.72 31.999999999999993 0.17999999999999999
      vertex 176.63999999999999 24 0.16
      vertex 176.63999999999999 20 0.16
    endloop
  endfacet
  facet normal -0.24253562503629716 0 0.97014250014534087
    outer loop
      vertex 176.72 31.999999999999993 0.17999999999999999
      vertex 176.63999999999999 20 0.16
      vertex 176.72 20 0.17999999999999999
    endloop
  endfacet
  facet normal -0.24253562503629716 0 0.97014250014534076
    outer loop
      vertex 176.63999999999999 24.000000000000004 0.16
      vertex 176.72 31.999999999999996 0.17999999999999999
      vertex 176.72 40 0.17999999999999999
    endloop
  endfacet
  facet normal -0.24253562503629719 0 0.97014250014534087
    outer loop
      vertex 176.63999999999999 24.000000000000004 0.16
      vertex 176.72 40 0.17999999999999999
      vertex 176.63999999999999 40 0.16
    endloop
  endfacet
  facet normal -0.24253562503629719 0 0.97014250014534087
    outer loop
      vertex 176.72 51.999999999999993 0.17999999999999999
      vertex 176.63999999999999 44 0.16
      vertex 176.63999999999999 40 0.16
    endloop
  endfacet
  facet normal -0.24253562503629716 0 0.97014250014534087
    outer loop
      vertex 176.72 51.999999999999993 0.17999999999999999
      vertex 176.63999999999999 40 0.16
      vertex 176.72 40 0.17999999999999999
    endloop
  endfacet
  facet normal -0.24253562503629719 0 0.97014250014534098
    outer loop
      vertex 176.63999999999999 44 0.16
      vertex 176.72 51.999999999999993 0.17999999999999999
      vertex 176.72 60 0.17999999999999999
    endloop
  endfacet
  facet normal -0.24253562503629719 0 0.97014250014534087
    outer loop
      vertex 176.63999999999999 44 0.16
      vertex 176.72 60 0.17999999999999999
      vertex 176.63999999999999 60 0.16
    endloop
  endfacet
  facet normal 0.44721359550002893 0 0.89442719099988033
    outer loop
      vertex 177.47999999999999 -52 0.16
      vertex 177.44 -56 0.17999999999999999
      vertex 177.44 -60 0.17999999999999999
    endloop
  endfacet
  facet normal 0.44721359550002893 0 0.89442719099988033
    outer loop
      vertex 177.47999999999999 -52 0.16
      vertex 177.44 -60 0.17999999999999999
      vertex 177.47999999999999 -60 0.16
    endloop
  endfacet
  facet normal 0.44721359550002893 0 0.89442719099988033
    outer loop
      vertex 177.44 -56 0.17999999999999999
      vertex 177.47999999999999 -52 0.16
      vertex 177.47999999999999 -40 0.16
    endloop
  endfacet
  facet normal 0.44721359550002893 -0 0.89442719099988033
    outer loop
      vertex 177.44 -56 0.17999999999999999
      vertex 177.47999999999999 -40 0.16
      vertex 177.44 -40 0.17999999999999999
    endloop
  endfacet
  facet normal 0.44721359550002893 0 0.89442719099988033
    outer loop
      vertex 177.47999999999999 -32 0.16
      vertex 177.44 -36 0.17999999999999999
      vertex 177.44 -40 0.17999999999999999
    endloop
  endfacet
  facet normal 0.44721359550002893 0 0.89442719099988033
    outer loop
      vertex 177.47999999999999 -32 0.16
      vertex 177.44 -40 0.17999999999999999
      vertex 177.47999999999999 -40 0.16
    endloop
  endfacet
  facet normal 0.44721359550002893 0 0.89442719099988033
    outer loop
      vertex 177.44 -36 0.17999999999999999
      vertex 177.47999999999999 -32 0.16
      vertex 177.47999999999999 -20 0.16
    endloop
  endfacet
  facet normal 0.44721359550002893 -0 0.89442719099988033
    outer loop
      vertex 177.44 -36 0.17999999999999999
      vertex 177.47999999999999 -20 0.16
      vertex 177.44 -20 0.17999999999999999
    endloop
  endfacet
  facet normal 0.44721359550002893 0 0.89442719099988033
    outer loop
      vertex 177.47999999999999 -16 0.16
      vertex 177.44 -18 0.17999999999999999
      vertex 177.44 -20 0.17999999999999999
    endloop
  endfacet
  facet normal 0.44721359550002893 0 0.89442719099988033
    outer loop
      vertex 177.47999999999999 -16 0.16
      vertex 177.44 -20 0.17999999999999999
      vertex 177.47999999999999 -20 0.16
    endloop
  endfacet
  facet normal 0.44721359550002893 0 0.89442719099988033
    outer loop
      vertex 177.44 -18 0.17999999999999999
      vertex 177.47999999999999 -16 0.16
      vertex 177.47999999999999 -10 0.16
    endloop
  endfacet
  facet normal 0.44721359550002893 -0 0.89442719099988033
    outer loop
      vertex 177.44 -18 0.17999999999999999
      vertex 177.47999999999999 -10 0.16
      vertex 177.44 -10 0.17999999999999999
    endloop
  endfacet
  facet normal 0.44721359550002893 0 0.89442719099988044
    outer loop
      vertex 177.47999999999999 -6 0.16
      vertex 177.44 -7.9999999999999982 0.17999999999999999
      vertex 177.44 -10 0.17999999999999999
    endloop
  endfacet
  facet normal 0.44721359550002893 0 0.89442719099988033
    outer loop
      vertex 177.47999999999999 -6 0.16
      vertex 177.44 -10 0.17999999999999999
      vertex 177.47999999999999 -10 0.16
    endloop
  endfacet
  facet normal 0.44721359550002893 0 0.89442719099988033
    outer loop
      vertex 177.44 -7.9999999999999982 0.17999999999999999
      vertex 177.47999999999999 -5.9999999999999991 0.16
      vertex 177.47999999999999 0 0.16
    endloop
  endfacet
  facet normal 0.44721359550002898 -0 0.89442719099988044
    outer loop
      vertex 177.44 -7.9999999999999982 0.17999999999999999
      vertex 177.47999999999999 0 0.16
      vertex 177.44 0 0.17999999999999999
    endloop
  endfacet
  facet normal 0.44721359550002887 0 0.89442719099988044
    outer loop
      vertex 177.47999999999999 0.00040000000000000007 0.16
      vertex 177.44 0.00020000000000000017 0.17999999999999999
      vertex 177.44 0 0.17999999999999999
    endloop
  endfacet
  facet normal 0.44721359550002893 0 0.89442719099988033
    outer loop
      vertex 177.47999999999999 0.00040000000000000007 0.16
      vertex 177.44 0 0.17999999999999999
      vertex 177.47999999999999 0 0.16
    endloop
  endfacet
  facet normal 0.44721359550002898 0 0.89442719099988044
    outer loop
      vertex 177.44 0.00020000000000000017 0.17999999999999999
      vertex 177.47999999999999 0.00040000000000000007 0.16
      vertex 177.47999999999999 0.001 0.16
    endloop
  endfacet
  facet normal 0.44721359550002893 -0 0.89442719099988033
    outer loop
      vertex 177.44 0.00020000000000000017 0.17999999999999999
      vertex 177.47999999999999 0.001 0.16
      vertex 177.44 0.001 0.17999999999999999
    endloop
  endfacet
  facet normal 0.44721359550002893 0 0.89442719099988033
    outer loop
      vertex 177.47999999999999 4.0005999999999995 0.16
      vertex 177.44 2.0008000000000008 0.17999999999999999
      vertex 177.44 0.001 0.17999999999999999
    endloop
  endfacet
  facet normal 0.44721359550002898 0 0.89442719099988044
    outer loop
      vertex 177.47999999999999 4.0005999999999995 0.16
      vertex 177.44 0.001 0.17999999999999999
      vertex 177.47999999999999 0.001 0.16
    endloop
  endfacet
  facet normal 0.44721359550002898 0 0.89442719099988044
    outer loop
      vertex 177.44 2.0008000000000021 0.17999999999999999
      vertex 177.47999999999999 4.0006000000000013 0.16
      vertex 177.47999999999999 10 0.16
    endloop
  endfacet
  facet normal 0.44721359550002898 -0 0.89442719099988044
    outer loop
      vertex 177.44 2.0008000000000021 0.17999999999999999
      vertex 177.47999999999999 10 0.16
      vertex 177.44 10 0.17999999999999999
    endloop
  endfacet
  facet normal 0.44721359550002893 0 0.89442719099988044
    outer loop
      vertex 177.47999999999999 14 0.16
      vertex 177.44 12.000000000000002 0.17999999999999999
      vertex 177.44 10 0.17999999999999999
    endloop
  endfacet
  facet normal 0.44721359550002893 0 0.89442719099988033
    outer loop
      vertex 177.47999999999999 14 0.16
      vertex 177.44 10 0.17999999999999999
      vertex 177.47999999999999 10 0.16
    endloop
  endfacet
  facet normal 0.44721359550002893 0 0.89442719099988033
    outer loop
      vertex 177.44 12.000000000000002 0.17999999999999999
      vertex 177.47999999999999 14 0.16
      vertex 177.47999999999999 20 0.16
    endloop
  endfacet
  facet normal 0.44721359550002898 -0 0.89442719099988044
    outer loop
      vertex 177.44 12.000000000000002 0.17999999999999999
      vertex 177.47999999999999 20 0.16
      vertex 177.44 20 0.17999999999999999
    endloop
  endfacet
  facet normal 0.44721359550002893 0 0.89442719099988044
    outer loop
      vertex 177.47999999999999 28 0.16
      vertex 177.44 24.000000000000004 0.17999999999999999
      vertex 177.44 20 0.17999999999999999
    endloop
  endfacet
  facet normal 0.44721359550002893 0 0.89442719099988033
    outer loop
      vertex 177.47999999999999 28 0.16
      vertex 177.44 20 0.17999999999999999
      vertex 177.47999999999999 20 0.16
    endloop
  endfacet
  facet normal 0.44721359550002893 0 0.89442719099988033
    outer loop
      vertex 177.44 24.000000000000004 0.17999999999999999
      vertex 177.47999999999999 28 0.16
      vertex 177.47999999999999 40 0.16
    endloop
  endfacet
  facet normal 0.44721359550002898 -0 0.89442719099988044
    outer loop
      vertex 177.44 24.000000000000004 0.17999999999999999
      vertex 177.47999999999999 40 0.16
      vertex 177.44 40 0.17999999999999999
    endloop
  endfacet
  facet normal 0.44721359550002893 0 0.89442719099988033
    outer loop
      vertex 177.47999999999999 48 0.16
      vertex 177.44 44 0.17999999999999999
      vertex 177.44 40 0.17999999999999999
    endloop
  endfacet
  facet normal 0.44721359550002893 0 0.89442719099988033
    outer loop
      vertex 177.47999999999999 48 0.16
      vertex 177.44 40 0.17999999999999999
      vertex 177.47999999999999 40 0.16
    endloop
  endfacet
  facet normal 0.44721359550002893 0 0.89442719099988033
    outer loop
      vertex 177.44 44 0.17999999999999999
      vertex 177.47999999999999 48 0.16
      vertex 177.47999999999999 60 0.16
    endloop
  endfacet
  facet normal 0.44721359550002893 -0 0.89442719099988033
    outer loop
      vertex 177.44 44 0.17999999999999999
      vertex 177.47999999999999 60 0.16
      vertex 177.44 60 0.17999999999999999
    endloop
  endfacet
endsolid terrain_band_9
