solid terrain_band_7
  facet normal -0.24253562503633774 0 0.97014250014533077
    outer loop
      vertex 75.959999999999994 -43.999999999999993 0.14000000000000001
      vertex 75.879999999999995 -51.999999999999993 0.12000000000000002
      vertex 75.879999999999995 -60 0.12000000000000002
    endloop
  endfacet
  facet normal -0.24253562503633774 0 0.97014250014533077
    outer loop
      vertex 75.959999999999994 -43.999999999999993 0.14000000000000001
      vertex 75.879999999999995 -60 0.12000000000000002
      vertex 75.959999999999994 -60 0.14000000000000001
    endloop
  endfacet
  facet normal -0.24253562503633772 0 0.97014250014533066
    outer loop
      vertex 75.879999999999995 -51.999999999999993 0.12000000000000002
      vertex 75.959999999999994 -43.999999999999993 0.14000000000000001
      vertex 75.959999999999994 -40 0.14000000000000001
    endloop
  endfacet
  facet normal -0.24253562503633772 0 0.97014250014533066
    outer loop
      vertex 75.879999999999995 -51.999999999999993 0.12000000000000002
      vertex 75.959999999999994 -40 0.14000000000000001
      vertex 75.879999999999995 -40 0.12000000000000002
    endloop
  endfacet
  facet normal -0.24253562503633774 0 0.97014250014533077
    outer loop
      vertex 75.959999999999994 -23.999999999999993 0.14000000000000001
      vertex 75.879999999999995 -31.999999999999993 0.12000000000000002
      vertex 75.879999999999995 -40 0.12000000000000002
    endloop
  endfacet
  facet normal -0.24253562503633774 0 0.97014250014533077
    outer loop
      vertex 75.959999999999994 -23.999999999999993 0.14000000000000001
      vertex 75.879999999999995 -40 0.12000000000000002
      vertex 75.959999999999994 -40 0.14000000000000001
    endloop
  endfacet
  facet normal -0.24253562503633772 0 0.97014250014533066
    outer loop
      vertex 75.879999999999995 -31.999999999999993 0.12000000000000002
      vertex 75.959999999999994 -23.999999999999993 0.14000000000000001
      vertex 75.959999999999994 -20 0.14000000000000001
    endloop
  endfacet
  facet normal -0.24253562503633772 0 0.97014250014533066
    outer loop
      vertex 75.879999999999995 -31.999999999999993 0.12000000000000002
      vertex 75.959999999999994 -20 0.14000000000000001
      vertex 75.879999999999995 -20 0.12000000000000002
    endloop
  endfacet
  facet normal -0.24253562503633774 0 0.97014250014533077
    outer loop
      vertex 75.959999999999994 -11.999999999999996 0.14000000000000001
      vertex 75.879999999999995 -15.999999999999996 0.12000000000000002
      vertex 75.879999999999995 -20 0.12000000000000002
    endloop
  endfacet
  facet normal -0.24253562503633774 0 0.97014250014533077
    outer loop
      vertex 75.959999999999994 -11.999999999999996 0.14000000000000001
      vertex 75.879999999999995 -20 0.12000000000000002
      vertex 75.959999999999994 -20 0.14000000000000001
    endloop
  endfacet
  facet normal -0.24253562503633772 0 0.97014250014533066
    outer loop
      vertex 75.879999999999995 -15.999999999999996 0.12000000000000002
      vertex 75.959999999999994 -11.999999999999996 0.14000000000000001
      vertex 75.959999999999994 -10 0.14000000000000001
    endloop
  endfacet
  facet normal -0.24253562503633772 0 0.97014250014533066
    outer loop
      vertex 75.879999999999995 -15.999999999999996 0.12000000000000002
      vertex 75.959999999999994 -10 0.14000000000000001
      vertex 75.879999999999995 -10 0.12000000000000002
    endloop
  endfacet
  facet normal -0.24253562503633774 0 0.97014250014533077
    outer loop
      vertex 75.959999999999994 -1.9999999999999967 0.14000000000000001
      vertex 75.879999999999995 -5.9999999999999956 0.12000000000000002
      vertex 75.879999999999995 -10 0.12000000000000002
    endloop
  endfacet
  facet normal -0.24253562503633774 0 0.97014250014533077
    outer loop
      vertex 75.959999999999994 -1.9999999999999967 0.14000000000000001
      vertex 75.879999999999995 -10 0.12000000000000002
      vertex 75.959999999999994 -10 0.14000000000000001
    endloop
  endfacet
  facet normal -0.24253562503633772 0 0.97014250014533066
    outer loop
      vertex 75.879999999999995 -5.9999999999999956 0.12000000000000002
      vertex 75.959999999999994 -1.9999999999999969 0.14000000000000001
      vertex 75.959999999999994 0 0.14000000000000001
    endloop
  endfacet
  facet normal -0.24253562503633772 0 0.97014250014533066
    outer loop
      vertex 75.879999999999995 -5.9999999999999956 0.12000000000000002
      vertex 75.959999999999994 0 0.14000000000000001
      vertex 75.879999999999995 0 0.12000000000000002
    endloop
  endfacet
  facet normal -0.24253562503633769 0 0.97014250014533066
    outer loop
      vertex 75.959999999999994 0.00080000000000000036 0.14000000000000001
      vertex 75.879999999999995 0.00040000000000000051 0.12000000000000002
      vertex 75.879999999999995 0 0.12000000000000002
    endloop
  endfacet
  facet normal -0.24253562503633769 0 0.97014250014533066
    outer loop
      vertex 75.959999999999994 0.00080000000000000036 0.14000000000000001
      vertex 75.879999999999995 0 0.12000000000000002
      vertex 75.959999999999994 0 0.14000000000000001
    endloop
  endfacet
  facet normal -0.24253562503633774 0 0.97014250014533077
    outer loop
      vertex 75.879999999999995 0.00040000000000000045 0.12000000000000002
      vertex 75.959999999999994 0.00080000000000000036 0.14000000000000001
      vertex 75.959999999999994 0.001 0.14000000000000001
    endloop
  endfacet
  facet normal -0.24253562503633774 0 0.97014250014533077
    outer loop
      vertex 75.879999999999995 0.00040000000000000045 0.12000000000000002
      vertex 75.959999999999994 0.001 0.14000000000000001
      vertex 75.879999999999995 0.001 0.12000000000000002
    endloop
  endfacet
  facet normal -0.24253562503633774 0 0.97014250014533077
    outer loop
      vertex 75.959999999999994 8.0002000000000031 0.14000000000000001
      vertex 75.879999999999995 4.0006000000000039 0.12000000000000002
      vertex 75.879999999999995 0.001 0.12000000000000002
    endloop
  endfacet
  facet normal -0.24253562503633772 0 0.97014250014533066
    outer loop
      vertex 75.959999999999994 8.0002000000000031 0.14000000000000001
      vertex 75.879999999999995 0.001 0.12000000000000002
      vertex 75.959999999999994 0.001 0.14000000000000001
    endloop
  endfacet
  facet normal -0.24253562503633772 0 0.97014250014533066
    outer loop
      vertex 75.879999999999995 4.0006000000000048 0.12000000000000002
      vertex 75.959999999999994 8.0002000000000031 0.14000000000000001
      vertex 75.959999999999994 10 0.14000000000000001
    endloop
  endfacet
  facet normal -0.24253562503633774 0 0.97014250014533077
    outer loop
      vertex 75.879999999999995 4.0006000000000048 0.12000000000000002
      vertex 75.959999999999994 10 0.14000000000000001
      vertex 75.879999999999995 10 0.12000000000000002
    endloop
  endfacet
  facet normal -0.24253562503633774 0 0.97014250014533077
    outer loop
      vertex 75.959999999999994 18.000000000000004 0.14000000000000001
      vertex 75.879999999999995 14.000000000000004 0.12000000000000002
      vertex 75.879999999999995 10 0.12000000000000002
    endloop
  endfacet
  facet normal -0.24253562503633774 0 0.97014250014533077
    outer loop
      vertex 75.959999999999994 18.000000000000004 0.14000000000000001
      vertex 75.879999999999995 10 0.12000000000000002
      vertex 75.959999999999994 10 0.14000000000000001
    endloop
  endfacet
  facet normal -0.24253562503633772 0 0.97014250014533066
    outer loop
      vertex 75.879999999999995 14.000000000000004 0.12000000000000002
      vertex 75.959999999999994 18.000000000000004 0.14000000000000001
      vertex 75.959999999999994 20 0.14000000000000001
    endloop
  endfacet
  facet normal -0.24253562503633772 0 0.97014250014533066
    outer loop
      vertex 75.879999999999995 14.000000000000004 0.12000000000000002
      vertex 75.959999999999994 20 0.14000000000000001
      vertex 75.879999999999995 20 0.12000000000000002
    endloop
  endfacet
  facet normal -0.24253562503633774 0 0.97014250014533077
    outer loop
      vertex 75.959999999999994 36.000000000000007 0.14000000000000001
      vertex 75.879999999999995 28.000000000000007 0.12000000000000002
      vertex 75.879999999999995 20 0.12000000000000002
    endloop
  endfacet
  facet normal -0.24253562503633774 0 0.97014250014533077
    outer loop
      vertex 75.959999999999994 36.000000000000007 0.14000000000000001
      vertex 75.879999999999995 20 0.12000000000000002
      vertex 75.959999999999994 20 0.14000000000000001
    endloop
  endfacet
  facet normal -0.24253562503633772 0 0.97014250014533066
    outer loop
      vertex 75.879999999999995 28.000000000000007 0.12000000000000002
      vertex 75.959999999999994 36.000000000000007 0.14000000000000001
      vertex 75.959999999999994 40 0.14000000000000001
    endloop
  endfacet
  facet normal -0.24253562503633772 0 0.97014250014533066
    outer loop
      vertex 75.879999999999995 28.000000000000007 0.12000000000000002
      vertex 75.959999999999994 40 0.14000000000000001
      vertex 75.879999999999995 40 0.12000000000000002
    endloop
  endfacet
  facet normal -0.24253562503633774 0 0.97014250014533077
    outer loop
      vertex 75.959999999999994 56.000000000000007 0.14000000000000001
      vertex 75.879999999999995 48.000000000000007 0.12000000000000002
      vertex 75.879999999999995 40 0.12000000000000002
    endloop
  endfacet
  facet normal -0.24253562503633774 0 0.97014250014533077
    outer loop
      vertex 75.959999999999994 56.000000000000007 0.14000000000000001
      vertex 75.879999999999995 40 0.12000000000000002
      vertex 75.959999999999994 40 0.14000000000000001
    endloop
  endfacet
  facet normal -0.24253562503633772 0 0.97014250014533066
    outer loop
      vertex 75.879999999999995 48.000000000000007 0.12000000000000002
      vertex 75.959999999999994 56.000000000000007 0.14000000000000001
      vertex 75.959999999999994 60 0.14000000000000001
    endloop
  endfacet
  facet normal -0.24253562503633772 0 0.97014250014533066
    outer loop
      vertex 75.879999999999995 48.000000000000007 0.12000000000000002
      vertex 75.959999999999994 60 0.14000000000000001
      vertex 75.879999999999995 60 0.12000000000000002
    endloop
  endfacet
  facet normal 0.44721359550002893 0 0.89442719099988033
    outer loop
      vertex 77.560000000000002 -44 0.12000000000000002
      vertex 77.52000000000001 -48 0.14000000000000001
      vertex 77.52000000000001 -60 0.14000000000000001
    endloop
  endfacet
  facet normal 0.44721359550002893 0 0.89442719099988033
    outer loop
      vertex 77.560000000000002 -44 0.12000000000000002
      vertex 77.52000000000001 -60 0.14000000000000001
      vertex 77.560000000000002 -60 0.12000000000000002
    endloop
  endfacet
  facet normal 0.44721359550002893 0 0.89442719099988033
    outer loop
      vertex 77.52000000000001 -48 0.14000000000000001
      vertex 77.560000000000002 -44 0.12000000000000002
      vertex 77.560000000000002 -40 0.12000000000000002
    endloop
  endfacet
  facet normal 0.44721359550002893 -0 0.89442719099988033
    outer loop
      vertex 77.52000000000001 -48 0.14000000000000001
      vertex 77.560000000000002 -40 0.12000000000000002
      vertex 77.52000000000001 -40 0.14000000000000001
    endloop
  endfacet
  facet normal 0.44721359550002893 0 0.89442719099988033
    outer loop
      vertex 77.560000000000002 -24.000000000000004 0.12000000000000002
      vertex 77.52000000000001 -28 0.14000000000000001
      vertex 77.52000000000001 -40 0.14000000000000001
    endloop
  endfacet
  facet normal 0.44721359550002898 0 0.89442719099988044
    outer loop
      vertex 77.560000000000002 -24.000000000000004 0.12000000000000002
      vertex 77.52000000000001 -40 0.14000000000000001
      vertex 77.560000000000002 -40 0.12000000000000002
    endloop
  endfacet
  facet normal 0.44721359550002893 0 0.89442719099988044
    outer loop
      vertex 77.52000000000001 -28 0.14000000000000001
      vertex 77.560000000000002 -24.000000000000004 0.12000000000000002
      vertex 77.560000000000002 -20 0.12000000000000002
    endloop
  endfacet
  facet normal 0.44721359550002893 -0 0.89442719099988033
    outer loop
      vertex 77.52000000000001 -28 0.14000000000000001
      vertex 77.560000000000002 -20 0.12000000000000002
      vertex 77.52000000000001 -20 0.14000000000000001
    endloop
  endfacet
  facet normal 0.44721359550002893 0 0.89442719099988033
    outer loop
      vertex 77.560000000000002 -12.000000000000002 0.12000000000000002
      vertex 77.52000000000001 -14 0.14000000000000001
      vertex 77.52000000000001 -20 0.14000000000000001
    endloop
  endfacet
  facet normal 0.44721359550002898 0 0.89442719099988044
    outer loop
      vertex 77.560000000000002 -12.000000000000002 0.12000000000000002
      vertex 77.52000000000001 -20 0.14000000000000001
      vertex 77.560000000000002 -20 0.12000000000000002
    endloop
  endfacet
  facet normal 0.44721359550002893 0 0.89442719099988044
    outer loop
      vertex 77.52000000000001 -14 0.14000000000000001
      vertex 77.560000000000002 -12.000000000000002 0.12000000000000002
      vertex 77.560000000000002 -10 0.12000000000000002
    endloop
  endfacet
  facet normal 0.44721359550002893 -0 0.89442719099988033
    outer loop
      vertex 77.52000000000001 -14 0.14000000000000001
      vertex 77.560000000000002 -10 0.12000000000000002
      vertex 77.52000000000001 -10 0.14000000000000001
    endloop
  endfacet
  facet normal 0.44721359550002893 0 0.89442719099988033
    outer loop
      vertex 77.560000000000002 -2.0000000000000018 0.12000000000000002
      vertex 77.52000000000001 -4.0000000000000009 0.14000000000000001
      vertex 77.52000000000001 -10 0.14000000000000001
    endloop
  endfacet
  facet normal 0.44721359550002898 0 0.89442719099988044
    outer loop
      vertex 77.560000000000002 -2.0000000000000018 0.12000000000000002
      vertex 77.52000000000001 -10 0.14000000000000001
      vertex 77.560000000000002 -10 0.12000000000000002
    endloop
  endfacet
  facet normal 0.44721359550002893 0 0.89442719099988044
    outer loop
      vertex 77.52000000000001 -4.0000000000000009 0.14000000000000001
      vertex 77.560000000000002 -2.0000000000000018 0.12000000000000002
      vertex 77.560000000000002 0 0.12000000000000002
    endloop
  endfacet
  facet normal 0.44721359550002898 -0 0.89442719099988044
    outer loop
      vertex 77.52000000000001 -4.0000000000000009 0.14000000000000001
      vertex 77.560000000000002 0 0.12000000000000002
      vertex 77.52000000000001 0 0.14000000000000001
    endloop
  endfacet
  facet normal 0.44721359550002898 0 0.89442719099988044
    outer loop
      vertex 77.560000000000002 0.00079999999999999982 0.12000000000000002
      vertex 77.52000000000001 0.00059999999999999995 0.14000000000000001
      vertex 77.52000000000001 0 0.14000000000000001
    endloop
  endfacet
  facet normal 0.44721359550002893 0 0.89442719099988033
    outer loop
      vertex 77.560000000000002 0.00079999999999999982 0.12000000000000002
      vertex 77.52000000000001 0 0.14000000000000001
      vertex 77.560000000000002 0 0.12000000000000002
    endloop
  endfacet
  facet normal 0.44721359550002887 0 0.89442719099988033
    outer loop
      vertex 77.52000000000001 0.00059999999999999995 0.14000000000000001
      vertex 77.560000000000002 0.00079999999999999982 0.12000000000000002
      vertex 77.560000000000002 0.001 0.12000000000000002
    endloop
  endfacet
  facet normal 0.44721359550002893 -0 0.89442719099988033
    outer loop
      vertex 77.52000000000001 0.00059999999999999995 0.14000000000000001
      vertex 77.560000000000002 0.001 0.12000000000000002
      vertex 77.52000000000001 0.001 0.14000000000000001
    endloop
  endfacet
  facet normal 0.44721359550002904 0 0.89442719099988055
    outer loop
      vertex 77.560000000000002 8.0001999999999978 0.12000000000000002
      vertex 77.52000000000001 6.0003999999999991 0.14000000000000001
      vertex 77.52000000000001 0.001 0.14000000000000001
    endloop
  endfacet
  facet normal 0.44721359550002898 0 0.89442719099988044
    outer loop
      vertex 77.560000000000002 8.0001999999999978 0.12000000000000002
      vertex 77.52000000000001 0.001 0.14000000000000001
      vertex 77.560000000000002 0.001 0.12000000000000002
    endloop
  endfacet
  facet normal 0.44721359550002898 0 0.89442719099988044
    outer loop
      vertex 77.52000000000001 6.0003999999999991 0.14000000000000001
      vertex 77.560000000000002 8.0001999999999978 0.12000000000000002
      vertex 77.560000000000002 10 0.12000000000000002
    endloop
  endfacet
  facet normal 0.44721359550002898 -0 0.89442719099988044
    outer loop
      vertex 77.52000000000001 6.0003999999999991 0.14000000000000001
      vertex 77.560000000000002 10 0.12000000000000002
      vertex 77.52000000000001 10 0.14000000000000001
    endloop
  endfacet
  facet normal 0.44721359550002893 0 0.89442719099988033
    outer loop
      vertex 77.560000000000002 18 0.12000000000000002
      vertex 77.52000000000001 16 0.14000000000000001
      vertex 77.52000000000001 10 0.14000000000000001
    endloop
  endfacet
  facet normal 0.44721359550002893 0 0.89442719099988033
    outer loop
      vertex 77.560000000000002 18 0.12000000000000002
      vertex 77.52000000000001 10 0.14000000000000001
      vertex 77.560000000000002 10 0.12000000000000002
    endloop
  endfacet
  facet normal 0.44721359550002893 0 0.89442719099988033
    outer loop
      vertex 77.52000000000001 16 0.14000000000000001
      vertex 77.560000000000002 18 0.12000000000000002
      vertex 77.560000000000002 20 0.12000000000000002
    endloop
  endfacet
  facet normal 0.44721359550002893 -0 0.89442719099988033
    outer loop
      vertex 77.52000000000001 16 0.14000000000000001
      vertex 77.560000000000002 20 0.12000000000000002
      vertex 77.52000000000001 20 0.14000000000000001
    endloop
  endfacet
  facet normal 0.44721359550002893 0 0.89442719099988033
    outer loop
      vertex 77.560000000000002 36 0.12000000000000002
      vertex 77.52000000000001 32 0.14000000000000001
      vertex 77.52000000000001 20 0.14000000000000001
    endloop
  endfacet
  facet normal 0.44721359550002893 0 0.89442719099988033
    outer loop
      vertex 77.560000000000002 36 0.12000000000000002
      vertex 77.52000000000001 20 0.14000000000000001
      vertex 77.560000000000002 20 0.12000000000000002
    endloop
  endfacet
  facet normal 0.44721359550002893 0 0.89442719099988033
    outer loop
      vertex 77.52000000000001 32 0.14000000000000001
      vertex 77.560000000000002 36 0.12000000000000002
      vertex 77.560000000000002 40 0.12000000000000002
    endloop
  endfacet
  facet normal 0.44721359550002893 -0 0.89442719099988033
    outer loop
      vertex 77.52000000000001 32 0.14000000000000001
      vertex 77.560000000000002 40 0.12000000000000002
      vertex 77.52000000000001 40 0.14000000000000001
    endloop
  endfacet
  facet normal 0.44721359550002893 0 0.89442719099988033
    outer loop
      vertex 77.560000000000002 56 0.12000000000000002
      vertex 77.52000000000001 52 0.14000000000000001
      vertex 77.52000000000001 40 0.14000000000000001
    endloop
  endfacet
  facet normal 0.44721359550002893 0 0.89442719099988033
    outer loop
      vertex 77.560000000000002 56 0.12000000000000002
      vertex 77.52000000000001 40 0.14000000000000001
      vertex 77.560000000000002 40 0.12000000000000002
    endloop
  endfacet
  facet normal 0.44721359550002893 0 0.89442719099988033
    outer loop
      vertex 77.52000000000001 52 0.14000000000000001
      vertex 77.560000000000002 56 0.12000000000000002
      vertex 77.560000000000002 60 0.12000000000000002
    endloop
  endfacet
  facet normal 0.44721359550002893 -0 0.89442719099988033
    outer loop
      vertex 77.52000000000001 52 0.14000000000000001
      vertex 77.560000000000002 60 0.12000000000000002
      vertex 77.52000000000001 60 0.14000000000000001
    endloop
  endfacet
endsolid terrain_band_7
