solid terrain_band_10
  facet normal -0.0097009684960298603 -0.24252421240074629 0.97009684960298515
    outer loop
      vertex 43.399999999999999 -10.08 0.15999999999999998
      vertex 45.399999999999999 -10.16 0.15999999999999998
      vertex 45.399999999999999 -10 0.20000000000000001
    endloop
  endfacet
  facet normal -0.0097009684960298603 -0.24252421240074629 0.97009684960298515
    outer loop
      vertex 43.399999999999999 -10.08 0.15999999999999998
      vertex 45.399999999999999 -10 0.20000000000000001
      vertex 41.399999999999999 -10 0.15999999999999998
    endloop
  endfacet
  facet normal -0.0099995000374968855 0 0.99995000374968768
    outer loop
      vertex 41.399999999999999 -8.0000000000000053 0.15999999999999998
      vertex 41.399999999999999 -10 0.15999999999999998
      vertex 45.399999999999999 -10 0.20000000000000001
    endloop
  endfacet
  facet normal -0.0099995000374968838 0 0.99995000374968757
    outer loop
      vertex 41.399999999999999 -8.0000000000000053 0.15999999999999998
      vertex 45.399999999999999 -10 0.20000000000000001
      vertex 45.399999999999999 0 0.20000000000000001
    endloop
  endfacet
  facet normal -0.0099995000374968855 0 0.99995000374968768
    outer loop
      vertex 41.399999999999999 -8.0000000000000036 0.15999999999999998
      vertex 45.399999999999999 0 0.20000000000000001
      vertex 41.399999999999999 0 0.15999999999999998
    endloop
  endfacet
  facet normal -0.0089439141605875891 0.44719570802937902 0.89439141605875805
    outer loop
      vertex 41.399999999999999 0 0.15999999999999998
      vertex 45.399999999999999 0 0.20000000000000001
      vertex 45.399999999999999 0.080000000000000071 0.15999999999999998
    endloop
  endfacet
  facet normal 0 -0.24253562503633297 0.97014250014533188
    outer loop
      vertex 45.439999999999998 -10.16 0.15999999999999998
      vertex 45.600000000000001 -10.16 0.15999999999999998
      vertex 45.600000000000001 -10 0.20000000000000001
    endloop
  endfacet
  facet normal 0 -0.24253562503633297 0.97014250014533188
    outer loop
      vertex 45.399999999999999 -10.16 0.15999999999999998
      vertex 45.439999999999998 -10.16 0.15999999999999998
      vertex 45.600000000000001 -10 0.20000000000000001
    endloop
  endfacet
  facet normal 0 -0.24253562503633294 0.97014250014533177
    outer loop
      vertex 45.399999999999999 -10.16 0.15999999999999998
      vertex 45.600000000000001 -10 0.20000000000000001
      vertex 45.399999999999999 -10 0.20000000000000001
    endloop
  endfacet
  facet normal 0 0 1
    outer loop
      vertex 45.399999999999999 -10 0.20000000000000001
      vertex 45.600000000000001 -10 0.20000000000000001
      vertex 45.600000000000001 0 0.20000000000000001
    endloop
  endfacet
  facet normal 0 0 1
    outer loop
      vertex 45.399999999999999 -10 0.20000000000000001
      vertex 45.600000000000001 0 0.20000000000000001
      vertex 45.399999999999999 0 0.20000000000000001
    endloop
  endfacet
  facet normal 0 0.44721359549995793 0.89442719099991586
    outer loop
      vertex 45.479999999999997 0.080000000000000071 0.15999999999999998
      vertex 45.399999999999999 0 0.20000000000000001
      vertex 45.600000000000001 0 0.20000000000000001
    endloop
  endfacet
  facet normal -0 0.44721359549995793 0.89442719099991586
    outer loop
      vertex 45.479999999999997 0.080000000000000071 0.15999999999999998
      vertex 45.600000000000001 0 0.20000000000000001
      vertex 45.600000000000001 0.080000000000000071 0.15999999999999998
    endloop
  endfacet
  facet normal -0 0.44721359549995793 0.89442719099991586
    outer loop
      vertex 45.399999999999999 0.080000000000000071 0.15999999999999998
      vertex 45.399999999999999 0 0.20000000000000001
      vertex 45.479999999999997 0.080000000000000071 0.15999999999999998
    endloop
  endfacet
  facet normal 0.69631062382279929 -0.17407765595569596 0.69631062382278386
    outer loop
      vertex 45.600000000000001 -10.16 0.15999999999999998
      vertex 45.640000000000001 -10 0.15999999999999998
      vertex 45.600000000000001 -10 0.20000000000000001
    endloop
  endfacet
  facet normal 0.70710678118655534 0 0.70710678118653969
    outer loop
      vertex 45.640000000000001 -7.9999999999999982 0.15999999999999998
      vertex 45.600000000000001 -10 0.20000000000000001
      vertex 45.640000000000001 -10 0.15999999999999998
    endloop
  endfacet
  facet normal 0.70710678118655534 0 0.70710678118653958
    outer loop
      vertex 45.600000000000001 -10 0.20000000000000001
      vertex 45.640000000000001 -7.9999999999999982 0.15999999999999998
      vertex 45.640000000000001 0 0.15999999999999998
    endloop
  endfacet
  facet normal 0.70710678118655534 -0 0.70710678118653969
    outer loop
      vertex 45.600000000000001 -10 0.20000000000000001
      vertex 45.640000000000001 0 0.15999999999999998
      vertex 45.600000000000001 0 0.20000000000000001
    endloop
  endfacet
  facet normal 0.70710678118655534 0 0.70710678118653958
    outer loop
      vertex 45.640000000000001 0.040000000000000036 0.15999999999999998
      vertex 45.600000000000001 0 0.20000000000000001
      vertex 45.640000000000001 0 0.15999999999999998
    endloop
  endfacet
  facet normal 0.40824829046387057 0.40824829046386152 0.81649658092772304
    outer loop
      vertex 45.600000000000001 0.080000000000000071 0.15999999999999998
      vertex 45.600000000000001 0 0.20000000000000001
      vertex 45.640000000000001 0.040000000000000036 0.15999999999999998
    endloop
  endfacet
  facet normal 0 -0.70710678118654757 0.70710678118654757
    outer loop
      vertex 82.560000000000002 0.15999999999999998 0.15999999999999998
      vertex 82.599999999999994 0.15999999999999998 0.15999999999999998
      vertex 82.599999999999994 0.20000000000000001 0.20000000000000001
    endloop
  endfacet
  facet normal -0.19611613513818418 -0.58834840541457434 0.7844645405527193
    outer loop
      vertex 82.560000000000002 0.15999999999999998 0.15999999999999998
      vertex 82.599999999999994 0.20000000000000001 0.20000000000000001
      vertex 82.439999999999998 0.20000000000000001 0.15999999999999998
    endloop
  endfacet
  facet normal -0.24253562503633802 0 0.97014250014533066
    outer loop
      vertex 82.439999999999998 2.1599999999999948 0.15999999999999998
      vertex 82.439999999999998 0.20000000000000001 0.15999999999999998
      vertex 82.599999999999994 0.20000000000000001 0.20000000000000001
    endloop
  endfacet
  facet normal -0.24253562503633805 0 0.97014250014533054
    outer loop
      vertex 82.439999999999998 2.1599999999999948 0.15999999999999998
      vertex 82.599999999999994 0.20000000000000001 0.20000000000000001
      vertex 82.599999999999994 10 0.20000000000000001
    endloop
  endfacet
  facet normal -0.24253562503633805 0 0.97014250014533054
    outer loop
      vertex 82.439999999999998 2.1599999999999961 0.15999999999999998
      vertex 82.599999999999994 10 0.20000000000000001
      vertex 82.439999999999998 10 0.15999999999999998
    endloop
  endfacet
  facet normal -0.23570226039552081 0.23570226039551556 0.94280904158206225
    outer loop
      vertex 82.439999999999998 10 0.15999999999999998
      vertex 82.599999999999994 10 0.20000000000000001
      vertex 82.599999999999994 10.16 0.15999999999999998
    endloop
  endfacet
  facet normal -0.23570226039552572 -0.23570226039551526 0.94280904158206102
    outer loop
      vertex 82.519999999999996 20.120000000000001 0.15999999999999998
      vertex 82.599999999999994 20.039999999999999 0.15999999999999998
      vertex 82.599999999999994 20.199999999999999 0.20000000000000001
    endloop
  endfacet
  facet normal -0.23570226039552053 -0.23570226039552053 0.94280904158206114
    outer loop
      vertex 82.519999999999996 20.120000000000001 0.15999999999999998
      vertex 82.599999999999994 20.199999999999999 0.20000000000000001
      vertex 82.439999999999998 20.199999999999999 0.15999999999999998
    endloop
  endfacet
  facet normal -0.24253562503633799 0 0.97014250014533054
    outer loop
      vertex 82.439999999999998 24.159999999999989 0.15999999999999998
      vertex 82.439999999999998 20.199999999999999 0.15999999999999998
      vertex 82.599999999999994 20.199999999999999 0.20000000000000001
    endloop
  endfacet
  facet normal -0.24253562503633802 0 0.97014250014533054
    outer loop
      vertex 82.439999999999998 24.159999999999989 0.15999999999999998
      vertex 82.599999999999994 20.199999999999999 0.20000000000000001
      vertex 82.599999999999994 40 0.20000000000000001
    endloop
  endfacet
  facet normal -0.24253562503633802 0 0.97014250014533066
    outer loop
      vertex 82.439999999999998 24.159999999999989 0.15999999999999998
      vertex 82.599999999999994 40 0.20000000000000001
      vertex 82.439999999999998 40 0.15999999999999998
    endloop
  endfacet
  facet normal -0.24253562503633805 0 0.97014250014533066
    outer loop
      vertex 82.439999999999998 40.039999999999999 0.15999999999999998
      vertex 82.439999999999998 40 0.15999999999999998
      vertex 82.599999999999994 40 0.20000000000000001
    endloop
  endfacet
  facet normal -0.24253562503633805 0 0.97014250014533054
    outer loop
      vertex 82.439999999999998 40.039999999999999 0.15999999999999998
      vertex 82.599999999999994 40 0.20000000000000001
      vertex 82.599999999999994 40.200000000000003 0.20000000000000001
    endloop
  endfacet
  facet normal -0.24253562503633805 0 0.97014250014533066
    outer loop
      vertex 82.439999999999998 40.039999999999999 0.15999999999999998
      vertex 82.599999999999994 40.200000000000003 0.20000000000000001
      vertex 82.439999999999998 40.200000000000003 0.15999999999999998
    endloop
  endfacet
  facet normal -0.24253489721584762 0.0024498474466246706 0.97013958886336893
    outer loop
      vertex 82.439999999999998 40.200000000000003 0.15999999999999998
      vertex 82.599999999999994 40.200000000000003 0.20000000000000001
      vertex 82.599999999999994 56.040000000000006 0.15999999999999998
    endloop
  endfacet
  facet normal -0.2425327137937098 -0.0048996507837107683 0.97013085517473152
    outer loop
      vertex 82.546666666666667 94.719999999999999 0.15999999999999998
      vertex 82.599999999999994 92.079999999999998 0.15999999999999998
      vertex 82.599999999999994 100 0.20000000000000001
    endloop
  endfacet
  facet normal -0.24253271379368954 -0.0048996507837110121 0.97013085517473674
    outer loop
      vertex 82.546666666666667 94.719999999999999 0.15999999999999998
      vertex 82.599999999999994 100 0.20000000000000001
      vertex 82.439999999999998 100 0.15999999999999998
    endloop
  endfacet
  facet normal 0 -0.70710678118654757 0.70710678118654757
    outer loop
      vertex 82.759999999999991 0.15999999999999998 0.15999999999999998
      vertex 82.799999999999997 0.15999999999999998 0.15999999999999998
      vertex 82.799999999999997 0.20000000000000001 0.20000000000000001
    endloop
  endfacet
  facet normal 0 -0.70710678118654757 0.70710678118654757
    outer loop
      vertex 82.599999999999994 0.15999999999999998 0.15999999999999998
      vertex 82.759999999999991 0.15999999999999998 0.15999999999999998
      vertex 82.799999999999997 0.20000000000000001 0.20000000000000001
    endloop
  endfacet
  facet normal 0 -0.70710678118654757 0.70710678118654757
    outer loop
      vertex 82.599999999999994 0.15999999999999998 0.15999999999999998
      vertex 82.799999999999997 0.20000000000000001 0.20000000000000001
      vertex 82.599999999999994 0.20000000000000001 0.20000000000000001
    endloop
  endfacet
  facet normal 0 0 1
    outer loop
      vertex 82.599999999999994 0.20000000000000001 0.20000000000000001
      vertex 82.799999999999997 0.20000000000000001 0.20000000000000001
      vertex 82.799999999999997 10 0.20000000000000001
    endloop
  endfacet
  facet normal 0 0 1
    outer loop
      vertex 82.599999999999994 0.20000000000000001 0.20000000000000001
      vertex 82.799999999999997 10 0.20000000000000001
      vertex 82.599999999999994 10 0.20000000000000001
    endloop
  endfacet
  facet normal 0 0.24253562503633294 0.97014250014533177
    outer loop
      vertex 82.759999999999991 10.16 0.15999999999999998
      vertex 82.599999999999994 10 0.20000000000000001
      vertex 82.799999999999997 10 0.20000000000000001
    endloop
  endfacet
  facet normal -0 0.242535625036333 0.97014250014533199
    outer loop
      vertex 82.759999999999991 10.16 0.15999999999999998
      vertex 82.799999999999997 10 0.20000000000000001
      vertex 82.799999999999997 10.16 0.15999999999999998
    endloop
  endfacet
  facet normal -0 0.24253562503633297 0.97014250014533188
    outer loop
      vertex 82.599999999999994 10.16 0.15999999999999998
      vertex 82.599999999999994 10 0.20000000000000001
      vertex 82.759999999999991 10.16 0.15999999999999998
    endloop
  endfacet
  facet normal 0 -0.24253562503633297 0.97014250014533188
    outer loop
      vertex 82.640000000000001 20.039999999999999 0.15999999999999998
      vertex 82.799999999999997 20.039999999999999 0.15999999999999998
      vertex 82.799999999999997 20.199999999999999 0.20000000000000001
    endloop
  endfacet
  facet normal 0 -0.242535625036333 0.97014250014533199
    outer loop
      vertex 82.599999999999994 20.039999999999999 0.15999999999999998
      vertex 82.640000000000001 20.039999999999999 0.15999999999999998
      vertex 82.799999999999997 20.199999999999999 0.20000000000000001
    endloop
  endfacet
  facet normal 0 -0.24253562503633294 0.97014250014533177
    outer loop
      vertex 82.599999999999994 20.039999999999999 0.15999999999999998
      vertex 82.799999999999997 20.199999999999999 0.20000000000000001
      vertex 82.599999999999994 20.199999999999999 0.20000000000000001
    endloop
  endfacet
  facet normal 0 0 1
    outer loop
      vertex 82.599999999999994 20.199999999999999 0.20000000000000001
      vertex 82.799999999999997 20.199999999999999 0.20000000000000001
      vertex 82.799999999999997 40 0.20000000000000001
    endloop
  endfacet
  facet normal 0 0 1
    outer loop
      vertex 82.599999999999994 20.199999999999999 0.20000000000000001
      vertex 82.799999999999997 40 0.20000000000000001
      vertex 82.599999999999994 40 0.20000000000000001
    endloop
  endfacet
  facet normal 0 0 1
    outer loop
      vertex 82.599999999999994 40 0.20000000000000001
      vertex 82.799999999999997 40 0.20000000000000001
      vertex 82.799999999999997 40.200000000000003 0.20000000000000001
    endloop
  endfacet
  facet normal 0 0 1
    outer loop
      vertex 82.599999999999994 40 0.20000000000000001
      vertex 82.799999999999997 40.200000000000003 0.20000000000000001
      vertex 82.599999999999994 40.200000000000003 0.20000000000000001
    endloop
  endfacet
  facet normal 0 0.0025252444736492221 0.99999681156509113
    outer loop
      vertex 82.759999999999991 56.040000000000006 0.15999999999999998
      vertex 82.599999999999994 40.200000000000003 0.20000000000000001
      vertex 82.799999999999997 40.200000000000003 0.20000000000000001
    endloop
  endfacet
  facet normal -0 0.0025252444736492217 0.99999681156509101
    outer loop
      vertex 82.759999999999991 56.040000000000006 0.15999999999999998
      vertex 82.799999999999997 40.200000000000003 0.20000000000000001
      vertex 82.799999999999997 56.040000000000006 0.15999999999999998
    endloop
  endfacet
  facet normal -0 0.0025252444736492217 0.99999681156509101
    outer loop
      vertex 82.599999999999994 56.040000000000006 0.15999999999999998
      vertex 82.599999999999994 40.200000000000003 0.20000000000000001
      vertex 82.759999999999991 56.040000000000006 0.15999999999999998
    endloop
  endfacet
  facet normal 0 -0.0050504406386027885 0.99998724644335146
    outer loop
      vertex 82.719999999999999 92.079999999999998 0.15999999999999998
      vertex 82.799999999999997 92.079999999999998 0.15999999999999998
      vertex 82.799999999999997 100 0.20000000000000001
    endloop
  endfacet
  facet normal 0 -0.0050504406386027885 0.99998724644335135
    outer loop
      vertex 82.599999999999994 92.079999999999998 0.15999999999999998
      vertex 82.719999999999999 92.079999999999998 0.15999999999999998
      vertex 82.799999999999997 100 0.20000000000000001
    endloop
  endfacet
  facet normal 0 -0.0050504406386027885 0.99998724644335146
    outer loop
      vertex 82.599999999999994 92.079999999999998 0.15999999999999998
      vertex 82.799999999999997 100 0.20000000000000001
      vertex 82.599999999999994 100 0.20000000000000001
    endloop
  endfacet
  facet normal 0 -0.70710678118654757 0.70710678118654757
    outer loop
      vertex 82.959999999999994 0.15999999999999998 0.15999999999999998
      vertex 83 0.15999999999999998 0.15999999999999998
      vertex 83 0.20000000000000001 0.20000000000000001
    endloop
  endfacet
  facet normal 0 -0.70710678118654757 0.70710678118654757
    outer loop
      vertex 82.799999999999997 0.15999999999999998 0.15999999999999998
      vertex 82.959999999999994 0.15999999999999998 0.15999999999999998
      vertex 83 0.20000000000000001 0.20000000000000001
    endloop
  endfacet
  facet normal 0 -0.70710678118654757 0.70710678118654757
    outer loop
      vertex 82.799999999999997 0.15999999999999998 0.15999999999999998
      vertex 83 0.20000000000000001 0.20000000000000001
      vertex 82.799999999999997 0.20000000000000001 0.20000000000000001
    endloop
  endfacet
  facet normal 0 0 1
    outer loop
      vertex 82.799999999999997 0.20000000000000001 0.20000000000000001
      vertex 83 0.20000000000000001 0.20000000000000001
      vertex 83 10 0.20000000000000001
    endloop
  endfacet
  facet normal 0 0 1
    outer loop
      vertex 82.799999999999997 0.20000000000000001 0.20000000000000001
      vertex 83 10 0.20000000000000001
      vertex 82.799999999999997 10 0.20000000000000001
    endloop
  endfacet
  facet normal 0 0.24253562503633294 0.97014250014533177
    outer loop
      vertex 82.959999999999994 10.16 0.15999999999999998
      vertex 82.799999999999997 10 0.20000000000000001
      vertex 83 10 0.20000000000000001
    endloop
  endfacet
  facet normal -0 0.242535625036333 0.97014250014533199
    outer loop
      vertex 82.959999999999994 10.16 0.15999999999999998
      vertex 83 10 0.20000000000000001
      vertex 83 10.16 0.15999999999999998
    endloop
  endfacet
  facet normal -0 0.24253562503633297 0.97014250014533188
    outer loop
      vertex 82.799999999999997 10.16 0.15999999999999998
      vertex 82.799999999999997 10 0.20000000000000001
      vertex 82.959999999999994 10.16 0.15999999999999998
    endloop
  endfacet
  facet normal 0 -0.24253562503633297 0.97014250014533188
    outer loop
      vertex 82.840000000000003 20.039999999999999 0.15999999999999998
      vertex 83 20.039999999999999 0.15999999999999998
      vertex 83 20.199999999999999 0.20000000000000001
    endloop
  endfacet
  facet normal 0 -0.242535625036333 0.97014250014533199
    outer loop
      vertex 82.799999999999997 20.039999999999999 0.15999999999999998
      vertex 82.840000000000003 20.039999999999999 0.15999999999999998
      vertex 83 20.199999999999999 0.20000000000000001
    endloop
  endfacet
  facet normal 0 -0.24253562503633294 0.97014250014533177
    outer loop
      vertex 82.799999999999997 20.039999999999999 0.15999999999999998
      vertex 83 20.199999999999999 0.20000000000000001
      vertex 82.799999999999997 20.199999999999999 0.20000000000000001
    endloop
  endfacet
  facet normal 0 0 1
    outer loop
      vertex 82.799999999999997 20.199999999999999 0.20000000000000001
      vertex 83 20.199999999999999 0.20000000000000001
      vertex 83 40 0.20000000000000001
    endloop
  endfacet
  facet normal 0 0 1
    outer loop
      vertex 82.799999999999997 20.199999999999999 0.20000000000000001
      vertex 83 40 0.20000000000000001
      vertex 82.799999999999997 40 0.20000000000000001
    endloop
  endfacet
  facet normal 0 0 1
    outer loop
      vertex 82.799999999999997 40 0.20000000000000001
      vertex 83 40 0.20000000000000001
      vertex 83 40.200000000000003 0.20000000000000001
    endloop
  endfacet
  facet normal 0 0 1
    outer loop
      vertex 82.799999999999997 40 0.20000000000000001
      vertex 83 40.200000000000003 0.20000000000000001
      vertex 82.799999999999997 40.200000000000003 0.20000000000000001
    endloop
  endfacet
  facet normal 0 0.0025252444736492221 0.99999681156509113
    outer loop
      vertex 82.959999999999994 56.040000000000006 0.15999999999999998
      vertex 82.799999999999997 40.200000000000003 0.20000000000000001
      vertex 83 40.200000000000003 0.20000000000000001
    endloop
  endfacet
  facet normal -0 0.0025252444736492217 0.99999681156509101
    outer loop
      vertex 82.959999999999994 56.040000000000006 0.15999999999999998
      vertex 83 40.200000000000003 0.20000000000000001
      vertex 83 56.040000000000006 0.15999999999999998
    endloop
  endfacet
  facet normal -0 0.0025252444736492217 0.99999681156509101
    outer loop
      vertex 82.799999999999997 56.040000000000006 0.15999999999999998
      vertex 82.799999999999997 40.200000000000003 0.20000000000000001
      vertex 82.959999999999994 56.040000000000006 0.15999999999999998
    endloop
  endfacet
  facet normal 0 -0.0050504406386027885 0.99998724644335146
    outer loop
      vertex 82.920000000000002 92.079999999999998 0.15999999999999998
      vertex 83 92.079999999999998 0.15999999999999998
      vertex 83 100 0.20000000000000001
    endloop
  endfacet
  facet normal 0 -0.0050504406386027885 0.99998724644335135
    outer loop
      vertex 82.799999999999997 92.079999999999998 0.15999999999999998
      vertex 82.920000000000002 92.079999999999998 0.15999999999999998
      vertex 83 100 0.20000000000000001
    endloop
  endfacet
  facet normal 0 -0.0050504406386027885 0.99998724644335146
    outer loop
      vertex 82.799999999999997 92.079999999999998 0.15999999999999998
      vertex 83 100 0.20000000000000001
      vertex 82.799999999999997 100 0.20000000000000001
    endloop
  endfacet
  facet normal 0 -0.70710678118654757 0.70710678118654757
    outer loop
      vertex 83.159999999999997 0.15999999999999998 0.15999999999999998
      vertex 83.200000000000003 0.15999999999999998 0.15999999999999998
      vertex 83.200000000000003 0.20000000000000001 0.20000000000000001
    endloop
  endfacet
  facet normal 0 -0.70710678118654757 0.70710678118654757
    outer loop
      vertex 83 0.15999999999999998 0.15999999999999998
      vertex 83.159999999999997 0.15999999999999998 0.15999999999999998
      vertex 83.200000000000003 0.20000000000000001 0.20000000000000001
    endloop
  endfacet
  facet normal 0 -0.70710678118654757 0.70710678118654757
    outer loop
      vertex 83 0.15999999999999998 0.15999999999999998
      vertex 83.200000000000003 0.20000000000000001 0.20000000000000001
      vertex 83 0.20000000000000001 0.20000000000000001
    endloop
  endfacet
  facet normal 0 0 1
    outer loop
      vertex 83 0.20000000000000001 0.20000000000000001
      vertex 83.200000000000003 0.20000000000000001 0.20000000000000001
      vertex 83.200000000000003 10 0.20000000000000001
    endloop
  endfacet
  facet normal 0 0 1
    outer loop
      vertex 83 0.20000000000000001 0.20000000000000001
      vertex 83.200000000000003 10 0.20000000000000001
      vertex 83 10 0.20000000000000001
    endloop
  endfacet
  facet normal 0 0.24253562503633294 0.97014250014533177
    outer loop
      vertex 83.159999999999997 10.16 0.15999999999999998
      vertex 83 10 0.20000000000000001
      vertex 83.200000000000003 10 0.20000000000000001
    endloop
  endfacet
  facet normal -0 0.242535625036333 0.97014250014533199
    outer loop
      vertex 83.159999999999997 10.16 0.15999999999999998
      vertex 83.200000000000003 10 0.20000000000000001
      vertex 83.200000000000003 10.16 0.15999999999999998
    endloop
  endfacet
  facet normal -0 0.24253562503633297 0.97014250014533188
    outer loop
      vertex 83 10.16 0.15999999999999998
      vertex 83 10 0.20000000000000001
      vertex 83.159999999999997 10.16 0.15999999999999998
    endloop
  endfacet
  facet normal 0 -0.24253562503633297 0.97014250014533188
    outer loop
      vertex 83.040000000000006 20.039999999999999 0.15999999999999998
      vertex 83.200000000000003 20.039999999999999 0.15999999999999998
      vertex 83.200000000000003 20.199999999999999 0.20000000000000001
    endloop
  endfacet
  facet normal 0 -0.242535625036333 0.97014250014533199
    outer loop
      vertex 83 20.039999999999999 0.15999999999999998
      vertex 83.040000000000006 20.039999999999999 0.15999999999999998
      vertex 83.200000000000003 20.199999999999999 0.20000000000000001
    endloop
  endfacet
  facet normal 0 -0.24253562503633294 0.97014250014533177
    outer loop
      vertex 83 20.039999999999999 0.15999999999999998
      vertex 83.200000000000003 20.199999999999999 0.20000000000000001
      vertex 83 20.199999999999999 0.20000000000000001
    endloop
  endfacet
  facet normal 0 0 1
    outer loop
      vertex 83 20.199999999999999 0.20000000000000001
      vertex 83.200000000000003 20.199999999999999 0.20000000000000001
      vertex 83.200000000000003 40 0.20000000000000001
    endloop
  endfacet
  facet normal 0 0 1
    outer loop
      vertex 83 20.199999999999999 0.20000000000000001
      vertex 83.200000000000003 40 0.20000000000000001
      vertex 83 40 0.20000000000000001
    endloop
  endfacet
  facet normal 0 0 1
    outer loop
      vertex 83 40 0.20000000000000001
      vertex 83.200000000000003 40 0.20000000000000001
      vertex 83.200000000000003 40.200000000000003 0.20000000000000001
    endloop
  endfacet
  facet normal 0 0 1
    outer loop
      vertex 83 40 0.20000000000000001
      vertex 83.200000000000003 40.200000000000003 0.20000000000000001
      vertex 83 40.200000000000003 0.20000000000000001
    endloop
  endfacet
  facet normal 0 0.0025252444736492221 0.99999681156509113
    outer loop
      vertex 83.159999999999997 56.040000000000006 0.15999999999999998
      vertex 83 40.200000000000003 0.20000000000000001
      vertex 83.200000000000003 40.200000000000003 0.20000000000000001
    endloop
  endfacet
  facet normal -0 0.0025252444736492217 0.99999681156509101
    outer loop
      vertex 83.159999999999997 56.040000000000006 0.15999999999999998
      vertex 83.200000000000003 40.200000000000003 0.20000000000000001
      vertex 83.200000000000003 56.040000000000006 0.15999999999999998
    endloop
  endfacet
  facet normal -0 0.0025252444736492217 0.99999681156509101
    outer loop
      vertex 83 56.040000000000006 0.15999999999999998
      vertex 83 40.200000000000003 0.20000000000000001
      vertex 83.159999999999997 56.040000000000006 0.15999999999999998
    endloop
  endfacet
  facet normal 0 -0.0050504406386027885 0.99998724644335146
    outer loop
      vertex 83.120000000000005 92.079999999999998 0.15999999999999998
      vertex 83.200000000000003 92.079999999999998 0.15999999999999998
      vertex 83.200000000000003 100 0.20000000000000001
    endloop
  endfacet
  facet normal 0 -0.0050504406386027885 0.99998724644335135
    outer loop
      vertex 83 92.079999999999998 0.15999999999999998
      vertex 83.120000000000005 92.079999999999998 0.15999999999999998
      vertex 83.200000000000003 100 0.20000000000000001
    endloop
  endfacet
  facet normal 0 -0.0050504406386027885 0.99998724644335146
    outer loop
      vertex 83 92.079999999999998 0.15999999999999998
      vertex 83.200000000000003 100 0.20000000000000001
      vertex 83 100 0.20000000000000001
    endloop
  endfacet
  facet normal 0.33333333333333992 -0.66666666666666508 0.66666666666666508
    outer loop
      vertex 83.200000000000003 0.15999999999999998 0.15999999999999998
      vertex 83.280000000000001 0.20000000000000001 0.15999999999999998
      vertex 83.200000000000003 0.20000000000000001 0.20000000000000001
    endloop
  endfacet
  facet normal 0.44721359549996592 0 0.89442719099991186
    outer loop
      vertex 83.280000000000001 4.1200000000000028 0.15999999999999998
      vertex 83.200000000000003 0.20000000000000001 0.20000000000000001
      vertex 83.280000000000001 0.20000000000000001 0.15999999999999998
    endloop
  endfacet
  facet normal 0.44721359549996587 0 0.89442719099991186
    outer loop
      vertex 83.200000000000003 0.20000000000000001 0.20000000000000001
      vertex 83.280000000000001 4.1200000000000037 0.15999999999999998
      vertex 83.280000000000001 10 0.15999999999999998
    endloop
  endfacet
  facet normal 0.44721359549996592 -0 0.89442719099991197
    outer loop
      vertex 83.200000000000003 0.20000000000000001 0.20000000000000001
      vertex 83.280000000000001 10 0.15999999999999998
      vertex 83.200000000000003 10 0.20000000000000001
    endloop
  endfacet
  facet normal 0.40824829046386601 -0.40824829046388428 0.81649658092771393
    outer loop
      vertex 83.200000000000003 10 0.20000000000000001
      vertex 83.280000000000001 10 0.15999999999999998
      vertex 83.400000000000006 10.119999999999999 0.15999999999999998
    endloop
  endfacet
  facet normal 0.40824829046385702 -0.40824829046386429 0.81649658092772837
    outer loop
      vertex 83.200000000000003 10 0.20000000000000001
      vertex 83.400000000000006 10.119999999999999 0.15999999999999998
      vertex 83.400000000000006 10.199999999999999 0.20000000000000001
    endloop
  endfacet
  facet normal -0.23570226039551187 0.23570226039551606 0.94280904158206424
    outer loop
      vertex 83.200000000000003 10.16 0.15999999999999998
      vertex 83.200000000000003 10 0.20000000000000001
      vertex 83.400000000000006 10.199999999999999 0.20000000000000001
    endloop
  endfacet
  facet normal -0.23570226039551817 0.23570226039556005 0.9428090415820517
    outer loop
      vertex 83.200000000000003 10.16 0.15999999999999998
      vertex 83.400000000000006 10.199999999999999 0.20000000000000001
      vertex 83.240000000000009 10.199999999999999 0.15999999999999998
    endloop
  endfacet
  facet normal -0.24253562503633802 0 0.97014250014533066
    outer loop
      vertex 83.240000000000009 12.159999999999995 0.15999999999999998
      vertex 83.240000000000009 10.199999999999999 0.15999999999999998
      vertex 83.400000000000006 10.199999999999999 0.20000000000000001
    endloop
  endfacet
  facet normal -0.24253562503633805 0 0.97014250014533054
    outer loop
      vertex 83.240000000000009 12.159999999999995 0.15999999999999998
      vertex 83.400000000000006 10.199999999999999 0.20000000000000001
      vertex 83.400000000000006 20 0.20000000000000001
    endloop
  endfacet
  facet normal -0.24253562503633805 0 0.97014250014533054
    outer loop
      vertex 83.240000000000009 12.159999999999995 0.15999999999999998
      vertex 83.400000000000006 20 0.20000000000000001
      vertex 83.240000000000009 20 0.15999999999999998
    endloop
  endfacet
  facet normal -0.21821789023599608 0.43643578047199216 0.8728715609439649
    outer loop
      vertex 83.240000000000009 20 0.15999999999999998
      vertex 83.400000000000006 20 0.20000000000000001
      vertex 83.400000000000006 20.079999999999998 0.15999999999999998
    endloop
  endfacet
  facet normal 0.43643578047199261 -0.21821789023599147 0.8728715609439659
    outer loop
      vertex 83.200000000000003 20.039999999999999 0.15999999999999998
      vertex 83.280000000000001 20.199999999999999 0.15999999999999998
      vertex 83.200000000000003 20.199999999999999 0.20000000000000001
    endloop
  endfacet
  facet normal 0.44721359549996581 0 0.89442719099991186
    outer loop
      vertex 83.280000000000001 28.120000000000005 0.15999999999999998
      vertex 83.200000000000003 20.199999999999999 0.20000000000000001
      vertex 83.280000000000001 20.199999999999999 0.15999999999999998
    endloop
  endfacet
  facet normal 0.44721359549996587 0 0.89442719099991186
    outer loop
      vertex 83.200000000000003 20.199999999999999 0.20000000000000001
      vertex 83.280000000000001 28.120000000000005 0.15999999999999998
      vertex 83.280000000000001 40 0.15999999999999998
    endloop
  endfacet
  facet normal 0.44721359549996587 -0 0.89442719099991186
    outer loop
      vertex 83.200000000000003 20.199999999999999 0.20000000000000001
      vertex 83.280000000000001 40 0.15999999999999998
      vertex 83.200000000000003 40 0.20000000000000001
    endloop
  endfacet
  facet normal 0.44721359549996587 0 0.89442719099991186
    outer loop
      vertex 83.280000000000001 40.079999999999998 0.15999999999999998
      vertex 83.200000000000003 40 0.20000000000000001
      vertex 83.280000000000001 40 0.15999999999999998
    endloop
  endfacet
  facet normal 0.44721359549996598 0 0.89442719099991197
    outer loop
      vertex 83.200000000000003 40 0.20000000000000001
      vertex 83.280000000000001 40.079999999999998 0.15999999999999998
      vertex 83.280000000000001 40.200000000000003 0.15999999999999998
    endloop
  endfacet
  facet normal 0.44721359549996592 -0 0.89442719099991186
    outer loop
      vertex 83.200000000000003 40 0.20000000000000001
      vertex 83.280000000000001 40.200000000000003 0.15999999999999998
      vertex 83.200000000000003 40.200000000000003 0.20000000000000001
    endloop
  endfacet
  facet normal 0.44720903263136874 -0.0045172629558725853 0.89441806526271761
    outer loop
      vertex 83.200000000000003 40.200000000000003 0.20000000000000001
      vertex 83.280000000000001 40.200000000000003 0.15999999999999998
      vertex 83.400000000000006 52.079999999999998 0.15999999999999998
    endloop
  endfacet
  facet normal 0.44720903263135581 -0.0045172629558723459 0.89441806526272394
    outer loop
      vertex 83.200000000000003 40.200000000000003 0.20000000000000001
      vertex 83.400000000000006 52.079999999999998 0.15999999999999998
      vertex 83.400000000000006 60 0.20000000000000001
    endloop
  endfacet
  facet normal -0.24253489721583943 0.0024498474466246763 0.97013958886337104
    outer loop
      vertex 83.200000000000003 56.040000000000006 0.15999999999999998
      vertex 83.200000000000003 40.200000000000003 0.20000000000000001
      vertex 83.400000000000006 60 0.20000000000000001
    endloop
  endfacet
  facet normal -0.24253489721584764 0.0024498474466251104 0.97013958886336904
    outer loop
      vertex 83.200000000000003 56.040000000000006 0.15999999999999998
      vertex 83.400000000000006 60 0.20000000000000001
      vertex 83.240000000000009 60 0.15999999999999998
    endloop
  endfacet
  facet normal -0.24253562503633805 0 0.97014250014533066
    outer loop
      vertex 83.240000000000009 60.039999999999999 0.15999999999999998
      vertex 83.240000000000009 60 0.15999999999999998
      vertex 83.400000000000006 60 0.20000000000000001
    endloop
  endfacet
  facet normal -0.24253562503633805 0 0.97014250014533054
    outer loop
      vertex 83.240000000000009 60.039999999999999 0.15999999999999998
      vertex 83.400000000000006 60 0.20000000000000001
      vertex 83.400000000000006 60.200000000000003 0.20000000000000001
    endloop
  endfacet
  facet normal -0.24253562503633805 0 0.97014250014533066
    outer loop
      vertex 83.240000000000009 60.039999999999999 0.15999999999999998
      vertex 83.400000000000006 60.200000000000003 0.20000000000000001
      vertex 83.240000000000009 60.200000000000003 0.15999999999999998
    endloop
  endfacet
  facet normal -0.24253489721584762 0.0024498474466246706 0.97013958886336893
    outer loop
      vertex 83.240000000000009 60.200000000000003 0.15999999999999998
      vertex 83.400000000000006 60.200000000000003 0.20000000000000001
      vertex 83.400000000000006 76.040000000000006 0.15999999999999998
    endloop
  endfacet
  facet normal 0.44720903263136869 -0.0045172629558723138 0.8944180652627175
    outer loop
      vertex 83.200000000000003 92.079999999999998 0.15999999999999998
      vertex 83.280000000000001 100 0.15999999999999998
      vertex 83.200000000000003 100 0.20000000000000001
    endloop
  endfacet
  facet normal 0 -0.44721359549995793 0.89442719099991586
    outer loop
      vertex 83.519999999999996 10.119999999999999 0.15999999999999998
      vertex 83.599999999999994 10.119999999999999 0.15999999999999998
      vertex 83.599999999999994 10.199999999999999 0.20000000000000001
    endloop
  endfacet
  facet normal 0 -0.44721359549995793 0.89442719099991586
    outer loop
      vertex 83.400000000000006 10.119999999999999 0.15999999999999998
      vertex 83.519999999999996 10.119999999999999 0.15999999999999998
      vertex 83.599999999999994 10.199999999999999 0.20000000000000001
    endloop
  endfacet
  facet normal 0 -0.44721359549995798 0.89442719099991597
    outer loop
      vertex 83.400000000000006 10.119999999999999 0.15999999999999998
      vertex 83.599999999999994 10.199999999999999 0.20000000000000001
      vertex 83.400000000000006 10.199999999999999 0.20000000000000001
    endloop
  endfacet
  facet normal 0 0 1
    outer loop
      vertex 83.400000000000006 10.199999999999999 0.20000000000000001
      vertex 83.599999999999994 10.199999999999999 0.20000000000000001
      vertex 83.599999999999994 20 0.20000000000000001
    endloop
  endfacet
  facet normal 0 0 1
    outer loop
      vertex 83.400000000000006 10.199999999999999 0.20000000000000001
      vertex 83.599999999999994 20 0.20000000000000001
      vertex 83.400000000000006 20 0.20000000000000001
    endloop
  endfacet
  facet normal 0 0.44721359549996587 0.89442719099991197
    outer loop
      vertex 83.480000000000004 20.079999999999998 0.15999999999999998
      vertex 83.400000000000006 20 0.20000000000000001
      vertex 83.599999999999994 20 0.20000000000000001
    endloop
  endfacet
  facet normal -0 0.44721359549996587 0.89442719099991186
    outer loop
      vertex 83.480000000000004 20.079999999999998 0.15999999999999998
      vertex 83.599999999999994 20 0.20000000000000001
      vertex 83.599999999999994 20.079999999999998 0.15999999999999998
    endloop
  endfacet
  facet normal -0 0.44721359549996587 0.89442719099991186
    outer loop
      vertex 83.400000000000006 20.079999999999998 0.15999999999999998
      vertex 83.400000000000006 20 0.20000000000000001
      vertex 83.480000000000004 20.079999999999998 0.15999999999999998
    endloop
  endfacet
  facet normal 4.485692385183612e-16 -0.0050504406386027885 0.99998724644335146
    outer loop
      vertex 83.519999999999996 52.079999999999991 0.15999999999999998
      vertex 83.599999999999994 52.079999999999998 0.15999999999999998
      vertex 83.599999999999994 60 0.20000000000000001
    endloop
  endfacet
  facet normal 2.9904615901225863e-16 -0.005050440638602792 0.99998724644335135
    outer loop
      vertex 83.400000000000006 52.079999999999991 0.15999999999999998
      vertex 83.519999999999996 52.079999999999998 0.15999999999999998
      vertex 83.599999999999994 60 0.20000000000000001
    endloop
  endfacet
  facet normal 0 -0.0050504406386027833 0.99998724644335124
    outer loop
      vertex 83.400000000000006 52.079999999999991 0.15999999999999998
      vertex 83.599999999999994 60 0.20000000000000001
      vertex 83.400000000000006 60 0.20000000000000001
    endloop
  endfacet
  facet normal 0 0 1
    outer loop
      vertex 83.400000000000006 60 0.20000000000000001
      vertex 83.599999999999994 60 0.20000000000000001
      vertex 83.599999999999994 60.200000000000003 0.20000000000000001
    endloop
  endfacet
  facet normal 0 0 1
    outer loop
      vertex 83.400000000000006 60 0.20000000000000001
      vertex 83.599999999999994 60.200000000000003 0.20000000000000001
      vertex 83.400000000000006 60.200000000000003 0.20000000000000001
    endloop
  endfacet
  facet normal 0 0.0025252444736492217 0.99999681156509113
    outer loop
      vertex 83.560000000000002 76.040000000000006 0.15999999999999998
      vertex 83.400000000000006 60.200000000000003 0.20000000000000001
      vertex 83.599999999999994 60.200000000000003 0.20000000000000001
    endloop
  endfacet
  facet normal -0 0.0025252444736492217 0.99999681156509101
    outer loop
      vertex 83.560000000000002 76.040000000000006 0.15999999999999998
      vertex 83.599999999999994 60.200000000000003 0.20000000000000001
      vertex 83.599999999999994 76.040000000000006 0.15999999999999998
    endloop
  endfacet
  facet normal -0 0.0025252444736492217 0.99999681156509101
    outer loop
      vertex 83.400000000000006 76.040000000000006 0.15999999999999998
      vertex 83.400000000000006 60.200000000000003 0.20000000000000001
      vertex 83.560000000000002 76.040000000000006 0.15999999999999998
    endloop
  endfacet
  facet normal 0.66666666666660912 -0.33333333333335641 0.66666666666671281
    outer loop
      vertex 83.599999999999994 10.119999999999999 0.15999999999999998
      vertex 83.640000000000001 10.199999999999999 0.15999999999999998
      vertex 83.599999999999994 10.199999999999999 0.20000000000000001
    endloop
  endfacet
  facet normal 0.70710678118649262 0 0.70710678118660242
    outer loop
      vertex 83.640000000000001 12.16 0.15999999999999998
      vertex 83.599999999999994 10.199999999999999 0.20000000000000001
      vertex 83.640000000000001 10.199999999999999 0.15999999999999998
    endloop
  endfacet
  facet normal 0.70710678118649262 0 0.70710678118660253
    outer loop
      vertex 83.599999999999994 10.199999999999999 0.20000000000000001
      vertex 83.640000000000001 12.160000000000002 0.15999999999999998
      vertex 83.640000000000001 20 0.15999999999999998
    endloop
  endfacet
  facet normal 0.70710678118649251 -0 0.70710678118660242
    outer loop
      vertex 83.599999999999994 10.199999999999999 0.20000000000000001
      vertex 83.640000000000001 20 0.15999999999999998
      vertex 83.599999999999994 20 0.20000000000000001
    endloop
  endfacet
  facet normal 0.70710678118649251 0 0.70710678118660242
    outer loop
      vertex 83.640000000000001 20.039999999999999 0.15999999999999998
      vertex 83.599999999999994 20 0.20000000000000001
      vertex 83.640000000000001 20 0.15999999999999998
    endloop
  endfacet
  facet normal 0.40824829046380862 0.40824829046388117 0.81649658092774424
    outer loop
      vertex 83.599999999999994 20.079999999999998 0.15999999999999998
      vertex 83.599999999999994 20 0.20000000000000001
      vertex 83.640000000000001 20.039999999999999 0.15999999999999998
    endloop
  endfacet
  facet normal 0.70710227208016707 -0.0035712235963650347 0.70710227208027698
    outer loop
      vertex 83.599999999999994 52.079999999999991 0.15999999999999998
      vertex 83.640000000000001 60 0.15999999999999998
      vertex 83.599999999999994 60 0.20000000000000001
    endloop
  endfacet
  facet normal 0.70710678118649251 0 0.70710678118660242
    outer loop
      vertex 83.640000000000001 60.039999999999999 0.15999999999999998
      vertex 83.599999999999994 60 0.20000000000000001
      vertex 83.640000000000001 60 0.15999999999999998
    endloop
  endfacet
  facet normal 0.70710678118649273 0 0.70710678118660253
    outer loop
      vertex 83.599999999999994 60 0.20000000000000001
      vertex 83.640000000000001 60.039999999999999 0.15999999999999998
      vertex 83.640000000000001 60.200000000000003 0.15999999999999998
    endloop
  endfacet
  facet normal 0.70710678118649262 -0 0.70710678118660242
    outer loop
      vertex 83.599999999999994 60 0.20000000000000001
      vertex 83.640000000000001 60.200000000000003 0.15999999999999998
      vertex 83.599999999999994 60.200000000000003 0.20000000000000001
    endloop
  endfacet
  facet normal 0.70710678118649262 0 0.70710678118660253
    outer loop
      vertex 83.640000000000001 64.160000000000011 0.15999999999999998
      vertex 83.599999999999994 60.200000000000003 0.20000000000000001
      vertex 83.640000000000001 60.200000000000003 0.15999999999999998
    endloop
  endfacet
  facet normal 0.59999877563882698 0.002020197897774145 0.79999836751856079
    outer loop
      vertex 83.599999999999994 76.040000000000006 0.15999999999999998
      vertex 83.599999999999994 60.200000000000003 0.20000000000000001
      vertex 83.640000000000001 64.160000000000011 0.15999999999999998
    endloop
  endfacet
  facet normal -0.70710678118649262 0 0.70710678118660253
    outer loop
      vertex 89.359999999999999 -84.160000000000011 0.15999999999999998
      vertex 89.359999999999999 -100 0.15999999999999998
      vertex 89.400000000000006 -100 0.20000000000000001
    endloop
  endfacet
  facet normal -0.70710678118649251 0 0.70710678118660242
    outer loop
      vertex 89.359999999999999 -84.160000000000011 0.15999999999999998
      vertex 89.400000000000006 -100 0.20000000000000001
      vertex 89.400000000000006 -80.200000000000003 0.20000000000000001
    endloop
  endfacet
  facet normal -0.70710678118649262 0 0.70710678118660253
    outer loop
      vertex 89.359999999999999 -84.160000000000011 0.15999999999999998
      vertex 89.400000000000006 -80.200000000000003 0.20000000000000001
      vertex 89.359999999999999 -80.200000000000003 0.15999999999999998
    endloop
  endfacet
  facet normal -0.66666666666660745 0.33333333333336296 0.66666666666671104
    outer loop
      vertex 89.359999999999999 -80.200000000000003 0.15999999999999998
      vertex 89.400000000000006 -80.200000000000003 0.20000000000000001
      vertex 89.400000000000006 -80.120000000000005 0.15999999999999998
    endloop
  endfacet
  facet normal 0 0 1
    outer loop
      vertex 89.400000000000006 -100 0.20000000000000001
      vertex 89.599999999999994 -100 0.20000000000000001
      vertex 89.599999999999994 -80.200000000000003 0.20000000000000001
    endloop
  endfacet
  facet normal 0 0 1
    outer loop
      vertex 89.400000000000006 -100 0.20000000000000001
      vertex 89.599999999999994 -80.200000000000003 0.20000000000000001
      vertex 89.400000000000006 -80.200000000000003 0.20000000000000001
    endloop
  endfacet
  facet normal 0 0.44721359549996587 0.89442719099991197
    outer loop
      vertex 89.480000000000004 -80.120000000000005 0.15999999999999998
      vertex 89.400000000000006 -80.200000000000003 0.20000000000000001
      vertex 89.599999999999994 -80.200000000000003 0.20000000000000001
    endloop
  endfacet
  facet normal -0 0.44721359549996587 0.89442719099991186
    outer loop
      vertex 89.480000000000004 -80.120000000000005 0.15999999999999998
      vertex 89.599999999999994 -80.200000000000003 0.20000000000000001
      vertex 89.599999999999994 -80.120000000000005 0.15999999999999998
    endloop
  endfacet
  facet normal -0 0.44721359549996587 0.89442719099991186
    outer loop
      vertex 89.400000000000006 -80.120000000000005 0.15999999999999998
      vertex 89.400000000000006 -80.200000000000003 0.20000000000000001
      vertex 89.480000000000004 -80.120000000000005 0.15999999999999998
    endloop
  endfacet
  facet normal 0.70710678118649262 0 0.70710678118660253
    outer loop
      vertex 89.640000000000001 -96.039999999999992 0.15999999999999998
      vertex 89.599999999999994 -100 0.20000000000000001
      vertex 89.640000000000001 -100 0.15999999999999998
    endloop
  endfacet
  facet normal 0.70710678118649262 0 0.70710678118660253
    outer loop
      vertex 89.599999999999994 -100 0.20000000000000001
      vertex 89.640000000000001 -96.039999999999992 0.15999999999999998
      vertex 89.640000000000001 -80.200000000000003 0.15999999999999998
    endloop
  endfacet
  facet normal 0.70710678118649251 -0 0.70710678118660242
    outer loop
      vertex 89.599999999999994 -100 0.20000000000000001
      vertex 89.640000000000001 -80.200000000000003 0.15999999999999998
      vertex 89.599999999999994 -80.200000000000003 0.20000000000000001
    endloop
  endfacet
  facet normal 0.70710678118649251 0 0.70710678118660242
    outer loop
      vertex 89.640000000000001 -80.159999999999997 0.15999999999999998
      vertex 89.599999999999994 -80.200000000000003 0.20000000000000001
      vertex 89.640000000000001 -80.200000000000003 0.15999999999999998
    endloop
  endfacet
  facet normal 0.40824829046374811 0.40824829046389322 0.81649658092776822
    outer loop
      vertex 89.599999999999994 -80.120000000000005 0.15999999999999998
      vertex 89.599999999999994 -80.200000000000003 0.20000000000000001
      vertex 89.640000000000001 -80.159999999999997 0.15999999999999998
    endloop
  endfacet
endsolid terrain_band_10
