solid terrain_band_5
  facet normal -0.4472135955000292 0 0.89442719099988033
    outer loop
      vertex 150.19999999999999 -40 0.10000000000000001
      vertex 150.16 -44 0.080000000000000002
      vertex 150.16 -60 0.080000000000000002
    endloop
  endfacet
  facet normal -0.4472135955000292 0 0.89442719099988033
    outer loop
      vertex 150.19999999999999 -40 0.10000000000000001
      vertex 150.16 -60 0.080000000000000002
      vertex 150.19999999999999 -60 0.10000000000000001
    endloop
  endfacet
  facet normal -0.4472135955000292 0 0.89442719099988033
    outer loop
      vertex 150.16 -44 0.080000000000000002
      vertex 150.19999999999999 -40 0.10000000000000001
      vertex 150.16 -40 0.080000000000000002
    endloop
  endfacet
  facet normal -0.4472135955000292 0 0.89442719099988033
    outer loop
      vertex 150.19999999999999 -20 0.10000000000000001
      vertex 150.16 -24 0.080000000000000002
      vertex 150.16 -40 0.080000000000000002
    endloop
  endfacet
  facet normal -0.4472135955000292 0 0.89442719099988033
    outer loop
      vertex 150.19999999999999 -20 0.10000000000000001
      vertex 150.16 -40 0.080000000000000002
      vertex 150.19999999999999 -40 0.10000000000000001
    endloop
  endfacet
  facet normal -0.4472135955000292 0 0.89442719099988033
    outer loop
      vertex 150.16 -24 0.080000000000000002
      vertex 150.19999999999999 -20 0.10000000000000001
      vertex 150.16 -20 0.080000000000000002
    endloop
  endfacet
  facet normal -0.4472135955000292 0 0.89442719099988033
    outer loop
      vertex 150.19999999999999 -10 0.10000000000000001
      vertex 150.16 -12 0.080000000000000002
      vertex 150.16 -20 0.080000000000000002
    endloop
  endfacet
  facet normal -0.4472135955000292 0 0.89442719099988033
    outer loop
      vertex 150.19999999999999 -10 0.10000000000000001
      vertex 150.16 -20 0.080000000000000002
      vertex 150.19999999999999 -20 0.10000000000000001
    endloop
  endfacet
  facet normal -0.4472135955000292 0 0.89442719099988033
    outer loop
      vertex 150.16 -12 0.080000000000000002
      vertex 150.19999999999999 -10 0.10000000000000001
      vertex 150.16 -10 0.080000000000000002
    endloop
  endfacet
  facet normal -0.4472135955000292 0 0.89442719099988033
    outer loop
      vertex 150.19999999999999 0 0.10000000000000001
      vertex 150.16 -2.0000000000000004 0.080000000000000002
      vertex 150.16 -10 0.080000000000000002
    endloop
  endfacet
  facet normal -0.4472135955000292 0 0.89442719099988033
    outer loop
      vertex 150.19999999999999 0 0.10000000000000001
      vertex 150.16 -10 0.080000000000000002
      vertex 150.19999999999999 -10 0.10000000000000001
    endloop
  endfacet
  facet normal -0.44721359550002915 0 0.89442719099988022
    outer loop
      vertex 150.16 -2.0000000000000009 0.080000000000000002
      vertex 150.19999999999999 0 0.10000000000000001
      vertex 150.16 0 0.080000000000000002
    endloop
  endfacet
  facet normal -0.4472135955000292 0 0.89442719099988022
    outer loop
      vertex 150.19999999999999 0.001 0.10000000000000001
      vertex 150.16 0.00079999999999999993 0.080000000000000002
      vertex 150.16 0 0.080000000000000002
    endloop
  endfacet
  facet normal -0.4472135955000292 0 0.89442719099988022
    outer loop
      vertex 150.19999999999999 0.001 0.10000000000000001
      vertex 150.16 0 0.080000000000000002
      vertex 150.19999999999999 0 0.10000000000000001
    endloop
  endfacet
  facet normal -0.44721359550002915 0 0.89442719099988022
    outer loop
      vertex 150.16 0.00079999999999999993 0.080000000000000002
      vertex 150.19999999999999 0.001 0.10000000000000001
      vertex 150.16 0.001 0.080000000000000002
    endloop
  endfacet
  facet normal -0.4472135955000292 0 0.89442719099988033
    outer loop
      vertex 150.19999999999999 10 0.10000000000000001
      vertex 150.16 8.0001999999999995 0.080000000000000002
      vertex 150.16 0.001 0.080000000000000002
    endloop
  endfacet
  facet normal -0.4472135955000292 0 0.89442719099988022
    outer loop
      vertex 150.19999999999999 10 0.10000000000000001
      vertex 150.16 0.001 0.080000000000000002
      vertex 150.19999999999999 0.001 0.10000000000000001
    endloop
  endfacet
  facet normal -0.4472135955000292 0 0.89442719099988033
    outer loop
      vertex 150.16 8.0001999999999995 0.080000000000000002
      vertex 150.19999999999999 10 0.10000000000000001
      vertex 150.16 10 0.080000000000000002
    endloop
  endfacet
  facet normal -0.4472135955000292 0 0.89442719099988033
    outer loop
      vertex 150.19999999999999 20 0.10000000000000001
      vertex 150.16 18 0.080000000000000002
      vertex 150.16 10 0.080000000000000002
    endloop
  endfacet
  facet normal -0.4472135955000292 0 0.89442719099988033
    outer loop
      vertex 150.19999999999999 20 0.10000000000000001
      vertex 150.16 10 0.080000000000000002
      vertex 150.19999999999999 10 0.10000000000000001
    endloop
  endfacet
  facet normal -0.4472135955000292 0 0.89442719099988033
    outer loop
      vertex 150.16 18 0.080000000000000002
      vertex 150.19999999999999 20 0.10000000000000001
      vertex 150.16 20 0.080000000000000002
    endloop
  endfacet
  facet normal -0.4472135955000292 0 0.89442719099988033
    outer loop
      vertex 150.19999999999999 40 0.10000000000000001
      vertex 150.16 36 0.080000000000000002
      vertex 150.16 20 0.080000000000000002
    endloop
  endfacet
  facet normal -0.4472135955000292 0 0.89442719099988033
    outer loop
      vertex 150.19999999999999 40 0.10000000000000001
      vertex 150.16 20 0.080000000000000002
      vertex 150.19999999999999 20 0.10000000000000001
    endloop
  endfacet
  facet normal -0.4472135955000292 0 0.89442719099988033
    outer loop
      vertex 150.16 36 0.080000000000000002
      vertex 150.19999999999999 40 0.10000000000000001
      vertex 150.16 40 0.080000000000000002
    endloop
  endfacet
  facet normal -0.4472135955000292 0 0.89442719099988033
    outer loop
      vertex 150.19999999999999 60 0.10000000000000001
      vertex 150.16 56 0.080000000000000002
      vertex 150.16 40 0.080000000000000002
    endloop
  endfacet
  facet normal -0.4472135955000292 0 0.89442719099988033
    outer loop
      vertex 150.19999999999999 60 0.10000000000000001
      vertex 150.16 40 0.080000000000000002
      vertex 150.19999999999999 40 0.10000000000000001
    endloop
  endfacet
  facet normal -0.4472135955000292 0 0.89442719099988033
    outer loop
      vertex 150.16 56 0.080000000000000002
      vertex 150.19999999999999 60 0.10000000000000001
      vertex 150.16 60 0.080000000000000002
    endloop
  endfacet
  facet normal 0.4472135955000292 0 0.89442719099988033
    outer loop
      vertex 150.84 -56 0.080000000000000002
      vertex 150.80000000000001 -60 0.10000000000000001
      vertex 150.84 -60 0.080000000000000002
    endloop
  endfacet
  facet normal 0.4472135955000292 0 0.89442719099988033
    outer loop
      vertex 150.80000000000001 -60 0.10000000000000001
      vertex 150.84 -56 0.080000000000000002
      vertex 150.84 -40 0.080000000000000002
    endloop
  endfacet
  facet normal 0.4472135955000292 -0 0.89442719099988033
    outer loop
      vertex 150.80000000000001 -60 0.10000000000000001
      vertex 150.84 -40 0.080000000000000002
      vertex 150.80000000000001 -40 0.10000000000000001
    endloop
  endfacet
  facet normal 0.4472135955000292 0 0.89442719099988033
    outer loop
      vertex 150.84 -36 0.080000000000000002
      vertex 150.80000000000001 -40 0.10000000000000001
      vertex 150.84 -40 0.080000000000000002
    endloop
  endfacet
  facet normal 0.4472135955000292 0 0.89442719099988033
    outer loop
      vertex 150.80000000000001 -40 0.10000000000000001
      vertex 150.84 -36 0.080000000000000002
      vertex 150.84 -20 0.080000000000000002
    endloop
  endfacet
  facet normal 0.4472135955000292 -0 0.89442719099988033
    outer loop
      vertex 150.80000000000001 -40 0.10000000000000001
      vertex 150.84 -20 0.080000000000000002
      vertex 150.80000000000001 -20 0.10000000000000001
    endloop
  endfacet
  facet normal 0.4472135955000292 0 0.89442719099988033
    outer loop
      vertex 150.84 -18 0.080000000000000002
      vertex 150.80000000000001 -20 0.10000000000000001
      vertex 150.84 -20 0.080000000000000002
    endloop
  endfacet
  facet normal 0.4472135955000292 0 0.89442719099988033
    outer loop
      vertex 150.80000000000001 -20 0.10000000000000001
      vertex 150.84 -18 0.080000000000000002
      vertex 150.84 -10 0.080000000000000002
    endloop
  endfacet
  facet normal 0.4472135955000292 -0 0.89442719099988033
    outer loop
      vertex 150.80000000000001 -20 0.10000000000000001
      vertex 150.84 -10 0.080000000000000002
      vertex 150.80000000000001 -10 0.10000000000000001
    endloop
  endfacet
  facet normal 0.44721359550002915 0 0.89442719099988022
    outer loop
      vertex 150.84 -7.9999999999999991 0.080000000000000002
      vertex 150.80000000000001 -10 0.10000000000000001
      vertex 150.84 -10 0.080000000000000002
    endloop
  endfacet
  facet normal 0.4472135955000292 0 0.89442719099988033
    outer loop
      vertex 150.80000000000001 -10 0.10000000000000001
      vertex 150.84 -8 0.080000000000000002
      vertex 150.84 0 0.080000000000000002
    endloop
  endfacet
  facet normal 0.4472135955000292 -0 0.89442719099988033
    outer loop
      vertex 150.80000000000001 -10 0.10000000000000001
      vertex 150.84 0 0.080000000000000002
      vertex 150.80000000000001 0 0.10000000000000001
    endloop
  endfacet
  facet normal 0.44721359550002915 0 0.89442719099988022
    outer loop
      vertex 150.84 0.00020000000000000009 0.080000000000000002
      vertex 150.80000000000001 0 0.10000000000000001
      vertex 150.84 0 0.080000000000000002
    endloop
  endfacet
  facet normal 0.4472135955000292 0 0.89442719099988022
    outer loop
      vertex 150.80000000000001 0 0.10000000000000001
      vertex 150.84 0.00020000000000000004 0.080000000000000002
      vertex 150.84 0.001 0.080000000000000002
    endloop
  endfacet
  facet normal 0.4472135955000292 -0 0.89442719099988022
    outer loop
      vertex 150.80000000000001 0 0.10000000000000001
      vertex 150.84 0.001 0.080000000000000002
      vertex 150.80000000000001 0.001 0.10000000000000001
    endloop
  endfacet
  facet normal 0.4472135955000292 0 0.89442719099988033
    outer loop
      vertex 150.84 2.0007999999999999 0.080000000000000002
      vertex 150.80000000000001 0.001 0.10000000000000001
      vertex 150.84 0.001 0.080000000000000002
    endloop
  endfacet
  facet normal 0.4472135955000292 0 0.89442719099988033
    outer loop
      vertex 150.80000000000001 0.001 0.10000000000000001
      vertex 150.84 2.0008000000000004 0.080000000000000002
      vertex 150.84 10 0.080000000000000002
    endloop
  endfacet
  facet normal 0.4472135955000292 -0 0.89442719099988022
    outer loop
      vertex 150.80000000000001 0.001 0.10000000000000001
      vertex 150.84 10 0.080000000000000002
      vertex 150.80000000000001 10 0.10000000000000001
    endloop
  endfacet
  facet normal 0.4472135955000292 0 0.89442719099988033
    outer loop
      vertex 150.84 12 0.080000000000000002
      vertex 150.80000000000001 10 0.10000000000000001
      vertex 150.84 10 0.080000000000000002
    endloop
  endfacet
  facet normal 0.4472135955000292 0 0.89442719099988033
    outer loop
      vertex 150.80000000000001 10 0.10000000000000001
      vertex 150.84 12 0.080000000000000002
      vertex 150.84 20 0.080000000000000002
    endloop
  endfacet
  facet normal 0.4472135955000292 -0 0.89442719099988033
    outer loop
      vertex 150.80000000000001 10 0.10000000000000001
      vertex 150.84 20 0.080000000000000002
      vertex 150.80000000000001 20 0.10000000000000001
    endloop
  endfacet
  facet normal 0.4472135955000292 0 0.89442719099988033
    outer loop
      vertex 150.84 24 0.080000000000000002
      vertex 150.80000000000001 20 0.10000000000000001
      vertex 150.84 20 0.080000000000000002
    endloop
  endfacet
  facet normal 0.4472135955000292 0 0.89442719099988033
    outer loop
      vertex 150.80000000000001 20 0.10000000000000001
      vertex 150.84 24 0.080000000000000002
      vertex 150.84 40 0.080000000000000002
    endloop
  endfacet
  facet normal 0.4472135955000292 -0 0.89442719099988033
    outer loop
      vertex 150.80000000000001 20 0.10000000000000001
      vertex 150.84 40 0.080000000000000002
      vertex 150.80000000000001 40 0.10000000000000001
    endloop
  endfacet
  facet normal 0.4472135955000292 0 0.89442719099988033
    outer loop
      vertex 150.84 44 0.080000000000000002
      vertex 150.80000000000001 40 0.10000000000000001
      vertex 150.84 40 0.080000000000000002
    endloop
  endfacet
  facet normal 0.4472135955000292 0 0.89442719099988033
    outer loop
      vertex 150.80000000000001 40 0.10000000000000001
      vertex 150.84 44 0.080000000000000002
      vertex 150.84 60 0.080000000000000002
    endloop
  endfacet
  facet normal 0.4472135955000292 -0 0.89442719099988033
    outer loop
      vertex 150.80000000000001 40 0.10000000000000001
      vertex 150.84 60 0.080000000000000002
      vertex 150.80000000000001 60 0.10000000000000001
    endloop
  endfacet
  facet normal -0.4472135955000292 0 0.89442719099988033
    outer loop
      vertex 175.19999999999999 -40 0.10000000000000001
      vertex 175.16 -44 0.080000000000000002
      vertex 175.16 -60 0.080000000000000002
    endloop
  endfacet
  facet normal -0.4472135955000292 0 0.89442719099988033
    outer loop
      vertex 175.19999999999999 -40 0.10000000000000001
      vertex 175.16 -60 0.080000000000000002
      vertex 175.19999999999999 -60 0.10000000000000001
    endloop
  endfacet
  facet normal -0.4472135955000292 0 0.89442719099988033
    outer loop
      vertex 175.16 -44 0.080000000000000002
      vertex 175.19999999999999 -40 0.10000000000000001
      vertex 175.16 -40 0.080000000000000002
    endloop
  endfacet
  facet normal -0.4472135955000292 0 0.89442719099988033
    outer loop
      vertex 175.19999999999999 -20 0.10000000000000001
      vertex 175.16 -24 0.080000000000000002
      vertex 175.16 -40 0.080000000000000002
    endloop
  endfacet
  facet normal -0.4472135955000292 0 0.89442719099988033
    outer loop
      vertex 175.19999999999999 -20 0.10000000000000001
      vertex 175.16 -40 0.080000000000000002
      vertex 175.19999999999999 -40 0.10000000000000001
    endloop
  endfacet
  facet normal -0.4472135955000292 0 0.89442719099988033
    outer loop
      vertex 175.16 -24 0.080000000000000002
      vertex 175.19999999999999 -20 0.10000000000000001
      vertex 175.16 -20 0.080000000000000002
    endloop
  endfacet
  facet normal -0.4472135955000292 0 0.89442719099988033
    outer loop
      vertex 175.19999999999999 -10 0.10000000000000001
      vertex 175.16 -12 0.080000000000000002
      vertex 175.16 -20 0.080000000000000002
    endloop
  endfacet
  facet normal -0.4472135955000292 0 0.89442719099988033
    outer loop
      vertex 175.19999999999999 -10 0.10000000000000001
      vertex 175.16 -20 0.080000000000000002
      vertex 175.19999999999999 -20 0.10000000000000001
    endloop
  endfacet
  facet normal -0.4472135955000292 0 0.89442719099988033
    outer loop
      vertex 175.16 -12 0.080000000000000002
      vertex 175.19999999999999 -10 0.10000000000000001
      vertex 175.16 -10 0.080000000000000002
    endloop
  endfacet
  facet normal -0.4472135955000292 0 0.89442719099988033
    outer loop
      vertex 175.19999999999999 0 0.10000000000000001
      vertex 175.16 -2.0000000000000004 0.080000000000000002
      vertex 175.16 -10 0.080000000000000002
    endloop
  endfacet
  facet normal -0.4472135955000292 0 0.89442719099988033
    outer loop
      vertex 175.19999999999999 0 0.10000000000000001
      vertex 175.16 -10 0.080000000000000002
      vertex 175.19999999999999 -10 0.10000000000000001
    endloop
  endfacet
  facet normal -0.44721359550002915 0 0.89442719099988022
    outer loop
      vertex 175.16 -2.0000000000000009 0.080000000000000002
      vertex 175.19999999999999 0 0.10000000000000001
      vertex 175.16 0 0.080000000000000002
    endloop
  endfacet
  facet normal -0.4472135955000292 0 0.89442719099988022
    outer loop
      vertex 175.19999999999999 0.001 0.10000000000000001
      vertex 175.16 0.00079999999999999993 0.080000000000000002
      vertex 175.16 0 0.080000000000000002
    endloop
  endfacet
  facet normal -0.4472135955000292 0 0.89442719099988022
    outer loop
      vertex 175.19999999999999 0.001 0.10000000000000001
      vertex 175.16 0 0.080000000000000002
      vertex 175.19999999999999 0 0.10000000000000001
    endloop
  endfacet
  facet normal -0.44721359550002915 0 0.89442719099988022
    outer loop
      vertex 175.16 0.00079999999999999993 0.080000000000000002
      vertex 175.19999999999999 0.001 0.10000000000000001
      vertex 175.16 0.001 0.080000000000000002
    endloop
  endfacet
  facet normal -0.4472135955000292 0 0.89442719099988033
    outer loop
      vertex 175.19999999999999 10 0.10000000000000001
      vertex 175.16 8.0001999999999995 0.080000000000000002
      vertex 175.16 0.001 0.080000000000000002
    endloop
  endfacet
  facet normal -0.4472135955000292 0 0.89442719099988022
    outer loop
      vertex 175.19999999999999 10 0.10000000000000001
      vertex 175.16 0.001 0.080000000000000002
      vertex 175.19999999999999 0.001 0.10000000000000001
    endloop
  endfacet
  facet normal -0.4472135955000292 0 0.89442719099988033
    outer loop
      vertex 175.16 8.0001999999999995 0.080000000000000002
      vertex 175.19999999999999 10 0.10000000000000001
      vertex 175.16 10 0.080000000000000002
    endloop
  endfacet
  facet normal -0.4472135955000292 0 0.89442719099988033
    outer loop
      vertex 175.19999999999999 20 0.10000000000000001
      vertex 175.16 18 0.080000000000000002
      vertex 175.16 10 0.080000000000000002
    endloop
  endfacet
  facet normal -0.4472135955000292 0 0.89442719099988033
    outer loop
      vertex 175.19999999999999 20 0.10000000000000001
      vertex 175.16 10 0.080000000000000002
      vertex 175.19999999999999 10 0.10000000000000001
    endloop
  endfacet
  facet normal -0.4472135955000292 0 0.89442719099988033
    outer loop
      vertex 175.16 18 0.080000000000000002
      vertex 175.19999999999999 20 0.10000000000000001
      vertex 175.16 20 0.080000000000000002
    endloop
  endfacet
  facet normal -0.4472135955000292 0 0.89442719099988033
    outer loop
      vertex 175.19999999999999 40 0.10000000000000001
      vertex 175.16 36 0.080000000000000002
      vertex 175.16 20 0.080000000000000002
    endloop
  endfacet
  facet normal -0.4472135955000292 0 0.89442719099988033
    outer loop
      vertex 175.19999999999999 40 0.10000000000000001
      vertex 175.16 20 0.080000000000000002
      vertex 175.19999999999999 20 0.10000000000000001
    endloop
  endfacet
  facet normal -0.4472135955000292 0 0.89442719099988033
    outer loop
      vertex 175.16 36 0.080000000000000002
      vertex 175.19999999999999 40 0.10000000000000001
      vertex 175.16 40 0.080000000000000002
    endloop
  endfacet
  facet normal -0.4472135955000292 0 0.89442719099988033
    outer loop
      vertex 175.19999999999999 60 0.10000000000000001
      vertex 175.16 56 0.080000000000000002
      vertex 175.16 40 0.080000000000000002
    endloop
  endfacet
  facet normal -0.4472135955000292 0 0.89442719099988033
    outer loop
      vertex 175.19999999999999 60 0.10000000000000001
      vertex 175.16 40 0.080000000000000002
      vertex 175.19999999999999 40 0.10000000000000001
    endloop
  endfacet
  facet normal -0.4472135955000292 0 0.89442719099988033
    outer loop
      vertex 175.16 56 0.080000000000000002
      vertex 175.19999999999999 60 0.10000000000000001
      vertex 175.16 60 0.080000000000000002
    endloop
  endfacet
  facet normal 0.4472135955000292 0 0.89442719099988033
    outer loop
      vertex 177.84 -56 0.080000000000000002
      vertex 177.80000000000001 -60 0.10000000000000001
      vertex 177.84 -60 0.080000000000000002
    endloop
  endfacet
  facet normal 0.4472135955000292 0 0.89442719099988033
    outer loop
      vertex 177.80000000000001 -60 0.10000000000000001
      vertex 177.84 -56 0.080000000000000002
      vertex 177.84 -40 0.080000000000000002
    endloop
  endfacet
  facet normal 0.4472135955000292 -0 0.89442719099988033
    outer loop
      vertex 177.80000000000001 -60 0.10000000000000001
      vertex 177.84 -40 0.080000000000000002
      vertex 177.80000000000001 -40 0.10000000000000001
    endloop
  endfacet
  facet normal 0.4472135955000292 0 0.89442719099988033
    outer loop
      vertex 177.84 -36 0.080000000000000002
      vertex 177.80000000000001 -40 0.10000000000000001
      vertex 177.84 -40 0.080000000000000002
    endloop
  endfacet
  facet normal 0.4472135955000292 0 0.89442719099988033
    outer loop
      vertex 177.80000000000001 -40 0.10000000000000001
      vertex 177.84 -36 0.080000000000000002
      vertex 177.84 -20 0.080000000000000002
    endloop
  endfacet
  facet normal 0.4472135955000292 -0 0.89442719099988033
    outer loop
      vertex 177.80000000000001 -40 0.10000000000000001
      vertex 177.84 -20 0.080000000000000002
      vertex 177.80000000000001 -20 0.10000000000000001
    endloop
  endfacet
  facet normal 0.4472135955000292 0 0.89442719099988033
    outer loop
      vertex 177.84 -18 0.080000000000000002
      vertex 177.80000000000001 -20 0.10000000000000001
      vertex 177.84 -20 0.080000000000000002
    endloop
  endfacet
  facet normal 0.4472135955000292 0 0.89442719099988033
    outer loop
      vertex 177.80000000000001 -20 0.10000000000000001
      vertex 177.84 -18 0.080000000000000002
      vertex 177.84 -10 0.080000000000000002
    endloop
  endfacet
  facet normal 0.4472135955000292 -0 0.89442719099988033
    outer loop
      vertex 177.80000000000001 -20 0.10000000000000001
      vertex 177.84 -10 0.080000000000000002
      vertex 177.80000000000001 -10 0.10000000000000001
    endloop
  endfacet
  facet normal 0.44721359550002915 0 0.89442719099988022
    outer loop
      vertex 177.84 -7.9999999999999991 0.080000000000000002
      vertex 177.80000000000001 -10 0.10000000000000001
      vertex 177.84 -10 0.080000000000000002
    endloop
  endfacet
  facet normal 0.4472135955000292 0 0.89442719099988033
    outer loop
      vertex 177.80000000000001 -10 0.10000000000000001
      vertex 177.84 -8 0.080000000000000002
      vertex 177.84 0 0.080000000000000002
    endloop
  endfacet
  facet normal 0.4472135955000292 -0 0.89442719099988033
    outer loop
      vertex 177.80000000000001 -10 0.10000000000000001
      vertex 177.84 0 0.080000000000000002
      vertex 177.80000000000001 0 0.10000000000000001
    endloop
  endfacet
  facet normal 0.44721359550002915 0 0.89442719099988022
    outer loop
      vertex 177.84 0.00020000000000000009 0.080000000000000002
      vertex 177.80000000000001 0 0.10000000000000001
      vertex 177.84 0 0.080000000000000002
    endloop
  endfacet
  facet normal 0.4472135955000292 0 0.89442719099988022
    outer loop
      vertex 177.80000000000001 0 0.10000000000000001
      vertex 177.84 0.00020000000000000004 0.080000000000000002
      vertex 177.84 0.001 0.080000000000000002
    endloop
  endfacet
  facet normal 0.4472135955000292 -0 0.89442719099988022
    outer loop
      vertex 177.80000000000001 0 0.10000000000000001
      vertex 177.84 0.001 0.080000000000000002
      vertex 177.80000000000001 0.001 0.10000000000000001
    endloop
  endfacet
  facet normal 0.4472135955000292 0 0.89442719099988033
    outer loop
      vertex 177.84 2.0007999999999999 0.080000000000000002
      vertex 177.80000000000001 0.001 0.10000000000000001
      vertex 177.84 0.001 0.080000000000000002
    endloop
  endfacet
  facet normal 0.4472135955000292 0 0.89442719099988033
    outer loop
      vertex 177.80000000000001 0.001 0.10000000000000001
      vertex 177.84 2.0008000000000004 0.080000000000000002
      vertex 177.84 10 0.080000000000000002
    endloop
  endfacet
  facet normal 0.4472135955000292 -0 0.89442719099988022
    outer loop
      vertex 177.80000000000001 0.001 0.10000000000000001
      vertex 177.84 10 0.080000000000000002
      vertex 177.80000000000001 10 0.10000000000000001
    endloop
  endfacet
  facet normal 0.4472135955000292 0 0.89442719099988033
    outer loop
      vertex 177.84 12 0.080000000000000002
      vertex 177.80000000000001 10 0.10000000000000001
      vertex 177.84 10 0.080000000000000002
    endloop
  endfacet
  facet normal 0.4472135955000292 0 0.89442719099988033
    outer loop
      vertex 177.80000000000001 10 0.10000000000000001
      vertex 177.84 12 0.080000000000000002
      vertex 177.84 20 0.080000000000000002
    endloop
  endfacet
  facet normal 0.4472135955000292 -0 0.89442719099988033
    outer loop
      vertex 177.80000000000001 10 0.10000000000000001
      vertex 177.84 20 0.080000000000000002
      vertex 177.80000000000001 20 0.10000000000000001
    endloop
  endfacet
  facet normal 0.4472135955000292 0 0.89442719099988033
    outer loop
      vertex 177.84 24 0.080000000000000002
      vertex 177.80000000000001 20 0.10000000000000001
      vertex 177.84 20 0.080000000000000002
    endloop
  endfacet
  facet normal 0.4472135955000292 0 0.89442719099988033
    outer loop
      vertex 177.80000000000001 20 0.10000000000000001
      vertex 177.84 24 0.080000000000000002
      vertex 177.84 40 0.080000000000000002
    endloop
  endfacet
  facet normal 0.4472135955000292 -0 0.89442719099988033
    outer loop
      vertex 177.80000000000001 20 0.10000000000000001
      vertex 177.84 40 0.080000000000000002
      vertex 177.80000000000001 40 0.10000000000000001
    endloop
  endfacet
  facet normal 0.4472135955000292 0 0.89442719099988033
    outer loop
      vertex 177.84 44 0.080000000000000002
      vertex 177.80000000000001 40 0.10000000000000001
      vertex 177.84 40 0.080000000000000002
    endloop
  endfacet
  facet normal 0.4472135955000292 0 0.89442719099988033
    outer loop
      vertex 177.80000000000001 40 0.10000000000000001
      vertex 177.84 44 0.080000000000000002
      vertex 177.84 60 0.080000000000000002
    endloop
  endfacet
  facet normal 0.4472135955000292 -0 0.89442719099988033
    outer loop
      vertex 177.80000000000001 40 0.10000000000000001
      vertex 177.84 60 0.080000000000000002
      vertex 177.80000000000001 60 0.10000000000000001
    endloop
  endfacet
endsolid terrain_band_5
