solid terrain_band_4
  facet normal -0.44721359549996537 0 0.89442719099991208
    outer loop
      vertex 50.160000000000004 -44 0.080000000000000002
      vertex 50.120000000000005 -48 0.060000000000000012
      vertex 50.120000000000005 -60 0.060000000000000012
    endloop
  endfacet
  facet normal -0.44721359549996537 0 0.89442719099991208
    outer loop
      vertex 50.160000000000004 -44 0.080000000000000002
      vertex 50.120000000000005 -60 0.060000000000000012
      vertex 50.160000000000004 -60 0.080000000000000002
    endloop
  endfacet
  facet normal -0.44721359549996537 0 0.89442719099991208
    outer loop
      vertex 50.120000000000005 -48 0.060000000000000012
      vertex 50.160000000000004 -44 0.080000000000000002
      vertex 50.160000000000004 -40 0.080000000000000002
    endloop
  endfacet
  facet normal -0.44721359549996537 0 0.89442719099991208
    outer loop
      vertex 50.120000000000005 -48 0.060000000000000012
      vertex 50.160000000000004 -40 0.080000000000000002
      vertex 50.120000000000005 -40 0.060000000000000012
    endloop
  endfacet
  facet normal -0.44721359549996537 0 0.89442719099991208
    outer loop
      vertex 50.160000000000004 -24 0.080000000000000002
      vertex 50.120000000000005 -28 0.060000000000000012
      vertex 50.120000000000005 -40 0.060000000000000012
    endloop
  endfacet
  facet normal -0.44721359549996537 0 0.89442719099991208
    outer loop
      vertex 50.160000000000004 -24 0.080000000000000002
      vertex 50.120000000000005 -40 0.060000000000000012
      vertex 50.160000000000004 -40 0.080000000000000002
    endloop
  endfacet
  facet normal -0.44721359549996537 0 0.89442719099991208
    outer loop
      vertex 50.120000000000005 -28 0.060000000000000012
      vertex 50.160000000000004 -24 0.080000000000000002
      vertex 50.160000000000004 -20 0.080000000000000002
    endloop
  endfacet
  facet normal -0.44721359549996537 0 0.89442719099991208
    outer loop
      vertex 50.120000000000005 -28 0.060000000000000012
      vertex 50.160000000000004 -20 0.080000000000000002
      vertex 50.120000000000005 -20 0.060000000000000012
    endloop
  endfacet
  facet normal -0.44721359549996537 0 0.89442719099991208
    outer loop
      vertex 50.160000000000004 -12 0.080000000000000002
      vertex 50.120000000000005 -14 0.060000000000000012
      vertex 50.120000000000005 -20 0.060000000000000012
    endloop
  endfacet
  facet normal -0.44721359549996537 0 0.89442719099991208
    outer loop
      vertex 50.160000000000004 -12 0.080000000000000002
      vertex 50.120000000000005 -20 0.060000000000000012
      vertex 50.160000000000004 -20 0.080000000000000002
    endloop
  endfacet
  facet normal -0.44721359549996537 0 0.89442719099991208
    outer loop
      vertex 50.120000000000005 -14 0.060000000000000012
      vertex 50.160000000000004 -12 0.080000000000000002
      vertex 50.160000000000004 -10 0.080000000000000002
    endloop
  endfacet
  facet normal -0.44721359549996537 0 0.89442719099991208
    outer loop
      vertex 50.120000000000005 -14 0.060000000000000012
      vertex 50.160000000000004 -10 0.080000000000000002
      vertex 50.120000000000005 -10 0.060000000000000012
    endloop
  endfacet
  facet normal -0.44721359549996537 0 0.89442719099991219
    outer loop
      vertex 50.160000000000004 -2.0000000000000004 0.080000000000000002
      vertex 50.120000000000005 -3.9999999999999991 0.060000000000000012
      vertex 50.120000000000005 -10 0.060000000000000012
    endloop
  endfacet
  facet normal -0.44721359549996537 0 0.89442719099991208
    outer loop
      vertex 50.160000000000004 -2.0000000000000004 0.080000000000000002
      vertex 50.120000000000005 -10 0.060000000000000012
      vertex 50.160000000000004 -10 0.080000000000000002
    endloop
  endfacet
  facet normal -0.44721359549996537 0 0.89442719099991208
    outer loop
      vertex 50.120000000000005 -3.9999999999999991 0.060000000000000012
      vertex 50.160000000000004 -2 0.080000000000000002
      vertex 50.160000000000004 0 0.080000000000000002
    endloop
  endfacet
  facet normal -0.44721359549996542 0 0.89442719099991219
    outer loop
      vertex 50.120000000000005 -3.9999999999999991 0.060000000000000012
      vertex 50.160000000000004 0 0.080000000000000002
      vertex 50.120000000000005 0 0.060000000000000012
    endloop
  endfacet
  facet normal -0.44721359549996537 0 0.89442719099991219
    outer loop
      vertex 50.160000000000004 0.00079999999999999993 0.080000000000000002
      vertex 50.120000000000005 0.00060000000000000006 0.060000000000000012
      vertex 50.120000000000005 0 0.060000000000000012
    endloop
  endfacet
  facet normal -0.44721359549996537 0 0.89442719099991219
    outer loop
      vertex 50.160000000000004 0.00079999999999999993 0.080000000000000002
      vertex 50.120000000000005 0 0.060000000000000012
      vertex 50.160000000000004 0 0.080000000000000002
    endloop
  endfacet
  facet normal -0.44721359549996531 0 0.89442719099991208
    outer loop
      vertex 50.120000000000005 0.00060000000000000006 0.060000000000000012
      vertex 50.160000000000004 0.00079999999999999993 0.080000000000000002
      vertex 50.160000000000004 0.001 0.080000000000000002
    endloop
  endfacet
  facet normal -0.44721359549996537 0 0.89442719099991219
    outer loop
      vertex 50.120000000000005 0.00060000000000000006 0.060000000000000012
      vertex 50.160000000000004 0.001 0.080000000000000002
      vertex 50.120000000000005 0.001 0.060000000000000012
    endloop
  endfacet
  facet normal -0.44721359549996537 0 0.89442719099991208
    outer loop
      vertex 50.160000000000004 8.0001999999999995 0.080000000000000002
      vertex 50.120000000000005 6.0004000000000008 0.060000000000000012
      vertex 50.120000000000005 0.001 0.060000000000000012
    endloop
  endfacet
  facet normal -0.44721359549996542 0 0.89442719099991219
    outer loop
      vertex 50.160000000000004 8.0001999999999995 0.080000000000000002
      vertex 50.120000000000005 0.001 0.060000000000000012
      vertex 50.160000000000004 0.001 0.080000000000000002
    endloop
  endfacet
  facet normal -0.44721359549996542 0 0.89442719099991219
    outer loop
      vertex 50.120000000000005 6.0004000000000017 0.060000000000000012
      vertex 50.160000000000004 8.0001999999999995 0.080000000000000002
      vertex 50.160000000000004 10 0.080000000000000002
    endloop
  endfacet
  facet normal -0.44721359549996537 0 0.89442719099991219
    outer loop
      vertex 50.120000000000005 6.0004000000000017 0.060000000000000012
      vertex 50.160000000000004 10 0.080000000000000002
      vertex 50.120000000000005 10 0.060000000000000012
    endloop
  endfacet
  facet normal -0.44721359549996537 0 0.89442719099991208
    outer loop
      vertex 50.160000000000004 18 0.080000000000000002
      vertex 50.120000000000005 16 0.060000000000000012
      vertex 50.120000000000005 10 0.060000000000000012
    endloop
  endfacet
  facet normal -0.44721359549996537 0 0.89442719099991208
    outer loop
      vertex 50.160000000000004 18 0.080000000000000002
      vertex 50.120000000000005 10 0.060000000000000012
      vertex 50.160000000000004 10 0.080000000000000002
    endloop
  endfacet
  facet normal -0.44721359549996537 0 0.89442719099991208
    outer loop
      vertex 50.120000000000005 16 0.060000000000000012
      vertex 50.160000000000004 18 0.080000000000000002
      vertex 50.160000000000004 20 0.080000000000000002
    endloop
  endfacet
  facet normal -0.44721359549996537 0 0.89442719099991208
    outer loop
      vertex 50.120000000000005 16 0.060000000000000012
      vertex 50.160000000000004 20 0.080000000000000002
      vertex 50.120000000000005 20 0.060000000000000012
    endloop
  endfacet
  facet normal -0.44721359549996537 0 0.89442719099991208
    outer loop
      vertex 50.160000000000004 36 0.080000000000000002
      vertex 50.120000000000005 32 0.060000000000000012
      vertex 50.120000000000005 20 0.060000000000000012
    endloop
  endfacet
  facet normal -0.44721359549996537 0 0.89442719099991208
    outer loop
      vertex 50.160000000000004 36 0.080000000000000002
      vertex 50.120000000000005 20 0.060000000000000012
      vertex 50.160000000000004 20 0.080000000000000002
    endloop
  endfacet
  facet normal -0.44721359549996537 0 0.89442719099991208
    outer loop
      vertex 50.120000000000005 32 0.060000000000000012
      vertex 50.160000000000004 36 0.080000000000000002
      vertex 50.160000000000004 40 0.080000000000000002
    endloop
  endfacet
  facet normal -0.44721359549996537 0 0.89442719099991208
    outer loop
      vertex 50.120000000000005 32 0.060000000000000012
      vertex 50.160000000000004 40 0.080000000000000002
      vertex 50.120000000000005 40 0.060000000000000012
    endloop
  endfacet
  facet normal -0.44721359549996537 0 0.89442719099991208
    outer loop
      vertex 50.160000000000004 56 0.080000000000000002
      vertex 50.120000000000005 52 0.060000000000000012
      vertex 50.120000000000005 40 0.060000000000000012
    endloop
  endfacet
  facet normal -0.44721359549996537 0 0.89442719099991208
    outer loop
      vertex 50.160000000000004 56 0.080000000000000002
      vertex 50.120000000000005 40 0.060000000000000012
      vertex 50.160000000000004 40 0.080000000000000002
    endloop
  endfacet
  facet normal -0.44721359549996537 0 0.89442719099991208
    outer loop
      vertex 50.120000000000005 52 0.060000000000000012
      vertex 50.160000000000004 56 0.080000000000000002
      vertex 50.160000000000004 60 0.080000000000000002
    endloop
  endfacet
  facet normal -0.44721359549996537 0 0.89442719099991208
    outer loop
      vertex 50.120000000000005 52 0.060000000000000012
      vertex 50.160000000000004 60 0.080000000000000002
      vertex 50.120000000000005 60 0.060000000000000012
    endloop
  endfacet
  facet normal 0.44721359549996537 0 0.89442719099991208
    outer loop
      vertex 50.879999999999995 -52 0.060000000000000012
      vertex 50.839999999999996 -56 0.080000000000000002
      vertex 50.839999999999996 -60 0.080000000000000002
    endloop
  endfacet
  facet normal 0.44721359549996537 0 0.89442719099991208
    outer loop
      vertex 50.879999999999995 -52 0.060000000000000012
      vertex 50.839999999999996 -60 0.080000000000000002
      vertex 50.879999999999995 -60 0.060000000000000012
    endloop
  endfacet
  facet normal 0.44721359549996537 0 0.89442719099991208
    outer loop
      vertex 50.839999999999996 -56 0.080000000000000002
      vertex 50.879999999999995 -52 0.060000000000000012
      vertex 50.879999999999995 -40 0.060000000000000012
    endloop
  endfacet
  facet normal 0.44721359549996537 -0 0.89442719099991208
    outer loop
      vertex 50.839999999999996 -56 0.080000000000000002
      vertex 50.879999999999995 -40 0.060000000000000012
      vertex 50.839999999999996 -40 0.080000000000000002
    endloop
  endfacet
  facet normal 0.44721359549996537 0 0.89442719099991208
    outer loop
      vertex 50.879999999999995 -32 0.060000000000000012
      vertex 50.839999999999996 -36 0.080000000000000002
      vertex 50.839999999999996 -40 0.080000000000000002
    endloop
  endfacet
  facet normal 0.44721359549996537 0 0.89442719099991208
    outer loop
      vertex 50.879999999999995 -32 0.060000000000000012
      vertex 50.839999999999996 -40 0.080000000000000002
      vertex 50.879999999999995 -40 0.060000000000000012
    endloop
  endfacet
  facet normal 0.44721359549996537 0 0.89442719099991208
    outer loop
      vertex 50.839999999999996 -36 0.080000000000000002
      vertex 50.879999999999995 -32 0.060000000000000012
      vertex 50.879999999999995 -20 0.060000000000000012
    endloop
  endfacet
  facet normal 0.44721359549996537 -0 0.89442719099991208
    outer loop
      vertex 50.839999999999996 -36 0.080000000000000002
      vertex 50.879999999999995 -20 0.060000000000000012
      vertex 50.839999999999996 -20 0.080000000000000002
    endloop
  endfacet
  facet normal 0.44721359549996537 0 0.89442719099991208
    outer loop
      vertex 50.879999999999995 -16 0.060000000000000012
      vertex 50.839999999999996 -18 0.080000000000000002
      vertex 50.839999999999996 -20 0.080000000000000002
    endloop
  endfacet
  facet normal 0.44721359549996537 0 0.89442719099991208
    outer loop
      vertex 50.879999999999995 -16 0.060000000000000012
      vertex 50.839999999999996 -20 0.080000000000000002
      vertex 50.879999999999995 -20 0.060000000000000012
    endloop
  endfacet
  facet normal 0.44721359549996537 0 0.89442719099991208
    outer loop
      vertex 50.839999999999996 -18 0.080000000000000002
      vertex 50.879999999999995 -16 0.060000000000000012
      vertex 50.879999999999995 -10 0.060000000000000012
    endloop
  endfacet
  facet normal 0.44721359549996537 -0 0.89442719099991208
    outer loop
      vertex 50.839999999999996 -18 0.080000000000000002
      vertex 50.879999999999995 -10 0.060000000000000012
      vertex 50.839999999999996 -10 0.080000000000000002
    endloop
  endfacet
  facet normal 0.44721359549996537 0 0.89442719099991208
    outer loop
      vertex 50.879999999999995 -6.0000000000000009 0.060000000000000012
      vertex 50.839999999999996 -8 0.080000000000000002
      vertex 50.839999999999996 -10 0.080000000000000002
    endloop
  endfacet
  facet normal 0.44721359549996542 0 0.89442719099991219
    outer loop
      vertex 50.879999999999995 -6.0000000000000009 0.060000000000000012
      vertex 50.839999999999996 -10 0.080000000000000002
      vertex 50.879999999999995 -10 0.060000000000000012
    endloop
  endfacet
  facet normal 0.44721359549996537 0 0.89442719099991219
    outer loop
      vertex 50.839999999999996 -8 0.080000000000000002
      vertex 50.879999999999995 -6.0000000000000009 0.060000000000000012
      vertex 50.879999999999995 0 0.060000000000000012
    endloop
  endfacet
  facet normal 0.44721359549996537 -0 0.89442719099991208
    outer loop
      vertex 50.839999999999996 -8 0.080000000000000002
      vertex 50.879999999999995 0 0.060000000000000012
      vertex 50.839999999999996 0 0.080000000000000002
    endloop
  endfacet
  facet normal 0.44721359549996537 0 0.89442719099991219
    outer loop
      vertex 50.879999999999995 0.00039999999999999996 0.060000000000000012
      vertex 50.839999999999996 0.00020000000000000004 0.080000000000000002
      vertex 50.839999999999996 0 0.080000000000000002
    endloop
  endfacet
  facet normal 0.44721359549996537 0 0.89442719099991219
    outer loop
      vertex 50.879999999999995 0.00039999999999999996 0.060000000000000012
      vertex 50.839999999999996 0 0.080000000000000002
      vertex 50.879999999999995 0 0.060000000000000012
    endloop
  endfacet
  facet normal 0.44721359549996537 0 0.89442719099991219
    outer loop
      vertex 50.839999999999996 0.00020000000000000004 0.080000000000000002
      vertex 50.879999999999995 0.00039999999999999991 0.060000000000000012
      vertex 50.879999999999995 0.001 0.060000000000000012
    endloop
  endfacet
  facet normal 0.44721359549996537 -0 0.89442719099991219
    outer loop
      vertex 50.839999999999996 0.00020000000000000004 0.080000000000000002
      vertex 50.879999999999995 0.001 0.060000000000000012
      vertex 50.839999999999996 0.001 0.080000000000000002
    endloop
  endfacet
  facet normal 0.44721359549996542 0 0.89442719099991219
    outer loop
      vertex 50.879999999999995 4.0005999999999986 0.060000000000000012
      vertex 50.839999999999996 2.0007999999999999 0.080000000000000002
      vertex 50.839999999999996 0.001 0.080000000000000002
    endloop
  endfacet
  facet normal 0.44721359549996542 0 0.89442719099991219
    outer loop
      vertex 50.879999999999995 4.0005999999999986 0.060000000000000012
      vertex 50.839999999999996 0.001 0.080000000000000002
      vertex 50.879999999999995 0.001 0.060000000000000012
    endloop
  endfacet
  facet normal 0.44721359549996537 0 0.89442719099991208
    outer loop
      vertex 50.839999999999996 2.0008000000000008 0.080000000000000002
      vertex 50.879999999999995 4.0005999999999995 0.060000000000000012
      vertex 50.879999999999995 10 0.060000000000000012
    endloop
  endfacet
  facet normal 0.44721359549996542 -0 0.89442719099991219
    outer loop
      vertex 50.839999999999996 2.0008000000000008 0.080000000000000002
      vertex 50.879999999999995 10 0.060000000000000012
      vertex 50.839999999999996 10 0.080000000000000002
    endloop
  endfacet
  facet normal 0.44721359549996537 0 0.89442719099991208
    outer loop
      vertex 50.879999999999995 14 0.060000000000000012
      vertex 50.839999999999996 12 0.080000000000000002
      vertex 50.839999999999996 10 0.080000000000000002
    endloop
  endfacet
  facet normal 0.44721359549996537 0 0.89442719099991208
    outer loop
      vertex 50.879999999999995 14 0.060000000000000012
      vertex 50.839999999999996 10 0.080000000000000002
      vertex 50.879999999999995 10 0.060000000000000012
    endloop
  endfacet
  facet normal 0.44721359549996537 0 0.89442719099991208
    outer loop
      vertex 50.839999999999996 12 0.080000000000000002
      vertex 50.879999999999995 14 0.060000000000000012
      vertex 50.879999999999995 20 0.060000000000000012
    endloop
  endfacet
  facet normal 0.44721359549996537 -0 0.89442719099991208
    outer loop
      vertex 50.839999999999996 12 0.080000000000000002
      vertex 50.879999999999995 20 0.060000000000000012
      vertex 50.839999999999996 20 0.080000000000000002
    endloop
  endfacet
  facet normal 0.44721359549996537 0 0.89442719099991208
    outer loop
      vertex 50.879999999999995 28 0.060000000000000012
      vertex 50.839999999999996 24 0.080000000000000002
      vertex 50.839999999999996 20 0.080000000000000002
    endloop
  endfacet
  facet normal 0.44721359549996537 0 0.89442719099991208
    outer loop
      vertex 50.879999999999995 28 0.060000000000000012
      vertex 50.839999999999996 20 0.080000000000000002
      vertex 50.879999999999995 20 0.060000000000000012
    endloop
  endfacet
  facet normal 0.44721359549996537 0 0.89442719099991208
    outer loop
      vertex 50.839999999999996 24 0.080000000000000002
      vertex 50.879999999999995 28 0.060000000000000012
      vertex 50.879999999999995 40 0.060000000000000012
    endloop
  endfacet
  facet normal 0.44721359549996537 -0 0.89442719099991208
    outer loop
      vertex 50.839999999999996 24 0.080000000000000002
      vertex 50.879999999999995 40 0.060000000000000012
      vertex 50.839999999999996 40 0.080000000000000002
    endloop
  endfacet
  facet normal 0.44721359549996537 0 0.89442719099991208
    outer loop
      vertex 50.879999999999995 48 0.060000000000000012
      vertex 50.839999999999996 44 0.080000000000000002
      vertex 50.839999999999996 40 0.080000000000000002
    endloop
  endfacet
  facet normal 0.44721359549996537 0 0.89442719099991208
    outer loop
      vertex 50.879999999999995 48 0.060000000000000012
      vertex 50.839999999999996 40 0.080000000000000002
      vertex 50.879999999999995 40 0.060000000000000012
    endloop
  endfacet
  facet normal 0.44721359549996537 0 0.89442719099991208
    outer loop
      vertex 50.839999999999996 44 0.080000000000000002
      vertex 50.879999999999995 48 0.060000000000000012
      vertex 50.879999999999995 60 0.060000000000000012
    endloop
  endfacet
  facet normal 0.44721359549996537 -0 0.89442719099991208
    outer loop
      vertex 50.839999999999996 44 0.080000000000000002
      vertex 50.879999999999995 60 0.060000000000000012
      vertex 50.839999999999996 60 0.080000000000000002
    endloop
  endfacet
  facet normal -0.44721359550002893 0 0.89442719099988033
    outer loop
      vertex 75.159999999999997 -44 0.080000000000000002
      vertex 75.120000000000005 -48 0.060000000000000012
      vertex 75.120000000000005 -60 0.060000000000000012
    endloop
  endfacet
  facet normal -0.44721359550002893 0 0.89442719099988033
    outer loop
      vertex 75.159999999999997 -44 0.080000000000000002
      vertex 75.120000000000005 -60 0.060000000000000012
      vertex 75.159999999999997 -60 0.080000000000000002
    endloop
  endfacet
  facet normal -0.44721359550002893 0 0.89442719099988033
    outer loop
      vertex 75.120000000000005 -48 0.060000000000000012
      vertex 75.159999999999997 -44 0.080000000000000002
      vertex 75.159999999999997 -40 0.080000000000000002
    endloop
  endfacet
  facet normal -0.44721359550002893 0 0.89442719099988033
    outer loop
      vertex 75.120000000000005 -48 0.060000000000000012
      vertex 75.159999999999997 -40 0.080000000000000002
      vertex 75.120000000000005 -40 0.060000000000000012
    endloop
  endfacet
  facet normal -0.44721359550002893 0 0.89442719099988033
    outer loop
      vertex 75.159999999999997 -24 0.080000000000000002
      vertex 75.120000000000005 -28 0.060000000000000012
      vertex 75.120000000000005 -40 0.060000000000000012
    endloop
  endfacet
  facet normal -0.44721359550002893 0 0.89442719099988033
    outer loop
      vertex 75.159999999999997 -24 0.080000000000000002
      vertex 75.120000000000005 -40 0.060000000000000012
      vertex 75.159999999999997 -40 0.080000000000000002
    endloop
  endfacet
  facet normal -0.44721359550002893 0 0.89442719099988033
    outer loop
      vertex 75.120000000000005 -28 0.060000000000000012
      vertex 75.159999999999997 -24 0.080000000000000002
      vertex 75.159999999999997 -20 0.080000000000000002
    endloop
  endfacet
  facet normal -0.44721359550002893 0 0.89442719099988033
    outer loop
      vertex 75.120000000000005 -28 0.060000000000000012
      vertex 75.159999999999997 -20 0.080000000000000002
      vertex 75.120000000000005 -20 0.060000000000000012
    endloop
  endfacet
  facet normal -0.44721359550002893 0 0.89442719099988033
    outer loop
      vertex 75.159999999999997 -12 0.080000000000000002
      vertex 75.120000000000005 -14 0.060000000000000012
      vertex 75.120000000000005 -20 0.060000000000000012
    endloop
  endfacet
  facet normal -0.44721359550002893 0 0.89442719099988033
    outer loop
      vertex 75.159999999999997 -12 0.080000000000000002
      vertex 75.120000000000005 -20 0.060000000000000012
      vertex 75.159999999999997 -20 0.080000000000000002
    endloop
  endfacet
  facet normal -0.44721359550002893 0 0.89442719099988033
    outer loop
      vertex 75.120000000000005 -14 0.060000000000000012
      vertex 75.159999999999997 -12 0.080000000000000002
      vertex 75.159999999999997 -10 0.080000000000000002
    endloop
  endfacet
  facet normal -0.44721359550002893 0 0.89442719099988033
    outer loop
      vertex 75.120000000000005 -14 0.060000000000000012
      vertex 75.159999999999997 -10 0.080000000000000002
      vertex 75.120000000000005 -10 0.060000000000000012
    endloop
  endfacet
  facet normal -0.44721359550002893 0 0.89442719099988033
    outer loop
      vertex 75.159999999999997 -2.0000000000000004 0.080000000000000002
      vertex 75.120000000000005 -3.9999999999999991 0.060000000000000012
      vertex 75.120000000000005 -10 0.060000000000000012
    endloop
  endfacet
  facet normal -0.44721359550002893 0 0.89442719099988033
    outer loop
      vertex 75.159999999999997 -2.0000000000000004 0.080000000000000002
      vertex 75.120000000000005 -10 0.060000000000000012
      vertex 75.159999999999997 -10 0.080000000000000002
    endloop
  endfacet
  facet normal -0.44721359550002898 0 0.89442719099988044
    outer loop
      vertex 75.120000000000005 -3.9999999999999991 0.060000000000000012
      vertex 75.159999999999997 -2 0.080000000000000002
      vertex 75.159999999999997 0 0.080000000000000002
    endloop
  endfacet
  facet normal -0.44721359550002898 0 0.89442719099988044
    outer loop
      vertex 75.120000000000005 -3.9999999999999991 0.060000000000000012
      vertex 75.159999999999997 0 0.080000000000000002
      vertex 75.120000000000005 0 0.060000000000000012
    endloop
  endfacet
  facet normal -0.44721359550002898 0 0.89442719099988044
    outer loop
      vertex 75.159999999999997 0.00079999999999999993 0.080000000000000002
      vertex 75.120000000000005 0.00060000000000000006 0.060000000000000012
      vertex 75.120000000000005 0 0.060000000000000012
    endloop
  endfacet
  facet normal -0.44721359550002893 0 0.89442719099988033
    outer loop
      vertex 75.159999999999997 0.00079999999999999993 0.080000000000000002
      vertex 75.120000000000005 0 0.060000000000000012
      vertex 75.159999999999997 0 0.080000000000000002
    endloop
  endfacet
  facet normal -0.44721359550002893 0 0.89442719099988033
    outer loop
      vertex 75.120000000000005 0.00060000000000000006 0.060000000000000012
      vertex 75.159999999999997 0.00079999999999999993 0.080000000000000002
      vertex 75.159999999999997 0.001 0.080000000000000002
    endloop
  endfacet
  facet normal -0.44721359550002893 0 0.89442719099988033
    outer loop
      vertex 75.120000000000005 0.00060000000000000006 0.060000000000000012
      vertex 75.159999999999997 0.001 0.080000000000000002
      vertex 75.120000000000005 0.001 0.060000000000000012
    endloop
  endfacet
  facet normal -0.44721359550002893 0 0.89442719099988033
    outer loop
      vertex 75.159999999999997 8.0001999999999995 0.080000000000000002
      vertex 75.120000000000005 6.0004000000000008 0.060000000000000012
      vertex 75.120000000000005 0.001 0.060000000000000012
    endloop
  endfacet
  facet normal -0.44721359550002898 0 0.89442719099988044
    outer loop
      vertex 75.159999999999997 8.0001999999999995 0.080000000000000002
      vertex 75.120000000000005 0.001 0.060000000000000012
      vertex 75.159999999999997 0.001 0.080000000000000002
    endloop
  endfacet
  facet normal -0.44721359550002898 0 0.89442719099988044
    outer loop
      vertex 75.120000000000005 6.0004000000000017 0.060000000000000012
      vertex 75.159999999999997 8.0001999999999995 0.080000000000000002
      vertex 75.159999999999997 10 0.080000000000000002
    endloop
  endfacet
  facet normal -0.44721359550002893 0 0.89442719099988044
    outer loop
      vertex 75.120000000000005 6.0004000000000017 0.060000000000000012
      vertex 75.159999999999997 10 0.080000000000000002
      vertex 75.120000000000005 10 0.060000000000000012
    endloop
  endfacet
  facet normal -0.44721359550002893 0 0.89442719099988033
    outer loop
      vertex 75.159999999999997 18 0.080000000000000002
      vertex 75.120000000000005 16 0.060000000000000012
      vertex 75.120000000000005 10 0.060000000000000012
    endloop
  endfacet
  facet normal -0.44721359550002893 0 0.89442719099988033
    outer loop
      vertex 75.159999999999997 18 0.080000000000000002
      vertex 75.120000000000005 10 0.060000000000000012
      vertex 75.159999999999997 10 0.080000000000000002
    endloop
  endfacet
  facet normal -0.44721359550002893 0 0.89442719099988033
    outer loop
      vertex 75.120000000000005 16 0.060000000000000012
      vertex 75.159999999999997 18 0.080000000000000002
      vertex 75.159999999999997 20 0.080000000000000002
    endloop
  endfacet
  facet normal -0.44721359550002893 0 0.89442719099988033
    outer loop
      vertex 75.120000000000005 16 0.060000000000000012
      vertex 75.159999999999997 20 0.080000000000000002
      vertex 75.120000000000005 20 0.060000000000000012
    endloop
  endfacet
  facet normal -0.44721359550002893 0 0.89442719099988033
    outer loop
      vertex 75.159999999999997 36 0.080000000000000002
      vertex 75.120000000000005 32 0.060000000000000012
      vertex 75.120000000000005 20 0.060000000000000012
    endloop
  endfacet
  facet normal -0.44721359550002893 0 0.89442719099988033
    outer loop
      vertex 75.159999999999997 36 0.080000000000000002
      vertex 75.120000000000005 20 0.060000000000000012
      vertex 75.159999999999997 20 0.080000000000000002
    endloop
  endfacet
  facet normal -0.44721359550002893 0 0.89442719099988033
    outer loop
      vertex 75.120000000000005 32 0.060000000000000012
      vertex 75.159999999999997 36 0.080000000000000002
      vertex 75.159999999999997 40 0.080000000000000002
    endloop
  endfacet
  facet normal -0.44721359550002893 0 0.89442719099988033
    outer loop
      vertex 75.120000000000005 32 0.060000000000000012
      vertex 75.159999999999997 40 0.080000000000000002
      vertex 75.120000000000005 40 0.060000000000000012
    endloop
  endfacet
  facet normal -0.44721359550002893 0 0.89442719099988033
    outer loop
      vertex 75.159999999999997 56 0.080000000000000002
      vertex 75.120000000000005 52 0.060000000000000012
      vertex 75.120000000000005 40 0.060000000000000012
    endloop
  endfacet
  facet normal -0.44721359550002893 0 0.89442719099988033
    outer loop
      vertex 75.159999999999997 56 0.080000000000000002
      vertex 75.120000000000005 40 0.060000000000000012
      vertex 75.159999999999997 40 0.080000000000000002
    endloop
  endfacet
  facet normal -0.44721359550002893 0 0.89442719099988033
    outer loop
      vertex 75.120000000000005 52 0.060000000000000012
      vertex 75.159999999999997 56 0.080000000000000002
      vertex 75.159999999999997 60 0.080000000000000002
    endloop
  endfacet
  facet normal -0.44721359550002893 0 0.89442719099988033
    outer loop
      vertex 75.120000000000005 52 0.060000000000000012
      vertex 75.159999999999997 60 0.080000000000000002
      vertex 75.120000000000005 60 0.060000000000000012
    endloop
  endfacet
  facet normal 0.44721359550002893 0 0.89442719099988033
    outer loop
      vertex 77.879999999999995 -52 0.060000000000000012
      vertex 77.840000000000003 -56 0.080000000000000002
      vertex 77.840000000000003 -60 0.080000000000000002
    endloop
  endfacet
  facet normal 0.44721359550002893 0 0.89442719099988033
    outer loop
      vertex 77.879999999999995 -52 0.060000000000000012
      vertex 77.840000000000003 -60 0.080000000000000002
      vertex 77.879999999999995 -60 0.060000000000000012
    endloop
  endfacet
  facet normal 0.44721359550002893 0 0.89442719099988033
    outer loop
      vertex 77.840000000000003 -56 0.080000000000000002
      vertex 77.879999999999995 -52 0.060000000000000012
      vertex 77.879999999999995 -40 0.060000000000000012
    endloop
  endfacet
  facet normal 0.44721359550002893 -0 0.89442719099988033
    outer loop
      vertex 77.840000000000003 -56 0.080000000000000002
      vertex 77.879999999999995 -40 0.060000000000000012
      vertex 77.840000000000003 -40 0.080000000000000002
    endloop
  endfacet
  facet normal 0.44721359550002893 0 0.89442719099988033
    outer loop
      vertex 77.879999999999995 -32 0.060000000000000012
      vertex 77.840000000000003 -36 0.080000000000000002
      vertex 77.840000000000003 -40 0.080000000000000002
    endloop
  endfacet
  facet normal 0.44721359550002893 0 0.89442719099988033
    outer loop
      vertex 77.879999999999995 -32 0.060000000000000012
      vertex 77.840000000000003 -40 0.080000000000000002
      vertex 77.879999999999995 -40 0.060000000000000012
    endloop
  endfacet
  facet normal 0.44721359550002893 0 0.89442719099988033
    outer loop
      vertex 77.840000000000003 -36 0.080000000000000002
      vertex 77.879999999999995 -32 0.060000000000000012
      vertex 77.879999999999995 -20 0.060000000000000012
    endloop
  endfacet
  facet normal 0.44721359550002893 -0 0.89442719099988033
    outer loop
      vertex 77.840000000000003 -36 0.080000000000000002
      vertex 77.879999999999995 -20 0.060000000000000012
      vertex 77.840000000000003 -20 0.080000000000000002
    endloop
  endfacet
  facet normal 0.44721359550002893 0 0.89442719099988033
    outer loop
      vertex 77.879999999999995 -16 0.060000000000000012
      vertex 77.840000000000003 -18 0.080000000000000002
      vertex 77.840000000000003 -20 0.080000000000000002
    endloop
  endfacet
  facet normal 0.44721359550002893 0 0.89442719099988033
    outer loop
      vertex 77.879999999999995 -16 0.060000000000000012
      vertex 77.840000000000003 -20 0.080000000000000002
      vertex 77.879999999999995 -20 0.060000000000000012
    endloop
  endfacet
  facet normal 0.44721359550002893 0 0.89442719099988033
    outer loop
      vertex 77.840000000000003 -18 0.080000000000000002
      vertex 77.879999999999995 -16 0.060000000000000012
      vertex 77.879999999999995 -10 0.060000000000000012
    endloop
  endfacet
  facet normal 0.44721359550002893 -0 0.89442719099988033
    outer loop
      vertex 77.840000000000003 -18 0.080000000000000002
      vertex 77.879999999999995 -10 0.060000000000000012
      vertex 77.840000000000003 -10 0.080000000000000002
    endloop
  endfacet
  facet normal 0.44721359550002898 0 0.89442719099988044
    outer loop
      vertex 77.879999999999995 -6.0000000000000009 0.060000000000000012
      vertex 77.840000000000003 -8 0.080000000000000002
      vertex 77.840000000000003 -10 0.080000000000000002
    endloop
  endfacet
  facet normal 0.44721359550002898 0 0.89442719099988044
    outer loop
      vertex 77.879999999999995 -6.0000000000000009 0.060000000000000012
      vertex 77.840000000000003 -10 0.080000000000000002
      vertex 77.879999999999995 -10 0.060000000000000012
    endloop
  endfacet
  facet normal 0.44721359550002893 0 0.89442719099988033
    outer loop
      vertex 77.840000000000003 -8 0.080000000000000002
      vertex 77.879999999999995 -6.0000000000000009 0.060000000000000012
      vertex 77.879999999999995 0 0.060000000000000012
    endloop
  endfacet
  facet normal 0.44721359550002893 -0 0.89442719099988033
    outer loop
      vertex 77.840000000000003 -8 0.080000000000000002
      vertex 77.879999999999995 0 0.060000000000000012
      vertex 77.840000000000003 0 0.080000000000000002
    endloop
  endfacet
  facet normal 0.44721359550002893 0 0.89442719099988033
    outer loop
      vertex 77.879999999999995 0.00039999999999999996 0.060000000000000012
      vertex 77.840000000000003 0.00020000000000000004 0.080000000000000002
      vertex 77.840000000000003 0 0.080000000000000002
    endloop
  endfacet
  facet normal 0.44721359550002893 0 0.89442719099988033
    outer loop
      vertex 77.879999999999995 0.00039999999999999996 0.060000000000000012
      vertex 77.840000000000003 0 0.080000000000000002
      vertex 77.879999999999995 0 0.060000000000000012
    endloop
  endfacet
  facet normal 0.44721359550002898 0 0.89442719099988044
    outer loop
      vertex 77.840000000000003 0.00020000000000000004 0.080000000000000002
      vertex 77.879999999999995 0.00039999999999999991 0.060000000000000012
      vertex 77.879999999999995 0.001 0.060000000000000012
    endloop
  endfacet
  facet normal 0.44721359550002893 -0 0.89442719099988033
    outer loop
      vertex 77.840000000000003 0.00020000000000000004 0.080000000000000002
      vertex 77.879999999999995 0.001 0.060000000000000012
      vertex 77.840000000000003 0.001 0.080000000000000002
    endloop
  endfacet
  facet normal 0.44721359550002893 0 0.89442719099988033
    outer loop
      vertex 77.879999999999995 4.0005999999999986 0.060000000000000012
      vertex 77.840000000000003 2.0007999999999999 0.080000000000000002
      vertex 77.840000000000003 0.001 0.080000000000000002
    endloop
  endfacet
  facet normal 0.44721359550002898 0 0.89442719099988044
    outer loop
      vertex 77.879999999999995 4.0005999999999986 0.060000000000000012
      vertex 77.840000000000003 0.001 0.080000000000000002
      vertex 77.879999999999995 0.001 0.060000000000000012
    endloop
  endfacet
  facet normal 0.44721359550002893 0 0.89442719099988033
    outer loop
      vertex 77.840000000000003 2.0008000000000008 0.080000000000000002
      vertex 77.879999999999995 4.0005999999999995 0.060000000000000012
      vertex 77.879999999999995 10 0.060000000000000012
    endloop
  endfacet
  facet normal 0.44721359550002898 -0 0.89442719099988044
    outer loop
      vertex 77.840000000000003 2.0008000000000008 0.080000000000000002
      vertex 77.879999999999995 10 0.060000000000000012
      vertex 77.840000000000003 10 0.080000000000000002
    endloop
  endfacet
  facet normal 0.44721359550002893 0 0.89442719099988033
    outer loop
      vertex 77.879999999999995 14 0.060000000000000012
      vertex 77.840000000000003 12 0.080000000000000002
      vertex 77.840000000000003 10 0.080000000000000002
    endloop
  endfacet
  facet normal 0.44721359550002893 0 0.89442719099988033
    outer loop
      vertex 77.879999999999995 14 0.060000000000000012
      vertex 77.840000000000003 10 0.080000000000000002
      vertex 77.879999999999995 10 0.060000000000000012
    endloop
  endfacet
  facet normal 0.44721359550002893 0 0.89442719099988033
    outer loop
      vertex 77.840000000000003 12 0.080000000000000002
      vertex 77.879999999999995 14 0.060000000000000012
      vertex 77.879999999999995 20 0.060000000000000012
    endloop
  endfacet
  facet normal 0.44721359550002893 -0 0.89442719099988033
    outer loop
      vertex 77.840000000000003 12 0.080000000000000002
      vertex 77.879999999999995 20 0.060000000000000012
      vertex 77.840000000000003 20 0.080000000000000002
    endloop
  endfacet
  facet normal 0.44721359550002893 0 0.89442719099988033
    outer loop
      vertex 77.879999999999995 28 0.060000000000000012
      vertex 77.840000000000003 24 0.080000000000000002
      vertex 77.840000000000003 20 0.080000000000000002
    endloop
  endfacet
  facet normal 0.44721359550002893 0 0.89442719099988033
    outer loop
      vertex 77.879999999999995 28 0.060000000000000012
      vertex 77.840000000000003 20 0.080000000000000002
      vertex 77.879999999999995 20 0.060000000000000012
    endloop
  endfacet
  facet normal 0.44721359550002893 0 0.89442719099988033
    outer loop
      vertex 77.840000000000003 24 0.080000000000000002
      vertex 77.879999999999995 28 0.060000000000000012
      vertex 77.879999999999995 40 0.060000000000000012
    endloop
  endfacet
  facet normal 0.44721359550002893 -0 0.89442719099988033
    outer loop
      vertex 77.840000000000003 24 0.080000000000000002
      vertex 77.879999999999995 40 0.060000000000000012
      vertex 77.840000000000003 40 0.080000000000000002
    endloop
  endfacet
  facet normal 0.44721359550002893 0 0.89442719099988033
    outer loop
      vertex 77.879999999999995 48 0.060000000000000012
      vertex 77.840000000000003 44 0.080000000000000002
      vertex 77.840000000000003 40 0.080000000000000002
    endloop
  endfacet
  facet normal 0.44721359550002893 0 0.89442719099988033
    outer loop
      vertex 77.879999999999995 48 0.060000000000000012
      vertex 77.840000000000003 40 0.080000000000000002
      vertex 77.879999999999995 40 0.060000000000000012
    endloop
  endfacet
  facet normal 0.44721359550002893 0 0.89442719099988033
    outer loop
      vertex 77.840000000000003 44 0.080000000000000002
      vertex 77.879999999999995 48 0.060000000000000012
      vertex 77.879999999999995 60 0.060000000000000012
    endloop
  endfacet
  facet normal 0.44721359550002893 -0 0.89442719099988033
    outer loop
      vertex 77.840000000000003 44 0.080000000000000002
      vertex 77.879999999999995 60 0.060000000000000012
      vertex 77.840000000000003 60 0.080000000000000002
    endloop
  endfacet
endsolid terrain_band_4
