solid terrain_band_3
  facet normal -0 0.44721359549995793 0.89442719099991586
    outer loop
      vertex 51.359999999999999 0.15999999999999998 -0.079999999999999988
      vertex 51.399999999999999 0.15999999999999998 -0.079999999999999988
      vertex 51.399999999999999 0.20000000000000001 -0.10000000000000001
    endloop
  endfacet
  facet normal 0.44721359549996587 -0 0.89442719099991186
    outer loop
      vertex 51.359999999999999 0.15999999999999998 -0.079999999999999988
      vertex 51.399999999999999 0.20000000000000001 -0.10000000000000001
      vertex 51.359999999999999 0.20000000000000001 -0.079999999999999988
    endloop
  endfacet
  facet normal 0.44721359549996587 0 0.89442719099991197
    outer loop
      vertex 51.359999999999999 8.0399999999999974 -0.079999999999999988
      vertex 51.359999999999999 0.20000000000000001 -0.079999999999999988
      vertex 51.399999999999999 0.20000000000000001 -0.10000000000000001
    endloop
  endfacet
  facet normal 0.44721359549996592 0 0.89442719099991197
    outer loop
      vertex 51.359999999999999 8.0399999999999974 -0.079999999999999988
      vertex 51.399999999999999 0.20000000000000001 -0.10000000000000001
      vertex 51.399999999999999 10 -0.10000000000000001
    endloop
  endfacet
  facet normal 0.44721359549996592 -0 0.89442719099991186
    outer loop
      vertex 51.359999999999999 8.0399999999999991 -0.079999999999999988
      vertex 51.399999999999999 10 -0.10000000000000001
      vertex 51.359999999999999 10 -0.079999999999999988
    endloop
  endfacet
  facet normal 0.43643578047199261 -0.21821789023599147 0.8728715609439659
    outer loop
      vertex 51.359999999999999 10 -0.079999999999999988
      vertex 51.399999999999999 10 -0.10000000000000001
      vertex 51.399999999999999 10.08 -0.079999999999999988
    endloop
  endfacet
  facet normal -0 0.44721359549996587 0.89442719099991186
    outer loop
      vertex 51.359999999999999 40.160000000000004 -0.079999999999999988
      vertex 51.399999999999999 40.160000000000004 -0.079999999999999988
      vertex 51.399999999999999 40.200000000000003 -0.10000000000000001
    endloop
  endfacet
  facet normal 0.44721359549996587 -0 0.89442719099991186
    outer loop
      vertex 51.359999999999999 40.160000000000004 -0.079999999999999988
      vertex 51.399999999999999 40.200000000000003 -0.10000000000000001
      vertex 51.359999999999999 40.200000000000003 -0.079999999999999988
    endloop
  endfacet
  facet normal 0.44721359549996581 0 0.89442719099991197
    outer loop
      vertex 51.359999999999999 56.039999999999999 -0.079999999999999988
      vertex 51.359999999999999 40.200000000000003 -0.079999999999999988
      vertex 51.399999999999999 40.200000000000003 -0.10000000000000001
    endloop
  endfacet
  facet normal 0.44721359549996587 0 0.89442719099991186
    outer loop
      vertex 51.359999999999999 56.039999999999999 -0.079999999999999988
      vertex 51.399999999999999 40.200000000000003 -0.10000000000000001
      vertex 51.399999999999999 60 -0.10000000000000001
    endloop
  endfacet
  facet normal 0.44721359549996592 -0 0.89442719099991197
    outer loop
      vertex 51.359999999999999 56.039999999999999 -0.079999999999999988
      vertex 51.399999999999999 60 -0.10000000000000001
      vertex 51.359999999999999 60 -0.079999999999999988
    endloop
  endfacet
  facet normal 0.43643578047197723 0.21821789023598862 0.87287156094397411
    outer loop
      vertex 51.359999999999999 60.160000000000004 -0.12000000000000001
      vertex 51.306666666666665 60.106666666666669 -0.079999999999999988
      vertex 51.359999999999999 60 -0.079999999999999988
    endloop
  endfacet
  facet normal 0.43643578047199311 0.21821789023598676 0.87287156094396678
    outer loop
      vertex 51.359999999999999 60.160000000000004 -0.12000000000000001
      vertex 51.359999999999999 60 -0.079999999999999988
      vertex 51.399999999999999 60 -0.10000000000000001
    endloop
  endfacet
  facet normal 0.43643578047202325 0.21821789023599225 0.87287156094395035
    outer loop
      vertex 51.359999999999999 60.160000000000004 -0.12000000000000001
      vertex 51.399999999999999 60 -0.10000000000000001
      vertex 51.399999999999999 60.079999999999998 -0.12000000000000001
    endloop
  endfacet
  facet normal 0.59999999999999132 0 0.80000000000000648
    outer loop
      vertex 51.306666666666665 60.106666666666669 -0.079999999999999988
      vertex 51.359999999999999 60.160000000000004 -0.12000000000000001
      vertex 51.359999999999999 60.200000000000003 -0.12000000000000001
    endloop
  endfacet
  facet normal 0.59999999999999132 -0 0.80000000000000659
    outer loop
      vertex 51.306666666666665 60.106666666666669 -0.079999999999999988
      vertex 51.359999999999999 60.200000000000003 -0.12000000000000001
      vertex 51.306666666666665 60.200000000000003 -0.079999999999999988
    endloop
  endfacet
  facet normal 0.59999999999999143 0 0.80000000000000648
    outer loop
      vertex 51.359999999999999 76.040000000000006 -0.12000000000000001
      vertex 51.306666666666665 70.760000000000005 -0.079999999999999988
      vertex 51.306666666666665 60.200000000000003 -0.079999999999999988
    endloop
  endfacet
  facet normal 0.59999999999999132 0 0.80000000000000648
    outer loop
      vertex 51.359999999999999 76.040000000000006 -0.12000000000000001
      vertex 51.306666666666665 60.200000000000003 -0.079999999999999988
      vertex 51.359999999999999 60.200000000000003 -0.12000000000000001
    endloop
  endfacet
  facet normal 0.59999999999999132 0 0.80000000000000659
    outer loop
      vertex 51.306666666666665 70.760000000000005 -0.079999999999999988
      vertex 51.359999999999999 76.040000000000006 -0.12000000000000001
      vertex 51.359999999999999 80 -0.12000000000000001
    endloop
  endfacet
  facet normal 0.59999999999999132 -0 0.80000000000000648
    outer loop
      vertex 51.306666666666665 70.760000000000005 -0.079999999999999988
      vertex 51.359999999999999 80 -0.12000000000000001
      vertex 51.306666666666665 80 -0.079999999999999988
    endloop
  endfacet
  facet normal 0.58834840541455402 0.19611613513816722 0.78446454055273895
    outer loop
      vertex 51.32 80.120000000000005 -0.12000000000000001
      vertex 51.280000000000001 80.079999999999998 -0.079999999999999988
      vertex 51.306666666666665 80 -0.079999999999999988
    endloop
  endfacet
  facet normal 0.58834840541454536 0.19611613513817017 0.78446454055274473
    outer loop
      vertex 51.32 80.120000000000005 -0.12000000000000001
      vertex 51.306666666666665 80 -0.079999999999999988
      vertex 51.359999999999999 80 -0.12000000000000001
    endloop
  endfacet
  facet normal 0.70710678118655523 0 0.7071067811865398
    outer loop
      vertex 51.280000000000001 80.079999999999998 -0.079999999999999988
      vertex 51.32 80.120000000000005 -0.12000000000000001
      vertex 51.32 80.200000000000003 -0.12000000000000001
    endloop
  endfacet
  facet normal 0.70710678118655523 -0 0.7071067811865398
    outer loop
      vertex 51.280000000000001 80.079999999999998 -0.079999999999999988
      vertex 51.32 80.200000000000003 -0.12000000000000001
      vertex 51.280000000000001 80.200000000000003 -0.079999999999999988
    endloop
  endfacet
  facet normal 0.70710678118655523 0 0.70710678118653991
    outer loop
      vertex 51.32 92.079999999999998 -0.12000000000000001
      vertex 51.280000000000001 88.120000000000005 -0.079999999999999988
      vertex 51.280000000000001 80.200000000000003 -0.079999999999999988
    endloop
  endfacet
  facet normal 0.70710678118655523 0 0.7071067811865398
    outer loop
      vertex 51.32 92.079999999999998 -0.12000000000000001
      vertex 51.280000000000001 80.200000000000003 -0.079999999999999988
      vertex 51.32 80.200000000000003 -0.12000000000000001
    endloop
  endfacet
  facet normal 0.70710678118655523 0 0.70710678118653991
    outer loop
      vertex 51.280000000000001 88.120000000000005 -0.079999999999999988
      vertex 51.32 92.079999999999998 -0.12000000000000001
      vertex 51.32 100 -0.12000000000000001
    endloop
  endfacet
  facet normal 0.70710678118655523 -0 0.7071067811865398
    outer loop
      vertex 51.280000000000001 88.120000000000005 -0.079999999999999988
      vertex 51.32 100 -0.12000000000000001
      vertex 51.280000000000001 100 -0.079999999999999988
    endloop
  endfacet
  facet normal -0 0.44721359549995793 0.89442719099991586
    outer loop
      vertex 51.560000000000002 0.15999999999999998 -0.079999999999999988
      vertex 51.600000000000001 0.15999999999999998 -0.079999999999999988
      vertex 51.600000000000001 0.20000000000000001 -0.10000000000000001
    endloop
  endfacet
  facet normal -0 0.44721359549995793 0.89442719099991586
    outer loop
      vertex 51.399999999999999 0.15999999999999998 -0.079999999999999988
      vertex 51.560000000000002 0.15999999999999998 -0.079999999999999988
      vertex 51.600000000000001 0.20000000000000001 -0.10000000000000001
    endloop
  endfacet
  facet normal 0 0.44721359549995793 0.89442719099991586
    outer loop
      vertex 51.399999999999999 0.15999999999999998 -0.079999999999999988
      vertex 51.600000000000001 0.20000000000000001 -0.10000000000000001
      vertex 51.399999999999999 0.20000000000000001 -0.10000000000000001
    endloop
  endfacet
  facet normal 0 0 1
    outer loop
      vertex 51.399999999999999 0.20000000000000001 -0.10000000000000001
      vertex 51.600000000000001 0.20000000000000001 -0.10000000000000001
      vertex 51.600000000000001 10 -0.10000000000000001
    endloop
  endfacet
  facet normal 0 0 1
    outer loop
      vertex 51.399999999999999 0.20000000000000001 -0.10000000000000001
      vertex 51.600000000000001 10 -0.10000000000000001
      vertex 51.399999999999999 10 -0.10000000000000001
    endloop
  endfacet
  facet normal 0 -0.24253562503633294 0.97014250014533177
    outer loop
      vertex 51.479999999999997 10.08 -0.079999999999999988
      vertex 51.399999999999999 10 -0.10000000000000001
      vertex 51.600000000000001 10 -0.10000000000000001
    endloop
  endfacet
  facet normal 0 -0.24253562503633297 0.97014250014533188
    outer loop
      vertex 51.479999999999997 10.08 -0.079999999999999988
      vertex 51.600000000000001 10 -0.10000000000000001
      vertex 51.600000000000001 10.08 -0.079999999999999988
    endloop
  endfacet
  facet normal 0 -0.24253562503633297 0.97014250014533188
    outer loop
      vertex 51.399999999999999 10.08 -0.079999999999999988
      vertex 51.399999999999999 10 -0.10000000000000001
      vertex 51.479999999999997 10.08 -0.079999999999999988
    endloop
  endfacet
  facet normal -0 0.44721359549996587 0.89442719099991186
    outer loop
      vertex 51.560000000000002 40.160000000000004 -0.079999999999999988
      vertex 51.600000000000001 40.160000000000004 -0.079999999999999988
      vertex 51.600000000000001 40.200000000000003 -0.10000000000000001
    endloop
  endfacet
  facet normal -0 0.44721359549996592 0.89442719099991197
    outer loop
      vertex 51.399999999999999 40.160000000000004 -0.079999999999999988
      vertex 51.560000000000002 40.160000000000004 -0.079999999999999988
      vertex 51.600000000000001 40.200000000000003 -0.10000000000000001
    endloop
  endfacet
  facet normal 0 0.44721359549996592 0.89442719099991186
    outer loop
      vertex 51.399999999999999 40.160000000000004 -0.079999999999999988
      vertex 51.600000000000001 40.200000000000003 -0.10000000000000001
      vertex 51.399999999999999 40.200000000000003 -0.10000000000000001
    endloop
  endfacet
  facet normal 0 0 1
    outer loop
      vertex 51.399999999999999 40.200000000000003 -0.10000000000000001
      vertex 51.600000000000001 40.200000000000003 -0.10000000000000001
      vertex 51.600000000000001 60 -0.10000000000000001
    endloop
  endfacet
  facet normal 0 0 1
    outer loop
      vertex 51.399999999999999 40.200000000000003 -0.10000000000000001
      vertex 51.600000000000001 60 -0.10000000000000001
      vertex 51.399999999999999 60 -0.10000000000000001
    endloop
  endfacet
  facet normal 0 0.24253562503633788 0.97014250014533077
    outer loop
      vertex 51.479999999999997 60.079999999999998 -0.12000000000000001
      vertex 51.399999999999999 60 -0.10000000000000001
      vertex 51.600000000000001 60 -0.10000000000000001
    endloop
  endfacet
  facet normal -0 0.24253562503633791 0.97014250014533077
    outer loop
      vertex 51.479999999999997 60.079999999999998 -0.12000000000000001
      vertex 51.600000000000001 60 -0.10000000000000001
      vertex 51.600000000000001 60.079999999999998 -0.12000000000000001
    endloop
  endfacet
  facet normal -0 0.24253562503633788 0.97014250014533066
    outer loop
      vertex 51.399999999999999 60.079999999999998 -0.12000000000000001
      vertex 51.399999999999999 60 -0.10000000000000001
      vertex 51.479999999999997 60.079999999999998 -0.12000000000000001
    endloop
  endfacet
  facet normal -0 0.44721359549995793 0.89442719099991586
    outer loop
      vertex 55.600000000000001 0.15999999999999998 -0.079999999999999988
      vertex 56.600000000000001 0.15999999999999998 -0.079999999999999988
      vertex 56.600000000000001 0.20000000000000001 -0.10000000000000001
    endloop
  endfacet
  facet normal -0 0.44721359549995793 0.89442719099991586
    outer loop
      vertex 51.600000000000001 0.15999999999999998 -0.079999999999999988
      vertex 55.600000000000001 0.15999999999999998 -0.079999999999999988
      vertex 56.600000000000001 0.20000000000000001 -0.10000000000000001
    endloop
  endfacet
  facet normal 0 0.44721359549995798 0.89442719099991597
    outer loop
      vertex 51.600000000000001 0.15999999999999998 -0.079999999999999988
      vertex 56.600000000000001 0.20000000000000001 -0.10000000000000001
      vertex 51.600000000000001 0.20000000000000001 -0.10000000000000001
    endloop
  endfacet
  facet normal 0 0 1
    outer loop
      vertex 51.600000000000001 0.20000000000000001 -0.10000000000000001
      vertex 56.600000000000001 0.20000000000000001 -0.10000000000000001
      vertex 56.600000000000001 10 -0.10000000000000001
    endloop
  endfacet
  facet normal 0 0 1
    outer loop
      vertex 51.600000000000001 0.20000000000000001 -0.10000000000000001
      vertex 56.600000000000001 10 -0.10000000000000001
      vertex 51.600000000000001 10 -0.10000000000000001
    endloop
  endfacet
  facet normal 0 -0.242535625036333 0.97014250014533199
    outer loop
      vertex 53.600000000000001 10.08 -0.079999999999999988
      vertex 51.600000000000001 10 -0.10000000000000001
      vertex 56.600000000000001 10 -0.10000000000000001
    endloop
  endfacet
  facet normal 0 -0.24253562503633297 0.97014250014533188
    outer loop
      vertex 53.600000000000001 10.08 -0.079999999999999988
      vertex 56.600000000000001 10 -0.10000000000000001
      vertex 56.600000000000001 10.08 -0.079999999999999988
    endloop
  endfacet
  facet normal 0 -0.24253562503633297 0.97014250014533188
    outer loop
      vertex 51.600000000000001 10.08 -0.079999999999999988
      vertex 51.600000000000001 10 -0.10000000000000001
      vertex 53.600000000000001 10.08 -0.079999999999999988
    endloop
  endfacet
  facet normal -0 0.44721359549996592 0.89442719099991197
    outer loop
      vertex 55.600000000000001 40.160000000000004 -0.079999999999999988
      vertex 56.600000000000001 40.160000000000004 -0.079999999999999988
      vertex 56.600000000000001 40.200000000000003 -0.10000000000000001
    endloop
  endfacet
  facet normal -0 0.44721359549996592 0.89442719099991197
    outer loop
      vertex 51.600000000000001 40.160000000000004 -0.079999999999999988
      vertex 55.600000000000001 40.160000000000004 -0.079999999999999988
      vertex 56.600000000000001 40.200000000000003 -0.10000000000000001
    endloop
  endfacet
  facet normal 0 0.44721359549996592 0.89442719099991197
    outer loop
      vertex 51.600000000000001 40.160000000000004 -0.079999999999999988
      vertex 56.600000000000001 40.200000000000003 -0.10000000000000001
      vertex 51.600000000000001 40.200000000000003 -0.10000000000000001
    endloop
  endfacet
  facet normal 0 0 1
    outer loop
      vertex 51.600000000000001 40.200000000000003 -0.10000000000000001
      vertex 56.600000000000001 40.200000000000003 -0.10000000000000001
      vertex 56.600000000000001 60 -0.10000000000000001
    endloop
  endfacet
  facet normal 0 0 1
    outer loop
      vertex 51.600000000000001 40.200000000000003 -0.10000000000000001
      vertex 56.600000000000001 60 -0.10000000000000001
      vertex 51.600000000000001 60 -0.10000000000000001
    endloop
  endfacet
  facet normal 0 0.24253562503633788 0.97014250014533066
    outer loop
      vertex 53.600000000000001 60.079999999999998 -0.12000000000000001
      vertex 51.600000000000001 60 -0.10000000000000001
      vertex 56.600000000000001 60 -0.10000000000000001
    endloop
  endfacet
  facet normal -0 0.24253562503633788 0.97014250014533066
    outer loop
      vertex 53.600000000000001 60.079999999999998 -0.12000000000000001
      vertex 56.600000000000001 60 -0.10000000000000001
      vertex 56.600000000000001 60.079999999999998 -0.12000000000000001
    endloop
  endfacet
  facet normal -0 0.24253562503633788 0.97014250014533066
    outer loop
      vertex 51.600000000000001 60.079999999999998 -0.12000000000000001
      vertex 51.600000000000001 60 -0.10000000000000001
      vertex 53.600000000000001 60.079999999999998 -0.12000000000000001
    endloop
  endfacet
  facet normal -0 0.44721359549995793 0.89442719099991586
    outer loop
      vertex 56.759999999999998 0.15999999999999998 -0.079999999999999988
      vertex 56.799999999999997 0.15999999999999998 -0.079999999999999988
      vertex 56.799999999999997 0.20000000000000001 -0.10000000000000001
    endloop
  endfacet
  facet normal -0 0.44721359549995793 0.89442719099991586
    outer loop
      vertex 56.600000000000001 0.15999999999999998 -0.079999999999999988
      vertex 56.759999999999998 0.15999999999999998 -0.079999999999999988
      vertex 56.799999999999997 0.20000000000000001 -0.10000000000000001
    endloop
  endfacet
  facet normal 0 0.44721359549995793 0.89442719099991586
    outer loop
      vertex 56.600000000000001 0.15999999999999998 -0.079999999999999988
      vertex 56.799999999999997 0.20000000000000001 -0.10000000000000001
      vertex 56.600000000000001 0.20000000000000001 -0.10000000000000001
    endloop
  endfacet
  facet normal 0 0 1
    outer loop
      vertex 56.600000000000001 0.20000000000000001 -0.10000000000000001
      vertex 56.799999999999997 0.20000000000000001 -0.10000000000000001
      vertex 56.799999999999997 10 -0.10000000000000001
    endloop
  endfacet
  facet normal 0 0 1
    outer loop
      vertex 56.600000000000001 0.20000000000000001 -0.10000000000000001
      vertex 56.799999999999997 10 -0.10000000000000001
      vertex 56.600000000000001 10 -0.10000000000000001
    endloop
  endfacet
  facet normal 0 -0.24253562503633294 0.97014250014533177
    outer loop
      vertex 56.68 10.08 -0.079999999999999988
      vertex 56.600000000000001 10 -0.10000000000000001
      vertex 56.799999999999997 10 -0.10000000000000001
    endloop
  endfacet
  facet normal 0 -0.24253562503633297 0.97014250014533188
    outer loop
      vertex 56.68 10.08 -0.079999999999999988
      vertex 56.799999999999997 10 -0.10000000000000001
      vertex 56.799999999999997 10.08 -0.079999999999999988
    endloop
  endfacet
  facet normal 0 -0.24253562503633297 0.97014250014533188
    outer loop
      vertex 56.600000000000001 10.08 -0.079999999999999988
      vertex 56.600000000000001 10 -0.10000000000000001
      vertex 56.68 10.08 -0.079999999999999988
    endloop
  endfacet
  facet normal -0 0.44721359549996587 0.89442719099991186
    outer loop
      vertex 56.759999999999998 40.160000000000004 -0.079999999999999988
      vertex 56.799999999999997 40.160000000000004 -0.079999999999999988
      vertex 56.799999999999997 40.200000000000003 -0.10000000000000001
    endloop
  endfacet
  facet normal -0 0.44721359549996587 0.89442719099991186
    outer loop
      vertex 56.600000000000001 40.160000000000004 -0.079999999999999988
      vertex 56.759999999999998 40.160000000000004 -0.079999999999999988
      vertex 56.799999999999997 40.200000000000003 -0.10000000000000001
    endloop
  endfacet
  facet normal 0 0.44721359549996598 0.89442719099991197
    outer loop
      vertex 56.600000000000001 40.160000000000004 -0.079999999999999988
      vertex 56.799999999999997 40.200000000000003 -0.10000000000000001
      vertex 56.600000000000001 40.200000000000003 -0.10000000000000001
    endloop
  endfacet
  facet normal 0 0 1
    outer loop
      vertex 56.600000000000001 40.200000000000003 -0.10000000000000001
      vertex 56.799999999999997 40.200000000000003 -0.10000000000000001
      vertex 56.799999999999997 60 -0.10000000000000001
    endloop
  endfacet
  facet normal 0 0 1
    outer loop
      vertex 56.600000000000001 40.200000000000003 -0.10000000000000001
      vertex 56.799999999999997 60 -0.10000000000000001
      vertex 56.600000000000001 60 -0.10000000000000001
    endloop
  endfacet
  facet normal 0 0.24253562503633788 0.97014250014533077
    outer loop
      vertex 56.68 60.079999999999998 -0.12000000000000001
      vertex 56.600000000000001 60 -0.10000000000000001
      vertex 56.799999999999997 60 -0.10000000000000001
    endloop
  endfacet
  facet normal -0 0.24253562503633791 0.97014250014533077
    outer loop
      vertex 56.68 60.079999999999998 -0.12000000000000001
      vertex 56.799999999999997 60 -0.10000000000000001
      vertex 56.799999999999997 60.079999999999998 -0.12000000000000001
    endloop
  endfacet
  facet normal -0 0.24253562503633788 0.97014250014533066
    outer loop
      vertex 56.600000000000001 60.079999999999998 -0.12000000000000001
      vertex 56.600000000000001 60 -0.10000000000000001
      vertex 56.68 60.079999999999998 -0.12000000000000001
    endloop
  endfacet
  facet normal -0.017885682339724089 0.44714205849310185 0.89428411698620369
    outer loop
      vertex 56.799999999999997 0.15999999999999998 -0.079999999999999988
      vertex 57.799999999999997 0.20000000000000001 -0.079999999999999988
      vertex 56.799999999999997 0.20000000000000001 -0.10000000000000001
    endloop
  endfacet
  facet normal -0.019996001199600159 0 0.99980005998000698
    outer loop
      vertex 57.799999999999997 2.160000000000001 -0.079999999999999988
      vertex 56.799999999999997 0.20000000000000001 -0.10000000000000001
      vertex 57.799999999999997 0.20000000000000001 -0.079999999999999988
    endloop
  endfacet
  facet normal -0.019996001199600159 0 0.99980005998000698
    outer loop
      vertex 56.799999999999997 0.20000000000000001 -0.10000000000000001
      vertex 57.799999999999997 2.1600000000000019 -0.079999999999999988
      vertex 57.799999999999997 10 -0.079999999999999988
    endloop
  endfacet
  facet normal -0.019996001199600159 0 0.99980005998000698
    outer loop
      vertex 56.799999999999997 0.20000000000000001 -0.10000000000000001
      vertex 57.799999999999997 10 -0.079999999999999988
      vertex 56.799999999999997 10 -0.10000000000000001
    endloop
  endfacet
  facet normal -0.019996001199600159 0 0.99980005998000698
    outer loop
      vertex 57.799999999999997 10.039999999999999 -0.079999999999999988
      vertex 56.799999999999997 10 -0.10000000000000001
      vertex 57.799999999999997 10 -0.079999999999999988
    endloop
  endfacet
  facet normal -0.0097009684960300754 -0.24252421240074629 0.97009684960298515
    outer loop
      vertex 56.799999999999997 10.08 -0.079999999999999988
      vertex 56.799999999999997 10 -0.10000000000000001
      vertex 57.799999999999997 10.039999999999999 -0.079999999999999988
    endloop
  endfacet
  facet normal -0.017885682339724009 0.44714205849310978 0.8942841169861997
    outer loop
      vertex 56.799999999999997 40.160000000000004 -0.079999999999999988
      vertex 57.799999999999997 40.200000000000003 -0.079999999999999988
      vertex 56.799999999999997 40.200000000000003 -0.10000000000000001
    endloop
  endfacet
  facet normal -0.019996001199600159 0 0.99980005998000698
    outer loop
      vertex 57.799999999999997 44.160000000000004 -0.079999999999999988
      vertex 56.799999999999997 40.200000000000003 -0.10000000000000001
      vertex 57.799999999999997 40.200000000000003 -0.079999999999999988
    endloop
  endfacet
  facet normal -0.019996001199600155 0 0.99980005998000698
    outer loop
      vertex 56.799999999999997 40.200000000000003 -0.10000000000000001
      vertex 57.799999999999997 44.160000000000004 -0.079999999999999988
      vertex 57.799999999999997 60 -0.079999999999999988
    endloop
  endfacet
  facet normal -0.019996001199600155 0 0.99980005998000698
    outer loop
      vertex 56.799999999999997 40.200000000000003 -0.10000000000000001
      vertex 57.799999999999997 60 -0.079999999999999988
      vertex 56.799999999999997 60 -0.10000000000000001
    endloop
  endfacet
  facet normal -0.019996001199600159 0 0.99980005998000698
    outer loop
      vertex 57.799999999999997 60.039999999999999 -0.079999999999999988
      vertex 56.799999999999997 60 -0.10000000000000001
      vertex 57.799999999999997 60 -0.079999999999999988
    endloop
  endfacet
  facet normal -0.029091956313327266 0.24243296927773225 0.96973187711090814
    outer loop
      vertex 56.799999999999997 60.079999999999998 -0.12000000000000001
      vertex 56.799999999999997 60 -0.10000000000000001
      vertex 57.799999999999997 60.039999999999999 -0.079999999999999988
    endloop
  endfacet
  facet normal -0.029091956313327626 0.24243296927772504 0.96973187711091002
    outer loop
      vertex 56.799999999999997 60.079999999999998 -0.12000000000000001
      vertex 57.799999999999997 60.039999999999999 -0.079999999999999988
      vertex 59.133333333333333 60.200000000000003 -0.079999999999999988
    endloop
  endfacet
  facet normal -0.029091956313327314 0.24243296927771843 0.9697318771109118
    outer loop
      vertex 56.799999999999997 60.079999999999998 -0.12000000000000001
      vertex 59.133333333333333 60.200000000000003 -0.079999999999999988
      vertex 57.799999999999997 60.200000000000003 -0.12000000000000001
    endloop
  endfacet
  facet normal -0.02998650910567097 0 0.99955030352236685
    outer loop
      vertex 59.133333333333333 69.439999999999998 -0.079999999999999988
      vertex 57.799999999999997 64.159999999999997 -0.12000000000000001
      vertex 57.799999999999997 60.200000000000003 -0.12000000000000001
    endloop
  endfacet
  facet normal -0.029986509105670967 0 0.99955030352236673
    outer loop
      vertex 59.133333333333333 69.439999999999998 -0.079999999999999988
      vertex 57.799999999999997 60.200000000000003 -0.12000000000000001
      vertex 59.133333333333333 60.200000000000003 -0.079999999999999988
    endloop
  endfacet
  facet normal -0.029986509105670963 0 0.99955030352236685
    outer loop
      vertex 57.799999999999997 64.159999999999997 -0.12000000000000001
      vertex 59.133333333333333 69.439999999999998 -0.079999999999999988
      vertex 59.133333333333333 80 -0.079999999999999988
    endloop
  endfacet
  facet normal -0.029986509105670967 0 0.99955030352236685
    outer loop
      vertex 57.799999999999997 64.159999999999997 -0.12000000000000001
      vertex 59.133333333333333 80 -0.079999999999999988
      vertex 57.799999999999997 80 -0.12000000000000001
    endloop
  endfacet
  facet normal -0.029986509105670967 0 0.99955030352236685
    outer loop
      vertex 59.133333333333333 80.093333333333334 -0.079999999999999988
      vertex 57.799999999999997 80.040000000000006 -0.12000000000000001
      vertex 57.799999999999997 80 -0.12000000000000001
    endloop
  endfacet
  facet normal -0.029986509105670967 0 0.99955030352236673
    outer loop
      vertex 59.133333333333333 80.093333333333334 -0.079999999999999988
      vertex 57.799999999999997 80 -0.12000000000000001
      vertex 59.133333333333333 80 -0.079999999999999988
    endloop
  endfacet
  facet normal -0.038776514554654015 0.24235321596658119 0.96941286386639636
    outer loop
      vertex 57.799999999999997 80.040000000000006 -0.12000000000000001
      vertex 59.133333333333333 80.093333333333334 -0.079999999999999988
      vertex 59.799999999999997 80.200000000000003 -0.079999999999999988
    endloop
  endfacet
  facet normal -0.038776514554655653 0.242353215966603 0.96941286386639081
    outer loop
      vertex 57.799999999999997 80.040000000000006 -0.12000000000000001
      vertex 59.799999999999997 80.200000000000003 -0.079999999999999988
      vertex 58.799999999999997 80.200000000000003 -0.12000000000000001
    endloop
  endfacet
  facet normal -0.039968038348871596 0 0.99920095872178949
    outer loop
      vertex 59.799999999999997 92.079999999999998 -0.079999999999999988
      vertex 58.799999999999997 88.120000000000005 -0.12000000000000001
      vertex 58.799999999999997 80.200000000000003 -0.12000000000000001
    endloop
  endfacet
  facet normal -0.039968038348871603 0 0.99920095872178949
    outer loop
      vertex 59.799999999999997 92.079999999999998 -0.079999999999999988
      vertex 58.799999999999997 80.200000000000003 -0.12000000000000001
      vertex 59.799999999999997 80.200000000000003 -0.079999999999999988
    endloop
  endfacet
  facet normal -0.039968038348871596 0 0.99920095872178949
    outer loop
      vertex 58.799999999999997 88.120000000000005 -0.12000000000000001
      vertex 59.799999999999997 92.079999999999998 -0.079999999999999988
      vertex 59.799999999999997 100 -0.079999999999999988
    endloop
  endfacet
  facet normal -0.039968038348871603 0 0.99920095872178949
    outer loop
      vertex 58.799999999999997 88.120000000000005 -0.12000000000000001
      vertex 59.799999999999997 100 -0.079999999999999988
      vertex 58.799999999999997 100 -0.12000000000000001
    endloop
  endfacet
  facet normal 0.23570226039548622 0.23570226039551762 0.94280904158207035
    outer loop
      vertex 94.959999999999994 10.16 -0.079999999999999988
      vertex 95 10.119999999999999 -0.079999999999999988
      vertex 95 10.199999999999999 -0.10000000000000001
    endloop
  endfacet
  facet normal 0.44721359549990236 -0 0.89442719099994372
    outer loop
      vertex 94.959999999999994 10.16 -0.079999999999999988
      vertex 95 10.199999999999999 -0.10000000000000001
      vertex 94.959999999999994 10.199999999999999 -0.079999999999999988
    endloop
  endfacet
  facet normal 0.44721359549990236 0 0.89442719099994372
    outer loop
      vertex 94.959999999999994 18.039999999999999 -0.079999999999999988
      vertex 94.959999999999994 10.199999999999999 -0.079999999999999988
      vertex 95 10.199999999999999 -0.10000000000000001
    endloop
  endfacet
  facet normal 0.44721359549990231 0 0.89442719099994372
    outer loop
      vertex 94.959999999999994 18.039999999999999 -0.079999999999999988
      vertex 95 10.199999999999999 -0.10000000000000001
      vertex 95 20 -0.10000000000000001
    endloop
  endfacet
  facet normal 0.44721359549990231 -0 0.89442719099994361
    outer loop
      vertex 94.959999999999994 18.039999999999999 -0.079999999999999988
      vertex 95 20 -0.10000000000000001
      vertex 94.959999999999994 20 -0.079999999999999988
    endloop
  endfacet
  facet normal 0.43643578047201997 0.2182178902359882 0.87287156094395302
    outer loop
      vertex 94.959999999999994 20.16 -0.12000000000000001
      vertex 94.906666666666666 20.106666666666666 -0.079999999999999988
      vertex 94.959999999999994 20 -0.079999999999999988
    endloop
  endfacet
  facet normal 0.43643578047192982 0.21821789023599877 0.87287156094399554
    outer loop
      vertex 94.959999999999994 20.16 -0.12000000000000001
      vertex 94.959999999999994 20 -0.079999999999999988
      vertex 95 20 -0.10000000000000001
    endloop
  endfacet
  facet normal 0.43643578047194476 0.21821789023600149 0.87287156094398721
    outer loop
      vertex 94.959999999999994 20.16 -0.12000000000000001
      vertex 95 20 -0.10000000000000001
      vertex 95 20.079999999999998 -0.12000000000000001
    endloop
  endfacet
  facet normal 0.6000000000000425 0 0.79999999999996807
    outer loop
      vertex 94.906666666666666 20.106666666666666 -0.079999999999999988
      vertex 94.959999999999994 20.16 -0.12000000000000001
      vertex 94.959999999999994 20.199999999999999 -0.12000000000000001
    endloop
  endfacet
  facet normal 0.6000000000000425 -0 0.79999999999996818
    outer loop
      vertex 94.906666666666666 20.106666666666666 -0.079999999999999988
      vertex 94.959999999999994 20.199999999999999 -0.12000000000000001
      vertex 94.906666666666666 20.199999999999999 -0.079999999999999988
    endloop
  endfacet
  facet normal 0.6000000000000425 0 0.79999999999996807
    outer loop
      vertex 94.959999999999994 36.039999999999999 -0.12000000000000001
      vertex 94.906666666666666 30.759999999999998 -0.079999999999999988
      vertex 94.906666666666666 20.199999999999999 -0.079999999999999988
    endloop
  endfacet
  facet normal 0.6000000000000425 0 0.79999999999996807
    outer loop
      vertex 94.959999999999994 36.039999999999999 -0.12000000000000001
      vertex 94.906666666666666 20.199999999999999 -0.079999999999999988
      vertex 94.959999999999994 20.199999999999999 -0.12000000000000001
    endloop
  endfacet
  facet normal 0.6000000000000425 0 0.79999999999996829
    outer loop
      vertex 94.906666666666666 30.759999999999998 -0.079999999999999988
      vertex 94.959999999999994 36.039999999999999 -0.12000000000000001
      vertex 94.959999999999994 40 -0.12000000000000001
    endloop
  endfacet
  facet normal 0.6000000000000425 -0 0.79999999999996818
    outer loop
      vertex 94.906666666666666 30.759999999999998 -0.079999999999999988
      vertex 94.959999999999994 40 -0.12000000000000001
      vertex 94.906666666666666 40 -0.079999999999999988
    endloop
  endfacet
  facet normal 0.58834840541450173 0.19611613513818471 0.7844645405527737
    outer loop
      vertex 94.920000000000002 40.120000000000005 -0.12000000000000001
      vertex 94.879999999999995 40.080000000000005 -0.079999999999999988
      vertex 94.906666666666666 40 -0.079999999999999988
    endloop
  endfacet
  facet normal 0.58834840541459743 0.19611613513815274 0.78446454055270987
    outer loop
      vertex 94.920000000000002 40.120000000000005 -0.12000000000000001
      vertex 94.906666666666666 40 -0.079999999999999988
      vertex 94.959999999999994 40 -0.12000000000000001
    endloop
  endfacet
  facet normal 0.70710678118649239 0 0.70710678118660253
    outer loop
      vertex 94.879999999999995 40.080000000000005 -0.079999999999999988
      vertex 94.920000000000002 40.120000000000005 -0.12000000000000001
      vertex 94.920000000000002 40.200000000000003 -0.12000000000000001
    endloop
  endfacet
  facet normal 0.70710678118649239 -0 0.70710678118660264
    outer loop
      vertex 94.879999999999995 40.080000000000005 -0.079999999999999988
      vertex 94.920000000000002 40.200000000000003 -0.12000000000000001
      vertex 94.879999999999995 40.200000000000003 -0.079999999999999988
    endloop
  endfacet
  facet normal 0.70710678118649239 0 0.70710678118660264
    outer loop
      vertex 94.920000000000002 52.079999999999998 -0.12000000000000001
      vertex 94.879999999999995 48.119999999999997 -0.079999999999999988
      vertex 94.879999999999995 40.200000000000003 -0.079999999999999988
    endloop
  endfacet
  facet normal 0.70710678118649239 0 0.70710678118660264
    outer loop
      vertex 94.920000000000002 52.079999999999998 -0.12000000000000001
      vertex 94.879999999999995 40.200000000000003 -0.079999999999999988
      vertex 94.920000000000002 40.200000000000003 -0.12000000000000001
    endloop
  endfacet
  facet normal 0.70710678118649239 0 0.70710678118660264
    outer loop
      vertex 94.879999999999995 48.119999999999997 -0.079999999999999988
      vertex 94.920000000000002 52.079999999999998 -0.12000000000000001
      vertex 94.920000000000002 60 -0.12000000000000001
    endloop
  endfacet
  facet normal 0.70710678118649251 -0 0.70710678118660264
    outer loop
      vertex 94.879999999999995 48.119999999999997 -0.079999999999999988
      vertex 94.920000000000002 60 -0.12000000000000001
      vertex 94.879999999999995 60 -0.079999999999999988
    endloop
  endfacet
  facet normal 0.62469504755439242 -0.4685212856657735 0.62469504755448968
    outer loop
      vertex 94.879999999999995 60 -0.079999999999999988
      vertex 94.920000000000002 60 -0.12000000000000001
      vertex 95 60.106666666666669 -0.12000000000000001
    endloop
  endfacet
  facet normal 0.62469504755441319 -0.4685212856658168 0.6246950475544365
    outer loop
      vertex 94.879999999999995 60 -0.079999999999999988
      vertex 95 60.106666666666669 -0.12000000000000001
      vertex 95 60.160000000000004 -0.079999999999999988
    endloop
  endfacet
  facet normal 0.2357022603954414 0.23570226039552514 0.94280904158207968
    outer loop
      vertex 94.959999999999994 80.159999999999997 -0.079999999999999988
      vertex 95 80.120000000000005 -0.079999999999999988
      vertex 95 80.200000000000003 -0.10000000000000001
    endloop
  endfacet
  facet normal 0.44721359549990231 -0 0.89442719099994372
    outer loop
      vertex 94.959999999999994 80.159999999999997 -0.079999999999999988
      vertex 95 80.200000000000003 -0.10000000000000001
      vertex 94.959999999999994 80.200000000000003 -0.079999999999999988
    endloop
  endfacet
  facet normal 0.44721359549990231 0 0.89442719099994361
    outer loop
      vertex 94.959999999999994 96.039999999999992 -0.079999999999999988
      vertex 94.959999999999994 80.200000000000003 -0.079999999999999988
      vertex 95 80.200000000000003 -0.10000000000000001
    endloop
  endfacet
  facet normal 0.44721359549990231 0 0.89442719099994372
    outer loop
      vertex 94.959999999999994 96.039999999999992 -0.079999999999999988
      vertex 95 80.200000000000003 -0.10000000000000001
      vertex 95 100 -0.10000000000000001
    endloop
  endfacet
  facet normal 0.44721359549990231 -0 0.89442719099994361
    outer loop
      vertex 94.959999999999994 96.039999999999992 -0.079999999999999988
      vertex 95 100 -0.10000000000000001
      vertex 94.959999999999994 100 -0.079999999999999988
    endloop
  endfacet
  facet normal -0 0.24253562503633297 0.97014250014533188
    outer loop
      vertex 95.120000000000005 10.119999999999999 -0.079999999999999988
      vertex 95.200000000000003 10.119999999999999 -0.079999999999999988
      vertex 95.200000000000003 10.199999999999999 -0.10000000000000001
    endloop
  endfacet
  facet normal -0 0.24253562503633297 0.97014250014533188
    outer loop
      vertex 95 10.119999999999999 -0.079999999999999988
      vertex 95.120000000000005 10.119999999999999 -0.079999999999999988
      vertex 95.200000000000003 10.199999999999999 -0.10000000000000001
    endloop
  endfacet
  facet normal 0 0.24253562503633294 0.97014250014533177
    outer loop
      vertex 95 10.119999999999999 -0.079999999999999988
      vertex 95.200000000000003 10.199999999999999 -0.10000000000000001
      vertex 95 10.199999999999999 -0.10000000000000001
    endloop
  endfacet
  facet normal 0 0 1
    outer loop
      vertex 95 10.199999999999999 -0.10000000000000001
      vertex 95.200000000000003 10.199999999999999 -0.10000000000000001
      vertex 95.200000000000003 20 -0.10000000000000001
    endloop
  endfacet
  facet normal 0 0 1
    outer loop
      vertex 95 10.199999999999999 -0.10000000000000001
      vertex 95.200000000000003 20 -0.10000000000000001
      vertex 95 20 -0.10000000000000001
    endloop
  endfacet
  facet normal 0 0.24253562503633788 0.97014250014533077
    outer loop
      vertex 95.079999999999998 20.079999999999998 -0.12000000000000001
      vertex 95 20 -0.10000000000000001
      vertex 95.200000000000003 20 -0.10000000000000001
    endloop
  endfacet
  facet normal -0 0.24253562503633791 0.97014250014533077
    outer loop
      vertex 95.079999999999998 20.079999999999998 -0.12000000000000001
      vertex 95.200000000000003 20 -0.10000000000000001
      vertex 95.200000000000003 20.079999999999998 -0.12000000000000001
    endloop
  endfacet
  facet normal -0 0.24253562503633788 0.97014250014533066
    outer loop
      vertex 95 20.079999999999998 -0.12000000000000001
      vertex 95 20 -0.10000000000000001
      vertex 95.079999999999998 20.079999999999998 -0.12000000000000001
    endloop
  endfacet
  facet normal 0 -0.59999999999999132 0.80000000000000637
    outer loop
      vertex 95.159999999999997 60.160000000000004 -0.079999999999999988
      vertex 95.106666666666669 60.106666666666669 -0.12000000000000001
      vertex 95.200000000000003 60.106666666666669 -0.12000000000000001
    endloop
  endfacet
  facet normal 0 -0.59999999999999143 0.80000000000000648
    outer loop
      vertex 95.159999999999997 60.160000000000004 -0.079999999999999988
      vertex 95.200000000000003 60.106666666666669 -0.12000000000000001
      vertex 95.200000000000003 60.160000000000004 -0.079999999999999988
    endloop
  endfacet
  facet normal 0 -0.59999999999999132 0.80000000000000648
    outer loop
      vertex 95 60.160000000000004 -0.079999999999999988
      vertex 95 60.106666666666669 -0.12000000000000001
      vertex 95.106666666666669 60.106666666666669 -0.12000000000000001
    endloop
  endfacet
  facet normal 0 -0.59999999999999132 0.80000000000000659
    outer loop
      vertex 95 60.160000000000004 -0.079999999999999988
      vertex 95.106666666666669 60.106666666666669 -0.12000000000000001
      vertex 95.159999999999997 60.160000000000004 -0.079999999999999988
    endloop
  endfacet
  facet normal -0 0.24253562503633805 0.97014250014533066
    outer loop
      vertex 95.120000000000005 80.120000000000005 -0.079999999999999988
      vertex 95.200000000000003 80.120000000000005 -0.079999999999999988
      vertex 95.200000000000003 80.200000000000003 -0.10000000000000001
    endloop
  endfacet
  facet normal -0 0.24253562503633805 0.97014250014533054
    outer loop
      vertex 95 80.120000000000005 -0.079999999999999988
      vertex 95.120000000000005 80.120000000000005 -0.079999999999999988
      vertex 95.200000000000003 80.200000000000003 -0.10000000000000001
    endloop
  endfacet
  facet normal 0 0.24253562503633805 0.97014250014533054
    outer loop
      vertex 95 80.120000000000005 -0.079999999999999988
      vertex 95.200000000000003 80.200000000000003 -0.10000000000000001
      vertex 95 80.200000000000003 -0.10000000000000001
    endloop
  endfacet
  facet normal 0 0 1
    outer loop
      vertex 95 80.200000000000003 -0.10000000000000001
      vertex 95.200000000000003 80.200000000000003 -0.10000000000000001
      vertex 95.200000000000003 100 -0.10000000000000001
    endloop
  endfacet
  facet normal 0 0 1
    outer loop
      vertex 95 80.200000000000003 -0.10000000000000001
      vertex 95.200000000000003 100 -0.10000000000000001
      vertex 95 100 -0.10000000000000001
    endloop
  endfacet
  facet normal 0 0.70710678118649251 0.70710678118660264
    outer loop
      vertex 95.320000000000007 -80.079999999999998 -0.12000000000000001
      vertex 95.280000000000001 -80.120000000000005 -0.079999999999999988
      vertex 95.400000000000006 -80.120000000000005 -0.079999999999999988
    endloop
  endfacet
  facet normal -0 0.70710678118649239 0.70710678118660264
    outer loop
      vertex 95.320000000000007 -80.079999999999998 -0.12000000000000001
      vertex 95.400000000000006 -80.120000000000005 -0.079999999999999988
      vertex 95.400000000000006 -80.079999999999998 -0.12000000000000001
    endloop
  endfacet
  facet normal 0.70710678118649239 0 0.70710678118660253
    outer loop
      vertex 95.280000000000001 -80.120000000000005 -0.079999999999999988
      vertex 95.320000000000007 -80.079999999999998 -0.12000000000000001
      vertex 95.320000000000007 -80 -0.12000000000000001
    endloop
  endfacet
  facet normal 0.70710678118649251 -0 0.70710678118660264
    outer loop
      vertex 95.280000000000001 -80.120000000000005 -0.079999999999999988
      vertex 95.320000000000007 -80 -0.12000000000000001
      vertex 95.280000000000001 -80 -0.079999999999999988
    endloop
  endfacet
  facet normal 0.70710678118649239 0 0.70710678118660264
    outer loop
      vertex 95.320000000000007 -68.120000000000005 -0.12000000000000001
      vertex 95.280000000000001 -72.079999999999998 -0.079999999999999988
      vertex 95.280000000000001 -80 -0.079999999999999988
    endloop
  endfacet
  facet normal 0.70710678118649239 0 0.70710678118660264
    outer loop
      vertex 95.320000000000007 -68.120000000000005 -0.12000000000000001
      vertex 95.280000000000001 -80 -0.079999999999999988
      vertex 95.320000000000007 -80 -0.12000000000000001
    endloop
  endfacet
  facet normal 0.70710678118649239 0 0.70710678118660264
    outer loop
      vertex 95.280000000000001 -72.079999999999998 -0.079999999999999988
      vertex 95.320000000000007 -68.120000000000005 -0.12000000000000001
      vertex 95.320000000000007 -60.200000000000003 -0.12000000000000001
    endloop
  endfacet
  facet normal 0.70710678118649239 -0 0.70710678118660264
    outer loop
      vertex 95.280000000000001 -72.079999999999998 -0.079999999999999988
      vertex 95.320000000000007 -60.200000000000003 -0.12000000000000001
      vertex 95.280000000000001 -60.200000000000003 -0.079999999999999988
    endloop
  endfacet
  facet normal 0.57735026918959576 -0.57735026918959576 0.57735026918968579
    outer loop
      vertex 95.280000000000001 -60.200000000000003 -0.079999999999999988
      vertex 95.320000000000007 -60.200000000000003 -0.12000000000000001
      vertex 95.400000000000006 -60.120000000000005 -0.12000000000000001
    endloop
  endfacet
  facet normal 0.57735026918960719 -0.57735026918964127 0.57735026918962873
    outer loop
      vertex 95.280000000000001 -60.200000000000003 -0.079999999999999988
      vertex 95.400000000000006 -60.120000000000005 -0.12000000000000001
      vertex 95.400000000000006 -60.080000000000005 -0.079999999999999988
    endloop
  endfacet
  facet normal -0.43643578047192982 0.21821789023599883 0.87287156094399532
    outer loop
      vertex 95.200000000000003 10.119999999999999 -0.079999999999999988
      vertex 95.240000000000009 10.199999999999999 -0.079999999999999988
      vertex 95.200000000000003 10.199999999999999 -0.10000000000000001
    endloop
  endfacet
  facet normal -0.44721359549990231 0 0.89442719099994361
    outer loop
      vertex 95.240000000000009 12.16 -0.079999999999999988
      vertex 95.200000000000003 10.199999999999999 -0.10000000000000001
      vertex 95.240000000000009 10.199999999999999 -0.079999999999999988
    endloop
  endfacet
  facet normal -0.44721359549990236 0 0.89442719099994372
    outer loop
      vertex 95.200000000000003 10.199999999999999 -0.10000000000000001
      vertex 95.240000000000009 12.160000000000002 -0.079999999999999988
      vertex 95.240000000000009 20 -0.079999999999999988
    endloop
  endfacet
  facet normal -0.44721359549990236 0 0.89442719099994372
    outer loop
      vertex 95.200000000000003 10.199999999999999 -0.10000000000000001
      vertex 95.240000000000009 20 -0.079999999999999988
      vertex 95.200000000000003 20 -0.10000000000000001
    endloop
  endfacet
  facet normal -0.44721359549990236 0 0.89442719099994372
    outer loop
      vertex 95.240000000000009 20.039999999999999 -0.079999999999999988
      vertex 95.200000000000003 20 -0.10000000000000001
      vertex 95.240000000000009 20 -0.079999999999999988
    endloop
  endfacet
  facet normal -0.58834840541449163 0.19611613513819864 0.7844645405527777
    outer loop
      vertex 95.200000000000003 20.079999999999998 -0.12000000000000001
      vertex 95.200000000000003 20 -0.10000000000000001
      vertex 95.240000000000009 20.039999999999999 -0.079999999999999988
    endloop
  endfacet
  facet normal -0.58834840541452427 0.19611613513815301 0.78446454055276471
    outer loop
      vertex 95.200000000000003 20.079999999999998 -0.12000000000000001
      vertex 95.240000000000009 20.039999999999999 -0.079999999999999988
      vertex 95.293333333333337 20.199999999999999 -0.079999999999999988
    endloop
  endfacet
  facet normal -0.58834840541458877 0.19611613513822532 0.78446454055269843
    outer loop
      vertex 95.200000000000003 20.079999999999998 -0.12000000000000001
      vertex 95.293333333333337 20.199999999999999 -0.079999999999999988
      vertex 95.240000000000009 20.199999999999999 -0.12000000000000001
    endloop
  endfacet
  facet normal -0.60000000000004261 0 0.79999999999996807
    outer loop
      vertex 95.293333333333337 29.439999999999998 -0.079999999999999988
      vertex 95.240000000000009 24.159999999999997 -0.12000000000000001
      vertex 95.240000000000009 20.199999999999999 -0.12000000000000001
    endloop
  endfacet
  facet normal -0.6000000000000425 0 0.79999999999996807
    outer loop
      vertex 95.293333333333337 29.439999999999998 -0.079999999999999988
      vertex 95.240000000000009 20.199999999999999 -0.12000000000000001
      vertex 95.293333333333337 20.199999999999999 -0.079999999999999988
    endloop
  endfacet
  facet normal -0.6000000000000425 0 0.79999999999996807
    outer loop
      vertex 95.240000000000009 24.159999999999997 -0.12000000000000001
      vertex 95.293333333333337 29.440000000000001 -0.079999999999999988
      vertex 95.293333333333337 40 -0.079999999999999988
    endloop
  endfacet
  facet normal -0.6000000000000425 0 0.79999999999996807
    outer loop
      vertex 95.240000000000009 24.159999999999997 -0.12000000000000001
      vertex 95.293333333333337 40 -0.079999999999999988
      vertex 95.240000000000009 40 -0.12000000000000001
    endloop
  endfacet
  facet normal -0.6000000000000425 0 0.79999999999996807
    outer loop
      vertex 95.293333333333337 40.093333333333334 -0.079999999999999988
      vertex 95.240000000000009 40.039999999999999 -0.12000000000000001
      vertex 95.240000000000009 40 -0.12000000000000001
    endloop
  endfacet
  facet normal -0.6000000000000425 0 0.79999999999996818
    outer loop
      vertex 95.293333333333337 40.093333333333334 -0.079999999999999988
      vertex 95.240000000000009 40 -0.12000000000000001
      vertex 95.293333333333337 40 -0.079999999999999988
    endloop
  endfacet
  facet normal -0.69631062382285591 0.1740776559557371 0.69631062382271702
    outer loop
      vertex 95.240000000000009 40.039999999999999 -0.12000000000000001
      vertex 95.293333333333337 40.093333333333334 -0.079999999999999988
      vertex 95.320000000000007 40.200000000000003 -0.079999999999999988
    endloop
  endfacet
  facet normal -0.69631062382274345 0.1740776559556472 0.69631062382285192
    outer loop
      vertex 95.240000000000009 40.039999999999999 -0.12000000000000001
      vertex 95.320000000000007 40.200000000000003 -0.079999999999999988
      vertex 95.280000000000001 40.200000000000003 -0.12000000000000001
    endloop
  endfacet
  facet normal -0.70710678118649239 0 0.70710678118660264
    outer loop
      vertex 95.320000000000007 52.080000000000005 -0.079999999999999988
      vertex 95.280000000000001 48.120000000000005 -0.12000000000000001
      vertex 95.280000000000001 40.200000000000003 -0.12000000000000001
    endloop
  endfacet
  facet normal -0.70710678118649251 0 0.70710678118660264
    outer loop
      vertex 95.320000000000007 52.080000000000005 -0.079999999999999988
      vertex 95.280000000000001 40.200000000000003 -0.12000000000000001
      vertex 95.320000000000007 40.200000000000003 -0.079999999999999988
    endloop
  endfacet
  facet normal -0.70710678118649239 0 0.70710678118660264
    outer loop
      vertex 95.280000000000001 48.120000000000005 -0.12000000000000001
      vertex 95.320000000000007 52.080000000000005 -0.079999999999999988
      vertex 95.320000000000007 60 -0.079999999999999988
    endloop
  endfacet
  facet normal -0.70710678118649239 0 0.70710678118660264
    outer loop
      vertex 95.280000000000001 48.120000000000005 -0.12000000000000001
      vertex 95.320000000000007 60 -0.079999999999999988
      vertex 95.280000000000001 60 -0.12000000000000001
    endloop
  endfacet
  facet normal -0.70710678118649239 0 0.70710678118660253
    outer loop
      vertex 95.320000000000007 60.119999999999997 -0.079999999999999988
      vertex 95.280000000000001 60.079999999999998 -0.12000000000000001
      vertex 95.280000000000001 60 -0.12000000000000001
    endloop
  endfacet
  facet normal -0.70710678118649239 0 0.70710678118660264
    outer loop
      vertex 95.320000000000007 60.119999999999997 -0.079999999999999988
      vertex 95.280000000000001 60 -0.12000000000000001
      vertex 95.320000000000007 60 -0.079999999999999988
    endloop
  endfacet
  facet normal -0.19611613513821483 -0.58834840541453981 0.78446454055273762
    outer loop
      vertex 95.200000000000003 60.160000000000004 -0.079999999999999988
      vertex 95.200000000000003 60.106666666666669 -0.12000000000000001
      vertex 95.280000000000001 60.079999999999998 -0.12000000000000001
    endloop
  endfacet
  facet normal -0.19611613513820003 -0.58834840541453048 0.78446454055274828
    outer loop
      vertex 95.200000000000003 60.160000000000004 -0.079999999999999988
      vertex 95.280000000000001 60.079999999999998 -0.12000000000000001
      vertex 95.320000000000007 60.119999999999997 -0.079999999999999988
    endloop
  endfacet
  facet normal -0.43643578047192938 0.21821789023600346 0.87287156094399443
    outer loop
      vertex 95.200000000000003 80.120000000000005 -0.079999999999999988
      vertex 95.240000000000009 80.200000000000003 -0.079999999999999988
      vertex 95.200000000000003 80.200000000000003 -0.10000000000000001
    endloop
  endfacet
  facet normal -0.44721359549990231 0 0.89442719099994361
    outer loop
      vertex 95.240000000000009 84.160000000000011 -0.079999999999999988
      vertex 95.200000000000003 80.200000000000003 -0.10000000000000001
      vertex 95.240000000000009 80.200000000000003 -0.079999999999999988
    endloop
  endfacet
  facet normal -0.44721359549990231 0 0.89442719099994361
    outer loop
      vertex 95.200000000000003 80.200000000000003 -0.10000000000000001
      vertex 95.240000000000009 84.160000000000011 -0.079999999999999988
      vertex 95.240000000000009 100 -0.079999999999999988
    endloop
  endfacet
  facet normal -0.44721359549990231 0 0.89442719099994372
    outer loop
      vertex 95.200000000000003 80.200000000000003 -0.10000000000000001
      vertex 95.240000000000009 100 -0.079999999999999988
      vertex 95.200000000000003 100 -0.10000000000000001
    endloop
  endfacet
  facet normal 0 0.70710678118649251 0.70710678118660264
    outer loop
      vertex 98.400000000000006 -80.079999999999998 -0.12000000000000001
      vertex 97.400000000000006 -80.120000000000005 -0.079999999999999988
      vertex 100.40000000000001 -80.120000000000005 -0.079999999999999988
    endloop
  endfacet
  facet normal -0 0.70710678118649251 0.70710678118660264
    outer loop
      vertex 98.400000000000006 -80.079999999999998 -0.12000000000000001
      vertex 100.40000000000001 -80.120000000000005 -0.079999999999999988
      vertex 100.40000000000001 -80.079999999999998 -0.12000000000000001
    endloop
  endfacet
  facet normal 0 0.70710678118649251 0.70710678118660264
    outer loop
      vertex 95.400000000000006 -80.079999999999998 -0.12000000000000001
      vertex 95.400000000000006 -80.120000000000005 -0.079999999999999988
      vertex 97.400000000000006 -80.120000000000005 -0.079999999999999988
    endloop
  endfacet
  facet normal -0 0.70710678118649251 0.70710678118660264
    outer loop
      vertex 95.400000000000006 -80.079999999999998 -0.12000000000000001
      vertex 97.400000000000006 -80.120000000000005 -0.079999999999999988
      vertex 98.400000000000006 -80.079999999999998 -0.12000000000000001
    endloop
  endfacet
  facet normal 0 -0.70710678118655523 0.7071067811865398
    outer loop
      vertex 98.400000000000006 -60.080000000000005 -0.079999999999999988
      vertex 97.400000000000006 -60.120000000000005 -0.12000000000000001
      vertex 100.40000000000001 -60.120000000000005 -0.12000000000000001
    endloop
  endfacet
  facet normal 0 -0.70710678118655523 0.70710678118653969
    outer loop
      vertex 98.400000000000006 -60.080000000000005 -0.079999999999999988
      vertex 100.40000000000001 -60.120000000000005 -0.12000000000000001
      vertex 100.40000000000001 -60.080000000000005 -0.079999999999999988
    endloop
  endfacet
  facet normal 0 -0.70710678118655523 0.70710678118653969
    outer loop
      vertex 95.400000000000006 -60.080000000000005 -0.079999999999999988
      vertex 95.400000000000006 -60.120000000000005 -0.12000000000000001
      vertex 97.400000000000006 -60.120000000000005 -0.12000000000000001
    endloop
  endfacet
  facet normal 0 -0.70710678118655523 0.7071067811865398
    outer loop
      vertex 95.400000000000006 -60.080000000000005 -0.079999999999999988
      vertex 97.400000000000006 -60.120000000000005 -0.12000000000000001
      vertex 98.400000000000006 -60.080000000000005 -0.079999999999999988
    endloop
  endfacet
  facet normal 0 0.70710678118649251 0.70710678118660264
    outer loop
      vertex 100.52 -80.079999999999998 -0.12000000000000001
      vertex 100.48 -80.120000000000005 -0.079999999999999988
      vertex 100.59999999999999 -80.120000000000005 -0.079999999999999988
    endloop
  endfacet
  facet normal -0 0.70710678118649239 0.70710678118660264
    outer loop
      vertex 100.52 -80.079999999999998 -0.12000000000000001
      vertex 100.59999999999999 -80.120000000000005 -0.079999999999999988
      vertex 100.59999999999999 -80.079999999999998 -0.12000000000000001
    endloop
  endfacet
  facet normal 0 0.70710678118649239 0.70710678118660264
    outer loop
      vertex 100.40000000000001 -80.079999999999998 -0.12000000000000001
      vertex 100.40000000000001 -80.120000000000005 -0.079999999999999988
      vertex 100.48 -80.120000000000005 -0.079999999999999988
    endloop
  endfacet
  facet normal -0 0.70710678118649251 0.70710678118660264
    outer loop
      vertex 100.40000000000001 -80.079999999999998 -0.12000000000000001
      vertex 100.48 -80.120000000000005 -0.079999999999999988
      vertex 100.52 -80.079999999999998 -0.12000000000000001
    endloop
  endfacet
  facet normal 0 -0.70710678118655523 0.7071067811865398
    outer loop
      vertex 100.52 -60.080000000000005 -0.079999999999999988
      vertex 100.48 -60.120000000000005 -0.12000000000000001
      vertex 100.59999999999999 -60.120000000000005 -0.12000000000000001
    endloop
  endfacet
  facet normal 0 -0.70710678118655523 0.7071067811865398
    outer loop
      vertex 100.52 -60.080000000000005 -0.079999999999999988
      vertex 100.59999999999999 -60.120000000000005 -0.12000000000000001
      vertex 100.59999999999999 -60.080000000000005 -0.079999999999999988
    endloop
  endfacet
  facet normal 0 -0.70710678118655523 0.7071067811865398
    outer loop
      vertex 100.40000000000001 -60.080000000000005 -0.079999999999999988
      vertex 100.40000000000001 -60.120000000000005 -0.12000000000000001
      vertex 100.48 -60.120000000000005 -0.12000000000000001
    endloop
  endfacet
  facet normal 0 -0.70710678118655523 0.7071067811865398
    outer loop
      vertex 100.40000000000001 -60.080000000000005 -0.079999999999999988
      vertex 100.48 -60.120000000000005 -0.12000000000000001
      vertex 100.52 -60.080000000000005 -0.079999999999999988
    endloop
  endfacet
  facet normal 6.3887225695145692e-17 0.70710678118654746 0.70710678118654746
    outer loop
      vertex 100.52 0.12000000000000001 -0.12000000000000001
      vertex 100.48 0.079999999999999988 -0.079999999999999988
      vertex 100.59999999999999 0.079999999999999974 -0.079999999999999988
    endloop
  endfacet
  facet normal 1.2266347333467254e-16 0.70710678118654757 0.70710678118654757
    outer loop
      vertex 100.52 0.12000000000000001 -0.12000000000000001
      vertex 100.59999999999999 0.079999999999999974 -0.079999999999999988
      vertex 100.59999999999999 0.12 -0.12000000000000001
    endloop
  endfacet
  facet normal 0.70710678118661807 0 0.70710678118647707
    outer loop
      vertex 100.48 0.079999999999999974 -0.079999999999999988
      vertex 100.52 0.12 -0.12000000000000001
      vertex 100.52 0.20000000000000001 -0.12000000000000001
    endloop
  endfacet
  facet normal 0.70710678118661807 -0 0.70710678118647696
    outer loop
      vertex 100.48 0.079999999999999974 -0.079999999999999988
      vertex 100.52 0.20000000000000001 -0.12000000000000001
      vertex 100.48 0.20000000000000001 -0.079999999999999988
    endloop
  endfacet
  facet normal 0.70710678118661807 0 0.70710678118647696
    outer loop
      vertex 100.52 6.0800000000000001 -0.12000000000000001
      vertex 100.48 4.1199999999999992 -0.079999999999999988
      vertex 100.48 0.20000000000000001 -0.079999999999999988
    endloop
  endfacet
  facet normal 0.70710678118661807 0 0.70710678118647696
    outer loop
      vertex 100.52 6.0800000000000001 -0.12000000000000001
      vertex 100.48 0.20000000000000001 -0.079999999999999988
      vertex 100.52 0.20000000000000001 -0.12000000000000001
    endloop
  endfacet
  facet normal 0.70710678118661807 0 0.70710678118647696
    outer loop
      vertex 100.48 4.1199999999999992 -0.079999999999999988
      vertex 100.52 6.0800000000000001 -0.12000000000000001
      vertex 100.52 10 -0.12000000000000001
    endloop
  endfacet
  facet normal 0.70710678118661807 -0 0.70710678118647696
    outer loop
      vertex 100.48 4.1199999999999992 -0.079999999999999988
      vertex 100.52 10 -0.12000000000000001
      vertex 100.48 10 -0.079999999999999988
    endloop
  endfacet
  facet normal 0.69631062382285369 -0.17407765595573949 0.69631062382271858
    outer loop
      vertex 100.56 10.16 -0.12000000000000001
      vertex 100.50666666666667 10.106666666666667 -0.079999999999999988
      vertex 100.48 10 -0.079999999999999988
    endloop
  endfacet
  facet normal 0.69631062382285536 -0.1740776559557409 0.69631062382271647
    outer loop
      vertex 100.56 10.16 -0.12000000000000001
      vertex 100.48 10 -0.079999999999999988
      vertex 100.52 10 -0.12000000000000001
    endloop
  endfacet
  facet normal 0.6000000000000425 0 0.79999999999996807
    outer loop
      vertex 100.50666666666667 10.106666666666667 -0.079999999999999988
      vertex 100.56 10.16 -0.12000000000000001
      vertex 100.56 10.199999999999999 -0.12000000000000001
    endloop
  endfacet
  facet normal 0.6000000000000425 -0 0.79999999999996818
    outer loop
      vertex 100.50666666666667 10.106666666666667 -0.079999999999999988
      vertex 100.56 10.199999999999999 -0.12000000000000001
      vertex 100.50666666666667 10.199999999999999 -0.079999999999999988
    endloop
  endfacet
  facet normal 0.60000000000004239 0 0.79999999999996818
    outer loop
      vertex 100.56 18.039999999999999 -0.12000000000000001
      vertex 100.50666666666667 15.426666666666664 -0.079999999999999988
      vertex 100.50666666666667 10.199999999999999 -0.079999999999999988
    endloop
  endfacet
  facet normal 0.60000000000004239 0 0.79999999999996807
    outer loop
      vertex 100.56 18.039999999999999 -0.12000000000000001
      vertex 100.50666666666667 10.199999999999999 -0.079999999999999988
      vertex 100.56 10.199999999999999 -0.12000000000000001
    endloop
  endfacet
  facet normal 0.6000000000000425 0 0.79999999999996818
    outer loop
      vertex 100.50666666666667 15.426666666666666 -0.079999999999999988
      vertex 100.56 18.039999999999999 -0.12000000000000001
      vertex 100.56 20 -0.12000000000000001
    endloop
  endfacet
  facet normal 0.6000000000000425 -0 0.79999999999996818
    outer loop
      vertex 100.50666666666667 15.426666666666666 -0.079999999999999988
      vertex 100.56 20 -0.12000000000000001
      vertex 100.50666666666667 20 -0.079999999999999988
    endloop
  endfacet
  facet normal 0.58834840541459477 -0.1961161351381765 0.7844645405527062
    outer loop
      vertex 100.56 20.16 -0.079999999999999988
      vertex 100.50666666666667 20 -0.079999999999999988
      vertex 100.56 20 -0.12000000000000001
    endloop
  endfacet
  facet normal 0.58834840541463174 -0.19611613513816994 0.78446454055268
    outer loop
      vertex 100.56 20.16 -0.079999999999999988
      vertex 100.56 20 -0.12000000000000001
      vertex 100.59999999999999 20.120000000000001 -0.12000000000000001
    endloop
  endfacet
  facet normal 0.58834840541462841 -0.19611613513817458 0.78446454055268122
    outer loop
      vertex 100.56 20.16 -0.079999999999999988
      vertex 100.59999999999999 20.120000000000001 -0.12000000000000001
      vertex 100.59999999999999 20.199999999999999 -0.10000000000000001
    endloop
  endfacet
  facet normal 0.44721359550002948 -0 0.89442719099988011
    outer loop
      vertex 100.56 20.16 -0.079999999999999988
      vertex 100.59999999999999 20.199999999999999 -0.10000000000000001
      vertex 100.56 20.199999999999999 -0.079999999999999988
    endloop
  endfacet
  facet normal 0.44721359550002943 0 0.89442719099988
    outer loop
      vertex 100.56 36.039999999999999 -0.079999999999999988
      vertex 100.56 20.199999999999999 -0.079999999999999988
      vertex 100.59999999999999 20.199999999999999 -0.10000000000000001
    endloop
  endfacet
  facet normal 0.44721359550002948 0 0.89442719099988011
    outer loop
      vertex 100.56 36.039999999999999 -0.079999999999999988
      vertex 100.59999999999999 20.199999999999999 -0.10000000000000001
      vertex 100.59999999999999 40 -0.10000000000000001
    endloop
  endfacet
  facet normal 0.44721359550002943 -0 0.89442719099988022
    outer loop
      vertex 100.56 36.039999999999992 -0.079999999999999988
      vertex 100.59999999999999 40 -0.10000000000000001
      vertex 100.56 40 -0.079999999999999988
    endloop
  endfacet
  facet normal 0.43643578047205489 -0.21821789023598867 0.87287156094393537
    outer loop
      vertex 100.56 40 -0.079999999999999988
      vertex 100.59999999999999 40 -0.10000000000000001
      vertex 100.59999999999999 40.079999999999998 -0.079999999999999988
    endloop
  endfacet
  facet normal 0 0.70710678118649251 0.70710678118660264
    outer loop
      vertex 100.72 -80.079999999999998 -0.12000000000000001
      vertex 100.67999999999999 -80.120000000000005 -0.079999999999999988
      vertex 100.8 -80.120000000000005 -0.079999999999999988
    endloop
  endfacet
  facet normal -0 0.70710678118649239 0.70710678118660264
    outer loop
      vertex 100.72 -80.079999999999998 -0.12000000000000001
      vertex 100.8 -80.120000000000005 -0.079999999999999988
      vertex 100.8 -80.079999999999998 -0.12000000000000001
    endloop
  endfacet
  facet normal 0 0.70710678118649239 0.70710678118660264
    outer loop
      vertex 100.59999999999999 -80.079999999999998 -0.12000000000000001
      vertex 100.59999999999999 -80.120000000000005 -0.079999999999999988
      vertex 100.67999999999999 -80.120000000000005 -0.079999999999999988
    endloop
  endfacet
  facet normal -0 0.70710678118649251 0.70710678118660264
    outer loop
      vertex 100.59999999999999 -80.079999999999998 -0.12000000000000001
      vertex 100.67999999999999 -80.120000000000005 -0.079999999999999988
      vertex 100.72 -80.079999999999998 -0.12000000000000001
    endloop
  endfacet
  facet normal 0 -0.70710678118655523 0.7071067811865398
    outer loop
      vertex 100.72 -60.080000000000005 -0.079999999999999988
      vertex 100.67999999999999 -60.120000000000005 -0.12000000000000001
      vertex 100.8 -60.120000000000005 -0.12000000000000001
    endloop
  endfacet
  facet normal 0 -0.70710678118655523 0.7071067811865398
    outer loop
      vertex 100.72 -60.080000000000005 -0.079999999999999988
      vertex 100.8 -60.120000000000005 -0.12000000000000001
      vertex 100.8 -60.080000000000005 -0.079999999999999988
    endloop
  endfacet
  facet normal 0 -0.70710678118655523 0.7071067811865398
    outer loop
      vertex 100.59999999999999 -60.080000000000005 -0.079999999999999988
      vertex 100.59999999999999 -60.120000000000005 -0.12000000000000001
      vertex 100.67999999999999 -60.120000000000005 -0.12000000000000001
    endloop
  endfacet
  facet normal 0 -0.70710678118655523 0.7071067811865398
    outer loop
      vertex 100.59999999999999 -60.080000000000005 -0.079999999999999988
      vertex 100.67999999999999 -60.120000000000005 -0.12000000000000001
      vertex 100.72 -60.080000000000005 -0.079999999999999988
    endloop
  endfacet
  facet normal 6.3887225695138136e-17 0.70710678118654746 0.70710678118654768
    outer loop
      vertex 100.72 0.12000000000000001 -0.12000000000000001
      vertex 100.67999999999999 0.079999999999999988 -0.079999999999999988
      vertex 100.8 0.079999999999999974 -0.079999999999999988
    endloop
  endfacet
  facet normal 1.2266347333467254e-16 0.70710678118654757 0.70710678118654757
    outer loop
      vertex 100.72 0.12000000000000001 -0.12000000000000001
      vertex 100.8 0.079999999999999974 -0.079999999999999988
      vertex 100.8 0.12 -0.12000000000000001
    endloop
  endfacet
  facet normal 9.5830838542712874e-17 0.70710678118654757 0.70710678118654757
    outer loop
      vertex 100.59999999999999 0.12000000000000001 -0.12000000000000001
      vertex 100.59999999999999 0.079999999999999988 -0.079999999999999988
      vertex 100.67999999999999 0.079999999999999974 -0.079999999999999988
    endloop
  endfacet
  facet normal 8.1775648889776848e-17 0.70710678118654746 0.70710678118654768
    outer loop
      vertex 100.59999999999999 0.12000000000000001 -0.12000000000000001
      vertex 100.67999999999999 0.079999999999999974 -0.079999999999999988
      vertex 100.72 0.12 -0.12000000000000001
    endloop
  endfacet
  facet normal 0 -0.24253562503633788 0.97014250014533066
    outer loop
      vertex 100.72 20.120000000000001 -0.12000000000000001
      vertex 100.8 20.120000000000001 -0.12000000000000001
      vertex 100.8 20.199999999999999 -0.10000000000000001
    endloop
  endfacet
  facet normal 0 -0.24253562503633791 0.97014250014533077
    outer loop
      vertex 100.59999999999999 20.120000000000001 -0.12000000000000001
      vertex 100.72 20.120000000000001 -0.12000000000000001
      vertex 100.8 20.199999999999999 -0.10000000000000001
    endloop
  endfacet
  facet normal 0 -0.24253562503633788 0.97014250014533077
    outer loop
      vertex 100.59999999999999 20.120000000000001 -0.12000000000000001
      vertex 100.8 20.199999999999999 -0.10000000000000001
      vertex 100.59999999999999 20.199999999999999 -0.10000000000000001
    endloop
  endfacet
  facet normal 0 0 1
    outer loop
      vertex 100.59999999999999 20.199999999999999 -0.10000000000000001
      vertex 100.8 20.199999999999999 -0.10000000000000001
      vertex 100.8 40 -0.10000000000000001
    endloop
  endfacet
  facet normal 0 0 1
    outer loop
      vertex 100.59999999999999 20.199999999999999 -0.10000000000000001
      vertex 100.8 40 -0.10000000000000001
      vertex 100.59999999999999 40 -0.10000000000000001
    endloop
  endfacet
  facet normal 0 -0.24253562503633805 0.97014250014533054
    outer loop
      vertex 100.67999999999999 40.079999999999998 -0.079999999999999988
      vertex 100.59999999999999 40 -0.10000000000000001
      vertex 100.8 40 -0.10000000000000001
    endloop
  endfacet
  facet normal 0 -0.24253562503633805 0.97014250014533054
    outer loop
      vertex 100.67999999999999 40.079999999999998 -0.079999999999999988
      vertex 100.8 40 -0.10000000000000001
      vertex 100.8 40.079999999999998 -0.079999999999999988
    endloop
  endfacet
  facet normal 0 -0.24253562503633805 0.97014250014533066
    outer loop
      vertex 100.59999999999999 40.079999999999998 -0.079999999999999988
      vertex 100.59999999999999 40 -0.10000000000000001
      vertex 100.67999999999999 40.079999999999998 -0.079999999999999988
    endloop
  endfacet
  facet normal -0.028272964322664566 0.70682410806658746 0.70682410806669749
    outer loop
      vertex 100.8 -80.079999999999998 -0.12000000000000001
      vertex 100.8 -80.120000000000005 -0.079999999999999988
      vertex 103.8 -80 -0.079999999999999988
    endloop
  endfacet
  facet normal -0.028272964322665402 0.70682410806665019 0.70682410806663476
    outer loop
      vertex 100.8 -80.079999999999998 -0.12000000000000001
      vertex 103.8 -80 -0.079999999999999988
      vertex 102.8 -80 -0.12000000000000001
    endloop
  endfacet
  facet normal -0.039968038348871596 0 0.99920095872178949
    outer loop
      vertex 103.8 -68.120000000000005 -0.079999999999999988
      vertex 102.8 -72.079999999999998 -0.12000000000000001
      vertex 102.8 -80 -0.12000000000000001
    endloop
  endfacet
  facet normal -0.039968038348871603 0 0.99920095872178949
    outer loop
      vertex 103.8 -68.120000000000005 -0.079999999999999988
      vertex 102.8 -80 -0.12000000000000001
      vertex 103.8 -80 -0.079999999999999988
    endloop
  endfacet
  facet normal -0.039968038348871596 0 0.99920095872178949
    outer loop
      vertex 102.8 -72.079999999999998 -0.12000000000000001
      vertex 103.8 -68.120000000000005 -0.079999999999999988
      vertex 103.8 -60.200000000000003 -0.079999999999999988
    endloop
  endfacet
  facet normal -0.039968038348871603 0 0.99920095872178949
    outer loop
      vertex 102.8 -72.079999999999998 -0.12000000000000001
      vertex 103.8 -60.200000000000003 -0.079999999999999988
      vertex 102.8 -60.200000000000003 -0.12000000000000001
    endloop
  endfacet
  facet normal -0.039968038348871603 0 0.99920095872178949
    outer loop
      vertex 103.8 -60.080000000000005 -0.079999999999999988
      vertex 102.8 -60.120000000000005 -0.12000000000000001
      vertex 102.8 -60.200000000000003 -0.12000000000000001
    endloop
  endfacet
  facet normal -0.039968038348871603 0 0.99920095872178938
    outer loop
      vertex 103.8 -60.080000000000005 -0.079999999999999988
      vertex 102.8 -60.200000000000003 -0.12000000000000001
      vertex 103.8 -60.200000000000003 -0.079999999999999988
    endloop
  endfacet
  facet normal 0 -0.70710678118655523 0.70710678118653969
    outer loop
      vertex 100.8 -60.080000000000005 -0.079999999999999988
      vertex 100.8 -60.120000000000005 -0.12000000000000001
      vertex 102.8 -60.120000000000005 -0.12000000000000001
    endloop
  endfacet
  facet normal 0 -0.70710678118655523 0.7071067811865398
    outer loop
      vertex 100.8 -60.080000000000005 -0.079999999999999988
      vertex 102.8 -60.120000000000005 -0.12000000000000001
      vertex 103.8 -60.080000000000005 -0.079999999999999988
    endloop
  endfacet
  facet normal -0.0062468285873950955 0.78085357342438666 0.62468285873950935
    outer loop
      vertex 103.8 0.12000000000000001 -0.12000000000000001
      vertex 102.8 0.079999999999999988 -0.079999999999999988
      vertex 105.8 0.104 -0.079999999999999988
    endloop
  endfacet
  facet normal -0.0062468285873950929 0.78085357342438655 0.62468285873950924
    outer loop
      vertex 103.8 0.12000000000000001 -0.12000000000000001
      vertex 105.8 0.104 -0.079999999999999988
      vertex 105.8 0.13600000000000001 -0.12000000000000001
    endloop
  endfacet
  facet normal 3.833233541708433e-18 0.70710678118654757 0.70710678118654757
    outer loop
      vertex 100.8 0.12000000000000001 -0.12000000000000001
      vertex 100.8 0.079999999999999988 -0.079999999999999988
      vertex 102.8 0.079999999999999974 -0.079999999999999988
    endloop
  endfacet
  facet normal 3.271025955591198e-18 0.70710678118654757 0.70710678118654757
    outer loop
      vertex 100.8 0.12000000000000001 -0.12000000000000001
      vertex 102.8 0.079999999999999974 -0.079999999999999988
      vertex 103.8 0.12 -0.12000000000000001
    endloop
  endfacet
  facet normal 0 -0.24253562503633788 0.97014250014533066
    outer loop
      vertex 103.8 20.120000000000001 -0.12000000000000001
      vertex 105.8 20.120000000000001 -0.12000000000000001
      vertex 105.8 20.199999999999999 -0.10000000000000001
    endloop
  endfacet
  facet normal 0 -0.24253562503633788 0.97014250014533066
    outer loop
      vertex 100.8 20.120000000000001 -0.12000000000000001
      vertex 103.8 20.120000000000001 -0.12000000000000001
      vertex 105.8 20.199999999999999 -0.10000000000000001
    endloop
  endfacet
  facet normal 0 -0.24253562503633788 0.97014250014533066
    outer loop
      vertex 100.8 20.120000000000001 -0.12000000000000001
      vertex 105.8 20.199999999999999 -0.10000000000000001
      vertex 100.8 20.199999999999999 -0.10000000000000001
    endloop
  endfacet
  facet normal 0 0 1
    outer loop
      vertex 100.8 20.199999999999999 -0.10000000000000001
      vertex 105.8 20.199999999999999 -0.10000000000000001
      vertex 105.8 40 -0.10000000000000001
    endloop
  endfacet
  facet normal 0 0 1
    outer loop
      vertex 100.8 20.199999999999999 -0.10000000000000001
      vertex 105.8 40 -0.10000000000000001
      vertex 100.8 40 -0.10000000000000001
    endloop
  endfacet
  facet normal 0 -0.24253562503633805 0.97014250014533066
    outer loop
      vertex 102.8 40.079999999999998 -0.079999999999999988
      vertex 100.8 40 -0.10000000000000001
      vertex 105.8 40 -0.10000000000000001
    endloop
  endfacet
  facet normal 0 -0.24253562503633805 0.97014250014533054
    outer loop
      vertex 102.8 40.079999999999998 -0.079999999999999988
      vertex 105.8 40 -0.10000000000000001
      vertex 105.8 40.079999999999998 -0.079999999999999988
    endloop
  endfacet
  facet normal 0 -0.24253562503633802 0.97014250014533054
    outer loop
      vertex 100.8 40.079999999999998 -0.079999999999999988
      vertex 100.8 40 -0.10000000000000001
      vertex 102.8 40.079999999999998 -0.079999999999999988
    endloop
  endfacet
  facet normal 0 0.78086880944303028 0.62469504755442429
    outer loop
      vertex 105.93599999999999 0.13600000000000001 -0.12000000000000001
      vertex 105.904 0.104 -0.079999999999999988
      vertex 106 0.104 -0.079999999999999988
    endloop
  endfacet
  facet normal -0 0.78086880944303028 0.62469504755442429
    outer loop
      vertex 105.93599999999999 0.13600000000000001 -0.12000000000000001
      vertex 106 0.104 -0.079999999999999988
      vertex 106 0.13600000000000001 -0.12000000000000001
    endloop
  endfacet
  facet normal 0 0.78086880944303039 0.62469504755442429
    outer loop
      vertex 105.8 0.13600000000000001 -0.12000000000000001
      vertex 105.8 0.104 -0.079999999999999988
      vertex 105.904 0.104 -0.079999999999999988
    endloop
  endfacet
  facet normal -0 0.78086880944303039 0.62469504755442418
    outer loop
      vertex 105.8 0.13600000000000001 -0.12000000000000001
      vertex 105.904 0.104 -0.079999999999999988
      vertex 105.93599999999999 0.13600000000000001 -0.12000000000000001
    endloop
  endfacet
  facet normal 0 -0.24253562503633788 0.97014250014533066
    outer loop
      vertex 105.92 20.120000000000001 -0.12000000000000001
      vertex 106 20.120000000000001 -0.12000000000000001
      vertex 106 20.199999999999999 -0.10000000000000001
    endloop
  endfacet
  facet normal 0 -0.24253562503633791 0.97014250014533077
    outer loop
      vertex 105.8 20.120000000000001 -0.12000000000000001
      vertex 105.92 20.120000000000001 -0.12000000000000001
      vertex 106 20.199999999999999 -0.10000000000000001
    endloop
  endfacet
  facet normal 0 -0.24253562503633788 0.97014250014533077
    outer loop
      vertex 105.8 20.120000000000001 -0.12000000000000001
      vertex 106 20.199999999999999 -0.10000000000000001
      vertex 105.8 20.199999999999999 -0.10000000000000001
    endloop
  endfacet
  facet normal 0 0 1
    outer loop
      vertex 105.8 20.199999999999999 -0.10000000000000001
      vertex 106 20.199999999999999 -0.10000000000000001
      vertex 106 40 -0.10000000000000001
    endloop
  endfacet
  facet normal 0 0 1
    outer loop
      vertex 105.8 20.199999999999999 -0.10000000000000001
      vertex 106 40 -0.10000000000000001
      vertex 105.8 40 -0.10000000000000001
    endloop
  endfacet
  facet normal 0 -0.24253562503633805 0.97014250014533054
    outer loop
      vertex 105.88 40.079999999999998 -0.079999999999999988
      vertex 105.8 40 -0.10000000000000001
      vertex 106 40 -0.10000000000000001
    endloop
  endfacet
  facet normal 0 -0.24253562503633805 0.97014250014533054
    outer loop
      vertex 105.88 40.079999999999998 -0.079999999999999988
      vertex 106 40 -0.10000000000000001
      vertex 106 40.079999999999998 -0.079999999999999988
    endloop
  endfacet
  facet normal 0 -0.24253562503633805 0.97014250014533066
    outer loop
      vertex 105.8 40.079999999999998 -0.079999999999999988
      vertex 105.8 40 -0.10000000000000001
      vertex 105.88 40.079999999999998 -0.079999999999999988
    endloop
  endfacet
  facet normal -0.52981294282600322 0.662266178532529 0.52981294282602309
    outer loop
      vertex 106 0.13600000000000001 -0.12000000000000001
      vertex 106 0.104 -0.079999999999999988
      vertex 106.12 0.20000000000000001 -0.079999999999999988
    endloop
  endfacet
  facet normal -0.52981294282599933 0.66226617853248493 0.52981294282608182
    outer loop
      vertex 106 0.13600000000000001 -0.12000000000000001
      vertex 106.12 0.20000000000000001 -0.079999999999999988
      vertex 106.08 0.20000000000000001 -0.12000000000000001
    endloop
  endfacet
  facet normal -0.70710678118649251 0 0.70710678118660264
    outer loop
      vertex 106.12 6.080000000000001 -0.079999999999999988
      vertex 106.08 4.1200000000000001 -0.12000000000000001
      vertex 106.08 0.20000000000000001 -0.12000000000000001
    endloop
  endfacet
  facet normal -0.70710678118649239 0 0.70710678118660253
    outer loop
      vertex 106.12 6.080000000000001 -0.079999999999999988
      vertex 106.08 0.20000000000000001 -0.12000000000000001
      vertex 106.12 0.20000000000000001 -0.079999999999999988
    endloop
  endfacet
  facet normal -0.70710678118649239 0 0.70710678118660264
    outer loop
      vertex 106.08 4.1200000000000001 -0.12000000000000001
      vertex 106.12 6.080000000000001 -0.079999999999999988
      vertex 106.12 10 -0.079999999999999988
    endloop
  endfacet
  facet normal -0.70710678118649239 0 0.70710678118660253
    outer loop
      vertex 106.08 4.1200000000000001 -0.12000000000000001
      vertex 106.12 10 -0.079999999999999988
      vertex 106.08 10 -0.12000000000000001
    endloop
  endfacet
  facet normal -0.70710678118649228 0 0.70710678118660264
    outer loop
      vertex 106.12 10.119999999999999 -0.079999999999999988
      vertex 106.08 10.08 -0.12000000000000001
      vertex 106.08 10 -0.12000000000000001
    endloop
  endfacet
  facet normal -0.70710678118649228 0 0.70710678118660264
    outer loop
      vertex 106.12 10.119999999999999 -0.079999999999999988
      vertex 106.08 10 -0.12000000000000001
      vertex 106.12 10 -0.079999999999999988
    endloop
  endfacet
  facet normal -0.58834840541449407 -0.19611613513819523 0.78446454055277681
    outer loop
      vertex 106.08 10.08 -0.12000000000000001
      vertex 106.12 10.119999999999999 -0.079999999999999988
      vertex 106.09333333333333 10.199999999999999 -0.079999999999999988
    endloop
  endfacet
  facet normal -0.58834840541459643 -0.19611613513816112 0.78446454055270853
    outer loop
      vertex 106.08 10.08 -0.12000000000000001
      vertex 106.09333333333333 10.199999999999999 -0.079999999999999988
      vertex 106.04000000000001 10.199999999999999 -0.12000000000000001
    endloop
  endfacet
  facet normal -0.6000000000000425 0 0.79999999999996818
    outer loop
      vertex 106.09333333333333 14.773333333333333 -0.079999999999999988
      vertex 106.04000000000001 12.16 -0.12000000000000001
      vertex 106.04000000000001 10.199999999999999 -0.12000000000000001
    endloop
  endfacet
  facet normal -0.6000000000000425 0 0.79999999999996818
    outer loop
      vertex 106.09333333333333 14.773333333333333 -0.079999999999999988
      vertex 106.04000000000001 10.199999999999999 -0.12000000000000001
      vertex 106.09333333333333 10.199999999999999 -0.079999999999999988
    endloop
  endfacet
  facet normal -0.60000000000004239 0 0.79999999999996818
    outer loop
      vertex 106.04000000000001 12.159999999999998 -0.12000000000000001
      vertex 106.09333333333333 14.773333333333333 -0.079999999999999988
      vertex 106.09333333333333 20 -0.079999999999999988
    endloop
  endfacet
  facet normal -0.6000000000000425 0 0.79999999999996829
    outer loop
      vertex 106.04000000000001 12.159999999999998 -0.12000000000000001
      vertex 106.09333333333333 20 -0.079999999999999988
      vertex 106.04000000000001 20 -0.12000000000000001
    endloop
  endfacet
  facet normal -0.6000000000000425 0 0.79999999999996807
    outer loop
      vertex 106.09333333333333 20.093333333333334 -0.079999999999999988
      vertex 106.04000000000001 20.039999999999999 -0.12000000000000001
      vertex 106.04000000000001 20 -0.12000000000000001
    endloop
  endfacet
  facet normal -0.6000000000000425 0 0.79999999999996818
    outer loop
      vertex 106.09333333333333 20.093333333333334 -0.079999999999999988
      vertex 106.04000000000001 20 -0.12000000000000001
      vertex 106.09333333333333 20 -0.079999999999999988
    endloop
  endfacet
  facet normal -0.43643578047198928 -0.2182178902360237 0.87287156094395946
    outer loop
      vertex 106 20.120000000000001 -0.12000000000000001
      vertex 106.04000000000001 20.039999999999999 -0.12000000000000001
      vertex 106.09333333333333 20.093333333333334 -0.079999999999999988
    endloop
  endfacet
  facet normal -0.43643578047198117 -0.2182178902359688 0.87287156094397722
    outer loop
      vertex 106 20.120000000000001 -0.12000000000000001
      vertex 106.09333333333333 20.093333333333334 -0.079999999999999988
      vertex 106.04000000000001 20.199999999999999 -0.079999999999999988
    endloop
  endfacet
  facet normal -0.43643578047192938 -0.21821789023600335 0.87287156094399454
    outer loop
      vertex 106 20.120000000000001 -0.12000000000000001
      vertex 106.04000000000001 20.199999999999999 -0.079999999999999988
      vertex 106 20.199999999999999 -0.10000000000000001
    endloop
  endfacet
  facet normal -0.44721359549990231 0 0.89442719099994372
    outer loop
      vertex 106.04000000000001 24.160000000000004 -0.079999999999999988
      vertex 106 20.199999999999999 -0.10000000000000001
      vertex 106.04000000000001 20.199999999999999 -0.079999999999999988
    endloop
  endfacet
  facet normal -0.44721359549990236 0 0.89442719099994372
    outer loop
      vertex 106 20.199999999999999 -0.10000000000000001
      vertex 106.04000000000001 24.160000000000004 -0.079999999999999988
      vertex 106.04000000000001 40 -0.079999999999999988
    endloop
  endfacet
  facet normal -0.44721359549990231 0 0.89442719099994372
    outer loop
      vertex 106 20.199999999999999 -0.10000000000000001
      vertex 106.04000000000001 40 -0.079999999999999988
      vertex 106 40 -0.10000000000000001
    endloop
  endfacet
  facet normal -0.44721359549990236 0 0.89442719099994372
    outer loop
      vertex 106.04000000000001 40.039999999999999 -0.079999999999999988
      vertex 106 40 -0.10000000000000001
      vertex 106.04000000000001 40 -0.079999999999999988
    endloop
  endfacet
  facet normal -0.23570226039548095 -0.23570226039552283 0.94280904158207035
    outer loop
      vertex 106 40.079999999999998 -0.079999999999999988
      vertex 106 40 -0.10000000000000001
      vertex 106.04000000000001 40.039999999999999 -0.079999999999999988
    endloop
  endfacet
  facet normal 0.44721359549990231 0 0.89442719099994361
    outer loop
      vertex 107.36 -84.160000000000011 -0.079999999999999988
      vertex 107.36 -100 -0.079999999999999988
      vertex 107.40000000000001 -100 -0.10000000000000001
    endloop
  endfacet
  facet normal 0.44721359549990231 0 0.89442719099994372
    outer loop
      vertex 107.36 -84.160000000000011 -0.079999999999999988
      vertex 107.40000000000001 -100 -0.10000000000000001
      vertex 107.40000000000001 -80.200000000000003 -0.10000000000000001
    endloop
  endfacet
  facet normal 0.44721359549990231 -0 0.89442719099994361
    outer loop
      vertex 107.36 -84.160000000000011 -0.079999999999999988
      vertex 107.40000000000001 -80.200000000000003 -0.10000000000000001
      vertex 107.36 -80.200000000000003 -0.079999999999999988
    endloop
  endfacet
  facet normal 0.40824829046382072 -0.40824829046382072 0.81649658092776844
    outer loop
      vertex 107.36 -80.200000000000003 -0.079999999999999988
      vertex 107.40000000000001 -80.200000000000003 -0.10000000000000001
      vertex 107.40000000000001 -80.159999999999997 -0.079999999999999988
    endloop
  endfacet
  facet normal 0 0 1
    outer loop
      vertex 107.40000000000001 -100 -0.10000000000000001
      vertex 107.59999999999999 -100 -0.10000000000000001
      vertex 107.59999999999999 -80.200000000000003 -0.10000000000000001
    endloop
  endfacet
  facet normal 0 0 1
    outer loop
      vertex 107.40000000000001 -100 -0.10000000000000001
      vertex 107.59999999999999 -80.200000000000003 -0.10000000000000001
      vertex 107.40000000000001 -80.200000000000003 -0.10000000000000001
    endloop
  endfacet
  facet normal 0 -0.44721359549990236 0.89442719099994383
    outer loop
      vertex 107.44 -80.159999999999997 -0.079999999999999988
      vertex 107.40000000000001 -80.200000000000003 -0.10000000000000001
      vertex 107.59999999999999 -80.200000000000003 -0.10000000000000001
    endloop
  endfacet
  facet normal 0 -0.44721359549990236 0.89442719099994372
    outer loop
      vertex 107.44 -80.159999999999997 -0.079999999999999988
      vertex 107.59999999999999 -80.200000000000003 -0.10000000000000001
      vertex 107.59999999999999 -80.159999999999997 -0.079999999999999988
    endloop
  endfacet
  facet normal 0 -0.44721359549990236 0.89442719099994372
    outer loop
      vertex 107.40000000000001 -80.159999999999997 -0.079999999999999988
      vertex 107.40000000000001 -80.200000000000003 -0.10000000000000001
      vertex 107.44 -80.159999999999997 -0.079999999999999988
    endloop
  endfacet
  facet normal 0 0 1
    outer loop
      vertex 107.59999999999999 -100 -0.10000000000000001
      vertex 107.8 -100 -0.10000000000000001
      vertex 107.8 -80.200000000000003 -0.10000000000000001
    endloop
  endfacet
  facet normal 0 0 1
    outer loop
      vertex 107.59999999999999 -100 -0.10000000000000001
      vertex 107.8 -80.200000000000003 -0.10000000000000001
      vertex 107.59999999999999 -80.200000000000003 -0.10000000000000001
    endloop
  endfacet
  facet normal 0 -0.44721359549990242 0.89442719099994372
    outer loop
      vertex 107.64 -80.159999999999997 -0.079999999999999988
      vertex 107.59999999999999 -80.200000000000003 -0.10000000000000001
      vertex 107.8 -80.200000000000003 -0.10000000000000001
    endloop
  endfacet
  facet normal 0 -0.44721359549990236 0.89442719099994372
    outer loop
      vertex 107.64 -80.159999999999997 -0.079999999999999988
      vertex 107.8 -80.200000000000003 -0.10000000000000001
      vertex 107.8 -80.159999999999997 -0.079999999999999988
    endloop
  endfacet
  facet normal 0 -0.44721359549990231 0.89442719099994372
    outer loop
      vertex 107.59999999999999 -80.159999999999997 -0.079999999999999988
      vertex 107.59999999999999 -80.200000000000003 -0.10000000000000001
      vertex 107.64 -80.159999999999997 -0.079999999999999988
    endloop
  endfacet
  facet normal 0 0 1
    outer loop
      vertex 107.8 -100 -0.10000000000000001
      vertex 108 -100 -0.10000000000000001
      vertex 108 -80.200000000000003 -0.10000000000000001
    endloop
  endfacet
  facet normal 0 0 1
    outer loop
      vertex 107.8 -100 -0.10000000000000001
      vertex 108 -80.200000000000003 -0.10000000000000001
      vertex 107.8 -80.200000000000003 -0.10000000000000001
    endloop
  endfacet
  facet normal 0 -0.44721359549990242 0.89442719099994372
    outer loop
      vertex 107.84 -80.159999999999997 -0.079999999999999988
      vertex 107.8 -80.200000000000003 -0.10000000000000001
      vertex 108 -80.200000000000003 -0.10000000000000001
    endloop
  endfacet
  facet normal 0 -0.44721359549990236 0.89442719099994372
    outer loop
      vertex 107.84 -80.159999999999997 -0.079999999999999988
      vertex 108 -80.200000000000003 -0.10000000000000001
      vertex 108 -80.159999999999997 -0.079999999999999988
    endloop
  endfacet
  facet normal 0 -0.44721359549990231 0.89442719099994372
    outer loop
      vertex 107.8 -80.159999999999997 -0.079999999999999988
      vertex 107.8 -80.200000000000003 -0.10000000000000001
      vertex 107.84 -80.159999999999997 -0.079999999999999988
    endloop
  endfacet
  facet normal -0.44721359549990231 0 0.89442719099994361
    outer loop
      vertex 108.04000000000001 -96.039999999999992 -0.079999999999999988
      vertex 108 -100 -0.10000000000000001
      vertex 108.04000000000001 -100 -0.079999999999999988
    endloop
  endfacet
  facet normal -0.44721359549990231 0 0.89442719099994361
    outer loop
      vertex 108 -100 -0.10000000000000001
      vertex 108.04000000000001 -96.039999999999992 -0.079999999999999988
      vertex 108.04000000000001 -80.200000000000003 -0.079999999999999988
    endloop
  endfacet
  facet normal -0.44721359549990231 0 0.89442719099994372
    outer loop
      vertex 108 -100 -0.10000000000000001
      vertex 108.04000000000001 -80.200000000000003 -0.079999999999999988
      vertex 108 -80.200000000000003 -0.10000000000000001
    endloop
  endfacet
  facet normal -0.44721359549990231 0 0.89442719099994372
    outer loop
      vertex 108.04000000000001 -80.159999999999997 -0.079999999999999988
      vertex 108 -80.200000000000003 -0.10000000000000001
      vertex 108.04000000000001 -80.200000000000003 -0.079999999999999988
    endloop
  endfacet
  facet normal 0 -0.44721359549990231 0.89442719099994372
    outer loop
      vertex 108 -80.159999999999997 -0.079999999999999988
      vertex 108 -80.200000000000003 -0.10000000000000001
      vertex 108.04000000000001 -80.159999999999997 -0.079999999999999988
    endloop
  endfacet
endsolid terrain_band_3
