solid terrain_band_2
  facet normal -0.44721359550002915 0 0.89442719099988033
    outer loop
      vertex 150.07999999999998 -52 0.040000000000000001
      vertex 150.03999999999999 -56 0.02
      vertex 150.03999999999999 -60 0.02
    endloop
  endfacet
  facet normal -0.44721359550002915 0 0.89442719099988033
    outer loop
      vertex 150.07999999999998 -52 0.040000000000000001
      vertex 150.03999999999999 -60 0.02
      vertex 150.07999999999998 -60 0.040000000000000001
    endloop
  endfacet
  facet normal -0.44721359550002915 0 0.89442719099988033
    outer loop
      vertex 150.03999999999999 -56 0.02
      vertex 150.07999999999998 -52 0.040000000000000001
      vertex 150.07999999999998 -40 0.040000000000000001
    endloop
  endfacet
  facet normal -0.44721359550002915 0 0.89442719099988033
    outer loop
      vertex 150.03999999999999 -56 0.02
      vertex 150.07999999999998 -40 0.040000000000000001
      vertex 150.03999999999999 -40 0.02
    endloop
  endfacet
  facet normal -0.44721359550002915 0 0.89442719099988033
    outer loop
      vertex 150.07999999999998 -32 0.040000000000000001
      vertex 150.03999999999999 -36 0.02
      vertex 150.03999999999999 -40 0.02
    endloop
  endfacet
  facet normal -0.44721359550002915 0 0.89442719099988033
    outer loop
      vertex 150.07999999999998 -32 0.040000000000000001
      vertex 150.03999999999999 -40 0.02
      vertex 150.07999999999998 -40 0.040000000000000001
    endloop
  endfacet
  facet normal -0.44721359550002915 0 0.89442719099988033
    outer loop
      vertex 150.03999999999999 -36 0.02
      vertex 150.07999999999998 -32 0.040000000000000001
      vertex 150.07999999999998 -20 0.040000000000000001
    endloop
  endfacet
  facet normal -0.44721359550002915 0 0.89442719099988033
    outer loop
      vertex 150.03999999999999 -36 0.02
      vertex 150.07999999999998 -20 0.040000000000000001
      vertex 150.03999999999999 -20 0.02
    endloop
  endfacet
  facet normal -0.44721359550002915 0 0.89442719099988033
    outer loop
      vertex 150.07999999999998 -16 0.040000000000000001
      vertex 150.03999999999999 -18 0.02
      vertex 150.03999999999999 -20 0.02
    endloop
  endfacet
  facet normal -0.44721359550002915 0 0.89442719099988033
    outer loop
      vertex 150.07999999999998 -16 0.040000000000000001
      vertex 150.03999999999999 -20 0.02
      vertex 150.07999999999998 -20 0.040000000000000001
    endloop
  endfacet
  facet normal -0.44721359550002915 0 0.89442719099988033
    outer loop
      vertex 150.03999999999999 -18 0.02
      vertex 150.07999999999998 -16 0.040000000000000001
      vertex 150.07999999999998 -10 0.040000000000000001
    endloop
  endfacet
  facet normal -0.44721359550002915 0 0.89442719099988033
    outer loop
      vertex 150.03999999999999 -18 0.02
      vertex 150.07999999999998 -10 0.040000000000000001
      vertex 150.03999999999999 -10 0.02
    endloop
  endfacet
  facet normal -0.44721359550002915 0 0.89442719099988033
    outer loop
      vertex 150.07999999999998 -5.9999999999999991 0.040000000000000001
      vertex 150.03999999999999 -7.9999999999999991 0.02
      vertex 150.03999999999999 -10 0.02
    endloop
  endfacet
  facet normal -0.44721359550002909 0 0.89442719099988022
    outer loop
      vertex 150.07999999999998 -5.9999999999999991 0.040000000000000001
      vertex 150.03999999999999 -10 0.02
      vertex 150.07999999999998 -10 0.040000000000000001
    endloop
  endfacet
  facet normal -0.44721359550002915 0 0.89442719099988033
    outer loop
      vertex 150.03999999999999 -8 0.02
      vertex 150.07999999999998 -6 0.040000000000000001
      vertex 150.07999999999998 0 0.040000000000000001
    endloop
  endfacet
  facet normal -0.44721359550002915 0 0.89442719099988033
    outer loop
      vertex 150.03999999999999 -8 0.02
      vertex 150.07999999999998 0 0.040000000000000001
      vertex 150.03999999999999 0 0.02
    endloop
  endfacet
  facet normal -0.44721359550002904 0 0.89442719099988044
    outer loop
      vertex 150.07999999999998 0.00040000000000000007 0.040000000000000001
      vertex 150.03999999999999 0.00020000000000000009 0.02
      vertex 150.03999999999999 0 0.02
    endloop
  endfacet
  facet normal -0.44721359550002904 0 0.89442719099988022
    outer loop
      vertex 150.07999999999998 0.00040000000000000007 0.040000000000000001
      vertex 150.03999999999999 0 0.02
      vertex 150.07999999999998 0 0.040000000000000001
    endloop
  endfacet
  facet normal -0.44721359550002915 0 0.89442719099988022
    outer loop
      vertex 150.03999999999999 0.00019999999999999998 0.02
      vertex 150.07999999999998 0.00039999999999999996 0.040000000000000001
      vertex 150.07999999999998 0.001 0.040000000000000001
    endloop
  endfacet
  facet normal -0.4472135955000292 0 0.89442719099988033
    outer loop
      vertex 150.03999999999999 0.00019999999999999998 0.02
      vertex 150.07999999999998 0.001 0.040000000000000001
      vertex 150.03999999999999 0.001 0.02
    endloop
  endfacet
  facet normal -0.44721359550002915 0 0.89442719099988033
    outer loop
      vertex 150.07999999999998 4.0006000000000004 0.040000000000000001
      vertex 150.03999999999999 2.0007999999999999 0.02
      vertex 150.03999999999999 0.001 0.02
    endloop
  endfacet
  facet normal -0.44721359550002915 0 0.89442719099988033
    outer loop
      vertex 150.07999999999998 4.0006000000000004 0.040000000000000001
      vertex 150.03999999999999 0.001 0.02
      vertex 150.07999999999998 0.001 0.040000000000000001
    endloop
  endfacet
  facet normal -0.44721359550002915 0 0.89442719099988022
    outer loop
      vertex 150.03999999999999 2.0007999999999999 0.02
      vertex 150.07999999999998 4.0006000000000004 0.040000000000000001
      vertex 150.07999999999998 10 0.040000000000000001
    endloop
  endfacet
  facet normal -0.44721359550002915 0 0.89442719099988033
    outer loop
      vertex 150.03999999999999 2.0007999999999999 0.02
      vertex 150.07999999999998 10 0.040000000000000001
      vertex 150.03999999999999 10 0.02
    endloop
  endfacet
  facet normal -0.44721359550002915 0 0.89442719099988033
    outer loop
      vertex 150.07999999999998 14 0.040000000000000001
      vertex 150.03999999999999 12 0.02
      vertex 150.03999999999999 10 0.02
    endloop
  endfacet
  facet normal -0.44721359550002915 0 0.89442719099988033
    outer loop
      vertex 150.07999999999998 14 0.040000000000000001
      vertex 150.03999999999999 10 0.02
      vertex 150.07999999999998 10 0.040000000000000001
    endloop
  endfacet
  facet normal -0.44721359550002915 0 0.89442719099988033
    outer loop
      vertex 150.03999999999999 12 0.02
      vertex 150.07999999999998 14 0.040000000000000001
      vertex 150.07999999999998 20 0.040000000000000001
    endloop
  endfacet
  facet normal -0.44721359550002915 0 0.89442719099988033
    outer loop
      vertex 150.03999999999999 12 0.02
      vertex 150.07999999999998 20 0.040000000000000001
      vertex 150.03999999999999 20 0.02
    endloop
  endfacet
  facet normal -0.44721359550002915 0 0.89442719099988033
    outer loop
      vertex 150.07999999999998 28 0.040000000000000001
      vertex 150.03999999999999 24 0.02
      vertex 150.03999999999999 20 0.02
    endloop
  endfacet
  facet normal -0.44721359550002915 0 0.89442719099988033
    outer loop
      vertex 150.07999999999998 28 0.040000000000000001
      vertex 150.03999999999999 20 0.02
      vertex 150.07999999999998 20 0.040000000000000001
    endloop
  endfacet
  facet normal -0.44721359550002915 0 0.89442719099988033
    outer loop
      vertex 150.03999999999999 24 0.02
      vertex 150.07999999999998 28 0.040000000000000001
      vertex 150.07999999999998 40 0.040000000000000001
    endloop
  endfacet
  facet normal -0.44721359550002915 0 0.89442719099988033
    outer loop
      vertex 150.03999999999999 24 0.02
      vertex 150.07999999999998 40 0.040000000000000001
      vertex 150.03999999999999 40 0.02
    endloop
  endfacet
  facet normal -0.44721359550002915 0 0.89442719099988033
    outer loop
      vertex 150.07999999999998 48 0.040000000000000001
      vertex 150.03999999999999 44 0.02
      vertex 150.03999999999999 40 0.02
    endloop
  endfacet
  facet normal -0.44721359550002915 0 0.89442719099988033
    outer loop
      vertex 150.07999999999998 48 0.040000000000000001
      vertex 150.03999999999999 40 0.02
      vertex 150.07999999999998 40 0.040000000000000001
    endloop
  endfacet
  facet normal -0.44721359550002915 0 0.89442719099988033
    outer loop
      vertex 150.03999999999999 44 0.02
      vertex 150.07999999999998 48 0.040000000000000001
      vertex 150.07999999999998 60 0.040000000000000001
    endloop
  endfacet
  facet normal -0.44721359550002915 0 0.89442719099988033
    outer loop
      vertex 150.03999999999999 44 0.02
      vertex 150.07999999999998 60 0.040000000000000001
      vertex 150.03999999999999 60 0.02
    endloop
  endfacet
  facet normal 0.44721359550002915 0 0.89442719099988033
    outer loop
      vertex 150.96000000000001 -44 0.02
      vertex 150.92000000000002 -48 0.040000000000000001
      vertex 150.92000000000002 -60 0.040000000000000001
    endloop
  endfacet
  facet normal 0.44721359550002915 0 0.89442719099988033
    outer loop
      vertex 150.96000000000001 -44 0.02
      vertex 150.92000000000002 -60 0.040000000000000001
      vertex 150.96000000000001 -60 0.02
    endloop
  endfacet
  facet normal 0.44721359550002915 0 0.89442719099988033
    outer loop
      vertex 150.92000000000002 -48 0.040000000000000001
      vertex 150.96000000000001 -44 0.02
      vertex 150.96000000000001 -40 0.02
    endloop
  endfacet
  facet normal 0.44721359550002915 -0 0.89442719099988033
    outer loop
      vertex 150.92000000000002 -48 0.040000000000000001
      vertex 150.96000000000001 -40 0.02
      vertex 150.92000000000002 -40 0.040000000000000001
    endloop
  endfacet
  facet normal 0.44721359550002915 0 0.89442719099988033
    outer loop
      vertex 150.96000000000001 -24 0.02
      vertex 150.92000000000002 -28 0.040000000000000001
      vertex 150.92000000000002 -40 0.040000000000000001
    endloop
  endfacet
  facet normal 0.44721359550002915 0 0.89442719099988033
    outer loop
      vertex 150.96000000000001 -24 0.02
      vertex 150.92000000000002 -40 0.040000000000000001
      vertex 150.96000000000001 -40 0.02
    endloop
  endfacet
  facet normal 0.44721359550002915 0 0.89442719099988033
    outer loop
      vertex 150.92000000000002 -28 0.040000000000000001
      vertex 150.96000000000001 -24 0.02
      vertex 150.96000000000001 -20 0.02
    endloop
  endfacet
  facet normal 0.44721359550002915 -0 0.89442719099988033
    outer loop
      vertex 150.92000000000002 -28 0.040000000000000001
      vertex 150.96000000000001 -20 0.02
      vertex 150.92000000000002 -20 0.040000000000000001
    endloop
  endfacet
  facet normal 0.44721359550002915 0 0.89442719099988033
    outer loop
      vertex 150.96000000000001 -12 0.02
      vertex 150.92000000000002 -14 0.040000000000000001
      vertex 150.92000000000002 -20 0.040000000000000001
    endloop
  endfacet
  facet normal 0.44721359550002915 0 0.89442719099988033
    outer loop
      vertex 150.96000000000001 -12 0.02
      vertex 150.92000000000002 -20 0.040000000000000001
      vertex 150.96000000000001 -20 0.02
    endloop
  endfacet
  facet normal 0.44721359550002915 0 0.89442719099988033
    outer loop
      vertex 150.92000000000002 -14 0.040000000000000001
      vertex 150.96000000000001 -12 0.02
      vertex 150.96000000000001 -10 0.02
    endloop
  endfacet
  facet normal 0.44721359550002915 -0 0.89442719099988033
    outer loop
      vertex 150.92000000000002 -14 0.040000000000000001
      vertex 150.96000000000001 -10 0.02
      vertex 150.92000000000002 -10 0.040000000000000001
    endloop
  endfacet
  facet normal 0.44721359550002915 0 0.89442719099988033
    outer loop
      vertex 150.96000000000001 -1.9999999999999998 0.02
      vertex 150.92000000000002 -4 0.040000000000000001
      vertex 150.92000000000002 -10 0.040000000000000001
    endloop
  endfacet
  facet normal 0.44721359550002915 0 0.89442719099988033
    outer loop
      vertex 150.96000000000001 -1.9999999999999998 0.02
      vertex 150.92000000000002 -10 0.040000000000000001
      vertex 150.96000000000001 -10 0.02
    endloop
  endfacet
  facet normal 0.44721359550002915 0 0.89442719099988033
    outer loop
      vertex 150.92000000000002 -4.0000000000000009 0.040000000000000001
      vertex 150.96000000000001 -2.0000000000000009 0.02
      vertex 150.96000000000001 0 0.02
    endloop
  endfacet
  facet normal 0.44721359550002909 -0 0.89442719099988022
    outer loop
      vertex 150.92000000000002 -4.0000000000000009 0.040000000000000001
      vertex 150.96000000000001 0 0.02
      vertex 150.92000000000002 0 0.040000000000000001
    endloop
  endfacet
  facet normal 0.44721359550002915 0 0.89442719099988022
    outer loop
      vertex 150.96000000000001 0.00080000000000000004 0.02
      vertex 150.92000000000002 0.00060000000000000006 0.040000000000000001
      vertex 150.92000000000002 0 0.040000000000000001
    endloop
  endfacet
  facet normal 0.4472135955000292 0 0.89442719099988033
    outer loop
      vertex 150.96000000000001 0.00080000000000000004 0.02
      vertex 150.92000000000002 0 0.040000000000000001
      vertex 150.96000000000001 0 0.02
    endloop
  endfacet
  facet normal 0.44721359550002904 0 0.89442719099988044
    outer loop
      vertex 150.92000000000002 0.00059999999999999995 0.040000000000000001
      vertex 150.96000000000001 0.00079999999999999993 0.02
      vertex 150.96000000000001 0.001 0.02
    endloop
  endfacet
  facet normal 0.44721359550002904 -0 0.89442719099988022
    outer loop
      vertex 150.92000000000002 0.00059999999999999995 0.040000000000000001
      vertex 150.96000000000001 0.001 0.02
      vertex 150.92000000000002 0.001 0.040000000000000001
    endloop
  endfacet
  facet normal 0.4472135955000292 0 0.89442719099988033
    outer loop
      vertex 150.96000000000001 8.0001999999999995 0.02
      vertex 150.92000000000002 6.0004 0.040000000000000001
      vertex 150.92000000000002 0.001 0.040000000000000001
    endloop
  endfacet
  facet normal 0.44721359550002915 0 0.89442719099988033
    outer loop
      vertex 150.96000000000001 8.0001999999999995 0.02
      vertex 150.92000000000002 0.001 0.040000000000000001
      vertex 150.96000000000001 0.001 0.02
    endloop
  endfacet
  facet normal 0.44721359550002909 0 0.89442719099988022
    outer loop
      vertex 150.92000000000002 6.0004 0.040000000000000001
      vertex 150.96000000000001 8.0001999999999995 0.02
      vertex 150.96000000000001 10 0.02
    endloop
  endfacet
  facet normal 0.44721359550002915 -0 0.89442719099988033
    outer loop
      vertex 150.92000000000002 6.0004 0.040000000000000001
      vertex 150.96000000000001 10 0.02
      vertex 150.92000000000002 10 0.040000000000000001
    endloop
  endfacet
  facet normal 0.44721359550002915 0 0.89442719099988033
    outer loop
      vertex 150.96000000000001 18 0.02
      vertex 150.92000000000002 16 0.040000000000000001
      vertex 150.92000000000002 10 0.040000000000000001
    endloop
  endfacet
  facet normal 0.44721359550002915 0 0.89442719099988033
    outer loop
      vertex 150.96000000000001 18 0.02
      vertex 150.92000000000002 10 0.040000000000000001
      vertex 150.96000000000001 10 0.02
    endloop
  endfacet
  facet normal 0.44721359550002915 0 0.89442719099988033
    outer loop
      vertex 150.92000000000002 16 0.040000000000000001
      vertex 150.96000000000001 18 0.02
      vertex 150.96000000000001 20 0.02
    endloop
  endfacet
  facet normal 0.44721359550002915 -0 0.89442719099988033
    outer loop
      vertex 150.92000000000002 16 0.040000000000000001
      vertex 150.96000000000001 20 0.02
      vertex 150.92000000000002 20 0.040000000000000001
    endloop
  endfacet
  facet normal 0.44721359550002915 0 0.89442719099988033
    outer loop
      vertex 150.96000000000001 36 0.02
      vertex 150.92000000000002 32 0.040000000000000001
      vertex 150.92000000000002 20 0.040000000000000001
    endloop
  endfacet
  facet normal 0.44721359550002915 0 0.89442719099988033
    outer loop
      vertex 150.96000000000001 36 0.02
      vertex 150.92000000000002 20 0.040000000000000001
      vertex 150.96000000000001 20 0.02
    endloop
  endfacet
  facet normal 0.44721359550002915 0 0.89442719099988033
    outer loop
      vertex 150.92000000000002 32 0.040000000000000001
      vertex 150.96000000000001 36 0.02
      vertex 150.96000000000001 40 0.02
    endloop
  endfacet
  facet normal 0.44721359550002915 -0 0.89442719099988033
    outer loop
      vertex 150.92000000000002 32 0.040000000000000001
      vertex 150.96000000000001 40 0.02
      vertex 150.92000000000002 40 0.040000000000000001
    endloop
  endfacet
  facet normal 0.44721359550002915 0 0.89442719099988033
    outer loop
      vertex 150.96000000000001 56 0.02
      vertex 150.92000000000002 52 0.040000000000000001
      vertex 150.92000000000002 40 0.040000000000000001
    endloop
  endfacet
  facet normal 0.44721359550002915 0 0.89442719099988033
    outer loop
      vertex 150.96000000000001 56 0.02
      vertex 150.92000000000002 40 0.040000000000000001
      vertex 150.96000000000001 40 0.02
    endloop
  endfacet
  facet normal 0.44721359550002915 0 0.89442719099988033
    outer loop
      vertex 150.92000000000002 52 0.040000000000000001
      vertex 150.96000000000001 56 0.02
      vertex 150.96000000000001 60 0.02
    endloop
  endfacet
  facet normal 0.44721359550002915 -0 0.89442719099988033
    outer loop
      vertex 150.92000000000002 52 0.040000000000000001
      vertex 150.96000000000001 60 0.02
      vertex 150.92000000000002 60 0.040000000000000001
    endloop
  endfacet
  facet normal -0.44721359550002915 0 0.89442719099988033
    outer loop
      vertex 175.07999999999998 -52 0.040000000000000001
      vertex 175.03999999999999 -56 0.02
      vertex 175.03999999999999 -60 0.02
    endloop
  endfacet
  facet normal -0.44721359550002915 0 0.89442719099988033
    outer loop
      vertex 175.07999999999998 -52 0.040000000000000001
      vertex 175.03999999999999 -60 0.02
      vertex 175.07999999999998 -60 0.040000000000000001
    endloop
  endfacet
  facet normal -0.44721359550002915 0 0.89442719099988033
    outer loop
      vertex 175.03999999999999 -56 0.02
      vertex 175.07999999999998 -52 0.040000000000000001
      vertex 175.07999999999998 -40 0.040000000000000001
    endloop
  endfacet
  facet normal -0.44721359550002915 0 0.89442719099988033
    outer loop
      vertex 175.03999999999999 -56 0.02
      vertex 175.07999999999998 -40 0.040000000000000001
      vertex 175.03999999999999 -40 0.02
    endloop
  endfacet
  facet normal -0.44721359550002915 0 0.89442719099988033
    outer loop
      vertex 175.07999999999998 -32 0.040000000000000001
      vertex 175.03999999999999 -36 0.02
      vertex 175.03999999999999 -40 0.02
    endloop
  endfacet
  facet normal -0.44721359550002915 0 0.89442719099988033
    outer loop
      vertex 175.07999999999998 -32 0.040000000000000001
      vertex 175.03999999999999 -40 0.02
      vertex 175.07999999999998 -40 0.040000000000000001
    endloop
  endfacet
  facet normal -0.44721359550002915 0 0.89442719099988033
    outer loop
      vertex 175.03999999999999 -36 0.02
      vertex 175.07999999999998 -32 0.040000000000000001
      vertex 175.07999999999998 -20 0.040000000000000001
    endloop
  endfacet
  facet normal -0.44721359550002915 0 0.89442719099988033
    outer loop
      vertex 175.03999999999999 -36 0.02
      vertex 175.07999999999998 -20 0.040000000000000001
      vertex 175.03999999999999 -20 0.02
    endloop
  endfacet
  facet normal -0.44721359550002915 0 0.89442719099988033
    outer loop
      vertex 175.07999999999998 -16 0.040000000000000001
      vertex 175.03999999999999 -18 0.02
      vertex 175.03999999999999 -20 0.02
    endloop
  endfacet
  facet normal -0.44721359550002915 0 0.89442719099988033
    outer loop
      vertex 175.07999999999998 -16 0.040000000000000001
      vertex 175.03999999999999 -20 0.02
      vertex 175.07999999999998 -20 0.040000000000000001
    endloop
  endfacet
  facet normal -0.44721359550002915 0 0.89442719099988033
    outer loop
      vertex 175.03999999999999 -18 0.02
      vertex 175.07999999999998 -16 0.040000000000000001
      vertex 175.07999999999998 -10 0.040000000000000001
    endloop
  endfacet
  facet normal -0.44721359550002915 0 0.89442719099988033
    outer loop
      vertex 175.03999999999999 -18 0.02
      vertex 175.07999999999998 -10 0.040000000000000001
      vertex 175.03999999999999 -10 0.02
    endloop
  endfacet
  facet normal -0.44721359550002915 0 0.89442719099988033
    outer loop
      vertex 175.07999999999998 -5.9999999999999991 0.040000000000000001
      vertex 175.03999999999999 -7.9999999999999991 0.02
      vertex 175.03999999999999 -10 0.02
    endloop
  endfacet
  facet normal -0.44721359550002909 0 0.89442719099988022
    outer loop
      vertex 175.07999999999998 -5.9999999999999991 0.040000000000000001
      vertex 175.03999999999999 -10 0.02
      vertex 175.07999999999998 -10 0.040000000000000001
    endloop
  endfacet
  facet normal -0.44721359550002915 0 0.89442719099988033
    outer loop
      vertex 175.03999999999999 -8 0.02
      vertex 175.07999999999998 -6 0.040000000000000001
      vertex 175.07999999999998 0 0.040000000000000001
    endloop
  endfacet
  facet normal -0.44721359550002915 0 0.89442719099988033
    outer loop
      vertex 175.03999999999999 -8 0.02
      vertex 175.07999999999998 0 0.040000000000000001
      vertex 175.03999999999999 0 0.02
    endloop
  endfacet
  facet normal -0.44721359550002904 0 0.89442719099988044
    outer loop
      vertex 175.07999999999998 0.00040000000000000007 0.040000000000000001
      vertex 175.03999999999999 0.00020000000000000009 0.02
      vertex 175.03999999999999 0 0.02
    endloop
  endfacet
  facet normal -0.44721359550002904 0 0.89442719099988022
    outer loop
      vertex 175.07999999999998 0.00040000000000000007 0.040000000000000001
      vertex 175.03999999999999 0 0.02
      vertex 175.07999999999998 0 0.040000000000000001
    endloop
  endfacet
  facet normal -0.44721359550002915 0 0.89442719099988022
    outer loop
      vertex 175.03999999999999 0.00019999999999999998 0.02
      vertex 175.07999999999998 0.00039999999999999996 0.040000000000000001
      vertex 175.07999999999998 0.001 0.040000000000000001
    endloop
  endfacet
  facet normal -0.4472135955000292 0 0.89442719099988033
    outer loop
      vertex 175.03999999999999 0.00019999999999999998 0.02
      vertex 175.07999999999998 0.001 0.040000000000000001
      vertex 175.03999999999999 0.001 0.02
    endloop
  endfacet
  facet normal -0.44721359550002915 0 0.89442719099988033
    outer loop
      vertex 175.07999999999998 4.0006000000000004 0.040000000000000001
      vertex 175.03999999999999 2.0007999999999999 0.02
      vertex 175.03999999999999 0.001 0.02
    endloop
  endfacet
  facet normal -0.44721359550002915 0 0.89442719099988033
    outer loop
      vertex 175.07999999999998 4.0006000000000004 0.040000000000000001
      vertex 175.03999999999999 0.001 0.02
      vertex 175.07999999999998 0.001 0.040000000000000001
    endloop
  endfacet
  facet normal -0.44721359550002915 0 0.89442719099988022
    outer loop
      vertex 175.03999999999999 2.0007999999999999 0.02
      vertex 175.07999999999998 4.0006000000000004 0.040000000000000001
      vertex 175.07999999999998 10 0.040000000000000001
    endloop
  endfacet
  facet normal -0.44721359550002915 0 0.89442719099988033
    outer loop
      vertex 175.03999999999999 2.0007999999999999 0.02
      vertex 175.07999999999998 10 0.040000000000000001
      vertex 175.03999999999999 10 0.02
    endloop
  endfacet
  facet normal -0.44721359550002915 0 0.89442719099988033
    outer loop
      vertex 175.07999999999998 14 0.040000000000000001
      vertex 175.03999999999999 12 0.02
      vertex 175.03999999999999 10 0.02
    endloop
  endfacet
  facet normal -0.44721359550002915 0 0.89442719099988033
    outer loop
      vertex 175.07999999999998 14 0.040000000000000001
      vertex 175.03999999999999 10 0.02
      vertex 175.07999999999998 10 0.040000000000000001
    endloop
  endfacet
  facet normal -0.44721359550002915 0 0.89442719099988033
    outer loop
      vertex 175.03999999999999 12 0.02
      vertex 175.07999999999998 14 0.040000000000000001
      vertex 175.07999999999998 20 0.040000000000000001
    endloop
  endfacet
  facet normal -0.44721359550002915 0 0.89442719099988033
    outer loop
      vertex 175.03999999999999 12 0.02
      vertex 175.07999999999998 20 0.040000000000000001
      vertex 175.03999999999999 20 0.02
    endloop
  endfacet
  facet normal -0.44721359550002915 0 0.89442719099988033
    outer loop
      vertex 175.07999999999998 28 0.040000000000000001
      vertex 175.03999999999999 24 0.02
      vertex 175.03999999999999 20 0.02
    endloop
  endfacet
  facet normal -0.44721359550002915 0 0.89442719099988033
    outer loop
      vertex 175.07999999999998 28 0.040000000000000001
      vertex 175.03999999999999 20 0.02
      vertex 175.07999999999998 20 0.040000000000000001
    endloop
  endfacet
  facet normal -0.44721359550002915 0 0.89442719099988033
    outer loop
      vertex 175.03999999999999 24 0.02
      vertex 175.07999999999998 28 0.040000000000000001
      vertex 175.07999999999998 40 0.040000000000000001
    endloop
  endfacet
  facet normal -0.44721359550002915 0 0.89442719099988033
    outer loop
      vertex 175.03999999999999 24 0.02
      vertex 175.07999999999998 40 0.040000000000000001
      vertex 175.03999999999999 40 0.02
    endloop
  endfacet
  facet normal -0.44721359550002915 0 0.89442719099988033
    outer loop
      vertex 175.07999999999998 48 0.040000000000000001
      vertex 175.03999999999999 44 0.02
      vertex 175.03999999999999 40 0.02
    endloop
  endfacet
  facet normal -0.44721359550002915 0 0.89442719099988033
    outer loop
      vertex 175.07999999999998 48 0.040000000000000001
      vertex 175.03999999999999 40 0.02
      vertex 175.07999999999998 40 0.040000000000000001
    endloop
  endfacet
  facet normal -0.44721359550002915 0 0.89442719099988033
    outer loop
      vertex 175.03999999999999 44 0.02
      vertex 175.07999999999998 48 0.040000000000000001
      vertex 175.07999999999998 60 0.040000000000000001
    endloop
  endfacet
  facet normal -0.44721359550002915 0 0.89442719099988033
    outer loop
      vertex 175.03999999999999 44 0.02
      vertex 175.07999999999998 60 0.040000000000000001
      vertex 175.03999999999999 60 0.02
    endloop
  endfacet
  facet normal 0.44721359550002915 0 0.89442719099988033
    outer loop
      vertex 177.96000000000001 -44 0.02
      vertex 177.92000000000002 -48 0.040000000000000001
      vertex 177.92000000000002 -60 0.040000000000000001
    endloop
  endfacet
  facet normal 0.44721359550002915 0 0.89442719099988033
    outer loop
      vertex 177.96000000000001 -44 0.02
      vertex 177.92000000000002 -60 0.040000000000000001
      vertex 177.96000000000001 -60 0.02
    endloop
  endfacet
  facet normal 0.44721359550002915 0 0.89442719099988033
    outer loop
      vertex 177.92000000000002 -48 0.040000000000000001
      vertex 177.96000000000001 -44 0.02
      vertex 177.96000000000001 -40 0.02
    endloop
  endfacet
  facet normal 0.44721359550002915 -0 0.89442719099988033
    outer loop
      vertex 177.92000000000002 -48 0.040000000000000001
      vertex 177.96000000000001 -40 0.02
      vertex 177.92000000000002 -40 0.040000000000000001
    endloop
  endfacet
  facet normal 0.44721359550002915 0 0.89442719099988033
    outer loop
      vertex 177.96000000000001 -24 0.02
      vertex 177.92000000000002 -28 0.040000000000000001
      vertex 177.92000000000002 -40 0.040000000000000001
    endloop
  endfacet
  facet normal 0.44721359550002915 0 0.89442719099988033
    outer loop
      vertex 177.96000000000001 -24 0.02
      vertex 177.92000000000002 -40 0.040000000000000001
      vertex 177.96000000000001 -40 0.02
    endloop
  endfacet
  facet normal 0.44721359550002915 0 0.89442719099988033
    outer loop
      vertex 177.92000000000002 -28 0.040000000000000001
      vertex 177.96000000000001 -24 0.02
      vertex 177.96000000000001 -20 0.02
    endloop
  endfacet
  facet normal 0.44721359550002915 -0 0.89442719099988033
    outer loop
      vertex 177.92000000000002 -28 0.040000000000000001
      vertex 177.96000000000001 -20 0.02
      vertex 177.92000000000002 -20 0.040000000000000001
    endloop
  endfacet
  facet normal 0.44721359550002915 0 0.89442719099988033
    outer loop
      vertex 177.96000000000001 -12 0.02
      vertex 177.92000000000002 -14 0.040000000000000001
      vertex 177.92000000000002 -20 0.040000000000000001
    endloop
  endfacet
  facet normal 0.44721359550002915 0 0.89442719099988033
    outer loop
      vertex 177.96000000000001 -12 0.02
      vertex 177.92000000000002 -20 0.040000000000000001
      vertex 177.96000000000001 -20 0.02
    endloop
  endfacet
  facet normal 0.44721359550002915 0 0.89442719099988033
    outer loop
      vertex 177.92000000000002 -14 0.040000000000000001
      vertex 177.96000000000001 -12 0.02
      vertex 177.96000000000001 -10 0.02
    endloop
  endfacet
  facet normal 0.44721359550002915 -0 0.89442719099988033
    outer loop
      vertex 177.92000000000002 -14 0.040000000000000001
      vertex 177.96000000000001 -10 0.02
      vertex 177.92000000000002 -10 0.040000000000000001
    endloop
  endfacet
  facet normal 0.44721359550002915 0 0.89442719099988033
    outer loop
      vertex 177.96000000000001 -1.9999999999999998 0.02
      vertex 177.92000000000002 -4 0.040000000000000001
      vertex 177.92000000000002 -10 0.040000000000000001
    endloop
  endfacet
  facet normal 0.44721359550002915 0 0.89442719099988033
    outer loop
      vertex 177.96000000000001 -1.9999999999999998 0.02
      vertex 177.92000000000002 -10 0.040000000000000001
      vertex 177.96000000000001 -10 0.02
    endloop
  endfacet
  facet normal 0.44721359550002915 0 0.89442719099988033
    outer loop
      vertex 177.92000000000002 -4.0000000000000009 0.040000000000000001
      vertex 177.96000000000001 -2.0000000000000009 0.02
      vertex 177.96000000000001 0 0.02
    endloop
  endfacet
  facet normal 0.44721359550002909 -0 0.89442719099988022
    outer loop
      vertex 177.92000000000002 -4.0000000000000009 0.040000000000000001
      vertex 177.96000000000001 0 0.02
      vertex 177.92000000000002 0 0.040000000000000001
    endloop
  endfacet
  facet normal 0.44721359550002915 0 0.89442719099988022
    outer loop
      vertex 177.96000000000001 0.00080000000000000004 0.02
      vertex 177.92000000000002 0.00060000000000000006 0.040000000000000001
      vertex 177.92000000000002 0 0.040000000000000001
    endloop
  endfacet
  facet normal 0.4472135955000292 0 0.89442719099988033
    outer loop
      vertex 177.96000000000001 0.00080000000000000004 0.02
      vertex 177.92000000000002 0 0.040000000000000001
      vertex 177.96000000000001 0 0.02
    endloop
  endfacet
  facet normal 0.44721359550002904 0 0.89442719099988044
    outer loop
      vertex 177.92000000000002 0.00059999999999999995 0.040000000000000001
      vertex 177.96000000000001 0.00079999999999999993 0.02
      vertex 177.96000000000001 0.001 0.02
    endloop
  endfacet
  facet normal 0.44721359550002904 -0 0.89442719099988022
    outer loop
      vertex 177.92000000000002 0.00059999999999999995 0.040000000000000001
      vertex 177.96000000000001 0.001 0.02
      vertex 177.92000000000002 0.001 0.040000000000000001
    endloop
  endfacet
  facet normal 0.4472135955000292 0 0.89442719099988033
    outer loop
      vertex 177.96000000000001 8.0001999999999995 0.02
      vertex 177.92000000000002 6.0004 0.040000000000000001
      vertex 177.92000000000002 0.001 0.040000000000000001
    endloop
  endfacet
  facet normal 0.44721359550002915 0 0.89442719099988033
    outer loop
      vertex 177.96000000000001 8.0001999999999995 0.02
      vertex 177.92000000000002 0.001 0.040000000000000001
      vertex 177.96000000000001 0.001 0.02
    endloop
  endfacet
  facet normal 0.44721359550002909 0 0.89442719099988022
    outer loop
      vertex 177.92000000000002 6.0004 0.040000000000000001
      vertex 177.96000000000001 8.0001999999999995 0.02
      vertex 177.96000000000001 10 0.02
    endloop
  endfacet
  facet normal 0.44721359550002915 -0 0.89442719099988033
    outer loop
      vertex 177.92000000000002 6.0004 0.040000000000000001
      vertex 177.96000000000001 10 0.02
      vertex 177.92000000000002 10 0.040000000000000001
    endloop
  endfacet
  facet normal 0.44721359550002915 0 0.89442719099988033
    outer loop
      vertex 177.96000000000001 18 0.02
      vertex 177.92000000000002 16 0.040000000000000001
      vertex 177.92000000000002 10 0.040000000000000001
    endloop
  endfacet
  facet normal 0.44721359550002915 0 0.89442719099988033
    outer loop
      vertex 177.96000000000001 18 0.02
      vertex 177.92000000000002 10 0.040000000000000001
      vertex 177.96000000000001 10 0.02
    endloop
  endfacet
  facet normal 0.44721359550002915 0 0.89442719099988033
    outer loop
      vertex 177.92000000000002 16 0.040000000000000001
      vertex 177.96000000000001 18 0.02
      vertex 177.96000000000001 20 0.02
    endloop
  endfacet
  facet normal 0.44721359550002915 -0 0.89442719099988033
    outer loop
      vertex 177.92000000000002 16 0.040000000000000001
      vertex 177.96000000000001 20 0.02
      vertex 177.92000000000002 20 0.040000000000000001
    endloop
  endfacet
  facet normal 0.44721359550002915 0 0.89442719099988033
    outer loop
      vertex 177.96000000000001 36 0.02
      vertex 177.92000000000002 32 0.040000000000000001
      vertex 177.92000000000002 20 0.040000000000000001
    endloop
  endfacet
  facet normal 0.44721359550002915 0 0.89442719099988033
    outer loop
      vertex 177.96000000000001 36 0.02
      vertex 177.92000000000002 20 0.040000000000000001
      vertex 177.96000000000001 20 0.02
    endloop
  endfacet
  facet normal 0.44721359550002915 0 0.89442719099988033
    outer loop
      vertex 177.92000000000002 32 0.040000000000000001
      vertex 177.96000000000001 36 0.02
      vertex 177.96000000000001 40 0.02
    endloop
  endfacet
  facet normal 0.44721359550002915 -0 0.89442719099988033
    outer loop
      vertex 177.92000000000002 32 0.040000000000000001
      vertex 177.96000000000001 40 0.02
      vertex 177.92000000000002 40 0.040000000000000001
    endloop
  endfacet
  facet normal 0.44721359550002915 0 0.89442719099988033
    outer loop
      vertex 177.96000000000001 56 0.02
      vertex 177.92000000000002 52 0.040000000000000001
      vertex 177.92000000000002 40 0.040000000000000001
    endloop
  endfacet
  facet normal 0.44721359550002915 0 0.89442719099988033
    outer loop
      vertex 177.96000000000001 56 0.02
      vertex 177.92000000000002 40 0.040000000000000001
      vertex 177.96000000000001 40 0.02
    endloop
  endfacet
  facet normal 0.44721359550002915 0 0.89442719099988033
    outer loop
      vertex 177.92000000000002 52 0.040000000000000001
      vertex 177.96000000000001 56 0.02
      vertex 177.96000000000001 60 0.02
    endloop
  endfacet
  facet normal 0.44721359550002915 -0 0.89442719099988033
    outer loop
      vertex 177.92000000000002 52 0.040000000000000001
      vertex 177.96000000000001 60 0.02
      vertex 177.92000000000002 60 0.040000000000000001
    endloop
  endfacet
endsolid terrain_band_2
