solid terrain_band_5
  facet normal 0 0.44721359549995798 0.89442719099991597
    outer loop
      vertex 51.280000000000001 0.080000000000000016 -0.040000000000000008
      vertex 51.200000000000003 0 0
      vertex 51.399999999999999 0 0
    endloop
  endfacet
  facet normal -0 0.44721359549995793 0.89442719099991586
    outer loop
      vertex 51.280000000000001 0.080000000000000016 -0.040000000000000008
      vertex 51.399999999999999 0 0
      vertex 51.399999999999999 0.080000000000000016 -0.040000000000000008
    endloop
  endfacet
  facet normal 0.44721359549996559 0 0.89442719099991208
    outer loop
      vertex 51.200000000000003 0 0
      vertex 51.280000000000001 0.080000000000000016 -0.040000000000000008
      vertex 51.280000000000001 0.20000000000000001 -0.040000000000000008
    endloop
  endfacet
  facet normal 0.44721359549996564 -0 0.89442719099991208
    outer loop
      vertex 51.200000000000003 0 0
      vertex 51.280000000000001 0.20000000000000001 -0.040000000000000008
      vertex 51.200000000000003 0.20000000000000001 0
    endloop
  endfacet
  facet normal 0.44721359549996564 0 0.89442719099991208
    outer loop
      vertex 51.280000000000001 4.1200000000000001 -0.040000000000000008
      vertex 51.200000000000003 0.20000000000000001 0
      vertex 51.280000000000001 0.20000000000000001 -0.040000000000000008
    endloop
  endfacet
  facet normal 0.4472135954999657 0 0.89442719099991208
    outer loop
      vertex 51.200000000000003 0.20000000000000001 0
      vertex 51.280000000000001 4.120000000000001 -0.040000000000000008
      vertex 51.280000000000001 10 -0.040000000000000008
    endloop
  endfacet
  facet normal 0.44721359549996564 -0 0.89442719099991208
    outer loop
      vertex 51.200000000000003 0.20000000000000001 0
      vertex 51.280000000000001 10 -0.040000000000000008
      vertex 51.200000000000003 10 0
    endloop
  endfacet
  facet normal 0.43643578047199239 -0.21821789023599134 0.87287156094396601
    outer loop
      vertex 51.359999999999999 10.16 -0.040000000000000008
      vertex 51.200000000000003 10 0
      vertex 51.280000000000001 10 -0.040000000000000008
    endloop
  endfacet
  facet normal 0.2425356250363378 0 0.97014250014533077
    outer loop
      vertex 51.200000000000003 10 0
      vertex 51.359999999999999 10.16 -0.040000000000000008
      vertex 51.359999999999999 10.199999999999999 -0.040000000000000008
    endloop
  endfacet
  facet normal 0.24253562503633785 -0 0.97014250014533066
    outer loop
      vertex 51.200000000000003 10 0
      vertex 51.359999999999999 10.199999999999999 -0.040000000000000008
      vertex 51.200000000000003 10.199999999999999 0
    endloop
  endfacet
  facet normal 0.24253562503633788 0 0.97014250014533066
    outer loop
      vertex 51.359999999999999 18.039999999999999 -0.040000000000000008
      vertex 51.200000000000003 10.199999999999999 0
      vertex 51.359999999999999 10.199999999999999 -0.040000000000000008
    endloop
  endfacet
  facet normal 0.24253562503633783 0 0.97014250014533066
    outer loop
      vertex 51.200000000000003 10.199999999999999 0
      vertex 51.359999999999999 18.040000000000003 -0.040000000000000008
      vertex 51.359999999999999 20 -0.040000000000000008
    endloop
  endfacet
  facet normal 0.24253562503633791 -0 0.97014250014533077
    outer loop
      vertex 51.200000000000003 10.199999999999999 0
      vertex 51.359999999999999 20 -0.040000000000000008
      vertex 51.200000000000003 20 0
    endloop
  endfacet
  facet normal 0.23570226039552036 -0.2357022603955202 0.94280904158206114
    outer loop
      vertex 51.200000000000003 20 0
      vertex 51.359999999999999 20 -0.040000000000000008
      vertex 51.399999999999999 20.039999999999999 -0.040000000000000008
    endloop
  endfacet
  facet normal 0.23570226039551961 -0.23570226039551542 0.94280904158206258
    outer loop
      vertex 51.200000000000003 20 0
      vertex 51.399999999999999 20.039999999999999 -0.040000000000000008
      vertex 51.399999999999999 20.199999999999999 0
    endloop
  endfacet
  facet normal 0 0.44721359549996559 0.89442719099991197
    outer loop
      vertex 51.280000000000001 40.079999999999998 -0.040000000000000008
      vertex 51.200000000000003 40 0
      vertex 51.399999999999999 40 0
    endloop
  endfacet
  facet normal -0 0.44721359549996559 0.89442719099991197
    outer loop
      vertex 51.280000000000001 40.079999999999998 -0.040000000000000008
      vertex 51.399999999999999 40 0
      vertex 51.399999999999999 40.079999999999998 -0.040000000000000008
    endloop
  endfacet
  facet normal 0.44721359549996564 0 0.89442719099991208
    outer loop
      vertex 51.200000000000003 40 0
      vertex 51.280000000000001 40.079999999999998 -0.040000000000000008
      vertex 51.280000000000001 40.200000000000003 -0.040000000000000008
    endloop
  endfacet
  facet normal 0.44721359549996559 -0 0.89442719099991197
    outer loop
      vertex 51.200000000000003 40 0
      vertex 51.280000000000001 40.200000000000003 -0.040000000000000008
      vertex 51.200000000000003 40.200000000000003 0
    endloop
  endfacet
  facet normal 0.44721359549996564 0 0.89442719099991197
    outer loop
      vertex 51.280000000000001 48.120000000000005 -0.040000000000000008
      vertex 51.200000000000003 40.200000000000003 0
      vertex 51.280000000000001 40.200000000000003 -0.040000000000000008
    endloop
  endfacet
  facet normal 0.44721359549996559 0 0.89442719099991197
    outer loop
      vertex 51.200000000000003 40.200000000000003 0
      vertex 51.280000000000001 48.120000000000005 -0.040000000000000008
      vertex 51.280000000000001 60 -0.040000000000000008
    endloop
  endfacet
  facet normal 0.44721359549996559 -0 0.89442719099991197
    outer loop
      vertex 51.200000000000003 40.200000000000003 0
      vertex 51.280000000000001 60 -0.040000000000000008
      vertex 51.200000000000003 60 0
    endloop
  endfacet
  facet normal 0.43643578047199461 0.21821789023596824 0.87287156094397056
    outer loop
      vertex 51.253333333333337 60.053333333333335 -0.040000000000000008
      vertex 51.200000000000003 60 0
      vertex 51.280000000000001 60 -0.040000000000000008
    endloop
  endfacet
  facet normal 0.5999999999999911 0 0.80000000000000659
    outer loop
      vertex 51.200000000000003 60 0
      vertex 51.253333333333337 60.053333333333335 -0.040000000000000008
      vertex 51.253333333333337 60.200000000000003 -0.040000000000000008
    endloop
  endfacet
  facet normal 0.5999999999999911 -0 0.80000000000000648
    outer loop
      vertex 51.200000000000003 60 0
      vertex 51.253333333333337 60.200000000000003 -0.040000000000000008
      vertex 51.200000000000003 60.200000000000003 0
    endloop
  endfacet
  facet normal 0.59999999999999121 0 0.80000000000000659
    outer loop
      vertex 51.253333333333337 65.480000000000004 -0.040000000000000008
      vertex 51.200000000000003 60.200000000000003 0
      vertex 51.253333333333337 60.200000000000003 -0.040000000000000008
    endloop
  endfacet
  facet normal 0.59999999999999121 0 0.80000000000000659
    outer loop
      vertex 51.200000000000003 60.200000000000003 0
      vertex 51.253333333333337 65.480000000000004 -0.040000000000000008
      vertex 51.253333333333337 80 -0.040000000000000008
    endloop
  endfacet
  facet normal 0.59999999999999121 -0 0.80000000000000659
    outer loop
      vertex 51.200000000000003 60.200000000000003 0
      vertex 51.253333333333337 80 -0.040000000000000008
      vertex 51.200000000000003 80 0
    endloop
  endfacet
  facet normal 0.58834840541454381 0.19611613513818127 0.78446454055274295
    outer loop
      vertex 51.240000000000002 80.040000000000006 -0.040000000000000008
      vertex 51.200000000000003 80 0
      vertex 51.253333333333337 80 -0.040000000000000008
    endloop
  endfacet
  facet normal 0.70710678118655512 0 0.70710678118654002
    outer loop
      vertex 51.200000000000003 80 0
      vertex 51.240000000000002 80.040000000000006 -0.040000000000000008
      vertex 51.240000000000002 80.200000000000003 -0.040000000000000008
    endloop
  endfacet
  facet normal 0.70710678118655512 -0 0.70710678118653991
    outer loop
      vertex 51.200000000000003 80 0
      vertex 51.240000000000002 80.200000000000003 -0.040000000000000008
      vertex 51.200000000000003 80.200000000000003 0
    endloop
  endfacet
  facet normal 0.70710678118655512 0 0.7071067811865398
    outer loop
      vertex 51.240000000000002 84.159999999999997 -0.040000000000000008
      vertex 51.200000000000003 80.200000000000003 0
      vertex 51.240000000000002 80.200000000000003 -0.040000000000000008
    endloop
  endfacet
  facet normal 0.70710678118655512 0 0.70710678118653991
    outer loop
      vertex 51.200000000000003 80.200000000000003 0
      vertex 51.240000000000002 84.159999999999997 -0.040000000000000008
      vertex 51.240000000000002 100 -0.040000000000000008
    endloop
  endfacet
  facet normal 0.70710678118655512 -0 0.70710678118653991
    outer loop
      vertex 51.200000000000003 80.200000000000003 0
      vertex 51.240000000000002 100 -0.040000000000000008
      vertex 51.200000000000003 100 0
    endloop
  endfacet
  facet normal 0 0.44721359549995787 0.89442719099991574
    outer loop
      vertex 51.479999999999997 0.080000000000000016 -0.040000000000000008
      vertex 51.399999999999999 0 0
      vertex 51.600000000000001 0 0
    endloop
  endfacet
  facet normal -0 0.44721359549995793 0.89442719099991586
    outer loop
      vertex 51.479999999999997 0.080000000000000016 -0.040000000000000008
      vertex 51.600000000000001 0 0
      vertex 51.600000000000001 0.080000000000000016 -0.040000000000000008
    endloop
  endfacet
  facet normal -0 0.44721359549995793 0.89442719099991586
    outer loop
      vertex 51.399999999999999 0.080000000000000016 -0.040000000000000008
      vertex 51.399999999999999 0 0
      vertex 51.479999999999997 0.080000000000000016 -0.040000000000000008
    endloop
  endfacet
  facet normal 0 -0.2425356250363328 0.97014250014533199
    outer loop
      vertex 51.600000000000001 20.199999999999999 0
      vertex 51.439999999999998 20.039999999999999 -0.040000000000000008
      vertex 51.600000000000001 20.039999999999999 -0.040000000000000008
    endloop
  endfacet
  facet normal 0 -0.2425356250363328 0.97014250014533188
    outer loop
      vertex 51.399999999999999 20.199999999999999 0
      vertex 51.399999999999999 20.039999999999999 -0.040000000000000008
      vertex 51.439999999999998 20.039999999999999 -0.040000000000000008
    endloop
  endfacet
  facet normal 0 -0.2425356250363328 0.97014250014533199
    outer loop
      vertex 51.399999999999999 20.199999999999999 0
      vertex 51.439999999999998 20.039999999999999 -0.040000000000000008
      vertex 51.600000000000001 20.199999999999999 0
    endloop
  endfacet
  facet normal 0 0.44721359549996559 0.89442719099991197
    outer loop
      vertex 51.479999999999997 40.079999999999998 -0.040000000000000008
      vertex 51.399999999999999 40 0
      vertex 51.600000000000001 40 0
    endloop
  endfacet
  facet normal -0 0.44721359549996564 0.89442719099991208
    outer loop
      vertex 51.479999999999997 40.079999999999998 -0.040000000000000008
      vertex 51.600000000000001 40 0
      vertex 51.600000000000001 40.079999999999998 -0.040000000000000008
    endloop
  endfacet
  facet normal -0 0.4472135954999657 0.89442719099991208
    outer loop
      vertex 51.399999999999999 40.079999999999998 -0.040000000000000008
      vertex 51.399999999999999 40 0
      vertex 51.479999999999997 40.079999999999998 -0.040000000000000008
    endloop
  endfacet
  facet normal 0 0.44721359549995793 0.89442719099991586
    outer loop
      vertex 53.600000000000001 0.080000000000000016 -0.040000000000000008
      vertex 51.600000000000001 0 0
      vertex 56.600000000000001 0 0
    endloop
  endfacet
  facet normal -0 0.44721359549995798 0.89442719099991597
    outer loop
      vertex 53.600000000000001 0.080000000000000016 -0.040000000000000008
      vertex 56.600000000000001 0 0
      vertex 56.600000000000001 0.080000000000000016 -0.040000000000000008
    endloop
  endfacet
  facet normal -0 0.44721359549995793 0.89442719099991586
    outer loop
      vertex 51.600000000000001 0.080000000000000016 -0.040000000000000008
      vertex 51.600000000000001 0 0
      vertex 53.600000000000001 0.080000000000000016 -0.040000000000000008
    endloop
  endfacet
  facet normal 0 -0.2425356250363328 0.97014250014533188
    outer loop
      vertex 56.600000000000001 20.199999999999999 0
      vertex 52.600000000000001 20.039999999999999 -0.040000000000000008
      vertex 56.600000000000001 20.039999999999999 -0.040000000000000008
    endloop
  endfacet
  facet normal 0 -0.2425356250363328 0.97014250014533188
    outer loop
      vertex 51.600000000000001 20.199999999999999 0
      vertex 51.600000000000001 20.039999999999999 -0.040000000000000008
      vertex 52.600000000000001 20.039999999999999 -0.040000000000000008
    endloop
  endfacet
  facet normal 0 -0.2425356250363328 0.97014250014533199
    outer loop
      vertex 51.600000000000001 20.199999999999999 0
      vertex 52.600000000000001 20.039999999999999 -0.040000000000000008
      vertex 56.600000000000001 20.199999999999999 0
    endloop
  endfacet
  facet normal 0 0.44721359549996564 0.89442719099991208
    outer loop
      vertex 53.600000000000001 40.079999999999998 -0.040000000000000008
      vertex 51.600000000000001 40 0
      vertex 56.600000000000001 40 0
    endloop
  endfacet
  facet normal -0 0.44721359549996559 0.89442719099991197
    outer loop
      vertex 53.600000000000001 40.079999999999998 -0.040000000000000008
      vertex 56.600000000000001 40 0
      vertex 56.600000000000001 40.079999999999998 -0.040000000000000008
    endloop
  endfacet
  facet normal -0 0.44721359549996564 0.89442719099991208
    outer loop
      vertex 51.600000000000001 40.079999999999998 -0.040000000000000008
      vertex 51.600000000000001 40 0
      vertex 53.600000000000001 40.079999999999998 -0.040000000000000008
    endloop
  endfacet
  facet normal 0 0.44721359549995798 0.89442719099991597
    outer loop
      vertex 56.68 0.080000000000000016 -0.040000000000000008
      vertex 56.600000000000001 0 0
      vertex 56.799999999999997 0 0
    endloop
  endfacet
  facet normal -0 0.44721359549995793 0.89442719099991586
    outer loop
      vertex 56.68 0.080000000000000016 -0.040000000000000008
      vertex 56.799999999999997 0 0
      vertex 56.799999999999997 0.080000000000000016 -0.040000000000000008
    endloop
  endfacet
  facet normal -0 0.44721359549995793 0.89442719099991586
    outer loop
      vertex 56.600000000000001 0.080000000000000016 -0.040000000000000008
      vertex 56.600000000000001 0 0
      vertex 56.68 0.080000000000000016 -0.040000000000000008
    endloop
  endfacet
  facet normal 0 -0.2425356250363328 0.97014250014533188
    outer loop
      vertex 56.799999999999997 20.199999999999999 0
      vertex 56.640000000000001 20.039999999999999 -0.040000000000000008
      vertex 56.799999999999997 20.039999999999999 -0.040000000000000008
    endloop
  endfacet
  facet normal 0 -0.2425356250363328 0.97014250014533188
    outer loop
      vertex 56.600000000000001 20.199999999999999 0
      vertex 56.600000000000001 20.039999999999999 -0.040000000000000008
      vertex 56.640000000000001 20.039999999999999 -0.040000000000000008
    endloop
  endfacet
  facet normal 0 -0.2425356250363328 0.97014250014533199
    outer loop
      vertex 56.600000000000001 20.199999999999999 0
      vertex 56.640000000000001 20.039999999999999 -0.040000000000000008
      vertex 56.799999999999997 20.199999999999999 0
    endloop
  endfacet
  facet normal 0 0.44721359549996559 0.89442719099991197
    outer loop
      vertex 56.68 40.079999999999998 -0.040000000000000008
      vertex 56.600000000000001 40 0
      vertex 56.799999999999997 40 0
    endloop
  endfacet
  facet normal -0 0.44721359549996559 0.89442719099991197
    outer loop
      vertex 56.68 40.079999999999998 -0.040000000000000008
      vertex 56.799999999999997 40 0
      vertex 56.799999999999997 40.079999999999998 -0.040000000000000008
    endloop
  endfacet
  facet normal -0 0.4472135954999657 0.89442719099991208
    outer loop
      vertex 56.600000000000001 40.079999999999998 -0.040000000000000008
      vertex 56.600000000000001 40 0
      vertex 56.68 40.079999999999998 -0.040000000000000008
    endloop
  endfacet
  facet normal -0.017885682339724072 0.44714205849310179 0.89428411698620358
    outer loop
      vertex 56.799999999999997 0.080000000000000016 -0.040000000000000008
      vertex 56.799999999999997 0 0
      vertex 61.799999999999997 0.20000000000000001 0
    endloop
  endfacet
  facet normal -0.017885682339724072 0.44714205849310185 0.89428411698620347
    outer loop
      vertex 56.799999999999997 0.080000000000000016 -0.040000000000000008
      vertex 61.799999999999997 0.20000000000000001 0
      vertex 59.799999999999997 0.20000000000000001 -0.040000000000000008
    endloop
  endfacet
  facet normal -0.019996001199600145 0 0.99980005998000687
    outer loop
      vertex 61.799999999999997 10 0
      vertex 59.799999999999997 6.0799999999999983 -0.040000000000000008
      vertex 59.799999999999997 0.20000000000000001 -0.040000000000000008
    endloop
  endfacet
  facet normal -0.019996001199600145 0 0.99980005998000698
    outer loop
      vertex 61.799999999999997 10 0
      vertex 59.799999999999997 0.20000000000000001 -0.040000000000000008
      vertex 61.799999999999997 0.20000000000000001 0
    endloop
  endfacet
  facet normal -0.019996001199600145 0 0.99980005998000698
    outer loop
      vertex 59.799999999999997 6.0800000000000001 -0.040000000000000008
      vertex 61.799999999999997 10 0
      vertex 59.799999999999997 10 -0.040000000000000008
    endloop
  endfacet
  facet normal -0.019996001199600141 0 0.99980005998000698
    outer loop
      vertex 61.799999999999997 10.199999999999999 0
      vertex 59.799999999999997 10.119999999999999 -0.040000000000000008
      vertex 59.799999999999997 10 -0.040000000000000008
    endloop
  endfacet
  facet normal -0.019996001199600141 0 0.99980005998000687
    outer loop
      vertex 61.799999999999997 10.199999999999999 0
      vertex 59.799999999999997 10 -0.040000000000000008
      vertex 61.799999999999997 10 0
    endloop
  endfacet
  facet normal -0.0097009684960298534 -0.24252421240074612 0.97009684960298515
    outer loop
      vertex 59.799999999999997 10.119999999999999 -0.040000000000000008
      vertex 61.799999999999997 10.199999999999999 0
      vertex 57.799999999999997 10.199999999999999 -0.040000000000000008
    endloop
  endfacet
  facet normal -0.0099995000374968786 0 0.99995000374968757
    outer loop
      vertex 61.799999999999997 20 0
      vertex 57.799999999999997 12.159999999999997 -0.040000000000000008
      vertex 57.799999999999997 10.199999999999999 -0.040000000000000008
    endloop
  endfacet
  facet normal -0.0099995000374968786 0 0.99995000374968757
    outer loop
      vertex 61.799999999999997 20 0
      vertex 57.799999999999997 10.199999999999999 -0.040000000000000008
      vertex 61.799999999999997 10.199999999999999 0
    endloop
  endfacet
  facet normal -0.0099995000374968768 0 0.99995000374968757
    outer loop
      vertex 57.799999999999997 12.159999999999998 -0.040000000000000008
      vertex 61.799999999999997 20 0
      vertex 57.799999999999997 20 -0.040000000000000008
    endloop
  endfacet
  facet normal -0.0099995000374968716 0 0.99995000374968768
    outer loop
      vertex 61.799999999999997 20.199999999999999 0
      vertex 57.799999999999997 20.039999999999999 -0.040000000000000008
      vertex 57.799999999999997 20 -0.040000000000000008
    endloop
  endfacet
  facet normal -0.0099995000374968751 0 0.99995000374968745
    outer loop
      vertex 61.799999999999997 20.199999999999999 0
      vertex 57.799999999999997 20 -0.040000000000000008
      vertex 61.799999999999997 20 0
    endloop
  endfacet
  facet normal 0 -0.2425356250363328 0.97014250014533188
    outer loop
      vertex 56.799999999999997 20.199999999999999 0
      vertex 56.799999999999997 20.039999999999999 -0.040000000000000008
      vertex 57.799999999999997 20.039999999999999 -0.040000000000000008
    endloop
  endfacet
  facet normal 0 -0.2425356250363328 0.97014250014533199
    outer loop
      vertex 56.799999999999997 20.199999999999999 0
      vertex 57.799999999999997 20.039999999999999 -0.040000000000000008
      vertex 61.799999999999997 20.199999999999999 0
    endloop
  endfacet
  facet normal -0.017885682339724634 0.44714205849310951 0.89428411698619981
    outer loop
      vertex 56.799999999999997 40.079999999999998 -0.040000000000000008
      vertex 56.799999999999997 40 0
      vertex 61.799999999999997 40.200000000000003 0
    endloop
  endfacet
  facet normal -0.017885682339724211 0.44714205849308836 0.89428411698621046
    outer loop
      vertex 56.799999999999997 40.079999999999998 -0.040000000000000008
      vertex 61.799999999999997 40.200000000000003 0
      vertex 59.799999999999997 40.200000000000003 -0.040000000000000008
    endloop
  endfacet
  facet normal -0.019996001199600141 0 0.99980005998000698
    outer loop
      vertex 61.799999999999997 60 0
      vertex 59.799999999999997 52.079999999999998 -0.040000000000000008
      vertex 59.799999999999997 40.200000000000003 -0.040000000000000008
    endloop
  endfacet
  facet normal -0.019996001199600141 0 0.99980005998000698
    outer loop
      vertex 61.799999999999997 60 0
      vertex 59.799999999999997 40.200000000000003 -0.040000000000000008
      vertex 61.799999999999997 40.200000000000003 0
    endloop
  endfacet
  facet normal -0.019996001199600145 0 0.99980005998000698
    outer loop
      vertex 59.799999999999997 52.079999999999998 -0.040000000000000008
      vertex 61.799999999999997 60 0
      vertex 59.799999999999997 60 -0.040000000000000008
    endloop
  endfacet
  facet normal -0.019996001199600145 0 0.99980005998000709
    outer loop
      vertex 61.799999999999997 60.200000000000003 0
      vertex 59.799999999999997 60.120000000000005 -0.040000000000000008
      vertex 59.799999999999997 60 -0.040000000000000008
    endloop
  endfacet
  facet normal -0.019996001199600141 0 0.99980005998000687
    outer loop
      vertex 61.799999999999997 60.200000000000003 0
      vertex 59.799999999999997 60 -0.040000000000000008
      vertex 61.799999999999997 60 0
    endloop
  endfacet
  facet normal -0.02909195631332721 0.24243296927773106 0.96973187711090847
    outer loop
      vertex 59.799999999999997 60.120000000000005 -0.040000000000000008
      vertex 61.799999999999997 60.200000000000003 0
      vertex 60.466666666666661 60.200000000000003 -0.040000000000000008
    endloop
  endfacet
  facet normal -0.029986509105670949 0 0.99955030352236673
    outer loop
      vertex 61.799999999999997 80 0
      vertex 60.466666666666661 74.719999999999999 -0.040000000000000008
      vertex 60.466666666666661 60.200000000000003 -0.040000000000000008
    endloop
  endfacet
  facet normal -0.029986509105670956 0 0.99955030352236685
    outer loop
      vertex 61.799999999999997 80 0
      vertex 60.466666666666661 60.200000000000003 -0.040000000000000008
      vertex 61.799999999999997 60.200000000000003 0
    endloop
  endfacet
  facet normal -0.029986509105670956 0 0.99955030352236685
    outer loop
      vertex 60.466666666666661 74.719999999999999 -0.040000000000000008
      vertex 61.799999999999997 80 0
      vertex 60.466666666666661 80 -0.040000000000000008
    endloop
  endfacet
  facet normal -0.029986509105670956 0 0.99955030352236673
    outer loop
      vertex 61.799999999999997 80.200000000000003 0
      vertex 60.466666666666661 80.146666666666675 -0.040000000000000008
      vertex 60.466666666666661 80 -0.040000000000000008
    endloop
  endfacet
  facet normal -0.029986509105670953 0 0.99955030352236673
    outer loop
      vertex 61.799999999999997 80.200000000000003 0
      vertex 60.466666666666661 80 -0.040000000000000008
      vertex 61.799999999999997 80 0
    endloop
  endfacet
  facet normal -0.038776514554655424 0.24235321596662482 0.96941286386638537
    outer loop
      vertex 60.466666666666661 80.146666666666675 -0.040000000000000008
      vertex 61.799999999999997 80.200000000000003 0
      vertex 60.799999999999997 80.200000000000003 -0.040000000000000008
    endloop
  endfacet
  facet normal -0.039968038348871589 0 0.99920095872178949
    outer loop
      vertex 61.799999999999997 100 0
      vertex 60.799999999999997 96.040000000000006 -0.040000000000000008
      vertex 60.799999999999997 80.200000000000003 -0.040000000000000008
    endloop
  endfacet
  facet normal -0.039968038348871582 0 0.99920095872178938
    outer loop
      vertex 61.799999999999997 100 0
      vertex 60.799999999999997 80.200000000000003 -0.040000000000000008
      vertex 61.799999999999997 80.200000000000003 0
    endloop
  endfacet
  facet normal -0.039968038348871582 0 0.99920095872178938
    outer loop
      vertex 60.799999999999997 96.039999999999992 -0.040000000000000008
      vertex 61.799999999999997 100 0
      vertex 60.799999999999997 100 -0.040000000000000008
    endloop
  endfacet
  facet normal 0.0099995000374968595 0 0.99995000374968757
    outer loop
      vertex 66.400000000000006 -84.159999999999997 -0.040000000000000008
      vertex 62.399999999999999 -100 0
      vertex 66.400000000000006 -100 -0.040000000000000008
    endloop
  endfacet
  facet normal 0.0099995000374968578 0 0.99995000374968757
    outer loop
      vertex 62.399999999999999 -100 0
      vertex 66.400000000000006 -84.159999999999997 -0.040000000000000008
      vertex 66.400000000000006 -80.200000000000003 -0.040000000000000008
    endloop
  endfacet
  facet normal 0.0099995000374968595 -0 0.99995000374968757
    outer loop
      vertex 62.399999999999999 -100 0
      vertex 66.400000000000006 -80.200000000000003 -0.040000000000000008
      vertex 62.399999999999999 -80.200000000000003 0
    endloop
  endfacet
  facet normal 0.0079997440122877884 -0.5999808009214902 0.79997440122878005
    outer loop
      vertex 62.399999999999999 -80.200000000000003 0
      vertex 66.400000000000006 -80.200000000000003 -0.040000000000000008
      vertex 67.400000000000006 -80.186666666666667 -0.040000000000000008
    endloop
  endfacet
  facet normal 0.0079997440122874432 -0.59998080092159323 0.79997440122870278
    outer loop
      vertex 62.399999999999999 -80.200000000000003 0
      vertex 67.400000000000006 -80.186666666666667 -0.040000000000000008
      vertex 67.400000000000006 -80.13333333333334 0
    endloop
  endfacet
  facet normal 0 -0.60000000000004239 0.79999999999996829
    outer loop
      vertex 67.466666666666669 -80.13333333333334 0
      vertex 67.413333333333341 -80.186666666666667 -0.040000000000000008
      vertex 67.599999999999994 -80.186666666666667 -0.040000000000000008
    endloop
  endfacet
  facet normal 0 -0.60000000000004239 0.79999999999996829
    outer loop
      vertex 67.466666666666669 -80.13333333333334 0
      vertex 67.599999999999994 -80.186666666666667 -0.040000000000000008
      vertex 67.599999999999994 -80.13333333333334 0
    endloop
  endfacet
  facet normal 0 -0.60000000000004239 0.79999999999996829
    outer loop
      vertex 67.400000000000006 -80.13333333333334 0
      vertex 67.400000000000006 -80.186666666666667 -0.040000000000000008
      vertex 67.413333333333341 -80.186666666666667 -0.040000000000000008
    endloop
  endfacet
  facet normal 0 -0.60000000000004239 0.79999999999996829
    outer loop
      vertex 67.400000000000006 -80.13333333333334 0
      vertex 67.413333333333341 -80.186666666666667 -0.040000000000000008
      vertex 67.466666666666669 -80.13333333333334 0
    endloop
  endfacet
  facet normal 0 -0.60000000000004239 0.79999999999996818
    outer loop
      vertex 68.266666666666666 -80.13333333333334 0
      vertex 67.733333333333334 -80.186666666666667 -0.040000000000000008
      vertex 69.599999999999994 -80.186666666666667 -0.040000000000000008
    endloop
  endfacet
  facet normal 0 -0.6000000000000425 0.79999999999996829
    outer loop
      vertex 68.266666666666666 -80.13333333333334 0
      vertex 69.599999999999994 -80.186666666666667 -0.040000000000000008
      vertex 69.599999999999994 -80.13333333333334 0
    endloop
  endfacet
  facet normal 0 -0.60000000000004239 0.79999999999996818
    outer loop
      vertex 67.599999999999994 -80.13333333333334 0
      vertex 67.599999999999994 -80.186666666666667 -0.040000000000000008
      vertex 67.733333333333334 -80.186666666666667 -0.040000000000000008
    endloop
  endfacet
  facet normal 0 -0.60000000000004239 0.79999999999996829
    outer loop
      vertex 67.599999999999994 -80.13333333333334 0
      vertex 67.733333333333334 -80.186666666666667 -0.040000000000000008
      vertex 68.266666666666666 -80.13333333333334 0
    endloop
  endfacet
  facet normal 0 -0.60000000000004239 0.79999999999996829
    outer loop
      vertex 69.666666666666657 -80.13333333333334 0
      vertex 69.61333333333333 -80.186666666666667 -0.040000000000000008
      vertex 69.799999999999997 -80.186666666666667 -0.040000000000000008
    endloop
  endfacet
  facet normal 0 -0.60000000000004239 0.79999999999996818
    outer loop
      vertex 69.666666666666657 -80.13333333333334 0
      vertex 69.799999999999997 -80.186666666666667 -0.040000000000000008
      vertex 69.799999999999997 -80.13333333333334 0
    endloop
  endfacet
  facet normal 0 -0.60000000000004239 0.79999999999996829
    outer loop
      vertex 69.599999999999994 -80.13333333333334 0
      vertex 69.599999999999994 -80.186666666666667 -0.040000000000000008
      vertex 69.61333333333333 -80.186666666666667 -0.040000000000000008
    endloop
  endfacet
  facet normal 0 -0.60000000000004239 0.79999999999996829
    outer loop
      vertex 69.599999999999994 -80.13333333333334 0
      vertex 69.61333333333333 -80.186666666666667 -0.040000000000000008
      vertex 69.666666666666657 -80.13333333333334 0
    endloop
  endfacet
  facet normal -0.2425356250363378 0 0.97014250014533077
    outer loop
      vertex 70 -80.200000000000003 0
      vertex 69.840000000000003 -96.040000000000006 -0.040000000000000008
      vertex 69.840000000000003 -100 -0.040000000000000008
    endloop
  endfacet
  facet normal -0.24253562503633788 0 0.97014250014533066
    outer loop
      vertex 70 -80.200000000000003 0
      vertex 69.840000000000003 -100 -0.040000000000000008
      vertex 70 -100 0
    endloop
  endfacet
  facet normal -0.24253562503633788 0 0.97014250014533066
    outer loop
      vertex 69.840000000000003 -96.040000000000006 -0.040000000000000008
      vertex 70 -80.200000000000003 0
      vertex 69.840000000000003 -80.200000000000003 -0.040000000000000008
    endloop
  endfacet
  facet normal -0.2425356250363378 0 0.97014250014533066
    outer loop
      vertex 70 -80 0
      vertex 69.840000000000003 -80.159999999999997 -0.040000000000000008
      vertex 69.840000000000003 -80.200000000000003 -0.040000000000000008
    endloop
  endfacet
  facet normal -0.24253562503633788 0 0.97014250014533077
    outer loop
      vertex 70 -80 0
      vertex 69.840000000000003 -80.200000000000003 -0.040000000000000008
      vertex 70 -80.200000000000003 0
    endloop
  endfacet
  facet normal 0.37139067635412637 -0.55708601453118956 0.74278135270817069
    outer loop
      vertex 69.799999999999997 -80.13333333333334 0
      vertex 69.799999999999997 -80.186666666666667 -0.040000000000000008
      vertex 69.840000000000003 -80.159999999999997 -0.040000000000000008
    endloop
  endfacet
  facet normal 0.37139067635413409 -0.55708601453118134 0.74278135270817292
    outer loop
      vertex 69.799999999999997 -80.13333333333334 0
      vertex 69.840000000000003 -80.159999999999997 -0.040000000000000008
      vertex 70 -80 0
    endloop
  endfacet
  facet normal 0 0.24253562503633294 0.97014250014533177
    outer loop
      vertex 94.959999999999994 0.16000000000000003 -0.040000000000000008
      vertex 94.799999999999997 0 0
      vertex 95 0 0
    endloop
  endfacet
  facet normal -0 0.24253562503633297 0.97014250014533188
    outer loop
      vertex 94.959999999999994 0.16000000000000003 -0.040000000000000008
      vertex 95 0 0
      vertex 95 0.16000000000000003 -0.040000000000000008
    endloop
  endfacet
  facet normal 0.2425356250363378 0 0.97014250014533066
    outer loop
      vertex 94.799999999999997 0 0
      vertex 94.959999999999994 0.16000000000000003 -0.040000000000000008
      vertex 94.959999999999994 0.20000000000000001 -0.040000000000000008
    endloop
  endfacet
  facet normal 0.24253562503633785 -0 0.97014250014533054
    outer loop
      vertex 94.799999999999997 0 0
      vertex 94.959999999999994 0.20000000000000001 -0.040000000000000008
      vertex 94.799999999999997 0.20000000000000001 0
    endloop
  endfacet
  facet normal 0.24253562503633791 0 0.97014250014533066
    outer loop
      vertex 94.959999999999994 8.0400000000000009 -0.040000000000000008
      vertex 94.799999999999997 0.20000000000000001 0
      vertex 94.959999999999994 0.20000000000000001 -0.040000000000000008
    endloop
  endfacet
  facet normal 0.24253562503633799 0 0.97014250014533066
    outer loop
      vertex 94.799999999999997 0.20000000000000001 0
      vertex 94.959999999999994 8.0400000000000027 -0.040000000000000008
      vertex 94.959999999999994 10 -0.040000000000000008
    endloop
  endfacet
  facet normal 0.24253562503633791 -0 0.97014250014533077
    outer loop
      vertex 94.799999999999997 0.20000000000000001 0
      vertex 94.959999999999994 10 -0.040000000000000008
      vertex 94.799999999999997 10 0
    endloop
  endfacet
  facet normal 0.23570226039552067 0.23570226039551542 0.94280904158206236
    outer loop
      vertex 94.879999999999995 10.08 -0.040000000000000008
      vertex 94.799999999999997 10 0
      vertex 94.959999999999994 10 -0.040000000000000008
    endloop
  endfacet
  facet normal 0.44721359549996564 0 0.89442719099991208
    outer loop
      vertex 94.799999999999997 10 0
      vertex 94.879999999999995 10.08 -0.040000000000000008
      vertex 94.879999999999995 10.199999999999999 -0.040000000000000008
    endloop
  endfacet
  facet normal 0.44721359549996564 -0 0.89442719099991208
    outer loop
      vertex 94.799999999999997 10 0
      vertex 94.879999999999995 10.199999999999999 -0.040000000000000008
      vertex 94.799999999999997 10.199999999999999 0
    endloop
  endfacet
  facet normal 0.44721359549996564 0 0.89442719099991197
    outer loop
      vertex 94.879999999999995 14.120000000000001 -0.040000000000000008
      vertex 94.799999999999997 10.199999999999999 0
      vertex 94.879999999999995 10.199999999999999 -0.040000000000000008
    endloop
  endfacet
  facet normal 0.44721359549996559 0 0.89442719099991197
    outer loop
      vertex 94.799999999999997 10.199999999999999 0
      vertex 94.879999999999995 14.120000000000001 -0.040000000000000008
      vertex 94.879999999999995 20 -0.040000000000000008
    endloop
  endfacet
  facet normal 0.44721359549996564 -0 0.89442719099991208
    outer loop
      vertex 94.799999999999997 10.199999999999999 0
      vertex 94.879999999999995 20 -0.040000000000000008
      vertex 94.799999999999997 20 0
    endloop
  endfacet
  facet normal 0.43643578047198922 0.2182178902360237 0.87287156094395957
    outer loop
      vertex 94.853333333333325 20.053333333333335 -0.040000000000000008
      vertex 94.799999999999997 20 0
      vertex 94.879999999999995 20 -0.040000000000000008
    endloop
  endfacet
  facet normal 0.60000000000004228 0 0.79999999999996818
    outer loop
      vertex 94.799999999999997 20 0
      vertex 94.853333333333325 20.053333333333335 -0.040000000000000008
      vertex 94.853333333333325 20.199999999999999 -0.040000000000000008
    endloop
  endfacet
  facet normal 0.60000000000004228 -0 0.79999999999996818
    outer loop
      vertex 94.799999999999997 20 0
      vertex 94.853333333333325 20.199999999999999 -0.040000000000000008
      vertex 94.799999999999997 20.199999999999999 0
    endloop
  endfacet
  facet normal 0.60000000000004239 0 0.79999999999996829
    outer loop
      vertex 94.853333333333325 25.48 -0.040000000000000008
      vertex 94.799999999999997 20.199999999999999 0
      vertex 94.853333333333325 20.199999999999999 -0.040000000000000008
    endloop
  endfacet
  facet normal 0.60000000000004239 0 0.79999999999996829
    outer loop
      vertex 94.799999999999997 20.199999999999999 0
      vertex 94.853333333333325 25.48 -0.040000000000000008
      vertex 94.853333333333325 40 -0.040000000000000008
    endloop
  endfacet
  facet normal 0.60000000000004239 -0 0.79999999999996829
    outer loop
      vertex 94.799999999999997 20.199999999999999 0
      vertex 94.853333333333325 40 -0.040000000000000008
      vertex 94.799999999999997 40 0
    endloop
  endfacet
  facet normal 0.5883484054146122 0.19611613513802989 0.78446454055272963
    outer loop
      vertex 94.840000000000003 40.039999999999999 -0.040000000000000008
      vertex 94.799999999999997 40 0
      vertex 94.853333333333325 40 -0.040000000000000008
    endloop
  endfacet
  facet normal 0.70710678118649239 0 0.70710678118660275
    outer loop
      vertex 94.799999999999997 40 0
      vertex 94.840000000000003 40.039999999999999 -0.040000000000000008
      vertex 94.840000000000003 40.200000000000003 -0.040000000000000008
    endloop
  endfacet
  facet normal 0.70710678118649228 -0 0.70710678118660264
    outer loop
      vertex 94.799999999999997 40 0
      vertex 94.840000000000003 40.200000000000003 -0.040000000000000008
      vertex 94.799999999999997 40.200000000000003 0
    endloop
  endfacet
  facet normal 0.70710678118649228 0 0.70710678118660264
    outer loop
      vertex 94.840000000000003 44.160000000000004 -0.040000000000000008
      vertex 94.799999999999997 40.200000000000003 0
      vertex 94.840000000000003 40.200000000000003 -0.040000000000000008
    endloop
  endfacet
  facet normal 0.70710678118649228 0 0.70710678118660275
    outer loop
      vertex 94.799999999999997 40.200000000000003 0
      vertex 94.840000000000003 44.160000000000004 -0.040000000000000008
      vertex 94.840000000000003 60 -0.040000000000000008
    endloop
  endfacet
  facet normal 0.70710678118649228 -0 0.70710678118660275
    outer loop
      vertex 94.799999999999997 40.200000000000003 0
      vertex 94.840000000000003 60 -0.040000000000000008
      vertex 94.799999999999997 60 0
    endloop
  endfacet
  facet normal 0.62469504755440031 -0.46852128566575174 0.6246950475544979
    outer loop
      vertex 94.959999999999994 60.160000000000004 -0.040000000000000008
      vertex 94.799999999999997 60 0
      vertex 94.840000000000003 60 -0.040000000000000008
    endloop
  endfacet
  facet normal 0.24253562503633791 0 0.97014250014533066
    outer loop
      vertex 94.799999999999997 60 0
      vertex 94.959999999999994 60.160000000000004 -0.040000000000000008
      vertex 94.959999999999994 60.200000000000003 -0.040000000000000008
    endloop
  endfacet
  facet normal 0.24253562503633788 -0 0.97014250014533077
    outer loop
      vertex 94.799999999999997 60 0
      vertex 94.959999999999994 60.200000000000003 -0.040000000000000008
      vertex 94.799999999999997 60.200000000000003 0
    endloop
  endfacet
  facet normal 0.24253562503633788 0 0.97014250014533066
    outer loop
      vertex 94.959999999999994 76.040000000000006 -0.040000000000000008
      vertex 94.799999999999997 60.200000000000003 0
      vertex 94.959999999999994 60.200000000000003 -0.040000000000000008
    endloop
  endfacet
  facet normal 0.2425356250363378 0 0.97014250014533077
    outer loop
      vertex 94.799999999999997 60.200000000000003 0
      vertex 94.959999999999994 76.040000000000006 -0.040000000000000008
      vertex 94.959999999999994 80 -0.040000000000000008
    endloop
  endfacet
  facet normal 0.24253562503633788 -0 0.97014250014533066
    outer loop
      vertex 94.799999999999997 60.200000000000003 0
      vertex 94.959999999999994 80 -0.040000000000000008
      vertex 94.799999999999997 80 0
    endloop
  endfacet
  facet normal 0.23570226039552036 0.23570226039552036 0.94280904158206114
    outer loop
      vertex 94.879999999999995 80.079999999999998 -0.040000000000000008
      vertex 94.799999999999997 80 0
      vertex 94.959999999999994 80 -0.040000000000000008
    endloop
  endfacet
  facet normal 0.44721359549996564 0 0.89442719099991208
    outer loop
      vertex 94.799999999999997 80 0
      vertex 94.879999999999995 80.079999999999998 -0.040000000000000008
      vertex 94.879999999999995 80.200000000000003 -0.040000000000000008
    endloop
  endfacet
  facet normal 0.44721359549996559 -0 0.89442719099991197
    outer loop
      vertex 94.799999999999997 80 0
      vertex 94.879999999999995 80.200000000000003 -0.040000000000000008
      vertex 94.799999999999997 80.200000000000003 0
    endloop
  endfacet
  facet normal 0.44721359549996564 0 0.89442719099991197
    outer loop
      vertex 94.879999999999995 88.120000000000005 -0.040000000000000008
      vertex 94.799999999999997 80.200000000000003 0
      vertex 94.879999999999995 80.200000000000003 -0.040000000000000008
    endloop
  endfacet
  facet normal 0.44721359549996559 0 0.89442719099991197
    outer loop
      vertex 94.799999999999997 80.200000000000003 0
      vertex 94.879999999999995 88.120000000000005 -0.040000000000000008
      vertex 94.879999999999995 100 -0.040000000000000008
    endloop
  endfacet
  facet normal 0.44721359549996559 -0 0.89442719099991197
    outer loop
      vertex 94.799999999999997 80.200000000000003 0
      vertex 94.879999999999995 100 -0.040000000000000008
      vertex 94.799999999999997 100 0
    endloop
  endfacet
  facet normal 0 0.24253562503633294 0.97014250014533177
    outer loop
      vertex 95.159999999999997 0.16000000000000003 -0.040000000000000008
      vertex 95 0 0
      vertex 95.200000000000003 0 0
    endloop
  endfacet
  facet normal -0 0.24253562503633297 0.97014250014533188
    outer loop
      vertex 95.159999999999997 0.16000000000000003 -0.040000000000000008
      vertex 95.200000000000003 0 0
      vertex 95.200000000000003 0.16000000000000003 -0.040000000000000008
    endloop
  endfacet
  facet normal -0 0.24253562503633297 0.97014250014533188
    outer loop
      vertex 95 0.16000000000000003 -0.040000000000000008
      vertex 95 0 0
      vertex 95.159999999999997 0.16000000000000003 -0.040000000000000008
    endloop
  endfacet
  facet normal 0 0.70710678118649228 0.70710678118660264
    outer loop
      vertex 95.240000000000009 -80.159999999999997 -0.040000000000000008
      vertex 95.200000000000003 -80.200000000000003 0
      vertex 95.400000000000006 -80.200000000000003 0
    endloop
  endfacet
  facet normal -0 0.70710678118649239 0.70710678118660275
    outer loop
      vertex 95.240000000000009 -80.159999999999997 -0.040000000000000008
      vertex 95.400000000000006 -80.200000000000003 0
      vertex 95.400000000000006 -80.159999999999997 -0.040000000000000008
    endloop
  endfacet
  facet normal 0.70710678118649239 0 0.70710678118660275
    outer loop
      vertex 95.200000000000003 -80.200000000000003 0
      vertex 95.240000000000009 -80.159999999999997 -0.040000000000000008
      vertex 95.240000000000009 -80 -0.040000000000000008
    endloop
  endfacet
  facet normal 0.70710678118649228 -0 0.70710678118660264
    outer loop
      vertex 95.200000000000003 -80.200000000000003 0
      vertex 95.240000000000009 -80 -0.040000000000000008
      vertex 95.200000000000003 -80 0
    endloop
  endfacet
  facet normal 0.70710678118649239 0 0.70710678118660275
    outer loop
      vertex 95.240000000000009 -76.039999999999992 -0.040000000000000008
      vertex 95.200000000000003 -80 0
      vertex 95.240000000000009 -80 -0.040000000000000008
    endloop
  endfacet
  facet normal 0.70710678118649228 0 0.70710678118660264
    outer loop
      vertex 95.200000000000003 -80 0
      vertex 95.240000000000009 -76.040000000000006 -0.040000000000000008
      vertex 95.240000000000009 -60.200000000000003 -0.040000000000000008
    endloop
  endfacet
  facet normal 0.70710678118649228 -0 0.70710678118660275
    outer loop
      vertex 95.200000000000003 -80 0
      vertex 95.240000000000009 -60.200000000000003 -0.040000000000000008
      vertex 95.200000000000003 -60.200000000000003 0
    endloop
  endfacet
  facet normal 0.57735026918960419 -0.57735026918957855 0.57735026918969434
    outer loop
      vertex 95.200000000000003 -60.200000000000003 0
      vertex 95.240000000000009 -60.200000000000003 -0.040000000000000008
      vertex 95.400000000000006 -60.039999999999999 -0.040000000000000008
    endloop
  endfacet
  facet normal 0.57735026918962984 -0.57735026918962984 0.57735026918961752
    outer loop
      vertex 95.200000000000003 -60.200000000000003 0
      vertex 95.400000000000006 -60.039999999999999 -0.040000000000000008
      vertex 95.400000000000006 -60 0
    endloop
  endfacet
  facet normal -0.23570226039551267 0.23570226039551601 0.94280904158206402
    outer loop
      vertex 95.200000000000003 0.16000000000000003 -0.040000000000000008
      vertex 95.200000000000003 0 0
      vertex 95.400000000000006 0.20000000000000001 0
    endloop
  endfacet
  facet normal -0.23570226039551825 0.23570226039555525 0.94280904158205292
    outer loop
      vertex 95.200000000000003 0.16000000000000003 -0.040000000000000008
      vertex 95.400000000000006 0.20000000000000001 0
      vertex 95.240000000000009 0.20000000000000001 -0.040000000000000008
    endloop
  endfacet
  facet normal -0.24253562503633799 0 0.97014250014533066
    outer loop
      vertex 95.400000000000006 10 0
      vertex 95.240000000000009 2.1599999999999975 -0.040000000000000008
      vertex 95.240000000000009 0.20000000000000001 -0.040000000000000008
    endloop
  endfacet
  facet normal -0.24253562503633791 0 0.97014250014533077
    outer loop
      vertex 95.400000000000006 10 0
      vertex 95.240000000000009 0.20000000000000001 -0.040000000000000008
      vertex 95.400000000000006 0.20000000000000001 0
    endloop
  endfacet
  facet normal -0.24253562503633791 0 0.97014250014533066
    outer loop
      vertex 95.240000000000009 2.1599999999999993 -0.040000000000000008
      vertex 95.400000000000006 10 0
      vertex 95.240000000000009 10 -0.040000000000000008
    endloop
  endfacet
  facet normal -0.2425356250363378 0 0.97014250014533077
    outer loop
      vertex 95.400000000000006 10.199999999999999 0
      vertex 95.240000000000009 10.039999999999999 -0.040000000000000008
      vertex 95.240000000000009 10 -0.040000000000000008
    endloop
  endfacet
  facet normal -0.24253562503633785 0 0.97014250014533066
    outer loop
      vertex 95.400000000000006 10.199999999999999 0
      vertex 95.240000000000009 10 -0.040000000000000008
      vertex 95.400000000000006 10 0
    endloop
  endfacet
  facet normal -0.43643578047199239 0.21821789023599134 0.87287156094396601
    outer loop
      vertex 95.240000000000009 10.039999999999999 -0.040000000000000008
      vertex 95.400000000000006 10.199999999999999 0
      vertex 95.320000000000007 10.199999999999999 -0.040000000000000008
    endloop
  endfacet
  facet normal -0.44721359549996559 0 0.89442719099991197
    outer loop
      vertex 95.400000000000006 20 0
      vertex 95.320000000000007 16.079999999999998 -0.040000000000000008
      vertex 95.320000000000007 10.199999999999999 -0.040000000000000008
    endloop
  endfacet
  facet normal -0.44721359549996564 0 0.89442719099991208
    outer loop
      vertex 95.400000000000006 20 0
      vertex 95.320000000000007 10.199999999999999 -0.040000000000000008
      vertex 95.400000000000006 10.199999999999999 0
    endloop
  endfacet
  facet normal -0.44721359549996564 0 0.89442719099991197
    outer loop
      vertex 95.320000000000007 16.079999999999998 -0.040000000000000008
      vertex 95.400000000000006 20 0
      vertex 95.320000000000007 20 -0.040000000000000008
    endloop
  endfacet
  facet normal -0.44721359549996564 0 0.89442719099991197
    outer loop
      vertex 95.400000000000006 20.199999999999999 0
      vertex 95.320000000000007 20.120000000000001 -0.040000000000000008
      vertex 95.320000000000007 20 -0.040000000000000008
    endloop
  endfacet
  facet normal -0.44721359549996564 0 0.89442719099991208
    outer loop
      vertex 95.400000000000006 20.199999999999999 0
      vertex 95.320000000000007 20 -0.040000000000000008
      vertex 95.400000000000006 20 0
    endloop
  endfacet
  facet normal -0.5883484054145881 0.19611613513823087 0.78446454055269754
    outer loop
      vertex 95.320000000000007 20.120000000000001 -0.040000000000000008
      vertex 95.400000000000006 20.199999999999999 0
      vertex 95.346666666666678 20.199999999999999 -0.040000000000000008
    endloop
  endfacet
  facet normal -0.60000000000004239 0 0.79999999999996829
    outer loop
      vertex 95.400000000000006 40 0
      vertex 95.346666666666678 34.719999999999999 -0.040000000000000008
      vertex 95.346666666666678 20.199999999999999 -0.040000000000000008
    endloop
  endfacet
  facet normal -0.60000000000004239 0 0.79999999999996829
    outer loop
      vertex 95.400000000000006 40 0
      vertex 95.346666666666678 20.199999999999999 -0.040000000000000008
      vertex 95.400000000000006 20.199999999999999 0
    endloop
  endfacet
  facet normal -0.60000000000004239 0 0.79999999999996829
    outer loop
      vertex 95.346666666666678 34.719999999999999 -0.040000000000000008
      vertex 95.400000000000006 40 0
      vertex 95.346666666666678 40 -0.040000000000000008
    endloop
  endfacet
  facet normal -0.60000000000004228 0 0.79999999999996818
    outer loop
      vertex 95.400000000000006 40.200000000000003 0
      vertex 95.346666666666678 40.146666666666668 -0.040000000000000008
      vertex 95.346666666666678 40 -0.040000000000000008
    endloop
  endfacet
  facet normal -0.60000000000004239 0 0.79999999999996818
    outer loop
      vertex 95.400000000000006 40.200000000000003 0
      vertex 95.346666666666678 40 -0.040000000000000008
      vertex 95.400000000000006 40 0
    endloop
  endfacet
  facet normal -0.69631062382275832 0.17407765595552724 0.69631062382286701
    outer loop
      vertex 95.346666666666678 40.146666666666668 -0.040000000000000008
      vertex 95.400000000000006 40.200000000000003 0
      vertex 95.359999999999999 40.200000000000003 -0.040000000000000008
    endloop
  endfacet
  facet normal -0.70710678118649228 0 0.70710678118660275
    outer loop
      vertex 95.400000000000006 60 0
      vertex 95.359999999999999 56.039999999999999 -0.040000000000000008
      vertex 95.359999999999999 40.200000000000003 -0.040000000000000008
    endloop
  endfacet
  facet normal -0.70710678118649228 0 0.70710678118660275
    outer loop
      vertex 95.400000000000006 60 0
      vertex 95.359999999999999 40.200000000000003 -0.040000000000000008
      vertex 95.400000000000006 40.200000000000003 0
    endloop
  endfacet
  facet normal -0.70710678118649228 0 0.70710678118660264
    outer loop
      vertex 95.359999999999999 56.039999999999999 -0.040000000000000008
      vertex 95.400000000000006 60 0
      vertex 95.359999999999999 60 -0.040000000000000008
    endloop
  endfacet
  facet normal -0.70710678118649239 0 0.70710678118660275
    outer loop
      vertex 95.400000000000006 60.200000000000003 0
      vertex 95.359999999999999 60.160000000000004 -0.040000000000000008
      vertex 95.359999999999999 60 -0.040000000000000008
    endloop
  endfacet
  facet normal -0.70710678118649228 0 0.70710678118660264
    outer loop
      vertex 95.400000000000006 60.200000000000003 0
      vertex 95.359999999999999 60 -0.040000000000000008
      vertex 95.400000000000006 60 0
    endloop
  endfacet
  facet normal -0.19611613513819065 -0.58834840541453715 0.78446454055274573
    outer loop
      vertex 95.359999999999999 60.160000000000004 -0.040000000000000008
      vertex 95.400000000000006 60.200000000000003 0
      vertex 95.240000000000009 60.200000000000003 -0.040000000000000008
    endloop
  endfacet
  facet normal -0.2425356250363378 0 0.97014250014533077
    outer loop
      vertex 95.400000000000006 80 0
      vertex 95.240000000000009 64.159999999999997 -0.040000000000000008
      vertex 95.240000000000009 60.200000000000003 -0.040000000000000008
    endloop
  endfacet
  facet normal -0.24253562503633788 0 0.97014250014533066
    outer loop
      vertex 95.400000000000006 80 0
      vertex 95.240000000000009 60.200000000000003 -0.040000000000000008
      vertex 95.400000000000006 60.200000000000003 0
    endloop
  endfacet
  facet normal -0.24253562503633788 0 0.97014250014533066
    outer loop
      vertex 95.240000000000009 64.159999999999997 -0.040000000000000008
      vertex 95.400000000000006 80 0
      vertex 95.240000000000009 80 -0.040000000000000008
    endloop
  endfacet
  facet normal -0.2425356250363378 0 0.97014250014533066
    outer loop
      vertex 95.400000000000006 80.200000000000003 0
      vertex 95.240000000000009 80.040000000000006 -0.040000000000000008
      vertex 95.240000000000009 80 -0.040000000000000008
    endloop
  endfacet
  facet normal -0.24253562503633788 0 0.97014250014533077
    outer loop
      vertex 95.400000000000006 80.200000000000003 0
      vertex 95.240000000000009 80 -0.040000000000000008
      vertex 95.400000000000006 80 0
    endloop
  endfacet
  facet normal -0.43643578047199194 0.21821789023599597 0.87287156094396501
    outer loop
      vertex 95.240000000000009 80.040000000000006 -0.040000000000000008
      vertex 95.400000000000006 80.200000000000003 0
      vertex 95.320000000000007 80.200000000000003 -0.040000000000000008
    endloop
  endfacet
  facet normal -0.44721359549996559 0 0.89442719099991197
    outer loop
      vertex 95.400000000000006 100 0
      vertex 95.320000000000007 92.079999999999998 -0.040000000000000008
      vertex 95.320000000000007 80.200000000000003 -0.040000000000000008
    endloop
  endfacet
  facet normal -0.44721359549996559 0 0.89442719099991197
    outer loop
      vertex 95.400000000000006 100 0
      vertex 95.320000000000007 80.200000000000003 -0.040000000000000008
      vertex 95.400000000000006 80.200000000000003 0
    endloop
  endfacet
  facet normal -0.44721359549996564 0 0.89442719099991197
    outer loop
      vertex 95.320000000000007 92.079999999999998 -0.040000000000000008
      vertex 95.400000000000006 100 0
      vertex 95.320000000000007 100 -0.040000000000000008
    endloop
  endfacet
  facet normal 0 0.70710678118649228 0.70710678118660264
    outer loop
      vertex 96.400000000000006 -80.159999999999997 -0.040000000000000008
      vertex 95.400000000000006 -80.200000000000003 0
      vertex 100.40000000000001 -80.200000000000003 0
    endloop
  endfacet
  facet normal -0 0.70710678118649228 0.70710678118660275
    outer loop
      vertex 96.400000000000006 -80.159999999999997 -0.040000000000000008
      vertex 100.40000000000001 -80.200000000000003 0
      vertex 100.40000000000001 -80.159999999999997 -0.040000000000000008
    endloop
  endfacet
  facet normal -0 0.70710678118649228 0.70710678118660275
    outer loop
      vertex 95.400000000000006 -80.159999999999997 -0.040000000000000008
      vertex 95.400000000000006 -80.200000000000003 0
      vertex 96.400000000000006 -80.159999999999997 -0.040000000000000008
    endloop
  endfacet
  facet normal 0 -0.70710678118655512 0.70710678118653991
    outer loop
      vertex 100.40000000000001 -60 0
      vertex 99.400000000000006 -60.039999999999999 -0.040000000000000008
      vertex 100.40000000000001 -60.039999999999999 -0.040000000000000008
    endloop
  endfacet
  facet normal 0 -0.70710678118655512 0.70710678118653991
    outer loop
      vertex 95.400000000000006 -60 0
      vertex 95.400000000000006 -60.039999999999999 -0.040000000000000008
      vertex 99.400000000000006 -60.039999999999999 -0.040000000000000008
    endloop
  endfacet
  facet normal 0 -0.70710678118655512 0.70710678118653991
    outer loop
      vertex 95.400000000000006 -60 0
      vertex 99.400000000000006 -60.039999999999999 -0.040000000000000008
      vertex 100.40000000000001 -60 0
    endloop
  endfacet
  facet normal 0 0.70710678118649239 0.70710678118660275
    outer loop
      vertex 100.44 -80.159999999999997 -0.040000000000000008
      vertex 100.40000000000001 -80.200000000000003 0
      vertex 100.59999999999999 -80.200000000000003 0
    endloop
  endfacet
  facet normal -0 0.70710678118649239 0.70710678118660275
    outer loop
      vertex 100.44 -80.159999999999997 -0.040000000000000008
      vertex 100.59999999999999 -80.200000000000003 0
      vertex 100.59999999999999 -80.159999999999997 -0.040000000000000008
    endloop
  endfacet
  facet normal -0 0.70710678118649239 0.70710678118660275
    outer loop
      vertex 100.40000000000001 -80.159999999999997 -0.040000000000000008
      vertex 100.40000000000001 -80.200000000000003 0
      vertex 100.44 -80.159999999999997 -0.040000000000000008
    endloop
  endfacet
  facet normal 0 -0.70710678118655523 0.70710678118654002
    outer loop
      vertex 100.59999999999999 -60 0
      vertex 100.56 -60.039999999999999 -0.040000000000000008
      vertex 100.59999999999999 -60.039999999999999 -0.040000000000000008
    endloop
  endfacet
  facet normal 0 -0.70710678118655523 0.70710678118654002
    outer loop
      vertex 100.40000000000001 -60 0
      vertex 100.40000000000001 -60.039999999999999 -0.040000000000000008
      vertex 100.56 -60.039999999999999 -0.040000000000000008
    endloop
  endfacet
  facet normal 0 -0.70710678118655523 0.70710678118653991
    outer loop
      vertex 100.40000000000001 -60 0
      vertex 100.56 -60.039999999999999 -0.040000000000000008
      vertex 100.59999999999999 -60 0
    endloop
  endfacet
  facet normal 0 0.70710678118654757 0.70710678118654757
    outer loop
      vertex 100.44 0.040000000000000008 -0.040000000000000008
      vertex 100.40000000000001 0 0
      vertex 100.59999999999999 0 0
    endloop
  endfacet
  facet normal -0 0.70710678118654746 0.70710678118654746
    outer loop
      vertex 100.44 0.040000000000000008 -0.040000000000000008
      vertex 100.59999999999999 0 0
      vertex 100.59999999999999 0.040000000000000008 -0.040000000000000008
    endloop
  endfacet
  facet normal 0.70710678118661785 0 0.70710678118647718
    outer loop
      vertex 100.40000000000001 0 0
      vertex 100.44 0.040000000000000008 -0.040000000000000008
      vertex 100.44 0.20000000000000001 -0.040000000000000008
    endloop
  endfacet
  facet normal 0.70710678118661796 -0 0.70710678118647718
    outer loop
      vertex 100.40000000000001 0 0
      vertex 100.44 0.20000000000000001 -0.040000000000000008
      vertex 100.40000000000001 0.20000000000000001 0
    endloop
  endfacet
  facet normal 0.70710678118661796 0 0.70710678118647718
    outer loop
      vertex 100.44 2.1600000000000001 -0.040000000000000008
      vertex 100.40000000000001 0.20000000000000001 0
      vertex 100.44 0.20000000000000001 -0.040000000000000008
    endloop
  endfacet
  facet normal 0.70710678118661796 0 0.70710678118647696
    outer loop
      vertex 100.40000000000001 0.20000000000000001 0
      vertex 100.44 2.1600000000000006 -0.040000000000000008
      vertex 100.44 10 -0.040000000000000008
    endloop
  endfacet
  facet normal 0.70710678118661796 -0 0.70710678118647707
    outer loop
      vertex 100.40000000000001 0.20000000000000001 0
      vertex 100.44 10 -0.040000000000000008
      vertex 100.40000000000001 10 0
    endloop
  endfacet
  facet normal 0.69631062382285513 -0.17407765595574279 0.69631062382271636
    outer loop
      vertex 100.45333333333333 10.053333333333333 -0.040000000000000008
      vertex 100.40000000000001 10 0
      vertex 100.44 10 -0.040000000000000008
    endloop
  endfacet
  facet normal 0.60000000000004228 0 0.79999999999996829
    outer loop
      vertex 100.40000000000001 10 0
      vertex 100.45333333333333 10.053333333333333 -0.040000000000000008
      vertex 100.45333333333333 10.199999999999999 -0.040000000000000008
    endloop
  endfacet
  facet normal 0.60000000000004228 -0 0.79999999999996818
    outer loop
      vertex 100.40000000000001 10 0
      vertex 100.45333333333333 10.199999999999999 -0.040000000000000008
      vertex 100.40000000000001 10.199999999999999 0
    endloop
  endfacet
  facet normal 0.60000000000004239 0 0.79999999999996818
    outer loop
      vertex 100.45333333333333 12.813333333333333 -0.040000000000000008
      vertex 100.40000000000001 10.199999999999999 0
      vertex 100.45333333333333 10.199999999999999 -0.040000000000000008
    endloop
  endfacet
  facet normal 0.60000000000004239 0 0.79999999999996818
    outer loop
      vertex 100.40000000000001 10.199999999999999 0
      vertex 100.45333333333333 12.813333333333333 -0.040000000000000008
      vertex 100.45333333333333 20 -0.040000000000000008
    endloop
  endfacet
  facet normal 0.60000000000004239 -0 0.79999999999996818
    outer loop
      vertex 100.40000000000001 10.199999999999999 0
      vertex 100.45333333333333 20 -0.040000000000000008
      vertex 100.40000000000001 20 0
    endloop
  endfacet
  facet normal 0.5883484054145881 -0.19611613513823087 0.78446454055269754
    outer loop
      vertex 100.48 20.079999999999998 -0.040000000000000008
      vertex 100.40000000000001 20 0
      vertex 100.45333333333333 20 -0.040000000000000008
    endloop
  endfacet
  facet normal 0.44721359549996564 0 0.89442719099991197
    outer loop
      vertex 100.40000000000001 20 0
      vertex 100.48 20.079999999999998 -0.040000000000000008
      vertex 100.48 20.199999999999999 -0.040000000000000008
    endloop
  endfacet
  facet normal 0.44721359549996564 -0 0.89442719099991208
    outer loop
      vertex 100.40000000000001 20 0
      vertex 100.48 20.199999999999999 -0.040000000000000008
      vertex 100.40000000000001 20.199999999999999 0
    endloop
  endfacet
  facet normal 0.44721359549996559 0 0.89442719099991208
    outer loop
      vertex 100.48 28.119999999999997 -0.040000000000000008
      vertex 100.40000000000001 20.199999999999999 0
      vertex 100.48 20.199999999999999 -0.040000000000000008
    endloop
  endfacet
  facet normal 0.44721359549996559 0 0.89442719099991208
    outer loop
      vertex 100.40000000000001 20.199999999999999 0
      vertex 100.48 28.120000000000001 -0.040000000000000008
      vertex 100.48 40 -0.040000000000000008
    endloop
  endfacet
  facet normal 0.44721359549996564 -0 0.89442719099991208
    outer loop
      vertex 100.40000000000001 20.199999999999999 0
      vertex 100.48 40 -0.040000000000000008
      vertex 100.40000000000001 40 0
    endloop
  endfacet
  facet normal 0.43643578047199277 -0.21821789023598673 0.8728715609439669
    outer loop
      vertex 100.56 40.160000000000004 -0.040000000000000008
      vertex 100.40000000000001 40 0
      vertex 100.48 40 -0.040000000000000008
    endloop
  endfacet
  facet normal 0.24253562503633791 0 0.97014250014533066
    outer loop
      vertex 100.40000000000001 40 0
      vertex 100.56 40.160000000000004 -0.040000000000000008
      vertex 100.56 40.200000000000003 -0.040000000000000008
    endloop
  endfacet
  facet normal 0.24253562503633788 -0 0.97014250014533077
    outer loop
      vertex 100.40000000000001 40 0
      vertex 100.56 40.200000000000003 -0.040000000000000008
      vertex 100.40000000000001 40.200000000000003 0
    endloop
  endfacet
  facet normal 0.24253562503633788 0 0.97014250014533066
    outer loop
      vertex 100.56 56.040000000000006 -0.040000000000000008
      vertex 100.40000000000001 40.200000000000003 0
      vertex 100.56 40.200000000000003 -0.040000000000000008
    endloop
  endfacet
  facet normal 0.2425356250363378 0 0.97014250014533077
    outer loop
      vertex 100.40000000000001 40.200000000000003 0
      vertex 100.56 56.040000000000006 -0.040000000000000008
      vertex 100.56 60 -0.040000000000000008
    endloop
  endfacet
  facet normal 0.24253562503633788 -0 0.97014250014533066
    outer loop
      vertex 100.40000000000001 40.200000000000003 0
      vertex 100.56 60 -0.040000000000000008
      vertex 100.40000000000001 60 0
    endloop
  endfacet
  facet normal 0.23570226039552269 -0.23570226039548087 0.94280904158207046
    outer loop
      vertex 100.40000000000001 60 0
      vertex 100.56 60 -0.040000000000000008
      vertex 100.59999999999999 60.039999999999999 -0.040000000000000008
    endloop
  endfacet
  facet normal 0.23570226039552686 -0.23570226039551015 0.94280904158206202
    outer loop
      vertex 100.40000000000001 60 0
      vertex 100.59999999999999 60.039999999999999 -0.040000000000000008
      vertex 100.59999999999999 60.200000000000003 0
    endloop
  endfacet
  facet normal 0 0.70710678118649228 0.70710678118660264
    outer loop
      vertex 100.64 -80.159999999999997 -0.040000000000000008
      vertex 100.59999999999999 -80.200000000000003 0
      vertex 100.8 -80.200000000000003 0
    endloop
  endfacet
  facet normal -0 0.70710678118649239 0.70710678118660275
    outer loop
      vertex 100.64 -80.159999999999997 -0.040000000000000008
      vertex 100.8 -80.200000000000003 0
      vertex 100.8 -80.159999999999997 -0.040000000000000008
    endloop
  endfacet
  facet normal -0 0.70710678118649239 0.70710678118660275
    outer loop
      vertex 100.59999999999999 -80.159999999999997 -0.040000000000000008
      vertex 100.59999999999999 -80.200000000000003 0
      vertex 100.64 -80.159999999999997 -0.040000000000000008
    endloop
  endfacet
  facet normal 0 -0.70710678118655523 0.70710678118654002
    outer loop
      vertex 100.8 -60 0
      vertex 100.75999999999999 -60.039999999999999 -0.040000000000000008
      vertex 100.8 -60.039999999999999 -0.040000000000000008
    endloop
  endfacet
  facet normal 0 -0.70710678118655523 0.70710678118654002
    outer loop
      vertex 100.59999999999999 -60 0
      vertex 100.59999999999999 -60.039999999999999 -0.040000000000000008
      vertex 100.75999999999999 -60.039999999999999 -0.040000000000000008
    endloop
  endfacet
  facet normal 0 -0.70710678118655512 0.70710678118653991
    outer loop
      vertex 100.59999999999999 -60 0
      vertex 100.75999999999999 -60.039999999999999 -0.040000000000000008
      vertex 100.8 -60 0
    endloop
  endfacet
  facet normal 0 0.70710678118654746 0.70710678118654746
    outer loop
      vertex 100.64 0.040000000000000008 -0.040000000000000008
      vertex 100.59999999999999 0 0
      vertex 100.8 0 0
    endloop
  endfacet
  facet normal -0 0.70710678118654746 0.70710678118654746
    outer loop
      vertex 100.64 0.040000000000000008 -0.040000000000000008
      vertex 100.8 0 0
      vertex 100.8 0.040000000000000008 -0.040000000000000008
    endloop
  endfacet
  facet normal -0 0.70710678118654746 0.70710678118654746
    outer loop
      vertex 100.59999999999999 0.040000000000000008 -0.040000000000000008
      vertex 100.59999999999999 0 0
      vertex 100.64 0.040000000000000008 -0.040000000000000008
    endloop
  endfacet
  facet normal 0 -0.24253562503632775 0.97014250014533321
    outer loop
      vertex 100.8 60.200000000000003 0
      vertex 100.64 60.039999999999999 -0.040000000000000008
      vertex 100.8 60.039999999999999 -0.040000000000000008
    endloop
  endfacet
  facet normal 0 -0.24253562503632778 0.97014250014533321
    outer loop
      vertex 100.59999999999999 60.200000000000003 0
      vertex 100.59999999999999 60.039999999999999 -0.040000000000000008
      vertex 100.64 60.039999999999999 -0.040000000000000008
    endloop
  endfacet
  facet normal 0 -0.24253562503632775 0.97014250014533321
    outer loop
      vertex 100.59999999999999 60.200000000000003 0
      vertex 100.64 60.039999999999999 -0.040000000000000008
      vertex 100.8 60.200000000000003 0
    endloop
  endfacet
  facet normal -0.028272964322663893 0.70682410806658735 0.70682410806669771
    outer loop
      vertex 100.8 -80.159999999999997 -0.040000000000000008
      vertex 100.8 -80.200000000000003 0
      vertex 105.8 -80 0
    endloop
  endfacet
  facet normal -0.028272964322665399 0.70682410806664997 0.70682410806663476
    outer loop
      vertex 100.8 -80.159999999999997 -0.040000000000000008
      vertex 105.8 -80 0
      vertex 104.8 -80 -0.040000000000000008
    endloop
  endfacet
  facet normal -0.039968038348871589 0 0.99920095872178949
    outer loop
      vertex 105.8 -60.200000000000003 0
      vertex 104.8 -64.159999999999997 -0.040000000000000008
      vertex 104.8 -80 -0.040000000000000008
    endloop
  endfacet
  facet normal -0.039968038348871582 0 0.99920095872178938
    outer loop
      vertex 105.8 -60.200000000000003 0
      vertex 104.8 -80 -0.040000000000000008
      vertex 105.8 -80 0
    endloop
  endfacet
  facet normal -0.039968038348871589 0 0.99920095872178949
    outer loop
      vertex 104.8 -64.159999999999997 -0.040000000000000008
      vertex 105.8 -60.200000000000003 0
      vertex 104.8 -60.200000000000003 -0.040000000000000008
    endloop
  endfacet
  facet normal -0.039968038348871582 0 0.99920095872178938
    outer loop
      vertex 105.8 -60 0
      vertex 104.8 -60.039999999999999 -0.040000000000000008
      vertex 104.8 -60.200000000000003 -0.040000000000000008
    endloop
  endfacet
  facet normal -0.039968038348871582 0 0.99920095872178938
    outer loop
      vertex 105.8 -60 0
      vertex 104.8 -60.200000000000003 -0.040000000000000008
      vertex 105.8 -60.200000000000003 0
    endloop
  endfacet
  facet normal 0 -0.70710678118655512 0.70710678118653991
    outer loop
      vertex 100.8 -60 0
      vertex 100.8 -60.039999999999999 -0.040000000000000008
      vertex 104.8 -60.039999999999999 -0.040000000000000008
    endloop
  endfacet
  facet normal 0 -0.70710678118655512 0.70710678118653991
    outer loop
      vertex 100.8 -60 0
      vertex 104.8 -60.039999999999999 -0.040000000000000008
      vertex 105.8 -60 0
    endloop
  endfacet
  facet normal -0.0062468285873950938 0.78085357342438666 0.62468285873950935
    outer loop
      vertex 101.8 0.040000000000000008 -0.040000000000000008
      vertex 100.8 0 0
      vertex 105.8 0.040000000000000001 0
    endloop
  endfacet
  facet normal -0.0062468285873950938 0.78085357342438666 0.62468285873950935
    outer loop
      vertex 101.8 0.040000000000000008 -0.040000000000000008
      vertex 105.8 0.040000000000000001 0
      vertex 105.8 0.072000000000000008 -0.040000000000000008
    endloop
  endfacet
  facet normal -0 0.70710678118654746 0.70710678118654746
    outer loop
      vertex 100.8 0.040000000000000008 -0.040000000000000008
      vertex 100.8 0 0
      vertex 101.8 0.040000000000000008 -0.040000000000000008
    endloop
  endfacet
  facet normal 0 -0.24253562503632778 0.97014250014533332
    outer loop
      vertex 105.8 60.200000000000003 0
      vertex 101.8 60.039999999999999 -0.040000000000000008
      vertex 105.8 60.039999999999999 -0.040000000000000008
    endloop
  endfacet
  facet normal 0 -0.24253562503632778 0.97014250014533332
    outer loop
      vertex 100.8 60.200000000000003 0
      vertex 100.8 60.039999999999999 -0.040000000000000008
      vertex 101.8 60.039999999999999 -0.040000000000000008
    endloop
  endfacet
  facet normal 0 -0.24253562503632775 0.97014250014533321
    outer loop
      vertex 100.8 60.200000000000003 0
      vertex 101.8 60.039999999999999 -0.040000000000000008
      vertex 105.8 60.200000000000003 0
    endloop
  endfacet
  facet normal 0 0.78086880944303039 0.62469504755442429
    outer loop
      vertex 105.872 0.072000000000000008 -0.040000000000000008
      vertex 105.84 0.040000000000000001 0
      vertex 106 0.040000000000000001 0
    endloop
  endfacet
  facet normal -0 0.78086880944303028 0.62469504755442429
    outer loop
      vertex 105.872 0.072000000000000008 -0.040000000000000008
      vertex 106 0.040000000000000001 0
      vertex 106 0.072000000000000008 -0.040000000000000008
    endloop
  endfacet
  facet normal 0 0.78086880944303028 0.62469504755442418
    outer loop
      vertex 105.8 0.072000000000000008 -0.040000000000000008
      vertex 105.8 0.040000000000000001 0
      vertex 105.84 0.040000000000000001 0
    endloop
  endfacet
  facet normal -0 0.78086880944303028 0.62469504755442418
    outer loop
      vertex 105.8 0.072000000000000008 -0.040000000000000008
      vertex 105.84 0.040000000000000001 0
      vertex 105.872 0.072000000000000008 -0.040000000000000008
    endloop
  endfacet
  facet normal 0 -0.24253562503632775 0.97014250014533321
    outer loop
      vertex 106 60.200000000000003 0
      vertex 105.84 60.039999999999999 -0.040000000000000008
      vertex 106 60.039999999999999 -0.040000000000000008
    endloop
  endfacet
  facet normal 0 -0.24253562503632778 0.97014250014533321
    outer loop
      vertex 105.8 60.200000000000003 0
      vertex 105.8 60.039999999999999 -0.040000000000000008
      vertex 105.84 60.039999999999999 -0.040000000000000008
    endloop
  endfacet
  facet normal 0 -0.24253562503632775 0.97014250014533321
    outer loop
      vertex 105.8 60.200000000000003 0
      vertex 105.84 60.039999999999999 -0.040000000000000008
      vertex 106 60.200000000000003 0
    endloop
  endfacet
  facet normal -0.5298129428260121 0.66226617853252445 0.52981294282601965
    outer loop
      vertex 106 0.072000000000000008 -0.040000000000000008
      vertex 106 0.040000000000000001 0
      vertex 106.2 0.20000000000000001 0
    endloop
  endfacet
  facet normal -0.52981294282599922 0.66226617853248493 0.52981294282608193
    outer loop
      vertex 106 0.072000000000000008 -0.040000000000000008
      vertex 106.2 0.20000000000000001 0
      vertex 106.16 0.20000000000000001 -0.040000000000000008
    endloop
  endfacet
  facet normal -0.70710678118649239 0 0.70710678118660264
    outer loop
      vertex 106.2 10 0
      vertex 106.16 8.0399999999999991 -0.040000000000000008
      vertex 106.16 0.20000000000000001 -0.040000000000000008
    endloop
  endfacet
  facet normal -0.70710678118649228 0 0.70710678118660264
    outer loop
      vertex 106.2 10 0
      vertex 106.16 0.20000000000000001 -0.040000000000000008
      vertex 106.2 0.20000000000000001 0
    endloop
  endfacet
  facet normal -0.70710678118649228 0 0.70710678118660264
    outer loop
      vertex 106.16 8.0399999999999991 -0.040000000000000008
      vertex 106.2 10 0
      vertex 106.16 10 -0.040000000000000008
    endloop
  endfacet
  facet normal -0.70710678118649228 0 0.70710678118660264
    outer loop
      vertex 106.2 10.199999999999999 0
      vertex 106.16 10.16 -0.040000000000000008
      vertex 106.16 10 -0.040000000000000008
    endloop
  endfacet
  facet normal -0.70710678118649228 0 0.70710678118660264
    outer loop
      vertex 106.2 10.199999999999999 0
      vertex 106.16 10 -0.040000000000000008
      vertex 106.2 10 0
    endloop
  endfacet
  facet normal -0.5883484054146122 -0.19611613513802989 0.78446454055272963
    outer loop
      vertex 106.16 10.16 -0.040000000000000008
      vertex 106.2 10.199999999999999 0
      vertex 106.14666666666668 10.199999999999999 -0.040000000000000008
    endloop
  endfacet
  facet normal -0.60000000000004239 0 0.79999999999996818
    outer loop
      vertex 106.2 20 0
      vertex 106.14666666666668 17.386666666666667 -0.040000000000000008
      vertex 106.14666666666668 10.199999999999999 -0.040000000000000008
    endloop
  endfacet
  facet normal -0.60000000000004239 0 0.79999999999996818
    outer loop
      vertex 106.2 20 0
      vertex 106.14666666666668 10.199999999999999 -0.040000000000000008
      vertex 106.2 10.199999999999999 0
    endloop
  endfacet
  facet normal -0.60000000000004239 0 0.79999999999996818
    outer loop
      vertex 106.14666666666668 17.386666666666667 -0.040000000000000008
      vertex 106.2 20 0
      vertex 106.14666666666668 20 -0.040000000000000008
    endloop
  endfacet
  facet normal -0.60000000000004228 0 0.79999999999996818
    outer loop
      vertex 106.2 20.199999999999999 0
      vertex 106.14666666666668 20.146666666666665 -0.040000000000000008
      vertex 106.14666666666668 20 -0.040000000000000008
    endloop
  endfacet
  facet normal -0.60000000000004228 0 0.79999999999996818
    outer loop
      vertex 106.2 20.199999999999999 0
      vertex 106.14666666666668 20 -0.040000000000000008
      vertex 106.2 20 0
    endloop
  endfacet
  facet normal -0.43643578047198922 -0.2182178902360237 0.87287156094395957
    outer loop
      vertex 106.14666666666668 20.146666666666665 -0.040000000000000008
      vertex 106.2 20.199999999999999 0
      vertex 106.12 20.199999999999999 -0.040000000000000008
    endloop
  endfacet
  facet normal -0.44721359549996559 0 0.89442719099991208
    outer loop
      vertex 106.2 40 0
      vertex 106.12 32.079999999999998 -0.040000000000000008
      vertex 106.12 20.199999999999999 -0.040000000000000008
    endloop
  endfacet
  facet normal -0.44721359549996564 0 0.89442719099991208
    outer loop
      vertex 106.2 40 0
      vertex 106.12 20.199999999999999 -0.040000000000000008
      vertex 106.2 20.199999999999999 0
    endloop
  endfacet
  facet normal -0.44721359549996564 0 0.89442719099991197
    outer loop
      vertex 106.12 32.079999999999998 -0.040000000000000008
      vertex 106.2 40 0
      vertex 106.12 40 -0.040000000000000008
    endloop
  endfacet
  facet normal -0.44721359549996564 0 0.89442719099991208
    outer loop
      vertex 106.2 40.200000000000003 0
      vertex 106.12 40.120000000000005 -0.040000000000000008
      vertex 106.12 40 -0.040000000000000008
    endloop
  endfacet
  facet normal -0.44721359549996559 0 0.89442719099991197
    outer loop
      vertex 106.2 40.200000000000003 0
      vertex 106.12 40 -0.040000000000000008
      vertex 106.2 40 0
    endloop
  endfacet
  facet normal -0.23570226039552036 -0.23570226039552036 0.94280904158206114
    outer loop
      vertex 106.12 40.120000000000005 -0.040000000000000008
      vertex 106.2 40.200000000000003 0
      vertex 106.04000000000001 40.200000000000003 -0.040000000000000008
    endloop
  endfacet
  facet normal -0.2425356250363378 0 0.97014250014533077
    outer loop
      vertex 106.2 60 0
      vertex 106.04000000000001 44.159999999999997 -0.040000000000000008
      vertex 106.04000000000001 40.200000000000003 -0.040000000000000008
    endloop
  endfacet
  facet normal -0.24253562503633788 0 0.97014250014533066
    outer loop
      vertex 106.2 60 0
      vertex 106.04000000000001 40.200000000000003 -0.040000000000000008
      vertex 106.2 40.200000000000003 0
    endloop
  endfacet
  facet normal -0.24253562503633788 0 0.97014250014533066
    outer loop
      vertex 106.04000000000001 44.159999999999997 -0.040000000000000008
      vertex 106.2 60 0
      vertex 106.04000000000001 60 -0.040000000000000008
    endloop
  endfacet
  facet normal -0.24253562503633791 0 0.97014250014533066
    outer loop
      vertex 106.2 60.200000000000003 0
      vertex 106.04000000000001 60.039999999999999 -0.040000000000000008
      vertex 106.04000000000001 60 -0.040000000000000008
    endloop
  endfacet
  facet normal -0.24253562503633788 0 0.97014250014533077
    outer loop
      vertex 106.2 60.200000000000003 0
      vertex 106.04000000000001 60 -0.040000000000000008
      vertex 106.2 60 0
    endloop
  endfacet
  facet normal 0 -0.24253562503632778 0.97014250014533321
    outer loop
      vertex 106 60.200000000000003 0
      vertex 106 60.039999999999999 -0.040000000000000008
      vertex 106.04000000000001 60.039999999999999 -0.040000000000000008
    endloop
  endfacet
  facet normal 0 -0.24253562503632775 0.97014250014533321
    outer loop
      vertex 106 60.200000000000003 0
      vertex 106.04000000000001 60.039999999999999 -0.040000000000000008
      vertex 106.2 60.200000000000003 0
    endloop
  endfacet
  facet normal 0 0.24253562503633794 0.97014250014533077
    outer loop
      vertex 106.56 80.159999999999997 -0.040000000000000008
      vertex 106.40000000000001 80 0
      vertex 106.59999999999999 80 0
    endloop
  endfacet
  facet normal -0 0.24253562503633791 0.97014250014533066
    outer loop
      vertex 106.56 80.159999999999997 -0.040000000000000008
      vertex 106.59999999999999 80 0
      vertex 106.59999999999999 80.159999999999997 -0.040000000000000008
    endloop
  endfacet
  facet normal 0.2425356250363378 0 0.97014250014533066
    outer loop
      vertex 106.40000000000001 80 0
      vertex 106.56 80.159999999999997 -0.040000000000000008
      vertex 106.56 80.200000000000003 -0.040000000000000008
    endloop
  endfacet
  facet normal 0.24253562503633788 -0 0.97014250014533077
    outer loop
      vertex 106.40000000000001 80 0
      vertex 106.56 80.200000000000003 -0.040000000000000008
      vertex 106.40000000000001 80.200000000000003 0
    endloop
  endfacet
  facet normal 0.24253562503633788 0 0.97014250014533066
    outer loop
      vertex 106.56 96.040000000000006 -0.040000000000000008
      vertex 106.40000000000001 80.200000000000003 0
      vertex 106.56 80.200000000000003 -0.040000000000000008
    endloop
  endfacet
  facet normal 0.2425356250363378 0 0.97014250014533077
    outer loop
      vertex 106.40000000000001 80.200000000000003 0
      vertex 106.56 96.040000000000006 -0.040000000000000008
      vertex 106.56 100 -0.040000000000000008
    endloop
  endfacet
  facet normal 0.24253562503633788 -0 0.97014250014533066
    outer loop
      vertex 106.40000000000001 80.200000000000003 0
      vertex 106.56 100 -0.040000000000000008
      vertex 106.40000000000001 100 0
    endloop
  endfacet
  facet normal 0 0.24253562503633788 0.97014250014533077
    outer loop
      vertex 106.75999999999999 80.159999999999997 -0.040000000000000008
      vertex 106.59999999999999 80 0
      vertex 106.8 80 0
    endloop
  endfacet
  facet normal -0 0.24253562503633788 0.97014250014533066
    outer loop
      vertex 106.75999999999999 80.159999999999997 -0.040000000000000008
      vertex 106.8 80 0
      vertex 106.8 80.159999999999997 -0.040000000000000008
    endloop
  endfacet
  facet normal -0 0.24253562503633788 0.97014250014533066
    outer loop
      vertex 106.59999999999999 80.159999999999997 -0.040000000000000008
      vertex 106.59999999999999 80 0
      vertex 106.75999999999999 80.159999999999997 -0.040000000000000008
    endloop
  endfacet
  facet normal 0 0.24253562503633788 0.97014250014533077
    outer loop
      vertex 106.95999999999999 80.159999999999997 -0.040000000000000008
      vertex 106.8 80 0
      vertex 107 80 0
    endloop
  endfacet
  facet normal -0 0.24253562503633788 0.97014250014533066
    outer loop
      vertex 106.95999999999999 80.159999999999997 -0.040000000000000008
      vertex 107 80 0
      vertex 107 80.159999999999997 -0.040000000000000008
    endloop
  endfacet
  facet normal -0 0.24253562503633788 0.97014250014533066
    outer loop
      vertex 106.8 80.159999999999997 -0.040000000000000008
      vertex 106.8 80 0
      vertex 106.95999999999999 80.159999999999997 -0.040000000000000008
    endloop
  endfacet
  facet normal 0 0.24253562503633788 0.97014250014533077
    outer loop
      vertex 107.16 80.159999999999997 -0.040000000000000008
      vertex 107 80 0
      vertex 107.2 80 0
    endloop
  endfacet
  facet normal -0 0.24253562503633788 0.97014250014533066
    outer loop
      vertex 107.16 80.159999999999997 -0.040000000000000008
      vertex 107.2 80 0
      vertex 107.2 80.159999999999997 -0.040000000000000008
    endloop
  endfacet
  facet normal -0 0.24253562503633788 0.97014250014533066
    outer loop
      vertex 107 80.159999999999997 -0.040000000000000008
      vertex 107 80 0
      vertex 107.16 80.159999999999997 -0.040000000000000008
    endloop
  endfacet
  facet normal 0.44721359549996564 0 0.89442719099991197
    outer loop
      vertex 107.28 -92.079999999999998 -0.040000000000000008
      vertex 107.2 -100 0
      vertex 107.28 -100 -0.040000000000000008
    endloop
  endfacet
  facet normal 0.44721359549996559 0 0.89442719099991197
    outer loop
      vertex 107.2 -100 0
      vertex 107.28 -92.079999999999998 -0.040000000000000008
      vertex 107.28 -80.200000000000003 -0.040000000000000008
    endloop
  endfacet
  facet normal 0.44721359549996559 -0 0.89442719099991197
    outer loop
      vertex 107.2 -100 0
      vertex 107.28 -80.200000000000003 -0.040000000000000008
      vertex 107.2 -80.200000000000003 0
    endloop
  endfacet
  facet normal 0.4082482904638689 -0.4082482904638689 0.81649658092772026
    outer loop
      vertex 107.2 -80.200000000000003 0
      vertex 107.28 -80.200000000000003 -0.040000000000000008
      vertex 107.40000000000001 -80.079999999999998 -0.040000000000000008
    endloop
  endfacet
  facet normal 0.40824829046386885 -0.40824829046386885 0.81649658092772037
    outer loop
      vertex 107.2 -80.200000000000003 0
      vertex 107.40000000000001 -80.079999999999998 -0.040000000000000008
      vertex 107.40000000000001 -80 0
    endloop
  endfacet
  facet normal 0 0.24253562503632775 0.97014250014533321
    outer loop
      vertex 107.36 -60.039999999999999 -0.040000000000000008
      vertex 107.2 -60.200000000000003 0
      vertex 107.40000000000001 -60.200000000000003 0
    endloop
  endfacet
  facet normal -0 0.24253562503632778 0.97014250014533321
    outer loop
      vertex 107.36 -60.039999999999999 -0.040000000000000008
      vertex 107.40000000000001 -60.200000000000003 0
      vertex 107.40000000000001 -60.039999999999999 -0.040000000000000008
    endloop
  endfacet
  facet normal 0.24253562503633791 0 0.97014250014533066
    outer loop
      vertex 107.2 -60.200000000000003 0
      vertex 107.36 -60.039999999999999 -0.040000000000000008
      vertex 107.36 -60 -0.040000000000000008
    endloop
  endfacet
  facet normal 0.24253562503633788 -0 0.97014250014533077
    outer loop
      vertex 107.2 -60.200000000000003 0
      vertex 107.36 -60 -0.040000000000000008
      vertex 107.2 -60 0
    endloop
  endfacet
  facet normal 0.24253562503633788 0 0.97014250014533066
    outer loop
      vertex 107.36 -44.159999999999997 -0.040000000000000008
      vertex 107.2 -60 0
      vertex 107.36 -60 -0.040000000000000008
    endloop
  endfacet
  facet normal 0.2425356250363378 0 0.97014250014533077
    outer loop
      vertex 107.2 -60 0
      vertex 107.36 -44.159999999999997 -0.040000000000000008
      vertex 107.36 -40.200000000000003 -0.040000000000000008
    endloop
  endfacet
  facet normal 0.24253562503633788 -0 0.97014250014533066
    outer loop
      vertex 107.2 -60 0
      vertex 107.36 -40.200000000000003 -0.040000000000000008
      vertex 107.2 -40.200000000000003 0
    endloop
  endfacet
  facet normal 0.23570226039551806 -0.2357022603955598 0.94280904158205192
    outer loop
      vertex 107.2 -40.200000000000003 0
      vertex 107.36 -40.200000000000003 -0.040000000000000008
      vertex 107.40000000000001 -40.160000000000004 -0.040000000000000008
    endloop
  endfacet
  facet normal 0.23570226039551098 -0.23570226039551098 0.94280904158206569
    outer loop
      vertex 107.2 -40.200000000000003 0
      vertex 107.40000000000001 -40.160000000000004 -0.040000000000000008
      vertex 107.40000000000001 -40 0
    endloop
  endfacet
  facet normal -0.23570226039552034 0.23570226039552034 0.94280904158206114
    outer loop
      vertex 107.2 80.159999999999997 -0.040000000000000008
      vertex 107.2 80 0
      vertex 107.40000000000001 80.200000000000003 0
    endloop
  endfacet
  facet normal -0.23570226039552039 0.23570226039552039 0.94280904158206114
    outer loop
      vertex 107.2 80.159999999999997 -0.040000000000000008
      vertex 107.40000000000001 80.200000000000003 0
      vertex 107.24000000000001 80.200000000000003 -0.040000000000000008
    endloop
  endfacet
  facet normal -0.2425356250363378 0 0.97014250014533077
    outer loop
      vertex 107.40000000000001 100 0
      vertex 107.24000000000001 84.159999999999997 -0.040000000000000008
      vertex 107.24000000000001 80.200000000000003 -0.040000000000000008
    endloop
  endfacet
  facet normal -0.24253562503633788 0 0.97014250014533066
    outer loop
      vertex 107.40000000000001 100 0
      vertex 107.24000000000001 80.200000000000003 -0.040000000000000008
      vertex 107.40000000000001 80.200000000000003 0
    endloop
  endfacet
  facet normal -0.24253562503633788 0 0.97014250014533066
    outer loop
      vertex 107.24000000000001 84.159999999999997 -0.040000000000000008
      vertex 107.40000000000001 100 0
      vertex 107.24000000000001 100 -0.040000000000000008
    endloop
  endfacet
  facet normal 0 -0.4472135954999657 0.89442719099991208
    outer loop
      vertex 107.59999999999999 -80 0
      vertex 107.52 -80.079999999999998 -0.040000000000000008
      vertex 107.59999999999999 -80.079999999999998 -0.040000000000000008
    endloop
  endfacet
  facet normal 0 -0.44721359549996564 0.89442719099991197
    outer loop
      vertex 107.40000000000001 -80 0
      vertex 107.40000000000001 -80.079999999999998 -0.040000000000000008
      vertex 107.52 -80.079999999999998 -0.040000000000000008
    endloop
  endfacet
  facet normal 0 -0.44721359549996564 0.89442719099991186
    outer loop
      vertex 107.40000000000001 -80 0
      vertex 107.52 -80.079999999999998 -0.040000000000000008
      vertex 107.59999999999999 -80 0
    endloop
  endfacet
  facet normal 0 0.24253562503632778 0.97014250014533321
    outer loop
      vertex 107.56 -60.039999999999999 -0.040000000000000008
      vertex 107.40000000000001 -60.200000000000003 0
      vertex 107.59999999999999 -60.200000000000003 0
    endloop
  endfacet
  facet normal -0 0.24253562503632775 0.97014250014533321
    outer loop
      vertex 107.56 -60.039999999999999 -0.040000000000000008
      vertex 107.59999999999999 -60.200000000000003 0
      vertex 107.59999999999999 -60.039999999999999 -0.040000000000000008
    endloop
  endfacet
  facet normal -0 0.24253562503632775 0.97014250014533321
    outer loop
      vertex 107.40000000000001 -60.039999999999999 -0.040000000000000008
      vertex 107.40000000000001 -60.200000000000003 0
      vertex 107.56 -60.039999999999999 -0.040000000000000008
    endloop
  endfacet
  facet normal 0 -0.24253562503632775 0.97014250014533321
    outer loop
      vertex 107.59999999999999 -40 0
      vertex 107.44 -40.160000000000004 -0.040000000000000008
      vertex 107.59999999999999 -40.160000000000004 -0.040000000000000008
    endloop
  endfacet
  facet normal 0 -0.24253562503632775 0.97014250014533321
    outer loop
      vertex 107.40000000000001 -40 0
      vertex 107.40000000000001 -40.160000000000004 -0.040000000000000008
      vertex 107.44 -40.160000000000004 -0.040000000000000008
    endloop
  endfacet
  facet normal 0 -0.24253562503632778 0.97014250014533321
    outer loop
      vertex 107.40000000000001 -40 0
      vertex 107.44 -40.160000000000004 -0.040000000000000008
      vertex 107.59999999999999 -40 0
    endloop
  endfacet
  facet normal 0 -0.4472135954999657 0.89442719099991208
    outer loop
      vertex 107.8 -80 0
      vertex 107.72 -80.079999999999998 -0.040000000000000008
      vertex 107.8 -80.079999999999998 -0.040000000000000008
    endloop
  endfacet
  facet normal 0 -0.44721359549996564 0.89442719099991208
    outer loop
      vertex 107.59999999999999 -80 0
      vertex 107.59999999999999 -80.079999999999998 -0.040000000000000008
      vertex 107.72 -80.079999999999998 -0.040000000000000008
    endloop
  endfacet
  facet normal 0 -0.44721359549996559 0.89442719099991197
    outer loop
      vertex 107.59999999999999 -80 0
      vertex 107.72 -80.079999999999998 -0.040000000000000008
      vertex 107.8 -80 0
    endloop
  endfacet
  facet normal 0 0.24253562503632775 0.97014250014533321
    outer loop
      vertex 107.75999999999999 -60.039999999999999 -0.040000000000000008
      vertex 107.59999999999999 -60.200000000000003 0
      vertex 107.8 -60.200000000000003 0
    endloop
  endfacet
  facet normal -0 0.24253562503632778 0.97014250014533321
    outer loop
      vertex 107.75999999999999 -60.039999999999999 -0.040000000000000008
      vertex 107.8 -60.200000000000003 0
      vertex 107.8 -60.039999999999999 -0.040000000000000008
    endloop
  endfacet
  facet normal -0 0.24253562503632775 0.97014250014533321
    outer loop
      vertex 107.59999999999999 -60.039999999999999 -0.040000000000000008
      vertex 107.59999999999999 -60.200000000000003 0
      vertex 107.75999999999999 -60.039999999999999 -0.040000000000000008
    endloop
  endfacet
  facet normal 0 -0.24253562503632775 0.97014250014533321
    outer loop
      vertex 107.8 -40 0
      vertex 107.64 -40.160000000000004 -0.040000000000000008
      vertex 107.8 -40.160000000000004 -0.040000000000000008
    endloop
  endfacet
  facet normal 0 -0.24253562503632778 0.97014250014533321
    outer loop
      vertex 107.59999999999999 -40 0
      vertex 107.59999999999999 -40.160000000000004 -0.040000000000000008
      vertex 107.64 -40.160000000000004 -0.040000000000000008
    endloop
  endfacet
  facet normal 0 -0.24253562503632775 0.97014250014533321
    outer loop
      vertex 107.59999999999999 -40 0
      vertex 107.64 -40.160000000000004 -0.040000000000000008
      vertex 107.8 -40 0
    endloop
  endfacet
  facet normal 0 -0.4472135954999657 0.89442719099991208
    outer loop
      vertex 108 -80 0
      vertex 107.92 -80.079999999999998 -0.040000000000000008
      vertex 108 -80.079999999999998 -0.040000000000000008
    endloop
  endfacet
  facet normal 0 -0.44721359549996564 0.89442719099991208
    outer loop
      vertex 107.8 -80 0
      vertex 107.8 -80.079999999999998 -0.040000000000000008
      vertex 107.92 -80.079999999999998 -0.040000000000000008
    endloop
  endfacet
  facet normal 0 -0.44721359549996559 0.89442719099991197
    outer loop
      vertex 107.8 -80 0
      vertex 107.92 -80.079999999999998 -0.040000000000000008
      vertex 108 -80 0
    endloop
  endfacet
  facet normal 0 0.24253562503632775 0.97014250014533321
    outer loop
      vertex 107.95999999999999 -60.039999999999999 -0.040000000000000008
      vertex 107.8 -60.200000000000003 0
      vertex 108 -60.200000000000003 0
    endloop
  endfacet
  facet normal -0 0.24253562503632778 0.97014250014533321
    outer loop
      vertex 107.95999999999999 -60.039999999999999 -0.040000000000000008
      vertex 108 -60.200000000000003 0
      vertex 108 -60.039999999999999 -0.040000000000000008
    endloop
  endfacet
  facet normal -0 0.24253562503632775 0.97014250014533321
    outer loop
      vertex 107.8 -60.039999999999999 -0.040000000000000008
      vertex 107.8 -60.200000000000003 0
      vertex 107.95999999999999 -60.039999999999999 -0.040000000000000008
    endloop
  endfacet
  facet normal 0 -0.24253562503632775 0.97014250014533321
    outer loop
      vertex 108 -40 0
      vertex 107.84 -40.160000000000004 -0.040000000000000008
      vertex 108 -40.160000000000004 -0.040000000000000008
    endloop
  endfacet
  facet normal 0 -0.24253562503632778 0.97014250014533321
    outer loop
      vertex 107.8 -40 0
      vertex 107.8 -40.160000000000004 -0.040000000000000008
      vertex 107.84 -40.160000000000004 -0.040000000000000008
    endloop
  endfacet
  facet normal 0 -0.24253562503632775 0.97014250014533321
    outer loop
      vertex 107.8 -40 0
      vertex 107.84 -40.160000000000004 -0.040000000000000008
      vertex 108 -40 0
    endloop
  endfacet
  facet normal -0.44721359549996559 0 0.89442719099991197
    outer loop
      vertex 108.2 -80.200000000000003 0
      vertex 108.12 -88.120000000000005 -0.040000000000000008
      vertex 108.12 -100 -0.040000000000000008
    endloop
  endfacet
  facet normal -0.44721359549996559 0 0.89442719099991197
    outer loop
      vertex 108.2 -80.200000000000003 0
      vertex 108.12 -100 -0.040000000000000008
      vertex 108.2 -100 0
    endloop
  endfacet
  facet normal -0.44721359549996564 0 0.89442719099991197
    outer loop
      vertex 108.12 -88.120000000000005 -0.040000000000000008
      vertex 108.2 -80.200000000000003 0
      vertex 108.12 -80.200000000000003 -0.040000000000000008
    endloop
  endfacet
  facet normal -0.44721359549996564 0 0.89442719099991208
    outer loop
      vertex 108.2 -80 0
      vertex 108.12 -80.079999999999998 -0.040000000000000008
      vertex 108.12 -80.200000000000003 -0.040000000000000008
    endloop
  endfacet
  facet normal -0.44721359549996559 0 0.89442719099991197
    outer loop
      vertex 108.2 -80 0
      vertex 108.12 -80.200000000000003 -0.040000000000000008
      vertex 108.2 -80.200000000000003 0
    endloop
  endfacet
  facet normal 0 -0.44721359549996564 0.89442719099991208
    outer loop
      vertex 108 -80 0
      vertex 108 -80.079999999999998 -0.040000000000000008
      vertex 108.12 -80.079999999999998 -0.040000000000000008
    endloop
  endfacet
  facet normal 0 -0.44721359549996559 0.89442719099991197
    outer loop
      vertex 108 -80 0
      vertex 108.12 -80.079999999999998 -0.040000000000000008
      vertex 108.2 -80 0
    endloop
  endfacet
  facet normal -0.23570226039551098 0.23570226039551098 0.94280904158206569
    outer loop
      vertex 108 -60.039999999999999 -0.040000000000000008
      vertex 108 -60.200000000000003 0
      vertex 108.2 -60 0
    endloop
  endfacet
  facet normal -0.235702260395518 0.23570226039555989 0.9428090415820517
    outer loop
      vertex 108 -60.039999999999999 -0.040000000000000008
      vertex 108.2 -60 0
      vertex 108.04000000000001 -60 -0.040000000000000008
    endloop
  endfacet
  facet normal -0.2425356250363378 0 0.97014250014533077
    outer loop
      vertex 108.2 -40.200000000000003 0
      vertex 108.04000000000001 -56.040000000000006 -0.040000000000000008
      vertex 108.04000000000001 -60 -0.040000000000000008
    endloop
  endfacet
  facet normal -0.24253562503633788 0 0.97014250014533066
    outer loop
      vertex 108.2 -40.200000000000003 0
      vertex 108.04000000000001 -60 -0.040000000000000008
      vertex 108.2 -60 0
    endloop
  endfacet
  facet normal -0.24253562503633788 0 0.97014250014533066
    outer loop
      vertex 108.04000000000001 -56.040000000000006 -0.040000000000000008
      vertex 108.2 -40.200000000000003 0
      vertex 108.04000000000001 -40.200000000000003 -0.040000000000000008
    endloop
  endfacet
  facet normal -0.24253562503633791 0 0.97014250014533066
    outer loop
      vertex 108.2 -40 0
      vertex 108.04000000000001 -40.160000000000004 -0.040000000000000008
      vertex 108.04000000000001 -40.200000000000003 -0.040000000000000008
    endloop
  endfacet
  facet normal -0.24253562503633788 0 0.97014250014533077
    outer loop
      vertex 108.2 -40 0
      vertex 108.04000000000001 -40.200000000000003 -0.040000000000000008
      vertex 108.2 -40.200000000000003 0
    endloop
  endfacet
  facet normal 0 -0.24253562503632778 0.97014250014533321
    outer loop
      vertex 108 -40 0
      vertex 108 -40.160000000000004 -0.040000000000000008
      vertex 108.04000000000001 -40.160000000000004 -0.040000000000000008
    endloop
  endfacet
  facet normal 0 -0.24253562503632775 0.97014250014533321
    outer loop
      vertex 108 -40 0
      vertex 108.04000000000001 -40.160000000000004 -0.040000000000000008
      vertex 108.2 -40 0
    endloop
  endfacet
endsolid terrain_band_5
