solid terrain_band_7
  facet normal -0.24253562503629716 0 0.97014250014534076
    outer loop
      vertex 175.96000000000001 -43.999999999999993 0.14000000000000001
      vertex 175.88 -51.999999999999993 0.12000000000000002
      vertex 175.88 -60 0.12000000000000002
    endloop
  endfacet
  facet normal -0.24253562503629716 0 0.97014250014534076
    outer loop
      vertex 175.96000000000001 -43.999999999999993 0.14000000000000001
      vertex 175.88 -60 0.12000000000000002
      vertex 175.96000000000001 -60 0.14000000000000001
    endloop
  endfacet
  facet normal -0.24253562503629719 0 0.97014250014534087
    outer loop
      vertex 175.88 -51.999999999999993 0.12000000000000002
      vertex 175.96000000000001 -43.999999999999993 0.14000000000000001
      vertex 175.96000000000001 -40 0.14000000000000001
    endloop
  endfacet
  facet normal -0.24253562503629716 0 0.97014250014534087
    outer loop
      vertex 175.88 -51.999999999999993 0.12000000000000002
      vertex 175.96000000000001 -40 0.14000000000000001
      vertex 175.88 -40 0.12000000000000002
    endloop
  endfacet
  facet normal -0.24253562503629716 0 0.97014250014534076
    outer loop
      vertex 175.96000000000001 -23.999999999999993 0.14000000000000001
      vertex 175.88 -31.999999999999993 0.12000000000000002
      vertex 175.88 -40 0.12000000000000002
    endloop
  endfacet
  facet normal -0.24253562503629716 0 0.97014250014534076
    outer loop
      vertex 175.96000000000001 -23.999999999999993 0.14000000000000001
      vertex 175.88 -40 0.12000000000000002
      vertex 175.96000000000001 -40 0.14000000000000001
    endloop
  endfacet
  facet normal -0.24253562503629719 0 0.97014250014534087
    outer loop
      vertex 175.88 -31.999999999999993 0.12000000000000002
      vertex 175.96000000000001 -23.999999999999993 0.14000000000000001
      vertex 175.96000000000001 -20 0.14000000000000001
    endloop
  endfacet
  facet normal -0.24253562503629716 0 0.97014250014534087
    outer loop
      vertex 175.88 -31.999999999999993 0.12000000000000002
      vertex 175.96000000000001 -20 0.14000000000000001
      vertex 175.88 -20 0.12000000000000002
    endloop
  endfacet
  facet normal -0.24253562503629716 0 0.97014250014534076
    outer loop
      vertex 175.96000000000001 -11.999999999999996 0.14000000000000001
      vertex 175.88 -15.999999999999996 0.12000000000000002
      vertex 175.88 -20 0.12000000000000002
    endloop
  endfacet
  facet normal -0.24253562503629716 0 0.97014250014534076
    outer loop
      vertex 175.96000000000001 -11.999999999999996 0.14000000000000001
      vertex 175.88 -20 0.12000000000000002
      vertex 175.96000000000001 -20 0.14000000000000001
    endloop
  endfacet
  facet normal -0.24253562503629719 0 0.97014250014534087
    outer loop
      vertex 175.88 -15.999999999999996 0.12000000000000002
      vertex 175.96000000000001 -11.999999999999996 0.14000000000000001
      vertex 175.96000000000001 -10 0.14000000000000001
    endloop
  endfacet
  facet normal -0.24253562503629716 0 0.97014250014534087
    outer loop
      vertex 175.88 -15.999999999999996 0.12000000000000002
      vertex 175.96000000000001 -10 0.14000000000000001
      vertex 175.88 -10 0.12000000000000002
    endloop
  endfacet
  facet normal -0.24253562503629719 0 0.97014250014534098
    outer loop
      vertex 175.96000000000001 -1.9999999999999967 0.14000000000000001
      vertex 175.88 -5.9999999999999956 0.12000000000000002
      vertex 175.88 -10 0.12000000000000002
    endloop
  endfacet
  facet normal -0.24253562503629716 0 0.97014250014534076
    outer loop
      vertex 175.96000000000001 -1.9999999999999967 0.14000000000000001
      vertex 175.88 -10 0.12000000000000002
      vertex 175.96000000000001 -10 0.14000000000000001
    endloop
  endfacet
  facet normal -0.24253562503629719 0 0.97014250014534087
    outer loop
      vertex 175.88 -5.9999999999999956 0.12000000000000002
      vertex 175.96000000000001 -1.9999999999999969 0.14000000000000001
      vertex 175.96000000000001 0 0.14000000000000001
    endloop
  endfacet
  facet normal -0.24253562503629716 0 0.97014250014534087
    outer loop
      vertex 175.88 -5.9999999999999956 0.12000000000000002
      vertex 175.96000000000001 0 0.14000000000000001
      vertex 175.88 0 0.12000000000000002
    endloop
  endfacet
  facet normal -0.24253562503629714 0 0.97014250014534076
    outer loop
      vertex 175.96000000000001 0.00080000000000000036 0.14000000000000001
      vertex 175.88 0.00040000000000000051 0.12000000000000002
      vertex 175.88 0 0.12000000000000002
    endloop
  endfacet
  facet normal -0.24253562503629714 0 0.97014250014534076
    outer loop
      vertex 175.96000000000001 0.00080000000000000036 0.14000000000000001
      vertex 175.88 0 0.12000000000000002
      vertex 175.96000000000001 0 0.14000000000000001
    endloop
  endfacet
  facet normal -0.24253562503629711 0 0.97014250014534087
    outer loop
      vertex 175.88 0.00040000000000000045 0.12000000000000002
      vertex 175.96000000000001 0.00080000000000000036 0.14000000000000001
      vertex 175.96000000000001 0.001 0.14000000000000001
    endloop
  endfacet
  facet normal -0.24253562503629719 0 0.97014250014534098
    outer loop
      vertex 175.88 0.00040000000000000045 0.12000000000000002
      vertex 175.96000000000001 0.001 0.14000000000000001
      vertex 175.88 0.001 0.12000000000000002
    endloop
  endfacet
  facet normal -0.24253562503629725 0 0.97014250014534076
    outer loop
      vertex 175.96000000000001 8.0002000000000031 0.14000000000000001
      vertex 175.88 4.0006000000000039 0.12000000000000002
      vertex 175.88 0.001 0.12000000000000002
    endloop
  endfacet
  facet normal -0.24253562503629722 0 0.97014250014534087
    outer loop
      vertex 175.96000000000001 8.0002000000000031 0.14000000000000001
      vertex 175.88 0.001 0.12000000000000002
      vertex 175.96000000000001 0.001 0.14000000000000001
    endloop
  endfacet
  facet normal -0.24253562503629716 0 0.97014250014534087
    outer loop
      vertex 175.88 4.0006000000000048 0.12000000000000002
      vertex 175.96000000000001 8.0002000000000031 0.14000000000000001
      vertex 175.96000000000001 10 0.14000000000000001
    endloop
  endfacet
  facet normal -0.24253562503629719 0 0.97014250014534087
    outer loop
      vertex 175.88 4.0006000000000048 0.12000000000000002
      vertex 175.96000000000001 10 0.14000000000000001
      vertex 175.88 10 0.12000000000000002
    endloop
  endfacet
  facet normal -0.24253562503629716 0 0.97014250014534076
    outer loop
      vertex 175.96000000000001 18.000000000000004 0.14000000000000001
      vertex 175.88 14.000000000000004 0.12000000000000002
      vertex 175.88 10 0.12000000000000002
    endloop
  endfacet
  facet normal -0.24253562503629716 0 0.97014250014534076
    outer loop
      vertex 175.96000000000001 18.000000000000004 0.14000000000000001
      vertex 175.88 10 0.12000000000000002
      vertex 175.96000000000001 10 0.14000000000000001
    endloop
  endfacet
  facet normal -0.24253562503629719 0 0.97014250014534087
    outer loop
      vertex 175.88 14.000000000000004 0.12000000000000002
      vertex 175.96000000000001 18.000000000000004 0.14000000000000001
      vertex 175.96000000000001 20 0.14000000000000001
    endloop
  endfacet
  facet normal -0.24253562503629716 0 0.97014250014534087
    outer loop
      vertex 175.88 14.000000000000004 0.12000000000000002
      vertex 175.96000000000001 20 0.14000000000000001
      vertex 175.88 20 0.12000000000000002
    endloop
  endfacet
  facet normal -0.24253562503629716 0 0.97014250014534076
    outer loop
      vertex 175.96000000000001 36.000000000000007 0.14000000000000001
      vertex 175.88 28.000000000000007 0.12000000000000002
      vertex 175.88 20 0.12000000000000002
    endloop
  endfacet
  facet normal -0.24253562503629716 0 0.97014250014534076
    outer loop
      vertex 175.96000000000001 36.000000000000007 0.14000000000000001
      vertex 175.88 20 0.12000000000000002
      vertex 175.96000000000001 20 0.14000000000000001
    endloop
  endfacet
  facet normal -0.24253562503629719 0 0.97014250014534087
    outer loop
      vertex 175.88 28.000000000000007 0.12000000000000002
      vertex 175.96000000000001 36.000000000000007 0.14000000000000001
      vertex 175.96000000000001 40 0.14000000000000001
    endloop
  endfacet
  facet normal -0.24253562503629716 0 0.97014250014534087
    outer loop
      vertex 175.88 28.000000000000007 0.12000000000000002
      vertex 175.96000000000001 40 0.14000000000000001
      vertex 175.88 40 0.12000000000000002
    endloop
  endfacet
  facet normal -0.24253562503629716 0 0.97014250014534076
    outer loop
      vertex 175.96000000000001 56.000000000000007 0.14000000000000001
      vertex 175.88 48.000000000000007 0.12000000000000002
      vertex 175.88 40 0.12000000000000002
    endloop
  endfacet
  facet normal -0.24253562503629716 0 0.97014250014534076
    outer loop
      vertex 175.96000000000001 56.000000000000007 0.14000000000000001
      vertex 175.88 40 0.12000000000000002
      vertex 175.96000000000001 40 0.14000000000000001
    endloop
  endfacet
  facet normal -0.24253562503629719 0 0.97014250014534087
    outer loop
      vertex 175.88 48.000000000000007 0.12000000000000002
      vertex 175.96000000000001 56.000000000000007 0.14000000000000001
      vertex 175.96000000000001 60 0.14000000000000001
    endloop
  endfacet
  facet normal -0.24253562503629716 0 0.97014250014534087
    outer loop
      vertex 175.88 48.000000000000007 0.12000000000000002
      vertex 175.96000000000001 60 0.14000000000000001
      vertex 175.88 60 0.12000000000000002
    endloop
  endfacet
  facet normal 0.44721359550002893 0 0.89442719099988033
    outer loop
      vertex 177.56 -44 0.12000000000000002
      vertex 177.52000000000001 -48 0.14000000000000001
      vertex 177.52000000000001 -60 0.14000000000000001
    endloop
  endfacet
  facet normal 0.44721359550002893 0 0.89442719099988033
    outer loop
      vertex 177.56 -44 0.12000000000000002
      vertex 177.52000000000001 -60 0.14000000000000001
      vertex 177.56 -60 0.12000000000000002
    endloop
  endfacet
  facet normal 0.44721359550002893 0 0.89442719099988033
    outer loop
      vertex 177.52000000000001 -48 0.14000000000000001
      vertex 177.56 -44 0.12000000000000002
      vertex 177.56 -40 0.12000000000000002
    endloop
  endfacet
  facet normal 0.44721359550002893 -0 0.89442719099988033
    outer loop
      vertex 177.52000000000001 -48 0.14000000000000001
      vertex 177.56 -40 0.12000000000000002
      vertex 177.52000000000001 -40 0.14000000000000001
    endloop
  endfacet
  facet normal 0.44721359550002893 0 0.89442719099988033
    outer loop
      vertex 177.56 -24.000000000000004 0.12000000000000002
      vertex 177.52000000000001 -28 0.14000000000000001
      vertex 177.52000000000001 -40 0.14000000000000001
    endloop
  endfacet
  facet normal 0.44721359550002898 0 0.89442719099988044
    outer loop
      vertex 177.56 -24.000000000000004 0.12000000000000002
      vertex 177.52000000000001 -40 0.14000000000000001
      vertex 177.56 -40 0.12000000000000002
    endloop
  endfacet
  facet normal 0.44721359550002893 0 0.89442719099988044
    outer loop
      vertex 177.52000000000001 -28 0.14000000000000001
      vertex 177.56 -24.000000000000004 0.12000000000000002
      vertex 177.56 -20 0.12000000000000002
    endloop
  endfacet
  facet normal 0.44721359550002893 -0 0.89442719099988033
    outer loop
      vertex 177.52000000000001 -28 0.14000000000000001
      vertex 177.56 -20 0.12000000000000002
      vertex 177.52000000000001 -20 0.14000000000000001
    endloop
  endfacet
  facet normal 0.44721359550002893 0 0.89442719099988033
    outer loop
      vertex 177.56 -12.000000000000002 0.12000000000000002
      vertex 177.52000000000001 -14 0.14000000000000001
      vertex 177.52000000000001 -20 0.14000000000000001
    endloop
  endfacet
  facet normal 0.44721359550002898 0 0.89442719099988044
    outer loop
      vertex 177.56 -12.000000000000002 0.12000000000000002
      vertex 177.52000000000001 -20 0.14000000000000001
      vertex 177.56 -20 0.12000000000000002
    endloop
  endfacet
  facet normal 0.44721359550002893 0 0.89442719099988044
    outer loop
      vertex 177.52000000000001 -14 0.14000000000000001
      vertex 177.56 -12.000000000000002 0.12000000000000002
      vertex 177.56 -10 0.12000000000000002
    endloop
  endfacet
  facet normal 0.44721359550002893 -0 0.89442719099988033
    outer loop
      vertex 177.52000000000001 -14 0.14000000000000001
      vertex 177.56 -10 0.12000000000000002
      vertex 177.52000000000001 -10 0.14000000000000001
    endloop
  endfacet
  facet normal 0.44721359550002893 0 0.89442719099988033
    outer loop
      vertex 177.56 -2.0000000000000018 0.12000000000000002
      vertex 177.52000000000001 -4.0000000000000009 0.14000000000000001
      vertex 177.52000000000001 -10 0.14000000000000001
    endloop
  endfacet
  facet normal 0.44721359550002898 0 0.89442719099988044
    outer loop
      vertex 177.56 -2.0000000000000018 0.12000000000000002
      vertex 177.52000000000001 -10 0.14000000000000001
      vertex 177.56 -10 0.12000000000000002
    endloop
  endfacet
  facet normal 0.44721359550002893 0 0.89442719099988044
    outer loop
      vertex 177.52000000000001 -4.0000000000000009 0.14000000000000001
      vertex 177.56 -2.0000000000000018 0.12000000000000002
      vertex 177.56 0 0.12000000000000002
    endloop
  endfacet
  facet normal 0.44721359550002898 -0 0.89442719099988044
    outer loop
      vertex 177.52000000000001 -4.0000000000000009 0.14000000000000001
      vertex 177.56 0 0.12000000000000002
      vertex 177.52000000000001 0 0.14000000000000001
    endloop
  endfacet
  facet normal 0.44721359550002898 0 0.89442719099988044
    outer loop
      vertex 177.56 0.00079999999999999982 0.12000000000000002
      vertex 177.52000000000001 0.00059999999999999995 0.14000000000000001
      vertex 177.52000000000001 0 0.14000000000000001
    endloop
  endfacet
  facet normal 0.44721359550002893 0 0.89442719099988033
    outer loop
      vertex 177.56 0.00079999999999999982 0.12000000000000002
      vertex 177.52000000000001 0 0.14000000000000001
      vertex 177.56 0 0.12000000000000002
    endloop
  endfacet
  facet normal 0.44721359550002887 0 0.89442719099988033
    outer loop
      vertex 177.52000000000001 0.00059999999999999995 0.14000000000000001
      vertex 177.56 0.00079999999999999982 0.12000000000000002
      vertex 177.56 0.001 0.12000000000000002
    endloop
  endfacet
  facet normal 0.44721359550002893 -0 0.89442719099988033
    outer loop
      vertex 177.52000000000001 0.00059999999999999995 0.14000000000000001
      vertex 177.56 0.001 0.12000000000000002
      vertex 177.52000000000001 0.001 0.14000000000000001
    endloop
  endfacet
  facet normal 0.44721359550002904 0 0.89442719099988055
    outer loop
      vertex 177.56 8.0001999999999978 0.12000000000000002
      vertex 177.52000000000001 6.0003999999999991 0.14000000000000001
      vertex 177.52000000000001 0.001 0.14000000000000001
    endloop
  endfacet
  facet normal 0.44721359550002898 0 0.89442719099988044
    outer loop
      vertex 177.56 8.0001999999999978 0.12000000000000002
      vertex 177.52000000000001 0.001 0.14000000000000001
      vertex 177.56 0.001 0.12000000000000002
    endloop
  endfacet
  facet normal 0.44721359550002898 0 0.89442719099988044
    outer loop
      vertex 177.52000000000001 6.0003999999999991 0.14000000000000001
      vertex 177.56 8.0001999999999978 0.12000000000000002
      vertex 177.56 10 0.12000000000000002
    endloop
  endfacet
  facet normal 0.44721359550002898 -0 0.89442719099988044
    outer loop
      vertex 177.52000000000001 6.0003999999999991 0.14000000000000001
      vertex 177.56 10 0.12000000000000002
      vertex 177.52000000000001 10 0.14000000000000001
    endloop
  endfacet
  facet normal 0.44721359550002893 0 0.89442719099988033
    outer loop
      vertex 177.56 18 0.12000000000000002
      vertex 177.52000000000001 16 0.14000000000000001
      vertex 177.52000000000001 10 0.14000000000000001
    endloop
  endfacet
  facet normal 0.44721359550002893 0 0.89442719099988033
    outer loop
      vertex 177.56 18 0.12000000000000002
      vertex 177.52000000000001 10 0.14000000000000001
      vertex 177.56 10 0.12000000000000002
    endloop
  endfacet
  facet normal 0.44721359550002893 0 0.89442719099988033
    outer loop
      vertex 177.52000000000001 16 0.14000000000000001
      vertex 177.56 18 0.12000000000000002
      vertex 177.56 20 0.12000000000000002
    endloop
  endfacet
  facet normal 0.44721359550002893 -0 0.89442719099988033
    outer loop
      vertex 177.52000000000001 16 0.14000000000000001
      vertex 177.56 20 0.12000000000000002
      vertex 177.52000000000001 20 0.14000000000000001
    endloop
  endfacet
  facet normal 0.44721359550002893 0 0.89442719099988033
    outer loop
      vertex 177.56 36 0.12000000000000002
      vertex 177.52000000000001 32 0.14000000000000001
      vertex 177.52000000000001 20 0.14000000000000001
    endloop
  endfacet
  facet normal 0.44721359550002893 0 0.89442719099988033
    outer loop
      vertex 177.56 36 0.12000000000000002
      vertex 177.52000000000001 20 0.14000000000000001
      vertex 177.56 20 0.12000000000000002
    endloop
  endfacet
  facet normal 0.44721359550002893 0 0.89442719099988033
    outer loop
      vertex 177.52000000000001 32 0.14000000000000001
      vertex 177.56 36 0.12000000000000002
      vertex 177.56 40 0.12000000000000002
    endloop
  endfacet
  facet normal 0.44721359550002893 -0 0.89442719099988033
    outer loop
      vertex 177.52000000000001 32 0.14000000000000001
      vertex 177.56 40 0.12000000000000002
      vertex 177.52000000000001 40 0.14000000000000001
    endloop
  endfacet
  facet normal 0.44721359550002893 0 0.89442719099988033
    outer loop
      vertex 177.56 56 0.12000000000000002
      vertex 177.52000000000001 52 0.14000000000000001
      vertex 177.52000000000001 40 0.14000000000000001
    endloop
  endfacet
  facet normal 0.44721359550002893 0 0.89442719099988033
    outer loop
      vertex 177.56 56 0.12000000000000002
      vertex 177.52000000000001 40 0.14000000000000001
      vertex 177.56 40 0.12000000000000002
    endloop
  endfacet
  facet normal 0.44721359550002893 0 0.89442719099988033
    outer loop
      vertex 177.52000000000001 52 0.14000000000000001
      vertex 177.56 56 0.12000000000000002
      vertex 177.56 60 0.12000000000000002
    endloop
  endfacet
  facet normal 0.44721359550002893 -0 0.89442719099988033
    outer loop
      vertex 177.52000000000001 52 0.14000000000000001
      vertex 177.56 60 0.12000000000000002
      vertex 177.52000000000001 60 0.14000000000000001
    endloop
  endfacet
endsolid terrain_band_7
