solid terrain_band_8
  facet normal -0.24253562503637796 0 0.97014250014532066
    outer loop
      vertex 175.96000000000001 -43.999999999999993 0.14000000000000001
      vertex 175.96000000000001 -60 0.14000000000000001
      vertex 176 -60 0.14999999999999999
    endloop
  endfacet
  facet normal -0.24253562503637796 0 0.97014250014532066
    outer loop
      vertex 175.96000000000001 -43.999999999999993 0.14000000000000001
      vertex 176 -60 0.14999999999999999
      vertex 176 -40 0.14999999999999999
    endloop
  endfacet
  facet normal -0.24253562503637796 0 0.97014250014532066
    outer loop
      vertex 175.96000000000001 -43.999999999999993 0.14000000000000001
      vertex 176 -40 0.14999999999999999
      vertex 175.96000000000001 -40 0.14000000000000001
    endloop
  endfacet
  facet normal -0.24253562503637796 0 0.97014250014532066
    outer loop
      vertex 175.96000000000001 -23.999999999999993 0.14000000000000001
      vertex 175.96000000000001 -40 0.14000000000000001
      vertex 176 -40 0.14999999999999999
    endloop
  endfacet
  facet normal -0.24253562503637796 0 0.97014250014532066
    outer loop
      vertex 175.96000000000001 -23.999999999999993 0.14000000000000001
      vertex 176 -40 0.14999999999999999
      vertex 176 -20 0.14999999999999999
    endloop
  endfacet
  facet normal -0.24253562503637796 0 0.97014250014532066
    outer loop
      vertex 175.96000000000001 -23.999999999999993 0.14000000000000001
      vertex 176 -20 0.14999999999999999
      vertex 175.96000000000001 -20 0.14000000000000001
    endloop
  endfacet
  facet normal -0.24253562503637796 0 0.97014250014532066
    outer loop
      vertex 175.96000000000001 -11.999999999999996 0.14000000000000001
      vertex 175.96000000000001 -20 0.14000000000000001
      vertex 176 -20 0.14999999999999999
    endloop
  endfacet
  facet normal -0.24253562503637796 0 0.97014250014532066
    outer loop
      vertex 175.96000000000001 -11.999999999999996 0.14000000000000001
      vertex 176 -20 0.14999999999999999
      vertex 176 -10 0.14999999999999999
    endloop
  endfacet
  facet normal -0.24253562503637796 0 0.97014250014532066
    outer loop
      vertex 175.96000000000001 -11.999999999999996 0.14000000000000001
      vertex 176 -10 0.14999999999999999
      vertex 175.96000000000001 -10 0.14000000000000001
    endloop
  endfacet
  facet normal -0.24253562503637796 0 0.97014250014532066
    outer loop
      vertex 175.96000000000001 -1.9999999999999969 0.14000000000000001
      vertex 175.96000000000001 -10 0.14000000000000001
      vertex 176 -10 0.14999999999999999
    endloop
  endfacet
  facet normal -0.24253562503637796 0 0.97014250014532066
    outer loop
      vertex 175.96000000000001 -1.9999999999999969 0.14000000000000001
      vertex 176 -10 0.14999999999999999
      vertex 176 0 0.14999999999999999
    endloop
  endfacet
  facet normal -0.24253562503637796 0 0.97014250014532066
    outer loop
      vertex 175.96000000000001 -1.9999999999999964 0.14000000000000001
      vertex 176 0 0.14999999999999999
      vertex 175.96000000000001 0 0.14000000000000001
    endloop
  endfacet
  facet normal -0.24253562503637793 0 0.97014250014532066
    outer loop
      vertex 175.96000000000001 0.00080000000000000036 0.14000000000000001
      vertex 175.96000000000001 0 0.14000000000000001
      vertex 176 0 0.14999999999999999
    endloop
  endfacet
  facet normal -0.24253562503637796 0 0.97014250014532066
    outer loop
      vertex 175.96000000000001 0.00080000000000000036 0.14000000000000001
      vertex 176 0 0.14999999999999999
      vertex 176 0.001 0.14999999999999999
    endloop
  endfacet
  facet normal -0.24253562503637793 0 0.97014250014532066
    outer loop
      vertex 175.96000000000001 0.00080000000000000036 0.14000000000000001
      vertex 176 0.001 0.14999999999999999
      vertex 175.96000000000001 0.001 0.14000000000000001
    endloop
  endfacet
  facet normal -0.24253562503637796 0 0.97014250014532066
    outer loop
      vertex 175.96000000000001 8.0002000000000031 0.14000000000000001
      vertex 175.96000000000001 0.001 0.14000000000000001
      vertex 176 0.001 0.14999999999999999
    endloop
  endfacet
  facet normal -0.24253562503637796 0 0.97014250014532066
    outer loop
      vertex 175.96000000000001 8.0002000000000031 0.14000000000000001
      vertex 176 0.001 0.14999999999999999
      vertex 176 10 0.14999999999999999
    endloop
  endfacet
  facet normal -0.24253562503637793 0 0.97014250014532055
    outer loop
      vertex 175.96000000000001 8.0002000000000049 0.14000000000000001
      vertex 176 10 0.14999999999999999
      vertex 175.96000000000001 10 0.14000000000000001
    endloop
  endfacet
  facet normal -0.24253562503637796 0 0.97014250014532066
    outer loop
      vertex 175.96000000000001 18.000000000000004 0.14000000000000001
      vertex 175.96000000000001 10 0.14000000000000001
      vertex 176 10 0.14999999999999999
    endloop
  endfacet
  facet normal -0.24253562503637796 0 0.97014250014532066
    outer loop
      vertex 175.96000000000001 18.000000000000004 0.14000000000000001
      vertex 176 10 0.14999999999999999
      vertex 176 20 0.14999999999999999
    endloop
  endfacet
  facet normal -0.24253562503637796 0 0.97014250014532066
    outer loop
      vertex 175.96000000000001 18.000000000000004 0.14000000000000001
      vertex 176 20 0.14999999999999999
      vertex 175.96000000000001 20 0.14000000000000001
    endloop
  endfacet
  facet normal -0.24253562503637796 0 0.97014250014532066
    outer loop
      vertex 175.96000000000001 36.000000000000007 0.14000000000000001
      vertex 175.96000000000001 20 0.14000000000000001
      vertex 176 20 0.14999999999999999
    endloop
  endfacet
  facet normal -0.24253562503637796 0 0.97014250014532066
    outer loop
      vertex 175.96000000000001 36.000000000000007 0.14000000000000001
      vertex 176 20 0.14999999999999999
      vertex 176 40 0.14999999999999999
    endloop
  endfacet
  facet normal -0.24253562503637796 0 0.97014250014532066
    outer loop
      vertex 175.96000000000001 36.000000000000007 0.14000000000000001
      vertex 176 40 0.14999999999999999
      vertex 175.96000000000001 40 0.14000000000000001
    endloop
  endfacet
  facet normal -0.24253562503637796 0 0.97014250014532066
    outer loop
      vertex 175.96000000000001 56.000000000000007 0.14000000000000001
      vertex 175.96000000000001 40 0.14000000000000001
      vertex 176 40 0.14999999999999999
    endloop
  endfacet
  facet normal -0.24253562503637796 0 0.97014250014532066
    outer loop
      vertex 175.96000000000001 56.000000000000007 0.14000000000000001
      vertex 176 40 0.14999999999999999
      vertex 176 60 0.14999999999999999
    endloop
  endfacet
  facet normal -0.24253562503637796 0 0.97014250014532066
    outer loop
      vertex 175.96000000000001 56.000000000000007 0.14000000000000001
      vertex 176 60 0.14999999999999999
      vertex 175.96000000000001 60 0.14000000000000001
    endloop
  endfacet
  facet normal 0 0 1
    outer loop
      vertex 176 -60 0.14999999999999999
      vertex 176.19999999999999 -60 0.14999999999999999
      vertex 176.19999999999999 -40 0.14999999999999999
    endloop
  endfacet
  facet normal 0 0 1
    outer loop
      vertex 176 -60 0.14999999999999999
      vertex 176.19999999999999 -40 0.14999999999999999
      vertex 176 -40 0.14999999999999999
    endloop
  endfacet
  facet normal 0 0 1
    outer loop
      vertex 176 -40 0.14999999999999999
      vertex 176.19999999999999 -40 0.14999999999999999
      vertex 176.19999999999999 -20 0.14999999999999999
    endloop
  endfacet
  facet normal 0 0 1
    outer loop
      vertex 176 -40 0.14999999999999999
      vertex 176.19999999999999 -20 0.14999999999999999
      vertex 176 -20 0.14999999999999999
    endloop
  endfacet
  facet normal 0 0 1
    outer loop
      vertex 176 -20 0.14999999999999999
      vertex 176.19999999999999 -20 0.14999999999999999
      vertex 176.19999999999999 -10 0.14999999999999999
    endloop
  endfacet
  facet normal 0 0 1
    outer loop
      vertex 176 -20 0.14999999999999999
      vertex 176.19999999999999 -10 0.14999999999999999
      vertex 176 -10 0.14999999999999999
    endloop
  endfacet
  facet normal 0 0 1
    outer loop
      vertex 176 -10 0.14999999999999999
      vertex 176.19999999999999 -10 0.14999999999999999
      vertex 176.19999999999999 0 0.14999999999999999
    endloop
  endfacet
  facet normal 0 0 1
    outer loop
      vertex 176 -10 0.14999999999999999
      vertex 176.19999999999999 0 0.14999999999999999
      vertex 176 0 0.14999999999999999
    endloop
  endfacet
  facet normal 0 0 1
    outer loop
      vertex 176 0 0.14999999999999999
      vertex 176.19999999999999 0 0.14999999999999999
      vertex 176.19999999999999 0.001 0.14999999999999999
    endloop
  endfacet
  facet normal 0 0 1
    outer loop
      vertex 176 0 0.14999999999999999
      vertex 176.19999999999999 0.001 0.14999999999999999
      vertex 176 0.001 0.14999999999999999
    endloop
  endfacet
  facet normal 0 0 1
    outer loop
      vertex 176 0.001 0.14999999999999999
      vertex 176.19999999999999 0.001 0.14999999999999999
      vertex 176.19999999999999 10 0.14999999999999999
    endloop
  endfacet
  facet normal 0 0 1
    outer loop
      vertex 176 0.001 0.14999999999999999
      vertex 176.19999999999999 10 0.14999999999999999
      vertex 176 10 0.14999999999999999
    endloop
  endfacet
  facet normal 0 0 1
    outer loop
      vertex 176 10 0.14999999999999999
      vertex 176.19999999999999 10 0.14999999999999999
      vertex 176.19999999999999 20 0.14999999999999999
    endloop
  endfacet
  facet normal 0 0 1
    outer loop
      vertex 176 10 0.14999999999999999
      vertex 176.19999999999999 20 0.14999999999999999
      vertex 176 20 0.14999999999999999
    endloop
  endfacet
  facet normal 0 0 1
    outer loop
      vertex 176 20 0.14999999999999999
      vertex 176.19999999999999 20 0.14999999999999999
      vertex 176.19999999999999 40 0.14999999999999999
    endloop
  endfacet
  facet normal 0 0 1
    outer loop
      vertex 176 20 0.14999999999999999
      vertex 176.19999999999999 40 0.14999999999999999
      vertex 176 40 0.14999999999999999
    endloop
  endfacet
  facet normal 0 0 1
    outer loop
      vertex 176 40 0.14999999999999999
      vertex 176.19999999999999 40 0.14999999999999999
      vertex 176.19999999999999 60 0.14999999999999999
    endloop
  endfacet
  facet normal 0 0 1
    outer loop
      vertex 176 40 0.14999999999999999
      vertex 176.19999999999999 60 0.14999999999999999
      vertex 176 60 0.14999999999999999
    endloop
  endfacet
  facet normal 0 0 1
    outer loop
      vertex 176.19999999999999 -60 0.14999999999999999
      vertex 176.40000000000001 -60 0.14999999999999999
      vertex 176.40000000000001 -40 0.14999999999999999
    endloop
  endfacet
  facet normal 0 0 1
    outer loop
      vertex 176.19999999999999 -60 0.14999999999999999
      vertex 176.40000000000001 -40 0.14999999999999999
      vertex 176.19999999999999 -40 0.14999999999999999
    endloop
  endfacet
  facet normal 0 0 1
    outer loop
      vertex 176.19999999999999 -40 0.14999999999999999
      vertex 176.40000000000001 -40 0.14999999999999999
      vertex 176.40000000000001 -20 0.14999999999999999
    endloop
  endfacet
  facet normal 0 0 1
    outer loop
      vertex 176.19999999999999 -40 0.14999999999999999
      vertex 176.40000000000001 -20 0.14999999999999999
      vertex 176.19999999999999 -20 0.14999999999999999
    endloop
  endfacet
  facet normal 0 0 1
    outer loop
      vertex 176.19999999999999 -20 0.14999999999999999
      vertex 176.40000000000001 -20 0.14999999999999999
      vertex 176.40000000000001 -10 0.14999999999999999
    endloop
  endfacet
  facet normal 0 0 1
    outer loop
      vertex 176.19999999999999 -20 0.14999999999999999
      vertex 176.40000000000001 -10 0.14999999999999999
      vertex 176.19999999999999 -10 0.14999999999999999
    endloop
  endfacet
  facet normal 0 0 1
    outer loop
      vertex 176.19999999999999 -10 0.14999999999999999
      vertex 176.40000000000001 -10 0.14999999999999999
      vertex 176.40000000000001 0 0.14999999999999999
    endloop
  endfacet
  facet normal 0 0 1
    outer loop
      vertex 176.19999999999999 -10 0.14999999999999999
      vertex 176.40000000000001 0 0.14999999999999999
      vertex 176.19999999999999 0 0.14999999999999999
    endloop
  endfacet
  facet normal 0 0 1
    outer loop
      vertex 176.19999999999999 0 0.14999999999999999
      vertex 176.40000000000001 0 0.14999999999999999
      vertex 176.40000000000001 0.001 0.14999999999999999
    endloop
  endfacet
  facet normal 0 0 1
    outer loop
      vertex 176.19999999999999 0 0.14999999999999999
      vertex 176.40000000000001 0.001 0.14999999999999999
      vertex 176.19999999999999 0.001 0.14999999999999999
    endloop
  endfacet
  facet normal 0 0 1
    outer loop
      vertex 176.19999999999999 0.001 0.14999999999999999
      vertex 176.40000000000001 0.001 0.14999999999999999
      vertex 176.40000000000001 10 0.14999999999999999
    endloop
  endfacet
  facet normal 0 0 1
    outer loop
      vertex 176.19999999999999 0.001 0.14999999999999999
      vertex 176.40000000000001 10 0.14999999999999999
      vertex 176.19999999999999 10 0.14999999999999999
    endloop
  endfacet
  facet normal 0 0 1
    outer loop
      vertex 176.19999999999999 10 0.14999999999999999
      vertex 176.40000000000001 10 0.14999999999999999
      vertex 176.40000000000001 20 0.14999999999999999
    endloop
  endfacet
  facet normal 0 0 1
    outer loop
      vertex 176.19999999999999 10 0.14999999999999999
      vertex 176.40000000000001 20 0.14999999999999999
      vertex 176.19999999999999 20 0.14999999999999999
    endloop
  endfacet
  facet normal 0 0 1
    outer loop
      vertex 176.19999999999999 20 0.14999999999999999
      vertex 176.40000000000001 20 0.14999999999999999
      vertex 176.40000000000001 40 0.14999999999999999
    endloop
  endfacet
  facet normal 0 0 1
    outer loop
      vertex 176.19999999999999 20 0.14999999999999999
      vertex 176.40000000000001 40 0.14999999999999999
      vertex 176.19999999999999 40 0.14999999999999999
    endloop
  endfacet
  facet normal 0 0 1
    outer loop
      vertex 176.19999999999999 40 0.14999999999999999
      vertex 176.40000000000001 40 0.14999999999999999
      vertex 176.40000000000001 60 0.14999999999999999
    endloop
  endfacet
  facet normal 0 0 1
    outer loop
      vertex 176.19999999999999 40 0.14999999999999999
      vertex 176.40000000000001 60 0.14999999999999999
      vertex 176.19999999999999 60 0.14999999999999999
    endloop
  endfacet
  facet normal 0 0 1
    outer loop
      vertex 176.40000000000001 -60 0.14999999999999999
      vertex 176.59999999999999 -60 0.14999999999999999
      vertex 176.59999999999999 -40 0.14999999999999999
    endloop
  endfacet
  facet normal 0 0 1
    outer loop
      vertex 176.40000000000001 -60 0.14999999999999999
      vertex 176.59999999999999 -40 0.14999999999999999
      vertex 176.40000000000001 -40 0.14999999999999999
    endloop
  endfacet
  facet normal 0 0 1
    outer loop
      vertex 176.40000000000001 -40 0.14999999999999999
      vertex 176.59999999999999 -40 0.14999999999999999
      vertex 176.59999999999999 -20 0.14999999999999999
    endloop
  endfacet
  facet normal 0 0 1
    outer loop
      vertex 176.40000000000001 -40 0.14999999999999999
      vertex 176.59999999999999 -20 0.14999999999999999
      vertex 176.40000000000001 -20 0.14999999999999999
    endloop
  endfacet
  facet normal 0 0 1
    outer loop
      vertex 176.40000000000001 -20 0.14999999999999999
      vertex 176.59999999999999 -20 0.14999999999999999
      vertex 176.59999999999999 -10 0.14999999999999999
    endloop
  endfacet
  facet normal 0 0 1
    outer loop
      vertex 176.40000000000001 -20 0.14999999999999999
      vertex 176.59999999999999 -10 0.14999999999999999
      vertex 176.40000000000001 -10 0.14999999999999999
    endloop
  endfacet
  facet normal 0 0 1
    outer loop
      vertex 176.40000000000001 -10 0.14999999999999999
      vertex 176.59999999999999 -10 0.14999999999999999
      vertex 176.59999999999999 0 0.14999999999999999
    endloop
  endfacet
  facet normal 0 0 1
    outer loop
      vertex 176.40000000000001 -10 0.14999999999999999
      vertex 176.59999999999999 0 0.14999999999999999
      vertex 176.40000000000001 0 0.14999999999999999
    endloop
  endfacet
  facet normal 0 0 1
    outer loop
      vertex 176.40000000000001 0 0.14999999999999999
      vertex 176.59999999999999 0 0.14999999999999999
      vertex 176.59999999999999 0.001 0.14999999999999999
    endloop
  endfacet
  facet normal 0 0 1
    outer loop
      vertex 176.40000000000001 0 0.14999999999999999
      vertex 176.59999999999999 0.001 0.14999999999999999
      vertex 176.40000000000001 0.001 0.14999999999999999
    endloop
  endfacet
  facet normal 0 0 1
    outer loop
      vertex 176.40000000000001 0.001 0.14999999999999999
      vertex 176.59999999999999 0.001 0.14999999999999999
      vertex 176.59999999999999 10 0.14999999999999999
    endloop
  endfacet
  facet normal 0 0 1
    outer loop
      vertex 176.40000000000001 0.001 0.14999999999999999
      vertex 176.59999999999999 10 0.14999999999999999
      vertex 176.40000000000001 10 0.14999999999999999
    endloop
  endfacet
  facet normal 0 0 1
    outer loop
      vertex 176.40000000000001 10 0.14999999999999999
      vertex 176.59999999999999 10 0.14999999999999999
      vertex 176.59999999999999 20 0.14999999999999999
    endloop
  endfacet
  facet normal 0 0 1
    outer loop
      vertex 176.40000000000001 10 0.14999999999999999
      vertex 176.59999999999999 20 0.14999999999999999
      vertex 176.40000000000001 20 0.14999999999999999
    endloop
  endfacet
  facet normal 0 0 1
    outer loop
      vertex 176.40000000000001 20 0.14999999999999999
      vertex 176.59999999999999 20 0.14999999999999999
      vertex 176.59999999999999 40 0.14999999999999999
    endloop
  endfacet
  facet normal 0 0 1
    outer loop
      vertex 176.40000000000001 20 0.14999999999999999
      vertex 176.59999999999999 40 0.14999999999999999
      vertex 176.40000000000001 40 0.14999999999999999
    endloop
  endfacet
  facet normal 0 0 1
    outer loop
      vertex 176.40000000000001 40 0.14999999999999999
      vertex 176.59999999999999 40 0.14999999999999999
      vertex 176.59999999999999 60 0.14999999999999999
    endloop
  endfacet
  facet normal 0 0 1
    outer loop
      vertex 176.40000000000001 40 0.14999999999999999
      vertex 176.59999999999999 60 0.14999999999999999
      vertex 176.40000000000001 60 0.14999999999999999
    endloop
  endfacet
  facet normal -0.2425356250363786 0 0.97014250014532055
    outer loop
      vertex 176.63999999999999 -56 0.16
      vertex 176.59999999999999 -60 0.14999999999999999
      vertex 176.63999999999999 -60 0.16
    endloop
  endfacet
  facet normal -0.2425356250363786 0 0.97014250014532055
    outer loop
      vertex 176.59999999999999 -60 0.14999999999999999
      vertex 176.63999999999999 -56 0.16
      vertex 176.63999999999999 -40 0.16
    endloop
  endfacet
  facet normal -0.2425356250363786 0 0.97014250014532055
    outer loop
      vertex 176.59999999999999 -60 0.14999999999999999
      vertex 176.63999999999999 -40 0.16
      vertex 176.59999999999999 -40 0.14999999999999999
    endloop
  endfacet
  facet normal -0.2425356250363786 0 0.97014250014532055
    outer loop
      vertex 176.63999999999999 -36 0.16
      vertex 176.59999999999999 -40 0.14999999999999999
      vertex 176.63999999999999 -40 0.16
    endloop
  endfacet
  facet normal -0.2425356250363786 0 0.97014250014532055
    outer loop
      vertex 176.59999999999999 -40 0.14999999999999999
      vertex 176.63999999999999 -36 0.16
      vertex 176.63999999999999 -20 0.16
    endloop
  endfacet
  facet normal -0.2425356250363786 0 0.97014250014532055
    outer loop
      vertex 176.59999999999999 -40 0.14999999999999999
      vertex 176.63999999999999 -20 0.16
      vertex 176.59999999999999 -20 0.14999999999999999
    endloop
  endfacet
  facet normal -0.2425356250363786 0 0.97014250014532055
    outer loop
      vertex 176.63999999999999 -18 0.16
      vertex 176.59999999999999 -20 0.14999999999999999
      vertex 176.63999999999999 -20 0.16
    endloop
  endfacet
  facet normal -0.2425356250363786 0 0.97014250014532055
    outer loop
      vertex 176.59999999999999 -20 0.14999999999999999
      vertex 176.63999999999999 -18 0.16
      vertex 176.63999999999999 -10 0.16
    endloop
  endfacet
  facet normal -0.2425356250363786 0 0.97014250014532055
    outer loop
      vertex 176.59999999999999 -20 0.14999999999999999
      vertex 176.63999999999999 -10 0.16
      vertex 176.59999999999999 -10 0.14999999999999999
    endloop
  endfacet
  facet normal -0.2425356250363786 0 0.97014250014532055
    outer loop
      vertex 176.63999999999999 -7.9999999999999991 0.16
      vertex 176.59999999999999 -10 0.14999999999999999
      vertex 176.63999999999999 -10 0.16
    endloop
  endfacet
  facet normal -0.2425356250363786 0 0.97014250014532044
    outer loop
      vertex 176.59999999999999 -10 0.14999999999999999
      vertex 176.63999999999999 -7.9999999999999982 0.16
      vertex 176.63999999999999 0 0.16
    endloop
  endfacet
  facet normal -0.2425356250363786 0 0.97014250014532055
    outer loop
      vertex 176.59999999999999 -10 0.14999999999999999
      vertex 176.63999999999999 0 0.16
      vertex 176.59999999999999 0 0.14999999999999999
    endloop
  endfacet
  facet normal -0.2425356250363786 0 0.97014250014532055
    outer loop
      vertex 176.63999999999999 0.00020000000000000009 0.16
      vertex 176.59999999999999 0 0.14999999999999999
      vertex 176.63999999999999 0 0.16
    endloop
  endfacet
  facet normal -0.2425356250363786 0 0.97014250014532044
    outer loop
      vertex 176.59999999999999 0 0.14999999999999999
      vertex 176.63999999999999 0.00020000000000000012 0.16
      vertex 176.63999999999999 0.001 0.16
    endloop
  endfacet
  facet normal -0.24253562503637857 0 0.97014250014532033
    outer loop
      vertex 176.59999999999999 0 0.14999999999999999
      vertex 176.63999999999999 0.001 0.16
      vertex 176.59999999999999 0.001 0.14999999999999999
    endloop
  endfacet
  facet normal -0.2425356250363786 0 0.97014250014532044
    outer loop
      vertex 176.63999999999999 2.0007999999999999 0.16
      vertex 176.59999999999999 0.001 0.14999999999999999
      vertex 176.63999999999999 0.001 0.16
    endloop
  endfacet
  facet normal -0.2425356250363786 0 0.97014250014532044
    outer loop
      vertex 176.59999999999999 0.001 0.14999999999999999
      vertex 176.63999999999999 2.0008000000000012 0.16
      vertex 176.63999999999999 10 0.16
    endloop
  endfacet
  facet normal -0.2425356250363786 0 0.97014250014532044
    outer loop
      vertex 176.59999999999999 0.001 0.14999999999999999
      vertex 176.63999999999999 10 0.16
      vertex 176.59999999999999 10 0.14999999999999999
    endloop
  endfacet
  facet normal -0.2425356250363786 0 0.97014250014532055
    outer loop
      vertex 176.63999999999999 12 0.16
      vertex 176.59999999999999 10 0.14999999999999999
      vertex 176.63999999999999 10 0.16
    endloop
  endfacet
  facet normal -0.2425356250363786 0 0.97014250014532044
    outer loop
      vertex 176.59999999999999 10 0.14999999999999999
      vertex 176.63999999999999 12.000000000000002 0.16
      vertex 176.63999999999999 20 0.16
    endloop
  endfacet
  facet normal -0.2425356250363786 0 0.97014250014532055
    outer loop
      vertex 176.59999999999999 10 0.14999999999999999
      vertex 176.63999999999999 20 0.16
      vertex 176.59999999999999 20 0.14999999999999999
    endloop
  endfacet
  facet normal -0.2425356250363786 0 0.97014250014532055
    outer loop
      vertex 176.63999999999999 24 0.16
      vertex 176.59999999999999 20 0.14999999999999999
      vertex 176.63999999999999 20 0.16
    endloop
  endfacet
  facet normal -0.2425356250363786 0 0.97014250014532044
    outer loop
      vertex 176.59999999999999 20 0.14999999999999999
      vertex 176.63999999999999 24.000000000000004 0.16
      vertex 176.63999999999999 40 0.16
    endloop
  endfacet
  facet normal -0.2425356250363786 0 0.97014250014532055
    outer loop
      vertex 176.59999999999999 20 0.14999999999999999
      vertex 176.63999999999999 40 0.16
      vertex 176.59999999999999 40 0.14999999999999999
    endloop
  endfacet
  facet normal -0.2425356250363786 0 0.97014250014532055
    outer loop
      vertex 176.63999999999999 44 0.16
      vertex 176.59999999999999 40 0.14999999999999999
      vertex 176.63999999999999 40 0.16
    endloop
  endfacet
  facet normal -0.2425356250363786 0 0.97014250014532055
    outer loop
      vertex 176.59999999999999 40 0.14999999999999999
      vertex 176.63999999999999 44 0.16
      vertex 176.63999999999999 60 0.16
    endloop
  endfacet
  facet normal -0.2425356250363786 0 0.97014250014532055
    outer loop
      vertex 176.59999999999999 40 0.14999999999999999
      vertex 176.63999999999999 60 0.16
      vertex 176.59999999999999 60 0.14999999999999999
    endloop
  endfacet
  facet normal 0.44721359550002893 0 0.89442719099988033
    outer loop
      vertex 177.52000000000001 -48 0.14000000000000001
      vertex 177.48000000000002 -52 0.16
      vertex 177.48000000000002 -60 0.16
    endloop
  endfacet
  facet normal 0.44721359550002893 0 0.89442719099988033
    outer loop
      vertex 177.52000000000001 -48 0.14000000000000001
      vertex 177.48000000000002 -60 0.16
      vertex 177.52000000000001 -60 0.14000000000000001
    endloop
  endfacet
  facet normal 0.44721359550002893 0 0.89442719099988033
    outer loop
      vertex 177.48000000000002 -52 0.16
      vertex 177.52000000000001 -48 0.14000000000000001
      vertex 177.52000000000001 -40 0.14000000000000001
    endloop
  endfacet
  facet normal 0.44721359550002893 -0 0.89442719099988033
    outer loop
      vertex 177.48000000000002 -52 0.16
      vertex 177.52000000000001 -40 0.14000000000000001
      vertex 177.48000000000002 -40 0.16
    endloop
  endfacet
  facet normal 0.44721359550002893 0 0.89442719099988033
    outer loop
      vertex 177.52000000000001 -28 0.14000000000000001
      vertex 177.48000000000002 -32 0.16
      vertex 177.48000000000002 -40 0.16
    endloop
  endfacet
  facet normal 0.44721359550002893 0 0.89442719099988033
    outer loop
      vertex 177.52000000000001 -28 0.14000000000000001
      vertex 177.48000000000002 -40 0.16
      vertex 177.52000000000001 -40 0.14000000000000001
    endloop
  endfacet
  facet normal 0.44721359550002893 0 0.89442719099988033
    outer loop
      vertex 177.48000000000002 -32 0.16
      vertex 177.52000000000001 -28 0.14000000000000001
      vertex 177.52000000000001 -20 0.14000000000000001
    endloop
  endfacet
  facet normal 0.44721359550002893 -0 0.89442719099988033
    outer loop
      vertex 177.48000000000002 -32 0.16
      vertex 177.52000000000001 -20 0.14000000000000001
      vertex 177.48000000000002 -20 0.16
    endloop
  endfacet
  facet normal 0.44721359550002893 0 0.89442719099988033
    outer loop
      vertex 177.52000000000001 -14 0.14000000000000001
      vertex 177.48000000000002 -16 0.16
      vertex 177.48000000000002 -20 0.16
    endloop
  endfacet
  facet normal 0.44721359550002893 0 0.89442719099988033
    outer loop
      vertex 177.52000000000001 -14 0.14000000000000001
      vertex 177.48000000000002 -20 0.16
      vertex 177.52000000000001 -20 0.14000000000000001
    endloop
  endfacet
  facet normal 0.44721359550002893 0 0.89442719099988033
    outer loop
      vertex 177.48000000000002 -16 0.16
      vertex 177.52000000000001 -14 0.14000000000000001
      vertex 177.52000000000001 -10 0.14000000000000001
    endloop
  endfacet
  facet normal 0.44721359550002893 -0 0.89442719099988033
    outer loop
      vertex 177.48000000000002 -16 0.16
      vertex 177.52000000000001 -10 0.14000000000000001
      vertex 177.48000000000002 -10 0.16
    endloop
  endfacet
  facet normal 0.44721359550002893 0 0.89442719099988033
    outer loop
      vertex 177.52000000000001 -4.0000000000000009 0.14000000000000001
      vertex 177.48000000000002 -6 0.16
      vertex 177.48000000000002 -10 0.16
    endloop
  endfacet
  facet normal 0.44721359550002898 0 0.89442719099988044
    outer loop
      vertex 177.52000000000001 -4.0000000000000009 0.14000000000000001
      vertex 177.48000000000002 -10 0.16
      vertex 177.52000000000001 -10 0.14000000000000001
    endloop
  endfacet
  facet normal 0.44721359550002893 0 0.89442719099988033
    outer loop
      vertex 177.48000000000002 -5.9999999999999991 0.16
      vertex 177.52000000000001 -4 0.14000000000000001
      vertex 177.52000000000001 0 0.14000000000000001
    endloop
  endfacet
  facet normal 0.44721359550002898 -0 0.89442719099988044
    outer loop
      vertex 177.48000000000002 -5.9999999999999991 0.16
      vertex 177.52000000000001 0 0.14000000000000001
      vertex 177.48000000000002 0 0.16
    endloop
  endfacet
  facet normal 0.44721359550002904 0 0.89442719099988033
    outer loop
      vertex 177.52000000000001 0.00059999999999999995 0.14000000000000001
      vertex 177.48000000000002 0.00040000000000000007 0.16
      vertex 177.48000000000002 0 0.16
    endloop
  endfacet
  facet normal 0.44721359550002898 0 0.89442719099988044
    outer loop
      vertex 177.52000000000001 0.00059999999999999995 0.14000000000000001
      vertex 177.48000000000002 0 0.16
      vertex 177.52000000000001 0 0.14000000000000001
    endloop
  endfacet
  facet normal 0.44721359550002904 0 0.89442719099988033
    outer loop
      vertex 177.48000000000002 0.00040000000000000007 0.16
      vertex 177.52000000000001 0.00059999999999999995 0.14000000000000001
      vertex 177.52000000000001 0.001 0.14000000000000001
    endloop
  endfacet
  facet normal 0.44721359550002898 -0 0.89442719099988044
    outer loop
      vertex 177.48000000000002 0.00040000000000000007 0.16
      vertex 177.52000000000001 0.001 0.14000000000000001
      vertex 177.48000000000002 0.001 0.16
    endloop
  endfacet
  facet normal 0.44721359550002898 0 0.89442719099988044
    outer loop
      vertex 177.52000000000001 6.0003999999999991 0.14000000000000001
      vertex 177.48000000000002 4.0006000000000004 0.16
      vertex 177.48000000000002 0.001 0.16
    endloop
  endfacet
  facet normal 0.44721359550002898 0 0.89442719099988044
    outer loop
      vertex 177.52000000000001 6.0003999999999991 0.14000000000000001
      vertex 177.48000000000002 0.001 0.16
      vertex 177.52000000000001 0.001 0.14000000000000001
    endloop
  endfacet
  facet normal 0.44721359550002898 0 0.89442719099988044
    outer loop
      vertex 177.48000000000002 4.0006000000000013 0.16
      vertex 177.52000000000001 6.0004000000000008 0.14000000000000001
      vertex 177.52000000000001 10 0.14000000000000001
    endloop
  endfacet
  facet normal 0.44721359550002898 -0 0.89442719099988044
    outer loop
      vertex 177.48000000000002 4.0006000000000013 0.16
      vertex 177.52000000000001 10 0.14000000000000001
      vertex 177.48000000000002 10 0.16
    endloop
  endfacet
  facet normal 0.44721359550002893 0 0.89442719099988033
    outer loop
      vertex 177.52000000000001 16 0.14000000000000001
      vertex 177.48000000000002 14 0.16
      vertex 177.48000000000002 10 0.16
    endloop
  endfacet
  facet normal 0.44721359550002893 0 0.89442719099988033
    outer loop
      vertex 177.52000000000001 16 0.14000000000000001
      vertex 177.48000000000002 10 0.16
      vertex 177.52000000000001 10 0.14000000000000001
    endloop
  endfacet
  facet normal 0.44721359550002893 0 0.89442719099988033
    outer loop
      vertex 177.48000000000002 14 0.16
      vertex 177.52000000000001 16 0.14000000000000001
      vertex 177.52000000000001 20 0.14000000000000001
    endloop
  endfacet
  facet normal 0.44721359550002893 -0 0.89442719099988033
    outer loop
      vertex 177.48000000000002 14 0.16
      vertex 177.52000000000001 20 0.14000000000000001
      vertex 177.48000000000002 20 0.16
    endloop
  endfacet
  facet normal 0.44721359550002893 0 0.89442719099988033
    outer loop
      vertex 177.52000000000001 32 0.14000000000000001
      vertex 177.48000000000002 28 0.16
      vertex 177.48000000000002 20 0.16
    endloop
  endfacet
  facet normal 0.44721359550002893 0 0.89442719099988033
    outer loop
      vertex 177.52000000000001 32 0.14000000000000001
      vertex 177.48000000000002 20 0.16
      vertex 177.52000000000001 20 0.14000000000000001
    endloop
  endfacet
  facet normal 0.44721359550002893 0 0.89442719099988033
    outer loop
      vertex 177.48000000000002 28 0.16
      vertex 177.52000000000001 32 0.14000000000000001
      vertex 177.52000000000001 40 0.14000000000000001
    endloop
  endfacet
  facet normal 0.44721359550002893 -0 0.89442719099988033
    outer loop
      vertex 177.48000000000002 28 0.16
      vertex 177.52000000000001 40 0.14000000000000001
      vertex 177.48000000000002 40 0.16
    endloop
  endfacet
  facet normal 0.44721359550002893 0 0.89442719099988033
    outer loop
      vertex 177.52000000000001 52 0.14000000000000001
      vertex 177.48000000000002 48 0.16
      vertex 177.48000000000002 40 0.16
    endloop
  endfacet
  facet normal 0.44721359550002893 0 0.89442719099988033
    outer loop
      vertex 177.52000000000001 52 0.14000000000000001
      vertex 177.48000000000002 40 0.16
      vertex 177.52000000000001 40 0.14000000000000001
    endloop
  endfacet
  facet normal 0.44721359550002893 0 0.89442719099988033
    outer loop
      vertex 177.48000000000002 48 0.16
      vertex 177.52000000000001 52 0.14000000000000001
      vertex 177.52000000000001 60 0.14000000000000001
    endloop
  endfacet
  facet normal 0.44721359550002893 -0 0.89442719099988033
    outer loop
      vertex 177.48000000000002 48 0.16
      vertex 177.52000000000001 60 0.14000000000000001
      vertex 177.48000000000002 60 0.16
    endloop
  endfacet
endsolid terrain_band_8
