solid terrain_band_10
  facet normal -0.24253562503633805 0 0.97014250014533066
    outer loop
      vertex 76.719999999999999 -48.000000000000007 0.17999999999999999
      vertex 76.719999999999999 -60 0.17999999999999999
      vertex 76.799999999999997 -60 0.20000000000000001
    endloop
  endfacet
  facet normal -0.24253562503633805 0 0.97014250014533066
    outer loop
      vertex 76.719999999999999 -48.000000000000007 0.17999999999999999
      vertex 76.799999999999997 -60 0.20000000000000001
      vertex 76.799999999999997 -40 0.20000000000000001
    endloop
  endfacet
  facet normal -0.24253562503633802 0 0.97014250014533054
    outer loop
      vertex 76.719999999999999 -48.000000000000007 0.17999999999999999
      vertex 76.799999999999997 -40 0.20000000000000001
      vertex 76.719999999999999 -40 0.17999999999999999
    endloop
  endfacet
  facet normal -0.24253562503633805 0 0.97014250014533066
    outer loop
      vertex 76.719999999999999 -28.000000000000007 0.17999999999999999
      vertex 76.719999999999999 -40 0.17999999999999999
      vertex 76.799999999999997 -40 0.20000000000000001
    endloop
  endfacet
  facet normal -0.24253562503633805 0 0.97014250014533066
    outer loop
      vertex 76.719999999999999 -28.000000000000007 0.17999999999999999
      vertex 76.799999999999997 -40 0.20000000000000001
      vertex 76.799999999999997 -20 0.20000000000000001
    endloop
  endfacet
  facet normal -0.24253562503633802 0 0.97014250014533054
    outer loop
      vertex 76.719999999999999 -28.000000000000007 0.17999999999999999
      vertex 76.799999999999997 -20 0.20000000000000001
      vertex 76.719999999999999 -20 0.17999999999999999
    endloop
  endfacet
  facet normal -0.24253562503633805 0 0.97014250014533066
    outer loop
      vertex 76.719999999999999 -14.000000000000004 0.17999999999999999
      vertex 76.719999999999999 -20 0.17999999999999999
      vertex 76.799999999999997 -20 0.20000000000000001
    endloop
  endfacet
  facet normal -0.24253562503633805 0 0.97014250014533066
    outer loop
      vertex 76.719999999999999 -14.000000000000004 0.17999999999999999
      vertex 76.799999999999997 -20 0.20000000000000001
      vertex 76.799999999999997 -10 0.20000000000000001
    endloop
  endfacet
  facet normal -0.24253562503633802 0 0.97014250014533054
    outer loop
      vertex 76.719999999999999 -14.000000000000004 0.17999999999999999
      vertex 76.799999999999997 -10 0.20000000000000001
      vertex 76.719999999999999 -10 0.17999999999999999
    endloop
  endfacet
  facet normal -0.24253562503633802 0 0.97014250014533054
    outer loop
      vertex 76.719999999999999 -4.0000000000000027 0.17999999999999999
      vertex 76.719999999999999 -10 0.17999999999999999
      vertex 76.799999999999997 -10 0.20000000000000001
    endloop
  endfacet
  facet normal -0.24253562503633805 0 0.97014250014533066
    outer loop
      vertex 76.719999999999999 -4.0000000000000027 0.17999999999999999
      vertex 76.799999999999997 -10 0.20000000000000001
      vertex 76.799999999999997 0 0.20000000000000001
    endloop
  endfacet
  facet normal -0.24253562503633808 0 0.97014250014533077
    outer loop
      vertex 76.719999999999999 -4.0000000000000027 0.17999999999999999
      vertex 76.799999999999997 0 0.20000000000000001
      vertex 76.719999999999999 0 0.17999999999999999
    endloop
  endfacet
  facet normal -0.24253562503633802 0 0.97014250014533066
    outer loop
      vertex 76.719999999999999 0.00059999999999999984 0.17999999999999999
      vertex 76.719999999999999 0 0.17999999999999999
      vertex 76.799999999999997 0 0.20000000000000001
    endloop
  endfacet
  facet normal -0.24253562503633805 0 0.97014250014533066
    outer loop
      vertex 76.719999999999999 0.00059999999999999984 0.17999999999999999
      vertex 76.799999999999997 0 0.20000000000000001
      vertex 76.799999999999997 0.001 0.20000000000000001
    endloop
  endfacet
  facet normal -0.24253562503633805 0 0.97014250014533066
    outer loop
      vertex 76.719999999999999 0.00059999999999999973 0.17999999999999999
      vertex 76.799999999999997 0.001 0.20000000000000001
      vertex 76.719999999999999 0.001 0.17999999999999999
    endloop
  endfacet
  facet normal -0.24253562503633805 0 0.97014250014533066
    outer loop
      vertex 76.719999999999999 6.0003999999999973 0.17999999999999999
      vertex 76.719999999999999 0.001 0.17999999999999999
      vertex 76.799999999999997 0.001 0.20000000000000001
    endloop
  endfacet
  facet normal -0.24253562503633808 0 0.97014250014533077
    outer loop
      vertex 76.719999999999999 6.0003999999999973 0.17999999999999999
      vertex 76.799999999999997 0.001 0.20000000000000001
      vertex 76.799999999999997 10 0.20000000000000001
    endloop
  endfacet
  facet normal -0.24253562503633805 0 0.97014250014533066
    outer loop
      vertex 76.719999999999999 6.0003999999999982 0.17999999999999999
      vertex 76.799999999999997 10 0.20000000000000001
      vertex 76.719999999999999 10 0.17999999999999999
    endloop
  endfacet
  facet normal -0.24253562503633805 0 0.97014250014533066
    outer loop
      vertex 76.719999999999999 15.999999999999996 0.17999999999999999
      vertex 76.719999999999999 10 0.17999999999999999
      vertex 76.799999999999997 10 0.20000000000000001
    endloop
  endfacet
  facet normal -0.24253562503633805 0 0.97014250014533066
    outer loop
      vertex 76.719999999999999 15.999999999999996 0.17999999999999999
      vertex 76.799999999999997 10 0.20000000000000001
      vertex 76.799999999999997 20 0.20000000000000001
    endloop
  endfacet
  facet normal -0.24253562503633802 0 0.97014250014533054
    outer loop
      vertex 76.719999999999999 15.999999999999996 0.17999999999999999
      vertex 76.799999999999997 20 0.20000000000000001
      vertex 76.719999999999999 20 0.17999999999999999
    endloop
  endfacet
  facet normal -0.24253562503633805 0 0.97014250014533066
    outer loop
      vertex 76.719999999999999 31.999999999999993 0.17999999999999999
      vertex 76.719999999999999 20 0.17999999999999999
      vertex 76.799999999999997 20 0.20000000000000001
    endloop
  endfacet
  facet normal -0.24253562503633805 0 0.97014250014533066
    outer loop
      vertex 76.719999999999999 31.999999999999993 0.17999999999999999
      vertex 76.799999999999997 20 0.20000000000000001
      vertex 76.799999999999997 40 0.20000000000000001
    endloop
  endfacet
  facet normal -0.24253562503633802 0 0.97014250014533054
    outer loop
      vertex 76.719999999999999 31.999999999999993 0.17999999999999999
      vertex 76.799999999999997 40 0.20000000000000001
      vertex 76.719999999999999 40 0.17999999999999999
    endloop
  endfacet
  facet normal -0.24253562503633805 0 0.97014250014533066
    outer loop
      vertex 76.719999999999999 51.999999999999993 0.17999999999999999
      vertex 76.719999999999999 40 0.17999999999999999
      vertex 76.799999999999997 40 0.20000000000000001
    endloop
  endfacet
  facet normal -0.24253562503633805 0 0.97014250014533066
    outer loop
      vertex 76.719999999999999 51.999999999999993 0.17999999999999999
      vertex 76.799999999999997 40 0.20000000000000001
      vertex 76.799999999999997 60 0.20000000000000001
    endloop
  endfacet
  facet normal -0.24253562503633802 0 0.97014250014533054
    outer loop
      vertex 76.719999999999999 51.999999999999993 0.17999999999999999
      vertex 76.799999999999997 60 0.20000000000000001
      vertex 76.719999999999999 60 0.17999999999999999
    endloop
  endfacet
  facet normal 0 0 1
    outer loop
      vertex 76.799999999999997 -60 0.20000000000000001
      vertex 77 -60 0.20000000000000001
      vertex 77 -40 0.20000000000000001
    endloop
  endfacet
  facet normal 0 0 1
    outer loop
      vertex 76.799999999999997 -60 0.20000000000000001
      vertex 77 -40 0.20000000000000001
      vertex 76.799999999999997 -40 0.20000000000000001
    endloop
  endfacet
  facet normal 0 0 1
    outer loop
      vertex 76.799999999999997 -40 0.20000000000000001
      vertex 77 -40 0.20000000000000001
      vertex 77 -20 0.20000000000000001
    endloop
  endfacet
  facet normal 0 0 1
    outer loop
      vertex 76.799999999999997 -40 0.20000000000000001
      vertex 77 -20 0.20000000000000001
      vertex 76.799999999999997 -20 0.20000000000000001
    endloop
  endfacet
  facet normal 0 0 1
    outer loop
      vertex 76.799999999999997 -20 0.20000000000000001
      vertex 77 -20 0.20000000000000001
      vertex 77 -10 0.20000000000000001
    endloop
  endfacet
  facet normal 0 0 1
    outer loop
      vertex 76.799999999999997 -20 0.20000000000000001
      vertex 77 -10 0.20000000000000001
      vertex 76.799999999999997 -10 0.20000000000000001
    endloop
  endfacet
  facet normal 0 0 1
    outer loop
      vertex 76.799999999999997 -10 0.20000000000000001
      vertex 77 -10 0.20000000000000001
      vertex 77 0 0.20000000000000001
    endloop
  endfacet
  facet normal 0 0 1
    outer loop
      vertex 76.799999999999997 -10 0.20000000000000001
      vertex 77 0 0.20000000000000001
      vertex 76.799999999999997 0 0.20000000000000001
    endloop
  endfacet
  facet normal 0 0 1
    outer loop
      vertex 76.799999999999997 0 0.20000000000000001
      vertex 77 0 0.20000000000000001
      vertex 77 0.001 0.20000000000000001
    endloop
  endfacet
  facet normal 0 0 1
    outer loop
      vertex 76.799999999999997 0 0.20000000000000001
      vertex 77 0.001 0.20000000000000001
      vertex 76.799999999999997 0.001 0.20000000000000001
    endloop
  endfacet
  facet normal 0 0 1
    outer loop
      vertex 76.799999999999997 0.001 0.20000000000000001
      vertex 77 0.001 0.20000000000000001
      vertex 77 10 0.20000000000000001
    endloop
  endfacet
  facet normal 0 0 1
    outer loop
      vertex 76.799999999999997 0.001 0.20000000000000001
      vertex 77 10 0.20000000000000001
      vertex 76.799999999999997 10 0.20000000000000001
    endloop
  endfacet
  facet normal 0 0 1
    outer loop
      vertex 76.799999999999997 10 0.20000000000000001
      vertex 77 10 0.20000000000000001
      vertex 77 20 0.20000000000000001
    endloop
  endfacet
  facet normal 0 0 1
    outer loop
      vertex 76.799999999999997 10 0.20000000000000001
      vertex 77 20 0.20000000000000001
      vertex 76.799999999999997 20 0.20000000000000001
    endloop
  endfacet
  facet normal 0 0 1
    outer loop
      vertex 76.799999999999997 20 0.20000000000000001
      vertex 77 20 0.20000000000000001
      vertex 77 40 0.20000000000000001
    endloop
  endfacet
  facet normal 0 0 1
    outer loop
      vertex 76.799999999999997 20 0.20000000000000001
      vertex 77 40 0.20000000000000001
      vertex 76.799999999999997 40 0.20000000000000001
    endloop
  endfacet
  facet normal 0 0 1
    outer loop
      vertex 76.799999999999997 40 0.20000000000000001
      vertex 77 40 0.20000000000000001
      vertex 77 60 0.20000000000000001
    endloop
  endfacet
  facet normal 0 0 1
    outer loop
      vertex 76.799999999999997 40 0.20000000000000001
      vertex 77 60 0.20000000000000001
      vertex 76.799999999999997 60 0.20000000000000001
    endloop
  endfacet
  facet normal 0 0 1
    outer loop
      vertex 77 -60 0.20000000000000001
      vertex 77.200000000000003 -60 0.20000000000000001
      vertex 77.200000000000003 -40 0.20000000000000001
    endloop
  endfacet
  facet normal 0 0 1
    outer loop
      vertex 77 -60 0.20000000000000001
      vertex 77.200000000000003 -40 0.20000000000000001
      vertex 77 -40 0.20000000000000001
    endloop
  endfacet
  facet normal 0 0 1
    outer loop
      vertex 77 -40 0.20000000000000001
      vertex 77.200000000000003 -40 0.20000000000000001
      vertex 77.200000000000003 -20 0.20000000000000001
    endloop
  endfacet
  facet normal 0 0 1
    outer loop
      vertex 77 -40 0.20000000000000001
      vertex 77.200000000000003 -20 0.20000000000000001
      vertex 77 -20 0.20000000000000001
    endloop
  endfacet
  facet normal 0 0 1
    outer loop
      vertex 77 -20 0.20000000000000001
      vertex 77.200000000000003 -20 0.20000000000000001
      vertex 77.200000000000003 -10 0.20000000000000001
    endloop
  endfacet
  facet normal 0 0 1
    outer loop
      vertex 77 -20 0.20000000000000001
      vertex 77.200000000000003 -10 0.20000000000000001
      vertex 77 -10 0.20000000000000001
    endloop
  endfacet
  facet normal 0 0 1
    outer loop
      vertex 77 -10 0.20000000000000001
      vertex 77.200000000000003 -10 0.20000000000000001
      vertex 77.200000000000003 0 0.20000000000000001
    endloop
  endfacet
  facet normal 0 0 1
    outer loop
      vertex 77 -10 0.20000000000000001
      vertex 77.200000000000003 0 0.20000000000000001
      vertex 77 0 0.20000000000000001
    endloop
  endfacet
  facet normal 0 0 1
    outer loop
      vertex 77 0 0.20000000000000001
      vertex 77.200000000000003 0 0.20000000000000001
      vertex 77.200000000000003 0.001 0.20000000000000001
    endloop
  endfacet
  facet normal 0 0 1
    outer loop
      vertex 77 0 0.20000000000000001
      vertex 77.200000000000003 0.001 0.20000000000000001
      vertex 77 0.001 0.20000000000000001
    endloop
  endfacet
  facet normal 0 0 1
    outer loop
      vertex 77 0.001 0.20000000000000001
      vertex 77.200000000000003 0.001 0.20000000000000001
      vertex 77.200000000000003 10 0.20000000000000001
    endloop
  endfacet
  facet normal 0 0 1
    outer loop
      vertex 77 0.001 0.20000000000000001
      vertex 77.200000000000003 10 0.20000000000000001
      vertex 77 10 0.20000000000000001
    endloop
  endfacet
  facet normal 0 0 1
    outer loop
      vertex 77 10 0.20000000000000001
      vertex 77.200000000000003 10 0.20000000000000001
      vertex 77.200000000000003 20 0.20000000000000001
    endloop
  endfacet
  facet normal 0 0 1
    outer loop
      vertex 77 10 0.20000000000000001
      vertex 77.200000000000003 20 0.20000000000000001
      vertex 77 20 0.20000000000000001
    endloop
  endfacet
  facet normal 0 0 1
    outer loop
      vertex 77 20 0.20000000000000001
      vertex 77.200000000000003 20 0.20000000000000001
      vertex 77.200000000000003 40 0.20000000000000001
    endloop
  endfacet
  facet normal 0 0 1
    outer loop
      vertex 77 20 0.20000000000000001
      vertex 77.200000000000003 40 0.20000000000000001
      vertex 77 40 0.20000000000000001
    endloop
  endfacet
  facet normal 0 0 1
    outer loop
      vertex 77 40 0.20000000000000001
      vertex 77.200000000000003 40 0.20000000000000001
      vertex 77.200000000000003 60 0.20000000000000001
    endloop
  endfacet
  facet normal 0 0 1
    outer loop
      vertex 77 40 0.20000000000000001
      vertex 77.200000000000003 60 0.20000000000000001
      vertex 77 60 0.20000000000000001
    endloop
  endfacet
  facet normal 0 0 1
    outer loop
      vertex 77.200000000000003 -60 0.20000000000000001
      vertex 77.400000000000006 -60 0.20000000000000001
      vertex 77.400000000000006 -40 0.20000000000000001
    endloop
  endfacet
  facet normal 0 0 1
    outer loop
      vertex 77.200000000000003 -60 0.20000000000000001
      vertex 77.400000000000006 -40 0.20000000000000001
      vertex 77.200000000000003 -40 0.20000000000000001
    endloop
  endfacet
  facet normal 0 0 1
    outer loop
      vertex 77.200000000000003 -40 0.20000000000000001
      vertex 77.400000000000006 -40 0.20000000000000001
      vertex 77.400000000000006 -20 0.20000000000000001
    endloop
  endfacet
  facet normal 0 0 1
    outer loop
      vertex 77.200000000000003 -40 0.20000000000000001
      vertex 77.400000000000006 -20 0.20000000000000001
      vertex 77.200000000000003 -20 0.20000000000000001
    endloop
  endfacet
  facet normal 0 0 1
    outer loop
      vertex 77.200000000000003 -20 0.20000000000000001
      vertex 77.400000000000006 -20 0.20000000000000001
      vertex 77.400000000000006 -10 0.20000000000000001
    endloop
  endfacet
  facet normal 0 0 1
    outer loop
      vertex 77.200000000000003 -20 0.20000000000000001
      vertex 77.400000000000006 -10 0.20000000000000001
      vertex 77.200000000000003 -10 0.20000000000000001
    endloop
  endfacet
  facet normal 0 0 1
    outer loop
      vertex 77.200000000000003 -10 0.20000000000000001
      vertex 77.400000000000006 -10 0.20000000000000001
      vertex 77.400000000000006 0 0.20000000000000001
    endloop
  endfacet
  facet normal 0 0 1
    outer loop
      vertex 77.200000000000003 -10 0.20000000000000001
      vertex 77.400000000000006 0 0.20000000000000001
      vertex 77.200000000000003 0 0.20000000000000001
    endloop
  endfacet
  facet normal 0 0 1
    outer loop
      vertex 77.200000000000003 0 0.20000000000000001
      vertex 77.400000000000006 0 0.20000000000000001
      vertex 77.400000000000006 0.001 0.20000000000000001
    endloop
  endfacet
  facet normal 0 0 1
    outer loop
      vertex 77.200000000000003 0 0.20000000000000001
      vertex 77.400000000000006 0.001 0.20000000000000001
      vertex 77.200000000000003 0.001 0.20000000000000001
    endloop
  endfacet
  facet normal 0 0 1
    outer loop
      vertex 77.200000000000003 0.001 0.20000000000000001
      vertex 77.400000000000006 0.001 0.20000000000000001
      vertex 77.400000000000006 10 0.20000000000000001
    endloop
  endfacet
  facet normal 0 0 1
    outer loop
      vertex 77.200000000000003 0.001 0.20000000000000001
      vertex 77.400000000000006 10 0.20000000000000001
      vertex 77.200000000000003 10 0.20000000000000001
    endloop
  endfacet
  facet normal 0 0 1
    outer loop
      vertex 77.200000000000003 10 0.20000000000000001
      vertex 77.400000000000006 10 0.20000000000000001
      vertex 77.400000000000006 20 0.20000000000000001
    endloop
  endfacet
  facet normal 0 0 1
    outer loop
      vertex 77.200000000000003 10 0.20000000000000001
      vertex 77.400000000000006 20 0.20000000000000001
      vertex 77.200000000000003 20 0.20000000000000001
    endloop
  endfacet
  facet normal 0 0 1
    outer loop
      vertex 77.200000000000003 20 0.20000000000000001
      vertex 77.400000000000006 20 0.20000000000000001
      vertex 77.400000000000006 40 0.20000000000000001
    endloop
  endfacet
  facet normal 0 0 1
    outer loop
      vertex 77.200000000000003 20 0.20000000000000001
      vertex 77.400000000000006 40 0.20000000000000001
      vertex 77.200000000000003 40 0.20000000000000001
    endloop
  endfacet
  facet normal 0 0 1
    outer loop
      vertex 77.200000000000003 40 0.20000000000000001
      vertex 77.400000000000006 40 0.20000000000000001
      vertex 77.400000000000006 60 0.20000000000000001
    endloop
  endfacet
  facet normal 0 0 1
    outer loop
      vertex 77.200000000000003 40 0.20000000000000001
      vertex 77.400000000000006 60 0.20000000000000001
      vertex 77.200000000000003 60 0.20000000000000001
    endloop
  endfacet
  facet normal 0.44721359550002937 0 0.89442719099988
    outer loop
      vertex 77.439999999999998 -56 0.17999999999999999
      vertex 77.400000000000006 -60 0.20000000000000001
      vertex 77.439999999999998 -60 0.17999999999999999
    endloop
  endfacet
  facet normal 0.44721359550002937 0 0.89442719099988
    outer loop
      vertex 77.400000000000006 -60 0.20000000000000001
      vertex 77.439999999999998 -56 0.17999999999999999
      vertex 77.439999999999998 -40 0.17999999999999999
    endloop
  endfacet
  facet normal 0.44721359550002948 -0 0.89442719099988022
    outer loop
      vertex 77.400000000000006 -60 0.20000000000000001
      vertex 77.439999999999998 -40 0.17999999999999999
      vertex 77.400000000000006 -40 0.20000000000000001
    endloop
  endfacet
  facet normal 0.44721359550002937 0 0.89442719099988
    outer loop
      vertex 77.439999999999998 -36 0.17999999999999999
      vertex 77.400000000000006 -40 0.20000000000000001
      vertex 77.439999999999998 -40 0.17999999999999999
    endloop
  endfacet
  facet normal 0.44721359550002937 0 0.89442719099988
    outer loop
      vertex 77.400000000000006 -40 0.20000000000000001
      vertex 77.439999999999998 -36 0.17999999999999999
      vertex 77.439999999999998 -20 0.17999999999999999
    endloop
  endfacet
  facet normal 0.44721359550002948 -0 0.89442719099988022
    outer loop
      vertex 77.400000000000006 -40 0.20000000000000001
      vertex 77.439999999999998 -20 0.17999999999999999
      vertex 77.400000000000006 -20 0.20000000000000001
    endloop
  endfacet
  facet normal 0.44721359550002937 0 0.89442719099988
    outer loop
      vertex 77.439999999999998 -18 0.17999999999999999
      vertex 77.400000000000006 -20 0.20000000000000001
      vertex 77.439999999999998 -20 0.17999999999999999
    endloop
  endfacet
  facet normal 0.44721359550002937 0 0.89442719099988
    outer loop
      vertex 77.400000000000006 -20 0.20000000000000001
      vertex 77.439999999999998 -18 0.17999999999999999
      vertex 77.439999999999998 -10 0.17999999999999999
    endloop
  endfacet
  facet normal 0.44721359550002948 -0 0.89442719099988022
    outer loop
      vertex 77.400000000000006 -20 0.20000000000000001
      vertex 77.439999999999998 -10 0.17999999999999999
      vertex 77.400000000000006 -10 0.20000000000000001
    endloop
  endfacet
  facet normal 0.44721359550002943 0 0.89442719099988011
    outer loop
      vertex 77.439999999999998 -7.9999999999999982 0.17999999999999999
      vertex 77.400000000000006 -10 0.20000000000000001
      vertex 77.439999999999998 -10 0.17999999999999999
    endloop
  endfacet
  facet normal 0.44721359550002943 0 0.89442719099988011
    outer loop
      vertex 77.400000000000006 -10 0.20000000000000001
      vertex 77.439999999999998 -7.9999999999999982 0.17999999999999999
      vertex 77.439999999999998 0 0.17999999999999999
    endloop
  endfacet
  facet normal 0.44721359550002948 -0 0.89442719099988022
    outer loop
      vertex 77.400000000000006 -10 0.20000000000000001
      vertex 77.439999999999998 0 0.17999999999999999
      vertex 77.400000000000006 0 0.20000000000000001
    endloop
  endfacet
  facet normal 0.44721359550002943 0 0.89442719099988011
    outer loop
      vertex 77.439999999999998 0.0002000000000000002 0.17999999999999999
      vertex 77.400000000000006 0 0.20000000000000001
      vertex 77.439999999999998 0 0.17999999999999999
    endloop
  endfacet
  facet normal 0.44721359550002959 0 0.89442719099988011
    outer loop
      vertex 77.400000000000006 0 0.20000000000000001
      vertex 77.439999999999998 0.00020000000000000017 0.17999999999999999
      vertex 77.439999999999998 0.001 0.17999999999999999
    endloop
  endfacet
  facet normal 0.44721359550002948 -0 0.89442719099988022
    outer loop
      vertex 77.400000000000006 0 0.20000000000000001
      vertex 77.439999999999998 0.001 0.17999999999999999
      vertex 77.400000000000006 0.001 0.20000000000000001
    endloop
  endfacet
  facet normal 0.44721359550002943 0 0.89442719099988011
    outer loop
      vertex 77.439999999999998 2.0008000000000017 0.17999999999999999
      vertex 77.400000000000006 0.001 0.20000000000000001
      vertex 77.439999999999998 0.001 0.17999999999999999
    endloop
  endfacet
  facet normal 0.44721359550002943 0 0.89442719099988011
    outer loop
      vertex 77.400000000000006 0.001 0.20000000000000001
      vertex 77.439999999999998 2.0008000000000017 0.17999999999999999
      vertex 77.439999999999998 10 0.17999999999999999
    endloop
  endfacet
  facet normal 0.44721359550002948 -0 0.89442719099988011
    outer loop
      vertex 77.400000000000006 0.001 0.20000000000000001
      vertex 77.439999999999998 10 0.17999999999999999
      vertex 77.400000000000006 10 0.20000000000000001
    endloop
  endfacet
  facet normal 0.44721359550002943 0 0.89442719099988011
    outer loop
      vertex 77.439999999999998 12.000000000000002 0.17999999999999999
      vertex 77.400000000000006 10 0.20000000000000001
      vertex 77.439999999999998 10 0.17999999999999999
    endloop
  endfacet
  facet normal 0.44721359550002943 0 0.89442719099988011
    outer loop
      vertex 77.400000000000006 10 0.20000000000000001
      vertex 77.439999999999998 12.000000000000002 0.17999999999999999
      vertex 77.439999999999998 20 0.17999999999999999
    endloop
  endfacet
  facet normal 0.44721359550002948 -0 0.89442719099988022
    outer loop
      vertex 77.400000000000006 10 0.20000000000000001
      vertex 77.439999999999998 20 0.17999999999999999
      vertex 77.400000000000006 20 0.20000000000000001
    endloop
  endfacet
  facet normal 0.44721359550002943 0 0.89442719099988011
    outer loop
      vertex 77.439999999999998 24.000000000000004 0.17999999999999999
      vertex 77.400000000000006 20 0.20000000000000001
      vertex 77.439999999999998 20 0.17999999999999999
    endloop
  endfacet
  facet normal 0.44721359550002943 0 0.89442719099988011
    outer loop
      vertex 77.400000000000006 20 0.20000000000000001
      vertex 77.439999999999998 24.000000000000004 0.17999999999999999
      vertex 77.439999999999998 40 0.17999999999999999
    endloop
  endfacet
  facet normal 0.44721359550002948 -0 0.89442719099988022
    outer loop
      vertex 77.400000000000006 20 0.20000000000000001
      vertex 77.439999999999998 40 0.17999999999999999
      vertex 77.400000000000006 40 0.20000000000000001
    endloop
  endfacet
  facet normal 0.44721359550002937 0 0.89442719099988
    outer loop
      vertex 77.439999999999998 44 0.17999999999999999
      vertex 77.400000000000006 40 0.20000000000000001
      vertex 77.439999999999998 40 0.17999999999999999
    endloop
  endfacet
  facet normal 0.44721359550002937 0 0.89442719099988
    outer loop
      vertex 77.400000000000006 40 0.20000000000000001
      vertex 77.439999999999998 44 0.17999999999999999
      vertex 77.439999999999998 60 0.17999999999999999
    endloop
  endfacet
  facet normal 0.44721359550002948 -0 0.89442719099988022
    outer loop
      vertex 77.400000000000006 40 0.20000000000000001
      vertex 77.439999999999998 60 0.17999999999999999
      vertex 77.400000000000006 60 0.20000000000000001
    endloop
  endfacet
endsolid terrain_band_10
