solid terrain_band_3
  facet normal -0.44721359549996575 0 0.89442719099991197
    outer loop
      vertex 50.119999999999997 -48 0.060000000000000012
      vertex 50.079999999999998 -52 0.040000000000000001
      vertex 50.079999999999998 -60 0.040000000000000001
    endloop
  endfacet
  facet normal -0.44721359549996575 0 0.89442719099991197
    outer loop
      vertex 50.119999999999997 -48 0.060000000000000012
      vertex 50.079999999999998 -60 0.040000000000000001
      vertex 50.119999999999997 -60 0.060000000000000012
    endloop
  endfacet
  facet normal -0.44721359549996575 0 0.89442719099991197
    outer loop
      vertex 50.079999999999998 -52 0.040000000000000001
      vertex 50.119999999999997 -48 0.060000000000000012
      vertex 50.119999999999997 -40 0.060000000000000012
    endloop
  endfacet
  facet normal -0.44721359549996575 0 0.89442719099991197
    outer loop
      vertex 50.079999999999998 -52 0.040000000000000001
      vertex 50.119999999999997 -40 0.060000000000000012
      vertex 50.079999999999998 -40 0.040000000000000001
    endloop
  endfacet
  facet normal -0.44721359549996575 0 0.89442719099991197
    outer loop
      vertex 50.119999999999997 -28 0.060000000000000012
      vertex 50.079999999999998 -32 0.040000000000000001
      vertex 50.079999999999998 -40 0.040000000000000001
    endloop
  endfacet
  facet normal -0.44721359549996575 0 0.89442719099991197
    outer loop
      vertex 50.119999999999997 -28 0.060000000000000012
      vertex 50.079999999999998 -40 0.040000000000000001
      vertex 50.119999999999997 -40 0.060000000000000012
    endloop
  endfacet
  facet normal -0.44721359549996575 0 0.89442719099991197
    outer loop
      vertex 50.079999999999998 -32 0.040000000000000001
      vertex 50.119999999999997 -28 0.060000000000000012
      vertex 50.119999999999997 -20 0.060000000000000012
    endloop
  endfacet
  facet normal -0.44721359549996575 0 0.89442719099991197
    outer loop
      vertex 50.079999999999998 -32 0.040000000000000001
      vertex 50.119999999999997 -20 0.060000000000000012
      vertex 50.079999999999998 -20 0.040000000000000001
    endloop
  endfacet
  facet normal -0.44721359549996575 0 0.89442719099991197
    outer loop
      vertex 50.119999999999997 -14 0.060000000000000012
      vertex 50.079999999999998 -16 0.040000000000000001
      vertex 50.079999999999998 -20 0.040000000000000001
    endloop
  endfacet
  facet normal -0.44721359549996575 0 0.89442719099991197
    outer loop
      vertex 50.119999999999997 -14 0.060000000000000012
      vertex 50.079999999999998 -20 0.040000000000000001
      vertex 50.119999999999997 -20 0.060000000000000012
    endloop
  endfacet
  facet normal -0.44721359549996575 0 0.89442719099991197
    outer loop
      vertex 50.079999999999998 -16 0.040000000000000001
      vertex 50.119999999999997 -14 0.060000000000000012
      vertex 50.119999999999997 -10 0.060000000000000012
    endloop
  endfacet
  facet normal -0.44721359549996575 0 0.89442719099991197
    outer loop
      vertex 50.079999999999998 -16 0.040000000000000001
      vertex 50.119999999999997 -10 0.060000000000000012
      vertex 50.079999999999998 -10 0.040000000000000001
    endloop
  endfacet
  facet normal -0.44721359549996575 0 0.89442719099991197
    outer loop
      vertex 50.119999999999997 -3.9999999999999991 0.060000000000000012
      vertex 50.079999999999998 -6 0.040000000000000001
      vertex 50.079999999999998 -10 0.040000000000000001
    endloop
  endfacet
  facet normal -0.44721359549996581 0 0.89442719099991208
    outer loop
      vertex 50.119999999999997 -3.9999999999999991 0.060000000000000012
      vertex 50.079999999999998 -10 0.040000000000000001
      vertex 50.119999999999997 -10 0.060000000000000012
    endloop
  endfacet
  facet normal -0.44721359549996581 0 0.89442719099991208
    outer loop
      vertex 50.079999999999998 -6 0.040000000000000001
      vertex 50.119999999999997 -3.9999999999999991 0.060000000000000012
      vertex 50.119999999999997 0 0.060000000000000012
    endloop
  endfacet
  facet normal -0.44721359549996575 0 0.89442719099991197
    outer loop
      vertex 50.079999999999998 -6 0.040000000000000001
      vertex 50.119999999999997 0 0.060000000000000012
      vertex 50.079999999999998 0 0.040000000000000001
    endloop
  endfacet
  facet normal -0.44721359549996581 0 0.89442719099991208
    outer loop
      vertex 50.119999999999997 0.00060000000000000016 0.060000000000000012
      vertex 50.079999999999998 0.00040000000000000007 0.040000000000000001
      vertex 50.079999999999998 0 0.040000000000000001
    endloop
  endfacet
  facet normal -0.44721359549996581 0 0.89442719099991197
    outer loop
      vertex 50.119999999999997 0.00060000000000000016 0.060000000000000012
      vertex 50.079999999999998 0 0.040000000000000001
      vertex 50.119999999999997 0 0.060000000000000012
    endloop
  endfacet
  facet normal -0.44721359549996575 0 0.89442719099991208
    outer loop
      vertex 50.079999999999998 0.00039999999999999996 0.040000000000000001
      vertex 50.119999999999997 0.00060000000000000006 0.060000000000000012
      vertex 50.119999999999997 0.001 0.060000000000000012
    endloop
  endfacet
  facet normal -0.44721359549996575 0 0.89442719099991197
    outer loop
      vertex 50.079999999999998 0.00039999999999999996 0.040000000000000001
      vertex 50.119999999999997 0.001 0.060000000000000012
      vertex 50.079999999999998 0.001 0.040000000000000001
    endloop
  endfacet
  facet normal -0.44721359549996581 0 0.89442719099991208
    outer loop
      vertex 50.119999999999997 6.0004000000000008 0.060000000000000012
      vertex 50.079999999999998 4.0005999999999995 0.040000000000000001
      vertex 50.079999999999998 0.001 0.040000000000000001
    endloop
  endfacet
  facet normal -0.44721359549996575 0 0.89442719099991197
    outer loop
      vertex 50.119999999999997 6.0004000000000008 0.060000000000000012
      vertex 50.079999999999998 0.001 0.040000000000000001
      vertex 50.119999999999997 0.001 0.060000000000000012
    endloop
  endfacet
  facet normal -0.4472135954999657 0 0.89442719099991186
    outer loop
      vertex 50.079999999999998 4.0006000000000004 0.040000000000000001
      vertex 50.119999999999997 6.0004000000000008 0.060000000000000012
      vertex 50.119999999999997 10 0.060000000000000012
    endloop
  endfacet
  facet normal -0.44721359549996575 0 0.89442719099991186
    outer loop
      vertex 50.079999999999998 4.0006000000000004 0.040000000000000001
      vertex 50.119999999999997 10 0.060000000000000012
      vertex 50.079999999999998 10 0.040000000000000001
    endloop
  endfacet
  facet normal -0.44721359549996575 0 0.89442719099991197
    outer loop
      vertex 50.119999999999997 16 0.060000000000000012
      vertex 50.079999999999998 14 0.040000000000000001
      vertex 50.079999999999998 10 0.040000000000000001
    endloop
  endfacet
  facet normal -0.44721359549996575 0 0.89442719099991197
    outer loop
      vertex 50.119999999999997 16 0.060000000000000012
      vertex 50.079999999999998 10 0.040000000000000001
      vertex 50.119999999999997 10 0.060000000000000012
    endloop
  endfacet
  facet normal -0.44721359549996575 0 0.89442719099991197
    outer loop
      vertex 50.079999999999998 14 0.040000000000000001
      vertex 50.119999999999997 16 0.060000000000000012
      vertex 50.119999999999997 20 0.060000000000000012
    endloop
  endfacet
  facet normal -0.44721359549996575 0 0.89442719099991197
    outer loop
      vertex 50.079999999999998 14 0.040000000000000001
      vertex 50.119999999999997 20 0.060000000000000012
      vertex 50.079999999999998 20 0.040000000000000001
    endloop
  endfacet
  facet normal -0.44721359549996575 0 0.89442719099991197
    outer loop
      vertex 50.119999999999997 32 0.060000000000000012
      vertex 50.079999999999998 28 0.040000000000000001
      vertex 50.079999999999998 20 0.040000000000000001
    endloop
  endfacet
  facet normal -0.44721359549996575 0 0.89442719099991197
    outer loop
      vertex 50.119999999999997 32 0.060000000000000012
      vertex 50.079999999999998 20 0.040000000000000001
      vertex 50.119999999999997 20 0.060000000000000012
    endloop
  endfacet
  facet normal -0.44721359549996575 0 0.89442719099991197
    outer loop
      vertex 50.079999999999998 28 0.040000000000000001
      vertex 50.119999999999997 32 0.060000000000000012
      vertex 50.119999999999997 40 0.060000000000000012
    endloop
  endfacet
  facet normal -0.44721359549996575 0 0.89442719099991197
    outer loop
      vertex 50.079999999999998 28 0.040000000000000001
      vertex 50.119999999999997 40 0.060000000000000012
      vertex 50.079999999999998 40 0.040000000000000001
    endloop
  endfacet
  facet normal -0.44721359549996575 0 0.89442719099991197
    outer loop
      vertex 50.119999999999997 52 0.060000000000000012
      vertex 50.079999999999998 48 0.040000000000000001
      vertex 50.079999999999998 40 0.040000000000000001
    endloop
  endfacet
  facet normal -0.44721359549996575 0 0.89442719099991197
    outer loop
      vertex 50.119999999999997 52 0.060000000000000012
      vertex 50.079999999999998 40 0.040000000000000001
      vertex 50.119999999999997 40 0.060000000000000012
    endloop
  endfacet
  facet normal -0.44721359549996575 0 0.89442719099991197
    outer loop
      vertex 50.079999999999998 48 0.040000000000000001
      vertex 50.119999999999997 52 0.060000000000000012
      vertex 50.119999999999997 60 0.060000000000000012
    endloop
  endfacet
  facet normal -0.44721359549996575 0 0.89442719099991197
    outer loop
      vertex 50.079999999999998 48 0.040000000000000001
      vertex 50.119999999999997 60 0.060000000000000012
      vertex 50.079999999999998 60 0.040000000000000001
    endloop
  endfacet
  facet normal 0.44721359549996575 0 0.89442719099991197
    outer loop
      vertex 50.920000000000002 -48 0.040000000000000001
      vertex 50.880000000000003 -52 0.060000000000000012
      vertex 50.880000000000003 -60 0.060000000000000012
    endloop
  endfacet
  facet normal 0.44721359549996575 0 0.89442719099991197
    outer loop
      vertex 50.920000000000002 -48 0.040000000000000001
      vertex 50.880000000000003 -60 0.060000000000000012
      vertex 50.920000000000002 -60 0.040000000000000001
    endloop
  endfacet
  facet normal 0.44721359549996575 0 0.89442719099991197
    outer loop
      vertex 50.880000000000003 -52 0.060000000000000012
      vertex 50.920000000000002 -48 0.040000000000000001
      vertex 50.920000000000002 -40 0.040000000000000001
    endloop
  endfacet
  facet normal 0.44721359549996575 -0 0.89442719099991197
    outer loop
      vertex 50.880000000000003 -52 0.060000000000000012
      vertex 50.920000000000002 -40 0.040000000000000001
      vertex 50.880000000000003 -40 0.060000000000000012
    endloop
  endfacet
  facet normal 0.44721359549996575 0 0.89442719099991197
    outer loop
      vertex 50.920000000000002 -28 0.040000000000000001
      vertex 50.880000000000003 -32 0.060000000000000012
      vertex 50.880000000000003 -40 0.060000000000000012
    endloop
  endfacet
  facet normal 0.44721359549996575 0 0.89442719099991197
    outer loop
      vertex 50.920000000000002 -28 0.040000000000000001
      vertex 50.880000000000003 -40 0.060000000000000012
      vertex 50.920000000000002 -40 0.040000000000000001
    endloop
  endfacet
  facet normal 0.44721359549996575 0 0.89442719099991197
    outer loop
      vertex 50.880000000000003 -32 0.060000000000000012
      vertex 50.920000000000002 -28 0.040000000000000001
      vertex 50.920000000000002 -20 0.040000000000000001
    endloop
  endfacet
  facet normal 0.44721359549996575 -0 0.89442719099991197
    outer loop
      vertex 50.880000000000003 -32 0.060000000000000012
      vertex 50.920000000000002 -20 0.040000000000000001
      vertex 50.880000000000003 -20 0.060000000000000012
    endloop
  endfacet
  facet normal 0.44721359549996575 0 0.89442719099991197
    outer loop
      vertex 50.920000000000002 -14 0.040000000000000001
      vertex 50.880000000000003 -16 0.060000000000000012
      vertex 50.880000000000003 -20 0.060000000000000012
    endloop
  endfacet
  facet normal 0.44721359549996575 0 0.89442719099991197
    outer loop
      vertex 50.920000000000002 -14 0.040000000000000001
      vertex 50.880000000000003 -20 0.060000000000000012
      vertex 50.920000000000002 -20 0.040000000000000001
    endloop
  endfacet
  facet normal 0.44721359549996575 0 0.89442719099991197
    outer loop
      vertex 50.880000000000003 -16 0.060000000000000012
      vertex 50.920000000000002 -14 0.040000000000000001
      vertex 50.920000000000002 -10 0.040000000000000001
    endloop
  endfacet
  facet normal 0.44721359549996575 -0 0.89442719099991197
    outer loop
      vertex 50.880000000000003 -16 0.060000000000000012
      vertex 50.920000000000002 -10 0.040000000000000001
      vertex 50.880000000000003 -10 0.060000000000000012
    endloop
  endfacet
  facet normal 0.44721359549996575 0 0.89442719099991197
    outer loop
      vertex 50.920000000000002 -3.9999999999999996 0.040000000000000001
      vertex 50.880000000000003 -6 0.060000000000000012
      vertex 50.880000000000003 -10 0.060000000000000012
    endloop
  endfacet
  facet normal 0.44721359549996575 0 0.89442719099991197
    outer loop
      vertex 50.920000000000002 -3.9999999999999996 0.040000000000000001
      vertex 50.880000000000003 -10 0.060000000000000012
      vertex 50.920000000000002 -10 0.040000000000000001
    endloop
  endfacet
  facet normal 0.44721359549996575 0 0.89442719099991197
    outer loop
      vertex 50.880000000000003 -6.0000000000000009 0.060000000000000012
      vertex 50.920000000000002 -4 0.040000000000000001
      vertex 50.920000000000002 0 0.040000000000000001
    endloop
  endfacet
  facet normal 0.44721359549996581 -0 0.89442719099991208
    outer loop
      vertex 50.880000000000003 -6.0000000000000009 0.060000000000000012
      vertex 50.920000000000002 0 0.040000000000000001
      vertex 50.880000000000003 0 0.060000000000000012
    endloop
  endfacet
  facet normal 0.44721359549996575 0 0.89442719099991208
    outer loop
      vertex 50.920000000000002 0.00060000000000000006 0.040000000000000001
      vertex 50.880000000000003 0.00039999999999999996 0.060000000000000012
      vertex 50.880000000000003 0 0.060000000000000012
    endloop
  endfacet
  facet normal 0.44721359549996575 0 0.89442719099991197
    outer loop
      vertex 50.920000000000002 0.00060000000000000006 0.040000000000000001
      vertex 50.880000000000003 0 0.060000000000000012
      vertex 50.920000000000002 0 0.040000000000000001
    endloop
  endfacet
  facet normal 0.44721359549996581 0 0.89442719099991208
    outer loop
      vertex 50.880000000000003 0.00039999999999999986 0.060000000000000012
      vertex 50.920000000000002 0.00059999999999999995 0.040000000000000001
      vertex 50.920000000000002 0.001 0.040000000000000001
    endloop
  endfacet
  facet normal 0.44721359549996581 -0 0.89442719099991197
    outer loop
      vertex 50.880000000000003 0.00039999999999999986 0.060000000000000012
      vertex 50.920000000000002 0.001 0.040000000000000001
      vertex 50.880000000000003 0.001 0.060000000000000012
    endloop
  endfacet
  facet normal 0.4472135954999657 0 0.89442719099991186
    outer loop
      vertex 50.920000000000002 6.0004 0.040000000000000001
      vertex 50.880000000000003 4.0005999999999995 0.060000000000000012
      vertex 50.880000000000003 0.001 0.060000000000000012
    endloop
  endfacet
  facet normal 0.44721359549996575 0 0.89442719099991186
    outer loop
      vertex 50.920000000000002 6.0004 0.040000000000000001
      vertex 50.880000000000003 0.001 0.060000000000000012
      vertex 50.920000000000002 0.001 0.040000000000000001
    endloop
  endfacet
  facet normal 0.44721359549996581 0 0.89442719099991208
    outer loop
      vertex 50.880000000000003 4.0005999999999995 0.060000000000000012
      vertex 50.920000000000002 6.0004000000000008 0.040000000000000001
      vertex 50.920000000000002 10 0.040000000000000001
    endloop
  endfacet
  facet normal 0.44721359549996575 -0 0.89442719099991197
    outer loop
      vertex 50.880000000000003 4.0005999999999995 0.060000000000000012
      vertex 50.920000000000002 10 0.040000000000000001
      vertex 50.880000000000003 10 0.060000000000000012
    endloop
  endfacet
  facet normal 0.44721359549996575 0 0.89442719099991197
    outer loop
      vertex 50.920000000000002 16 0.040000000000000001
      vertex 50.880000000000003 14 0.060000000000000012
      vertex 50.880000000000003 10 0.060000000000000012
    endloop
  endfacet
  facet normal 0.44721359549996575 0 0.89442719099991197
    outer loop
      vertex 50.920000000000002 16 0.040000000000000001
      vertex 50.880000000000003 10 0.060000000000000012
      vertex 50.920000000000002 10 0.040000000000000001
    endloop
  endfacet
  facet normal 0.44721359549996575 0 0.89442719099991197
    outer loop
      vertex 50.880000000000003 14 0.060000000000000012
      vertex 50.920000000000002 16 0.040000000000000001
      vertex 50.920000000000002 20 0.040000000000000001
    endloop
  endfacet
  facet normal 0.44721359549996575 -0 0.89442719099991197
    outer loop
      vertex 50.880000000000003 14 0.060000000000000012
      vertex 50.920000000000002 20 0.040000000000000001
      vertex 50.880000000000003 20 0.060000000000000012
    endloop
  endfacet
  facet normal 0.44721359549996575 0 0.89442719099991197
    outer loop
      vertex 50.920000000000002 32 0.040000000000000001
      vertex 50.880000000000003 28 0.060000000000000012
      vertex 50.880000000000003 20 0.060000000000000012
    endloop
  endfacet
  facet normal 0.44721359549996575 0 0.89442719099991197
    outer loop
      vertex 50.920000000000002 32 0.040000000000000001
      vertex 50.880000000000003 20 0.060000000000000012
      vertex 50.920000000000002 20 0.040000000000000001
    endloop
  endfacet
  facet normal 0.44721359549996575 0 0.89442719099991197
    outer loop
      vertex 50.880000000000003 28 0.060000000000000012
      vertex 50.920000000000002 32 0.040000000000000001
      vertex 50.920000000000002 40 0.040000000000000001
    endloop
  endfacet
  facet normal 0.44721359549996575 -0 0.89442719099991197
    outer loop
      vertex 50.880000000000003 28 0.060000000000000012
      vertex 50.920000000000002 40 0.040000000000000001
      vertex 50.880000000000003 40 0.060000000000000012
    endloop
  endfacet
  facet normal 0.44721359549996575 0 0.89442719099991197
    outer loop
      vertex 50.920000000000002 52 0.040000000000000001
      vertex 50.880000000000003 48 0.060000000000000012
      vertex 50.880000000000003 40 0.060000000000000012
    endloop
  endfacet
  facet normal 0.44721359549996575 0 0.89442719099991197
    outer loop
      vertex 50.920000000000002 52 0.040000000000000001
      vertex 50.880000000000003 40 0.060000000000000012
      vertex 50.920000000000002 40 0.040000000000000001
    endloop
  endfacet
  facet normal 0.44721359549996575 0 0.89442719099991197
    outer loop
      vertex 50.880000000000003 48 0.060000000000000012
      vertex 50.920000000000002 52 0.040000000000000001
      vertex 50.920000000000002 60 0.040000000000000001
    endloop
  endfacet
  facet normal 0.44721359549996575 -0 0.89442719099991197
    outer loop
      vertex 50.880000000000003 48 0.060000000000000012
      vertex 50.920000000000002 60 0.040000000000000001
      vertex 50.880000000000003 60 0.060000000000000012
    endloop
  endfacet
  facet normal -0.44721359549990219 0 0.89442719099994372
    outer loop
      vertex 75.120000000000005 -48 0.060000000000000012
      vertex 75.079999999999998 -52 0.040000000000000001
      vertex 75.079999999999998 -60 0.040000000000000001
    endloop
  endfacet
  facet normal -0.44721359549990219 0 0.89442719099994372
    outer loop
      vertex 75.120000000000005 -48 0.060000000000000012
      vertex 75.079999999999998 -60 0.040000000000000001
      vertex 75.120000000000005 -60 0.060000000000000012
    endloop
  endfacet
  facet normal -0.44721359549990219 0 0.89442719099994372
    outer loop
      vertex 75.079999999999998 -52 0.040000000000000001
      vertex 75.120000000000005 -48 0.060000000000000012
      vertex 75.120000000000005 -40 0.060000000000000012
    endloop
  endfacet
  facet normal -0.44721359549990219 0 0.89442719099994372
    outer loop
      vertex 75.079999999999998 -52 0.040000000000000001
      vertex 75.120000000000005 -40 0.060000000000000012
      vertex 75.079999999999998 -40 0.040000000000000001
    endloop
  endfacet
  facet normal -0.44721359549990219 0 0.89442719099994372
    outer loop
      vertex 75.120000000000005 -28 0.060000000000000012
      vertex 75.079999999999998 -32 0.040000000000000001
      vertex 75.079999999999998 -40 0.040000000000000001
    endloop
  endfacet
  facet normal -0.44721359549990219 0 0.89442719099994372
    outer loop
      vertex 75.120000000000005 -28 0.060000000000000012
      vertex 75.079999999999998 -40 0.040000000000000001
      vertex 75.120000000000005 -40 0.060000000000000012
    endloop
  endfacet
  facet normal -0.44721359549990219 0 0.89442719099994372
    outer loop
      vertex 75.079999999999998 -32 0.040000000000000001
      vertex 75.120000000000005 -28 0.060000000000000012
      vertex 75.120000000000005 -20 0.060000000000000012
    endloop
  endfacet
  facet normal -0.44721359549990219 0 0.89442719099994372
    outer loop
      vertex 75.079999999999998 -32 0.040000000000000001
      vertex 75.120000000000005 -20 0.060000000000000012
      vertex 75.079999999999998 -20 0.040000000000000001
    endloop
  endfacet
  facet normal -0.44721359549990219 0 0.89442719099994372
    outer loop
      vertex 75.120000000000005 -14 0.060000000000000012
      vertex 75.079999999999998 -16 0.040000000000000001
      vertex 75.079999999999998 -20 0.040000000000000001
    endloop
  endfacet
  facet normal -0.44721359549990219 0 0.89442719099994372
    outer loop
      vertex 75.120000000000005 -14 0.060000000000000012
      vertex 75.079999999999998 -20 0.040000000000000001
      vertex 75.120000000000005 -20 0.060000000000000012
    endloop
  endfacet
  facet normal -0.44721359549990219 0 0.89442719099994372
    outer loop
      vertex 75.079999999999998 -16 0.040000000000000001
      vertex 75.120000000000005 -14 0.060000000000000012
      vertex 75.120000000000005 -10 0.060000000000000012
    endloop
  endfacet
  facet normal -0.44721359549990219 0 0.89442719099994372
    outer loop
      vertex 75.079999999999998 -16 0.040000000000000001
      vertex 75.120000000000005 -10 0.060000000000000012
      vertex 75.079999999999998 -10 0.040000000000000001
    endloop
  endfacet
  facet normal -0.44721359549990219 0 0.89442719099994372
    outer loop
      vertex 75.120000000000005 -3.9999999999999991 0.060000000000000012
      vertex 75.079999999999998 -6 0.040000000000000001
      vertex 75.079999999999998 -10 0.040000000000000001
    endloop
  endfacet
  facet normal -0.44721359549990225 0 0.89442719099994383
    outer loop
      vertex 75.120000000000005 -3.9999999999999991 0.060000000000000012
      vertex 75.079999999999998 -10 0.040000000000000001
      vertex 75.120000000000005 -10 0.060000000000000012
    endloop
  endfacet
  facet normal -0.44721359549990225 0 0.89442719099994383
    outer loop
      vertex 75.079999999999998 -6 0.040000000000000001
      vertex 75.120000000000005 -3.9999999999999991 0.060000000000000012
      vertex 75.120000000000005 0 0.060000000000000012
    endloop
  endfacet
  facet normal -0.44721359549990219 0 0.89442719099994372
    outer loop
      vertex 75.079999999999998 -6 0.040000000000000001
      vertex 75.120000000000005 0 0.060000000000000012
      vertex 75.079999999999998 0 0.040000000000000001
    endloop
  endfacet
  facet normal -0.44721359549990225 0 0.89442719099994372
    outer loop
      vertex 75.120000000000005 0.00060000000000000016 0.060000000000000012
      vertex 75.079999999999998 0.00040000000000000007 0.040000000000000001
      vertex 75.079999999999998 0 0.040000000000000001
    endloop
  endfacet
  facet normal -0.44721359549990219 0 0.89442719099994372
    outer loop
      vertex 75.120000000000005 0.00060000000000000016 0.060000000000000012
      vertex 75.079999999999998 0 0.040000000000000001
      vertex 75.120000000000005 0 0.060000000000000012
    endloop
  endfacet
  facet normal -0.44721359549990225 0 0.89442719099994383
    outer loop
      vertex 75.079999999999998 0.00039999999999999996 0.040000000000000001
      vertex 75.120000000000005 0.00060000000000000006 0.060000000000000012
      vertex 75.120000000000005 0.001 0.060000000000000012
    endloop
  endfacet
  facet normal -0.44721359549990219 0 0.89442719099994383
    outer loop
      vertex 75.079999999999998 0.00039999999999999996 0.040000000000000001
      vertex 75.120000000000005 0.001 0.060000000000000012
      vertex 75.079999999999998 0.001 0.040000000000000001
    endloop
  endfacet
  facet normal -0.44721359549990225 0 0.89442719099994361
    outer loop
      vertex 75.120000000000005 6.0004000000000008 0.060000000000000012
      vertex 75.079999999999998 4.0005999999999995 0.040000000000000001
      vertex 75.079999999999998 0.001 0.040000000000000001
    endloop
  endfacet
  facet normal -0.44721359549990225 0 0.89442719099994372
    outer loop
      vertex 75.120000000000005 6.0004000000000008 0.060000000000000012
      vertex 75.079999999999998 0.001 0.040000000000000001
      vertex 75.120000000000005 0.001 0.060000000000000012
    endloop
  endfacet
  facet normal -0.44721359549990225 0 0.89442719099994383
    outer loop
      vertex 75.079999999999998 4.0006000000000004 0.040000000000000001
      vertex 75.120000000000005 6.0004000000000008 0.060000000000000012
      vertex 75.120000000000005 10 0.060000000000000012
    endloop
  endfacet
  facet normal -0.44721359549990225 0 0.89442719099994383
    outer loop
      vertex 75.079999999999998 4.0006000000000004 0.040000000000000001
      vertex 75.120000000000005 10 0.060000000000000012
      vertex 75.079999999999998 10 0.040000000000000001
    endloop
  endfacet
  facet normal -0.44721359549990219 0 0.89442719099994372
    outer loop
      vertex 75.120000000000005 16 0.060000000000000012
      vertex 75.079999999999998 14 0.040000000000000001
      vertex 75.079999999999998 10 0.040000000000000001
    endloop
  endfacet
  facet normal -0.44721359549990219 0 0.89442719099994372
    outer loop
      vertex 75.120000000000005 16 0.060000000000000012
      vertex 75.079999999999998 10 0.040000000000000001
      vertex 75.120000000000005 10 0.060000000000000012
    endloop
  endfacet
  facet normal -0.44721359549990219 0 0.89442719099994372
    outer loop
      vertex 75.079999999999998 14 0.040000000000000001
      vertex 75.120000000000005 16 0.060000000000000012
      vertex 75.120000000000005 20 0.060000000000000012
    endloop
  endfacet
  facet normal -0.44721359549990219 0 0.89442719099994372
    outer loop
      vertex 75.079999999999998 14 0.040000000000000001
      vertex 75.120000000000005 20 0.060000000000000012
      vertex 75.079999999999998 20 0.040000000000000001
    endloop
  endfacet
  facet normal -0.44721359549990219 0 0.89442719099994372
    outer loop
      vertex 75.120000000000005 32 0.060000000000000012
      vertex 75.079999999999998 28 0.040000000000000001
      vertex 75.079999999999998 20 0.040000000000000001
    endloop
  endfacet
  facet normal -0.44721359549990219 0 0.89442719099994372
    outer loop
      vertex 75.120000000000005 32 0.060000000000000012
      vertex 75.079999999999998 20 0.040000000000000001
      vertex 75.120000000000005 20 0.060000000000000012
    endloop
  endfacet
  facet normal -0.44721359549990219 0 0.89442719099994372
    outer loop
      vertex 75.079999999999998 28 0.040000000000000001
      vertex 75.120000000000005 32 0.060000000000000012
      vertex 75.120000000000005 40 0.060000000000000012
    endloop
  endfacet
  facet normal -0.44721359549990219 0 0.89442719099994372
    outer loop
      vertex 75.079999999999998 28 0.040000000000000001
      vertex 75.120000000000005 40 0.060000000000000012
      vertex 75.079999999999998 40 0.040000000000000001
    endloop
  endfacet
  facet normal -0.44721359549990219 0 0.89442719099994372
    outer loop
      vertex 75.120000000000005 52 0.060000000000000012
      vertex 75.079999999999998 48 0.040000000000000001
      vertex 75.079999999999998 40 0.040000000000000001
    endloop
  endfacet
  facet normal -0.44721359549990219 0 0.89442719099994372
    outer loop
      vertex 75.120000000000005 52 0.060000000000000012
      vertex 75.079999999999998 40 0.040000000000000001
      vertex 75.120000000000005 40 0.060000000000000012
    endloop
  endfacet
  facet normal -0.44721359549990219 0 0.89442719099994372
    outer loop
      vertex 75.079999999999998 48 0.040000000000000001
      vertex 75.120000000000005 52 0.060000000000000012
      vertex 75.120000000000005 60 0.060000000000000012
    endloop
  endfacet
  facet normal -0.44721359549990219 0 0.89442719099994372
    outer loop
      vertex 75.079999999999998 48 0.040000000000000001
      vertex 75.120000000000005 60 0.060000000000000012
      vertex 75.079999999999998 60 0.040000000000000001
    endloop
  endfacet
  facet normal 0.44721359549990219 0 0.89442719099994372
    outer loop
      vertex 77.920000000000002 -48 0.040000000000000001
      vertex 77.879999999999995 -52 0.060000000000000012
      vertex 77.879999999999995 -60 0.060000000000000012
    endloop
  endfacet
  facet normal 0.44721359549990219 0 0.89442719099994372
    outer loop
      vertex 77.920000000000002 -48 0.040000000000000001
      vertex 77.879999999999995 -60 0.060000000000000012
      vertex 77.920000000000002 -60 0.040000000000000001
    endloop
  endfacet
  facet normal 0.44721359549990219 0 0.89442719099994372
    outer loop
      vertex 77.879999999999995 -52 0.060000000000000012
      vertex 77.920000000000002 -48 0.040000000000000001
      vertex 77.920000000000002 -40 0.040000000000000001
    endloop
  endfacet
  facet normal 0.44721359549990219 -0 0.89442719099994372
    outer loop
      vertex 77.879999999999995 -52 0.060000000000000012
      vertex 77.920000000000002 -40 0.040000000000000001
      vertex 77.879999999999995 -40 0.060000000000000012
    endloop
  endfacet
  facet normal 0.44721359549990219 0 0.89442719099994372
    outer loop
      vertex 77.920000000000002 -28 0.040000000000000001
      vertex 77.879999999999995 -32 0.060000000000000012
      vertex 77.879999999999995 -40 0.060000000000000012
    endloop
  endfacet
  facet normal 0.44721359549990219 0 0.89442719099994372
    outer loop
      vertex 77.920000000000002 -28 0.040000000000000001
      vertex 77.879999999999995 -40 0.060000000000000012
      vertex 77.920000000000002 -40 0.040000000000000001
    endloop
  endfacet
  facet normal 0.44721359549990219 0 0.89442719099994372
    outer loop
      vertex 77.879999999999995 -32 0.060000000000000012
      vertex 77.920000000000002 -28 0.040000000000000001
      vertex 77.920000000000002 -20 0.040000000000000001
    endloop
  endfacet
  facet normal 0.44721359549990219 -0 0.89442719099994372
    outer loop
      vertex 77.879999999999995 -32 0.060000000000000012
      vertex 77.920000000000002 -20 0.040000000000000001
      vertex 77.879999999999995 -20 0.060000000000000012
    endloop
  endfacet
  facet normal 0.44721359549990219 0 0.89442719099994372
    outer loop
      vertex 77.920000000000002 -14 0.040000000000000001
      vertex 77.879999999999995 -16 0.060000000000000012
      vertex 77.879999999999995 -20 0.060000000000000012
    endloop
  endfacet
  facet normal 0.44721359549990219 0 0.89442719099994372
    outer loop
      vertex 77.920000000000002 -14 0.040000000000000001
      vertex 77.879999999999995 -20 0.060000000000000012
      vertex 77.920000000000002 -20 0.040000000000000001
    endloop
  endfacet
  facet normal 0.44721359549990219 0 0.89442719099994372
    outer loop
      vertex 77.879999999999995 -16 0.060000000000000012
      vertex 77.920000000000002 -14 0.040000000000000001
      vertex 77.920000000000002 -10 0.040000000000000001
    endloop
  endfacet
  facet normal 0.44721359549990219 -0 0.89442719099994372
    outer loop
      vertex 77.879999999999995 -16 0.060000000000000012
      vertex 77.920000000000002 -10 0.040000000000000001
      vertex 77.879999999999995 -10 0.060000000000000012
    endloop
  endfacet
  facet normal 0.44721359549990219 0 0.89442719099994372
    outer loop
      vertex 77.920000000000002 -3.9999999999999996 0.040000000000000001
      vertex 77.879999999999995 -6 0.060000000000000012
      vertex 77.879999999999995 -10 0.060000000000000012
    endloop
  endfacet
  facet normal 0.44721359549990219 0 0.89442719099994372
    outer loop
      vertex 77.920000000000002 -3.9999999999999996 0.040000000000000001
      vertex 77.879999999999995 -10 0.060000000000000012
      vertex 77.920000000000002 -10 0.040000000000000001
    endloop
  endfacet
  facet normal 0.44721359549990219 0 0.89442719099994372
    outer loop
      vertex 77.879999999999995 -6.0000000000000009 0.060000000000000012
      vertex 77.920000000000002 -4 0.040000000000000001
      vertex 77.920000000000002 0 0.040000000000000001
    endloop
  endfacet
  facet normal 0.44721359549990225 -0 0.89442719099994383
    outer loop
      vertex 77.879999999999995 -6.0000000000000009 0.060000000000000012
      vertex 77.920000000000002 0 0.040000000000000001
      vertex 77.879999999999995 0 0.060000000000000012
    endloop
  endfacet
  facet normal 0.44721359549990225 0 0.89442719099994383
    outer loop
      vertex 77.920000000000002 0.00060000000000000006 0.040000000000000001
      vertex 77.879999999999995 0.00039999999999999996 0.060000000000000012
      vertex 77.879999999999995 0 0.060000000000000012
    endloop
  endfacet
  facet normal 0.44721359549990219 0 0.89442719099994383
    outer loop
      vertex 77.920000000000002 0.00060000000000000006 0.040000000000000001
      vertex 77.879999999999995 0 0.060000000000000012
      vertex 77.920000000000002 0 0.040000000000000001
    endloop
  endfacet
  facet normal 0.44721359549990225 0 0.89442719099994372
    outer loop
      vertex 77.879999999999995 0.00039999999999999986 0.060000000000000012
      vertex 77.920000000000002 0.00059999999999999995 0.040000000000000001
      vertex 77.920000000000002 0.001 0.040000000000000001
    endloop
  endfacet
  facet normal 0.44721359549990219 -0 0.89442719099994372
    outer loop
      vertex 77.879999999999995 0.00039999999999999986 0.060000000000000012
      vertex 77.920000000000002 0.001 0.040000000000000001
      vertex 77.879999999999995 0.001 0.060000000000000012
    endloop
  endfacet
  facet normal 0.44721359549990225 0 0.89442719099994383
    outer loop
      vertex 77.920000000000002 6.0004 0.040000000000000001
      vertex 77.879999999999995 4.0005999999999995 0.060000000000000012
      vertex 77.879999999999995 0.001 0.060000000000000012
    endloop
  endfacet
  facet normal 0.44721359549990225 0 0.89442719099994383
    outer loop
      vertex 77.920000000000002 6.0004 0.040000000000000001
      vertex 77.879999999999995 0.001 0.060000000000000012
      vertex 77.920000000000002 0.001 0.040000000000000001
    endloop
  endfacet
  facet normal 0.44721359549990225 0 0.89442719099994361
    outer loop
      vertex 77.879999999999995 4.0005999999999995 0.060000000000000012
      vertex 77.920000000000002 6.0004000000000008 0.040000000000000001
      vertex 77.920000000000002 10 0.040000000000000001
    endloop
  endfacet
  facet normal 0.44721359549990225 -0 0.89442719099994372
    outer loop
      vertex 77.879999999999995 4.0005999999999995 0.060000000000000012
      vertex 77.920000000000002 10 0.040000000000000001
      vertex 77.879999999999995 10 0.060000000000000012
    endloop
  endfacet
  facet normal 0.44721359549990219 0 0.89442719099994372
    outer loop
      vertex 77.920000000000002 16 0.040000000000000001
      vertex 77.879999999999995 14 0.060000000000000012
      vertex 77.879999999999995 10 0.060000000000000012
    endloop
  endfacet
  facet normal 0.44721359549990219 0 0.89442719099994372
    outer loop
      vertex 77.920000000000002 16 0.040000000000000001
      vertex 77.879999999999995 10 0.060000000000000012
      vertex 77.920000000000002 10 0.040000000000000001
    endloop
  endfacet
  facet normal 0.44721359549990219 0 0.89442719099994372
    outer loop
      vertex 77.879999999999995 14 0.060000000000000012
      vertex 77.920000000000002 16 0.040000000000000001
      vertex 77.920000000000002 20 0.040000000000000001
    endloop
  endfacet
  facet normal 0.44721359549990219 -0 0.89442719099994372
    outer loop
      vertex 77.879999999999995 14 0.060000000000000012
      vertex 77.920000000000002 20 0.040000000000000001
      vertex 77.879999999999995 20 0.060000000000000012
    endloop
  endfacet
  facet normal 0.44721359549990219 0 0.89442719099994372
    outer loop
      vertex 77.920000000000002 32 0.040000000000000001
      vertex 77.879999999999995 28 0.060000000000000012
      vertex 77.879999999999995 20 0.060000000000000012
    endloop
  endfacet
  facet normal 0.44721359549990219 0 0.89442719099994372
    outer loop
      vertex 77.920000000000002 32 0.040000000000000001
      vertex 77.879999999999995 20 0.060000000000000012
      vertex 77.920000000000002 20 0.040000000000000001
    endloop
  endfacet
  facet normal 0.44721359549990219 0 0.89442719099994372
    outer loop
      vertex 77.879999999999995 28 0.060000000000000012
      vertex 77.920000000000002 32 0.040000000000000001
      vertex 77.920000000000002 40 0.040000000000000001
    endloop
  endfacet
  facet normal 0.44721359549990219 -0 0.89442719099994372
    outer loop
      vertex 77.879999999999995 28 0.060000000000000012
      vertex 77.920000000000002 40 0.040000000000000001
      vertex 77.879999999999995 40 0.060000000000000012
    endloop
  endfacet
  facet normal 0.44721359549990219 0 0.89442719099994372
    outer loop
      vertex 77.920000000000002 52 0.040000000000000001
      vertex 77.879999999999995 48 0.060000000000000012
      vertex 77.879999999999995 40 0.060000000000000012
    endloop
  endfacet
  facet normal 0.44721359549990219 0 0.89442719099994372
    outer loop
      vertex 77.920000000000002 52 0.040000000000000001
      vertex 77.879999999999995 40 0.060000000000000012
      vertex 77.920000000000002 40 0.040000000000000001
    endloop
  endfacet
  facet normal 0.44721359549990219 0 0.89442719099994372
    outer loop
      vertex 77.879999999999995 48 0.060000000000000012
      vertex 77.920000000000002 52 0.040000000000000001
      vertex 77.920000000000002 60 0.040000000000000001
    endloop
  endfacet
  facet normal 0.44721359549990219 -0 0.89442719099994372
    outer loop
      vertex 77.879999999999995 48 0.060000000000000012
      vertex 77.920000000000002 60 0.040000000000000001
      vertex 77.879999999999995 60 0.060000000000000012
    endloop
  endfacet
endsolid terrain_band_3
