solid terrain_band_8
  facet normal -0.24253562503629686 0 0.97014250014534098
    outer loop
      vertex 75.959999999999994 -43.999999999999993 0.14000000000000001
      vertex 75.959999999999994 -60 0.14000000000000001
      vertex 76 -60 0.14999999999999999
    endloop
  endfacet
  facet normal -0.24253562503629689 0 0.97014250014534098
    outer loop
      vertex 75.959999999999994 -43.999999999999993 0.14000000000000001
      vertex 76 -60 0.14999999999999999
      vertex 76 -40 0.14999999999999999
    endloop
  endfacet
  facet normal -0.24253562503629689 0 0.97014250014534098
    outer loop
      vertex 75.959999999999994 -43.999999999999993 0.14000000000000001
      vertex 76 -40 0.14999999999999999
      vertex 75.959999999999994 -40 0.14000000000000001
    endloop
  endfacet
  facet normal -0.24253562503629686 0 0.97014250014534098
    outer loop
      vertex 75.959999999999994 -23.999999999999993 0.14000000000000001
      vertex 75.959999999999994 -40 0.14000000000000001
      vertex 76 -40 0.14999999999999999
    endloop
  endfacet
  facet normal -0.24253562503629689 0 0.97014250014534098
    outer loop
      vertex 75.959999999999994 -23.999999999999993 0.14000000000000001
      vertex 76 -40 0.14999999999999999
      vertex 76 -20 0.14999999999999999
    endloop
  endfacet
  facet normal -0.24253562503629689 0 0.97014250014534098
    outer loop
      vertex 75.959999999999994 -23.999999999999993 0.14000000000000001
      vertex 76 -20 0.14999999999999999
      vertex 75.959999999999994 -20 0.14000000000000001
    endloop
  endfacet
  facet normal -0.24253562503629686 0 0.97014250014534098
    outer loop
      vertex 75.959999999999994 -11.999999999999996 0.14000000000000001
      vertex 75.959999999999994 -20 0.14000000000000001
      vertex 76 -20 0.14999999999999999
    endloop
  endfacet
  facet normal -0.24253562503629689 0 0.97014250014534098
    outer loop
      vertex 75.959999999999994 -11.999999999999996 0.14000000000000001
      vertex 76 -20 0.14999999999999999
      vertex 76 -10 0.14999999999999999
    endloop
  endfacet
  facet normal -0.24253562503629689 0 0.97014250014534098
    outer loop
      vertex 75.959999999999994 -11.999999999999996 0.14000000000000001
      vertex 76 -10 0.14999999999999999
      vertex 75.959999999999994 -10 0.14000000000000001
    endloop
  endfacet
  facet normal -0.24253562503629686 0 0.97014250014534098
    outer loop
      vertex 75.959999999999994 -1.9999999999999969 0.14000000000000001
      vertex 75.959999999999994 -10 0.14000000000000001
      vertex 76 -10 0.14999999999999999
    endloop
  endfacet
  facet normal -0.24253562503629686 0 0.97014250014534087
    outer loop
      vertex 75.959999999999994 -1.9999999999999969 0.14000000000000001
      vertex 76 -10 0.14999999999999999
      vertex 76 0 0.14999999999999999
    endloop
  endfacet
  facet normal -0.24253562503629689 0 0.97014250014534098
    outer loop
      vertex 75.959999999999994 -1.9999999999999964 0.14000000000000001
      vertex 76 0 0.14999999999999999
      vertex 75.959999999999994 0 0.14000000000000001
    endloop
  endfacet
  facet normal -0.24253562503629683 0 0.97014250014534098
    outer loop
      vertex 75.959999999999994 0.00080000000000000036 0.14000000000000001
      vertex 75.959999999999994 0 0.14000000000000001
      vertex 76 0 0.14999999999999999
    endloop
  endfacet
  facet normal -0.2425356250362968 0 0.97014250014534087
    outer loop
      vertex 75.959999999999994 0.00080000000000000036 0.14000000000000001
      vertex 76 0 0.14999999999999999
      vertex 76 0.001 0.14999999999999999
    endloop
  endfacet
  facet normal -0.24253562503629686 0 0.97014250014534087
    outer loop
      vertex 75.959999999999994 0.00080000000000000036 0.14000000000000001
      vertex 76 0.001 0.14999999999999999
      vertex 75.959999999999994 0.001 0.14000000000000001
    endloop
  endfacet
  facet normal -0.24253562503629689 0 0.97014250014534087
    outer loop
      vertex 75.959999999999994 8.0002000000000031 0.14000000000000001
      vertex 75.959999999999994 0.001 0.14000000000000001
      vertex 76 0.001 0.14999999999999999
    endloop
  endfacet
  facet normal -0.24253562503629689 0 0.97014250014534098
    outer loop
      vertex 75.959999999999994 8.0002000000000031 0.14000000000000001
      vertex 76 0.001 0.14999999999999999
      vertex 76 10 0.14999999999999999
    endloop
  endfacet
  facet normal -0.24253562503629689 0 0.97014250014534087
    outer loop
      vertex 75.959999999999994 8.0002000000000049 0.14000000000000001
      vertex 76 10 0.14999999999999999
      vertex 75.959999999999994 10 0.14000000000000001
    endloop
  endfacet
  facet normal -0.24253562503629686 0 0.97014250014534098
    outer loop
      vertex 75.959999999999994 18.000000000000004 0.14000000000000001
      vertex 75.959999999999994 10 0.14000000000000001
      vertex 76 10 0.14999999999999999
    endloop
  endfacet
  facet normal -0.24253562503629689 0 0.97014250014534098
    outer loop
      vertex 75.959999999999994 18.000000000000004 0.14000000000000001
      vertex 76 10 0.14999999999999999
      vertex 76 20 0.14999999999999999
    endloop
  endfacet
  facet normal -0.24253562503629689 0 0.97014250014534098
    outer loop
      vertex 75.959999999999994 18.000000000000004 0.14000000000000001
      vertex 76 20 0.14999999999999999
      vertex 75.959999999999994 20 0.14000000000000001
    endloop
  endfacet
  facet normal -0.24253562503629686 0 0.97014250014534098
    outer loop
      vertex 75.959999999999994 36.000000000000007 0.14000000000000001
      vertex 75.959999999999994 20 0.14000000000000001
      vertex 76 20 0.14999999999999999
    endloop
  endfacet
  facet normal -0.24253562503629689 0 0.97014250014534098
    outer loop
      vertex 75.959999999999994 36.000000000000007 0.14000000000000001
      vertex 76 20 0.14999999999999999
      vertex 76 40 0.14999999999999999
    endloop
  endfacet
  facet normal -0.24253562503629689 0 0.97014250014534098
    outer loop
      vertex 75.959999999999994 36.000000000000007 0.14000000000000001
      vertex 76 40 0.14999999999999999
      vertex 75.959999999999994 40 0.14000000000000001
    endloop
  endfacet
  facet normal -0.24253562503629686 0 0.97014250014534098
    outer loop
      vertex 75.959999999999994 56.000000000000007 0.14000000000000001
      vertex 75.959999999999994 40 0.14000000000000001
      vertex 76 40 0.14999999999999999
    endloop
  endfacet
  facet normal -0.24253562503629689 0 0.97014250014534098
    outer loop
      vertex 75.959999999999994 56.000000000000007 0.14000000000000001
      vertex 76 40 0.14999999999999999
      vertex 76 60 0.14999999999999999
    endloop
  endfacet
  facet normal -0.24253562503629689 0 0.97014250014534098
    outer loop
      vertex 75.959999999999994 56.000000000000007 0.14000000000000001
      vertex 76 60 0.14999999999999999
      vertex 75.959999999999994 60 0.14000000000000001
    endloop
  endfacet
  facet normal 0 0 1
    outer loop
      vertex 76 -60 0.14999999999999999
      vertex 76.200000000000003 -60 0.14999999999999999
      vertex 76.200000000000003 -40 0.14999999999999999
    endloop
  endfacet
  facet normal 0 0 1
    outer loop
      vertex 76 -60 0.14999999999999999
      vertex 76.200000000000003 -40 0.14999999999999999
      vertex 76 -40 0.14999999999999999
    endloop
  endfacet
  facet normal 0 0 1
    outer loop
      vertex 76 -40 0.14999999999999999
      vertex 76.200000000000003 -40 0.14999999999999999
      vertex 76.200000000000003 -20 0.14999999999999999
    endloop
  endfacet
  facet normal 0 0 1
    outer loop
      vertex 76 -40 0.14999999999999999
      vertex 76.200000000000003 -20 0.14999999999999999
      vertex 76 -20 0.14999999999999999
    endloop
  endfacet
  facet normal 0 0 1
    outer loop
      vertex 76 -20 0.14999999999999999
      vertex 76.200000000000003 -20 0.14999999999999999
      vertex 76.200000000000003 -10 0.14999999999999999
    endloop
  endfacet
  facet normal 0 0 1
    outer loop
      vertex 76 -20 0.14999999999999999
      vertex 76.200000000000003 -10 0.14999999999999999
      vertex 76 -10 0.14999999999999999
    endloop
  endfacet
  facet normal 0 0 1
    outer loop
      vertex 76 -10 0.14999999999999999
      vertex 76.200000000000003 -10 0.14999999999999999
      vertex 76.200000000000003 0 0.14999999999999999
    endloop
  endfacet
  facet normal 0 0 1
    outer loop
      vertex 76 -10 0.14999999999999999
      vertex 76.200000000000003 0 0.14999999999999999
      vertex 76 0 0.14999999999999999
    endloop
  endfacet
  facet normal 0 0 1
    outer loop
      vertex 76 0 0.14999999999999999
      vertex 76.200000000000003 0 0.14999999999999999
      vertex 76.200000000000003 0.001 0.14999999999999999
    endloop
  endfacet
  facet normal 0 0 1
    outer loop
      vertex 76 0 0.14999999999999999
      vertex 76.200000000000003 0.001 0.14999999999999999
      vertex 76 0.001 0.14999999999999999
    endloop
  endfacet
  facet normal 0 0 1
    outer loop
      vertex 76 0.001 0.14999999999999999
      vertex 76.200000000000003 0.001 0.14999999999999999
      vertex 76.200000000000003 10 0.14999999999999999
    endloop
  endfacet
  facet normal 0 0 1
    outer loop
      vertex 76 0.001 0.14999999999999999
      vertex 76.200000000000003 10 0.14999999999999999
      vertex 76 10 0.14999999999999999
    endloop
  endfacet
  facet normal 0 0 1
    outer loop
      vertex 76 10 0.14999999999999999
      vertex 76.200000000000003 10 0.14999999999999999
      vertex 76.200000000000003 20 0.14999999999999999
    endloop
  endfacet
  facet normal 0 0 1
    outer loop
      vertex 76 10 0.14999999999999999
      vertex 76.200000000000003 20 0.14999999999999999
      vertex 76 20 0.14999999999999999
    endloop
  endfacet
  facet normal 0 0 1
    outer loop
      vertex 76 20 0.14999999999999999
      vertex 76.200000000000003 20 0.14999999999999999
      vertex 76.200000000000003 40 0.14999999999999999
    endloop
  endfacet
  facet normal 0 0 1
    outer loop
      vertex 76 20 0.14999999999999999
      vertex 76.200000000000003 40 0.14999999999999999
      vertex 76 40 0.14999999999999999
    endloop
  endfacet
  facet normal 0 0 1
    outer loop
      vertex 76 40 0.14999999999999999
      vertex 76.200000000000003 40 0.14999999999999999
      vertex 76.200000000000003 60 0.14999999999999999
    endloop
  endfacet
  facet normal 0 0 1
    outer loop
      vertex 76 40 0.14999999999999999
      vertex 76.200000000000003 60 0.14999999999999999
      vertex 76 60 0.14999999999999999
    endloop
  endfacet
  facet normal 0 0 1
    outer loop
      vertex 76.200000000000003 -60 0.14999999999999999
      vertex 76.400000000000006 -60 0.14999999999999999
      vertex 76.400000000000006 -40 0.14999999999999999
    endloop
  endfacet
  facet normal 0 0 1
    outer loop
      vertex 76.200000000000003 -60 0.14999999999999999
      vertex 76.400000000000006 -40 0.14999999999999999
      vertex 76.200000000000003 -40 0.14999999999999999
    endloop
  endfacet
  facet normal 0 0 1
    outer loop
      vertex 76.200000000000003 -40 0.14999999999999999
      vertex 76.400000000000006 -40 0.14999999999999999
      vertex 76.400000000000006 -20 0.14999999999999999
    endloop
  endfacet
  facet normal 0 0 1
    outer loop
      vertex 76.200000000000003 -40 0.14999999999999999
      vertex 76.400000000000006 -20 0.14999999999999999
      vertex 76.200000000000003 -20 0.14999999999999999
    endloop
  endfacet
  facet normal 0 0 1
    outer loop
      vertex 76.200000000000003 -20 0.14999999999999999
      vertex 76.400000000000006 -20 0.14999999999999999
      vertex 76.400000000000006 -10 0.14999999999999999
    endloop
  endfacet
  facet normal 0 0 1
    outer loop
      vertex 76.200000000000003 -20 0.14999999999999999
      vertex 76.400000000000006 -10 0.14999999999999999
      vertex 76.200000000000003 -10 0.14999999999999999
    endloop
  endfacet
  facet normal 0 0 1
    outer loop
      vertex 76.200000000000003 -10 0.14999999999999999
      vertex 76.400000000000006 -10 0.14999999999999999
      vertex 76.400000000000006 0 0.14999999999999999
    endloop
  endfacet
  facet normal 0 0 1
    outer loop
      vertex 76.200000000000003 -10 0.14999999999999999
      vertex 76.400000000000006 0 0.14999999999999999
      vertex 76.200000000000003 0 0.14999999999999999
    endloop
  endfacet
  facet normal 0 0 1
    outer loop
      vertex 76.200000000000003 0 0.14999999999999999
      vertex 76.400000000000006 0 0.14999999999999999
      vertex 76.400000000000006 0.001 0.14999999999999999
    endloop
  endfacet
  facet normal 0 0 1
    outer loop
      vertex 76.200000000000003 0 0.14999999999999999
      vertex 76.400000000000006 0.001 0.14999999999999999
      vertex 76.200000000000003 0.001 0.14999999999999999
    endloop
  endfacet
  facet normal 0 0 1
    outer loop
      vertex 76.200000000000003 0.001 0.14999999999999999
      vertex 76.400000000000006 0.001 0.14999999999999999
      vertex 76.400000000000006 10 0.14999999999999999
    endloop
  endfacet
  facet normal 0 0 1
    outer loop
      vertex 76.200000000000003 0.001 0.14999999999999999
      vertex 76.400000000000006 10 0.14999999999999999
      vertex 76.200000000000003 10 0.14999999999999999
    endloop
  endfacet
  facet normal 0 0 1
    outer loop
      vertex 76.200000000000003 10 0.14999999999999999
      vertex 76.400000000000006 10 0.14999999999999999
      vertex 76.400000000000006 20 0.14999999999999999
    endloop
  endfacet
  facet normal 0 0 1
    outer loop
      vertex 76.200000000000003 10 0.14999999999999999
      vertex 76.400000000000006 20 0.14999999999999999
      vertex 76.200000000000003 20 0.14999999999999999
    endloop
  endfacet
  facet normal 0 0 1
    outer loop
      vertex 76.200000000000003 20 0.14999999999999999
      vertex 76.400000000000006 20 0.14999999999999999
      vertex 76.400000000000006 40 0.14999999999999999
    endloop
  endfacet
  facet normal 0 0 1
    outer loop
      vertex 76.200000000000003 20 0.14999999999999999
      vertex 76.400000000000006 40 0.14999999999999999
      vertex 76.200000000000003 40 0.14999999999999999
    endloop
  endfacet
  facet normal 0 0 1
    outer loop
      vertex 76.200000000000003 40 0.14999999999999999
      vertex 76.400000000000006 40 0.14999999999999999
      vertex 76.400000000000006 60 0.14999999999999999
    endloop
  endfacet
  facet normal 0 0 1
    outer loop
      vertex 76.200000000000003 40 0.14999999999999999
      vertex 76.400000000000006 60 0.14999999999999999
      vertex 76.200000000000003 60 0.14999999999999999
    endloop
  endfacet
  facet normal 0 0 1
    outer loop
      vertex 76.400000000000006 -60 0.14999999999999999
      vertex 76.599999999999994 -60 0.14999999999999999
      vertex 76.599999999999994 -40 0.14999999999999999
    endloop
  endfacet
  facet normal 0 0 1
    outer loop
      vertex 76.400000000000006 -60 0.14999999999999999
      vertex 76.599999999999994 -40 0.14999999999999999
      vertex 76.400000000000006 -40 0.14999999999999999
    endloop
  endfacet
  facet normal 0 0 1
    outer loop
      vertex 76.400000000000006 -40 0.14999999999999999
      vertex 76.599999999999994 -40 0.14999999999999999
      vertex 76.599999999999994 -20 0.14999999999999999
    endloop
  endfacet
  facet normal 0 0 1
    outer loop
      vertex 76.400000000000006 -40 0.14999999999999999
      vertex 76.599999999999994 -20 0.14999999999999999
      vertex 76.400000000000006 -20 0.14999999999999999
    endloop
  endfacet
  facet normal 0 0 1
    outer loop
      vertex 76.400000000000006 -20 0.14999999999999999
      vertex 76.599999999999994 -20 0.14999999999999999
      vertex 76.599999999999994 -10 0.14999999999999999
    endloop
  endfacet
  facet normal 0 0 1
    outer loop
      vertex 76.400000000000006 -20 0.14999999999999999
      vertex 76.599999999999994 -10 0.14999999999999999
      vertex 76.400000000000006 -10 0.14999999999999999
    endloop
  endfacet
  facet normal 0 0 1
    outer loop
      vertex 76.400000000000006 -10 0.14999999999999999
      vertex 76.599999999999994 -10 0.14999999999999999
      vertex 76.599999999999994 0 0.14999999999999999
    endloop
  endfacet
  facet normal 0 0 1
    outer loop
      vertex 76.400000000000006 -10 0.14999999999999999
      vertex 76.599999999999994 0 0.14999999999999999
      vertex 76.400000000000006 0 0.14999999999999999
    endloop
  endfacet
  facet normal 0 0 1
    outer loop
      vertex 76.400000000000006 0 0.14999999999999999
      vertex 76.599999999999994 0 0.14999999999999999
      vertex 76.599999999999994 0.001 0.14999999999999999
    endloop
  endfacet
  facet normal 0 0 1
    outer loop
      vertex 76.400000000000006 0 0.14999999999999999
      vertex 76.599999999999994 0.001 0.14999999999999999
      vertex 76.400000000000006 0.001 0.14999999999999999
    endloop
  endfacet
  facet normal 0 0 1
    outer loop
      vertex 76.400000000000006 0.001 0.14999999999999999
      vertex 76.599999999999994 0.001 0.14999999999999999
      vertex 76.599999999999994 10 0.14999999999999999
    endloop
  endfacet
  facet normal 0 0 1
    outer loop
      vertex 76.400000000000006 0.001 0.14999999999999999
      vertex 76.599999999999994 10 0.14999999999999999
      vertex 76.400000000000006 10 0.14999999999999999
    endloop
  endfacet
  facet normal 0 0 1
    outer loop
      vertex 76.400000000000006 10 0.14999999999999999
      vertex 76.599999999999994 10 0.14999999999999999
      vertex 76.599999999999994 20 0.14999999999999999
    endloop
  endfacet
  facet normal 0 0 1
    outer loop
      vertex 76.400000000000006 10 0.14999999999999999
      vertex 76.599999999999994 20 0.14999999999999999
      vertex 76.400000000000006 20 0.14999999999999999
    endloop
  endfacet
  facet normal 0 0 1
    outer loop
      vertex 76.400000000000006 20 0.14999999999999999
      vertex 76.599999999999994 20 0.14999999999999999
      vertex 76.599999999999994 40 0.14999999999999999
    endloop
  endfacet
  facet normal 0 0 1
    outer loop
      vertex 76.400000000000006 20 0.14999999999999999
      vertex 76.599999999999994 40 0.14999999999999999
      vertex 76.400000000000006 40 0.14999999999999999
    endloop
  endfacet
  facet normal 0 0 1
    outer loop
      vertex 76.400000000000006 40 0.14999999999999999
      vertex 76.599999999999994 40 0.14999999999999999
      vertex 76.599999999999994 60 0.14999999999999999
    endloop
  endfacet
  facet normal 0 0 1
    outer loop
      vertex 76.400000000000006 40 0.14999999999999999
      vertex 76.599999999999994 60 0.14999999999999999
      vertex 76.400000000000006 60 0.14999999999999999
    endloop
  endfacet
  facet normal -0.2425356250362975 0 0.97014250014534076
    outer loop
      vertex 76.640000000000001 -56 0.16
      vertex 76.599999999999994 -60 0.14999999999999999
      vertex 76.640000000000001 -60 0.16
    endloop
  endfacet
  facet normal -0.2425356250362975 0 0.97014250014534076
    outer loop
      vertex 76.599999999999994 -60 0.14999999999999999
      vertex 76.640000000000001 -56 0.16
      vertex 76.640000000000001 -40 0.16
    endloop
  endfacet
  facet normal -0.2425356250362975 0 0.97014250014534076
    outer loop
      vertex 76.599999999999994 -60 0.14999999999999999
      vertex 76.640000000000001 -40 0.16
      vertex 76.599999999999994 -40 0.14999999999999999
    endloop
  endfacet
  facet normal -0.2425356250362975 0 0.97014250014534076
    outer loop
      vertex 76.640000000000001 -36 0.16
      vertex 76.599999999999994 -40 0.14999999999999999
      vertex 76.640000000000001 -40 0.16
    endloop
  endfacet
  facet normal -0.2425356250362975 0 0.97014250014534076
    outer loop
      vertex 76.599999999999994 -40 0.14999999999999999
      vertex 76.640000000000001 -36 0.16
      vertex 76.640000000000001 -20 0.16
    endloop
  endfacet
  facet normal -0.2425356250362975 0 0.97014250014534076
    outer loop
      vertex 76.599999999999994 -40 0.14999999999999999
      vertex 76.640000000000001 -20 0.16
      vertex 76.599999999999994 -20 0.14999999999999999
    endloop
  endfacet
  facet normal -0.2425356250362975 0 0.97014250014534076
    outer loop
      vertex 76.640000000000001 -18 0.16
      vertex 76.599999999999994 -20 0.14999999999999999
      vertex 76.640000000000001 -20 0.16
    endloop
  endfacet
  facet normal -0.2425356250362975 0 0.97014250014534076
    outer loop
      vertex 76.599999999999994 -20 0.14999999999999999
      vertex 76.640000000000001 -18 0.16
      vertex 76.640000000000001 -10 0.16
    endloop
  endfacet
  facet normal -0.2425356250362975 0 0.97014250014534076
    outer loop
      vertex 76.599999999999994 -20 0.14999999999999999
      vertex 76.640000000000001 -10 0.16
      vertex 76.599999999999994 -10 0.14999999999999999
    endloop
  endfacet
  facet normal -0.2425356250362975 0 0.97014250014534076
    outer loop
      vertex 76.640000000000001 -7.9999999999999991 0.16
      vertex 76.599999999999994 -10 0.14999999999999999
      vertex 76.640000000000001 -10 0.16
    endloop
  endfacet
  facet normal -0.2425356250362975 0 0.97014250014534076
    outer loop
      vertex 76.599999999999994 -10 0.14999999999999999
      vertex 76.640000000000001 -7.9999999999999982 0.16
      vertex 76.640000000000001 0 0.16
    endloop
  endfacet
  facet normal -0.2425356250362975 0 0.97014250014534076
    outer loop
      vertex 76.599999999999994 -10 0.14999999999999999
      vertex 76.640000000000001 0 0.16
      vertex 76.599999999999994 0 0.14999999999999999
    endloop
  endfacet
  facet normal -0.2425356250362975 0 0.97014250014534076
    outer loop
      vertex 76.640000000000001 0.00020000000000000009 0.16
      vertex 76.599999999999994 0 0.14999999999999999
      vertex 76.640000000000001 0 0.16
    endloop
  endfacet
  facet normal -0.24253562503629755 0 0.97014250014534076
    outer loop
      vertex 76.599999999999994 0 0.14999999999999999
      vertex 76.640000000000001 0.00020000000000000012 0.16
      vertex 76.640000000000001 0.001 0.16
    endloop
  endfacet
  facet normal -0.2425356250362975 0 0.97014250014534076
    outer loop
      vertex 76.599999999999994 0 0.14999999999999999
      vertex 76.640000000000001 0.001 0.16
      vertex 76.599999999999994 0.001 0.14999999999999999
    endloop
  endfacet
  facet normal -0.24253562503629747 0 0.97014250014534076
    outer loop
      vertex 76.640000000000001 2.0007999999999999 0.16
      vertex 76.599999999999994 0.001 0.14999999999999999
      vertex 76.640000000000001 0.001 0.16
    endloop
  endfacet
  facet normal -0.24253562503629747 0 0.97014250014534076
    outer loop
      vertex 76.599999999999994 0.001 0.14999999999999999
      vertex 76.640000000000001 2.0008000000000012 0.16
      vertex 76.640000000000001 10 0.16
    endloop
  endfacet
  facet normal -0.24253562503629747 0 0.97014250014534076
    outer loop
      vertex 76.599999999999994 0.001 0.14999999999999999
      vertex 76.640000000000001 10 0.16
      vertex 76.599999999999994 10 0.14999999999999999
    endloop
  endfacet
  facet normal -0.2425356250362975 0 0.97014250014534076
    outer loop
      vertex 76.640000000000001 12 0.16
      vertex 76.599999999999994 10 0.14999999999999999
      vertex 76.640000000000001 10 0.16
    endloop
  endfacet
  facet normal -0.2425356250362975 0 0.97014250014534076
    outer loop
      vertex 76.599999999999994 10 0.14999999999999999
      vertex 76.640000000000001 12.000000000000002 0.16
      vertex 76.640000000000001 20 0.16
    endloop
  endfacet
  facet normal -0.2425356250362975 0 0.97014250014534076
    outer loop
      vertex 76.599999999999994 10 0.14999999999999999
      vertex 76.640000000000001 20 0.16
      vertex 76.599999999999994 20 0.14999999999999999
    endloop
  endfacet
  facet normal -0.2425356250362975 0 0.97014250014534076
    outer loop
      vertex 76.640000000000001 24 0.16
      vertex 76.599999999999994 20 0.14999999999999999
      vertex 76.640000000000001 20 0.16
    endloop
  endfacet
  facet normal -0.2425356250362975 0 0.97014250014534076
    outer loop
      vertex 76.599999999999994 20 0.14999999999999999
      vertex 76.640000000000001 24.000000000000004 0.16
      vertex 76.640000000000001 40 0.16
    endloop
  endfacet
  facet normal -0.2425356250362975 0 0.97014250014534076
    outer loop
      vertex 76.599999999999994 20 0.14999999999999999
      vertex 76.640000000000001 40 0.16
      vertex 76.599999999999994 40 0.14999999999999999
    endloop
  endfacet
  facet normal -0.2425356250362975 0 0.97014250014534076
    outer loop
      vertex 76.640000000000001 44 0.16
      vertex 76.599999999999994 40 0.14999999999999999
      vertex 76.640000000000001 40 0.16
    endloop
  endfacet
  facet normal -0.2425356250362975 0 0.97014250014534076
    outer loop
      vertex 76.599999999999994 40 0.14999999999999999
      vertex 76.640000000000001 44 0.16
      vertex 76.640000000000001 60 0.16
    endloop
  endfacet
  facet normal -0.2425356250362975 0 0.97014250014534076
    outer loop
      vertex 76.599999999999994 40 0.14999999999999999
      vertex 76.640000000000001 60 0.16
      vertex 76.599999999999994 60 0.14999999999999999
    endloop
  endfacet
  facet normal 0.44721359550002893 0 0.89442719099988033
    outer loop
      vertex 77.519999999999996 -48 0.14000000000000001
      vertex 77.480000000000004 -52 0.16
      vertex 77.480000000000004 -60 0.16
    endloop
  endfacet
  facet normal 0.44721359550002893 0 0.89442719099988033
    outer loop
      vertex 77.519999999999996 -48 0.14000000000000001
      vertex 77.480000000000004 -60 0.16
      vertex 77.519999999999996 -60 0.14000000000000001
    endloop
  endfacet
  facet normal 0.44721359550002893 0 0.89442719099988033
    outer loop
      vertex 77.480000000000004 -52 0.16
      vertex 77.519999999999996 -48 0.14000000000000001
      vertex 77.519999999999996 -40 0.14000000000000001
    endloop
  endfacet
  facet normal 0.44721359550002893 -0 0.89442719099988033
    outer loop
      vertex 77.480000000000004 -52 0.16
      vertex 77.519999999999996 -40 0.14000000000000001
      vertex 77.480000000000004 -40 0.16
    endloop
  endfacet
  facet normal 0.44721359550002893 0 0.89442719099988033
    outer loop
      vertex 77.519999999999996 -28 0.14000000000000001
      vertex 77.480000000000004 -32 0.16
      vertex 77.480000000000004 -40 0.16
    endloop
  endfacet
  facet normal 0.44721359550002893 0 0.89442719099988033
    outer loop
      vertex 77.519999999999996 -28 0.14000000000000001
      vertex 77.480000000000004 -40 0.16
      vertex 77.519999999999996 -40 0.14000000000000001
    endloop
  endfacet
  facet normal 0.44721359550002893 0 0.89442719099988033
    outer loop
      vertex 77.480000000000004 -32 0.16
      vertex 77.519999999999996 -28 0.14000000000000001
      vertex 77.519999999999996 -20 0.14000000000000001
    endloop
  endfacet
  facet normal 0.44721359550002893 -0 0.89442719099988033
    outer loop
      vertex 77.480000000000004 -32 0.16
      vertex 77.519999999999996 -20 0.14000000000000001
      vertex 77.480000000000004 -20 0.16
    endloop
  endfacet
  facet normal 0.44721359550002893 0 0.89442719099988033
    outer loop
      vertex 77.519999999999996 -14 0.14000000000000001
      vertex 77.480000000000004 -16 0.16
      vertex 77.480000000000004 -20 0.16
    endloop
  endfacet
  facet normal 0.44721359550002893 0 0.89442719099988033
    outer loop
      vertex 77.519999999999996 -14 0.14000000000000001
      vertex 77.480000000000004 -20 0.16
      vertex 77.519999999999996 -20 0.14000000000000001
    endloop
  endfacet
  facet normal 0.44721359550002893 0 0.89442719099988033
    outer loop
      vertex 77.480000000000004 -16 0.16
      vertex 77.519999999999996 -14 0.14000000000000001
      vertex 77.519999999999996 -10 0.14000000000000001
    endloop
  endfacet
  facet normal 0.44721359550002893 -0 0.89442719099988033
    outer loop
      vertex 77.480000000000004 -16 0.16
      vertex 77.519999999999996 -10 0.14000000000000001
      vertex 77.480000000000004 -10 0.16
    endloop
  endfacet
  facet normal 0.44721359550002893 0 0.89442719099988033
    outer loop
      vertex 77.519999999999996 -4.0000000000000009 0.14000000000000001
      vertex 77.480000000000004 -6 0.16
      vertex 77.480000000000004 -10 0.16
    endloop
  endfacet
  facet normal 0.44721359550002898 0 0.89442719099988044
    outer loop
      vertex 77.519999999999996 -4.0000000000000009 0.14000000000000001
      vertex 77.480000000000004 -10 0.16
      vertex 77.519999999999996 -10 0.14000000000000001
    endloop
  endfacet
  facet normal 0.44721359550002893 0 0.89442719099988033
    outer loop
      vertex 77.480000000000004 -5.9999999999999991 0.16
      vertex 77.519999999999996 -4 0.14000000000000001
      vertex 77.519999999999996 0 0.14000000000000001
    endloop
  endfacet
  facet normal 0.44721359550002898 -0 0.89442719099988044
    outer loop
      vertex 77.480000000000004 -5.9999999999999991 0.16
      vertex 77.519999999999996 0 0.14000000000000001
      vertex 77.480000000000004 0 0.16
    endloop
  endfacet
  facet normal 0.44721359550002904 0 0.89442719099988033
    outer loop
      vertex 77.519999999999996 0.00059999999999999995 0.14000000000000001
      vertex 77.480000000000004 0.00040000000000000007 0.16
      vertex 77.480000000000004 0 0.16
    endloop
  endfacet
  facet normal 0.44721359550002898 0 0.89442719099988044
    outer loop
      vertex 77.519999999999996 0.00059999999999999995 0.14000000000000001
      vertex 77.480000000000004 0 0.16
      vertex 77.519999999999996 0 0.14000000000000001
    endloop
  endfacet
  facet normal 0.44721359550002904 0 0.89442719099988033
    outer loop
      vertex 77.480000000000004 0.00040000000000000007 0.16
      vertex 77.519999999999996 0.00059999999999999995 0.14000000000000001
      vertex 77.519999999999996 0.001 0.14000000000000001
    endloop
  endfacet
  facet normal 0.44721359550002898 -0 0.89442719099988044
    outer loop
      vertex 77.480000000000004 0.00040000000000000007 0.16
      vertex 77.519999999999996 0.001 0.14000000000000001
      vertex 77.480000000000004 0.001 0.16
    endloop
  endfacet
  facet normal 0.44721359550002898 0 0.89442719099988044
    outer loop
      vertex 77.519999999999996 6.0003999999999991 0.14000000000000001
      vertex 77.480000000000004 4.0006000000000004 0.16
      vertex 77.480000000000004 0.001 0.16
    endloop
  endfacet
  facet normal 0.44721359550002898 0 0.89442719099988044
    outer loop
      vertex 77.519999999999996 6.0003999999999991 0.14000000000000001
      vertex 77.480000000000004 0.001 0.16
      vertex 77.519999999999996 0.001 0.14000000000000001
    endloop
  endfacet
  facet normal 0.44721359550002898 0 0.89442719099988044
    outer loop
      vertex 77.480000000000004 4.0006000000000013 0.16
      vertex 77.519999999999996 6.0004000000000008 0.14000000000000001
      vertex 77.519999999999996 10 0.14000000000000001
    endloop
  endfacet
  facet normal 0.44721359550002898 -0 0.89442719099988044
    outer loop
      vertex 77.480000000000004 4.0006000000000013 0.16
      vertex 77.519999999999996 10 0.14000000000000001
      vertex 77.480000000000004 10 0.16
    endloop
  endfacet
  facet normal 0.44721359550002893 0 0.89442719099988033
    outer loop
      vertex 77.519999999999996 16 0.14000000000000001
      vertex 77.480000000000004 14 0.16
      vertex 77.480000000000004 10 0.16
    endloop
  endfacet
  facet normal 0.44721359550002893 0 0.89442719099988033
    outer loop
      vertex 77.519999999999996 16 0.14000000000000001
      vertex 77.480000000000004 10 0.16
      vertex 77.519999999999996 10 0.14000000000000001
    endloop
  endfacet
  facet normal 0.44721359550002893 0 0.89442719099988033
    outer loop
      vertex 77.480000000000004 14 0.16
      vertex 77.519999999999996 16 0.14000000000000001
      vertex 77.519999999999996 20 0.14000000000000001
    endloop
  endfacet
  facet normal 0.44721359550002893 -0 0.89442719099988033
    outer loop
      vertex 77.480000000000004 14 0.16
      vertex 77.519999999999996 20 0.14000000000000001
      vertex 77.480000000000004 20 0.16
    endloop
  endfacet
  facet normal 0.44721359550002893 0 0.89442719099988033
    outer loop
      vertex 77.519999999999996 32 0.14000000000000001
      vertex 77.480000000000004 28 0.16
      vertex 77.480000000000004 20 0.16
    endloop
  endfacet
  facet normal 0.44721359550002893 0 0.89442719099988033
    outer loop
      vertex 77.519999999999996 32 0.14000000000000001
      vertex 77.480000000000004 20 0.16
      vertex 77.519999999999996 20 0.14000000000000001
    endloop
  endfacet
  facet normal 0.44721359550002893 0 0.89442719099988033
    outer loop
      vertex 77.480000000000004 28 0.16
      vertex 77.519999999999996 32 0.14000000000000001
      vertex 77.519999999999996 40 0.14000000000000001
    endloop
  endfacet
  facet normal 0.44721359550002893 -0 0.89442719099988033
    outer loop
      vertex 77.480000000000004 28 0.16
      vertex 77.519999999999996 40 0.14000000000000001
      vertex 77.480000000000004 40 0.16
    endloop
  endfacet
  facet normal 0.44721359550002893 0 0.89442719099988033
    outer loop
      vertex 77.519999999999996 52 0.14000000000000001
      vertex 77.480000000000004 48 0.16
      vertex 77.480000000000004 40 0.16
    endloop
  endfacet
  facet normal 0.44721359550002893 0 0.89442719099988033
    outer loop
      vertex 77.519999999999996 52 0.14000000000000001
      vertex 77.480000000000004 40 0.16
      vertex 77.519999999999996 40 0.14000000000000001
    endloop
  endfacet
  facet normal 0.44721359550002893 0 0.89442719099988033
    outer loop
      vertex 77.480000000000004 48 0.16
      vertex 77.519999999999996 52 0.14000000000000001
      vertex 77.519999999999996 60 0.14000000000000001
    endloop
  endfacet
  facet normal 0.44721359550002893 -0 0.89442719099988033
    outer loop
      vertex 77.480000000000004 48 0.16
      vertex 77.519999999999996 60 0.14000000000000001
      vertex 77.480000000000004 60 0.16
    endloop
  endfacet
endsolid terrain_band_8
