solid terrain_band_10
  facet normal -0.0097009684960298603 -0.24252421240074629 0.97009684960298515
    outer loop
      vertex 153.40000000000001 -10.08 0.15999999999999998
      vertex 155.40000000000001 -10.16 0.15999999999999998
      vertex 155.40000000000001 -10 0.20000000000000001
    endloop
  endfacet
  facet normal -0.0097009684960298603 -0.24252421240074629 0.97009684960298515
    outer loop
      vertex 153.40000000000001 -10.08 0.15999999999999998
      vertex 155.40000000000001 -10 0.20000000000000001
      vertex 151.40000000000001 -10 0.15999999999999998
    endloop
  endfacet
  facet normal -0.0099995000374968855 0 0.99995000374968768
    outer loop
      vertex 151.40000000000001 -8.0000000000000053 0.15999999999999998
      vertex 151.40000000000001 -10 0.15999999999999998
      vertex 155.40000000000001 -10 0.20000000000000001
    endloop
  endfacet
  facet normal -0.0099995000374968838 0 0.99995000374968757
    outer loop
      vertex 151.40000000000001 -8.0000000000000053 0.15999999999999998
      vertex 155.40000000000001 -10 0.20000000000000001
      vertex 155.40000000000001 0 0.20000000000000001
    endloop
  endfacet
  facet normal -0.0099995000374968855 0 0.99995000374968768
    outer loop
      vertex 151.40000000000001 -8.0000000000000036 0.15999999999999998
      vertex 155.40000000000001 0 0.20000000000000001
      vertex 151.40000000000001 0 0.15999999999999998
    endloop
  endfacet
  facet normal -0.0089439141605875891 0.44719570802937902 0.89439141605875805
    outer loop
      vertex 151.40000000000001 0 0.15999999999999998
      vertex 155.40000000000001 0 0.20000000000000001
      vertex 155.40000000000001 0.080000000000000071 0.15999999999999998
    endloop
  endfacet
  facet normal 0 -0.24253562503633297 0.97014250014533188
    outer loop
      vertex 155.44 -10.16 0.15999999999999998
      vertex 155.59999999999999 -10.16 0.15999999999999998
      vertex 155.59999999999999 -10 0.20000000000000001
    endloop
  endfacet
  facet normal 0 -0.24253562503633297 0.97014250014533188
    outer loop
      vertex 155.40000000000001 -10.16 0.15999999999999998
      vertex 155.44 -10.16 0.15999999999999998
      vertex 155.59999999999999 -10 0.20000000000000001
    endloop
  endfacet
  facet normal 0 -0.24253562503633294 0.97014250014533177
    outer loop
      vertex 155.40000000000001 -10.16 0.15999999999999998
      vertex 155.59999999999999 -10 0.20000000000000001
      vertex 155.40000000000001 -10 0.20000000000000001
    endloop
  endfacet
  facet normal 0 0 1
    outer loop
      vertex 155.40000000000001 -10 0.20000000000000001
      vertex 155.59999999999999 -10 0.20000000000000001
      vertex 155.59999999999999 0 0.20000000000000001
    endloop
  endfacet
  facet normal 0 0 1
    outer loop
      vertex 155.40000000000001 -10 0.20000000000000001
      vertex 155.59999999999999 0 0.20000000000000001
      vertex 155.40000000000001 0 0.20000000000000001
    endloop
  endfacet
  facet normal 0 0.44721359549995798 0.89442719099991597
    outer loop
      vertex 155.47999999999999 0.080000000000000071 0.15999999999999998
      vertex 155.40000000000001 0 0.20000000000000001
      vertex 155.59999999999999 0 0.20000000000000001
    endloop
  endfacet
  facet normal -0 0.44721359549995793 0.89442719099991586
    outer loop
      vertex 155.47999999999999 0.080000000000000071 0.15999999999999998
      vertex 155.59999999999999 0 0.20000000000000001
      vertex 155.59999999999999 0.080000000000000071 0.15999999999999998
    endloop
  endfacet
  facet normal -0 0.44721359549995793 0.89442719099991586
    outer loop
      vertex 155.40000000000001 0.080000000000000071 0.15999999999999998
      vertex 155.40000000000001 0 0.20000000000000001
      vertex 155.47999999999999 0.080000000000000071 0.15999999999999998
    endloop
  endfacet
  facet normal 0.69631062382286302 -0.17407765595568095 0.6963106238227238
    outer loop
      vertex 155.59999999999999 -10.16 0.15999999999999998
      vertex 155.63999999999999 -10 0.15999999999999998
      vertex 155.59999999999999 -10 0.20000000000000001
    endloop
  endfacet
  facet normal 0.70710678118661818 0 0.70710678118647685
    outer loop
      vertex 155.63999999999999 -7.9999999999999982 0.15999999999999998
      vertex 155.59999999999999 -10 0.20000000000000001
      vertex 155.63999999999999 -10 0.15999999999999998
    endloop
  endfacet
  facet normal 0.70710678118661818 0 0.70710678118647685
    outer loop
      vertex 155.59999999999999 -10 0.20000000000000001
      vertex 155.63999999999999 -7.9999999999999982 0.15999999999999998
      vertex 155.63999999999999 0 0.15999999999999998
    endloop
  endfacet
  facet normal 0.70710678118661829 -0 0.70710678118647696
    outer loop
      vertex 155.59999999999999 -10 0.20000000000000001
      vertex 155.63999999999999 0 0.15999999999999998
      vertex 155.59999999999999 0 0.20000000000000001
    endloop
  endfacet
  facet normal 0.70710678118661818 0 0.70710678118647685
    outer loop
      vertex 155.63999999999999 0.040000000000000036 0.15999999999999998
      vertex 155.59999999999999 0 0.20000000000000001
      vertex 155.63999999999999 0 0.15999999999999998
    endloop
  endfacet
  facet normal 0.40824829046393102 0.40824829046384942 0.81649658092769883
    outer loop
      vertex 155.59999999999999 0.080000000000000071 0.15999999999999998
      vertex 155.59999999999999 0 0.20000000000000001
      vertex 155.63999999999999 0.040000000000000036 0.15999999999999998
    endloop
  endfacet
  facet normal 0 -0.70710678118654757 0.70710678118654757
    outer loop
      vertex 192.56 0.15999999999999998 0.15999999999999998
      vertex 192.59999999999999 0.15999999999999998 0.15999999999999998
      vertex 192.59999999999999 0.20000000000000001 0.20000000000000001
    endloop
  endfacet
  facet normal -0.19611613513818418 -0.58834840541457434 0.7844645405527193
    outer loop
      vertex 192.56 0.15999999999999998 0.15999999999999998
      vertex 192.59999999999999 0.20000000000000001 0.20000000000000001
      vertex 192.44 0.20000000000000001 0.15999999999999998
    endloop
  endfacet
  facet normal -0.24253562503633802 0 0.97014250014533066
    outer loop
      vertex 192.44 2.1599999999999948 0.15999999999999998
      vertex 192.44 0.20000000000000001 0.15999999999999998
      vertex 192.59999999999999 0.20000000000000001 0.20000000000000001
    endloop
  endfacet
  facet normal -0.24253562503633805 0 0.97014250014533054
    outer loop
      vertex 192.44 2.1599999999999948 0.15999999999999998
      vertex 192.59999999999999 0.20000000000000001 0.20000000000000001
      vertex 192.59999999999999 10 0.20000000000000001
    endloop
  endfacet
  facet normal -0.24253562503633805 0 0.97014250014533054
    outer loop
      vertex 192.44 2.1599999999999961 0.15999999999999998
      vertex 192.59999999999999 10 0.20000000000000001
      vertex 192.44 10 0.15999999999999998
    endloop
  endfacet
  facet normal -0.23570226039552081 0.23570226039551556 0.94280904158206225
    outer loop
      vertex 192.44 10 0.15999999999999998
      vertex 192.59999999999999 10 0.20000000000000001
      vertex 192.59999999999999 10.16 0.15999999999999998
    endloop
  endfacet
  facet normal -0.23570226039556527 -0.23570226039551292 0.9428090415820517
    outer loop
      vertex 192.52000000000001 20.120000000000001 0.15999999999999998
      vertex 192.59999999999999 20.039999999999999 0.15999999999999998
      vertex 192.59999999999999 20.199999999999999 0.20000000000000001
    endloop
  endfacet
  facet normal -0.23570226039551817 -0.23570226039556005 0.9428090415820517
    outer loop
      vertex 192.52000000000001 20.120000000000001 0.15999999999999998
      vertex 192.59999999999999 20.199999999999999 0.20000000000000001
      vertex 192.44 20.199999999999999 0.15999999999999998
    endloop
  endfacet
  facet normal -0.24253562503633799 0 0.97014250014533054
    outer loop
      vertex 192.44 24.159999999999989 0.15999999999999998
      vertex 192.44 20.199999999999999 0.15999999999999998
      vertex 192.59999999999999 20.199999999999999 0.20000000000000001
    endloop
  endfacet
  facet normal -0.24253562503633802 0 0.97014250014533054
    outer loop
      vertex 192.44 24.159999999999989 0.15999999999999998
      vertex 192.59999999999999 20.199999999999999 0.20000000000000001
      vertex 192.59999999999999 40 0.20000000000000001
    endloop
  endfacet
  facet normal -0.24253562503633802 0 0.97014250014533066
    outer loop
      vertex 192.44 24.159999999999989 0.15999999999999998
      vertex 192.59999999999999 40 0.20000000000000001
      vertex 192.44 40 0.15999999999999998
    endloop
  endfacet
  facet normal -0.24253562503633805 0 0.97014250014533066
    outer loop
      vertex 192.44 40.039999999999999 0.15999999999999998
      vertex 192.44 40 0.15999999999999998
      vertex 192.59999999999999 40 0.20000000000000001
    endloop
  endfacet
  facet normal -0.24253562503633805 0 0.97014250014533054
    outer loop
      vertex 192.44 40.039999999999999 0.15999999999999998
      vertex 192.59999999999999 40 0.20000000000000001
      vertex 192.59999999999999 40.200000000000003 0.20000000000000001
    endloop
  endfacet
  facet normal -0.24253562503633805 0 0.97014250014533066
    outer loop
      vertex 192.44 40.039999999999999 0.15999999999999998
      vertex 192.59999999999999 40.200000000000003 0.20000000000000001
      vertex 192.44 40.200000000000003 0.15999999999999998
    endloop
  endfacet
  facet normal -0.24253489721584762 0.0024498474466246706 0.97013958886336893
    outer loop
      vertex 192.44 40.200000000000003 0.15999999999999998
      vertex 192.59999999999999 40.200000000000003 0.20000000000000001
      vertex 192.59999999999999 56.040000000000006 0.15999999999999998
    endloop
  endfacet
  facet normal -0.24253271379364896 -0.0048996507837108455 0.97013085517474684
    outer loop
      vertex 192.54666666666665 94.719999999999999 0.15999999999999998
      vertex 192.59999999999999 92.079999999999998 0.15999999999999998
      vertex 192.59999999999999 100 0.20000000000000001
    endloop
  endfacet
  facet normal -0.24253271379368954 -0.0048996507837103589 0.97013085517473674
    outer loop
      vertex 192.54666666666665 94.719999999999999 0.15999999999999998
      vertex 192.59999999999999 100 0.20000000000000001
      vertex 192.44 100 0.15999999999999998
    endloop
  endfacet
  facet normal 0 -0.70710678118654757 0.70710678118654757
    outer loop
      vertex 192.76000000000002 0.15999999999999998 0.15999999999999998
      vertex 192.80000000000001 0.15999999999999998 0.15999999999999998
      vertex 192.80000000000001 0.20000000000000001 0.20000000000000001
    endloop
  endfacet
  facet normal 0 -0.70710678118654757 0.70710678118654757
    outer loop
      vertex 192.59999999999999 0.15999999999999998 0.15999999999999998
      vertex 192.76000000000002 0.15999999999999998 0.15999999999999998
      vertex 192.80000000000001 0.20000000000000001 0.20000000000000001
    endloop
  endfacet
  facet normal 0 -0.70710678118654757 0.70710678118654757
    outer loop
      vertex 192.59999999999999 0.15999999999999998 0.15999999999999998
      vertex 192.80000000000001 0.20000000000000001 0.20000000000000001
      vertex 192.59999999999999 0.20000000000000001 0.20000000000000001
    endloop
  endfacet
  facet normal 0 0 1
    outer loop
      vertex 192.59999999999999 0.20000000000000001 0.20000000000000001
      vertex 192.80000000000001 0.20000000000000001 0.20000000000000001
      vertex 192.80000000000001 10 0.20000000000000001
    endloop
  endfacet
  facet normal 0 0 1
    outer loop
      vertex 192.59999999999999 0.20000000000000001 0.20000000000000001
      vertex 192.80000000000001 10 0.20000000000000001
      vertex 192.59999999999999 10 0.20000000000000001
    endloop
  endfacet
  facet normal 0 0.24253562503633294 0.97014250014533177
    outer loop
      vertex 192.76000000000002 10.16 0.15999999999999998
      vertex 192.59999999999999 10 0.20000000000000001
      vertex 192.80000000000001 10 0.20000000000000001
    endloop
  endfacet
  facet normal -0 0.24253562503633297 0.97014250014533188
    outer loop
      vertex 192.76000000000002 10.16 0.15999999999999998
      vertex 192.80000000000001 10 0.20000000000000001
      vertex 192.80000000000001 10.16 0.15999999999999998
    endloop
  endfacet
  facet normal -0 0.242535625036333 0.97014250014533199
    outer loop
      vertex 192.59999999999999 10.16 0.15999999999999998
      vertex 192.59999999999999 10 0.20000000000000001
      vertex 192.76000000000002 10.16 0.15999999999999998
    endloop
  endfacet
  facet normal 0 -0.242535625036333 0.97014250014533199
    outer loop
      vertex 192.63999999999999 20.039999999999999 0.15999999999999998
      vertex 192.80000000000001 20.039999999999999 0.15999999999999998
      vertex 192.80000000000001 20.199999999999999 0.20000000000000001
    endloop
  endfacet
  facet normal 0 -0.24253562503633297 0.97014250014533188
    outer loop
      vertex 192.59999999999999 20.039999999999999 0.15999999999999998
      vertex 192.63999999999999 20.039999999999999 0.15999999999999998
      vertex 192.80000000000001 20.199999999999999 0.20000000000000001
    endloop
  endfacet
  facet normal 0 -0.24253562503633294 0.97014250014533177
    outer loop
      vertex 192.59999999999999 20.039999999999999 0.15999999999999998
      vertex 192.80000000000001 20.199999999999999 0.20000000000000001
      vertex 192.59999999999999 20.199999999999999 0.20000000000000001
    endloop
  endfacet
  facet normal 0 0 1
    outer loop
      vertex 192.59999999999999 20.199999999999999 0.20000000000000001
      vertex 192.80000000000001 20.199999999999999 0.20000000000000001
      vertex 192.80000000000001 40 0.20000000000000001
    endloop
  endfacet
  facet normal 0 0 1
    outer loop
      vertex 192.59999999999999 20.199999999999999 0.20000000000000001
      vertex 192.80000000000001 40 0.20000000000000001
      vertex 192.59999999999999 40 0.20000000000000001
    endloop
  endfacet
  facet normal 0 0 1
    outer loop
      vertex 192.59999999999999 40 0.20000000000000001
      vertex 192.80000000000001 40 0.20000000000000001
      vertex 192.80000000000001 40.200000000000003 0.20000000000000001
    endloop
  endfacet
  facet normal 0 0 1
    outer loop
      vertex 192.59999999999999 40 0.20000000000000001
      vertex 192.80000000000001 40.200000000000003 0.20000000000000001
      vertex 192.59999999999999 40.200000000000003 0.20000000000000001
    endloop
  endfacet
  facet normal 0 0.0025252444736492212 0.99999681156509113
    outer loop
      vertex 192.76000000000002 56.040000000000006 0.15999999999999998
      vertex 192.59999999999999 40.200000000000003 0.20000000000000001
      vertex 192.80000000000001 40.200000000000003 0.20000000000000001
    endloop
  endfacet
  facet normal -0 0.0025252444736492217 0.99999681156509101
    outer loop
      vertex 192.76000000000002 56.040000000000006 0.15999999999999998
      vertex 192.80000000000001 40.200000000000003 0.20000000000000001
      vertex 192.80000000000001 56.040000000000006 0.15999999999999998
    endloop
  endfacet
  facet normal -0 0.0025252444736492217 0.99999681156509101
    outer loop
      vertex 192.59999999999999 56.040000000000006 0.15999999999999998
      vertex 192.59999999999999 40.200000000000003 0.20000000000000001
      vertex 192.76000000000002 56.040000000000006 0.15999999999999998
    endloop
  endfacet
  facet normal 0 -0.0050504406386027885 0.99998724644335146
    outer loop
      vertex 192.72 92.079999999999998 0.15999999999999998
      vertex 192.80000000000001 92.079999999999998 0.15999999999999998
      vertex 192.80000000000001 100 0.20000000000000001
    endloop
  endfacet
  facet normal 0 -0.0050504406386027885 0.99998724644335135
    outer loop
      vertex 192.59999999999999 92.079999999999998 0.15999999999999998
      vertex 192.72 92.079999999999998 0.15999999999999998
      vertex 192.80000000000001 100 0.20000000000000001
    endloop
  endfacet
  facet normal 0 -0.0050504406386027876 0.99998724644335124
    outer loop
      vertex 192.59999999999999 92.079999999999998 0.15999999999999998
      vertex 192.80000000000001 100 0.20000000000000001
      vertex 192.59999999999999 100 0.20000000000000001
    endloop
  endfacet
  facet normal 0 -0.70710678118654757 0.70710678118654757
    outer loop
      vertex 192.96000000000001 0.15999999999999998 0.15999999999999998
      vertex 193 0.15999999999999998 0.15999999999999998
      vertex 193 0.20000000000000001 0.20000000000000001
    endloop
  endfacet
  facet normal 0 -0.70710678118654757 0.70710678118654757
    outer loop
      vertex 192.80000000000001 0.15999999999999998 0.15999999999999998
      vertex 192.96000000000001 0.15999999999999998 0.15999999999999998
      vertex 193 0.20000000000000001 0.20000000000000001
    endloop
  endfacet
  facet normal 0 -0.70710678118654757 0.70710678118654757
    outer loop
      vertex 192.80000000000001 0.15999999999999998 0.15999999999999998
      vertex 193 0.20000000000000001 0.20000000000000001
      vertex 192.80000000000001 0.20000000000000001 0.20000000000000001
    endloop
  endfacet
  facet normal 0 0 1
    outer loop
      vertex 192.80000000000001 0.20000000000000001 0.20000000000000001
      vertex 193 0.20000000000000001 0.20000000000000001
      vertex 193 10 0.20000000000000001
    endloop
  endfacet
  facet normal 0 0 1
    outer loop
      vertex 192.80000000000001 0.20000000000000001 0.20000000000000001
      vertex 193 10 0.20000000000000001
      vertex 192.80000000000001 10 0.20000000000000001
    endloop
  endfacet
  facet normal 0 0.24253562503633294 0.97014250014533177
    outer loop
      vertex 192.96000000000001 10.16 0.15999999999999998
      vertex 192.80000000000001 10 0.20000000000000001
      vertex 193 10 0.20000000000000001
    endloop
  endfacet
  facet normal -0 0.24253562503633297 0.97014250014533188
    outer loop
      vertex 192.96000000000001 10.16 0.15999999999999998
      vertex 193 10 0.20000000000000001
      vertex 193 10.16 0.15999999999999998
    endloop
  endfacet
  facet normal -0 0.24253562503633297 0.97014250014533188
    outer loop
      vertex 192.80000000000001 10.16 0.15999999999999998
      vertex 192.80000000000001 10 0.20000000000000001
      vertex 192.96000000000001 10.16 0.15999999999999998
    endloop
  endfacet
  facet normal 0 -0.24253562503633297 0.97014250014533188
    outer loop
      vertex 192.84 20.039999999999999 0.15999999999999998
      vertex 193 20.039999999999999 0.15999999999999998
      vertex 193 20.199999999999999 0.20000000000000001
    endloop
  endfacet
  facet normal 0 -0.24253562503633297 0.97014250014533188
    outer loop
      vertex 192.80000000000001 20.039999999999999 0.15999999999999998
      vertex 192.84 20.039999999999999 0.15999999999999998
      vertex 193 20.199999999999999 0.20000000000000001
    endloop
  endfacet
  facet normal 0 -0.24253562503633294 0.97014250014533177
    outer loop
      vertex 192.80000000000001 20.039999999999999 0.15999999999999998
      vertex 193 20.199999999999999 0.20000000000000001
      vertex 192.80000000000001 20.199999999999999 0.20000000000000001
    endloop
  endfacet
  facet normal 0 0 1
    outer loop
      vertex 192.80000000000001 20.199999999999999 0.20000000000000001
      vertex 193 20.199999999999999 0.20000000000000001
      vertex 193 40 0.20000000000000001
    endloop
  endfacet
  facet normal 0 0 1
    outer loop
      vertex 192.80000000000001 20.199999999999999 0.20000000000000001
      vertex 193 40 0.20000000000000001
      vertex 192.80000000000001 40 0.20000000000000001
    endloop
  endfacet
  facet normal 0 0 1
    outer loop
      vertex 192.80000000000001 40 0.20000000000000001
      vertex 193 40 0.20000000000000001
      vertex 193 40.200000000000003 0.20000000000000001
    endloop
  endfacet
  facet normal 0 0 1
    outer loop
      vertex 192.80000000000001 40 0.20000000000000001
      vertex 193 40.200000000000003 0.20000000000000001
      vertex 192.80000000000001 40.200000000000003 0.20000000000000001
    endloop
  endfacet
  facet normal 0 0.0025252444736492217 0.99999681156509113
    outer loop
      vertex 192.96000000000001 56.040000000000006 0.15999999999999998
      vertex 192.80000000000001 40.200000000000003 0.20000000000000001
      vertex 193 40.200000000000003 0.20000000000000001
    endloop
  endfacet
  facet normal -0 0.0025252444736492217 0.99999681156509101
    outer loop
      vertex 192.96000000000001 56.040000000000006 0.15999999999999998
      vertex 193 40.200000000000003 0.20000000000000001
      vertex 193 56.040000000000006 0.15999999999999998
    endloop
  endfacet
  facet normal -0 0.0025252444736492217 0.99999681156509101
    outer loop
      vertex 192.80000000000001 56.040000000000006 0.15999999999999998
      vertex 192.80000000000001 40.200000000000003 0.20000000000000001
      vertex 192.96000000000001 56.040000000000006 0.15999999999999998
    endloop
  endfacet
  facet normal 0 -0.0050504406386027885 0.99998724644335146
    outer loop
      vertex 192.92000000000002 92.079999999999998 0.15999999999999998
      vertex 193 92.079999999999998 0.15999999999999998
      vertex 193 100 0.20000000000000001
    endloop
  endfacet
  facet normal 0 -0.0050504406386027885 0.99998724644335135
    outer loop
      vertex 192.80000000000001 92.079999999999998 0.15999999999999998
      vertex 192.92000000000002 92.079999999999998 0.15999999999999998
      vertex 193 100 0.20000000000000001
    endloop
  endfacet
  facet normal 0 -0.0050504406386027885 0.99998724644335146
    outer loop
      vertex 192.80000000000001 92.079999999999998 0.15999999999999998
      vertex 193 100 0.20000000000000001
      vertex 192.80000000000001 100 0.20000000000000001
    endloop
  endfacet
  facet normal 0 -0.70710678118654757 0.70710678118654757
    outer loop
      vertex 193.16 0.15999999999999998 0.15999999999999998
      vertex 193.19999999999999 0.15999999999999998 0.15999999999999998
      vertex 193.19999999999999 0.20000000000000001 0.20000000000000001
    endloop
  endfacet
  facet normal 0 -0.70710678118654757 0.70710678118654757
    outer loop
      vertex 193 0.15999999999999998 0.15999999999999998
      vertex 193.16 0.15999999999999998 0.15999999999999998
      vertex 193.19999999999999 0.20000000000000001 0.20000000000000001
    endloop
  endfacet
  facet normal 0 -0.70710678118654757 0.70710678118654757
    outer loop
      vertex 193 0.15999999999999998 0.15999999999999998
      vertex 193.19999999999999 0.20000000000000001 0.20000000000000001
      vertex 193 0.20000000000000001 0.20000000000000001
    endloop
  endfacet
  facet normal 0 0 1
    outer loop
      vertex 193 0.20000000000000001 0.20000000000000001
      vertex 193.19999999999999 0.20000000000000001 0.20000000000000001
      vertex 193.19999999999999 10 0.20000000000000001
    endloop
  endfacet
  facet normal 0 0 1
    outer loop
      vertex 193 0.20000000000000001 0.20000000000000001
      vertex 193.19999999999999 10 0.20000000000000001
      vertex 193 10 0.20000000000000001
    endloop
  endfacet
  facet normal 0 0.24253562503633294 0.97014250014533177
    outer loop
      vertex 193.16 10.16 0.15999999999999998
      vertex 193 10 0.20000000000000001
      vertex 193.19999999999999 10 0.20000000000000001
    endloop
  endfacet
  facet normal -0 0.24253562503633297 0.97014250014533188
    outer loop
      vertex 193.16 10.16 0.15999999999999998
      vertex 193.19999999999999 10 0.20000000000000001
      vertex 193.19999999999999 10.16 0.15999999999999998
    endloop
  endfacet
  facet normal -0 0.24253562503633297 0.97014250014533188
    outer loop
      vertex 193 10.16 0.15999999999999998
      vertex 193 10 0.20000000000000001
      vertex 193.16 10.16 0.15999999999999998
    endloop
  endfacet
  facet normal 0 -0.24253562503633297 0.97014250014533188
    outer loop
      vertex 193.03999999999999 20.039999999999999 0.15999999999999998
      vertex 193.19999999999999 20.039999999999999 0.15999999999999998
      vertex 193.19999999999999 20.199999999999999 0.20000000000000001
    endloop
  endfacet
  facet normal 0 -0.24253562503633297 0.97014250014533188
    outer loop
      vertex 193 20.039999999999999 0.15999999999999998
      vertex 193.03999999999999 20.039999999999999 0.15999999999999998
      vertex 193.19999999999999 20.199999999999999 0.20000000000000001
    endloop
  endfacet
  facet normal 0 -0.24253562503633294 0.97014250014533177
    outer loop
      vertex 193 20.039999999999999 0.15999999999999998
      vertex 193.19999999999999 20.199999999999999 0.20000000000000001
      vertex 193 20.199999999999999 0.20000000000000001
    endloop
  endfacet
  facet normal 0 0 1
    outer loop
      vertex 193 20.199999999999999 0.20000000000000001
      vertex 193.19999999999999 20.199999999999999 0.20000000000000001
      vertex 193.19999999999999 40 0.20000000000000001
    endloop
  endfacet
  facet normal 0 0 1
    outer loop
      vertex 193 20.199999999999999 0.20000000000000001
      vertex 193.19999999999999 40 0.20000000000000001
      vertex 193 40 0.20000000000000001
    endloop
  endfacet
  facet normal 0 0 1
    outer loop
      vertex 193 40 0.20000000000000001
      vertex 193.19999999999999 40 0.20000000000000001
      vertex 193.19999999999999 40.200000000000003 0.20000000000000001
    endloop
  endfacet
  facet normal 0 0 1
    outer loop
      vertex 193 40 0.20000000000000001
      vertex 193.19999999999999 40.200000000000003 0.20000000000000001
      vertex 193 40.200000000000003 0.20000000000000001
    endloop
  endfacet
  facet normal 0 0.0025252444736492217 0.99999681156509113
    outer loop
      vertex 193.16 56.040000000000006 0.15999999999999998
      vertex 193 40.200000000000003 0.20000000000000001
      vertex 193.19999999999999 40.200000000000003 0.20000000000000001
    endloop
  endfacet
  facet normal -0 0.0025252444736492217 0.99999681156509101
    outer loop
      vertex 193.16 56.040000000000006 0.15999999999999998
      vertex 193.19999999999999 40.200000000000003 0.20000000000000001
      vertex 193.19999999999999 56.040000000000006 0.15999999999999998
    endloop
  endfacet
  facet normal -0 0.0025252444736492217 0.99999681156509101
    outer loop
      vertex 193 56.040000000000006 0.15999999999999998
      vertex 193 40.200000000000003 0.20000000000000001
      vertex 193.16 56.040000000000006 0.15999999999999998
    endloop
  endfacet
  facet normal 0 -0.0050504406386027885 0.99998724644335146
    outer loop
      vertex 193.12 92.079999999999998 0.15999999999999998
      vertex 193.19999999999999 92.079999999999998 0.15999999999999998
      vertex 193.19999999999999 100 0.20000000000000001
    endloop
  endfacet
  facet normal 0 -0.0050504406386027885 0.99998724644335135
    outer loop
      vertex 193 92.079999999999998 0.15999999999999998
      vertex 193.12 92.079999999999998 0.15999999999999998
      vertex 193.19999999999999 100 0.20000000000000001
    endloop
  endfacet
  facet normal 0 -0.0050504406386027885 0.99998724644335146
    outer loop
      vertex 193 92.079999999999998 0.15999999999999998
      vertex 193.19999999999999 100 0.20000000000000001
      vertex 193 100 0.20000000000000001
    endloop
  endfacet
  facet normal 0.3333333333332873 -0.66666666666667818 0.66666666666667818
    outer loop
      vertex 193.19999999999999 0.15999999999999998 0.15999999999999998
      vertex 193.28 0.20000000000000001 0.15999999999999998
      vertex 193.19999999999999 0.20000000000000001 0.20000000000000001
    endloop
  endfacet
  facet normal 0.44721359549990231 0 0.89442719099994361
    outer loop
      vertex 193.28 4.1200000000000028 0.15999999999999998
      vertex 193.19999999999999 0.20000000000000001 0.20000000000000001
      vertex 193.28 0.20000000000000001 0.15999999999999998
    endloop
  endfacet
  facet normal 0.44721359549990236 0 0.89442719099994361
    outer loop
      vertex 193.19999999999999 0.20000000000000001 0.20000000000000001
      vertex 193.28 4.1200000000000037 0.15999999999999998
      vertex 193.28 10 0.15999999999999998
    endloop
  endfacet
  facet normal 0.44721359549990236 -0 0.89442719099994372
    outer loop
      vertex 193.19999999999999 0.20000000000000001 0.20000000000000001
      vertex 193.28 10 0.15999999999999998
      vertex 193.19999999999999 10 0.20000000000000001
    endloop
  endfacet
  facet normal 0.40824829046381766 -0.40824829046383582 0.81649658092776234
    outer loop
      vertex 193.19999999999999 10 0.20000000000000001
      vertex 193.28 10 0.15999999999999998
      vertex 193.40000000000001 10.119999999999999 0.15999999999999998
    endloop
  endfacet
  facet normal 0.40824829046383287 -0.40824829046386907 0.81649658092773814
    outer loop
      vertex 193.19999999999999 10 0.20000000000000001
      vertex 193.40000000000001 10.119999999999999 0.15999999999999998
      vertex 193.40000000000001 10.199999999999999 0.20000000000000001
    endloop
  endfacet
  facet normal -0.23570226039549613 0.23570226039551703 0.94280904158206813
    outer loop
      vertex 193.19999999999999 10.16 0.15999999999999998
      vertex 193.19999999999999 10 0.20000000000000001
      vertex 193.40000000000001 10.199999999999999 0.20000000000000001
    endloop
  endfacet
  facet normal -0.23570226039548561 0.23570226039544373 0.942809041582089
    outer loop
      vertex 193.19999999999999 10.16 0.15999999999999998
      vertex 193.40000000000001 10.199999999999999 0.20000000000000001
      vertex 193.23999999999998 10.199999999999999 0.15999999999999998
    endloop
  endfacet
  facet normal -0.2425356250362975 0 0.97014250014534076
    outer loop
      vertex 193.23999999999998 12.159999999999995 0.15999999999999998
      vertex 193.23999999999998 10.199999999999999 0.15999999999999998
      vertex 193.40000000000001 10.199999999999999 0.20000000000000001
    endloop
  endfacet
  facet normal -0.24253562503629747 0 0.97014250014534065
    outer loop
      vertex 193.23999999999998 12.159999999999995 0.15999999999999998
      vertex 193.40000000000001 10.199999999999999 0.20000000000000001
      vertex 193.40000000000001 20 0.20000000000000001
    endloop
  endfacet
  facet normal -0.24253562503629747 0 0.97014250014534065
    outer loop
      vertex 193.23999999999998 12.159999999999995 0.15999999999999998
      vertex 193.40000000000001 20 0.20000000000000001
      vertex 193.23999999999998 20 0.15999999999999998
    endloop
  endfacet
  facet normal -0.21821789023595914 0.43643578047199583 0.87287156094397222
    outer loop
      vertex 193.23999999999998 20 0.15999999999999998
      vertex 193.40000000000001 20 0.20000000000000001
      vertex 193.40000000000001 20.079999999999998 0.15999999999999998
    endloop
  endfacet
  facet normal 0.43643578047192982 -0.21821789023599883 0.87287156094399532
    outer loop
      vertex 193.19999999999999 20.039999999999999 0.15999999999999998
      vertex 193.28 20.199999999999999 0.15999999999999998
      vertex 193.19999999999999 20.199999999999999 0.20000000000000001
    endloop
  endfacet
  facet normal 0.44721359549990236 0 0.89442719099994372
    outer loop
      vertex 193.28 28.120000000000005 0.15999999999999998
      vertex 193.19999999999999 20.199999999999999 0.20000000000000001
      vertex 193.28 20.199999999999999 0.15999999999999998
    endloop
  endfacet
  facet normal 0.44721359549990231 0 0.89442719099994372
    outer loop
      vertex 193.19999999999999 20.199999999999999 0.20000000000000001
      vertex 193.28 28.120000000000005 0.15999999999999998
      vertex 193.28 40 0.15999999999999998
    endloop
  endfacet
  facet normal 0.44721359549990231 -0 0.89442719099994372
    outer loop
      vertex 193.19999999999999 20.199999999999999 0.20000000000000001
      vertex 193.28 40 0.15999999999999998
      vertex 193.19999999999999 40 0.20000000000000001
    endloop
  endfacet
  facet normal 0.44721359549990236 0 0.89442719099994372
    outer loop
      vertex 193.28 40.079999999999998 0.15999999999999998
      vertex 193.19999999999999 40 0.20000000000000001
      vertex 193.28 40 0.15999999999999998
    endloop
  endfacet
  facet normal 0.44721359549990236 0 0.89442719099994361
    outer loop
      vertex 193.19999999999999 40 0.20000000000000001
      vertex 193.28 40.079999999999998 0.15999999999999998
      vertex 193.28 40.200000000000003 0.15999999999999998
    endloop
  endfacet
  facet normal 0.44721359549990242 -0 0.89442719099994372
    outer loop
      vertex 193.19999999999999 40 0.20000000000000001
      vertex 193.28 40.200000000000003 0.15999999999999998
      vertex 193.19999999999999 40.200000000000003 0.20000000000000001
    endloop
  endfacet
  facet normal 0.44720903263130518 -0.0045172629558719425 0.89441806526274936
    outer loop
      vertex 193.19999999999999 40.200000000000003 0.20000000000000001
      vertex 193.28 40.200000000000003 0.15999999999999998
      vertex 193.40000000000001 52.079999999999998 0.15999999999999998
    endloop
  endfacet
  facet normal 0.44720903263133044 -0.0045172629558724101 0.89441806526273671
    outer loop
      vertex 193.19999999999999 40.200000000000003 0.20000000000000001
      vertex 193.40000000000001 52.079999999999998 0.15999999999999998
      vertex 193.40000000000001 60 0.20000000000000001
    endloop
  endfacet
  facet normal -0.24253489721582322 0.0024498474466246862 0.97013958886337504
    outer loop
      vertex 193.19999999999999 56.040000000000006 0.15999999999999998
      vertex 193.19999999999999 40.200000000000003 0.20000000000000001
      vertex 193.40000000000001 60 0.20000000000000001
    endloop
  endfacet
  facet normal -0.24253489721580707 0.0024498474466238302 0.97013958886337903
    outer loop
      vertex 193.19999999999999 56.040000000000006 0.15999999999999998
      vertex 193.40000000000001 60 0.20000000000000001
      vertex 193.23999999999998 60 0.15999999999999998
    endloop
  endfacet
  facet normal -0.24253562503629753 0 0.97014250014534087
    outer loop
      vertex 193.23999999999998 60.039999999999999 0.15999999999999998
      vertex 193.23999999999998 60 0.15999999999999998
      vertex 193.40000000000001 60 0.20000000000000001
    endloop
  endfacet
  facet normal -0.24253562503629755 0 0.97014250014534076
    outer loop
      vertex 193.23999999999998 60.039999999999999 0.15999999999999998
      vertex 193.40000000000001 60 0.20000000000000001
      vertex 193.40000000000001 60.200000000000003 0.20000000000000001
    endloop
  endfacet
  facet normal -0.24253562503629753 0 0.97014250014534076
    outer loop
      vertex 193.23999999999998 60.039999999999999 0.15999999999999998
      vertex 193.40000000000001 60.200000000000003 0.20000000000000001
      vertex 193.23999999999998 60.200000000000003 0.15999999999999998
    endloop
  endfacet
  facet normal -0.24253489721580704 0.0024498474466246962 0.97013958886337892
    outer loop
      vertex 193.23999999999998 60.200000000000003 0.15999999999999998
      vertex 193.40000000000001 60.200000000000003 0.20000000000000001
      vertex 193.40000000000001 76.040000000000006 0.15999999999999998
    endloop
  endfacet
  facet normal 0.44720903263130513 -0.0045172629558724742 0.89441806526274925
    outer loop
      vertex 193.19999999999999 92.079999999999998 0.15999999999999998
      vertex 193.28 100 0.15999999999999998
      vertex 193.19999999999999 100 0.20000000000000001
    endloop
  endfacet
  facet normal 0 -0.44721359549995793 0.89442719099991586
    outer loop
      vertex 193.52000000000001 10.119999999999999 0.15999999999999998
      vertex 193.59999999999999 10.119999999999999 0.15999999999999998
      vertex 193.59999999999999 10.199999999999999 0.20000000000000001
    endloop
  endfacet
  facet normal 0 -0.44721359549995793 0.89442719099991586
    outer loop
      vertex 193.40000000000001 10.119999999999999 0.15999999999999998
      vertex 193.52000000000001 10.119999999999999 0.15999999999999998
      vertex 193.59999999999999 10.199999999999999 0.20000000000000001
    endloop
  endfacet
  facet normal 0 -0.44721359549995798 0.89442719099991597
    outer loop
      vertex 193.40000000000001 10.119999999999999 0.15999999999999998
      vertex 193.59999999999999 10.199999999999999 0.20000000000000001
      vertex 193.40000000000001 10.199999999999999 0.20000000000000001
    endloop
  endfacet
  facet normal 0 0 1
    outer loop
      vertex 193.40000000000001 10.199999999999999 0.20000000000000001
      vertex 193.59999999999999 10.199999999999999 0.20000000000000001
      vertex 193.59999999999999 20 0.20000000000000001
    endloop
  endfacet
  facet normal 0 0 1
    outer loop
      vertex 193.40000000000001 10.199999999999999 0.20000000000000001
      vertex 193.59999999999999 20 0.20000000000000001
      vertex 193.40000000000001 20 0.20000000000000001
    endloop
  endfacet
  facet normal 0 0.44721359549996592 0.89442719099991186
    outer loop
      vertex 193.47999999999999 20.079999999999998 0.15999999999999998
      vertex 193.40000000000001 20 0.20000000000000001
      vertex 193.59999999999999 20 0.20000000000000001
    endloop
  endfacet
  facet normal -0 0.44721359549996592 0.89442719099991197
    outer loop
      vertex 193.47999999999999 20.079999999999998 0.15999999999999998
      vertex 193.59999999999999 20 0.20000000000000001
      vertex 193.59999999999999 20.079999999999998 0.15999999999999998
    endloop
  endfacet
  facet normal -0 0.44721359549996587 0.89442719099991186
    outer loop
      vertex 193.40000000000001 20.079999999999998 0.15999999999999998
      vertex 193.40000000000001 20 0.20000000000000001
      vertex 193.47999999999999 20.079999999999998 0.15999999999999998
    endloop
  endfacet
  facet normal 4.4856923851844087e-16 -0.0050504406386027885 0.99998724644335146
    outer loop
      vertex 193.52000000000001 52.079999999999991 0.15999999999999998
      vertex 193.59999999999999 52.079999999999998 0.15999999999999998
      vertex 193.59999999999999 60 0.20000000000000001
    endloop
  endfacet
  facet normal 2.9904615901222323e-16 -0.0050504406386027911 0.99998724644335135
    outer loop
      vertex 193.40000000000001 52.079999999999991 0.15999999999999998
      vertex 193.52000000000001 52.079999999999998 0.15999999999999998
      vertex 193.59999999999999 60 0.20000000000000001
    endloop
  endfacet
  facet normal 0 -0.0050504406386027833 0.99998724644335124
    outer loop
      vertex 193.40000000000001 52.079999999999991 0.15999999999999998
      vertex 193.59999999999999 60 0.20000000000000001
      vertex 193.40000000000001 60 0.20000000000000001
    endloop
  endfacet
  facet normal 0 0 1
    outer loop
      vertex 193.40000000000001 60 0.20000000000000001
      vertex 193.59999999999999 60 0.20000000000000001
      vertex 193.59999999999999 60.200000000000003 0.20000000000000001
    endloop
  endfacet
  facet normal 0 0 1
    outer loop
      vertex 193.40000000000001 60 0.20000000000000001
      vertex 193.59999999999999 60.200000000000003 0.20000000000000001
      vertex 193.40000000000001 60.200000000000003 0.20000000000000001
    endloop
  endfacet
  facet normal 0 0.0025252444736492217 0.99999681156509113
    outer loop
      vertex 193.56 76.040000000000006 0.15999999999999998
      vertex 193.40000000000001 60.200000000000003 0.20000000000000001
      vertex 193.59999999999999 60.200000000000003 0.20000000000000001
    endloop
  endfacet
  facet normal -0 0.0025252444736492217 0.99999681156509101
    outer loop
      vertex 193.56 76.040000000000006 0.15999999999999998
      vertex 193.59999999999999 60.200000000000003 0.20000000000000001
      vertex 193.59999999999999 76.040000000000006 0.15999999999999998
    endloop
  endfacet
  facet normal -0 0.0025252444736492217 0.99999681156509101
    outer loop
      vertex 193.40000000000001 76.040000000000006 0.15999999999999998
      vertex 193.40000000000001 60.200000000000003 0.20000000000000001
      vertex 193.56 76.040000000000006 0.15999999999999998
    endloop
  endfacet
  facet normal 0.66666666666674068 -0.33333333333330373 0.66666666666660745
    outer loop
      vertex 193.59999999999999 10.119999999999999 0.15999999999999998
      vertex 193.63999999999999 10.199999999999999 0.15999999999999998
      vertex 193.59999999999999 10.199999999999999 0.20000000000000001
    endloop
  endfacet
  facet normal 0.70710678118661818 0 0.70710678118647685
    outer loop
      vertex 193.63999999999999 12.16 0.15999999999999998
      vertex 193.59999999999999 10.199999999999999 0.20000000000000001
      vertex 193.63999999999999 10.199999999999999 0.15999999999999998
    endloop
  endfacet
  facet normal 0.70710678118661818 0 0.70710678118647674
    outer loop
      vertex 193.59999999999999 10.199999999999999 0.20000000000000001
      vertex 193.63999999999999 12.160000000000002 0.15999999999999998
      vertex 193.63999999999999 20 0.15999999999999998
    endloop
  endfacet
  facet normal 0.70710678118661818 -0 0.70710678118647674
    outer loop
      vertex 193.59999999999999 10.199999999999999 0.20000000000000001
      vertex 193.63999999999999 20 0.15999999999999998
      vertex 193.59999999999999 20 0.20000000000000001
    endloop
  endfacet
  facet normal 0.70710678118661818 0 0.70710678118647685
    outer loop
      vertex 193.63999999999999 20.039999999999999 0.15999999999999998
      vertex 193.59999999999999 20 0.20000000000000001
      vertex 193.63999999999999 20 0.15999999999999998
    endloop
  endfacet
  facet normal 0.40824829046392952 0.40824829046385702 0.81649658092769584
    outer loop
      vertex 193.59999999999999 20.079999999999998 0.15999999999999998
      vertex 193.59999999999999 20 0.20000000000000001
      vertex 193.63999999999999 20.039999999999999 0.15999999999999998
    endloop
  endfacet
  facet normal 0.70710227208029275 -0.0035712235963644007 0.70710227208015142
    outer loop
      vertex 193.59999999999999 52.079999999999991 0.15999999999999998
      vertex 193.63999999999999 60 0.15999999999999998
      vertex 193.59999999999999 60 0.20000000000000001
    endloop
  endfacet
  facet normal 0.70710678118661818 0 0.70710678118647685
    outer loop
      vertex 193.63999999999999 60.039999999999999 0.15999999999999998
      vertex 193.59999999999999 60 0.20000000000000001
      vertex 193.63999999999999 60 0.15999999999999998
    endloop
  endfacet
  facet normal 0.70710678118661818 0 0.70710678118647685
    outer loop
      vertex 193.59999999999999 60 0.20000000000000001
      vertex 193.63999999999999 60.039999999999999 0.15999999999999998
      vertex 193.63999999999999 60.200000000000003 0.15999999999999998
    endloop
  endfacet
  facet normal 0.70710678118661818 -0 0.70710678118647674
    outer loop
      vertex 193.59999999999999 60 0.20000000000000001
      vertex 193.63999999999999 60.200000000000003 0.15999999999999998
      vertex 193.59999999999999 60.200000000000003 0.20000000000000001
    endloop
  endfacet
  facet normal 0.70710678118661818 0 0.70710678118647696
    outer loop
      vertex 193.63999999999999 64.160000000000011 0.15999999999999998
      vertex 193.59999999999999 60.200000000000003 0.20000000000000001
      vertex 193.63999999999999 60.200000000000003 0.15999999999999998
    endloop
  endfacet
  facet normal 0.59999877563896353 0.0020201978977738865 0.79999836751845854
    outer loop
      vertex 193.59999999999999 76.040000000000006 0.15999999999999998
      vertex 193.59999999999999 60.200000000000003 0.20000000000000001
      vertex 193.63999999999999 64.160000000000011 0.15999999999999998
    endloop
  endfacet
  facet normal -0.70710678118661818 0 0.70710678118647685
    outer loop
      vertex 199.36000000000001 -84.160000000000011 0.15999999999999998
      vertex 199.36000000000001 -100 0.15999999999999998
      vertex 199.40000000000001 -100 0.20000000000000001
    endloop
  endfacet
  facet normal -0.70710678118661829 0 0.70710678118647696
    outer loop
      vertex 199.36000000000001 -84.160000000000011 0.15999999999999998
      vertex 199.40000000000001 -100 0.20000000000000001
      vertex 199.40000000000001 -80.200000000000003 0.20000000000000001
    endloop
  endfacet
  facet normal -0.70710678118661818 0 0.70710678118647696
    outer loop
      vertex 199.36000000000001 -84.160000000000011 0.15999999999999998
      vertex 199.40000000000001 -80.200000000000003 0.20000000000000001
      vertex 199.36000000000001 -80.200000000000003 0.15999999999999998
    endloop
  endfacet
  facet normal -0.66666666666673913 0.33333333333331033 0.6666666666666059
    outer loop
      vertex 199.36000000000001 -80.200000000000003 0.15999999999999998
      vertex 199.40000000000001 -80.200000000000003 0.20000000000000001
      vertex 199.40000000000001 -80.120000000000005 0.15999999999999998
    endloop
  endfacet
  facet normal 0 0 1
    outer loop
      vertex 199.40000000000001 -100 0.20000000000000001
      vertex 199.59999999999999 -100 0.20000000000000001
      vertex 199.59999999999999 -80.200000000000003 0.20000000000000001
    endloop
  endfacet
  facet normal 0 0 1
    outer loop
      vertex 199.40000000000001 -100 0.20000000000000001
      vertex 199.59999999999999 -80.200000000000003 0.20000000000000001
      vertex 199.40000000000001 -80.200000000000003 0.20000000000000001
    endloop
  endfacet
  facet normal 0 0.44721359549996592 0.89442719099991186
    outer loop
      vertex 199.47999999999999 -80.120000000000005 0.15999999999999998
      vertex 199.40000000000001 -80.200000000000003 0.20000000000000001
      vertex 199.59999999999999 -80.200000000000003 0.20000000000000001
    endloop
  endfacet
  facet normal -0 0.44721359549996592 0.89442719099991197
    outer loop
      vertex 199.47999999999999 -80.120000000000005 0.15999999999999998
      vertex 199.59999999999999 -80.200000000000003 0.20000000000000001
      vertex 199.59999999999999 -80.120000000000005 0.15999999999999998
    endloop
  endfacet
  facet normal -0 0.44721359549996587 0.89442719099991186
    outer loop
      vertex 199.40000000000001 -80.120000000000005 0.15999999999999998
      vertex 199.40000000000001 -80.200000000000003 0.20000000000000001
      vertex 199.47999999999999 -80.120000000000005 0.15999999999999998
    endloop
  endfacet
  facet normal 0.70710678118661818 0 0.70710678118647696
    outer loop
      vertex 199.63999999999999 -96.039999999999992 0.15999999999999998
      vertex 199.59999999999999 -100 0.20000000000000001
      vertex 199.63999999999999 -100 0.15999999999999998
    endloop
  endfacet
  facet normal 0.70710678118661818 0 0.70710678118647685
    outer loop
      vertex 199.59999999999999 -100 0.20000000000000001
      vertex 199.63999999999999 -96.039999999999992 0.15999999999999998
      vertex 199.63999999999999 -80.200000000000003 0.15999999999999998
    endloop
  endfacet
  facet normal 0.70710678118661829 -0 0.70710678118647696
    outer loop
      vertex 199.59999999999999 -100 0.20000000000000001
      vertex 199.63999999999999 -80.200000000000003 0.15999999999999998
      vertex 199.59999999999999 -80.200000000000003 0.20000000000000001
    endloop
  endfacet
  facet normal 0.70710678118661818 0 0.70710678118647685
    outer loop
      vertex 199.63999999999999 -80.159999999999997 0.15999999999999998
      vertex 199.59999999999999 -80.200000000000003 0.20000000000000001
      vertex 199.63999999999999 -80.200000000000003 0.15999999999999998
    endloop
  endfacet
  facet normal 0.40824829046386912 0.40824829046386912 0.81649658092772004
    outer loop
      vertex 199.59999999999999 -80.120000000000005 0.15999999999999998
      vertex 199.59999999999999 -80.200000000000003 0.20000000000000001
      vertex 199.63999999999999 -80.159999999999997 0.15999999999999998
    endloop
  endfacet
endsolid terrain_band_10
