solid terrain_band_3
  facet normal -0.44721359550002932 0 0.89442719099988022
    outer loop
      vertex 150.11999999999998 -48 0.060000000000000012
      vertex 150.07999999999998 -52 0.040000000000000001
      vertex 150.07999999999998 -60 0.040000000000000001
    endloop
  endfacet
  facet normal -0.44721359550002932 0 0.89442719099988022
    outer loop
      vertex 150.11999999999998 -48 0.060000000000000012
      vertex 150.07999999999998 -60 0.040000000000000001
      vertex 150.11999999999998 -60 0.060000000000000012
    endloop
  endfacet
  facet normal -0.44721359550002932 0 0.89442719099988022
    outer loop
      vertex 150.07999999999998 -52 0.040000000000000001
      vertex 150.11999999999998 -48 0.060000000000000012
      vertex 150.11999999999998 -40 0.060000000000000012
    endloop
  endfacet
  facet normal -0.44721359550002932 0 0.89442719099988022
    outer loop
      vertex 150.07999999999998 -52 0.040000000000000001
      vertex 150.11999999999998 -40 0.060000000000000012
      vertex 150.07999999999998 -40 0.040000000000000001
    endloop
  endfacet
  facet normal -0.44721359550002932 0 0.89442719099988022
    outer loop
      vertex 150.11999999999998 -28 0.060000000000000012
      vertex 150.07999999999998 -32 0.040000000000000001
      vertex 150.07999999999998 -40 0.040000000000000001
    endloop
  endfacet
  facet normal -0.44721359550002932 0 0.89442719099988022
    outer loop
      vertex 150.11999999999998 -28 0.060000000000000012
      vertex 150.07999999999998 -40 0.040000000000000001
      vertex 150.11999999999998 -40 0.060000000000000012
    endloop
  endfacet
  facet normal -0.44721359550002932 0 0.89442719099988022
    outer loop
      vertex 150.07999999999998 -32 0.040000000000000001
      vertex 150.11999999999998 -28 0.060000000000000012
      vertex 150.11999999999998 -20 0.060000000000000012
    endloop
  endfacet
  facet normal -0.44721359550002932 0 0.89442719099988022
    outer loop
      vertex 150.07999999999998 -32 0.040000000000000001
      vertex 150.11999999999998 -20 0.060000000000000012
      vertex 150.07999999999998 -20 0.040000000000000001
    endloop
  endfacet
  facet normal -0.44721359550002932 0 0.89442719099988022
    outer loop
      vertex 150.11999999999998 -14 0.060000000000000012
      vertex 150.07999999999998 -16 0.040000000000000001
      vertex 150.07999999999998 -20 0.040000000000000001
    endloop
  endfacet
  facet normal -0.44721359550002932 0 0.89442719099988022
    outer loop
      vertex 150.11999999999998 -14 0.060000000000000012
      vertex 150.07999999999998 -20 0.040000000000000001
      vertex 150.11999999999998 -20 0.060000000000000012
    endloop
  endfacet
  facet normal -0.44721359550002932 0 0.89442719099988022
    outer loop
      vertex 150.07999999999998 -16 0.040000000000000001
      vertex 150.11999999999998 -14 0.060000000000000012
      vertex 150.11999999999998 -10 0.060000000000000012
    endloop
  endfacet
  facet normal -0.44721359550002932 0 0.89442719099988022
    outer loop
      vertex 150.07999999999998 -16 0.040000000000000001
      vertex 150.11999999999998 -10 0.060000000000000012
      vertex 150.07999999999998 -10 0.040000000000000001
    endloop
  endfacet
  facet normal -0.44721359550002932 0 0.89442719099988022
    outer loop
      vertex 150.11999999999998 -3.9999999999999991 0.060000000000000012
      vertex 150.07999999999998 -6 0.040000000000000001
      vertex 150.07999999999998 -10 0.040000000000000001
    endloop
  endfacet
  facet normal -0.44721359550002937 0 0.89442719099988033
    outer loop
      vertex 150.11999999999998 -3.9999999999999991 0.060000000000000012
      vertex 150.07999999999998 -10 0.040000000000000001
      vertex 150.11999999999998 -10 0.060000000000000012
    endloop
  endfacet
  facet normal -0.44721359550002926 0 0.89442719099988011
    outer loop
      vertex 150.07999999999998 -6 0.040000000000000001
      vertex 150.11999999999998 -3.9999999999999991 0.060000000000000012
      vertex 150.11999999999998 0 0.060000000000000012
    endloop
  endfacet
  facet normal -0.44721359550002932 0 0.89442719099988022
    outer loop
      vertex 150.07999999999998 -6 0.040000000000000001
      vertex 150.11999999999998 0 0.060000000000000012
      vertex 150.07999999999998 0 0.040000000000000001
    endloop
  endfacet
  facet normal -0.44721359550002943 0 0.89442719099988022
    outer loop
      vertex 150.11999999999998 0.00060000000000000016 0.060000000000000012
      vertex 150.07999999999998 0.00040000000000000007 0.040000000000000001
      vertex 150.07999999999998 0 0.040000000000000001
    endloop
  endfacet
  facet normal -0.44721359550002937 0 0.89442719099988022
    outer loop
      vertex 150.11999999999998 0.00060000000000000016 0.060000000000000012
      vertex 150.07999999999998 0 0.040000000000000001
      vertex 150.11999999999998 0 0.060000000000000012
    endloop
  endfacet
  facet normal -0.44721359550002932 0 0.89442719099988022
    outer loop
      vertex 150.07999999999998 0.00039999999999999996 0.040000000000000001
      vertex 150.11999999999998 0.00060000000000000006 0.060000000000000012
      vertex 150.11999999999998 0.001 0.060000000000000012
    endloop
  endfacet
  facet normal -0.44721359550002932 0 0.89442719099988022
    outer loop
      vertex 150.07999999999998 0.00039999999999999996 0.040000000000000001
      vertex 150.11999999999998 0.001 0.060000000000000012
      vertex 150.07999999999998 0.001 0.040000000000000001
    endloop
  endfacet
  facet normal -0.44721359550002932 0 0.89442719099988011
    outer loop
      vertex 150.11999999999998 6.0004000000000008 0.060000000000000012
      vertex 150.07999999999998 4.0005999999999995 0.040000000000000001
      vertex 150.07999999999998 0.001 0.040000000000000001
    endloop
  endfacet
  facet normal -0.44721359550002932 0 0.89442719099988022
    outer loop
      vertex 150.11999999999998 6.0004000000000008 0.060000000000000012
      vertex 150.07999999999998 0.001 0.040000000000000001
      vertex 150.11999999999998 0.001 0.060000000000000012
    endloop
  endfacet
  facet normal -0.44721359550002937 0 0.89442719099988022
    outer loop
      vertex 150.07999999999998 4.0006000000000004 0.040000000000000001
      vertex 150.11999999999998 6.0004000000000008 0.060000000000000012
      vertex 150.11999999999998 10 0.060000000000000012
    endloop
  endfacet
  facet normal -0.44721359550002932 0 0.89442719099988011
    outer loop
      vertex 150.07999999999998 4.0006000000000004 0.040000000000000001
      vertex 150.11999999999998 10 0.060000000000000012
      vertex 150.07999999999998 10 0.040000000000000001
    endloop
  endfacet
  facet normal -0.44721359550002932 0 0.89442719099988022
    outer loop
      vertex 150.11999999999998 16 0.060000000000000012
      vertex 150.07999999999998 14 0.040000000000000001
      vertex 150.07999999999998 10 0.040000000000000001
    endloop
  endfacet
  facet normal -0.44721359550002932 0 0.89442719099988022
    outer loop
      vertex 150.11999999999998 16 0.060000000000000012
      vertex 150.07999999999998 10 0.040000000000000001
      vertex 150.11999999999998 10 0.060000000000000012
    endloop
  endfacet
  facet normal -0.44721359550002932 0 0.89442719099988022
    outer loop
      vertex 150.07999999999998 14 0.040000000000000001
      vertex 150.11999999999998 16 0.060000000000000012
      vertex 150.11999999999998 20 0.060000000000000012
    endloop
  endfacet
  facet normal -0.44721359550002932 0 0.89442719099988022
    outer loop
      vertex 150.07999999999998 14 0.040000000000000001
      vertex 150.11999999999998 20 0.060000000000000012
      vertex 150.07999999999998 20 0.040000000000000001
    endloop
  endfacet
  facet normal -0.44721359550002932 0 0.89442719099988022
    outer loop
      vertex 150.11999999999998 32 0.060000000000000012
      vertex 150.07999999999998 28 0.040000000000000001
      vertex 150.07999999999998 20 0.040000000000000001
    endloop
  endfacet
  facet normal -0.44721359550002932 0 0.89442719099988022
    outer loop
      vertex 150.11999999999998 32 0.060000000000000012
      vertex 150.07999999999998 20 0.040000000000000001
      vertex 150.11999999999998 20 0.060000000000000012
    endloop
  endfacet
  facet normal -0.44721359550002932 0 0.89442719099988022
    outer loop
      vertex 150.07999999999998 28 0.040000000000000001
      vertex 150.11999999999998 32 0.060000000000000012
      vertex 150.11999999999998 40 0.060000000000000012
    endloop
  endfacet
  facet normal -0.44721359550002932 0 0.89442719099988022
    outer loop
      vertex 150.07999999999998 28 0.040000000000000001
      vertex 150.11999999999998 40 0.060000000000000012
      vertex 150.07999999999998 40 0.040000000000000001
    endloop
  endfacet
  facet normal -0.44721359550002932 0 0.89442719099988022
    outer loop
      vertex 150.11999999999998 52 0.060000000000000012
      vertex 150.07999999999998 48 0.040000000000000001
      vertex 150.07999999999998 40 0.040000000000000001
    endloop
  endfacet
  facet normal -0.44721359550002932 0 0.89442719099988022
    outer loop
      vertex 150.11999999999998 52 0.060000000000000012
      vertex 150.07999999999998 40 0.040000000000000001
      vertex 150.11999999999998 40 0.060000000000000012
    endloop
  endfacet
  facet normal -0.44721359550002932 0 0.89442719099988022
    outer loop
      vertex 150.07999999999998 48 0.040000000000000001
      vertex 150.11999999999998 52 0.060000000000000012
      vertex 150.11999999999998 60 0.060000000000000012
    endloop
  endfacet
  facet normal -0.44721359550002932 0 0.89442719099988022
    outer loop
      vertex 150.07999999999998 48 0.040000000000000001
      vertex 150.11999999999998 60 0.060000000000000012
      vertex 150.07999999999998 60 0.040000000000000001
    endloop
  endfacet
  facet normal 0.44721359550002932 0 0.89442719099988022
    outer loop
      vertex 150.92000000000002 -48 0.040000000000000001
      vertex 150.88000000000002 -52 0.060000000000000012
      vertex 150.88000000000002 -60 0.060000000000000012
    endloop
  endfacet
  facet normal 0.44721359550002932 0 0.89442719099988022
    outer loop
      vertex 150.92000000000002 -48 0.040000000000000001
      vertex 150.88000000000002 -60 0.060000000000000012
      vertex 150.92000000000002 -60 0.040000000000000001
    endloop
  endfacet
  facet normal 0.44721359550002932 0 0.89442719099988022
    outer loop
      vertex 150.88000000000002 -52 0.060000000000000012
      vertex 150.92000000000002 -48 0.040000000000000001
      vertex 150.92000000000002 -40 0.040000000000000001
    endloop
  endfacet
  facet normal 0.44721359550002932 -0 0.89442719099988022
    outer loop
      vertex 150.88000000000002 -52 0.060000000000000012
      vertex 150.92000000000002 -40 0.040000000000000001
      vertex 150.88000000000002 -40 0.060000000000000012
    endloop
  endfacet
  facet normal 0.44721359550002932 0 0.89442719099988022
    outer loop
      vertex 150.92000000000002 -28 0.040000000000000001
      vertex 150.88000000000002 -32 0.060000000000000012
      vertex 150.88000000000002 -40 0.060000000000000012
    endloop
  endfacet
  facet normal 0.44721359550002932 0 0.89442719099988022
    outer loop
      vertex 150.92000000000002 -28 0.040000000000000001
      vertex 150.88000000000002 -40 0.060000000000000012
      vertex 150.92000000000002 -40 0.040000000000000001
    endloop
  endfacet
  facet normal 0.44721359550002932 0 0.89442719099988022
    outer loop
      vertex 150.88000000000002 -32 0.060000000000000012
      vertex 150.92000000000002 -28 0.040000000000000001
      vertex 150.92000000000002 -20 0.040000000000000001
    endloop
  endfacet
  facet normal 0.44721359550002932 -0 0.89442719099988022
    outer loop
      vertex 150.88000000000002 -32 0.060000000000000012
      vertex 150.92000000000002 -20 0.040000000000000001
      vertex 150.88000000000002 -20 0.060000000000000012
    endloop
  endfacet
  facet normal 0.44721359550002932 0 0.89442719099988022
    outer loop
      vertex 150.92000000000002 -14 0.040000000000000001
      vertex 150.88000000000002 -16 0.060000000000000012
      vertex 150.88000000000002 -20 0.060000000000000012
    endloop
  endfacet
  facet normal 0.44721359550002932 0 0.89442719099988022
    outer loop
      vertex 150.92000000000002 -14 0.040000000000000001
      vertex 150.88000000000002 -20 0.060000000000000012
      vertex 150.92000000000002 -20 0.040000000000000001
    endloop
  endfacet
  facet normal 0.44721359550002932 0 0.89442719099988022
    outer loop
      vertex 150.88000000000002 -16 0.060000000000000012
      vertex 150.92000000000002 -14 0.040000000000000001
      vertex 150.92000000000002 -10 0.040000000000000001
    endloop
  endfacet
  facet normal 0.44721359550002932 -0 0.89442719099988022
    outer loop
      vertex 150.88000000000002 -16 0.060000000000000012
      vertex 150.92000000000002 -10 0.040000000000000001
      vertex 150.88000000000002 -10 0.060000000000000012
    endloop
  endfacet
  facet normal 0.44721359550002932 0 0.89442719099988022
    outer loop
      vertex 150.92000000000002 -3.9999999999999996 0.040000000000000001
      vertex 150.88000000000002 -6 0.060000000000000012
      vertex 150.88000000000002 -10 0.060000000000000012
    endloop
  endfacet
  facet normal 0.44721359550002932 0 0.89442719099988022
    outer loop
      vertex 150.92000000000002 -3.9999999999999996 0.040000000000000001
      vertex 150.88000000000002 -10 0.060000000000000012
      vertex 150.92000000000002 -10 0.040000000000000001
    endloop
  endfacet
  facet normal 0.44721359550002932 0 0.89442719099988022
    outer loop
      vertex 150.88000000000002 -6.0000000000000009 0.060000000000000012
      vertex 150.92000000000002 -4 0.040000000000000001
      vertex 150.92000000000002 0 0.040000000000000001
    endloop
  endfacet
  facet normal 0.44721359550002937 -0 0.89442719099988033
    outer loop
      vertex 150.88000000000002 -6.0000000000000009 0.060000000000000012
      vertex 150.92000000000002 0 0.040000000000000001
      vertex 150.88000000000002 0 0.060000000000000012
    endloop
  endfacet
  facet normal 0.44721359550002932 0 0.89442719099988022
    outer loop
      vertex 150.92000000000002 0.00060000000000000006 0.040000000000000001
      vertex 150.88000000000002 0.00039999999999999996 0.060000000000000012
      vertex 150.88000000000002 0 0.060000000000000012
    endloop
  endfacet
  facet normal 0.44721359550002932 0 0.89442719099988022
    outer loop
      vertex 150.92000000000002 0.00060000000000000006 0.040000000000000001
      vertex 150.88000000000002 0 0.060000000000000012
      vertex 150.92000000000002 0 0.040000000000000001
    endloop
  endfacet
  facet normal 0.44721359550002943 0 0.89442719099988022
    outer loop
      vertex 150.88000000000002 0.00039999999999999986 0.060000000000000012
      vertex 150.92000000000002 0.00059999999999999995 0.040000000000000001
      vertex 150.92000000000002 0.001 0.040000000000000001
    endloop
  endfacet
  facet normal 0.44721359550002937 -0 0.89442719099988022
    outer loop
      vertex 150.88000000000002 0.00039999999999999986 0.060000000000000012
      vertex 150.92000000000002 0.001 0.040000000000000001
      vertex 150.88000000000002 0.001 0.060000000000000012
    endloop
  endfacet
  facet normal 0.44721359550002937 0 0.89442719099988022
    outer loop
      vertex 150.92000000000002 6.0004 0.040000000000000001
      vertex 150.88000000000002 4.0005999999999995 0.060000000000000012
      vertex 150.88000000000002 0.001 0.060000000000000012
    endloop
  endfacet
  facet normal 0.44721359550002932 0 0.89442719099988011
    outer loop
      vertex 150.92000000000002 6.0004 0.040000000000000001
      vertex 150.88000000000002 0.001 0.060000000000000012
      vertex 150.92000000000002 0.001 0.040000000000000001
    endloop
  endfacet
  facet normal 0.44721359550002932 0 0.89442719099988011
    outer loop
      vertex 150.88000000000002 4.0005999999999995 0.060000000000000012
      vertex 150.92000000000002 6.0004000000000008 0.040000000000000001
      vertex 150.92000000000002 10 0.040000000000000001
    endloop
  endfacet
  facet normal 0.44721359550002932 -0 0.89442719099988022
    outer loop
      vertex 150.88000000000002 4.0005999999999995 0.060000000000000012
      vertex 150.92000000000002 10 0.040000000000000001
      vertex 150.88000000000002 10 0.060000000000000012
    endloop
  endfacet
  facet normal 0.44721359550002932 0 0.89442719099988022
    outer loop
      vertex 150.92000000000002 16 0.040000000000000001
      vertex 150.88000000000002 14 0.060000000000000012
      vertex 150.88000000000002 10 0.060000000000000012
    endloop
  endfacet
  facet normal 0.44721359550002932 0 0.89442719099988022
    outer loop
      vertex 150.92000000000002 16 0.040000000000000001
      vertex 150.88000000000002 10 0.060000000000000012
      vertex 150.92000000000002 10 0.040000000000000001
    endloop
  endfacet
  facet normal 0.44721359550002932 0 0.89442719099988022
    outer loop
      vertex 150.88000000000002 14 0.060000000000000012
      vertex 150.92000000000002 16 0.040000000000000001
      vertex 150.92000000000002 20 0.040000000000000001
    endloop
  endfacet
  facet normal 0.44721359550002932 -0 0.89442719099988022
    outer loop
      vertex 150.88000000000002 14 0.060000000000000012
      vertex 150.92000000000002 20 0.040000000000000001
      vertex 150.88000000000002 20 0.060000000000000012
    endloop
  endfacet
  facet normal 0.44721359550002932 0 0.89442719099988022
    outer loop
      vertex 150.92000000000002 32 0.040000000000000001
      vertex 150.88000000000002 28 0.060000000000000012
      vertex 150.88000000000002 20 0.060000000000000012
    endloop
  endfacet
  facet normal 0.44721359550002932 0 0.89442719099988022
    outer loop
      vertex 150.92000000000002 32 0.040000000000000001
      vertex 150.88000000000002 20 0.060000000000000012
      vertex 150.92000000000002 20 0.040000000000000001
    endloop
  endfacet
  facet normal 0.44721359550002932 0 0.89442719099988022
    outer loop
      vertex 150.88000000000002 28 0.060000000000000012
      vertex 150.92000000000002 32 0.040000000000000001
      vertex 150.92000000000002 40 0.040000000000000001
    endloop
  endfacet
  facet normal 0.44721359550002932 -0 0.89442719099988022
    outer loop
      vertex 150.88000000000002 28 0.060000000000000012
      vertex 150.92000000000002 40 0.040000000000000001
      vertex 150.88000000000002 40 0.060000000000000012
    endloop
  endfacet
  facet normal 0.44721359550002932 0 0.89442719099988022
    outer loop
      vertex 150.92000000000002 52 0.040000000000000001
      vertex 150.88000000000002 48 0.060000000000000012
      vertex 150.88000000000002 40 0.060000000000000012
    endloop
  endfacet
  facet normal 0.44721359550002932 0 0.89442719099988022
    outer loop
      vertex 150.92000000000002 52 0.040000000000000001
      vertex 150.88000000000002 40 0.060000000000000012
      vertex 150.92000000000002 40 0.040000000000000001
    endloop
  endfacet
  facet normal 0.44721359550002932 0 0.89442719099988022
    outer loop
      vertex 150.88000000000002 48 0.060000000000000012
      vertex 150.92000000000002 52 0.040000000000000001
      vertex 150.92000000000002 60 0.040000000000000001
    endloop
  endfacet
  facet normal 0.44721359550002932 -0 0.89442719099988022
    outer loop
      vertex 150.88000000000002 48 0.060000000000000012
      vertex 150.92000000000002 60 0.040000000000000001
      vertex 150.88000000000002 60 0.060000000000000012
    endloop
  endfacet
  facet normal -0.44721359550002932 0 0.89442719099988022
    outer loop
      vertex 175.11999999999998 -48 0.060000000000000012
      vertex 175.07999999999998 -52 0.040000000000000001
      vertex 175.07999999999998 -60 0.040000000000000001
    endloop
  endfacet
  facet normal -0.44721359550002932 0 0.89442719099988022
    outer loop
      vertex 175.11999999999998 -48 0.060000000000000012
      vertex 175.07999999999998 -60 0.040000000000000001
      vertex 175.11999999999998 -60 0.060000000000000012
    endloop
  endfacet
  facet normal -0.44721359550002932 0 0.89442719099988022
    outer loop
      vertex 175.07999999999998 -52 0.040000000000000001
      vertex 175.11999999999998 -48 0.060000000000000012
      vertex 175.11999999999998 -40 0.060000000000000012
    endloop
  endfacet
  facet normal -0.44721359550002932 0 0.89442719099988022
    outer loop
      vertex 175.07999999999998 -52 0.040000000000000001
      vertex 175.11999999999998 -40 0.060000000000000012
      vertex 175.07999999999998 -40 0.040000000000000001
    endloop
  endfacet
  facet normal -0.44721359550002932 0 0.89442719099988022
    outer loop
      vertex 175.11999999999998 -28 0.060000000000000012
      vertex 175.07999999999998 -32 0.040000000000000001
      vertex 175.07999999999998 -40 0.040000000000000001
    endloop
  endfacet
  facet normal -0.44721359550002932 0 0.89442719099988022
    outer loop
      vertex 175.11999999999998 -28 0.060000000000000012
      vertex 175.07999999999998 -40 0.040000000000000001
      vertex 175.11999999999998 -40 0.060000000000000012
    endloop
  endfacet
  facet normal -0.44721359550002932 0 0.89442719099988022
    outer loop
      vertex 175.07999999999998 -32 0.040000000000000001
      vertex 175.11999999999998 -28 0.060000000000000012
      vertex 175.11999999999998 -20 0.060000000000000012
    endloop
  endfacet
  facet normal -0.44721359550002932 0 0.89442719099988022
    outer loop
      vertex 175.07999999999998 -32 0.040000000000000001
      vertex 175.11999999999998 -20 0.060000000000000012
      vertex 175.07999999999998 -20 0.040000000000000001
    endloop
  endfacet
  facet normal -0.44721359550002932 0 0.89442719099988022
    outer loop
      vertex 175.11999999999998 -14 0.060000000000000012
      vertex 175.07999999999998 -16 0.040000000000000001
      vertex 175.07999999999998 -20 0.040000000000000001
    endloop
  endfacet
  facet normal -0.44721359550002932 0 0.89442719099988022
    outer loop
      vertex 175.11999999999998 -14 0.060000000000000012
      vertex 175.07999999999998 -20 0.040000000000000001
      vertex 175.11999999999998 -20 0.060000000000000012
    endloop
  endfacet
  facet normal -0.44721359550002932 0 0.89442719099988022
    outer loop
      vertex 175.07999999999998 -16 0.040000000000000001
      vertex 175.11999999999998 -14 0.060000000000000012
      vertex 175.11999999999998 -10 0.060000000000000012
    endloop
  endfacet
  facet normal -0.44721359550002932 0 0.89442719099988022
    outer loop
      vertex 175.07999999999998 -16 0.040000000000000001
      vertex 175.11999999999998 -10 0.060000000000000012
      vertex 175.07999999999998 -10 0.040000000000000001
    endloop
  endfacet
  facet normal -0.44721359550002932 0 0.89442719099988022
    outer loop
      vertex 175.11999999999998 -3.9999999999999991 0.060000000000000012
      vertex 175.07999999999998 -6 0.040000000000000001
      vertex 175.07999999999998 -10 0.040000000000000001
    endloop
  endfacet
  facet normal -0.44721359550002937 0 0.89442719099988033
    outer loop
      vertex 175.11999999999998 -3.9999999999999991 0.060000000000000012
      vertex 175.07999999999998 -10 0.040000000000000001
      vertex 175.11999999999998 -10 0.060000000000000012
    endloop
  endfacet
  facet normal -0.44721359550002926 0 0.89442719099988011
    outer loop
      vertex 175.07999999999998 -6 0.040000000000000001
      vertex 175.11999999999998 -3.9999999999999991 0.060000000000000012
      vertex 175.11999999999998 0 0.060000000000000012
    endloop
  endfacet
  facet normal -0.44721359550002932 0 0.89442719099988022
    outer loop
      vertex 175.07999999999998 -6 0.040000000000000001
      vertex 175.11999999999998 0 0.060000000000000012
      vertex 175.07999999999998 0 0.040000000000000001
    endloop
  endfacet
  facet normal -0.44721359550002943 0 0.89442719099988022
    outer loop
      vertex 175.11999999999998 0.00060000000000000016 0.060000000000000012
      vertex 175.07999999999998 0.00040000000000000007 0.040000000000000001
      vertex 175.07999999999998 0 0.040000000000000001
    endloop
  endfacet
  facet normal -0.44721359550002937 0 0.89442719099988022
    outer loop
      vertex 175.11999999999998 0.00060000000000000016 0.060000000000000012
      vertex 175.07999999999998 0 0.040000000000000001
      vertex 175.11999999999998 0 0.060000000000000012
    endloop
  endfacet
  facet normal -0.44721359550002932 0 0.89442719099988022
    outer loop
      vertex 175.07999999999998 0.00039999999999999996 0.040000000000000001
      vertex 175.11999999999998 0.00060000000000000006 0.060000000000000012
      vertex 175.11999999999998 0.001 0.060000000000000012
    endloop
  endfacet
  facet normal -0.44721359550002932 0 0.89442719099988022
    outer loop
      vertex 175.07999999999998 0.00039999999999999996 0.040000000000000001
      vertex 175.11999999999998 0.001 0.060000000000000012
      vertex 175.07999999999998 0.001 0.040000000000000001
    endloop
  endfacet
  facet normal -0.44721359550002932 0 0.89442719099988011
    outer loop
      vertex 175.11999999999998 6.0004000000000008 0.060000000000000012
      vertex 175.07999999999998 4.0005999999999995 0.040000000000000001
      vertex 175.07999999999998 0.001 0.040000000000000001
    endloop
  endfacet
  facet normal -0.44721359550002932 0 0.89442719099988022
    outer loop
      vertex 175.11999999999998 6.0004000000000008 0.060000000000000012
      vertex 175.07999999999998 0.001 0.040000000000000001
      vertex 175.11999999999998 0.001 0.060000000000000012
    endloop
  endfacet
  facet normal -0.44721359550002937 0 0.89442719099988022
    outer loop
      vertex 175.07999999999998 4.0006000000000004 0.040000000000000001
      vertex 175.11999999999998 6.0004000000000008 0.060000000000000012
      vertex 175.11999999999998 10 0.060000000000000012
    endloop
  endfacet
  facet normal -0.44721359550002932 0 0.89442719099988011
    outer loop
      vertex 175.07999999999998 4.0006000000000004 0.040000000000000001
      vertex 175.11999999999998 10 0.060000000000000012
      vertex 175.07999999999998 10 0.040000000000000001
    endloop
  endfacet
  facet normal -0.44721359550002932 0 0.89442719099988022
    outer loop
      vertex 175.11999999999998 16 0.060000000000000012
      vertex 175.07999999999998 14 0.040000000000000001
      vertex 175.07999999999998 10 0.040000000000000001
    endloop
  endfacet
  facet normal -0.44721359550002932 0 0.89442719099988022
    outer loop
      vertex 175.11999999999998 16 0.060000000000000012
      vertex 175.07999999999998 10 0.040000000000000001
      vertex 175.11999999999998 10 0.060000000000000012
    endloop
  endfacet
  facet normal -0.44721359550002932 0 0.89442719099988022
    outer loop
      vertex 175.07999999999998 14 0.040000000000000001
      vertex 175.11999999999998 16 0.060000000000000012
      vertex 175.11999999999998 20 0.060000000000000012
    endloop
  endfacet
  facet normal -0.44721359550002932 0 0.89442719099988022
    outer loop
      vertex 175.07999999999998 14 0.040000000000000001
      vertex 175.11999999999998 20 0.060000000000000012
      vertex 175.07999999999998 20 0.040000000000000001
    endloop
  endfacet
  facet normal -0.44721359550002932 0 0.89442719099988022
    outer loop
      vertex 175.11999999999998 32 0.060000000000000012
      vertex 175.07999999999998 28 0.040000000000000001
      vertex 175.07999999999998 20 0.040000000000000001
    endloop
  endfacet
  facet normal -0.44721359550002932 0 0.89442719099988022
    outer loop
      vertex 175.11999999999998 32 0.060000000000000012
      vertex 175.07999999999998 20 0.040000000000000001
      vertex 175.11999999999998 20 0.060000000000000012
    endloop
  endfacet
  facet normal -0.44721359550002932 0 0.89442719099988022
    outer loop
      vertex 175.07999999999998 28 0.040000000000000001
      vertex 175.11999999999998 32 0.060000000000000012
      vertex 175.11999999999998 40 0.060000000000000012
    endloop
  endfacet
  facet normal -0.44721359550002932 0 0.89442719099988022
    outer loop
      vertex 175.07999999999998 28 0.040000000000000001
      vertex 175.11999999999998 40 0.060000000000000012
      vertex 175.07999999999998 40 0.040000000000000001
    endloop
  endfacet
  facet normal -0.44721359550002932 0 0.89442719099988022
    outer loop
      vertex 175.11999999999998 52 0.060000000000000012
      vertex 175.07999999999998 48 0.040000000000000001
      vertex 175.07999999999998 40 0.040000000000000001
    endloop
  endfacet
  facet normal -0.44721359550002932 0 0.89442719099988022
    outer loop
      vertex 175.11999999999998 52 0.060000000000000012
      vertex 175.07999999999998 40 0.040000000000000001
      vertex 175.11999999999998 40 0.060000000000000012
    endloop
  endfacet
  facet normal -0.44721359550002932 0 0.89442719099988022
    outer loop
      vertex 175.07999999999998 48 0.040000000000000001
      vertex 175.11999999999998 52 0.060000000000000012
      vertex 175.11999999999998 60 0.060000000000000012
    endloop
  endfacet
  facet normal -0.44721359550002932 0 0.89442719099988022
    outer loop
      vertex 175.07999999999998 48 0.040000000000000001
      vertex 175.11999999999998 60 0.060000000000000012
      vertex 175.07999999999998 60 0.040000000000000001
    endloop
  endfacet
  facet normal 0.44721359550002932 0 0.89442719099988022
    outer loop
      vertex 177.92000000000002 -48 0.040000000000000001
      vertex 177.88000000000002 -52 0.060000000000000012
      vertex 177.88000000000002 -60 0.060000000000000012
    endloop
  endfacet
  facet normal 0.44721359550002932 0 0.89442719099988022
    outer loop
      vertex 177.92000000000002 -48 0.040000000000000001
      vertex 177.88000000000002 -60 0.060000000000000012
      vertex 177.92000000000002 -60 0.040000000000000001
    endloop
  endfacet
  facet normal 0.44721359550002932 0 0.89442719099988022
    outer loop
      vertex 177.88000000000002 -52 0.060000000000000012
      vertex 177.92000000000002 -48 0.040000000000000001
      vertex 177.92000000000002 -40 0.040000000000000001
    endloop
  endfacet
  facet normal 0.44721359550002932 -0 0.89442719099988022
    outer loop
      vertex 177.88000000000002 -52 0.060000000000000012
      vertex 177.92000000000002 -40 0.040000000000000001
      vertex 177.88000000000002 -40 0.060000000000000012
    endloop
  endfacet
  facet normal 0.44721359550002932 0 0.89442719099988022
    outer loop
      vertex 177.92000000000002 -28 0.040000000000000001
      vertex 177.88000000000002 -32 0.060000000000000012
      vertex 177.88000000000002 -40 0.060000000000000012
    endloop
  endfacet
  facet normal 0.44721359550002932 0 0.89442719099988022
    outer loop
      vertex 177.92000000000002 -28 0.040000000000000001
      vertex 177.88000000000002 -40 0.060000000000000012
      vertex 177.92000000000002 -40 0.040000000000000001
    endloop
  endfacet
  facet normal 0.44721359550002932 0 0.89442719099988022
    outer loop
      vertex 177.88000000000002 -32 0.060000000000000012
      vertex 177.92000000000002 -28 0.040000000000000001
      vertex 177.92000000000002 -20 0.040000000000000001
    endloop
  endfacet
  facet normal 0.44721359550002932 -0 0.89442719099988022
    outer loop
      vertex 177.88000000000002 -32 0.060000000000000012
      vertex 177.92000000000002 -20 0.040000000000000001
      vertex 177.88000000000002 -20 0.060000000000000012
    endloop
  endfacet
  facet normal 0.44721359550002932 0 0.89442719099988022
    outer loop
      vertex 177.92000000000002 -14 0.040000000000000001
      vertex 177.88000000000002 -16 0.060000000000000012
      vertex 177.88000000000002 -20 0.060000000000000012
    endloop
  endfacet
  facet normal 0.44721359550002932 0 0.89442719099988022
    outer loop
      vertex 177.92000000000002 -14 0.040000000000000001
      vertex 177.88000000000002 -20 0.060000000000000012
      vertex 177.92000000000002 -20 0.040000000000000001
    endloop
  endfacet
  facet normal 0.44721359550002932 0 0.89442719099988022
    outer loop
      vertex 177.88000000000002 -16 0.060000000000000012
      vertex 177.92000000000002 -14 0.040000000000000001
      vertex 177.92000000000002 -10 0.040000000000000001
    endloop
  endfacet
  facet normal 0.44721359550002932 -0 0.89442719099988022
    outer loop
      vertex 177.88000000000002 -16 0.060000000000000012
      vertex 177.92000000000002 -10 0.040000000000000001
      vertex 177.88000000000002 -10 0.060000000000000012
    endloop
  endfacet
  facet normal 0.44721359550002932 0 0.89442719099988022
    outer loop
      vertex 177.92000000000002 -3.9999999999999996 0.040000000000000001
      vertex 177.88000000000002 -6 0.060000000000000012
      vertex 177.88000000000002 -10 0.060000000000000012
    endloop
  endfacet
  facet normal 0.44721359550002932 0 0.89442719099988022
    outer loop
      vertex 177.92000000000002 -3.9999999999999996 0.040000000000000001
      vertex 177.88000000000002 -10 0.060000000000000012
      vertex 177.92000000000002 -10 0.040000000000000001
    endloop
  endfacet
  facet normal 0.44721359550002932 0 0.89442719099988022
    outer loop
      vertex 177.88000000000002 -6.0000000000000009 0.060000000000000012
      vertex 177.92000000000002 -4 0.040000000000000001
      vertex 177.92000000000002 0 0.040000000000000001
    endloop
  endfacet
  facet normal 0.44721359550002937 -0 0.89442719099988033
    outer loop
      vertex 177.88000000000002 -6.0000000000000009 0.060000000000000012
      vertex 177.92000000000002 0 0.040000000000000001
      vertex 177.88000000000002 0 0.060000000000000012
    endloop
  endfacet
  facet normal 0.44721359550002932 0 0.89442719099988022
    outer loop
      vertex 177.92000000000002 0.00060000000000000006 0.040000000000000001
      vertex 177.88000000000002 0.00039999999999999996 0.060000000000000012
      vertex 177.88000000000002 0 0.060000000000000012
    endloop
  endfacet
  facet normal 0.44721359550002932 0 0.89442719099988022
    outer loop
      vertex 177.92000000000002 0.00060000000000000006 0.040000000000000001
      vertex 177.88000000000002 0 0.060000000000000012
      vertex 177.92000000000002 0 0.040000000000000001
    endloop
  endfacet
  facet normal 0.44721359550002943 0 0.89442719099988022
    outer loop
      vertex 177.88000000000002 0.00039999999999999986 0.060000000000000012
      vertex 177.92000000000002 0.00059999999999999995 0.040000000000000001
      vertex 177.92000000000002 0.001 0.040000000000000001
    endloop
  endfacet
  facet normal 0.44721359550002937 -0 0.89442719099988022
    outer loop
      vertex 177.88000000000002 0.00039999999999999986 0.060000000000000012
      vertex 177.92000000000002 0.001 0.040000000000000001
      vertex 177.88000000000002 0.001 0.060000000000000012
    endloop
  endfacet
  facet normal 0.44721359550002937 0 0.89442719099988022
    outer loop
      vertex 177.92000000000002 6.0004 0.040000000000000001
      vertex 177.88000000000002 4.0005999999999995 0.060000000000000012
      vertex 177.88000000000002 0.001 0.060000000000000012
    endloop
  endfacet
  facet normal 0.44721359550002932 0 0.89442719099988011
    outer loop
      vertex 177.92000000000002 6.0004 0.040000000000000001
      vertex 177.88000000000002 0.001 0.060000000000000012
      vertex 177.92000000000002 0.001 0.040000000000000001
    endloop
  endfacet
  facet normal 0.44721359550002932 0 0.89442719099988011
    outer loop
      vertex 177.88000000000002 4.0005999999999995 0.060000000000000012
      vertex 177.92000000000002 6.0004000000000008 0.040000000000000001
      vertex 177.92000000000002 10 0.040000000000000001
    endloop
  endfacet
  facet normal 0.44721359550002932 -0 0.89442719099988022
    outer loop
      vertex 177.88000000000002 4.0005999999999995 0.060000000000000012
      vertex 177.92000000000002 10 0.040000000000000001
      vertex 177.88000000000002 10 0.060000000000000012
    endloop
  endfacet
  facet normal 0.44721359550002932 0 0.89442719099988022
    outer loop
      vertex 177.92000000000002 16 0.040000000000000001
      vertex 177.88000000000002 14 0.060000000000000012
      vertex 177.88000000000002 10 0.060000000000000012
    endloop
  endfacet
  facet normal 0.44721359550002932 0 0.89442719099988022
    outer loop
      vertex 177.92000000000002 16 0.040000000000000001
      vertex 177.88000000000002 10 0.060000000000000012
      vertex 177.92000000000002 10 0.040000000000000001
    endloop
  endfacet
  facet normal 0.44721359550002932 0 0.89442719099988022
    outer loop
      vertex 177.88000000000002 14 0.060000000000000012
      vertex 177.92000000000002 16 0.040000000000000001
      vertex 177.92000000000002 20 0.040000000000000001
    endloop
  endfacet
  facet normal 0.44721359550002932 -0 0.89442719099988022
    outer loop
      vertex 177.88000000000002 14 0.060000000000000012
      vertex 177.92000000000002 20 0.040000000000000001
      vertex 177.88000000000002 20 0.060000000000000012
    endloop
  endfacet
  facet normal 0.44721359550002932 0 0.89442719099988022
    outer loop
      vertex 177.92000000000002 32 0.040000000000000001
      vertex 177.88000000000002 28 0.060000000000000012
      vertex 177.88000000000002 20 0.060000000000000012
    endloop
  endfacet
  facet normal 0.44721359550002932 0 0.89442719099988022
    outer loop
      vertex 177.92000000000002 32 0.040000000000000001
      vertex 177.88000000000002 20 0.060000000000000012
      vertex 177.92000000000002 20 0.040000000000000001
    endloop
  endfacet
  facet normal 0.44721359550002932 0 0.89442719099988022
    outer loop
      vertex 177.88000000000002 28 0.060000000000000012
      vertex 177.92000000000002 32 0.040000000000000001
      vertex 177.92000000000002 40 0.040000000000000001
    endloop
  endfacet
  facet normal 0.44721359550002932 -0 0.89442719099988022
    outer loop
      vertex 177.88000000000002 28 0.060000000000000012
      vertex 177.92000000000002 40 0.040000000000000001
      vertex 177.88000000000002 40 0.060000000000000012
    endloop
  endfacet
  facet normal 0.44721359550002932 0 0.89442719099988022
    outer loop
      vertex 177.92000000000002 52 0.040000000000000001
      vertex 177.88000000000002 48 0.060000000000000012
      vertex 177.88000000000002 40 0.060000000000000012
    endloop
  endfacet
  facet normal 0.44721359550002932 0 0.89442719099988022
    outer loop
      vertex 177.92000000000002 52 0.040000000000000001
      vertex 177.88000000000002 40 0.060000000000000012
      vertex 177.92000000000002 40 0.040000000000000001
    endloop
  endfacet
  facet normal 0.44721359550002932 0 0.89442719099988022
    outer loop
      vertex 177.88000000000002 48 0.060000000000000012
      vertex 177.92000000000002 52 0.040000000000000001
      vertex 177.92000000000002 60 0.040000000000000001
    endloop
  endfacet
  facet normal 0.44721359550002932 -0 0.89442719099988022
    outer loop
      vertex 177.88000000000002 48 0.060000000000000012
      vertex 177.92000000000002 60 0.040000000000000001
      vertex 177.88000000000002 60 0.060000000000000012
    endloop
  endfacet
endsolid terrain_band_3
