solid terrain_band_2
  facet normal 0.43643578047200332 0.21821789023598231 0.87287156094396268
    outer loop
      vertex 51.359999999999999 60.160000000000004 -0.12000000000000001
      vertex 51.399999999999999 60.079999999999998 -0.12000000000000001
      vertex 51.399999999999999 60.200000000000003 -0.14999999999999999
    endloop
  endfacet
  facet normal 0.60000000000000797 -0 0.79999999999999394
    outer loop
      vertex 51.359999999999999 60.160000000000004 -0.12000000000000001
      vertex 51.399999999999999 60.200000000000003 -0.14999999999999999
      vertex 51.359999999999999 60.200000000000003 -0.12000000000000001
    endloop
  endfacet
  facet normal 0.60000000000000797 0 0.79999999999999394
    outer loop
      vertex 51.359999999999999 76.040000000000006 -0.12000000000000001
      vertex 51.359999999999999 60.200000000000003 -0.12000000000000001
      vertex 51.399999999999999 60.200000000000003 -0.14999999999999999
    endloop
  endfacet
  facet normal 0.60000000000000808 0 0.79999999999999394
    outer loop
      vertex 51.359999999999999 76.040000000000006 -0.12000000000000001
      vertex 51.399999999999999 60.200000000000003 -0.14999999999999999
      vertex 51.399999999999999 80 -0.14999999999999999
    endloop
  endfacet
  facet normal 0.60000000000000797 -0 0.79999999999999405
    outer loop
      vertex 51.359999999999999 76.040000000000006 -0.12000000000000001
      vertex 51.399999999999999 80 -0.14999999999999999
      vertex 51.359999999999999 80 -0.12000000000000001
    endloop
  endfacet
  facet normal 0.58834840541458255 0.19611613513818257 0.78446454055271375
    outer loop
      vertex 51.359999999999999 80.159999999999997 -0.16
      vertex 51.32 80.120000000000005 -0.12000000000000001
      vertex 51.359999999999999 80 -0.12000000000000001
    endloop
  endfacet
  facet normal 0.58834840541455957 0.19611613513818663 0.78446454055272985
    outer loop
      vertex 51.359999999999999 80.159999999999997 -0.16
      vertex 51.359999999999999 80 -0.12000000000000001
      vertex 51.399999999999999 80 -0.14999999999999999
    endloop
  endfacet
  facet normal 0.58834840541447309 0.19611613513816931 0.78446454055279913
    outer loop
      vertex 51.359999999999999 80.159999999999997 -0.16
      vertex 51.399999999999999 80 -0.14999999999999999
      vertex 51.399999999999999 80.040000000000006 -0.16
    endloop
  endfacet
  facet normal 0.70710678118655501 0 0.70710678118654013
    outer loop
      vertex 51.32 80.120000000000005 -0.12000000000000001
      vertex 51.359999999999999 80.159999999999997 -0.16
      vertex 51.359999999999999 80.200000000000003 -0.16
    endloop
  endfacet
  facet normal 0.70710678118655512 -0 0.70710678118654013
    outer loop
      vertex 51.32 80.120000000000005 -0.12000000000000001
      vertex 51.359999999999999 80.200000000000003 -0.16
      vertex 51.32 80.200000000000003 -0.12000000000000001
    endloop
  endfacet
  facet normal 0.70710678118655501 0 0.70710678118654002
    outer loop
      vertex 51.359999999999999 96.040000000000006 -0.16
      vertex 51.32 92.080000000000013 -0.12000000000000001
      vertex 51.32 80.200000000000003 -0.12000000000000001
    endloop
  endfacet
  facet normal 0.70710678118655501 0 0.70710678118654002
    outer loop
      vertex 51.359999999999999 96.040000000000006 -0.16
      vertex 51.32 80.200000000000003 -0.12000000000000001
      vertex 51.359999999999999 80.200000000000003 -0.16
    endloop
  endfacet
  facet normal 0.70710678118655501 0 0.70710678118654002
    outer loop
      vertex 51.32 92.079999999999998 -0.12000000000000001
      vertex 51.359999999999999 96.039999999999992 -0.16
      vertex 51.359999999999999 100 -0.16
    endloop
  endfacet
  facet normal 0.70710678118655501 -0 0.70710678118654002
    outer loop
      vertex 51.32 92.079999999999998 -0.12000000000000001
      vertex 51.359999999999999 100 -0.16
      vertex 51.32 100 -0.12000000000000001
    endloop
  endfacet
  facet normal -0 0.24253562503632425 0.97014250014533421
    outer loop
      vertex 51.479999999999997 60.079999999999998 -0.12000000000000001
      vertex 51.600000000000001 60.079999999999998 -0.12000000000000001
      vertex 51.600000000000001 60.200000000000003 -0.14999999999999999
    endloop
  endfacet
  facet normal -0 0.2425356250363242 0.97014250014533399
    outer loop
      vertex 51.399999999999999 60.079999999999998 -0.12000000000000001
      vertex 51.479999999999997 60.079999999999998 -0.12000000000000001
      vertex 51.600000000000001 60.200000000000003 -0.14999999999999999
    endloop
  endfacet
  facet normal 0 0.24253562503632423 0.97014250014533399
    outer loop
      vertex 51.399999999999999 60.079999999999998 -0.12000000000000001
      vertex 51.600000000000001 60.200000000000003 -0.14999999999999999
      vertex 51.399999999999999 60.200000000000003 -0.14999999999999999
    endloop
  endfacet
  facet normal 0 0 1
    outer loop
      vertex 51.399999999999999 60.200000000000003 -0.14999999999999999
      vertex 51.600000000000001 60.200000000000003 -0.14999999999999999
      vertex 51.600000000000001 80 -0.14999999999999999
    endloop
  endfacet
  facet normal 0 0 1
    outer loop
      vertex 51.399999999999999 60.200000000000003 -0.14999999999999999
      vertex 51.600000000000001 80 -0.14999999999999999
      vertex 51.399999999999999 80 -0.14999999999999999
    endloop
  endfacet
  facet normal 0 0.24253562503629755 0.97014250014534076
    outer loop
      vertex 51.439999999999998 80.040000000000006 -0.16
      vertex 51.399999999999999 80 -0.14999999999999999
      vertex 51.600000000000001 80 -0.14999999999999999
    endloop
  endfacet
  facet normal -0 0.24253562503629753 0.97014250014534076
    outer loop
      vertex 51.439999999999998 80.040000000000006 -0.16
      vertex 51.600000000000001 80 -0.14999999999999999
      vertex 51.600000000000001 80.040000000000006 -0.16
    endloop
  endfacet
  facet normal -0 0.24253562503629753 0.97014250014534087
    outer loop
      vertex 51.399999999999999 80.040000000000006 -0.16
      vertex 51.399999999999999 80 -0.14999999999999999
      vertex 51.439999999999998 80.040000000000006 -0.16
    endloop
  endfacet
  facet normal -0 0.24253562503632423 0.9701425001453341
    outer loop
      vertex 53.600000000000001 60.079999999999998 -0.12000000000000001
      vertex 56.600000000000001 60.079999999999998 -0.12000000000000001
      vertex 56.600000000000001 60.200000000000003 -0.14999999999999999
    endloop
  endfacet
  facet normal -0 0.2425356250363242 0.9701425001453341
    outer loop
      vertex 51.600000000000001 60.079999999999998 -0.12000000000000001
      vertex 53.600000000000001 60.079999999999998 -0.12000000000000001
      vertex 56.600000000000001 60.200000000000003 -0.14999999999999999
    endloop
  endfacet
  facet normal 0 0.2425356250363242 0.9701425001453341
    outer loop
      vertex 51.600000000000001 60.079999999999998 -0.12000000000000001
      vertex 56.600000000000001 60.200000000000003 -0.14999999999999999
      vertex 51.600000000000001 60.200000000000003 -0.14999999999999999
    endloop
  endfacet
  facet normal 0 0 1
    outer loop
      vertex 51.600000000000001 60.200000000000003 -0.14999999999999999
      vertex 56.600000000000001 60.200000000000003 -0.14999999999999999
      vertex 56.600000000000001 80 -0.14999999999999999
    endloop
  endfacet
  facet normal 0 0 1
    outer loop
      vertex 51.600000000000001 60.200000000000003 -0.14999999999999999
      vertex 56.600000000000001 80 -0.14999999999999999
      vertex 51.600000000000001 80 -0.14999999999999999
    endloop
  endfacet
  facet normal 0 0.2425356250362975 0.97014250014534076
    outer loop
      vertex 52.600000000000001 80.040000000000006 -0.16
      vertex 51.600000000000001 80 -0.14999999999999999
      vertex 56.600000000000001 80 -0.14999999999999999
    endloop
  endfacet
  facet normal -0 0.2425356250362975 0.97014250014534076
    outer loop
      vertex 52.600000000000001 80.040000000000006 -0.16
      vertex 56.600000000000001 80 -0.14999999999999999
      vertex 56.600000000000001 80.040000000000006 -0.16
    endloop
  endfacet
  facet normal -0 0.2425356250362975 0.97014250014534076
    outer loop
      vertex 51.600000000000001 80.040000000000006 -0.16
      vertex 51.600000000000001 80 -0.14999999999999999
      vertex 52.600000000000001 80.040000000000006 -0.16
    endloop
  endfacet
  facet normal -0 0.2425356250363242 0.9701425001453341
    outer loop
      vertex 56.68 60.079999999999998 -0.12000000000000001
      vertex 56.799999999999997 60.079999999999998 -0.12000000000000001
      vertex 56.799999999999997 60.200000000000003 -0.14999999999999999
    endloop
  endfacet
  facet normal -0 0.2425356250363242 0.97014250014533399
    outer loop
      vertex 56.600000000000001 60.079999999999998 -0.12000000000000001
      vertex 56.68 60.079999999999998 -0.12000000000000001
      vertex 56.799999999999997 60.200000000000003 -0.14999999999999999
    endloop
  endfacet
  facet normal 0 0.2425356250363242 0.9701425001453341
    outer loop
      vertex 56.600000000000001 60.079999999999998 -0.12000000000000001
      vertex 56.799999999999997 60.200000000000003 -0.14999999999999999
      vertex 56.600000000000001 60.200000000000003 -0.14999999999999999
    endloop
  endfacet
  facet normal 0 0 1
    outer loop
      vertex 56.600000000000001 60.200000000000003 -0.14999999999999999
      vertex 56.799999999999997 60.200000000000003 -0.14999999999999999
      vertex 56.799999999999997 80 -0.14999999999999999
    endloop
  endfacet
  facet normal 0 0 1
    outer loop
      vertex 56.600000000000001 60.200000000000003 -0.14999999999999999
      vertex 56.799999999999997 80 -0.14999999999999999
      vertex 56.600000000000001 80 -0.14999999999999999
    endloop
  endfacet
  facet normal 0 0.2425356250362975 0.97014250014534076
    outer loop
      vertex 56.640000000000001 80.040000000000006 -0.16
      vertex 56.600000000000001 80 -0.14999999999999999
      vertex 56.799999999999997 80 -0.14999999999999999
    endloop
  endfacet
  facet normal -0 0.24253562503629753 0.97014250014534087
    outer loop
      vertex 56.640000000000001 80.040000000000006 -0.16
      vertex 56.799999999999997 80 -0.14999999999999999
      vertex 56.799999999999997 80.040000000000006 -0.16
    endloop
  endfacet
  facet normal -0 0.24253562503629753 0.97014250014534087
    outer loop
      vertex 56.600000000000001 80.040000000000006 -0.16
      vertex 56.600000000000001 80 -0.14999999999999999
      vertex 56.640000000000001 80.040000000000006 -0.16
    endloop
  endfacet
  facet normal -0.029091956313327335 0.2424329692777186 0.96973187711091169
    outer loop
      vertex 56.799999999999997 60.079999999999998 -0.12000000000000001
      vertex 57.799999999999997 60.200000000000003 -0.12000000000000001
      vertex 56.799999999999997 60.200000000000003 -0.14999999999999999
    endloop
  endfacet
  facet normal -0.029986509105670987 0 0.99955030352236673
    outer loop
      vertex 57.799999999999997 64.159999999999997 -0.12000000000000001
      vertex 56.799999999999997 60.200000000000003 -0.14999999999999999
      vertex 57.799999999999997 60.200000000000003 -0.12000000000000001
    endloop
  endfacet
  facet normal -0.029986509105670991 0 0.99955030352236673
    outer loop
      vertex 56.799999999999997 60.200000000000003 -0.14999999999999999
      vertex 57.799999999999997 64.159999999999997 -0.12000000000000001
      vertex 57.799999999999997 80 -0.12000000000000001
    endloop
  endfacet
  facet normal -0.029986509105670987 0 0.99955030352236673
    outer loop
      vertex 56.799999999999997 60.200000000000003 -0.14999999999999999
      vertex 57.799999999999997 80 -0.12000000000000001
      vertex 56.799999999999997 80 -0.14999999999999999
    endloop
  endfacet
  facet normal -0.029986509105670987 0 0.99955030352236662
    outer loop
      vertex 57.799999999999997 80.040000000000006 -0.12000000000000001
      vertex 56.799999999999997 80 -0.14999999999999999
      vertex 57.799999999999997 80 -0.12000000000000001
    endloop
  endfacet
  facet normal -0.038776514554656034 0.24235321596656259 0.96941286386640102
    outer loop
      vertex 56.799999999999997 80.040000000000006 -0.16
      vertex 56.799999999999997 80 -0.14999999999999999
      vertex 57.799999999999997 80.040000000000006 -0.12000000000000001
    endloop
  endfacet
  facet normal -0.038776514554655625 0.24235321596660284 0.96941286386639081
    outer loop
      vertex 56.799999999999997 80.040000000000006 -0.16
      vertex 57.799999999999997 80.040000000000006 -0.12000000000000001
      vertex 58.799999999999997 80.200000000000003 -0.12000000000000001
    endloop
  endfacet
  facet normal -0.038776514554655625 0.24235321596660284 0.96941286386639081
    outer loop
      vertex 56.799999999999997 80.040000000000006 -0.16
      vertex 58.799999999999997 80.200000000000003 -0.12000000000000001
      vertex 57.799999999999997 80.200000000000003 -0.16
    endloop
  endfacet
  facet normal -0.039968038348871575 0 0.99920095872178949
    outer loop
      vertex 58.799999999999997 88.120000000000005 -0.12000000000000001
      vertex 57.799999999999997 84.159999999999997 -0.16
      vertex 57.799999999999997 80.200000000000003 -0.16
    endloop
  endfacet
  facet normal -0.039968038348871575 0 0.99920095872178949
    outer loop
      vertex 58.799999999999997 88.120000000000005 -0.12000000000000001
      vertex 57.799999999999997 80.200000000000003 -0.16
      vertex 58.799999999999997 80.200000000000003 -0.12000000000000001
    endloop
  endfacet
  facet normal -0.039968038348871575 0 0.99920095872178949
    outer loop
      vertex 57.799999999999997 84.159999999999997 -0.16
      vertex 58.799999999999997 88.11999999999999 -0.12000000000000001
      vertex 58.799999999999997 100 -0.12000000000000001
    endloop
  endfacet
  facet normal -0.039968038348871575 0 0.99920095872178949
    outer loop
      vertex 57.799999999999997 84.159999999999997 -0.16
      vertex 58.799999999999997 100 -0.12000000000000001
      vertex 57.799999999999997 100 -0.16
    endloop
  endfacet
  facet normal 0.43643578047193482 0.21821789023599647 0.87287156094399343
    outer loop
      vertex 94.959999999999994 20.16 -0.12000000000000001
      vertex 95 20.079999999999998 -0.12000000000000001
      vertex 95 20.199999999999999 -0.14999999999999999
    endloop
  endfacet
  facet normal 0.5999999999999398 -0 0.80000000000004523
    outer loop
      vertex 94.959999999999994 20.16 -0.12000000000000001
      vertex 95 20.199999999999999 -0.14999999999999999
      vertex 94.959999999999994 20.199999999999999 -0.12000000000000001
    endloop
  endfacet
  facet normal 0.5999999999999398 0 0.80000000000004523
    outer loop
      vertex 94.959999999999994 36.039999999999999 -0.12000000000000001
      vertex 94.959999999999994 20.199999999999999 -0.12000000000000001
      vertex 95 20.199999999999999 -0.14999999999999999
    endloop
  endfacet
  facet normal 0.59999999999993969 0 0.80000000000004523
    outer loop
      vertex 94.959999999999994 36.039999999999999 -0.12000000000000001
      vertex 95 20.199999999999999 -0.14999999999999999
      vertex 95 40 -0.14999999999999999
    endloop
  endfacet
  facet normal 0.5999999999999398 -0 0.80000000000004523
    outer loop
      vertex 94.959999999999994 36.039999999999999 -0.12000000000000001
      vertex 95 40 -0.14999999999999999
      vertex 94.959999999999994 40 -0.12000000000000001
    endloop
  endfacet
  facet normal 0.58834840541463473 0.19611613513816514 0.78446454055267878
    outer loop
      vertex 94.959999999999994 40.160000000000004 -0.16
      vertex 94.920000000000002 40.120000000000005 -0.12000000000000001
      vertex 94.959999999999994 40 -0.12000000000000001
    endloop
  endfacet
  facet normal 0.58834840541449229 0.19611613513819032 0.78446454055277948
    outer loop
      vertex 94.959999999999994 40.160000000000004 -0.16
      vertex 94.959999999999994 40 -0.12000000000000001
      vertex 95 40 -0.14999999999999999
    endloop
  endfacet
  facet normal 0.58834840541451461 0.19611613513819479 0.7844645405527616
    outer loop
      vertex 94.959999999999994 40.160000000000004 -0.16
      vertex 95 40 -0.14999999999999999
      vertex 95 40.039999999999999 -0.16
    endloop
  endfacet
  facet normal 0.70710678118649217 0 0.70710678118660286
    outer loop
      vertex 94.919999999999987 40.120000000000005 -0.12000000000000001
      vertex 94.959999999999994 40.160000000000004 -0.16
      vertex 94.959999999999994 40.200000000000003 -0.16
    endloop
  endfacet
  facet normal 0.70710678118661785 -1.2560739669471718e-13 0.7071067811864773
    outer loop
      vertex 94.919999999999987 40.120000000000005 -0.12000000000000001
      vertex 94.959999999999994 40.200000000000003 -0.16
      vertex 94.920000000000002 40.200000000000003 -0.12000000000000001
    endloop
  endfacet
  facet normal 0.70710678118665971 -8.4569908357065719e-16 0.70710678118643544
    outer loop
      vertex 94.959999999999994 56.039999999999999 -0.16
      vertex 94.920000000000002 52.079999999999998 -0.12000000000000001
      vertex 94.919999999999987 40.200000000000003 -0.12000000000000001
    endloop
  endfacet
  facet normal 0.70710678118649217 0 0.70710678118660286
    outer loop
      vertex 94.959999999999994 56.039999999999999 -0.16
      vertex 94.919999999999987 40.200000000000003 -0.12000000000000001
      vertex 94.959999999999994 40.200000000000003 -0.16
    endloop
  endfacet
  facet normal 0.70710678118649217 0 0.70710678118660286
    outer loop
      vertex 94.919999999999987 52.079999999999998 -0.12000000000000001
      vertex 94.959999999999994 56.039999999999999 -0.16
      vertex 94.959999999999994 60 -0.16
    endloop
  endfacet
  facet normal 0.70710678118661785 -1.2687615827748936e-15 0.70710678118647718
    outer loop
      vertex 94.919999999999987 52.079999999999998 -0.12000000000000001
      vertex 94.959999999999994 60 -0.16
      vertex 94.920000000000002 60 -0.12000000000000001
    endloop
  endfacet
  facet normal 0.62469504755436789 -0.46852128566583828 0.62469504755446548
    outer loop
      vertex 94.919999999999987 60 -0.12000000000000001
      vertex 94.959999999999994 60 -0.16
      vertex 95 60.053333333333335 -0.16
    endloop
  endfacet
  facet normal 0.62469504755436789 -0.46852128566583828 0.62469504755446548
    outer loop
      vertex 94.919999999999987 60 -0.12000000000000001
      vertex 95 60.053333333333335 -0.16
      vertex 95 60.106666666666669 -0.12000000000000001
    endloop
  endfacet
  facet normal -0 0.24253562503633097 0.97014250014533243
    outer loop
      vertex 95.079999999999998 20.079999999999998 -0.12000000000000001
      vertex 95.200000000000003 20.079999999999998 -0.12000000000000001
      vertex 95.200000000000003 20.199999999999999 -0.14999999999999999
    endloop
  endfacet
  facet normal -0 0.24253562503633097 0.97014250014533232
    outer loop
      vertex 95 20.079999999999998 -0.12000000000000001
      vertex 95.079999999999998 20.079999999999998 -0.12000000000000001
      vertex 95.200000000000003 20.199999999999999 -0.14999999999999999
    endloop
  endfacet
  facet normal 0 0.24253562503633094 0.97014250014533232
    outer loop
      vertex 95 20.079999999999998 -0.12000000000000001
      vertex 95.200000000000003 20.199999999999999 -0.14999999999999999
      vertex 95 20.199999999999999 -0.14999999999999999
    endloop
  endfacet
  facet normal 0 0 1
    outer loop
      vertex 95 20.199999999999999 -0.14999999999999999
      vertex 95.200000000000003 20.199999999999999 -0.14999999999999999
      vertex 95.200000000000003 40 -0.14999999999999999
    endloop
  endfacet
  facet normal 0 0 1
    outer loop
      vertex 95 20.199999999999999 -0.14999999999999999
      vertex 95.200000000000003 40 -0.14999999999999999
      vertex 95 40 -0.14999999999999999
    endloop
  endfacet
  facet normal 0 0.24253562503633805 0.97014250014533054
    outer loop
      vertex 95.040000000000006 40.039999999999999 -0.16
      vertex 95 40 -0.14999999999999999
      vertex 95.200000000000003 40 -0.14999999999999999
    endloop
  endfacet
  facet normal -0 0.24253562503633805 0.97014250014533066
    outer loop
      vertex 95.040000000000006 40.039999999999999 -0.16
      vertex 95.200000000000003 40 -0.14999999999999999
      vertex 95.200000000000003 40.039999999999999 -0.16
    endloop
  endfacet
  facet normal -0 0.24253562503633805 0.97014250014533066
    outer loop
      vertex 95 40.039999999999999 -0.16
      vertex 95 40 -0.14999999999999999
      vertex 95.040000000000006 40.039999999999999 -0.16
    endloop
  endfacet
  facet normal 0 -0.59999999999999098 0.80000000000000671
    outer loop
      vertex 95.106666666666669 60.106666666666669 -0.12000000000000001
      vertex 95.053333333333327 60.053333333333335 -0.16
      vertex 95.200000000000003 60.053333333333335 -0.16
    endloop
  endfacet
  facet normal 0 -0.5999999999999911 0.80000000000000682
    outer loop
      vertex 95.106666666666669 60.106666666666669 -0.12000000000000001
      vertex 95.200000000000003 60.053333333333335 -0.16
      vertex 95.200000000000003 60.106666666666669 -0.12000000000000001
    endloop
  endfacet
  facet normal 0 -0.5999999999999911 0.80000000000000671
    outer loop
      vertex 95 60.106666666666669 -0.12000000000000001
      vertex 95 60.053333333333335 -0.16
      vertex 95.053333333333327 60.053333333333335 -0.16
    endloop
  endfacet
  facet normal 0 -0.5999999999999911 0.80000000000000671
    outer loop
      vertex 95 60.106666666666669 -0.12000000000000001
      vertex 95.053333333333327 60.053333333333335 -0.16
      vertex 95.106666666666669 60.106666666666669 -0.12000000000000001
    endloop
  endfacet
  facet normal 1.2558631391022664e-13 0.70710678118655512 0.70710678118654013
    outer loop
      vertex 95.359999999999999 -80.040000000000006 -0.16
      vertex 95.320000000000007 -80.079999999999998 -0.12000000000000001
      vertex 95.400000000000006 -80.080000000000013 -0.12000000000000001
    endloop
  endfacet
  facet normal -0 0.70710678118649217 0.70710678118660286
    outer loop
      vertex 95.359999999999999 -80.040000000000006 -0.16
      vertex 95.400000000000006 -80.080000000000013 -0.12000000000000001
      vertex 95.400000000000006 -80.040000000000006 -0.16
    endloop
  endfacet
  facet normal 0.70710678118649217 0 0.70710678118660286
    outer loop
      vertex 95.319999999999993 -80.080000000000013 -0.12000000000000001
      vertex 95.359999999999999 -80.040000000000006 -0.16
      vertex 95.359999999999999 -80 -0.16
    endloop
  endfacet
  facet normal 0.70710678118661785 -1.2560739669469487e-13 0.7071067811864773
    outer loop
      vertex 95.319999999999993 -80.080000000000013 -0.12000000000000001
      vertex 95.359999999999999 -80 -0.16
      vertex 95.320000000000007 -80 -0.12000000000000001
    endloop
  endfacet
  facet normal 0.70710678118665971 -8.456990835706562e-16 0.70710678118643533
    outer loop
      vertex 95.359999999999999 -64.159999999999997 -0.16
      vertex 95.320000000000007 -68.11999999999999 -0.12000000000000001
      vertex 95.319999999999993 -80 -0.12000000000000001
    endloop
  endfacet
  facet normal 0.70710678118649217 0 0.70710678118660286
    outer loop
      vertex 95.359999999999999 -64.159999999999997 -0.16
      vertex 95.319999999999993 -80 -0.12000000000000001
      vertex 95.359999999999999 -80 -0.16
    endloop
  endfacet
  facet normal 0.70710678118649217 0 0.70710678118660286
    outer loop
      vertex 95.319999999999993 -68.120000000000005 -0.12000000000000001
      vertex 95.359999999999999 -64.159999999999997 -0.16
      vertex 95.359999999999999 -60.200000000000003 -0.16
    endloop
  endfacet
  facet normal 0.70710678118661785 -1.2687615827748936e-15 0.70710678118647718
    outer loop
      vertex 95.319999999999993 -68.120000000000005 -0.12000000000000001
      vertex 95.359999999999999 -60.200000000000003 -0.16
      vertex 95.320000000000007 -60.200000000000003 -0.12000000000000001
    endloop
  endfacet
  facet normal 0.57735026918956145 -0.57735026918966403 0.57735026918965182
    outer loop
      vertex 95.319999999999993 -60.200000000000003 -0.12000000000000001
      vertex 95.359999999999999 -60.200000000000003 -0.16
      vertex 95.400000000000006 -60.160000000000004 -0.16
    endloop
  endfacet
  facet normal 0.57735026918956145 -0.57735026918966403 0.57735026918965182
    outer loop
      vertex 95.319999999999993 -60.200000000000003 -0.12000000000000001
      vertex 95.400000000000006 -60.160000000000004 -0.16
      vertex 95.400000000000006 -60.120000000000005 -0.12000000000000001
    endloop
  endfacet
  facet normal -0.58834840541449196 0.19611613513819301 0.78446454055277892
    outer loop
      vertex 95.200000000000003 20.079999999999998 -0.12000000000000001
      vertex 95.240000000000009 20.199999999999999 -0.12000000000000001
      vertex 95.200000000000003 20.199999999999999 -0.14999999999999999
    endloop
  endfacet
  facet normal -0.59999999999993969 0 0.80000000000004512
    outer loop
      vertex 95.240000000000009 24.159999999999997 -0.12000000000000001
      vertex 95.200000000000003 20.199999999999999 -0.14999999999999999
      vertex 95.240000000000009 20.199999999999999 -0.12000000000000001
    endloop
  endfacet
  facet normal -0.5999999999999398 0 0.80000000000004512
    outer loop
      vertex 95.200000000000003 20.199999999999999 -0.14999999999999999
      vertex 95.240000000000009 24.159999999999997 -0.12000000000000001
      vertex 95.240000000000009 40 -0.12000000000000001
    endloop
  endfacet
  facet normal -0.5999999999999398 0 0.80000000000004512
    outer loop
      vertex 95.200000000000003 20.199999999999999 -0.14999999999999999
      vertex 95.240000000000009 40 -0.12000000000000001
      vertex 95.200000000000003 40 -0.14999999999999999
    endloop
  endfacet
  facet normal -0.5999999999999398 0 0.80000000000004523
    outer loop
      vertex 95.240000000000009 40.039999999999999 -0.12000000000000001
      vertex 95.200000000000003 40 -0.14999999999999999
      vertex 95.240000000000009 40 -0.12000000000000001
    endloop
  endfacet
  facet normal -0.69631062382273468 0.17407765595571478 0.6963106238228437
    outer loop
      vertex 95.200000000000003 40.039999999999999 -0.16
      vertex 95.200000000000003 40 -0.14999999999999999
      vertex 95.240000000000009 40.039999999999999 -0.12000000000000001
    endloop
  endfacet
  facet normal -0.69631062382274334 0.17407765595564717 0.69631062382285225
    outer loop
      vertex 95.200000000000003 40.039999999999999 -0.16
      vertex 95.240000000000009 40.039999999999999 -0.12000000000000001
      vertex 95.280000000000001 40.200000000000003 -0.12000000000000001
    endloop
  endfacet
  facet normal -0.69631062382285569 0.1740776559557371 0.69631062382271736
    outer loop
      vertex 95.200000000000003 40.039999999999999 -0.16
      vertex 95.280000000000001 40.200000000000003 -0.12000000000000001
      vertex 95.240000000000009 40.200000000000003 -0.16
    endloop
  endfacet
  facet normal -0.70710678118661785 0 0.70710678118647718
    outer loop
      vertex 95.280000000000001 48.120000000000005 -0.12000000000000001
      vertex 95.240000000000009 44.160000000000004 -0.16
      vertex 95.240000000000009 40.200000000000003 -0.16
    endloop
  endfacet
  facet normal -0.70710678118661785 0 0.70710678118647718
    outer loop
      vertex 95.280000000000001 48.120000000000005 -0.12000000000000001
      vertex 95.240000000000009 40.200000000000003 -0.16
      vertex 95.280000000000001 40.200000000000003 -0.12000000000000001
    endloop
  endfacet
  facet normal -0.70710678118661774 0 0.70710678118647718
    outer loop
      vertex 95.240000000000009 44.160000000000004 -0.16
      vertex 95.280000000000001 48.120000000000005 -0.12000000000000001
      vertex 95.280000000000001 60 -0.12000000000000001
    endloop
  endfacet
  facet normal -0.70710678118661785 0 0.7071067811864773
    outer loop
      vertex 95.240000000000009 44.160000000000004 -0.16
      vertex 95.280000000000001 60 -0.12000000000000001
      vertex 95.240000000000009 60 -0.16
    endloop
  endfacet
  facet normal -0.70710678118661785 0 0.70710678118647718
    outer loop
      vertex 95.280000000000001 60.079999999999998 -0.12000000000000001
      vertex 95.240000000000009 60.039999999999999 -0.16
      vertex 95.240000000000009 60 -0.16
    endloop
  endfacet
  facet normal -0.70710678118661785 0 0.70710678118647718
    outer loop
      vertex 95.280000000000001 60.079999999999998 -0.12000000000000001
      vertex 95.240000000000009 60 -0.16
      vertex 95.280000000000001 60 -0.12000000000000001
    endloop
  endfacet
  facet normal -0.19611613513818119 -0.58834840541454381 0.78446454055274317
    outer loop
      vertex 95.200000000000003 60.106666666666669 -0.12000000000000001
      vertex 95.200000000000003 60.053333333333335 -0.16
      vertex 95.240000000000009 60.039999999999999 -0.16
    endloop
  endfacet
  facet normal -0.1961161351382201 -0.5883484054145558 0.78446454055272441
    outer loop
      vertex 95.200000000000003 60.106666666666669 -0.12000000000000001
      vertex 95.240000000000009 60.039999999999999 -0.16
      vertex 95.280000000000001 60.079999999999998 -0.12000000000000001
    endloop
  endfacet
  facet normal 5.0234525564089588e-15 0.70710678118655501 0.70710678118654002
    outer loop
      vertex 99.400000000000006 -80.040000000000006 -0.16
      vertex 98.400000000000006 -80.079999999999998 -0.12000000000000001
      vertex 100.40000000000001 -80.080000000000013 -0.12000000000000001
    endloop
  endfacet
  facet normal -0 0.70710678118649228 0.70710678118660286
    outer loop
      vertex 99.400000000000006 -80.040000000000006 -0.16
      vertex 100.40000000000001 -80.080000000000013 -0.12000000000000001
      vertex 100.40000000000001 -80.040000000000006 -0.16
    endloop
  endfacet
  facet normal 3.3489683709396031e-15 0.70710678118661785 0.70710678118647718
    outer loop
      vertex 95.400000000000006 -80.040000000000006 -0.16
      vertex 95.400000000000006 -80.079999999999998 -0.12000000000000001
      vertex 98.400000000000006 -80.080000000000013 -0.12000000000000001
    endloop
  endfacet
  facet normal -0 0.70710678118649228 0.70710678118660286
    outer loop
      vertex 95.400000000000006 -80.040000000000006 -0.16
      vertex 98.400000000000006 -80.080000000000013 -0.12000000000000001
      vertex 99.400000000000006 -80.040000000000006 -0.16
    endloop
  endfacet
  facet normal 0 -0.70710678118655501 0.70710678118654002
    outer loop
      vertex 97.400000000000006 -60.120000000000005 -0.12000000000000001
      vertex 96.400000000000006 -60.160000000000004 -0.16
      vertex 100.40000000000001 -60.160000000000004 -0.16
    endloop
  endfacet
  facet normal 0 -0.70710678118655501 0.70710678118654002
    outer loop
      vertex 97.400000000000006 -60.120000000000005 -0.12000000000000001
      vertex 100.40000000000001 -60.160000000000004 -0.16
      vertex 100.40000000000001 -60.120000000000005 -0.12000000000000001
    endloop
  endfacet
  facet normal 0 -0.70710678118655501 0.70710678118654002
    outer loop
      vertex 95.400000000000006 -60.120000000000005 -0.12000000000000001
      vertex 95.400000000000006 -60.160000000000004 -0.16
      vertex 96.400000000000006 -60.160000000000004 -0.16
    endloop
  endfacet
  facet normal 0 -0.70710678118655501 0.70710678118654002
    outer loop
      vertex 95.400000000000006 -60.120000000000005 -0.12000000000000001
      vertex 96.400000000000006 -60.160000000000004 -0.16
      vertex 97.400000000000006 -60.120000000000005 -0.12000000000000001
    endloop
  endfacet
  facet normal 1.2558631391024893e-13 0.70710678118655501 0.70710678118654013
    outer loop
      vertex 100.56 -80.040000000000006 -0.16
      vertex 100.52000000000001 -80.079999999999998 -0.12000000000000001
      vertex 100.59999999999999 -80.080000000000013 -0.12000000000000001
    endloop
  endfacet
  facet normal -0 0.70710678118649228 0.70710678118660286
    outer loop
      vertex 100.56 -80.040000000000006 -0.16
      vertex 100.59999999999999 -80.080000000000013 -0.12000000000000001
      vertex 100.59999999999999 -80.040000000000006 -0.16
    endloop
  endfacet
  facet normal 8.3724209273486907e-14 0.70710678118661785 0.7071067811864773
    outer loop
      vertex 100.40000000000001 -80.040000000000006 -0.16
      vertex 100.40000000000001 -80.079999999999998 -0.12000000000000001
      vertex 100.52000000000001 -80.080000000000013 -0.12000000000000001
    endloop
  endfacet
  facet normal -0 0.70710678118649217 0.70710678118660286
    outer loop
      vertex 100.40000000000001 -80.040000000000006 -0.16
      vertex 100.52000000000001 -80.080000000000013 -0.12000000000000001
      vertex 100.56 -80.040000000000006 -0.16
    endloop
  endfacet
  facet normal 0 -0.70710678118655512 0.70710678118654013
    outer loop
      vertex 100.47999999999999 -60.120000000000005 -0.12000000000000001
      vertex 100.44 -60.160000000000004 -0.16
      vertex 100.59999999999999 -60.160000000000004 -0.16
    endloop
  endfacet
  facet normal 0 -0.7071067811865549 0.70710678118654002
    outer loop
      vertex 100.47999999999999 -60.120000000000005 -0.12000000000000001
      vertex 100.59999999999999 -60.160000000000004 -0.16
      vertex 100.59999999999999 -60.120000000000005 -0.12000000000000001
    endloop
  endfacet
  facet normal 0 -0.70710678118655501 0.70710678118654002
    outer loop
      vertex 100.40000000000001 -60.120000000000005 -0.12000000000000001
      vertex 100.40000000000001 -60.160000000000004 -0.16
      vertex 100.44 -60.160000000000004 -0.16
    endloop
  endfacet
  facet normal 0 -0.70710678118655501 0.70710678118654002
    outer loop
      vertex 100.40000000000001 -60.120000000000005 -0.12000000000000001
      vertex 100.44 -60.160000000000004 -0.16
      vertex 100.47999999999999 -60.120000000000005 -0.12000000000000001
    endloop
  endfacet
  facet normal 1.4374625781409491e-16 0.70710678118654746 0.70710678118654757
    outer loop
      vertex 100.56 0.16 -0.16
      vertex 100.52000000000001 0.12000000000000001 -0.12000000000000001
      vertex 100.59999999999999 0.12 -0.12000000000000001
    endloop
  endfacet
  facet normal -0 0.70710678118654746 0.70710678118654768
    outer loop
      vertex 100.56 0.16 -0.16
      vertex 100.59999999999999 0.12 -0.12000000000000001
      vertex 100.59999999999999 0.16 -0.16
    endloop
  endfacet
  facet normal 0.70710678118661785 0 0.7071067811864773
    outer loop
      vertex 100.52000000000001 0.12 -0.12000000000000001
      vertex 100.56 0.16 -0.16
      vertex 100.56 0.20000000000000001 -0.16
    endloop
  endfacet
  facet normal 0.70710678118661785 -0 0.7071067811864773
    outer loop
      vertex 100.52000000000001 0.12 -0.12000000000000001
      vertex 100.56 0.20000000000000001 -0.16
      vertex 100.52000000000001 0.20000000000000001 -0.12000000000000001
    endloop
  endfacet
  facet normal 0.70710678118661785 0 0.70710678118647718
    outer loop
      vertex 100.56 8.0399999999999991 -0.16
      vertex 100.52000000000001 6.0800000000000001 -0.12000000000000001
      vertex 100.52000000000001 0.20000000000000001 -0.12000000000000001
    endloop
  endfacet
  facet normal 0.70710678118661796 0 0.70710678118647718
    outer loop
      vertex 100.56 8.0399999999999991 -0.16
      vertex 100.52000000000001 0.20000000000000001 -0.12000000000000001
      vertex 100.56 0.20000000000000001 -0.16
    endloop
  endfacet
  facet normal 0.70710678118661785 0 0.7071067811864773
    outer loop
      vertex 100.52000000000001 6.0799999999999992 -0.12000000000000001
      vertex 100.56 8.0399999999999991 -0.16
      vertex 100.56 10 -0.16
    endloop
  endfacet
  facet normal 0.70710678118661774 -0 0.70710678118647718
    outer loop
      vertex 100.52000000000001 6.0799999999999992 -0.12000000000000001
      vertex 100.56 10 -0.16
      vertex 100.52000000000001 10 -0.12000000000000001
    endloop
  endfacet
  facet normal 0.69631062382286268 -0.17407765595568089 0.69631062382272424
    outer loop
      vertex 100.56 10.16 -0.12000000000000001
      vertex 100.52000000000001 10 -0.12000000000000001
      vertex 100.56 10 -0.16
    endloop
  endfacet
  facet normal 0.69631062382286268 -0.17407765595568089 0.69631062382272424
    outer loop
      vertex 100.56 10.16 -0.12000000000000001
      vertex 100.56 10 -0.16
      vertex 100.59999999999999 10.16 -0.16
    endloop
  endfacet
  facet normal 0.69631062382286213 -0.17407765595568483 0.6963106238227238
    outer loop
      vertex 100.56 10.16 -0.12000000000000001
      vertex 100.59999999999999 10.16 -0.16
      vertex 100.59999999999999 10.199999999999999 -0.14999999999999999
    endloop
  endfacet
  facet normal 0.60000000000007636 -0 0.79999999999994287
    outer loop
      vertex 100.56 10.16 -0.12000000000000001
      vertex 100.59999999999999 10.199999999999999 -0.14999999999999999
      vertex 100.56 10.199999999999999 -0.12000000000000001
    endloop
  endfacet
  facet normal 0.60000000000007625 0 0.79999999999994287
    outer loop
      vertex 100.56 18.039999999999999 -0.12000000000000001
      vertex 100.56 10.199999999999999 -0.12000000000000001
      vertex 100.59999999999999 10.199999999999999 -0.14999999999999999
    endloop
  endfacet
  facet normal 0.60000000000007625 0 0.79999999999994287
    outer loop
      vertex 100.56 18.039999999999999 -0.12000000000000001
      vertex 100.59999999999999 10.199999999999999 -0.14999999999999999
      vertex 100.59999999999999 20 -0.14999999999999999
    endloop
  endfacet
  facet normal 0.60000000000007614 -0 0.79999999999994287
    outer loop
      vertex 100.56 18.039999999999999 -0.12000000000000001
      vertex 100.59999999999999 20 -0.14999999999999999
      vertex 100.56 20 -0.12000000000000001
    endloop
  endfacet
  facet normal 0.58834840541462863 -0.19611613513816892 0.78446454055268244
    outer loop
      vertex 100.56 20 -0.12000000000000001
      vertex 100.59999999999999 20 -0.14999999999999999
      vertex 100.59999999999999 20.120000000000001 -0.12000000000000001
    endloop
  endfacet
  facet normal 1.2558631391022664e-13 0.70710678118655512 0.70710678118654013
    outer loop
      vertex 100.75999999999999 -80.040000000000006 -0.16
      vertex 100.72 -80.079999999999998 -0.12000000000000001
      vertex 100.8 -80.080000000000013 -0.12000000000000001
    endloop
  endfacet
  facet normal -0 0.70710678118649217 0.70710678118660286
    outer loop
      vertex 100.75999999999999 -80.040000000000006 -0.16
      vertex 100.8 -80.080000000000013 -0.12000000000000001
      vertex 100.8 -80.040000000000006 -0.16
    endloop
  endfacet
  facet normal 8.3724209273486907e-14 0.70710678118661785 0.7071067811864773
    outer loop
      vertex 100.59999999999999 -80.040000000000006 -0.16
      vertex 100.59999999999999 -80.079999999999998 -0.12000000000000001
      vertex 100.72 -80.080000000000013 -0.12000000000000001
    endloop
  endfacet
  facet normal -0 0.70710678118649217 0.70710678118660286
    outer loop
      vertex 100.59999999999999 -80.040000000000006 -0.16
      vertex 100.72 -80.080000000000013 -0.12000000000000001
      vertex 100.75999999999999 -80.040000000000006 -0.16
    endloop
  endfacet
  facet normal 0 -0.70710678118655512 0.70710678118654013
    outer loop
      vertex 100.68000000000001 -60.120000000000005 -0.12000000000000001
      vertex 100.64 -60.160000000000004 -0.16
      vertex 100.8 -60.160000000000004 -0.16
    endloop
  endfacet
  facet normal 0 -0.70710678118655501 0.70710678118654002
    outer loop
      vertex 100.68000000000001 -60.120000000000005 -0.12000000000000001
      vertex 100.8 -60.160000000000004 -0.16
      vertex 100.8 -60.120000000000005 -0.12000000000000001
    endloop
  endfacet
  facet normal 0 -0.7071067811865549 0.70710678118654002
    outer loop
      vertex 100.59999999999999 -60.120000000000005 -0.12000000000000001
      vertex 100.59999999999999 -60.160000000000004 -0.16
      vertex 100.64 -60.160000000000004 -0.16
    endloop
  endfacet
  facet normal 0 -0.70710678118655512 0.70710678118654013
    outer loop
      vertex 100.59999999999999 -60.120000000000005 -0.12000000000000001
      vertex 100.64 -60.160000000000004 -0.16
      vertex 100.67999999999999 -60.120000000000005 -0.12000000000000001
    endloop
  endfacet
  facet normal 1.4374625781406937e-16 0.70710678118654735 0.70710678118654757
    outer loop
      vertex 100.75999999999999 0.16 -0.16
      vertex 100.72 0.12000000000000001 -0.12000000000000001
      vertex 100.8 0.12 -0.12000000000000001
    endloop
  endfacet
  facet normal -0 0.70710678118654735 0.70710678118654768
    outer loop
      vertex 100.75999999999999 0.16 -0.16
      vertex 100.8 0.12 -0.12000000000000001
      vertex 100.8 0.16 -0.16
    endloop
  endfacet
  facet normal 9.5830838542707266e-17 0.70710678118654757 0.70710678118654757
    outer loop
      vertex 100.59999999999999 0.16 -0.16
      vertex 100.59999999999999 0.12000000000000001 -0.12000000000000001
      vertex 100.72 0.12 -0.12000000000000001
    endloop
  endfacet
  facet normal -0 0.70710678118654735 0.70710678118654768
    outer loop
      vertex 100.59999999999999 0.16 -0.16
      vertex 100.72 0.12 -0.12000000000000001
      vertex 100.75999999999999 0.16 -0.16
    endloop
  endfacet
  facet normal 0 -0.24253562503633805 0.97014250014533066
    outer loop
      vertex 100.75999999999999 10.16 -0.16
      vertex 100.8 10.16 -0.16
      vertex 100.8 10.199999999999999 -0.14999999999999999
    endloop
  endfacet
  facet normal 0 -0.24253562503633805 0.97014250014533066
    outer loop
      vertex 100.59999999999999 10.16 -0.16
      vertex 100.75999999999999 10.16 -0.16
      vertex 100.8 10.199999999999999 -0.14999999999999999
    endloop
  endfacet
  facet normal 0 -0.24253562503633805 0.97014250014533054
    outer loop
      vertex 100.59999999999999 10.16 -0.16
      vertex 100.8 10.199999999999999 -0.14999999999999999
      vertex 100.59999999999999 10.199999999999999 -0.14999999999999999
    endloop
  endfacet
  facet normal 0 0 1
    outer loop
      vertex 100.59999999999999 10.199999999999999 -0.14999999999999999
      vertex 100.8 10.199999999999999 -0.14999999999999999
      vertex 100.8 20 -0.14999999999999999
    endloop
  endfacet
  facet normal 0 0 1
    outer loop
      vertex 100.59999999999999 10.199999999999999 -0.14999999999999999
      vertex 100.8 20 -0.14999999999999999
      vertex 100.59999999999999 20 -0.14999999999999999
    endloop
  endfacet
  facet normal 0 -0.24253562503633094 0.97014250014533232
    outer loop
      vertex 100.72 20.120000000000001 -0.12000000000000001
      vertex 100.59999999999999 20 -0.14999999999999999
      vertex 100.8 20 -0.14999999999999999
    endloop
  endfacet
  facet normal 0 -0.24253562503633097 0.97014250014533232
    outer loop
      vertex 100.72 20.120000000000001 -0.12000000000000001
      vertex 100.8 20 -0.14999999999999999
      vertex 100.8 20.120000000000001 -0.12000000000000001
    endloop
  endfacet
  facet normal 0 -0.24253562503633097 0.97014250014533243
    outer loop
      vertex 100.59999999999999 20.120000000000001 -0.12000000000000001
      vertex 100.59999999999999 20 -0.14999999999999999
      vertex 100.72 20.120000000000001 -0.12000000000000001
    endloop
  endfacet
  facet normal -0.028272964322667904 0.7068241080667127 0.70682410806657214
    outer loop
      vertex 100.8 -80.040000000000006 -0.16
      vertex 100.8 -80.079999999999998 -0.12000000000000001
      vertex 102.8 -80 -0.12000000000000001
    endloop
  endfacet
  facet normal -0.028272964322667904 0.70682410806658713 0.70682410806669771
    outer loop
      vertex 100.8 -80.040000000000006 -0.16
      vertex 102.8 -80 -0.12000000000000001
      vertex 101.8 -80 -0.16
    endloop
  endfacet
  facet normal -0.039968038348871568 0 0.99920095872178938
    outer loop
      vertex 102.8 -72.079999999999998 -0.12000000000000001
      vertex 101.8 -76.039999999999992 -0.16
      vertex 101.8 -80 -0.16
    endloop
  endfacet
  facet normal -0.039968038348871575 0 0.99920095872178949
    outer loop
      vertex 102.8 -72.079999999999998 -0.12000000000000001
      vertex 101.8 -80 -0.16
      vertex 102.8 -80 -0.12000000000000001
    endloop
  endfacet
  facet normal -0.039968038348871575 0 0.99920095872178949
    outer loop
      vertex 101.8 -76.040000000000006 -0.16
      vertex 102.8 -72.080000000000013 -0.12000000000000001
      vertex 102.8 -60.200000000000003 -0.12000000000000001
    endloop
  endfacet
  facet normal -0.039968038348871575 0 0.99920095872178949
    outer loop
      vertex 101.8 -76.040000000000006 -0.16
      vertex 102.8 -60.200000000000003 -0.12000000000000001
      vertex 101.8 -60.200000000000003 -0.16
    endloop
  endfacet
  facet normal -0.039968038348871575 0 0.99920095872178949
    outer loop
      vertex 102.8 -60.120000000000005 -0.12000000000000001
      vertex 101.8 -60.160000000000004 -0.16
      vertex 101.8 -60.200000000000003 -0.16
    endloop
  endfacet
  facet normal -0.039968038348871575 0 0.99920095872178949
    outer loop
      vertex 102.8 -60.120000000000005 -0.12000000000000001
      vertex 101.8 -60.200000000000003 -0.16
      vertex 102.8 -60.200000000000003 -0.12000000000000001
    endloop
  endfacet
  facet normal 0 -0.70710678118655501 0.70710678118654002
    outer loop
      vertex 100.8 -60.120000000000005 -0.12000000000000001
      vertex 100.8 -60.160000000000004 -0.16
      vertex 101.8 -60.160000000000004 -0.16
    endloop
  endfacet
  facet normal 0 -0.70710678118655501 0.70710678118654002
    outer loop
      vertex 100.8 -60.120000000000005 -0.12000000000000001
      vertex 101.8 -60.160000000000004 -0.16
      vertex 102.8 -60.120000000000005 -0.12000000000000001
    endloop
  endfacet
  facet normal -0.0062468285873951042 0.78085357342438677 0.62468285873950913
    outer loop
      vertex 104.8 0.16 -0.16
      vertex 103.8 0.12000000000000001 -0.12000000000000001
      vertex 105.8 0.13600000000000004 -0.12000000000000001
    endloop
  endfacet
  facet normal -0.0062468285873951198 0.78085357342438655 0.62468285873950935
    outer loop
      vertex 104.8 0.16 -0.16
      vertex 105.8 0.13600000000000004 -0.12000000000000001
      vertex 105.8 0.16800000000000004 -0.16
    endloop
  endfacet
  facet normal 3.8332335417084353e-18 0.70710678118654746 0.70710678118654746
    outer loop
      vertex 100.8 0.16 -0.16
      vertex 100.8 0.12000000000000001 -0.12000000000000001
      vertex 103.8 0.12 -0.12000000000000001
    endloop
  endfacet
  facet normal -0 0.70710678118654746 0.70710678118654768
    outer loop
      vertex 100.8 0.16 -0.16
      vertex 103.8 0.12 -0.12000000000000001
      vertex 104.8 0.16 -0.16
    endloop
  endfacet
  facet normal 0 -0.24253562503633802 0.97014250014533054
    outer loop
      vertex 104.8 10.16 -0.16
      vertex 105.8 10.16 -0.16
      vertex 105.8 10.199999999999999 -0.14999999999999999
    endloop
  endfacet
  facet normal 0 -0.24253562503633802 0.97014250014533054
    outer loop
      vertex 100.8 10.16 -0.16
      vertex 104.8 10.16 -0.16
      vertex 105.8 10.199999999999999 -0.14999999999999999
    endloop
  endfacet
  facet normal 0 -0.24253562503633805 0.97014250014533066
    outer loop
      vertex 100.8 10.16 -0.16
      vertex 105.8 10.199999999999999 -0.14999999999999999
      vertex 100.8 10.199999999999999 -0.14999999999999999
    endloop
  endfacet
  facet normal 0 0 1
    outer loop
      vertex 100.8 10.199999999999999 -0.14999999999999999
      vertex 105.8 10.199999999999999 -0.14999999999999999
      vertex 105.8 20 -0.14999999999999999
    endloop
  endfacet
  facet normal 0 0 1
    outer loop
      vertex 100.8 10.199999999999999 -0.14999999999999999
      vertex 105.8 20 -0.14999999999999999
      vertex 100.8 20 -0.14999999999999999
    endloop
  endfacet
  facet normal 0 -0.24253562503633094 0.97014250014533232
    outer loop
      vertex 103.8 20.120000000000001 -0.12000000000000001
      vertex 100.8 20 -0.14999999999999999
      vertex 105.8 20 -0.14999999999999999
    endloop
  endfacet
  facet normal 0 -0.24253562503633094 0.97014250014533232
    outer loop
      vertex 103.8 20.120000000000001 -0.12000000000000001
      vertex 105.8 20 -0.14999999999999999
      vertex 105.8 20.120000000000001 -0.12000000000000001
    endloop
  endfacet
  facet normal 0 -0.24253562503633097 0.97014250014533243
    outer loop
      vertex 100.8 20.120000000000001 -0.12000000000000001
      vertex 100.8 20 -0.14999999999999999
      vertex 103.8 20.120000000000001 -0.12000000000000001
    endloop
  endfacet
  facet normal -3.3071080454077987e-16 0.78086880944303039 0.62469504755442418
    outer loop
      vertex 105.968 0.16800000000000001 -0.16
      vertex 105.93600000000001 0.13600000000000001 -0.12000000000000001
      vertex 106 0.13600000000000004 -0.12000000000000001
    endloop
  endfacet
  facet normal -6.7729572769951689e-16 0.78086880944303028 0.6246950475544244
    outer loop
      vertex 105.968 0.16800000000000001 -0.16
      vertex 106 0.13600000000000004 -0.12000000000000001
      vertex 106 0.16800000000000004 -0.16
    endloop
  endfacet
  facet normal -1.5562861390151494e-16 0.78086880944303028 0.62469504755442429
    outer loop
      vertex 105.8 0.16800000000000001 -0.16
      vertex 105.8 0.13600000000000001 -0.12000000000000001
      vertex 105.93600000000001 0.13600000000000004 -0.12000000000000001
    endloop
  endfacet
  facet normal -1.2900871003798411e-16 0.78086880944303028 0.62469504755442418
    outer loop
      vertex 105.8 0.16800000000000001 -0.16
      vertex 105.93600000000001 0.13600000000000004 -0.12000000000000001
      vertex 105.968 0.16800000000000004 -0.16
    endloop
  endfacet
  facet normal 0 -0.24253562503633805 0.97014250014533066
    outer loop
      vertex 105.95999999999999 10.16 -0.16
      vertex 106 10.16 -0.16
      vertex 106 10.199999999999999 -0.14999999999999999
    endloop
  endfacet
  facet normal 0 -0.24253562503633805 0.97014250014533066
    outer loop
      vertex 105.8 10.16 -0.16
      vertex 105.95999999999999 10.16 -0.16
      vertex 106 10.199999999999999 -0.14999999999999999
    endloop
  endfacet
  facet normal 0 -0.24253562503633805 0.97014250014533054
    outer loop
      vertex 105.8 10.16 -0.16
      vertex 106 10.199999999999999 -0.14999999999999999
      vertex 105.8 10.199999999999999 -0.14999999999999999
    endloop
  endfacet
  facet normal 0 0 1
    outer loop
      vertex 105.8 10.199999999999999 -0.14999999999999999
      vertex 106 10.199999999999999 -0.14999999999999999
      vertex 106 20 -0.14999999999999999
    endloop
  endfacet
  facet normal 0 0 1
    outer loop
      vertex 105.8 10.199999999999999 -0.14999999999999999
      vertex 106 20 -0.14999999999999999
      vertex 105.8 20 -0.14999999999999999
    endloop
  endfacet
  facet normal 0 -0.24253562503633094 0.97014250014533232
    outer loop
      vertex 105.92 20.120000000000001 -0.12000000000000001
      vertex 105.8 20 -0.14999999999999999
      vertex 106 20 -0.14999999999999999
    endloop
  endfacet
  facet normal 0 -0.24253562503633097 0.97014250014533232
    outer loop
      vertex 105.92 20.120000000000001 -0.12000000000000001
      vertex 106 20 -0.14999999999999999
      vertex 106 20.120000000000001 -0.12000000000000001
    endloop
  endfacet
  facet normal 0 -0.24253562503633097 0.97014250014533243
    outer loop
      vertex 105.8 20.120000000000001 -0.12000000000000001
      vertex 105.8 20 -0.14999999999999999
      vertex 105.92 20.120000000000001 -0.12000000000000001
    endloop
  endfacet
  facet normal -0.52981294282595792 0.66226617853255088 0.52981294282604074
    outer loop
      vertex 106 0.16800000000000001 -0.16
      vertex 106 0.13600000000000001 -0.12000000000000001
      vertex 106.08000000000001 0.20000000000000001 -0.12000000000000001
    endloop
  endfacet
  facet normal -0.52981294282595792 0.66226617853255088 0.52981294282604074
    outer loop
      vertex 106 0.16800000000000001 -0.16
      vertex 106.08000000000001 0.20000000000000001 -0.12000000000000001
      vertex 106.04000000000001 0.20000000000000001 -0.16
    endloop
  endfacet
  facet normal -0.70710678118649228 0 0.70710678118660286
    outer loop
      vertex 106.08000000000001 4.1200000000000001 -0.12000000000000001
      vertex 106.04000000000001 2.1600000000000001 -0.16
      vertex 106.04000000000001 0.20000000000000001 -0.16
    endloop
  endfacet
  facet normal -0.70710678118661774 2.5634162590758057e-15 0.70710678118647718
    outer loop
      vertex 106.08000000000001 4.1200000000000001 -0.12000000000000001
      vertex 106.04000000000001 0.20000000000000001 -0.16
      vertex 106.08 0.20000000000000001 -0.12000000000000001
    endloop
  endfacet
  facet normal -0.70710678118665959 1.7086573321121434e-15 0.70710678118643533
    outer loop
      vertex 106.04000000000001 2.1600000000000006 -0.16
      vertex 106.08 4.1200000000000001 -0.12000000000000001
      vertex 106.08000000000001 10 -0.12000000000000001
    endloop
  endfacet
  facet normal -0.70710678118649228 0 0.70710678118660286
    outer loop
      vertex 106.04000000000001 2.1600000000000006 -0.16
      vertex 106.08000000000001 10 -0.12000000000000001
      vertex 106.04000000000001 10 -0.16
    endloop
  endfacet
  facet normal -0.70710678118649217 0 0.70710678118660286
    outer loop
      vertex 106.08000000000001 10.079999999999998 -0.12000000000000001
      vertex 106.04000000000001 10.039999999999999 -0.16
      vertex 106.04000000000001 10 -0.16
    endloop
  endfacet
  facet normal -0.70710678118661785 1.2560739669471718e-13 0.7071067811864773
    outer loop
      vertex 106.08000000000001 10.079999999999998 -0.12000000000000001
      vertex 106.04000000000001 10 -0.16
      vertex 106.08 10 -0.12000000000000001
    endloop
  endfacet
  facet normal -0.58834840541459132 -0.19611613513822615 0.78446454055269632
    outer loop
      vertex 106 10.16 -0.16
      vertex 106.04000000000001 10.039999999999999 -0.16
      vertex 106.08 10.079999999999998 -0.12000000000000001
    endloop
  endfacet
  facet normal -0.58834840541453493 -0.19611613513813769 0.7844645405527606
    outer loop
      vertex 106 10.16 -0.16
      vertex 106.08 10.079999999999998 -0.12000000000000001
      vertex 106.04000000000001 10.199999999999999 -0.12000000000000001
    endloop
  endfacet
  facet normal -0.58834840541449118 -0.19611613513819887 0.78446454055277803
    outer loop
      vertex 106 10.16 -0.16
      vertex 106.04000000000001 10.199999999999999 -0.12000000000000001
      vertex 106 10.199999999999999 -0.14999999999999999
    endloop
  endfacet
  facet normal -0.5999999999999398 0 0.80000000000004523
    outer loop
      vertex 106.04000000000001 12.16 -0.12000000000000001
      vertex 106 10.199999999999999 -0.14999999999999999
      vertex 106.04000000000001 10.199999999999999 -0.12000000000000001
    endloop
  endfacet
  facet normal -0.5999999999999398 0 0.80000000000004512
    outer loop
      vertex 106 10.199999999999999 -0.14999999999999999
      vertex 106.04000000000001 12.159999999999998 -0.12000000000000001
      vertex 106.04000000000001 20 -0.12000000000000001
    endloop
  endfacet
  facet normal -0.5999999999999398 0 0.80000000000004523
    outer loop
      vertex 106 10.199999999999999 -0.14999999999999999
      vertex 106.04000000000001 20 -0.12000000000000001
      vertex 106 20 -0.14999999999999999
    endloop
  endfacet
  facet normal -0.5999999999999398 0 0.80000000000004523
    outer loop
      vertex 106.04000000000001 20.039999999999999 -0.12000000000000001
      vertex 106 20 -0.14999999999999999
      vertex 106.04000000000001 20 -0.12000000000000001
    endloop
  endfacet
  facet normal -0.43643578047193482 -0.21821789023599647 0.87287156094399343
    outer loop
      vertex 106 20.120000000000001 -0.12000000000000001
      vertex 106 20 -0.14999999999999999
      vertex 106.04000000000001 20.039999999999999 -0.12000000000000001
    endloop
  endfacet
endsolid terrain_band_2
