solid terrain_band_5
  facet normal -0.44721359549996564 0 0.89442719099991208
    outer loop
      vertex 50.200000000000003 -40 0.10000000000000001
      vertex 50.160000000000004 -44 0.080000000000000002
      vertex 50.160000000000004 -60 0.080000000000000002
    endloop
  endfacet
  facet normal -0.44721359549996564 0 0.89442719099991208
    outer loop
      vertex 50.200000000000003 -40 0.10000000000000001
      vertex 50.160000000000004 -60 0.080000000000000002
      vertex 50.200000000000003 -60 0.10000000000000001
    endloop
  endfacet
  facet normal -0.44721359549996564 0 0.89442719099991208
    outer loop
      vertex 50.160000000000004 -44 0.080000000000000002
      vertex 50.200000000000003 -40 0.10000000000000001
      vertex 50.160000000000004 -40 0.080000000000000002
    endloop
  endfacet
  facet normal -0.44721359549996564 0 0.89442719099991208
    outer loop
      vertex 50.200000000000003 -20 0.10000000000000001
      vertex 50.160000000000004 -24 0.080000000000000002
      vertex 50.160000000000004 -40 0.080000000000000002
    endloop
  endfacet
  facet normal -0.44721359549996564 0 0.89442719099991208
    outer loop
      vertex 50.200000000000003 -20 0.10000000000000001
      vertex 50.160000000000004 -40 0.080000000000000002
      vertex 50.200000000000003 -40 0.10000000000000001
    endloop
  endfacet
  facet normal -0.44721359549996564 0 0.89442719099991208
    outer loop
      vertex 50.160000000000004 -24 0.080000000000000002
      vertex 50.200000000000003 -20 0.10000000000000001
      vertex 50.160000000000004 -20 0.080000000000000002
    endloop
  endfacet
  facet normal -0.44721359549996564 0 0.89442719099991208
    outer loop
      vertex 50.200000000000003 -10 0.10000000000000001
      vertex 50.160000000000004 -12 0.080000000000000002
      vertex 50.160000000000004 -20 0.080000000000000002
    endloop
  endfacet
  facet normal -0.44721359549996564 0 0.89442719099991208
    outer loop
      vertex 50.200000000000003 -10 0.10000000000000001
      vertex 50.160000000000004 -20 0.080000000000000002
      vertex 50.200000000000003 -20 0.10000000000000001
    endloop
  endfacet
  facet normal -0.44721359549996564 0 0.89442719099991208
    outer loop
      vertex 50.160000000000004 -12 0.080000000000000002
      vertex 50.200000000000003 -10 0.10000000000000001
      vertex 50.160000000000004 -10 0.080000000000000002
    endloop
  endfacet
  facet normal -0.44721359549996564 0 0.89442719099991208
    outer loop
      vertex 50.200000000000003 0 0.10000000000000001
      vertex 50.160000000000004 -2.0000000000000004 0.080000000000000002
      vertex 50.160000000000004 -10 0.080000000000000002
    endloop
  endfacet
  facet normal -0.44721359549996564 0 0.89442719099991208
    outer loop
      vertex 50.200000000000003 0 0.10000000000000001
      vertex 50.160000000000004 -10 0.080000000000000002
      vertex 50.200000000000003 -10 0.10000000000000001
    endloop
  endfacet
  facet normal -0.44721359549996559 0 0.89442719099991197
    outer loop
      vertex 50.160000000000004 -2.0000000000000009 0.080000000000000002
      vertex 50.200000000000003 0 0.10000000000000001
      vertex 50.160000000000004 0 0.080000000000000002
    endloop
  endfacet
  facet normal -0.4472135954999657 0 0.89442719099991208
    outer loop
      vertex 50.200000000000003 0.001 0.10000000000000001
      vertex 50.160000000000004 0.00079999999999999993 0.080000000000000002
      vertex 50.160000000000004 0 0.080000000000000002
    endloop
  endfacet
  facet normal -0.44721359549996564 0 0.89442719099991197
    outer loop
      vertex 50.200000000000003 0.001 0.10000000000000001
      vertex 50.160000000000004 0 0.080000000000000002
      vertex 50.200000000000003 0 0.10000000000000001
    endloop
  endfacet
  facet normal -0.44721359549996559 0 0.89442719099991208
    outer loop
      vertex 50.160000000000004 0.00079999999999999993 0.080000000000000002
      vertex 50.200000000000003 0.001 0.10000000000000001
      vertex 50.160000000000004 0.001 0.080000000000000002
    endloop
  endfacet
  facet normal -0.44721359549996564 0 0.89442719099991208
    outer loop
      vertex 50.200000000000003 10 0.10000000000000001
      vertex 50.160000000000004 8.0001999999999995 0.080000000000000002
      vertex 50.160000000000004 0.001 0.080000000000000002
    endloop
  endfacet
  facet normal -0.44721359549996564 0 0.89442719099991208
    outer loop
      vertex 50.200000000000003 10 0.10000000000000001
      vertex 50.160000000000004 0.001 0.080000000000000002
      vertex 50.200000000000003 0.001 0.10000000000000001
    endloop
  endfacet
  facet normal -0.44721359549996564 0 0.89442719099991208
    outer loop
      vertex 50.160000000000004 8.0001999999999995 0.080000000000000002
      vertex 50.200000000000003 10 0.10000000000000001
      vertex 50.160000000000004 10 0.080000000000000002
    endloop
  endfacet
  facet normal -0.44721359549996564 0 0.89442719099991208
    outer loop
      vertex 50.200000000000003 20 0.10000000000000001
      vertex 50.160000000000004 18 0.080000000000000002
      vertex 50.160000000000004 10 0.080000000000000002
    endloop
  endfacet
  facet normal -0.44721359549996564 0 0.89442719099991208
    outer loop
      vertex 50.200000000000003 20 0.10000000000000001
      vertex 50.160000000000004 10 0.080000000000000002
      vertex 50.200000000000003 10 0.10000000000000001
    endloop
  endfacet
  facet normal -0.44721359549996564 0 0.89442719099991208
    outer loop
      vertex 50.160000000000004 18 0.080000000000000002
      vertex 50.200000000000003 20 0.10000000000000001
      vertex 50.160000000000004 20 0.080000000000000002
    endloop
  endfacet
  facet normal -0.44721359549996564 0 0.89442719099991208
    outer loop
      vertex 50.200000000000003 40 0.10000000000000001
      vertex 50.160000000000004 36 0.080000000000000002
      vertex 50.160000000000004 20 0.080000000000000002
    endloop
  endfacet
  facet normal -0.44721359549996564 0 0.89442719099991208
    outer loop
      vertex 50.200000000000003 40 0.10000000000000001
      vertex 50.160000000000004 20 0.080000000000000002
      vertex 50.200000000000003 20 0.10000000000000001
    endloop
  endfacet
  facet normal -0.44721359549996564 0 0.89442719099991208
    outer loop
      vertex 50.160000000000004 36 0.080000000000000002
      vertex 50.200000000000003 40 0.10000000000000001
      vertex 50.160000000000004 40 0.080000000000000002
    endloop
  endfacet
  facet normal -0.44721359549996564 0 0.89442719099991208
    outer loop
      vertex 50.200000000000003 60 0.10000000000000001
      vertex 50.160000000000004 56 0.080000000000000002
      vertex 50.160000000000004 40 0.080000000000000002
    endloop
  endfacet
  facet normal -0.44721359549996564 0 0.89442719099991208
    outer loop
      vertex 50.200000000000003 60 0.10000000000000001
      vertex 50.160000000000004 40 0.080000000000000002
      vertex 50.200000000000003 40 0.10000000000000001
    endloop
  endfacet
  facet normal -0.44721359549996564 0 0.89442719099991208
    outer loop
      vertex 50.160000000000004 56 0.080000000000000002
      vertex 50.200000000000003 60 0.10000000000000001
      vertex 50.160000000000004 60 0.080000000000000002
    endloop
  endfacet
  facet normal 0.44721359549996564 0 0.89442719099991208
    outer loop
      vertex 50.839999999999996 -56 0.080000000000000002
      vertex 50.799999999999997 -60 0.10000000000000001
      vertex 50.839999999999996 -60 0.080000000000000002
    endloop
  endfacet
  facet normal 0.44721359549996564 0 0.89442719099991208
    outer loop
      vertex 50.799999999999997 -60 0.10000000000000001
      vertex 50.839999999999996 -56 0.080000000000000002
      vertex 50.839999999999996 -40 0.080000000000000002
    endloop
  endfacet
  facet normal 0.44721359549996564 -0 0.89442719099991208
    outer loop
      vertex 50.799999999999997 -60 0.10000000000000001
      vertex 50.839999999999996 -40 0.080000000000000002
      vertex 50.799999999999997 -40 0.10000000000000001
    endloop
  endfacet
  facet normal 0.44721359549996564 0 0.89442719099991208
    outer loop
      vertex 50.839999999999996 -36 0.080000000000000002
      vertex 50.799999999999997 -40 0.10000000000000001
      vertex 50.839999999999996 -40 0.080000000000000002
    endloop
  endfacet
  facet normal 0.44721359549996564 0 0.89442719099991208
    outer loop
      vertex 50.799999999999997 -40 0.10000000000000001
      vertex 50.839999999999996 -36 0.080000000000000002
      vertex 50.839999999999996 -20 0.080000000000000002
    endloop
  endfacet
  facet normal 0.44721359549996564 -0 0.89442719099991208
    outer loop
      vertex 50.799999999999997 -40 0.10000000000000001
      vertex 50.839999999999996 -20 0.080000000000000002
      vertex 50.799999999999997 -20 0.10000000000000001
    endloop
  endfacet
  facet normal 0.44721359549996564 0 0.89442719099991208
    outer loop
      vertex 50.839999999999996 -18 0.080000000000000002
      vertex 50.799999999999997 -20 0.10000000000000001
      vertex 50.839999999999996 -20 0.080000000000000002
    endloop
  endfacet
  facet normal 0.44721359549996564 0 0.89442719099991208
    outer loop
      vertex 50.799999999999997 -20 0.10000000000000001
      vertex 50.839999999999996 -18 0.080000000000000002
      vertex 50.839999999999996 -10 0.080000000000000002
    endloop
  endfacet
  facet normal 0.44721359549996564 -0 0.89442719099991208
    outer loop
      vertex 50.799999999999997 -20 0.10000000000000001
      vertex 50.839999999999996 -10 0.080000000000000002
      vertex 50.799999999999997 -10 0.10000000000000001
    endloop
  endfacet
  facet normal 0.44721359549996559 0 0.89442719099991197
    outer loop
      vertex 50.839999999999996 -7.9999999999999991 0.080000000000000002
      vertex 50.799999999999997 -10 0.10000000000000001
      vertex 50.839999999999996 -10 0.080000000000000002
    endloop
  endfacet
  facet normal 0.44721359549996564 0 0.89442719099991208
    outer loop
      vertex 50.799999999999997 -10 0.10000000000000001
      vertex 50.839999999999996 -8 0.080000000000000002
      vertex 50.839999999999996 0 0.080000000000000002
    endloop
  endfacet
  facet normal 0.44721359549996564 -0 0.89442719099991208
    outer loop
      vertex 50.799999999999997 -10 0.10000000000000001
      vertex 50.839999999999996 0 0.080000000000000002
      vertex 50.799999999999997 0 0.10000000000000001
    endloop
  endfacet
  facet normal 0.44721359549996559 0 0.89442719099991208
    outer loop
      vertex 50.839999999999996 0.00020000000000000009 0.080000000000000002
      vertex 50.799999999999997 0 0.10000000000000001
      vertex 50.839999999999996 0 0.080000000000000002
    endloop
  endfacet
  facet normal 0.44721359549996559 0 0.89442719099991208
    outer loop
      vertex 50.799999999999997 0 0.10000000000000001
      vertex 50.839999999999996 0.00020000000000000004 0.080000000000000002
      vertex 50.839999999999996 0.001 0.080000000000000002
    endloop
  endfacet
  facet normal 0.44721359549996564 -0 0.89442719099991197
    outer loop
      vertex 50.799999999999997 0 0.10000000000000001
      vertex 50.839999999999996 0.001 0.080000000000000002
      vertex 50.799999999999997 0.001 0.10000000000000001
    endloop
  endfacet
  facet normal 0.44721359549996564 0 0.89442719099991208
    outer loop
      vertex 50.839999999999996 2.0007999999999999 0.080000000000000002
      vertex 50.799999999999997 0.001 0.10000000000000001
      vertex 50.839999999999996 0.001 0.080000000000000002
    endloop
  endfacet
  facet normal 0.44721359549996564 0 0.89442719099991208
    outer loop
      vertex 50.799999999999997 0.001 0.10000000000000001
      vertex 50.839999999999996 2.0008000000000004 0.080000000000000002
      vertex 50.839999999999996 10 0.080000000000000002
    endloop
  endfacet
  facet normal 0.44721359549996564 -0 0.89442719099991208
    outer loop
      vertex 50.799999999999997 0.001 0.10000000000000001
      vertex 50.839999999999996 10 0.080000000000000002
      vertex 50.799999999999997 10 0.10000000000000001
    endloop
  endfacet
  facet normal 0.44721359549996564 0 0.89442719099991208
    outer loop
      vertex 50.839999999999996 12 0.080000000000000002
      vertex 50.799999999999997 10 0.10000000000000001
      vertex 50.839999999999996 10 0.080000000000000002
    endloop
  endfacet
  facet normal 0.44721359549996564 0 0.89442719099991208
    outer loop
      vertex 50.799999999999997 10 0.10000000000000001
      vertex 50.839999999999996 12 0.080000000000000002
      vertex 50.839999999999996 20 0.080000000000000002
    endloop
  endfacet
  facet normal 0.44721359549996564 -0 0.89442719099991208
    outer loop
      vertex 50.799999999999997 10 0.10000000000000001
      vertex 50.839999999999996 20 0.080000000000000002
      vertex 50.799999999999997 20 0.10000000000000001
    endloop
  endfacet
  facet normal 0.44721359549996564 0 0.89442719099991208
    outer loop
      vertex 50.839999999999996 24 0.080000000000000002
      vertex 50.799999999999997 20 0.10000000000000001
      vertex 50.839999999999996 20 0.080000000000000002
    endloop
  endfacet
  facet normal 0.44721359549996564 0 0.89442719099991208
    outer loop
      vertex 50.799999999999997 20 0.10000000000000001
      vertex 50.839999999999996 24 0.080000000000000002
      vertex 50.839999999999996 40 0.080000000000000002
    endloop
  endfacet
  facet normal 0.44721359549996564 -0 0.89442719099991208
    outer loop
      vertex 50.799999999999997 20 0.10000000000000001
      vertex 50.839999999999996 40 0.080000000000000002
      vertex 50.799999999999997 40 0.10000000000000001
    endloop
  endfacet
  facet normal 0.44721359549996564 0 0.89442719099991208
    outer loop
      vertex 50.839999999999996 44 0.080000000000000002
      vertex 50.799999999999997 40 0.10000000000000001
      vertex 50.839999999999996 40 0.080000000000000002
    endloop
  endfacet
  facet normal 0.44721359549996564 0 0.89442719099991208
    outer loop
      vertex 50.799999999999997 40 0.10000000000000001
      vertex 50.839999999999996 44 0.080000000000000002
      vertex 50.839999999999996 60 0.080000000000000002
    endloop
  endfacet
  facet normal 0.44721359549996564 -0 0.89442719099991208
    outer loop
      vertex 50.799999999999997 40 0.10000000000000001
      vertex 50.839999999999996 60 0.080000000000000002
      vertex 50.799999999999997 60 0.10000000000000001
    endloop
  endfacet
  facet normal -0.44721359549990208 0 0.89442719099994383
    outer loop
      vertex 75.200000000000003 -40 0.10000000000000001
      vertex 75.159999999999997 -44 0.080000000000000002
      vertex 75.159999999999997 -60 0.080000000000000002
    endloop
  endfacet
  facet normal -0.44721359549990208 0 0.89442719099994383
    outer loop
      vertex 75.200000000000003 -40 0.10000000000000001
      vertex 75.159999999999997 -60 0.080000000000000002
      vertex 75.200000000000003 -60 0.10000000000000001
    endloop
  endfacet
  facet normal -0.44721359549990208 0 0.89442719099994383
    outer loop
      vertex 75.159999999999997 -44 0.080000000000000002
      vertex 75.200000000000003 -40 0.10000000000000001
      vertex 75.159999999999997 -40 0.080000000000000002
    endloop
  endfacet
  facet normal -0.44721359549990208 0 0.89442719099994383
    outer loop
      vertex 75.200000000000003 -20 0.10000000000000001
      vertex 75.159999999999997 -24 0.080000000000000002
      vertex 75.159999999999997 -40 0.080000000000000002
    endloop
  endfacet
  facet normal -0.44721359549990208 0 0.89442719099994383
    outer loop
      vertex 75.200000000000003 -20 0.10000000000000001
      vertex 75.159999999999997 -40 0.080000000000000002
      vertex 75.200000000000003 -40 0.10000000000000001
    endloop
  endfacet
  facet normal -0.44721359549990208 0 0.89442719099994383
    outer loop
      vertex 75.159999999999997 -24 0.080000000000000002
      vertex 75.200000000000003 -20 0.10000000000000001
      vertex 75.159999999999997 -20 0.080000000000000002
    endloop
  endfacet
  facet normal -0.44721359549990208 0 0.89442719099994383
    outer loop
      vertex 75.200000000000003 -10 0.10000000000000001
      vertex 75.159999999999997 -12 0.080000000000000002
      vertex 75.159999999999997 -20 0.080000000000000002
    endloop
  endfacet
  facet normal -0.44721359549990208 0 0.89442719099994383
    outer loop
      vertex 75.200000000000003 -10 0.10000000000000001
      vertex 75.159999999999997 -20 0.080000000000000002
      vertex 75.200000000000003 -20 0.10000000000000001
    endloop
  endfacet
  facet normal -0.44721359549990208 0 0.89442719099994383
    outer loop
      vertex 75.159999999999997 -12 0.080000000000000002
      vertex 75.200000000000003 -10 0.10000000000000001
      vertex 75.159999999999997 -10 0.080000000000000002
    endloop
  endfacet
  facet normal -0.44721359549990208 0 0.89442719099994383
    outer loop
      vertex 75.200000000000003 0 0.10000000000000001
      vertex 75.159999999999997 -2.0000000000000004 0.080000000000000002
      vertex 75.159999999999997 -10 0.080000000000000002
    endloop
  endfacet
  facet normal -0.44721359549990208 0 0.89442719099994383
    outer loop
      vertex 75.200000000000003 0 0.10000000000000001
      vertex 75.159999999999997 -10 0.080000000000000002
      vertex 75.200000000000003 -10 0.10000000000000001
    endloop
  endfacet
  facet normal -0.44721359549990214 0 0.89442719099994383
    outer loop
      vertex 75.159999999999997 -2.0000000000000009 0.080000000000000002
      vertex 75.200000000000003 0 0.10000000000000001
      vertex 75.159999999999997 0 0.080000000000000002
    endloop
  endfacet
  facet normal -0.44721359549990214 0 0.89442719099994372
    outer loop
      vertex 75.200000000000003 0.001 0.10000000000000001
      vertex 75.159999999999997 0.00079999999999999993 0.080000000000000002
      vertex 75.159999999999997 0 0.080000000000000002
    endloop
  endfacet
  facet normal -0.44721359549990214 0 0.89442719099994383
    outer loop
      vertex 75.200000000000003 0.001 0.10000000000000001
      vertex 75.159999999999997 0 0.080000000000000002
      vertex 75.200000000000003 0 0.10000000000000001
    endloop
  endfacet
  facet normal -0.44721359549990197 0 0.89442719099994372
    outer loop
      vertex 75.159999999999997 0.00079999999999999993 0.080000000000000002
      vertex 75.200000000000003 0.001 0.10000000000000001
      vertex 75.159999999999997 0.001 0.080000000000000002
    endloop
  endfacet
  facet normal -0.44721359549990208 0 0.89442719099994383
    outer loop
      vertex 75.200000000000003 10 0.10000000000000001
      vertex 75.159999999999997 8.0001999999999995 0.080000000000000002
      vertex 75.159999999999997 0.001 0.080000000000000002
    endloop
  endfacet
  facet normal -0.44721359549990208 0 0.89442719099994383
    outer loop
      vertex 75.200000000000003 10 0.10000000000000001
      vertex 75.159999999999997 0.001 0.080000000000000002
      vertex 75.200000000000003 0.001 0.10000000000000001
    endloop
  endfacet
  facet normal -0.44721359549990208 0 0.89442719099994383
    outer loop
      vertex 75.159999999999997 8.0001999999999995 0.080000000000000002
      vertex 75.200000000000003 10 0.10000000000000001
      vertex 75.159999999999997 10 0.080000000000000002
    endloop
  endfacet
  facet normal -0.44721359549990208 0 0.89442719099994383
    outer loop
      vertex 75.200000000000003 20 0.10000000000000001
      vertex 75.159999999999997 18 0.080000000000000002
      vertex 75.159999999999997 10 0.080000000000000002
    endloop
  endfacet
  facet normal -0.44721359549990208 0 0.89442719099994383
    outer loop
      vertex 75.200000000000003 20 0.10000000000000001
      vertex 75.159999999999997 10 0.080000000000000002
      vertex 75.200000000000003 10 0.10000000000000001
    endloop
  endfacet
  facet normal -0.44721359549990208 0 0.89442719099994383
    outer loop
      vertex 75.159999999999997 18 0.080000000000000002
      vertex 75.200000000000003 20 0.10000000000000001
      vertex 75.159999999999997 20 0.080000000000000002
    endloop
  endfacet
  facet normal -0.44721359549990208 0 0.89442719099994383
    outer loop
      vertex 75.200000000000003 40 0.10000000000000001
      vertex 75.159999999999997 36 0.080000000000000002
      vertex 75.159999999999997 20 0.080000000000000002
    endloop
  endfacet
  facet normal -0.44721359549990208 0 0.89442719099994383
    outer loop
      vertex 75.200000000000003 40 0.10000000000000001
      vertex 75.159999999999997 20 0.080000000000000002
      vertex 75.200000000000003 20 0.10000000000000001
    endloop
  endfacet
  facet normal -0.44721359549990208 0 0.89442719099994383
    outer loop
      vertex 75.159999999999997 36 0.080000000000000002
      vertex 75.200000000000003 40 0.10000000000000001
      vertex 75.159999999999997 40 0.080000000000000002
    endloop
  endfacet
  facet normal -0.44721359549990208 0 0.89442719099994383
    outer loop
      vertex 75.200000000000003 60 0.10000000000000001
      vertex 75.159999999999997 56 0.080000000000000002
      vertex 75.159999999999997 40 0.080000000000000002
    endloop
  endfacet
  facet normal -0.44721359549990208 0 0.89442719099994383
    outer loop
      vertex 75.200000000000003 60 0.10000000000000001
      vertex 75.159999999999997 40 0.080000000000000002
      vertex 75.200000000000003 40 0.10000000000000001
    endloop
  endfacet
  facet normal -0.44721359549990208 0 0.89442719099994383
    outer loop
      vertex 75.159999999999997 56 0.080000000000000002
      vertex 75.200000000000003 60 0.10000000000000001
      vertex 75.159999999999997 60 0.080000000000000002
    endloop
  endfacet
  facet normal 0.44721359549990208 0 0.89442719099994383
    outer loop
      vertex 77.840000000000003 -56 0.080000000000000002
      vertex 77.799999999999997 -60 0.10000000000000001
      vertex 77.840000000000003 -60 0.080000000000000002
    endloop
  endfacet
  facet normal 0.44721359549990208 0 0.89442719099994383
    outer loop
      vertex 77.799999999999997 -60 0.10000000000000001
      vertex 77.840000000000003 -56 0.080000000000000002
      vertex 77.840000000000003 -40 0.080000000000000002
    endloop
  endfacet
  facet normal 0.44721359549990208 -0 0.89442719099994383
    outer loop
      vertex 77.799999999999997 -60 0.10000000000000001
      vertex 77.840000000000003 -40 0.080000000000000002
      vertex 77.799999999999997 -40 0.10000000000000001
    endloop
  endfacet
  facet normal 0.44721359549990208 0 0.89442719099994383
    outer loop
      vertex 77.840000000000003 -36 0.080000000000000002
      vertex 77.799999999999997 -40 0.10000000000000001
      vertex 77.840000000000003 -40 0.080000000000000002
    endloop
  endfacet
  facet normal 0.44721359549990208 0 0.89442719099994383
    outer loop
      vertex 77.799999999999997 -40 0.10000000000000001
      vertex 77.840000000000003 -36 0.080000000000000002
      vertex 77.840000000000003 -20 0.080000000000000002
    endloop
  endfacet
  facet normal 0.44721359549990208 -0 0.89442719099994383
    outer loop
      vertex 77.799999999999997 -40 0.10000000000000001
      vertex 77.840000000000003 -20 0.080000000000000002
      vertex 77.799999999999997 -20 0.10000000000000001
    endloop
  endfacet
  facet normal 0.44721359549990208 0 0.89442719099994383
    outer loop
      vertex 77.840000000000003 -18 0.080000000000000002
      vertex 77.799999999999997 -20 0.10000000000000001
      vertex 77.840000000000003 -20 0.080000000000000002
    endloop
  endfacet
  facet normal 0.44721359549990208 0 0.89442719099994383
    outer loop
      vertex 77.799999999999997 -20 0.10000000000000001
      vertex 77.840000000000003 -18 0.080000000000000002
      vertex 77.840000000000003 -10 0.080000000000000002
    endloop
  endfacet
  facet normal 0.44721359549990208 -0 0.89442719099994383
    outer loop
      vertex 77.799999999999997 -20 0.10000000000000001
      vertex 77.840000000000003 -10 0.080000000000000002
      vertex 77.799999999999997 -10 0.10000000000000001
    endloop
  endfacet
  facet normal 0.44721359549990214 0 0.89442719099994383
    outer loop
      vertex 77.840000000000003 -7.9999999999999991 0.080000000000000002
      vertex 77.799999999999997 -10 0.10000000000000001
      vertex 77.840000000000003 -10 0.080000000000000002
    endloop
  endfacet
  facet normal 0.44721359549990208 0 0.89442719099994383
    outer loop
      vertex 77.799999999999997 -10 0.10000000000000001
      vertex 77.840000000000003 -8 0.080000000000000002
      vertex 77.840000000000003 0 0.080000000000000002
    endloop
  endfacet
  facet normal 0.44721359549990208 -0 0.89442719099994383
    outer loop
      vertex 77.799999999999997 -10 0.10000000000000001
      vertex 77.840000000000003 0 0.080000000000000002
      vertex 77.799999999999997 0 0.10000000000000001
    endloop
  endfacet
  facet normal 0.44721359549990197 0 0.89442719099994372
    outer loop
      vertex 77.840000000000003 0.00020000000000000009 0.080000000000000002
      vertex 77.799999999999997 0 0.10000000000000001
      vertex 77.840000000000003 0 0.080000000000000002
    endloop
  endfacet
  facet normal 0.44721359549990214 0 0.89442719099994383
    outer loop
      vertex 77.799999999999997 0 0.10000000000000001
      vertex 77.840000000000003 0.00020000000000000004 0.080000000000000002
      vertex 77.840000000000003 0.001 0.080000000000000002
    endloop
  endfacet
  facet normal 0.44721359549990214 -0 0.89442719099994383
    outer loop
      vertex 77.799999999999997 0 0.10000000000000001
      vertex 77.840000000000003 0.001 0.080000000000000002
      vertex 77.799999999999997 0.001 0.10000000000000001
    endloop
  endfacet
  facet normal 0.44721359549990208 0 0.89442719099994383
    outer loop
      vertex 77.840000000000003 2.0007999999999999 0.080000000000000002
      vertex 77.799999999999997 0.001 0.10000000000000001
      vertex 77.840000000000003 0.001 0.080000000000000002
    endloop
  endfacet
  facet normal 0.44721359549990208 0 0.89442719099994383
    outer loop
      vertex 77.799999999999997 0.001 0.10000000000000001
      vertex 77.840000000000003 2.0008000000000004 0.080000000000000002
      vertex 77.840000000000003 10 0.080000000000000002
    endloop
  endfacet
  facet normal 0.44721359549990208 -0 0.89442719099994383
    outer loop
      vertex 77.799999999999997 0.001 0.10000000000000001
      vertex 77.840000000000003 10 0.080000000000000002
      vertex 77.799999999999997 10 0.10000000000000001
    endloop
  endfacet
  facet normal 0.44721359549990208 0 0.89442719099994383
    outer loop
      vertex 77.840000000000003 12 0.080000000000000002
      vertex 77.799999999999997 10 0.10000000000000001
      vertex 77.840000000000003 10 0.080000000000000002
    endloop
  endfacet
  facet normal 0.44721359549990208 0 0.89442719099994383
    outer loop
      vertex 77.799999999999997 10 0.10000000000000001
      vertex 77.840000000000003 12 0.080000000000000002
      vertex 77.840000000000003 20 0.080000000000000002
    endloop
  endfacet
  facet normal 0.44721359549990208 -0 0.89442719099994383
    outer loop
      vertex 77.799999999999997 10 0.10000000000000001
      vertex 77.840000000000003 20 0.080000000000000002
      vertex 77.799999999999997 20 0.10000000000000001
    endloop
  endfacet
  facet normal 0.44721359549990208 0 0.89442719099994383
    outer loop
      vertex 77.840000000000003 24 0.080000000000000002
      vertex 77.799999999999997 20 0.10000000000000001
      vertex 77.840000000000003 20 0.080000000000000002
    endloop
  endfacet
  facet normal 0.44721359549990208 0 0.89442719099994383
    outer loop
      vertex 77.799999999999997 20 0.10000000000000001
      vertex 77.840000000000003 24 0.080000000000000002
      vertex 77.840000000000003 40 0.080000000000000002
    endloop
  endfacet
  facet normal 0.44721359549990208 -0 0.89442719099994383
    outer loop
      vertex 77.799999999999997 20 0.10000000000000001
      vertex 77.840000000000003 40 0.080000000000000002
      vertex 77.799999999999997 40 0.10000000000000001
    endloop
  endfacet
  facet normal 0.44721359549990208 0 0.89442719099994383
    outer loop
      vertex 77.840000000000003 44 0.080000000000000002
      vertex 77.799999999999997 40 0.10000000000000001
      vertex 77.840000000000003 40 0.080000000000000002
    endloop
  endfacet
  facet normal 0.44721359549990208 0 0.89442719099994383
    outer loop
      vertex 77.799999999999997 40 0.10000000000000001
      vertex 77.840000000000003 44 0.080000000000000002
      vertex 77.840000000000003 60 0.080000000000000002
    endloop
  endfacet
  facet normal 0.44721359549990208 -0 0.89442719099994383
    outer loop
      vertex 77.799999999999997 40 0.10000000000000001
      vertex 77.840000000000003 60 0.080000000000000002
      vertex 77.799999999999997 60 0.10000000000000001
    endloop
  endfacet
endsolid terrain_band_5
