solid terrain_band_3
  facet normal -0 0.44721359549995793 0.89442719099991586
    outer loop
      vertex 161.36000000000001 0.15999999999999998 -0.079999999999999988
      vertex 161.40000000000001 0.15999999999999998 -0.079999999999999988
      vertex 161.40000000000001 0.20000000000000001 -0.10000000000000001
    endloop
  endfacet
  facet normal 0.44721359550002948 -0 0.89442719099988011
    outer loop
      vertex 161.36000000000001 0.15999999999999998 -0.079999999999999988
      vertex 161.40000000000001 0.20000000000000001 -0.10000000000000001
      vertex 161.36000000000001 0.20000000000000001 -0.079999999999999988
    endloop
  endfacet
  facet normal 0.44721359550002943 0 0.89442719099988011
    outer loop
      vertex 161.36000000000001 8.0399999999999974 -0.079999999999999988
      vertex 161.36000000000001 0.20000000000000001 -0.079999999999999988
      vertex 161.40000000000001 0.20000000000000001 -0.10000000000000001
    endloop
  endfacet
  facet normal 0.44721359550002948 0 0.89442719099988011
    outer loop
      vertex 161.36000000000001 8.0399999999999974 -0.079999999999999988
      vertex 161.40000000000001 0.20000000000000001 -0.10000000000000001
      vertex 161.40000000000001 10 -0.10000000000000001
    endloop
  endfacet
  facet normal 0.44721359550002943 -0 0.89442719099988011
    outer loop
      vertex 161.36000000000001 8.0399999999999991 -0.079999999999999988
      vertex 161.40000000000001 10 -0.10000000000000001
      vertex 161.36000000000001 10 -0.079999999999999988
    endloop
  endfacet
  facet normal 0.43643578047205539 -0.21821789023598406 0.87287156094393625
    outer loop
      vertex 161.36000000000001 10 -0.079999999999999988
      vertex 161.40000000000001 10 -0.10000000000000001
      vertex 161.40000000000001 10.08 -0.079999999999999988
    endloop
  endfacet
  facet normal -0 0.44721359549996587 0.89442719099991186
    outer loop
      vertex 161.36000000000001 40.160000000000004 -0.079999999999999988
      vertex 161.40000000000001 40.160000000000004 -0.079999999999999988
      vertex 161.40000000000001 40.200000000000003 -0.10000000000000001
    endloop
  endfacet
  facet normal 0.44721359550002948 -0 0.89442719099988011
    outer loop
      vertex 161.36000000000001 40.160000000000004 -0.079999999999999988
      vertex 161.40000000000001 40.200000000000003 -0.10000000000000001
      vertex 161.36000000000001 40.200000000000003 -0.079999999999999988
    endloop
  endfacet
  facet normal 0.44721359550002943 0 0.89442719099988011
    outer loop
      vertex 161.36000000000001 56.039999999999999 -0.079999999999999988
      vertex 161.36000000000001 40.200000000000003 -0.079999999999999988
      vertex 161.40000000000001 40.200000000000003 -0.10000000000000001
    endloop
  endfacet
  facet normal 0.44721359550002943 0 0.89442719099988022
    outer loop
      vertex 161.36000000000001 56.039999999999999 -0.079999999999999988
      vertex 161.40000000000001 40.200000000000003 -0.10000000000000001
      vertex 161.40000000000001 60 -0.10000000000000001
    endloop
  endfacet
  facet normal 0.44721359550002948 -0 0.89442719099988022
    outer loop
      vertex 161.36000000000001 56.039999999999999 -0.079999999999999988
      vertex 161.40000000000001 60 -0.10000000000000001
      vertex 161.36000000000001 60 -0.079999999999999988
    endloop
  endfacet
  facet normal 0.43643578047193021 0.21821789023599417 0.87287156094399632
    outer loop
      vertex 161.36000000000001 60.160000000000004 -0.12000000000000001
      vertex 161.30666666666667 60.106666666666669 -0.079999999999999988
      vertex 161.36000000000001 60 -0.079999999999999988
    endloop
  endfacet
  facet normal 0.43643578047205583 0.21821789023597937 0.87287156094393714
    outer loop
      vertex 161.36000000000001 60.160000000000004 -0.12000000000000001
      vertex 161.36000000000001 60 -0.079999999999999988
      vertex 161.40000000000001 60 -0.10000000000000001
    endloop
  endfacet
  facet normal 0.43643578047208609 0.2182178902359849 0.87287156094392071
    outer loop
      vertex 161.36000000000001 60.160000000000004 -0.12000000000000001
      vertex 161.40000000000001 60 -0.10000000000000001
      vertex 161.40000000000001 60.079999999999998 -0.12000000000000001
    endloop
  endfacet
  facet normal 0.59999999999994014 0 0.80000000000004479
    outer loop
      vertex 161.30666666666667 60.106666666666669 -0.079999999999999988
      vertex 161.36000000000001 60.160000000000004 -0.12000000000000001
      vertex 161.36000000000001 60.200000000000003 -0.12000000000000001
    endloop
  endfacet
  facet normal 0.59999999999994014 -0 0.80000000000004479
    outer loop
      vertex 161.30666666666667 60.106666666666669 -0.079999999999999988
      vertex 161.36000000000001 60.200000000000003 -0.12000000000000001
      vertex 161.30666666666667 60.200000000000003 -0.079999999999999988
    endloop
  endfacet
  facet normal 0.59999999999994025 0 0.80000000000004479
    outer loop
      vertex 161.36000000000001 76.040000000000006 -0.12000000000000001
      vertex 161.30666666666667 70.760000000000005 -0.079999999999999988
      vertex 161.30666666666667 60.200000000000003 -0.079999999999999988
    endloop
  endfacet
  facet normal 0.59999999999994025 0 0.8000000000000449
    outer loop
      vertex 161.36000000000001 76.040000000000006 -0.12000000000000001
      vertex 161.30666666666667 60.200000000000003 -0.079999999999999988
      vertex 161.36000000000001 60.200000000000003 -0.12000000000000001
    endloop
  endfacet
  facet normal 0.59999999999994014 0 0.8000000000000449
    outer loop
      vertex 161.30666666666667 70.760000000000005 -0.079999999999999988
      vertex 161.36000000000001 76.040000000000006 -0.12000000000000001
      vertex 161.36000000000001 80 -0.12000000000000001
    endloop
  endfacet
  facet normal 0.59999999999994014 -0 0.8000000000000449
    outer loop
      vertex 161.30666666666667 70.760000000000005 -0.079999999999999988
      vertex 161.36000000000001 80 -0.12000000000000001
      vertex 161.30666666666667 80 -0.079999999999999988
    endloop
  endfacet
  facet normal 0.58834840541457212 0.19611613513822557 0.78446454055271075
    outer loop
      vertex 161.31999999999999 80.120000000000005 -0.12000000000000001
      vertex 161.28 80.079999999999998 -0.079999999999999988
      vertex 161.30666666666667 80 -0.079999999999999988
    endloop
  endfacet
  facet normal 0.58834840541448497 0.1961161351382546 0.78446454055276882
    outer loop
      vertex 161.31999999999999 80.120000000000005 -0.12000000000000001
      vertex 161.30666666666667 80 -0.079999999999999988
      vertex 161.36000000000001 80 -0.12000000000000001
    endloop
  endfacet
  facet normal 0.70710678118661807 0 0.70710678118647696
    outer loop
      vertex 161.28 80.079999999999998 -0.079999999999999988
      vertex 161.31999999999999 80.120000000000005 -0.12000000000000001
      vertex 161.31999999999999 80.200000000000003 -0.12000000000000001
    endloop
  endfacet
  facet normal 0.70710678118661807 -0 0.70710678118647696
    outer loop
      vertex 161.28 80.079999999999998 -0.079999999999999988
      vertex 161.31999999999999 80.200000000000003 -0.12000000000000001
      vertex 161.28 80.200000000000003 -0.079999999999999988
    endloop
  endfacet
  facet normal 0.70710678118661807 0 0.70710678118647707
    outer loop
      vertex 161.31999999999999 92.079999999999998 -0.12000000000000001
      vertex 161.28 88.120000000000005 -0.079999999999999988
      vertex 161.28 80.200000000000003 -0.079999999999999988
    endloop
  endfacet
  facet normal 0.70710678118661807 0 0.70710678118647696
    outer loop
      vertex 161.31999999999999 92.079999999999998 -0.12000000000000001
      vertex 161.28 80.200000000000003 -0.079999999999999988
      vertex 161.31999999999999 80.200000000000003 -0.12000000000000001
    endloop
  endfacet
  facet normal 0.70710678118661807 0 0.70710678118647707
    outer loop
      vertex 161.28 88.120000000000005 -0.079999999999999988
      vertex 161.31999999999999 92.079999999999998 -0.12000000000000001
      vertex 161.31999999999999 100 -0.12000000000000001
    endloop
  endfacet
  facet normal 0.70710678118661807 -0 0.70710678118647696
    outer loop
      vertex 161.28 88.120000000000005 -0.079999999999999988
      vertex 161.31999999999999 100 -0.12000000000000001
      vertex 161.28 100 -0.079999999999999988
    endloop
  endfacet
  facet normal -0 0.44721359549995793 0.89442719099991586
    outer loop
      vertex 161.56 0.15999999999999998 -0.079999999999999988
      vertex 161.59999999999999 0.15999999999999998 -0.079999999999999988
      vertex 161.59999999999999 0.20000000000000001 -0.10000000000000001
    endloop
  endfacet
  facet normal -0 0.44721359549995793 0.89442719099991586
    outer loop
      vertex 161.40000000000001 0.15999999999999998 -0.079999999999999988
      vertex 161.56 0.15999999999999998 -0.079999999999999988
      vertex 161.59999999999999 0.20000000000000001 -0.10000000000000001
    endloop
  endfacet
  facet normal 0 0.44721359549995798 0.89442719099991597
    outer loop
      vertex 161.40000000000001 0.15999999999999998 -0.079999999999999988
      vertex 161.59999999999999 0.20000000000000001 -0.10000000000000001
      vertex 161.40000000000001 0.20000000000000001 -0.10000000000000001
    endloop
  endfacet
  facet normal 0 0 1
    outer loop
      vertex 161.40000000000001 0.20000000000000001 -0.10000000000000001
      vertex 161.59999999999999 0.20000000000000001 -0.10000000000000001
      vertex 161.59999999999999 10 -0.10000000000000001
    endloop
  endfacet
  facet normal 0 0 1
    outer loop
      vertex 161.40000000000001 0.20000000000000001 -0.10000000000000001
      vertex 161.59999999999999 10 -0.10000000000000001
      vertex 161.40000000000001 10 -0.10000000000000001
    endloop
  endfacet
  facet normal 0 -0.24253562503633294 0.97014250014533177
    outer loop
      vertex 161.47999999999999 10.08 -0.079999999999999988
      vertex 161.40000000000001 10 -0.10000000000000001
      vertex 161.59999999999999 10 -0.10000000000000001
    endloop
  endfacet
  facet normal 0 -0.24253562503633297 0.97014250014533188
    outer loop
      vertex 161.47999999999999 10.08 -0.079999999999999988
      vertex 161.59999999999999 10 -0.10000000000000001
      vertex 161.59999999999999 10.08 -0.079999999999999988
    endloop
  endfacet
  facet normal 0 -0.24253562503633297 0.97014250014533188
    outer loop
      vertex 161.40000000000001 10.08 -0.079999999999999988
      vertex 161.40000000000001 10 -0.10000000000000001
      vertex 161.47999999999999 10.08 -0.079999999999999988
    endloop
  endfacet
  facet normal -0 0.44721359549996587 0.89442719099991186
    outer loop
      vertex 161.56 40.160000000000004 -0.079999999999999988
      vertex 161.59999999999999 40.160000000000004 -0.079999999999999988
      vertex 161.59999999999999 40.200000000000003 -0.10000000000000001
    endloop
  endfacet
  facet normal -0 0.44721359549996587 0.89442719099991186
    outer loop
      vertex 161.40000000000001 40.160000000000004 -0.079999999999999988
      vertex 161.56 40.160000000000004 -0.079999999999999988
      vertex 161.59999999999999 40.200000000000003 -0.10000000000000001
    endloop
  endfacet
  facet normal 0 0.44721359549996592 0.89442719099991186
    outer loop
      vertex 161.40000000000001 40.160000000000004 -0.079999999999999988
      vertex 161.59999999999999 40.200000000000003 -0.10000000000000001
      vertex 161.40000000000001 40.200000000000003 -0.10000000000000001
    endloop
  endfacet
  facet normal 0 0 1
    outer loop
      vertex 161.40000000000001 40.200000000000003 -0.10000000000000001
      vertex 161.59999999999999 40.200000000000003 -0.10000000000000001
      vertex 161.59999999999999 60 -0.10000000000000001
    endloop
  endfacet
  facet normal 0 0 1
    outer loop
      vertex 161.40000000000001 40.200000000000003 -0.10000000000000001
      vertex 161.59999999999999 60 -0.10000000000000001
      vertex 161.40000000000001 60 -0.10000000000000001
    endloop
  endfacet
  facet normal 0 0.24253562503633788 0.97014250014533077
    outer loop
      vertex 161.47999999999999 60.079999999999998 -0.12000000000000001
      vertex 161.40000000000001 60 -0.10000000000000001
      vertex 161.59999999999999 60 -0.10000000000000001
    endloop
  endfacet
  facet normal -0 0.24253562503633791 0.97014250014533077
    outer loop
      vertex 161.47999999999999 60.079999999999998 -0.12000000000000001
      vertex 161.59999999999999 60 -0.10000000000000001
      vertex 161.59999999999999 60.079999999999998 -0.12000000000000001
    endloop
  endfacet
  facet normal -0 0.24253562503633791 0.97014250014533066
    outer loop
      vertex 161.40000000000001 60.079999999999998 -0.12000000000000001
      vertex 161.40000000000001 60 -0.10000000000000001
      vertex 161.47999999999999 60.079999999999998 -0.12000000000000001
    endloop
  endfacet
  facet normal -0 0.44721359549995793 0.89442719099991586
    outer loop
      vertex 165.59999999999999 0.15999999999999998 -0.079999999999999988
      vertex 166.59999999999999 0.15999999999999998 -0.079999999999999988
      vertex 166.59999999999999 0.20000000000000001 -0.10000000000000001
    endloop
  endfacet
  facet normal -0 0.44721359549995793 0.89442719099991586
    outer loop
      vertex 161.59999999999999 0.15999999999999998 -0.079999999999999988
      vertex 165.59999999999999 0.15999999999999998 -0.079999999999999988
      vertex 166.59999999999999 0.20000000000000001 -0.10000000000000001
    endloop
  endfacet
  facet normal 0 0.44721359549995798 0.89442719099991597
    outer loop
      vertex 161.59999999999999 0.15999999999999998 -0.079999999999999988
      vertex 166.59999999999999 0.20000000000000001 -0.10000000000000001
      vertex 161.59999999999999 0.20000000000000001 -0.10000000000000001
    endloop
  endfacet
  facet normal 0 0 1
    outer loop
      vertex 161.59999999999999 0.20000000000000001 -0.10000000000000001
      vertex 166.59999999999999 0.20000000000000001 -0.10000000000000001
      vertex 166.59999999999999 10 -0.10000000000000001
    endloop
  endfacet
  facet normal 0 0 1
    outer loop
      vertex 161.59999999999999 0.20000000000000001 -0.10000000000000001
      vertex 166.59999999999999 10 -0.10000000000000001
      vertex 161.59999999999999 10 -0.10000000000000001
    endloop
  endfacet
  facet normal 0 -0.242535625036333 0.97014250014533199
    outer loop
      vertex 163.59999999999999 10.08 -0.079999999999999988
      vertex 161.59999999999999 10 -0.10000000000000001
      vertex 166.59999999999999 10 -0.10000000000000001
    endloop
  endfacet
  facet normal 0 -0.24253562503633297 0.97014250014533188
    outer loop
      vertex 163.59999999999999 10.08 -0.079999999999999988
      vertex 166.59999999999999 10 -0.10000000000000001
      vertex 166.59999999999999 10.08 -0.079999999999999988
    endloop
  endfacet
  facet normal 0 -0.24253562503633297 0.97014250014533188
    outer loop
      vertex 161.59999999999999 10.08 -0.079999999999999988
      vertex 161.59999999999999 10 -0.10000000000000001
      vertex 163.59999999999999 10.08 -0.079999999999999988
    endloop
  endfacet
  facet normal -0 0.44721359549996592 0.89442719099991197
    outer loop
      vertex 165.59999999999999 40.160000000000004 -0.079999999999999988
      vertex 166.59999999999999 40.160000000000004 -0.079999999999999988
      vertex 166.59999999999999 40.200000000000003 -0.10000000000000001
    endloop
  endfacet
  facet normal -0 0.44721359549996592 0.89442719099991197
    outer loop
      vertex 161.59999999999999 40.160000000000004 -0.079999999999999988
      vertex 165.59999999999999 40.160000000000004 -0.079999999999999988
      vertex 166.59999999999999 40.200000000000003 -0.10000000000000001
    endloop
  endfacet
  facet normal 0 0.44721359549996592 0.89442719099991197
    outer loop
      vertex 161.59999999999999 40.160000000000004 -0.079999999999999988
      vertex 166.59999999999999 40.200000000000003 -0.10000000000000001
      vertex 161.59999999999999 40.200000000000003 -0.10000000000000001
    endloop
  endfacet
  facet normal 0 0 1
    outer loop
      vertex 161.59999999999999 40.200000000000003 -0.10000000000000001
      vertex 166.59999999999999 40.200000000000003 -0.10000000000000001
      vertex 166.59999999999999 60 -0.10000000000000001
    endloop
  endfacet
  facet normal 0 0 1
    outer loop
      vertex 161.59999999999999 40.200000000000003 -0.10000000000000001
      vertex 166.59999999999999 60 -0.10000000000000001
      vertex 161.59999999999999 60 -0.10000000000000001
    endloop
  endfacet
  facet normal 0 0.24253562503633788 0.97014250014533066
    outer loop
      vertex 163.59999999999999 60.079999999999998 -0.12000000000000001
      vertex 161.59999999999999 60 -0.10000000000000001
      vertex 166.59999999999999 60 -0.10000000000000001
    endloop
  endfacet
  facet normal -0 0.24253562503633788 0.97014250014533066
    outer loop
      vertex 163.59999999999999 60.079999999999998 -0.12000000000000001
      vertex 166.59999999999999 60 -0.10000000000000001
      vertex 166.59999999999999 60.079999999999998 -0.12000000000000001
    endloop
  endfacet
  facet normal -0 0.24253562503633788 0.97014250014533066
    outer loop
      vertex 161.59999999999999 60.079999999999998 -0.12000000000000001
      vertex 161.59999999999999 60 -0.10000000000000001
      vertex 163.59999999999999 60.079999999999998 -0.12000000000000001
    endloop
  endfacet
  facet normal -0 0.44721359549995793 0.89442719099991586
    outer loop
      vertex 166.76000000000002 0.15999999999999998 -0.079999999999999988
      vertex 166.80000000000001 0.15999999999999998 -0.079999999999999988
      vertex 166.80000000000001 0.20000000000000001 -0.10000000000000001
    endloop
  endfacet
  facet normal -0 0.44721359549995793 0.89442719099991586
    outer loop
      vertex 166.59999999999999 0.15999999999999998 -0.079999999999999988
      vertex 166.76000000000002 0.15999999999999998 -0.079999999999999988
      vertex 166.80000000000001 0.20000000000000001 -0.10000000000000001
    endloop
  endfacet
  facet normal 0 0.44721359549995798 0.89442719099991597
    outer loop
      vertex 166.59999999999999 0.15999999999999998 -0.079999999999999988
      vertex 166.80000000000001 0.20000000000000001 -0.10000000000000001
      vertex 166.59999999999999 0.20000000000000001 -0.10000000000000001
    endloop
  endfacet
  facet normal 0 0 1
    outer loop
      vertex 166.59999999999999 0.20000000000000001 -0.10000000000000001
      vertex 166.80000000000001 0.20000000000000001 -0.10000000000000001
      vertex 166.80000000000001 10 -0.10000000000000001
    endloop
  endfacet
  facet normal 0 0 1
    outer loop
      vertex 166.59999999999999 0.20000000000000001 -0.10000000000000001
      vertex 166.80000000000001 10 -0.10000000000000001
      vertex 166.59999999999999 10 -0.10000000000000001
    endloop
  endfacet
  facet normal 0 -0.24253562503633294 0.97014250014533177
    outer loop
      vertex 166.68000000000001 10.08 -0.079999999999999988
      vertex 166.59999999999999 10 -0.10000000000000001
      vertex 166.80000000000001 10 -0.10000000000000001
    endloop
  endfacet
  facet normal 0 -0.24253562503633297 0.97014250014533188
    outer loop
      vertex 166.68000000000001 10.08 -0.079999999999999988
      vertex 166.80000000000001 10 -0.10000000000000001
      vertex 166.80000000000001 10.08 -0.079999999999999988
    endloop
  endfacet
  facet normal 0 -0.242535625036333 0.97014250014533199
    outer loop
      vertex 166.59999999999999 10.08 -0.079999999999999988
      vertex 166.59999999999999 10 -0.10000000000000001
      vertex 166.68000000000001 10.08 -0.079999999999999988
    endloop
  endfacet
  facet normal -0 0.44721359549996587 0.89442719099991186
    outer loop
      vertex 166.76000000000002 40.160000000000004 -0.079999999999999988
      vertex 166.80000000000001 40.160000000000004 -0.079999999999999988
      vertex 166.80000000000001 40.200000000000003 -0.10000000000000001
    endloop
  endfacet
  facet normal -0 0.44721359549996592 0.89442719099991197
    outer loop
      vertex 166.59999999999999 40.160000000000004 -0.079999999999999988
      vertex 166.76000000000002 40.160000000000004 -0.079999999999999988
      vertex 166.80000000000001 40.200000000000003 -0.10000000000000001
    endloop
  endfacet
  facet normal 0 0.44721359549996587 0.89442719099991197
    outer loop
      vertex 166.59999999999999 40.160000000000004 -0.079999999999999988
      vertex 166.80000000000001 40.200000000000003 -0.10000000000000001
      vertex 166.59999999999999 40.200000000000003 -0.10000000000000001
    endloop
  endfacet
  facet normal 0 0 1
    outer loop
      vertex 166.59999999999999 40.200000000000003 -0.10000000000000001
      vertex 166.80000000000001 40.200000000000003 -0.10000000000000001
      vertex 166.80000000000001 60 -0.10000000000000001
    endloop
  endfacet
  facet normal 0 0 1
    outer loop
      vertex 166.59999999999999 40.200000000000003 -0.10000000000000001
      vertex 166.80000000000001 60 -0.10000000000000001
      vertex 166.59999999999999 60 -0.10000000000000001
    endloop
  endfacet
  facet normal 0 0.24253562503633785 0.97014250014533054
    outer loop
      vertex 166.68000000000001 60.079999999999998 -0.12000000000000001
      vertex 166.59999999999999 60 -0.10000000000000001
      vertex 166.80000000000001 60 -0.10000000000000001
    endloop
  endfacet
  facet normal -0 0.24253562503633791 0.97014250014533077
    outer loop
      vertex 166.68000000000001 60.079999999999998 -0.12000000000000001
      vertex 166.80000000000001 60 -0.10000000000000001
      vertex 166.80000000000001 60.079999999999998 -0.12000000000000001
    endloop
  endfacet
  facet normal -0 0.24253562503633788 0.97014250014533066
    outer loop
      vertex 166.59999999999999 60.079999999999998 -0.12000000000000001
      vertex 166.59999999999999 60 -0.10000000000000001
      vertex 166.68000000000001 60.079999999999998 -0.12000000000000001
    endloop
  endfacet
  facet normal -0.017885682339724089 0.44714205849310185 0.89428411698620369
    outer loop
      vertex 166.80000000000001 0.15999999999999998 -0.079999999999999988
      vertex 167.80000000000001 0.20000000000000001 -0.079999999999999988
      vertex 166.80000000000001 0.20000000000000001 -0.10000000000000001
    endloop
  endfacet
  facet normal -0.019996001199600159 0 0.99980005998000698
    outer loop
      vertex 167.80000000000001 2.160000000000001 -0.079999999999999988
      vertex 166.80000000000001 0.20000000000000001 -0.10000000000000001
      vertex 167.80000000000001 0.20000000000000001 -0.079999999999999988
    endloop
  endfacet
  facet normal -0.019996001199600159 0 0.99980005998000698
    outer loop
      vertex 166.80000000000001 0.20000000000000001 -0.10000000000000001
      vertex 167.80000000000001 2.1600000000000019 -0.079999999999999988
      vertex 167.80000000000001 10 -0.079999999999999988
    endloop
  endfacet
  facet normal -0.019996001199600159 0 0.99980005998000698
    outer loop
      vertex 166.80000000000001 0.20000000000000001 -0.10000000000000001
      vertex 167.80000000000001 10 -0.079999999999999988
      vertex 166.80000000000001 10 -0.10000000000000001
    endloop
  endfacet
  facet normal -0.019996001199600159 0 0.99980005998000698
    outer loop
      vertex 167.80000000000001 10.039999999999999 -0.079999999999999988
      vertex 166.80000000000001 10 -0.10000000000000001
      vertex 167.80000000000001 10 -0.079999999999999988
    endloop
  endfacet
  facet normal -0.0097009684960300754 -0.24252421240074629 0.97009684960298515
    outer loop
      vertex 166.80000000000001 10.08 -0.079999999999999988
      vertex 166.80000000000001 10 -0.10000000000000001
      vertex 167.80000000000001 10.039999999999999 -0.079999999999999988
    endloop
  endfacet
  facet normal -0.017885682339724009 0.44714205849310978 0.8942841169861997
    outer loop
      vertex 166.80000000000001 40.160000000000004 -0.079999999999999988
      vertex 167.80000000000001 40.200000000000003 -0.079999999999999988
      vertex 166.80000000000001 40.200000000000003 -0.10000000000000001
    endloop
  endfacet
  facet normal -0.019996001199600159 0 0.99980005998000698
    outer loop
      vertex 167.80000000000001 44.160000000000004 -0.079999999999999988
      vertex 166.80000000000001 40.200000000000003 -0.10000000000000001
      vertex 167.80000000000001 40.200000000000003 -0.079999999999999988
    endloop
  endfacet
  facet normal -0.019996001199600155 0 0.99980005998000698
    outer loop
      vertex 166.80000000000001 40.200000000000003 -0.10000000000000001
      vertex 167.80000000000001 44.160000000000004 -0.079999999999999988
      vertex 167.80000000000001 60 -0.079999999999999988
    endloop
  endfacet
  facet normal -0.019996001199600155 0 0.99980005998000698
    outer loop
      vertex 166.80000000000001 40.200000000000003 -0.10000000000000001
      vertex 167.80000000000001 60 -0.079999999999999988
      vertex 166.80000000000001 60 -0.10000000000000001
    endloop
  endfacet
  facet normal -0.019996001199600159 0 0.99980005998000698
    outer loop
      vertex 167.80000000000001 60.039999999999999 -0.079999999999999988
      vertex 166.80000000000001 60 -0.10000000000000001
      vertex 167.80000000000001 60 -0.079999999999999988
    endloop
  endfacet
  facet normal -0.029091956313327266 0.24243296927773225 0.96973187711090814
    outer loop
      vertex 166.80000000000001 60.079999999999998 -0.12000000000000001
      vertex 166.80000000000001 60 -0.10000000000000001
      vertex 167.80000000000001 60.039999999999999 -0.079999999999999988
    endloop
  endfacet
  facet normal -0.029091956313327581 0.24243296927772601 0.9697318771109098
    outer loop
      vertex 166.80000000000001 60.079999999999998 -0.12000000000000001
      vertex 167.80000000000001 60.039999999999999 -0.079999999999999988
      vertex 169.13333333333335 60.200000000000003 -0.079999999999999988
    endloop
  endfacet
  facet normal -0.029091956313327168 0.24243296927771721 0.96973187711091191
    outer loop
      vertex 166.80000000000001 60.079999999999998 -0.12000000000000001
      vertex 169.13333333333335 60.200000000000003 -0.079999999999999988
      vertex 167.80000000000001 60.200000000000003 -0.12000000000000001
    endloop
  endfacet
  facet normal -0.029986509105670807 0 0.99955030352236685
    outer loop
      vertex 169.13333333333335 69.439999999999998 -0.079999999999999988
      vertex 167.80000000000001 64.159999999999997 -0.12000000000000001
      vertex 167.80000000000001 60.200000000000003 -0.12000000000000001
    endloop
  endfacet
  facet normal -0.029986509105670807 0 0.99955030352236673
    outer loop
      vertex 169.13333333333335 69.439999999999998 -0.079999999999999988
      vertex 167.80000000000001 60.200000000000003 -0.12000000000000001
      vertex 169.13333333333335 60.200000000000003 -0.079999999999999988
    endloop
  endfacet
  facet normal -0.029986509105670807 0 0.99955030352236673
    outer loop
      vertex 167.80000000000001 64.159999999999997 -0.12000000000000001
      vertex 169.13333333333335 69.439999999999998 -0.079999999999999988
      vertex 169.13333333333335 80 -0.079999999999999988
    endloop
  endfacet
  facet normal -0.02998650910567081 0 0.99955030352236685
    outer loop
      vertex 167.80000000000001 64.159999999999997 -0.12000000000000001
      vertex 169.13333333333335 80 -0.079999999999999988
      vertex 167.80000000000001 80 -0.12000000000000001
    endloop
  endfacet
  facet normal -0.02998650910567081 0 0.99955030352236685
    outer loop
      vertex 169.13333333333335 80.093333333333334 -0.079999999999999988
      vertex 167.80000000000001 80.040000000000006 -0.12000000000000001
      vertex 167.80000000000001 80 -0.12000000000000001
    endloop
  endfacet
  facet normal -0.029986509105670807 0 0.99955030352236673
    outer loop
      vertex 169.13333333333335 80.093333333333334 -0.079999999999999988
      vertex 167.80000000000001 80 -0.12000000000000001
      vertex 169.13333333333335 80 -0.079999999999999988
    endloop
  endfacet
  facet normal -0.038776514554653654 0.24235321596657633 0.96941286386639769
    outer loop
      vertex 167.80000000000001 80.040000000000006 -0.12000000000000001
      vertex 169.13333333333335 80.093333333333334 -0.079999999999999988
      vertex 169.80000000000001 80.200000000000003 -0.079999999999999988
    endloop
  endfacet
  facet normal -0.038776514554655653 0.242353215966603 0.96941286386639081
    outer loop
      vertex 167.80000000000001 80.040000000000006 -0.12000000000000001
      vertex 169.80000000000001 80.200000000000003 -0.079999999999999988
      vertex 168.80000000000001 80.200000000000003 -0.12000000000000001
    endloop
  endfacet
  facet normal -0.039968038348871596 0 0.99920095872178949
    outer loop
      vertex 169.80000000000001 92.079999999999998 -0.079999999999999988
      vertex 168.80000000000001 88.120000000000005 -0.12000000000000001
      vertex 168.80000000000001 80.200000000000003 -0.12000000000000001
    endloop
  endfacet
  facet normal -0.039968038348871603 0 0.99920095872178949
    outer loop
      vertex 169.80000000000001 92.079999999999998 -0.079999999999999988
      vertex 168.80000000000001 80.200000000000003 -0.12000000000000001
      vertex 169.80000000000001 80.200000000000003 -0.079999999999999988
    endloop
  endfacet
  facet normal -0.039968038348871596 0 0.99920095872178949
    outer loop
      vertex 168.80000000000001 88.120000000000005 -0.12000000000000001
      vertex 169.80000000000001 92.079999999999998 -0.079999999999999988
      vertex 169.80000000000001 100 -0.079999999999999988
    endloop
  endfacet
  facet normal -0.039968038348871603 0 0.99920095872178949
    outer loop
      vertex 168.80000000000001 88.120000000000005 -0.12000000000000001
      vertex 169.80000000000001 100 -0.079999999999999988
      vertex 168.80000000000001 100 -0.12000000000000001
    endloop
  endfacet
  facet normal 0.23570226039556527 0.23570226039551292 0.9428090415820517
    outer loop
      vertex 204.96000000000001 10.16 -0.079999999999999988
      vertex 205 10.119999999999999 -0.079999999999999988
      vertex 205 10.199999999999999 -0.10000000000000001
    endloop
  endfacet
  facet normal 0.44721359550002948 -0 0.89442719099988011
    outer loop
      vertex 204.96000000000001 10.16 -0.079999999999999988
      vertex 205 10.199999999999999 -0.10000000000000001
      vertex 204.96000000000001 10.199999999999999 -0.079999999999999988
    endloop
  endfacet
  facet normal 0.44721359550002943 0 0.89442719099988011
    outer loop
      vertex 204.96000000000001 18.039999999999999 -0.079999999999999988
      vertex 204.96000000000001 10.199999999999999 -0.079999999999999988
      vertex 205 10.199999999999999 -0.10000000000000001
    endloop
  endfacet
  facet normal 0.44721359550002943 0 0.89442719099988011
    outer loop
      vertex 204.96000000000001 18.039999999999999 -0.079999999999999988
      vertex 205 10.199999999999999 -0.10000000000000001
      vertex 205 20 -0.10000000000000001
    endloop
  endfacet
  facet normal 0.44721359550002943 -0 0.89442719099988011
    outer loop
      vertex 204.96000000000001 18.039999999999999 -0.079999999999999988
      vertex 205 20 -0.10000000000000001
      vertex 204.96000000000001 20 -0.079999999999999988
    endloop
  endfacet
  facet normal 0.43643578047192583 0.21821789023599925 0.87287156094399732
    outer loop
      vertex 204.96000000000001 20.16 -0.12000000000000001
      vertex 204.90666666666667 20.106666666666666 -0.079999999999999988
      vertex 204.96000000000001 20 -0.079999999999999988
    endloop
  endfacet
  facet normal 0.43643578047205533 0.21821789023598404 0.87287156094393636
    outer loop
      vertex 204.96000000000001 20.16 -0.12000000000000001
      vertex 204.96000000000001 20 -0.079999999999999988
      vertex 205 20 -0.10000000000000001
    endloop
  endfacet
  facet normal 0.43643578047207038 0.21821789023598676 0.87287156094392815
    outer loop
      vertex 204.96000000000001 20.16 -0.12000000000000001
      vertex 205 20 -0.10000000000000001
      vertex 205 20.079999999999998 -0.12000000000000001
    endloop
  endfacet
  facet normal 0.59999999999994014 0 0.80000000000004479
    outer loop
      vertex 204.90666666666667 20.106666666666666 -0.079999999999999988
      vertex 204.96000000000001 20.16 -0.12000000000000001
      vertex 204.96000000000001 20.199999999999999 -0.12000000000000001
    endloop
  endfacet
  facet normal 0.59999999999994014 -0 0.80000000000004479
    outer loop
      vertex 204.90666666666667 20.106666666666666 -0.079999999999999988
      vertex 204.96000000000001 20.199999999999999 -0.12000000000000001
      vertex 204.90666666666667 20.199999999999999 -0.079999999999999988
    endloop
  endfacet
  facet normal 0.59999999999994036 0 0.8000000000000449
    outer loop
      vertex 204.96000000000001 36.039999999999999 -0.12000000000000001
      vertex 204.90666666666667 30.759999999999998 -0.079999999999999988
      vertex 204.90666666666667 20.199999999999999 -0.079999999999999988
    endloop
  endfacet
  facet normal 0.59999999999994025 0 0.8000000000000449
    outer loop
      vertex 204.96000000000001 36.039999999999999 -0.12000000000000001
      vertex 204.90666666666667 20.199999999999999 -0.079999999999999988
      vertex 204.96000000000001 20.199999999999999 -0.12000000000000001
    endloop
  endfacet
  facet normal 0.59999999999994014 0 0.80000000000004479
    outer loop
      vertex 204.90666666666667 30.759999999999998 -0.079999999999999988
      vertex 204.96000000000001 36.039999999999999 -0.12000000000000001
      vertex 204.96000000000001 40 -0.12000000000000001
    endloop
  endfacet
  facet normal 0.59999999999994025 -0 0.8000000000000449
    outer loop
      vertex 204.90666666666667 30.759999999999998 -0.079999999999999988
      vertex 204.96000000000001 40 -0.12000000000000001
      vertex 204.90666666666667 40 -0.079999999999999988
    endloop
  endfacet
  facet normal 0.58834840541471878 0.19611613513804801 0.78446454055264514
    outer loop
      vertex 204.92000000000002 40.120000000000005 -0.12000000000000001
      vertex 204.88000000000002 40.080000000000005 -0.079999999999999988
      vertex 204.90666666666667 40 -0.079999999999999988
    endloop
  endfacet
  facet normal 0.58834840541450106 0.19611613513812057 0.78446454055279036
    outer loop
      vertex 204.92000000000002 40.120000000000005 -0.12000000000000001
      vertex 204.90666666666667 40 -0.079999999999999988
      vertex 204.96000000000001 40 -0.12000000000000001
    endloop
  endfacet
  facet normal 0.70710678118661796 0 0.70710678118647696
    outer loop
      vertex 204.88000000000002 40.080000000000005 -0.079999999999999988
      vertex 204.92000000000002 40.120000000000005 -0.12000000000000001
      vertex 204.92000000000002 40.200000000000003 -0.12000000000000001
    endloop
  endfacet
  facet normal 0.70710678118661807 -0 0.70710678118647696
    outer loop
      vertex 204.88000000000002 40.080000000000005 -0.079999999999999988
      vertex 204.92000000000002 40.200000000000003 -0.12000000000000001
      vertex 204.88000000000002 40.200000000000003 -0.079999999999999988
    endloop
  endfacet
  facet normal 0.70710678118661807 0 0.70710678118647696
    outer loop
      vertex 204.92000000000002 52.079999999999998 -0.12000000000000001
      vertex 204.88000000000002 48.119999999999997 -0.079999999999999988
      vertex 204.88000000000002 40.200000000000003 -0.079999999999999988
    endloop
  endfacet
  facet normal 0.70710678118661807 0 0.70710678118647696
    outer loop
      vertex 204.92000000000002 52.079999999999998 -0.12000000000000001
      vertex 204.88000000000002 40.200000000000003 -0.079999999999999988
      vertex 204.92000000000002 40.200000000000003 -0.12000000000000001
    endloop
  endfacet
  facet normal 0.70710678118661796 0 0.70710678118647707
    outer loop
      vertex 204.88000000000002 48.119999999999997 -0.079999999999999988
      vertex 204.92000000000002 52.079999999999998 -0.12000000000000001
      vertex 204.92000000000002 60 -0.12000000000000001
    endloop
  endfacet
  facet normal 0.70710678118661807 -0 0.70710678118647707
    outer loop
      vertex 204.88000000000002 48.119999999999997 -0.079999999999999988
      vertex 204.92000000000002 60 -0.12000000000000001
      vertex 204.88000000000002 60 -0.079999999999999988
    endloop
  endfacet
  facet normal 0.62469504755450334 -0.46852128566577345 0.62469504755437877
    outer loop
      vertex 204.88000000000002 60 -0.079999999999999988
      vertex 204.92000000000002 60 -0.12000000000000001
      vertex 205 60.106666666666669 -0.12000000000000001
    endloop
  endfacet
  facet normal 0.62469504755450345 -0.4685212856657735 0.62469504755437866
    outer loop
      vertex 204.88000000000002 60 -0.079999999999999988
      vertex 205 60.106666666666669 -0.12000000000000001
      vertex 205 60.160000000000004 -0.079999999999999988
    endloop
  endfacet
  facet normal 0.23570226039552047 0.23570226039552047 0.94280904158206114
    outer loop
      vertex 204.96000000000001 80.159999999999997 -0.079999999999999988
      vertex 205 80.120000000000005 -0.079999999999999988
      vertex 205 80.200000000000003 -0.10000000000000001
    endloop
  endfacet
  facet normal 0.44721359550002943 -0 0.89442719099988011
    outer loop
      vertex 204.96000000000001 80.159999999999997 -0.079999999999999988
      vertex 205 80.200000000000003 -0.10000000000000001
      vertex 204.96000000000001 80.200000000000003 -0.079999999999999988
    endloop
  endfacet
  facet normal 0.44721359550002948 0 0.89442719099988011
    outer loop
      vertex 204.96000000000001 96.039999999999992 -0.079999999999999988
      vertex 204.96000000000001 80.200000000000003 -0.079999999999999988
      vertex 205 80.200000000000003 -0.10000000000000001
    endloop
  endfacet
  facet normal 0.44721359550002948 0 0.89442719099988022
    outer loop
      vertex 204.96000000000001 96.039999999999992 -0.079999999999999988
      vertex 205 80.200000000000003 -0.10000000000000001
      vertex 205 100 -0.10000000000000001
    endloop
  endfacet
  facet normal 0.44721359550002943 -0 0.89442719099988022
    outer loop
      vertex 204.96000000000001 96.039999999999992 -0.079999999999999988
      vertex 205 100 -0.10000000000000001
      vertex 204.96000000000001 100 -0.079999999999999988
    endloop
  endfacet
  facet normal -0 0.24253562503633297 0.97014250014533188
    outer loop
      vertex 205.12 10.119999999999999 -0.079999999999999988
      vertex 205.19999999999999 10.119999999999999 -0.079999999999999988
      vertex 205.19999999999999 10.199999999999999 -0.10000000000000001
    endloop
  endfacet
  facet normal -0 0.24253562503633297 0.97014250014533188
    outer loop
      vertex 205 10.119999999999999 -0.079999999999999988
      vertex 205.12 10.119999999999999 -0.079999999999999988
      vertex 205.19999999999999 10.199999999999999 -0.10000000000000001
    endloop
  endfacet
  facet normal 0 0.24253562503633294 0.97014250014533177
    outer loop
      vertex 205 10.119999999999999 -0.079999999999999988
      vertex 205.19999999999999 10.199999999999999 -0.10000000000000001
      vertex 205 10.199999999999999 -0.10000000000000001
    endloop
  endfacet
  facet normal 0 0 1
    outer loop
      vertex 205 10.199999999999999 -0.10000000000000001
      vertex 205.19999999999999 10.199999999999999 -0.10000000000000001
      vertex 205.19999999999999 20 -0.10000000000000001
    endloop
  endfacet
  facet normal 0 0 1
    outer loop
      vertex 205 10.199999999999999 -0.10000000000000001
      vertex 205.19999999999999 20 -0.10000000000000001
      vertex 205 20 -0.10000000000000001
    endloop
  endfacet
  facet normal 0 0.24253562503633788 0.97014250014533077
    outer loop
      vertex 205.07999999999998 20.079999999999998 -0.12000000000000001
      vertex 205 20 -0.10000000000000001
      vertex 205.19999999999999 20 -0.10000000000000001
    endloop
  endfacet
  facet normal -0 0.24253562503633791 0.97014250014533077
    outer loop
      vertex 205.07999999999998 20.079999999999998 -0.12000000000000001
      vertex 205.19999999999999 20 -0.10000000000000001
      vertex 205.19999999999999 20.079999999999998 -0.12000000000000001
    endloop
  endfacet
  facet normal -0 0.24253562503633791 0.97014250014533066
    outer loop
      vertex 205 20.079999999999998 -0.12000000000000001
      vertex 205 20 -0.10000000000000001
      vertex 205.07999999999998 20.079999999999998 -0.12000000000000001
    endloop
  endfacet
  facet normal 0 -0.59999999999999132 0.80000000000000637
    outer loop
      vertex 205.16 60.160000000000004 -0.079999999999999988
      vertex 205.10666666666665 60.106666666666669 -0.12000000000000001
      vertex 205.19999999999999 60.106666666666669 -0.12000000000000001
    endloop
  endfacet
  facet normal 0 -0.59999999999999132 0.80000000000000648
    outer loop
      vertex 205.16 60.160000000000004 -0.079999999999999988
      vertex 205.19999999999999 60.106666666666669 -0.12000000000000001
      vertex 205.19999999999999 60.160000000000004 -0.079999999999999988
    endloop
  endfacet
  facet normal 0 -0.59999999999999132 0.80000000000000648
    outer loop
      vertex 205 60.160000000000004 -0.079999999999999988
      vertex 205 60.106666666666669 -0.12000000000000001
      vertex 205.10666666666665 60.106666666666669 -0.12000000000000001
    endloop
  endfacet
  facet normal 0 -0.59999999999999132 0.80000000000000659
    outer loop
      vertex 205 60.160000000000004 -0.079999999999999988
      vertex 205.10666666666665 60.106666666666669 -0.12000000000000001
      vertex 205.16 60.160000000000004 -0.079999999999999988
    endloop
  endfacet
  facet normal -0 0.24253562503633808 0.97014250014533066
    outer loop
      vertex 205.12 80.120000000000005 -0.079999999999999988
      vertex 205.19999999999999 80.120000000000005 -0.079999999999999988
      vertex 205.19999999999999 80.200000000000003 -0.10000000000000001
    endloop
  endfacet
  facet normal -0 0.24253562503633805 0.97014250014533054
    outer loop
      vertex 205 80.120000000000005 -0.079999999999999988
      vertex 205.12 80.120000000000005 -0.079999999999999988
      vertex 205.19999999999999 80.200000000000003 -0.10000000000000001
    endloop
  endfacet
  facet normal 0 0.24253562503633805 0.97014250014533054
    outer loop
      vertex 205 80.120000000000005 -0.079999999999999988
      vertex 205.19999999999999 80.200000000000003 -0.10000000000000001
      vertex 205 80.200000000000003 -0.10000000000000001
    endloop
  endfacet
  facet normal 0 0 1
    outer loop
      vertex 205 80.200000000000003 -0.10000000000000001
      vertex 205.19999999999999 80.200000000000003 -0.10000000000000001
      vertex 205.19999999999999 100 -0.10000000000000001
    endloop
  endfacet
  facet normal 0 0 1
    outer loop
      vertex 205 80.200000000000003 -0.10000000000000001
      vertex 205.19999999999999 100 -0.10000000000000001
      vertex 205 100 -0.10000000000000001
    endloop
  endfacet
  facet normal 0 0.70710678118649251 0.70710678118660264
    outer loop
      vertex 205.31999999999999 -80.079999999999998 -0.12000000000000001
      vertex 205.28 -80.120000000000005 -0.079999999999999988
      vertex 205.40000000000001 -80.120000000000005 -0.079999999999999988
    endloop
  endfacet
  facet normal -0 0.70710678118649239 0.70710678118660264
    outer loop
      vertex 205.31999999999999 -80.079999999999998 -0.12000000000000001
      vertex 205.40000000000001 -80.120000000000005 -0.079999999999999988
      vertex 205.40000000000001 -80.079999999999998 -0.12000000000000001
    endloop
  endfacet
  facet normal 0.70710678118661807 0 0.70710678118647696
    outer loop
      vertex 205.28 -80.120000000000005 -0.079999999999999988
      vertex 205.31999999999999 -80.079999999999998 -0.12000000000000001
      vertex 205.31999999999999 -80 -0.12000000000000001
    endloop
  endfacet
  facet normal 0.70710678118661807 -0 0.70710678118647696
    outer loop
      vertex 205.28 -80.120000000000005 -0.079999999999999988
      vertex 205.31999999999999 -80 -0.12000000000000001
      vertex 205.28 -80 -0.079999999999999988
    endloop
  endfacet
  facet normal 0.70710678118661807 0 0.70710678118647707
    outer loop
      vertex 205.31999999999999 -68.120000000000005 -0.12000000000000001
      vertex 205.28 -72.079999999999998 -0.079999999999999988
      vertex 205.28 -80 -0.079999999999999988
    endloop
  endfacet
  facet normal 0.70710678118661807 0 0.70710678118647696
    outer loop
      vertex 205.31999999999999 -68.120000000000005 -0.12000000000000001
      vertex 205.28 -80 -0.079999999999999988
      vertex 205.31999999999999 -80 -0.12000000000000001
    endloop
  endfacet
  facet normal 0.70710678118661807 0 0.70710678118647707
    outer loop
      vertex 205.28 -72.079999999999998 -0.079999999999999988
      vertex 205.31999999999999 -68.120000000000005 -0.12000000000000001
      vertex 205.31999999999999 -60.200000000000003 -0.12000000000000001
    endloop
  endfacet
  facet normal 0.70710678118661807 -0 0.70710678118647696
    outer loop
      vertex 205.28 -72.079999999999998 -0.079999999999999988
      vertex 205.31999999999999 -60.200000000000003 -0.12000000000000001
      vertex 205.28 -60.200000000000003 -0.079999999999999988
    endloop
  endfacet
  facet normal 0.57735026918963006 -0.57735026918973253 0.57735026918951482
    outer loop
      vertex 205.28 -60.200000000000003 -0.079999999999999988
      vertex 205.31999999999999 -60.200000000000003 -0.12000000000000001
      vertex 205.40000000000001 -60.120000000000005 -0.12000000000000001
    endloop
  endfacet
  facet normal 0.57735026918960719 -0.57735026918964127 0.57735026918962873
    outer loop
      vertex 205.28 -60.200000000000003 -0.079999999999999988
      vertex 205.40000000000001 -60.120000000000005 -0.12000000000000001
      vertex 205.40000000000001 -60.080000000000005 -0.079999999999999988
    endloop
  endfacet
  facet normal -0.43643578047205539 0.21821789023598406 0.87287156094393625
    outer loop
      vertex 205.19999999999999 10.119999999999999 -0.079999999999999988
      vertex 205.23999999999998 10.199999999999999 -0.079999999999999988
      vertex 205.19999999999999 10.199999999999999 -0.10000000000000001
    endloop
  endfacet
  facet normal -0.44721359550002943 0 0.89442719099988011
    outer loop
      vertex 205.23999999999998 12.16 -0.079999999999999988
      vertex 205.19999999999999 10.199999999999999 -0.10000000000000001
      vertex 205.23999999999998 10.199999999999999 -0.079999999999999988
    endloop
  endfacet
  facet normal -0.44721359550002954 0 0.89442719099988011
    outer loop
      vertex 205.19999999999999 10.199999999999999 -0.10000000000000001
      vertex 205.23999999999998 12.160000000000002 -0.079999999999999988
      vertex 205.23999999999998 20 -0.079999999999999988
    endloop
  endfacet
  facet normal -0.44721359550002948 0 0.89442719099988011
    outer loop
      vertex 205.19999999999999 10.199999999999999 -0.10000000000000001
      vertex 205.23999999999998 20 -0.079999999999999988
      vertex 205.19999999999999 20 -0.10000000000000001
    endloop
  endfacet
  facet normal -0.44721359550002948 0 0.89442719099988011
    outer loop
      vertex 205.23999999999998 20.039999999999999 -0.079999999999999988
      vertex 205.19999999999999 20 -0.10000000000000001
      vertex 205.23999999999998 20 -0.079999999999999988
    endloop
  endfacet
  facet normal -0.58834840541462841 0.19611613513817455 0.78446454055268122
    outer loop
      vertex 205.19999999999999 20.079999999999998 -0.12000000000000001
      vertex 205.19999999999999 20 -0.10000000000000001
      vertex 205.23999999999998 20.039999999999999 -0.079999999999999988
    endloop
  endfacet
  facet normal -0.58834840541459066 0.1961161351382274 0.78446454055269632
    outer loop
      vertex 205.19999999999999 20.079999999999998 -0.12000000000000001
      vertex 205.23999999999998 20.039999999999999 -0.079999999999999988
      vertex 205.29333333333332 20.199999999999999 -0.079999999999999988
    endloop
  endfacet
  facet normal -0.58834840541450029 0.19611613513812612 0.78446454055278936
    outer loop
      vertex 205.19999999999999 20.079999999999998 -0.12000000000000001
      vertex 205.29333333333332 20.199999999999999 -0.079999999999999988
      vertex 205.23999999999998 20.199999999999999 -0.12000000000000001
    endloop
  endfacet
  facet normal -0.59999999999994025 0 0.8000000000000449
    outer loop
      vertex 205.29333333333332 29.439999999999998 -0.079999999999999988
      vertex 205.23999999999998 24.159999999999997 -0.12000000000000001
      vertex 205.23999999999998 20.199999999999999 -0.12000000000000001
    endloop
  endfacet
  facet normal -0.59999999999994025 0 0.8000000000000449
    outer loop
      vertex 205.29333333333332 29.439999999999998 -0.079999999999999988
      vertex 205.23999999999998 20.199999999999999 -0.12000000000000001
      vertex 205.29333333333332 20.199999999999999 -0.079999999999999988
    endloop
  endfacet
  facet normal -0.59999999999994014 0 0.80000000000004479
    outer loop
      vertex 205.23999999999998 24.159999999999997 -0.12000000000000001
      vertex 205.29333333333332 29.440000000000001 -0.079999999999999988
      vertex 205.29333333333332 40 -0.079999999999999988
    endloop
  endfacet
  facet normal -0.59999999999994025 0 0.8000000000000449
    outer loop
      vertex 205.23999999999998 24.159999999999997 -0.12000000000000001
      vertex 205.29333333333332 40 -0.079999999999999988
      vertex 205.23999999999998 40 -0.12000000000000001
    endloop
  endfacet
  facet normal -0.59999999999994014 0 0.80000000000004479
    outer loop
      vertex 205.29333333333332 40.093333333333334 -0.079999999999999988
      vertex 205.23999999999998 40.039999999999999 -0.12000000000000001
      vertex 205.23999999999998 40 -0.12000000000000001
    endloop
  endfacet
  facet normal -0.59999999999994014 0 0.80000000000004479
    outer loop
      vertex 205.29333333333332 40.093333333333334 -0.079999999999999988
      vertex 205.23999999999998 40 -0.12000000000000001
      vertex 205.29333333333332 40 -0.079999999999999988
    endloop
  endfacet
  facet normal -0.6963106238227359 0.17407765595570718 0.69631062382284437
    outer loop
      vertex 205.23999999999998 40.039999999999999 -0.12000000000000001
      vertex 205.29333333333332 40.093333333333334 -0.079999999999999988
      vertex 205.31999999999999 40.200000000000003 -0.079999999999999988
    endloop
  endfacet
  facet normal -0.69631062382284836 0.17407765595579716 0.69631062382270936
    outer loop
      vertex 205.23999999999998 40.039999999999999 -0.12000000000000001
      vertex 205.31999999999999 40.200000000000003 -0.079999999999999988
      vertex 205.28 40.200000000000003 -0.12000000000000001
    endloop
  endfacet
  facet normal -0.70710678118661796 0 0.70710678118647707
    outer loop
      vertex 205.31999999999999 52.080000000000005 -0.079999999999999988
      vertex 205.28 48.120000000000005 -0.12000000000000001
      vertex 205.28 40.200000000000003 -0.12000000000000001
    endloop
  endfacet
  facet normal -0.70710678118661807 0 0.70710678118647707
    outer loop
      vertex 205.31999999999999 52.080000000000005 -0.079999999999999988
      vertex 205.28 40.200000000000003 -0.12000000000000001
      vertex 205.31999999999999 40.200000000000003 -0.079999999999999988
    endloop
  endfacet
  facet normal -0.70710678118661807 0 0.70710678118647696
    outer loop
      vertex 205.28 48.120000000000005 -0.12000000000000001
      vertex 205.31999999999999 52.080000000000005 -0.079999999999999988
      vertex 205.31999999999999 60 -0.079999999999999988
    endloop
  endfacet
  facet normal -0.70710678118661807 0 0.70710678118647696
    outer loop
      vertex 205.28 48.120000000000005 -0.12000000000000001
      vertex 205.31999999999999 60 -0.079999999999999988
      vertex 205.28 60 -0.12000000000000001
    endloop
  endfacet
  facet normal -0.70710678118661796 0 0.70710678118647696
    outer loop
      vertex 205.31999999999999 60.119999999999997 -0.079999999999999988
      vertex 205.28 60.079999999999998 -0.12000000000000001
      vertex 205.28 60 -0.12000000000000001
    endloop
  endfacet
  facet normal -0.70710678118661807 0 0.70710678118647696
    outer loop
      vertex 205.31999999999999 60.119999999999997 -0.079999999999999988
      vertex 205.28 60 -0.12000000000000001
      vertex 205.31999999999999 60 -0.079999999999999988
    endloop
  endfacet
  facet normal -0.19611613513818135 -0.58834840541454403 0.78446454055274295
    outer loop
      vertex 205.19999999999999 60.160000000000004 -0.079999999999999988
      vertex 205.19999999999999 60.106666666666669 -0.12000000000000001
      vertex 205.28 60.079999999999998 -0.12000000000000001
    endloop
  endfacet
  facet normal -0.1961161351382108 -0.58834840541456268 0.78446454055272152
    outer loop
      vertex 205.19999999999999 60.160000000000004 -0.079999999999999988
      vertex 205.28 60.079999999999998 -0.12000000000000001
      vertex 205.31999999999999 60.119999999999997 -0.079999999999999988
    endloop
  endfacet
  facet normal -0.43643578047205489 0.21821789023598867 0.87287156094393537
    outer loop
      vertex 205.19999999999999 80.120000000000005 -0.079999999999999988
      vertex 205.23999999999998 80.200000000000003 -0.079999999999999988
      vertex 205.19999999999999 80.200000000000003 -0.10000000000000001
    endloop
  endfacet
  facet normal -0.44721359550002943 0 0.89442719099988022
    outer loop
      vertex 205.23999999999998 84.160000000000011 -0.079999999999999988
      vertex 205.19999999999999 80.200000000000003 -0.10000000000000001
      vertex 205.23999999999998 80.200000000000003 -0.079999999999999988
    endloop
  endfacet
  facet normal -0.44721359550002948 0 0.89442719099988011
    outer loop
      vertex 205.19999999999999 80.200000000000003 -0.10000000000000001
      vertex 205.23999999999998 84.160000000000011 -0.079999999999999988
      vertex 205.23999999999998 100 -0.079999999999999988
    endloop
  endfacet
  facet normal -0.44721359550002948 0 0.89442719099988022
    outer loop
      vertex 205.19999999999999 80.200000000000003 -0.10000000000000001
      vertex 205.23999999999998 100 -0.079999999999999988
      vertex 205.19999999999999 100 -0.10000000000000001
    endloop
  endfacet
  facet normal 0 0.70710678118649251 0.70710678118660264
    outer loop
      vertex 208.40000000000001 -80.079999999999998 -0.12000000000000001
      vertex 207.40000000000001 -80.120000000000005 -0.079999999999999988
      vertex 210.40000000000001 -80.120000000000005 -0.079999999999999988
    endloop
  endfacet
  facet normal -0 0.70710678118649251 0.70710678118660264
    outer loop
      vertex 208.40000000000001 -80.079999999999998 -0.12000000000000001
      vertex 210.40000000000001 -80.120000000000005 -0.079999999999999988
      vertex 210.40000000000001 -80.079999999999998 -0.12000000000000001
    endloop
  endfacet
  facet normal 0 0.70710678118649251 0.70710678118660264
    outer loop
      vertex 205.40000000000001 -80.079999999999998 -0.12000000000000001
      vertex 205.40000000000001 -80.120000000000005 -0.079999999999999988
      vertex 207.40000000000001 -80.120000000000005 -0.079999999999999988
    endloop
  endfacet
  facet normal -0 0.70710678118649251 0.70710678118660264
    outer loop
      vertex 205.40000000000001 -80.079999999999998 -0.12000000000000001
      vertex 207.40000000000001 -80.120000000000005 -0.079999999999999988
      vertex 208.40000000000001 -80.079999999999998 -0.12000000000000001
    endloop
  endfacet
  facet normal 0 -0.70710678118655523 0.7071067811865398
    outer loop
      vertex 208.40000000000001 -60.080000000000005 -0.079999999999999988
      vertex 207.40000000000001 -60.120000000000005 -0.12000000000000001
      vertex 210.40000000000001 -60.120000000000005 -0.12000000000000001
    endloop
  endfacet
  facet normal 0 -0.70710678118655523 0.70710678118653969
    outer loop
      vertex 208.40000000000001 -60.080000000000005 -0.079999999999999988
      vertex 210.40000000000001 -60.120000000000005 -0.12000000000000001
      vertex 210.40000000000001 -60.080000000000005 -0.079999999999999988
    endloop
  endfacet
  facet normal 0 -0.70710678118655523 0.70710678118653969
    outer loop
      vertex 205.40000000000001 -60.080000000000005 -0.079999999999999988
      vertex 205.40000000000001 -60.120000000000005 -0.12000000000000001
      vertex 207.40000000000001 -60.120000000000005 -0.12000000000000001
    endloop
  endfacet
  facet normal 0 -0.70710678118655523 0.7071067811865398
    outer loop
      vertex 205.40000000000001 -60.080000000000005 -0.079999999999999988
      vertex 207.40000000000001 -60.120000000000005 -0.12000000000000001
      vertex 208.40000000000001 -60.080000000000005 -0.079999999999999988
    endloop
  endfacet
  facet normal 0 0.70710678118649239 0.70710678118660253
    outer loop
      vertex 210.52000000000001 -80.079999999999998 -0.12000000000000001
      vertex 210.48000000000002 -80.120000000000005 -0.079999999999999988
      vertex 210.59999999999999 -80.120000000000005 -0.079999999999999988
    endloop
  endfacet
  facet normal -0 0.70710678118649251 0.70710678118660264
    outer loop
      vertex 210.52000000000001 -80.079999999999998 -0.12000000000000001
      vertex 210.59999999999999 -80.120000000000005 -0.079999999999999988
      vertex 210.59999999999999 -80.079999999999998 -0.12000000000000001
    endloop
  endfacet
  facet normal 0 0.70710678118649239 0.70710678118660264
    outer loop
      vertex 210.40000000000001 -80.079999999999998 -0.12000000000000001
      vertex 210.40000000000001 -80.120000000000005 -0.079999999999999988
      vertex 210.48000000000002 -80.120000000000005 -0.079999999999999988
    endloop
  endfacet
  facet normal -0 0.70710678118649251 0.70710678118660264
    outer loop
      vertex 210.40000000000001 -80.079999999999998 -0.12000000000000001
      vertex 210.48000000000002 -80.120000000000005 -0.079999999999999988
      vertex 210.52000000000001 -80.079999999999998 -0.12000000000000001
    endloop
  endfacet
  facet normal 0 -0.70710678118655523 0.7071067811865398
    outer loop
      vertex 210.51999999999998 -60.080000000000005 -0.079999999999999988
      vertex 210.47999999999999 -60.120000000000005 -0.12000000000000001
      vertex 210.59999999999999 -60.120000000000005 -0.12000000000000001
    endloop
  endfacet
  facet normal 0 -0.70710678118655523 0.7071067811865398
    outer loop
      vertex 210.51999999999998 -60.080000000000005 -0.079999999999999988
      vertex 210.59999999999999 -60.120000000000005 -0.12000000000000001
      vertex 210.59999999999999 -60.080000000000005 -0.079999999999999988
    endloop
  endfacet
  facet normal 0 -0.70710678118655523 0.70710678118653969
    outer loop
      vertex 210.40000000000001 -60.080000000000005 -0.079999999999999988
      vertex 210.40000000000001 -60.120000000000005 -0.12000000000000001
      vertex 210.47999999999999 -60.120000000000005 -0.12000000000000001
    endloop
  endfacet
  facet normal 0 -0.70710678118655523 0.7071067811865398
    outer loop
      vertex 210.40000000000001 -60.080000000000005 -0.079999999999999988
      vertex 210.47999999999999 -60.120000000000005 -0.12000000000000001
      vertex 210.51999999999998 -60.080000000000005 -0.079999999999999988
    endloop
  endfacet
  facet normal 6.388722569515326e-17 0.70710678118654757 0.70710678118654757
    outer loop
      vertex 210.52000000000001 0.12000000000000001 -0.12000000000000001
      vertex 210.48000000000002 0.079999999999999988 -0.079999999999999988
      vertex 210.59999999999999 0.079999999999999974 -0.079999999999999988
    endloop
  endfacet
  facet normal 1.2266347333469431e-16 0.70710678118654746 0.70710678118654746
    outer loop
      vertex 210.52000000000001 0.12000000000000001 -0.12000000000000001
      vertex 210.59999999999999 0.079999999999999974 -0.079999999999999988
      vertex 210.59999999999999 0.12 -0.12000000000000001
    endloop
  endfacet
  facet normal 0.70710678118661807 0 0.70710678118647707
    outer loop
      vertex 210.48000000000002 0.079999999999999974 -0.079999999999999988
      vertex 210.52000000000001 0.12 -0.12000000000000001
      vertex 210.52000000000001 0.20000000000000001 -0.12000000000000001
    endloop
  endfacet
  facet normal 0.70710678118661807 -0 0.70710678118647696
    outer loop
      vertex 210.48000000000002 0.079999999999999974 -0.079999999999999988
      vertex 210.52000000000001 0.20000000000000001 -0.12000000000000001
      vertex 210.48000000000002 0.20000000000000001 -0.079999999999999988
    endloop
  endfacet
  facet normal 0.70710678118661807 0 0.70710678118647696
    outer loop
      vertex 210.52000000000001 6.0800000000000001 -0.12000000000000001
      vertex 210.48000000000002 4.1199999999999992 -0.079999999999999988
      vertex 210.48000000000002 0.20000000000000001 -0.079999999999999988
    endloop
  endfacet
  facet normal 0.70710678118661807 0 0.70710678118647696
    outer loop
      vertex 210.52000000000001 6.0800000000000001 -0.12000000000000001
      vertex 210.48000000000002 0.20000000000000001 -0.079999999999999988
      vertex 210.52000000000001 0.20000000000000001 -0.12000000000000001
    endloop
  endfacet
  facet normal 0.70710678118661807 0 0.70710678118647696
    outer loop
      vertex 210.48000000000002 4.1199999999999992 -0.079999999999999988
      vertex 210.52000000000001 6.0800000000000001 -0.12000000000000001
      vertex 210.52000000000001 10 -0.12000000000000001
    endloop
  endfacet
  facet normal 0.70710678118661807 -0 0.70710678118647696
    outer loop
      vertex 210.48000000000002 4.1199999999999992 -0.079999999999999988
      vertex 210.52000000000001 10 -0.12000000000000001
      vertex 210.48000000000002 10 -0.079999999999999988
    endloop
  endfacet
  facet normal 0.69631062382263631 -0.17407765595549968 0.69631062382299591
    outer loop
      vertex 210.56 10.16 -0.12000000000000001
      vertex 210.50666666666666 10.106666666666667 -0.079999999999999988
      vertex 210.48000000000002 10 -0.079999999999999988
    endloop
  endfacet
  facet normal 0.69631062382286291 -0.17407765595568095 0.69631062382272402
    outer loop
      vertex 210.56 10.16 -0.12000000000000001
      vertex 210.48000000000002 10 -0.079999999999999988
      vertex 210.52000000000001 10 -0.12000000000000001
    endloop
  endfacet
  facet normal 0.59999999999994014 0 0.80000000000004479
    outer loop
      vertex 210.50666666666666 10.106666666666667 -0.079999999999999988
      vertex 210.56 10.16 -0.12000000000000001
      vertex 210.56 10.199999999999999 -0.12000000000000001
    endloop
  endfacet
  facet normal 0.59999999999994025 -0 0.8000000000000449
    outer loop
      vertex 210.50666666666666 10.106666666666667 -0.079999999999999988
      vertex 210.56 10.199999999999999 -0.12000000000000001
      vertex 210.50666666666666 10.199999999999999 -0.079999999999999988
    endloop
  endfacet
  facet normal 0.59999999999994014 0 0.8000000000000449
    outer loop
      vertex 210.56 18.039999999999999 -0.12000000000000001
      vertex 210.50666666666666 15.426666666666664 -0.079999999999999988
      vertex 210.50666666666666 10.199999999999999 -0.079999999999999988
    endloop
  endfacet
  facet normal 0.59999999999994025 0 0.8000000000000449
    outer loop
      vertex 210.56 18.039999999999999 -0.12000000000000001
      vertex 210.50666666666666 10.199999999999999 -0.079999999999999988
      vertex 210.56 10.199999999999999 -0.12000000000000001
    endloop
  endfacet
  facet normal 0.59999999999994025 0 0.8000000000000449
    outer loop
      vertex 210.50666666666666 15.426666666666666 -0.079999999999999988
      vertex 210.56 18.039999999999999 -0.12000000000000001
      vertex 210.56 20 -0.12000000000000001
    endloop
  endfacet
  facet normal 0.59999999999994014 -0 0.80000000000004479
    outer loop
      vertex 210.50666666666666 15.426666666666666 -0.079999999999999988
      vertex 210.56 20 -0.12000000000000001
      vertex 210.50666666666666 20 -0.079999999999999988
    endloop
  endfacet
  facet normal 0.58834840541449218 -0.19611613513819454 0.78446454055277848
    outer loop
      vertex 210.56 20.16 -0.079999999999999988
      vertex 210.50666666666666 20 -0.079999999999999988
      vertex 210.56 20 -0.12000000000000001
    endloop
  endfacet
  facet normal 0.58834840541463174 -0.19611613513816994 0.78446454055268
    outer loop
      vertex 210.56 20.16 -0.079999999999999988
      vertex 210.56 20 -0.12000000000000001
      vertex 210.59999999999999 20.120000000000001 -0.12000000000000001
    endloop
  endfacet
  facet normal 0.58834840541462841 -0.19611613513817458 0.78446454055268122
    outer loop
      vertex 210.56 20.16 -0.079999999999999988
      vertex 210.59999999999999 20.120000000000001 -0.12000000000000001
      vertex 210.59999999999999 20.199999999999999 -0.10000000000000001
    endloop
  endfacet
  facet normal 0.44721359550002948 -0 0.89442719099988011
    outer loop
      vertex 210.56 20.16 -0.079999999999999988
      vertex 210.59999999999999 20.199999999999999 -0.10000000000000001
      vertex 210.56 20.199999999999999 -0.079999999999999988
    endloop
  endfacet
  facet normal 0.44721359550002943 0 0.89442719099988
    outer loop
      vertex 210.56 36.039999999999999 -0.079999999999999988
      vertex 210.56 20.199999999999999 -0.079999999999999988
      vertex 210.59999999999999 20.199999999999999 -0.10000000000000001
    endloop
  endfacet
  facet normal 0.44721359550002948 0 0.89442719099988011
    outer loop
      vertex 210.56 36.039999999999999 -0.079999999999999988
      vertex 210.59999999999999 20.199999999999999 -0.10000000000000001
      vertex 210.59999999999999 40 -0.10000000000000001
    endloop
  endfacet
  facet normal 0.44721359550002943 -0 0.89442719099988022
    outer loop
      vertex 210.56 36.039999999999992 -0.079999999999999988
      vertex 210.59999999999999 40 -0.10000000000000001
      vertex 210.56 40 -0.079999999999999988
    endloop
  endfacet
  facet normal 0.43643578047205489 -0.21821789023598867 0.87287156094393537
    outer loop
      vertex 210.56 40 -0.079999999999999988
      vertex 210.59999999999999 40 -0.10000000000000001
      vertex 210.59999999999999 40.079999999999998 -0.079999999999999988
    endloop
  endfacet
  facet normal 0 0.70710678118649251 0.70710678118660264
    outer loop
      vertex 210.72 -80.079999999999998 -0.12000000000000001
      vertex 210.68000000000001 -80.120000000000005 -0.079999999999999988
      vertex 210.80000000000001 -80.120000000000005 -0.079999999999999988
    endloop
  endfacet
  facet normal -0 0.70710678118649239 0.70710678118660264
    outer loop
      vertex 210.72 -80.079999999999998 -0.12000000000000001
      vertex 210.80000000000001 -80.120000000000005 -0.079999999999999988
      vertex 210.80000000000001 -80.079999999999998 -0.12000000000000001
    endloop
  endfacet
  facet normal 0 0.70710678118649239 0.70710678118660264
    outer loop
      vertex 210.59999999999999 -80.079999999999998 -0.12000000000000001
      vertex 210.59999999999999 -80.120000000000005 -0.079999999999999988
      vertex 210.68000000000001 -80.120000000000005 -0.079999999999999988
    endloop
  endfacet
  facet normal -0 0.70710678118649251 0.70710678118660264
    outer loop
      vertex 210.59999999999999 -80.079999999999998 -0.12000000000000001
      vertex 210.68000000000001 -80.120000000000005 -0.079999999999999988
      vertex 210.72 -80.079999999999998 -0.12000000000000001
    endloop
  endfacet
  facet normal 0 -0.70710678118655523 0.7071067811865398
    outer loop
      vertex 210.72 -60.080000000000005 -0.079999999999999988
      vertex 210.68000000000001 -60.120000000000005 -0.12000000000000001
      vertex 210.80000000000001 -60.120000000000005 -0.12000000000000001
    endloop
  endfacet
  facet normal 0 -0.70710678118655523 0.7071067811865398
    outer loop
      vertex 210.72 -60.080000000000005 -0.079999999999999988
      vertex 210.80000000000001 -60.120000000000005 -0.12000000000000001
      vertex 210.80000000000001 -60.080000000000005 -0.079999999999999988
    endloop
  endfacet
  facet normal 0 -0.70710678118655523 0.7071067811865398
    outer loop
      vertex 210.59999999999999 -60.080000000000005 -0.079999999999999988
      vertex 210.59999999999999 -60.120000000000005 -0.12000000000000001
      vertex 210.68000000000001 -60.120000000000005 -0.12000000000000001
    endloop
  endfacet
  facet normal 0 -0.70710678118655523 0.7071067811865398
    outer loop
      vertex 210.59999999999999 -60.080000000000005 -0.079999999999999988
      vertex 210.68000000000001 -60.120000000000005 -0.12000000000000001
      vertex 210.72 -60.080000000000005 -0.079999999999999988
    endloop
  endfacet
  facet normal 6.3887225695138136e-17 0.70710678118654746 0.70710678118654768
    outer loop
      vertex 210.72 0.12000000000000001 -0.12000000000000001
      vertex 210.68000000000001 0.079999999999999988 -0.079999999999999988
      vertex 210.80000000000001 0.079999999999999974 -0.079999999999999988
    endloop
  endfacet
  facet normal 1.2266347333465075e-16 0.70710678118654757 0.70710678118654757
    outer loop
      vertex 210.72 0.12000000000000001 -0.12000000000000001
      vertex 210.80000000000001 0.079999999999999974 -0.079999999999999988
      vertex 210.80000000000001 0.12 -0.12000000000000001
    endloop
  endfacet
  facet normal 9.5830838542695852e-17 0.70710678118654757 0.70710678118654757
    outer loop
      vertex 210.59999999999999 0.12000000000000001 -0.12000000000000001
      vertex 210.59999999999999 0.079999999999999988 -0.079999999999999988
      vertex 210.68000000000001 0.079999999999999974 -0.079999999999999988
    endloop
  endfacet
  facet normal 8.1775648889776848e-17 0.70710678118654746 0.70710678118654768
    outer loop
      vertex 210.59999999999999 0.12000000000000001 -0.12000000000000001
      vertex 210.68000000000001 0.079999999999999974 -0.079999999999999988
      vertex 210.72 0.12 -0.12000000000000001
    endloop
  endfacet
  facet normal 0 -0.24253562503633788 0.97014250014533066
    outer loop
      vertex 210.72 20.120000000000001 -0.12000000000000001
      vertex 210.80000000000001 20.120000000000001 -0.12000000000000001
      vertex 210.80000000000001 20.199999999999999 -0.10000000000000001
    endloop
  endfacet
  facet normal 0 -0.24253562503633791 0.97014250014533077
    outer loop
      vertex 210.59999999999999 20.120000000000001 -0.12000000000000001
      vertex 210.72 20.120000000000001 -0.12000000000000001
      vertex 210.80000000000001 20.199999999999999 -0.10000000000000001
    endloop
  endfacet
  facet normal 0 -0.24253562503633785 0.97014250014533054
    outer loop
      vertex 210.59999999999999 20.120000000000001 -0.12000000000000001
      vertex 210.80000000000001 20.199999999999999 -0.10000000000000001
      vertex 210.59999999999999 20.199999999999999 -0.10000000000000001
    endloop
  endfacet
  facet normal 0 0 1
    outer loop
      vertex 210.59999999999999 20.199999999999999 -0.10000000000000001
      vertex 210.80000000000001 20.199999999999999 -0.10000000000000001
      vertex 210.80000000000001 40 -0.10000000000000001
    endloop
  endfacet
  facet normal 0 0 1
    outer loop
      vertex 210.59999999999999 20.199999999999999 -0.10000000000000001
      vertex 210.80000000000001 40 -0.10000000000000001
      vertex 210.59999999999999 40 -0.10000000000000001
    endloop
  endfacet
  facet normal 0 -0.24253562503633799 0.97014250014533054
    outer loop
      vertex 210.68000000000001 40.079999999999998 -0.079999999999999988
      vertex 210.59999999999999 40 -0.10000000000000001
      vertex 210.80000000000001 40 -0.10000000000000001
    endloop
  endfacet
  facet normal 0 -0.24253562503633805 0.97014250014533054
    outer loop
      vertex 210.68000000000001 40.079999999999998 -0.079999999999999988
      vertex 210.80000000000001 40 -0.10000000000000001
      vertex 210.80000000000001 40.079999999999998 -0.079999999999999988
    endloop
  endfacet
  facet normal 0 -0.24253562503633805 0.97014250014533066
    outer loop
      vertex 210.59999999999999 40.079999999999998 -0.079999999999999988
      vertex 210.59999999999999 40 -0.10000000000000001
      vertex 210.68000000000001 40.079999999999998 -0.079999999999999988
    endloop
  endfacet
  facet normal -0.028272964322664566 0.70682410806658746 0.70682410806669749
    outer loop
      vertex 210.80000000000001 -80.079999999999998 -0.12000000000000001
      vertex 210.80000000000001 -80.120000000000005 -0.079999999999999988
      vertex 213.80000000000001 -80 -0.079999999999999988
    endloop
  endfacet
  facet normal -0.028272964322665402 0.70682410806665019 0.70682410806663476
    outer loop
      vertex 210.80000000000001 -80.079999999999998 -0.12000000000000001
      vertex 213.80000000000001 -80 -0.079999999999999988
      vertex 212.80000000000001 -80 -0.12000000000000001
    endloop
  endfacet
  facet normal -0.039968038348871596 0 0.99920095872178949
    outer loop
      vertex 213.80000000000001 -68.120000000000005 -0.079999999999999988
      vertex 212.80000000000001 -72.079999999999998 -0.12000000000000001
      vertex 212.80000000000001 -80 -0.12000000000000001
    endloop
  endfacet
  facet normal -0.039968038348871603 0 0.99920095872178949
    outer loop
      vertex 213.80000000000001 -68.120000000000005 -0.079999999999999988
      vertex 212.80000000000001 -80 -0.12000000000000001
      vertex 213.80000000000001 -80 -0.079999999999999988
    endloop
  endfacet
  facet normal -0.039968038348871596 0 0.99920095872178949
    outer loop
      vertex 212.80000000000001 -72.079999999999998 -0.12000000000000001
      vertex 213.80000000000001 -68.120000000000005 -0.079999999999999988
      vertex 213.80000000000001 -60.200000000000003 -0.079999999999999988
    endloop
  endfacet
  facet normal -0.039968038348871603 0 0.99920095872178949
    outer loop
      vertex 212.80000000000001 -72.079999999999998 -0.12000000000000001
      vertex 213.80000000000001 -60.200000000000003 -0.079999999999999988
      vertex 212.80000000000001 -60.200000000000003 -0.12000000000000001
    endloop
  endfacet
  facet normal -0.039968038348871603 0 0.99920095872178949
    outer loop
      vertex 213.80000000000001 -60.080000000000005 -0.079999999999999988
      vertex 212.80000000000001 -60.120000000000005 -0.12000000000000001
      vertex 212.80000000000001 -60.200000000000003 -0.12000000000000001
    endloop
  endfacet
  facet normal -0.039968038348871603 0 0.99920095872178938
    outer loop
      vertex 213.80000000000001 -60.080000000000005 -0.079999999999999988
      vertex 212.80000000000001 -60.200000000000003 -0.12000000000000001
      vertex 213.80000000000001 -60.200000000000003 -0.079999999999999988
    endloop
  endfacet
  facet normal 0 -0.70710678118655523 0.70710678118653969
    outer loop
      vertex 210.80000000000001 -60.080000000000005 -0.079999999999999988
      vertex 210.80000000000001 -60.120000000000005 -0.12000000000000001
      vertex 212.80000000000001 -60.120000000000005 -0.12000000000000001
    endloop
  endfacet
  facet normal 0 -0.70710678118655523 0.7071067811865398
    outer loop
      vertex 210.80000000000001 -60.080000000000005 -0.079999999999999988
      vertex 212.80000000000001 -60.120000000000005 -0.12000000000000001
      vertex 213.80000000000001 -60.080000000000005 -0.079999999999999988
    endloop
  endfacet
  facet normal -0.0062468285873950955 0.78085357342438666 0.62468285873950935
    outer loop
      vertex 213.80000000000001 0.12000000000000001 -0.12000000000000001
      vertex 212.80000000000001 0.079999999999999988 -0.079999999999999988
      vertex 215.80000000000001 0.104 -0.079999999999999988
    endloop
  endfacet
  facet normal -0.0062468285873950929 0.78085357342438655 0.62468285873950924
    outer loop
      vertex 213.80000000000001 0.12000000000000001 -0.12000000000000001
      vertex 215.80000000000001 0.104 -0.079999999999999988
      vertex 215.80000000000001 0.13600000000000001 -0.12000000000000001
    endloop
  endfacet
  facet normal 3.833233541708433e-18 0.70710678118654757 0.70710678118654757
    outer loop
      vertex 210.80000000000001 0.12000000000000001 -0.12000000000000001
      vertex 210.80000000000001 0.079999999999999988 -0.079999999999999988
      vertex 212.80000000000001 0.079999999999999974 -0.079999999999999988
    endloop
  endfacet
  facet normal 3.271025955591198e-18 0.70710678118654757 0.70710678118654757
    outer loop
      vertex 210.80000000000001 0.12000000000000001 -0.12000000000000001
      vertex 212.80000000000001 0.079999999999999974 -0.079999999999999988
      vertex 213.80000000000001 0.12 -0.12000000000000001
    endloop
  endfacet
  facet normal 0 -0.24253562503633788 0.97014250014533066
    outer loop
      vertex 213.80000000000001 20.120000000000001 -0.12000000000000001
      vertex 215.80000000000001 20.120000000000001 -0.12000000000000001
      vertex 215.80000000000001 20.199999999999999 -0.10000000000000001
    endloop
  endfacet
  facet normal 0 -0.24253562503633788 0.97014250014533066
    outer loop
      vertex 210.80000000000001 20.120000000000001 -0.12000000000000001
      vertex 213.80000000000001 20.120000000000001 -0.12000000000000001
      vertex 215.80000000000001 20.199999999999999 -0.10000000000000001
    endloop
  endfacet
  facet normal 0 -0.24253562503633788 0.97014250014533066
    outer loop
      vertex 210.80000000000001 20.120000000000001 -0.12000000000000001
      vertex 215.80000000000001 20.199999999999999 -0.10000000000000001
      vertex 210.80000000000001 20.199999999999999 -0.10000000000000001
    endloop
  endfacet
  facet normal 0 0 1
    outer loop
      vertex 210.80000000000001 20.199999999999999 -0.10000000000000001
      vertex 215.80000000000001 20.199999999999999 -0.10000000000000001
      vertex 215.80000000000001 40 -0.10000000000000001
    endloop
  endfacet
  facet normal 0 0 1
    outer loop
      vertex 210.80000000000001 20.199999999999999 -0.10000000000000001
      vertex 215.80000000000001 40 -0.10000000000000001
      vertex 210.80000000000001 40 -0.10000000000000001
    endloop
  endfacet
  facet normal 0 -0.24253562503633805 0.97014250014533066
    outer loop
      vertex 212.80000000000001 40.079999999999998 -0.079999999999999988
      vertex 210.80000000000001 40 -0.10000000000000001
      vertex 215.80000000000001 40 -0.10000000000000001
    endloop
  endfacet
  facet normal 0 -0.24253562503633805 0.97014250014533054
    outer loop
      vertex 212.80000000000001 40.079999999999998 -0.079999999999999988
      vertex 215.80000000000001 40 -0.10000000000000001
      vertex 215.80000000000001 40.079999999999998 -0.079999999999999988
    endloop
  endfacet
  facet normal 0 -0.24253562503633802 0.97014250014533054
    outer loop
      vertex 210.80000000000001 40.079999999999998 -0.079999999999999988
      vertex 210.80000000000001 40 -0.10000000000000001
      vertex 212.80000000000001 40.079999999999998 -0.079999999999999988
    endloop
  endfacet
  facet normal 0 0.78086880944303039 0.62469504755442418
    outer loop
      vertex 215.93600000000001 0.13600000000000001 -0.12000000000000001
      vertex 215.904 0.104 -0.079999999999999988
      vertex 216 0.104 -0.079999999999999988
    endloop
  endfacet
  facet normal -0 0.78086880944303039 0.62469504755442418
    outer loop
      vertex 215.93600000000001 0.13600000000000001 -0.12000000000000001
      vertex 216 0.104 -0.079999999999999988
      vertex 216 0.13600000000000001 -0.12000000000000001
    endloop
  endfacet
  facet normal 0 0.78086880944303039 0.62469504755442429
    outer loop
      vertex 215.80000000000001 0.13600000000000001 -0.12000000000000001
      vertex 215.80000000000001 0.104 -0.079999999999999988
      vertex 215.904 0.104 -0.079999999999999988
    endloop
  endfacet
  facet normal -0 0.78086880944303039 0.62469504755442418
    outer loop
      vertex 215.80000000000001 0.13600000000000001 -0.12000000000000001
      vertex 215.904 0.104 -0.079999999999999988
      vertex 215.93600000000001 0.13600000000000001 -0.12000000000000001
    endloop
  endfacet
  facet normal 0 -0.24253562503633791 0.97014250014533066
    outer loop
      vertex 215.92000000000002 20.120000000000001 -0.12000000000000001
      vertex 216 20.120000000000001 -0.12000000000000001
      vertex 216 20.199999999999999 -0.10000000000000001
    endloop
  endfacet
  facet normal 0 -0.24253562503633791 0.97014250014533077
    outer loop
      vertex 215.80000000000001 20.120000000000001 -0.12000000000000001
      vertex 215.92000000000002 20.120000000000001 -0.12000000000000001
      vertex 216 20.199999999999999 -0.10000000000000001
    endloop
  endfacet
  facet normal 0 -0.24253562503633794 0.97014250014533077
    outer loop
      vertex 215.80000000000001 20.120000000000001 -0.12000000000000001
      vertex 216 20.199999999999999 -0.10000000000000001
      vertex 215.80000000000001 20.199999999999999 -0.10000000000000001
    endloop
  endfacet
  facet normal 0 0 1
    outer loop
      vertex 215.80000000000001 20.199999999999999 -0.10000000000000001
      vertex 216 20.199999999999999 -0.10000000000000001
      vertex 216 40 -0.10000000000000001
    endloop
  endfacet
  facet normal 0 0 1
    outer loop
      vertex 215.80000000000001 20.199999999999999 -0.10000000000000001
      vertex 216 40 -0.10000000000000001
      vertex 215.80000000000001 40 -0.10000000000000001
    endloop
  endfacet
  facet normal 0 -0.24253562503633805 0.97014250014533054
    outer loop
      vertex 215.88 40.079999999999998 -0.079999999999999988
      vertex 215.80000000000001 40 -0.10000000000000001
      vertex 216 40 -0.10000000000000001
    endloop
  endfacet
  facet normal 0 -0.24253562503633805 0.97014250014533054
    outer loop
      vertex 215.88 40.079999999999998 -0.079999999999999988
      vertex 216 40 -0.10000000000000001
      vertex 216 40.079999999999998 -0.079999999999999988
    endloop
  endfacet
  facet normal 0 -0.24253562503633808 0.97014250014533066
    outer loop
      vertex 215.80000000000001 40.079999999999998 -0.079999999999999988
      vertex 215.80000000000001 40 -0.10000000000000001
      vertex 215.88 40.079999999999998 -0.079999999999999988
    endloop
  endfacet
  facet normal -0.52981294282609348 0.66226617853248493 0.5298129428259879
    outer loop
      vertex 216 0.13600000000000001 -0.12000000000000001
      vertex 216 0.104 -0.079999999999999988
      vertex 216.11999999999998 0.20000000000000001 -0.079999999999999988
    endloop
  endfacet
  facet normal -0.52981294282609348 0.66226617853248504 0.52981294282598768
    outer loop
      vertex 216 0.13600000000000001 -0.12000000000000001
      vertex 216.11999999999998 0.20000000000000001 -0.079999999999999988
      vertex 216.07999999999998 0.20000000000000001 -0.12000000000000001
    endloop
  endfacet
  facet normal -0.70710678118661807 0 0.70710678118647696
    outer loop
      vertex 216.11999999999998 6.080000000000001 -0.079999999999999988
      vertex 216.07999999999998 4.1200000000000001 -0.12000000000000001
      vertex 216.07999999999998 0.20000000000000001 -0.12000000000000001
    endloop
  endfacet
  facet normal -0.70710678118661807 0 0.70710678118647696
    outer loop
      vertex 216.11999999999998 6.080000000000001 -0.079999999999999988
      vertex 216.07999999999998 0.20000000000000001 -0.12000000000000001
      vertex 216.11999999999998 0.20000000000000001 -0.079999999999999988
    endloop
  endfacet
  facet normal -0.70710678118661807 0 0.70710678118647696
    outer loop
      vertex 216.07999999999998 4.1200000000000001 -0.12000000000000001
      vertex 216.11999999999998 6.080000000000001 -0.079999999999999988
      vertex 216.11999999999998 10 -0.079999999999999988
    endloop
  endfacet
  facet normal -0.70710678118661807 0 0.70710678118647696
    outer loop
      vertex 216.07999999999998 4.1200000000000001 -0.12000000000000001
      vertex 216.11999999999998 10 -0.079999999999999988
      vertex 216.07999999999998 10 -0.12000000000000001
    endloop
  endfacet
  facet normal -0.70710678118661807 0 0.70710678118647696
    outer loop
      vertex 216.11999999999998 10.119999999999999 -0.079999999999999988
      vertex 216.07999999999998 10.08 -0.12000000000000001
      vertex 216.07999999999998 10 -0.12000000000000001
    endloop
  endfacet
  facet normal -0.70710678118661807 0 0.70710678118647707
    outer loop
      vertex 216.11999999999998 10.119999999999999 -0.079999999999999988
      vertex 216.07999999999998 10 -0.12000000000000001
      vertex 216.11999999999998 10 -0.079999999999999988
    endloop
  endfacet
  facet normal -0.58834840541471123 -0.19611613513805859 0.78446454055264814
    outer loop
      vertex 216.07999999999998 10.08 -0.12000000000000001
      vertex 216.11999999999998 10.119999999999999 -0.079999999999999988
      vertex 216.09333333333333 10.199999999999999 -0.079999999999999988
    endloop
  endfacet
  facet normal -0.58834840541450006 -0.19611613513812895 0.78446454055278891
    outer loop
      vertex 216.07999999999998 10.08 -0.12000000000000001
      vertex 216.09333333333333 10.199999999999999 -0.079999999999999988
      vertex 216.03999999999999 10.199999999999999 -0.12000000000000001
    endloop
  endfacet
  facet normal -0.59999999999994025 0 0.8000000000000449
    outer loop
      vertex 216.09333333333333 14.773333333333333 -0.079999999999999988
      vertex 216.03999999999999 12.16 -0.12000000000000001
      vertex 216.03999999999999 10.199999999999999 -0.12000000000000001
    endloop
  endfacet
  facet normal -0.59999999999994014 0 0.80000000000004479
    outer loop
      vertex 216.09333333333333 14.773333333333333 -0.079999999999999988
      vertex 216.03999999999999 10.199999999999999 -0.12000000000000001
      vertex 216.09333333333333 10.199999999999999 -0.079999999999999988
    endloop
  endfacet
  facet normal -0.59999999999994003 0 0.80000000000004501
    outer loop
      vertex 216.03999999999999 12.159999999999998 -0.12000000000000001
      vertex 216.09333333333333 14.773333333333333 -0.079999999999999988
      vertex 216.09333333333333 20 -0.079999999999999988
    endloop
  endfacet
  facet normal -0.59999999999994003 0 0.80000000000004479
    outer loop
      vertex 216.03999999999999 12.159999999999998 -0.12000000000000001
      vertex 216.09333333333333 20 -0.079999999999999988
      vertex 216.03999999999999 20 -0.12000000000000001
    endloop
  endfacet
  facet normal -0.59999999999994014 0 0.80000000000004479
    outer loop
      vertex 216.09333333333333 20.093333333333334 -0.079999999999999988
      vertex 216.03999999999999 20.039999999999999 -0.12000000000000001
      vertex 216.03999999999999 20 -0.12000000000000001
    endloop
  endfacet
  facet normal -0.59999999999994014 0 0.80000000000004479
    outer loop
      vertex 216.09333333333333 20.093333333333334 -0.079999999999999988
      vertex 216.03999999999999 20 -0.12000000000000001
      vertex 216.09333333333333 20 -0.079999999999999988
    endloop
  endfacet
  facet normal -0.4364357804719769 -0.21821789023594002 0.87287156094398644
    outer loop
      vertex 216 20.120000000000001 -0.12000000000000001
      vertex 216.03999999999999 20.039999999999999 -0.12000000000000001
      vertex 216.09333333333333 20.093333333333334 -0.079999999999999988
    endloop
  endfacet
  facet normal -0.43643578047199039 -0.21821789023603158 0.87287156094395701
    outer loop
      vertex 216 20.120000000000001 -0.12000000000000001
      vertex 216.09333333333333 20.093333333333334 -0.079999999999999988
      vertex 216.03999999999999 20.199999999999999 -0.079999999999999988
    endloop
  endfacet
  facet normal -0.43643578047205489 -0.21821789023598856 0.87287156094393548
    outer loop
      vertex 216 20.120000000000001 -0.12000000000000001
      vertex 216.03999999999999 20.199999999999999 -0.079999999999999988
      vertex 216 20.199999999999999 -0.10000000000000001
    endloop
  endfacet
  facet normal -0.44721359550002948 0 0.89442719099988011
    outer loop
      vertex 216.03999999999999 24.160000000000004 -0.079999999999999988
      vertex 216 20.199999999999999 -0.10000000000000001
      vertex 216.03999999999999 20.199999999999999 -0.079999999999999988
    endloop
  endfacet
  facet normal -0.44721359550002943 0 0.89442719099988011
    outer loop
      vertex 216 20.199999999999999 -0.10000000000000001
      vertex 216.03999999999999 24.160000000000004 -0.079999999999999988
      vertex 216.03999999999999 40 -0.079999999999999988
    endloop
  endfacet
  facet normal -0.44721359550002943 0 0.89442719099988022
    outer loop
      vertex 216 20.199999999999999 -0.10000000000000001
      vertex 216.03999999999999 40 -0.079999999999999988
      vertex 216 40 -0.10000000000000001
    endloop
  endfacet
  facet normal -0.44721359550002948 0 0.89442719099988011
    outer loop
      vertex 216.03999999999999 40.039999999999999 -0.079999999999999988
      vertex 216 40 -0.10000000000000001
      vertex 216.03999999999999 40 -0.079999999999999988
    endloop
  endfacet
  facet normal -0.23570226039556008 -0.2357022603955182 0.94280904158205181
    outer loop
      vertex 216 40.079999999999998 -0.079999999999999988
      vertex 216 40 -0.10000000000000001
      vertex 216.03999999999999 40.039999999999999 -0.079999999999999988
    endloop
  endfacet
  facet normal 0.44721359550002948 0 0.89442719099988011
    outer loop
      vertex 217.36000000000001 -84.160000000000011 -0.079999999999999988
      vertex 217.36000000000001 -100 -0.079999999999999988
      vertex 217.40000000000001 -100 -0.10000000000000001
    endloop
  endfacet
  facet normal 0.44721359550002948 0 0.89442719099988022
    outer loop
      vertex 217.36000000000001 -84.160000000000011 -0.079999999999999988
      vertex 217.40000000000001 -100 -0.10000000000000001
      vertex 217.40000000000001 -80.200000000000003 -0.10000000000000001
    endloop
  endfacet
  facet normal 0.44721359550002943 -0 0.89442719099988022
    outer loop
      vertex 217.36000000000001 -84.160000000000011 -0.079999999999999988
      vertex 217.40000000000001 -80.200000000000003 -0.10000000000000001
      vertex 217.36000000000001 -80.200000000000003 -0.079999999999999988
    endloop
  endfacet
  facet normal 0.40824829046394162 -0.40824829046379657 0.81649658092772004
    outer loop
      vertex 217.36000000000001 -80.200000000000003 -0.079999999999999988
      vertex 217.40000000000001 -80.200000000000003 -0.10000000000000001
      vertex 217.40000000000001 -80.159999999999997 -0.079999999999999988
    endloop
  endfacet
  facet normal 0 0 1
    outer loop
      vertex 217.40000000000001 -100 -0.10000000000000001
      vertex 217.59999999999999 -100 -0.10000000000000001
      vertex 217.59999999999999 -80.200000000000003 -0.10000000000000001
    endloop
  endfacet
  facet normal 0 0 1
    outer loop
      vertex 217.40000000000001 -100 -0.10000000000000001
      vertex 217.59999999999999 -80.200000000000003 -0.10000000000000001
      vertex 217.40000000000001 -80.200000000000003 -0.10000000000000001
    endloop
  endfacet
  facet normal 0 -0.44721359549990236 0.89442719099994383
    outer loop
      vertex 217.44 -80.159999999999997 -0.079999999999999988
      vertex 217.40000000000001 -80.200000000000003 -0.10000000000000001
      vertex 217.59999999999999 -80.200000000000003 -0.10000000000000001
    endloop
  endfacet
  facet normal 0 -0.44721359549990236 0.89442719099994372
    outer loop
      vertex 217.44 -80.159999999999997 -0.079999999999999988
      vertex 217.59999999999999 -80.200000000000003 -0.10000000000000001
      vertex 217.59999999999999 -80.159999999999997 -0.079999999999999988
    endloop
  endfacet
  facet normal 0 -0.44721359549990236 0.89442719099994372
    outer loop
      vertex 217.40000000000001 -80.159999999999997 -0.079999999999999988
      vertex 217.40000000000001 -80.200000000000003 -0.10000000000000001
      vertex 217.44 -80.159999999999997 -0.079999999999999988
    endloop
  endfacet
  facet normal 0 0 1
    outer loop
      vertex 217.59999999999999 -100 -0.10000000000000001
      vertex 217.80000000000001 -100 -0.10000000000000001
      vertex 217.80000000000001 -80.200000000000003 -0.10000000000000001
    endloop
  endfacet
  facet normal 0 0 1
    outer loop
      vertex 217.59999999999999 -100 -0.10000000000000001
      vertex 217.80000000000001 -80.200000000000003 -0.10000000000000001
      vertex 217.59999999999999 -80.200000000000003 -0.10000000000000001
    endloop
  endfacet
  facet normal 0 -0.44721359549990231 0.89442719099994361
    outer loop
      vertex 217.63999999999999 -80.159999999999997 -0.079999999999999988
      vertex 217.59999999999999 -80.200000000000003 -0.10000000000000001
      vertex 217.80000000000001 -80.200000000000003 -0.10000000000000001
    endloop
  endfacet
  facet normal 0 -0.44721359549990231 0.89442719099994372
    outer loop
      vertex 217.63999999999999 -80.159999999999997 -0.079999999999999988
      vertex 217.80000000000001 -80.200000000000003 -0.10000000000000001
      vertex 217.80000000000001 -80.159999999999997 -0.079999999999999988
    endloop
  endfacet
  facet normal 0 -0.44721359549990236 0.89442719099994372
    outer loop
      vertex 217.59999999999999 -80.159999999999997 -0.079999999999999988
      vertex 217.59999999999999 -80.200000000000003 -0.10000000000000001
      vertex 217.63999999999999 -80.159999999999997 -0.079999999999999988
    endloop
  endfacet
  facet normal 0 0 1
    outer loop
      vertex 217.80000000000001 -100 -0.10000000000000001
      vertex 218 -100 -0.10000000000000001
      vertex 218 -80.200000000000003 -0.10000000000000001
    endloop
  endfacet
  facet normal 0 0 1
    outer loop
      vertex 217.80000000000001 -100 -0.10000000000000001
      vertex 218 -80.200000000000003 -0.10000000000000001
      vertex 217.80000000000001 -80.200000000000003 -0.10000000000000001
    endloop
  endfacet
  facet normal 0 -0.44721359549990236 0.89442719099994383
    outer loop
      vertex 217.84 -80.159999999999997 -0.079999999999999988
      vertex 217.80000000000001 -80.200000000000003 -0.10000000000000001
      vertex 218 -80.200000000000003 -0.10000000000000001
    endloop
  endfacet
  facet normal 0 -0.44721359549990236 0.89442719099994372
    outer loop
      vertex 217.84 -80.159999999999997 -0.079999999999999988
      vertex 218 -80.200000000000003 -0.10000000000000001
      vertex 218 -80.159999999999997 -0.079999999999999988
    endloop
  endfacet
  facet normal 0 -0.44721359549990236 0.89442719099994372
    outer loop
      vertex 217.80000000000001 -80.159999999999997 -0.079999999999999988
      vertex 217.80000000000001 -80.200000000000003 -0.10000000000000001
      vertex 217.84 -80.159999999999997 -0.079999999999999988
    endloop
  endfacet
  facet normal -0.44721359550002943 0 0.89442719099988022
    outer loop
      vertex 218.03999999999999 -96.039999999999992 -0.079999999999999988
      vertex 218 -100 -0.10000000000000001
      vertex 218.03999999999999 -100 -0.079999999999999988
    endloop
  endfacet
  facet normal -0.44721359550002948 0 0.89442719099988011
    outer loop
      vertex 218 -100 -0.10000000000000001
      vertex 218.03999999999999 -96.039999999999992 -0.079999999999999988
      vertex 218.03999999999999 -80.200000000000003 -0.079999999999999988
    endloop
  endfacet
  facet normal -0.44721359550002948 0 0.89442719099988022
    outer loop
      vertex 218 -100 -0.10000000000000001
      vertex 218.03999999999999 -80.200000000000003 -0.079999999999999988
      vertex 218 -80.200000000000003 -0.10000000000000001
    endloop
  endfacet
  facet normal -0.44721359550002943 0 0.89442719099988011
    outer loop
      vertex 218.03999999999999 -80.159999999999997 -0.079999999999999988
      vertex 218 -80.200000000000003 -0.10000000000000001
      vertex 218.03999999999999 -80.200000000000003 -0.079999999999999988
    endloop
  endfacet
  facet normal 0 -0.44721359549990236 0.89442719099994372
    outer loop
      vertex 218 -80.159999999999997 -0.079999999999999988
      vertex 218 -80.200000000000003 -0.10000000000000001
      vertex 218.03999999999999 -80.159999999999997 -0.079999999999999988
    endloop
  endfacet
endsolid terrain_band_3
