solid terrain_band_9
  facet normal -0.24253562503633772 0 0.97014250014533066
    outer loop
      vertex 76.719999999999999 -48.000000000000007 0.17999999999999999
      vertex 76.640000000000001 -56 0.16
      vertex 76.640000000000001 -60 0.16
    endloop
  endfacet
  facet normal -0.24253562503633772 0 0.97014250014533066
    outer loop
      vertex 76.719999999999999 -48.000000000000007 0.17999999999999999
      vertex 76.640000000000001 -60 0.16
      vertex 76.719999999999999 -60 0.17999999999999999
    endloop
  endfacet
  facet normal -0.24253562503633774 0 0.97014250014533077
    outer loop
      vertex 76.640000000000001 -56 0.16
      vertex 76.719999999999999 -48.000000000000007 0.17999999999999999
      vertex 76.719999999999999 -40 0.17999999999999999
    endloop
  endfacet
  facet normal -0.24253562503633772 0 0.97014250014533066
    outer loop
      vertex 76.640000000000001 -56 0.16
      vertex 76.719999999999999 -40 0.17999999999999999
      vertex 76.640000000000001 -40 0.16
    endloop
  endfacet
  facet normal -0.24253562503633772 0 0.97014250014533066
    outer loop
      vertex 76.719999999999999 -28.000000000000007 0.17999999999999999
      vertex 76.640000000000001 -36 0.16
      vertex 76.640000000000001 -40 0.16
    endloop
  endfacet
  facet normal -0.24253562503633772 0 0.97014250014533066
    outer loop
      vertex 76.719999999999999 -28.000000000000007 0.17999999999999999
      vertex 76.640000000000001 -40 0.16
      vertex 76.719999999999999 -40 0.17999999999999999
    endloop
  endfacet
  facet normal -0.24253562503633774 0 0.97014250014533077
    outer loop
      vertex 76.640000000000001 -36 0.16
      vertex 76.719999999999999 -28.000000000000007 0.17999999999999999
      vertex 76.719999999999999 -20 0.17999999999999999
    endloop
  endfacet
  facet normal -0.24253562503633772 0 0.97014250014533066
    outer loop
      vertex 76.640000000000001 -36 0.16
      vertex 76.719999999999999 -20 0.17999999999999999
      vertex 76.640000000000001 -20 0.16
    endloop
  endfacet
  facet normal -0.24253562503633772 0 0.97014250014533066
    outer loop
      vertex 76.719999999999999 -14.000000000000004 0.17999999999999999
      vertex 76.640000000000001 -18 0.16
      vertex 76.640000000000001 -20 0.16
    endloop
  endfacet
  facet normal -0.24253562503633772 0 0.97014250014533066
    outer loop
      vertex 76.719999999999999 -14.000000000000004 0.17999999999999999
      vertex 76.640000000000001 -20 0.16
      vertex 76.719999999999999 -20 0.17999999999999999
    endloop
  endfacet
  facet normal -0.24253562503633774 0 0.97014250014533077
    outer loop
      vertex 76.640000000000001 -18 0.16
      vertex 76.719999999999999 -14.000000000000004 0.17999999999999999
      vertex 76.719999999999999 -10 0.17999999999999999
    endloop
  endfacet
  facet normal -0.24253562503633772 0 0.97014250014533066
    outer loop
      vertex 76.640000000000001 -18 0.16
      vertex 76.719999999999999 -10 0.17999999999999999
      vertex 76.640000000000001 -10 0.16
    endloop
  endfacet
  facet normal -0.24253562503633772 0 0.97014250014533077
    outer loop
      vertex 76.719999999999999 -4.0000000000000018 0.17999999999999999
      vertex 76.640000000000001 -7.9999999999999991 0.16
      vertex 76.640000000000001 -10 0.16
    endloop
  endfacet
  facet normal -0.24253562503633772 0 0.97014250014533066
    outer loop
      vertex 76.719999999999999 -4.0000000000000018 0.17999999999999999
      vertex 76.640000000000001 -10 0.16
      vertex 76.719999999999999 -10 0.17999999999999999
    endloop
  endfacet
  facet normal -0.24253562503633774 0 0.97014250014533077
    outer loop
      vertex 76.640000000000001 -7.9999999999999982 0.16
      vertex 76.719999999999999 -4.0000000000000018 0.17999999999999999
      vertex 76.719999999999999 0 0.17999999999999999
    endloop
  endfacet
  facet normal -0.24253562503633772 0 0.97014250014533066
    outer loop
      vertex 76.640000000000001 -7.9999999999999982 0.16
      vertex 76.719999999999999 0 0.17999999999999999
      vertex 76.640000000000001 0 0.16
    endloop
  endfacet
  facet normal -0.24253562503633769 0 0.97014250014533066
    outer loop
      vertex 76.719999999999999 0.00059999999999999984 0.17999999999999999
      vertex 76.640000000000001 0.00020000000000000009 0.16
      vertex 76.640000000000001 0 0.16
    endloop
  endfacet
  facet normal -0.24253562503633769 0 0.97014250014533066
    outer loop
      vertex 76.719999999999999 0.00059999999999999984 0.17999999999999999
      vertex 76.640000000000001 0 0.16
      vertex 76.719999999999999 0 0.17999999999999999
    endloop
  endfacet
  facet normal -0.24253562503633769 0 0.97014250014533066
    outer loop
      vertex 76.640000000000001 0.00020000000000000012 0.16
      vertex 76.719999999999999 0.00059999999999999984 0.17999999999999999
      vertex 76.719999999999999 0.001 0.17999999999999999
    endloop
  endfacet
  facet normal -0.24253562503633769 0 0.97014250014533066
    outer loop
      vertex 76.640000000000001 0.00020000000000000012 0.16
      vertex 76.719999999999999 0.001 0.17999999999999999
      vertex 76.640000000000001 0.001 0.16
    endloop
  endfacet
  facet normal -0.24253562503633772 0 0.97014250014533066
    outer loop
      vertex 76.719999999999999 6.0003999999999973 0.17999999999999999
      vertex 76.640000000000001 2.0007999999999999 0.16
      vertex 76.640000000000001 0.001 0.16
    endloop
  endfacet
  facet normal -0.24253562503633774 0 0.97014250014533077
    outer loop
      vertex 76.719999999999999 6.0003999999999973 0.17999999999999999
      vertex 76.640000000000001 0.001 0.16
      vertex 76.719999999999999 0.001 0.17999999999999999
    endloop
  endfacet
  facet normal -0.24253562503633772 0 0.97014250014533066
    outer loop
      vertex 76.640000000000001 2.0008000000000012 0.16
      vertex 76.719999999999999 6.0003999999999973 0.17999999999999999
      vertex 76.719999999999999 10 0.17999999999999999
    endloop
  endfacet
  facet normal -0.24253562503633772 0 0.97014250014533066
    outer loop
      vertex 76.640000000000001 2.0008000000000012 0.16
      vertex 76.719999999999999 10 0.17999999999999999
      vertex 76.640000000000001 10 0.16
    endloop
  endfacet
  facet normal -0.24253562503633772 0 0.97014250014533066
    outer loop
      vertex 76.719999999999999 15.999999999999996 0.17999999999999999
      vertex 76.640000000000001 12 0.16
      vertex 76.640000000000001 10 0.16
    endloop
  endfacet
  facet normal -0.24253562503633772 0 0.97014250014533066
    outer loop
      vertex 76.719999999999999 15.999999999999996 0.17999999999999999
      vertex 76.640000000000001 10 0.16
      vertex 76.719999999999999 10 0.17999999999999999
    endloop
  endfacet
  facet normal -0.24253562503633774 0 0.97014250014533077
    outer loop
      vertex 76.640000000000001 12.000000000000002 0.16
      vertex 76.719999999999999 15.999999999999998 0.17999999999999999
      vertex 76.719999999999999 20 0.17999999999999999
    endloop
  endfacet
  facet normal -0.24253562503633772 0 0.97014250014533066
    outer loop
      vertex 76.640000000000001 12.000000000000002 0.16
      vertex 76.719999999999999 20 0.17999999999999999
      vertex 76.640000000000001 20 0.16
    endloop
  endfacet
  facet normal -0.24253562503633772 0 0.97014250014533066
    outer loop
      vertex 76.719999999999999 31.999999999999993 0.17999999999999999
      vertex 76.640000000000001 24 0.16
      vertex 76.640000000000001 20 0.16
    endloop
  endfacet
  facet normal -0.24253562503633772 0 0.97014250014533066
    outer loop
      vertex 76.719999999999999 31.999999999999993 0.17999999999999999
      vertex 76.640000000000001 20 0.16
      vertex 76.719999999999999 20 0.17999999999999999
    endloop
  endfacet
  facet normal -0.24253562503633774 0 0.97014250014533077
    outer loop
      vertex 76.640000000000001 24.000000000000004 0.16
      vertex 76.719999999999999 31.999999999999996 0.17999999999999999
      vertex 76.719999999999999 40 0.17999999999999999
    endloop
  endfacet
  facet normal -0.24253562503633772 0 0.97014250014533066
    outer loop
      vertex 76.640000000000001 24.000000000000004 0.16
      vertex 76.719999999999999 40 0.17999999999999999
      vertex 76.640000000000001 40 0.16
    endloop
  endfacet
  facet normal -0.24253562503633772 0 0.97014250014533066
    outer loop
      vertex 76.719999999999999 51.999999999999993 0.17999999999999999
      vertex 76.640000000000001 44 0.16
      vertex 76.640000000000001 40 0.16
    endloop
  endfacet
  facet normal -0.24253562503633772 0 0.97014250014533066
    outer loop
      vertex 76.719999999999999 51.999999999999993 0.17999999999999999
      vertex 76.640000000000001 40 0.16
      vertex 76.719999999999999 40 0.17999999999999999
    endloop
  endfacet
  facet normal -0.24253562503633774 0 0.97014250014533077
    outer loop
      vertex 76.640000000000001 44 0.16
      vertex 76.719999999999999 51.999999999999993 0.17999999999999999
      vertex 76.719999999999999 60 0.17999999999999999
    endloop
  endfacet
  facet normal -0.24253562503633772 0 0.97014250014533066
    outer loop
      vertex 76.640000000000001 44 0.16
      vertex 76.719999999999999 60 0.17999999999999999
      vertex 76.640000000000001 60 0.16
    endloop
  endfacet
  facet normal 0.44721359550002893 0 0.89442719099988033
    outer loop
      vertex 77.480000000000004 -52 0.16
      vertex 77.440000000000012 -56 0.17999999999999999
      vertex 77.440000000000012 -60 0.17999999999999999
    endloop
  endfacet
  facet normal 0.44721359550002893 0 0.89442719099988033
    outer loop
      vertex 77.480000000000004 -52 0.16
      vertex 77.440000000000012 -60 0.17999999999999999
      vertex 77.480000000000004 -60 0.16
    endloop
  endfacet
  facet normal 0.44721359550002893 0 0.89442719099988033
    outer loop
      vertex 77.440000000000012 -56 0.17999999999999999
      vertex 77.480000000000004 -52 0.16
      vertex 77.480000000000004 -40 0.16
    endloop
  endfacet
  facet normal 0.44721359550002893 -0 0.89442719099988033
    outer loop
      vertex 77.440000000000012 -56 0.17999999999999999
      vertex 77.480000000000004 -40 0.16
      vertex 77.440000000000012 -40 0.17999999999999999
    endloop
  endfacet
  facet normal 0.44721359550002893 0 0.89442719099988033
    outer loop
      vertex 77.480000000000004 -32 0.16
      vertex 77.440000000000012 -36 0.17999999999999999
      vertex 77.440000000000012 -40 0.17999999999999999
    endloop
  endfacet
  facet normal 0.44721359550002893 0 0.89442719099988033
    outer loop
      vertex 77.480000000000004 -32 0.16
      vertex 77.440000000000012 -40 0.17999999999999999
      vertex 77.480000000000004 -40 0.16
    endloop
  endfacet
  facet normal 0.44721359550002893 0 0.89442719099988033
    outer loop
      vertex 77.440000000000012 -36 0.17999999999999999
      vertex 77.480000000000004 -32 0.16
      vertex 77.480000000000004 -20 0.16
    endloop
  endfacet
  facet normal 0.44721359550002893 -0 0.89442719099988033
    outer loop
      vertex 77.440000000000012 -36 0.17999999999999999
      vertex 77.480000000000004 -20 0.16
      vertex 77.440000000000012 -20 0.17999999999999999
    endloop
  endfacet
  facet normal 0.44721359550002893 0 0.89442719099988033
    outer loop
      vertex 77.480000000000004 -16 0.16
      vertex 77.440000000000012 -18 0.17999999999999999
      vertex 77.440000000000012 -20 0.17999999999999999
    endloop
  endfacet
  facet normal 0.44721359550002893 0 0.89442719099988033
    outer loop
      vertex 77.480000000000004 -16 0.16
      vertex 77.440000000000012 -20 0.17999999999999999
      vertex 77.480000000000004 -20 0.16
    endloop
  endfacet
  facet normal 0.44721359550002893 0 0.89442719099988033
    outer loop
      vertex 77.440000000000012 -18 0.17999999999999999
      vertex 77.480000000000004 -16 0.16
      vertex 77.480000000000004 -10 0.16
    endloop
  endfacet
  facet normal 0.44721359550002893 -0 0.89442719099988033
    outer loop
      vertex 77.440000000000012 -18 0.17999999999999999
      vertex 77.480000000000004 -10 0.16
      vertex 77.440000000000012 -10 0.17999999999999999
    endloop
  endfacet
  facet normal 0.44721359550002893 0 0.89442719099988044
    outer loop
      vertex 77.480000000000004 -6 0.16
      vertex 77.440000000000012 -7.9999999999999982 0.17999999999999999
      vertex 77.440000000000012 -10 0.17999999999999999
    endloop
  endfacet
  facet normal 0.44721359550002893 0 0.89442719099988033
    outer loop
      vertex 77.480000000000004 -6 0.16
      vertex 77.440000000000012 -10 0.17999999999999999
      vertex 77.480000000000004 -10 0.16
    endloop
  endfacet
  facet normal 0.44721359550002893 0 0.89442719099988033
    outer loop
      vertex 77.440000000000012 -7.9999999999999982 0.17999999999999999
      vertex 77.480000000000004 -5.9999999999999991 0.16
      vertex 77.480000000000004 0 0.16
    endloop
  endfacet
  facet normal 0.44721359550002898 -0 0.89442719099988044
    outer loop
      vertex 77.440000000000012 -7.9999999999999982 0.17999999999999999
      vertex 77.480000000000004 0 0.16
      vertex 77.440000000000012 0 0.17999999999999999
    endloop
  endfacet
  facet normal 0.44721359550002887 0 0.89442719099988044
    outer loop
      vertex 77.480000000000004 0.00040000000000000007 0.16
      vertex 77.440000000000012 0.00020000000000000017 0.17999999999999999
      vertex 77.440000000000012 0 0.17999999999999999
    endloop
  endfacet
  facet normal 0.44721359550002893 0 0.89442719099988033
    outer loop
      vertex 77.480000000000004 0.00040000000000000007 0.16
      vertex 77.440000000000012 0 0.17999999999999999
      vertex 77.480000000000004 0 0.16
    endloop
  endfacet
  facet normal 0.44721359550002898 0 0.89442719099988044
    outer loop
      vertex 77.440000000000012 0.00020000000000000017 0.17999999999999999
      vertex 77.480000000000004 0.00040000000000000007 0.16
      vertex 77.480000000000004 0.001 0.16
    endloop
  endfacet
  facet normal 0.44721359550002893 -0 0.89442719099988033
    outer loop
      vertex 77.440000000000012 0.00020000000000000017 0.17999999999999999
      vertex 77.480000000000004 0.001 0.16
      vertex 77.440000000000012 0.001 0.17999999999999999
    endloop
  endfacet
  facet normal 0.44721359550002893 0 0.89442719099988033
    outer loop
      vertex 77.480000000000004 4.0005999999999995 0.16
      vertex 77.440000000000012 2.0008000000000008 0.17999999999999999
      vertex 77.440000000000012 0.001 0.17999999999999999
    endloop
  endfacet
  facet normal 0.44721359550002898 0 0.89442719099988044
    outer loop
      vertex 77.480000000000004 4.0005999999999995 0.16
      vertex 77.440000000000012 0.001 0.17999999999999999
      vertex 77.480000000000004 0.001 0.16
    endloop
  endfacet
  facet normal 0.44721359550002898 0 0.89442719099988044
    outer loop
      vertex 77.440000000000012 2.0008000000000021 0.17999999999999999
      vertex 77.480000000000004 4.0006000000000013 0.16
      vertex 77.480000000000004 10 0.16
    endloop
  endfacet
  facet normal 0.44721359550002898 -0 0.89442719099988044
    outer loop
      vertex 77.440000000000012 2.0008000000000021 0.17999999999999999
      vertex 77.480000000000004 10 0.16
      vertex 77.440000000000012 10 0.17999999999999999
    endloop
  endfacet
  facet normal 0.44721359550002893 0 0.89442719099988044
    outer loop
      vertex 77.480000000000004 14 0.16
      vertex 77.440000000000012 12.000000000000002 0.17999999999999999
      vertex 77.440000000000012 10 0.17999999999999999
    endloop
  endfacet
  facet normal 0.44721359550002893 0 0.89442719099988033
    outer loop
      vertex 77.480000000000004 14 0.16
      vertex 77.440000000000012 10 0.17999999999999999
      vertex 77.480000000000004 10 0.16
    endloop
  endfacet
  facet normal 0.44721359550002893 0 0.89442719099988033
    outer loop
      vertex 77.440000000000012 12.000000000000002 0.17999999999999999
      vertex 77.480000000000004 14 0.16
      vertex 77.480000000000004 20 0.16
    endloop
  endfacet
  facet normal 0.44721359550002898 -0 0.89442719099988044
    outer loop
      vertex 77.440000000000012 12.000000000000002 0.17999999999999999
      vertex 77.480000000000004 20 0.16
      vertex 77.440000000000012 20 0.17999999999999999
    endloop
  endfacet
  facet normal 0.44721359550002893 0 0.89442719099988044
    outer loop
      vertex 77.480000000000004 28 0.16
      vertex 77.440000000000012 24.000000000000004 0.17999999999999999
      vertex 77.440000000000012 20 0.17999999999999999
    endloop
  endfacet
  facet normal 0.44721359550002893 0 0.89442719099988033
    outer loop
      vertex 77.480000000000004 28 0.16
      vertex 77.440000000000012 20 0.17999999999999999
      vertex 77.480000000000004 20 0.16
    endloop
  endfacet
  facet normal 0.44721359550002893 0 0.89442719099988033
    outer loop
      vertex 77.440000000000012 24.000000000000004 0.17999999999999999
      vertex 77.480000000000004 28 0.16
      vertex 77.480000000000004 40 0.16
    endloop
  endfacet
  facet normal 0.44721359550002898 -0 0.89442719099988044
    outer loop
      vertex 77.440000000000012 24.000000000000004 0.17999999999999999
      vertex 77.480000000000004 40 0.16
      vertex 77.440000000000012 40 0.17999999999999999
    endloop
  endfacet
  facet normal 0.44721359550002893 0 0.89442719099988033
    outer loop
      vertex 77.480000000000004 48 0.16
      vertex 77.440000000000012 44 0.17999999999999999
      vertex 77.440000000000012 40 0.17999999999999999
    endloop
  endfacet
  facet normal 0.44721359550002893 0 0.89442719099988033
    outer loop
      vertex 77.480000000000004 48 0.16
      vertex 77.440000000000012 40 0.17999999999999999
      vertex 77.480000000000004 40 0.16
    endloop
  endfacet
  facet normal 0.44721359550002893 0 0.89442719099988033
    outer loop
      vertex 77.440000000000012 44 0.17999999999999999
      vertex 77.480000000000004 48 0.16
      vertex 77.480000000000004 60 0.16
    endloop
  endfacet
  facet normal 0.44721359550002893 -0 0.89442719099988033
    outer loop
      vertex 77.440000000000012 44 0.17999999999999999
      vertex 77.480000000000004 60 0.16
      vertex 77.440000000000012 60 0.17999999999999999
    endloop
  endfacet
endsolid terrain_band_9
