solid terrain_band_4
  facet normal -0.44721359550002893 0 0.89442719099988033
    outer loop
      vertex 150.16 -44 0.080000000000000002
      vertex 150.12 -48 0.060000000000000012
      vertex 150.12 -60 0.060000000000000012
    endloop
  endfacet
  facet normal -0.44721359550002893 0 0.89442719099988033
    outer loop
      vertex 150.16 -44 0.080000000000000002
      vertex 150.12 -60 0.060000000000000012
      vertex 150.16 -60 0.080000000000000002
    endloop
  endfacet
  facet normal -0.44721359550002893 0 0.89442719099988033
    outer loop
      vertex 150.12 -48 0.060000000000000012
      vertex 150.16 -44 0.080000000000000002
      vertex 150.16 -40 0.080000000000000002
    endloop
  endfacet
  facet normal -0.44721359550002893 0 0.89442719099988033
    outer loop
      vertex 150.12 -48 0.060000000000000012
      vertex 150.16 -40 0.080000000000000002
      vertex 150.12 -40 0.060000000000000012
    endloop
  endfacet
  facet normal -0.44721359550002893 0 0.89442719099988033
    outer loop
      vertex 150.16 -24 0.080000000000000002
      vertex 150.12 -28 0.060000000000000012
      vertex 150.12 -40 0.060000000000000012
    endloop
  endfacet
  facet normal -0.44721359550002893 0 0.89442719099988033
    outer loop
      vertex 150.16 -24 0.080000000000000002
      vertex 150.12 -40 0.060000000000000012
      vertex 150.16 -40 0.080000000000000002
    endloop
  endfacet
  facet normal -0.44721359550002893 0 0.89442719099988033
    outer loop
      vertex 150.12 -28 0.060000000000000012
      vertex 150.16 -24 0.080000000000000002
      vertex 150.16 -20 0.080000000000000002
    endloop
  endfacet
  facet normal -0.44721359550002893 0 0.89442719099988033
    outer loop
      vertex 150.12 -28 0.060000000000000012
      vertex 150.16 -20 0.080000000000000002
      vertex 150.12 -20 0.060000000000000012
    endloop
  endfacet
  facet normal -0.44721359550002893 0 0.89442719099988033
    outer loop
      vertex 150.16 -12 0.080000000000000002
      vertex 150.12 -14 0.060000000000000012
      vertex 150.12 -20 0.060000000000000012
    endloop
  endfacet
  facet normal -0.44721359550002893 0 0.89442719099988033
    outer loop
      vertex 150.16 -12 0.080000000000000002
      vertex 150.12 -20 0.060000000000000012
      vertex 150.16 -20 0.080000000000000002
    endloop
  endfacet
  facet normal -0.44721359550002893 0 0.89442719099988033
    outer loop
      vertex 150.12 -14 0.060000000000000012
      vertex 150.16 -12 0.080000000000000002
      vertex 150.16 -10 0.080000000000000002
    endloop
  endfacet
  facet normal -0.44721359550002893 0 0.89442719099988033
    outer loop
      vertex 150.12 -14 0.060000000000000012
      vertex 150.16 -10 0.080000000000000002
      vertex 150.12 -10 0.060000000000000012
    endloop
  endfacet
  facet normal -0.44721359550002893 0 0.89442719099988033
    outer loop
      vertex 150.16 -2.0000000000000004 0.080000000000000002
      vertex 150.12 -3.9999999999999991 0.060000000000000012
      vertex 150.12 -10 0.060000000000000012
    endloop
  endfacet
  facet normal -0.44721359550002893 0 0.89442719099988033
    outer loop
      vertex 150.16 -2.0000000000000004 0.080000000000000002
      vertex 150.12 -10 0.060000000000000012
      vertex 150.16 -10 0.080000000000000002
    endloop
  endfacet
  facet normal -0.44721359550002898 0 0.89442719099988044
    outer loop
      vertex 150.12 -3.9999999999999991 0.060000000000000012
      vertex 150.16 -2 0.080000000000000002
      vertex 150.16 0 0.080000000000000002
    endloop
  endfacet
  facet normal -0.44721359550002898 0 0.89442719099988044
    outer loop
      vertex 150.12 -3.9999999999999991 0.060000000000000012
      vertex 150.16 0 0.080000000000000002
      vertex 150.12 0 0.060000000000000012
    endloop
  endfacet
  facet normal -0.44721359550002898 0 0.89442719099988044
    outer loop
      vertex 150.16 0.00079999999999999993 0.080000000000000002
      vertex 150.12 0.00060000000000000006 0.060000000000000012
      vertex 150.12 0 0.060000000000000012
    endloop
  endfacet
  facet normal -0.44721359550002893 0 0.89442719099988033
    outer loop
      vertex 150.16 0.00079999999999999993 0.080000000000000002
      vertex 150.12 0 0.060000000000000012
      vertex 150.16 0 0.080000000000000002
    endloop
  endfacet
  facet normal -0.44721359550002893 0 0.89442719099988033
    outer loop
      vertex 150.12 0.00060000000000000006 0.060000000000000012
      vertex 150.16 0.00079999999999999993 0.080000000000000002
      vertex 150.16 0.001 0.080000000000000002
    endloop
  endfacet
  facet normal -0.44721359550002893 0 0.89442719099988033
    outer loop
      vertex 150.12 0.00060000000000000006 0.060000000000000012
      vertex 150.16 0.001 0.080000000000000002
      vertex 150.12 0.001 0.060000000000000012
    endloop
  endfacet
  facet normal -0.44721359550002893 0 0.89442719099988033
    outer loop
      vertex 150.16 8.0001999999999995 0.080000000000000002
      vertex 150.12 6.0004000000000008 0.060000000000000012
      vertex 150.12 0.001 0.060000000000000012
    endloop
  endfacet
  facet normal -0.44721359550002898 0 0.89442719099988044
    outer loop
      vertex 150.16 8.0001999999999995 0.080000000000000002
      vertex 150.12 0.001 0.060000000000000012
      vertex 150.16 0.001 0.080000000000000002
    endloop
  endfacet
  facet normal -0.44721359550002898 0 0.89442719099988044
    outer loop
      vertex 150.12 6.0004000000000017 0.060000000000000012
      vertex 150.16 8.0001999999999995 0.080000000000000002
      vertex 150.16 10 0.080000000000000002
    endloop
  endfacet
  facet normal -0.44721359550002893 0 0.89442719099988044
    outer loop
      vertex 150.12 6.0004000000000017 0.060000000000000012
      vertex 150.16 10 0.080000000000000002
      vertex 150.12 10 0.060000000000000012
    endloop
  endfacet
  facet normal -0.44721359550002893 0 0.89442719099988033
    outer loop
      vertex 150.16 18 0.080000000000000002
      vertex 150.12 16 0.060000000000000012
      vertex 150.12 10 0.060000000000000012
    endloop
  endfacet
  facet normal -0.44721359550002893 0 0.89442719099988033
    outer loop
      vertex 150.16 18 0.080000000000000002
      vertex 150.12 10 0.060000000000000012
      vertex 150.16 10 0.080000000000000002
    endloop
  endfacet
  facet normal -0.44721359550002893 0 0.89442719099988033
    outer loop
      vertex 150.12 16 0.060000000000000012
      vertex 150.16 18 0.080000000000000002
      vertex 150.16 20 0.080000000000000002
    endloop
  endfacet
  facet normal -0.44721359550002893 0 0.89442719099988033
    outer loop
      vertex 150.12 16 0.060000000000000012
      vertex 150.16 20 0.080000000000000002
      vertex 150.12 20 0.060000000000000012
    endloop
  endfacet
  facet normal -0.44721359550002893 0 0.89442719099988033
    outer loop
      vertex 150.16 36 0.080000000000000002
      vertex 150.12 32 0.060000000000000012
      vertex 150.12 20 0.060000000000000012
    endloop
  endfacet
  facet normal -0.44721359550002893 0 0.89442719099988033
    outer loop
      vertex 150.16 36 0.080000000000000002
      vertex 150.12 20 0.060000000000000012
      vertex 150.16 20 0.080000000000000002
    endloop
  endfacet
  facet normal -0.44721359550002893 0 0.89442719099988033
    outer loop
      vertex 150.12 32 0.060000000000000012
      vertex 150.16 36 0.080000000000000002
      vertex 150.16 40 0.080000000000000002
    endloop
  endfacet
  facet normal -0.44721359550002893 0 0.89442719099988033
    outer loop
      vertex 150.12 32 0.060000000000000012
      vertex 150.16 40 0.080000000000000002
      vertex 150.12 40 0.060000000000000012
    endloop
  endfacet
  facet normal -0.44721359550002893 0 0.89442719099988033
    outer loop
      vertex 150.16 56 0.080000000000000002
      vertex 150.12 52 0.060000000000000012
      vertex 150.12 40 0.060000000000000012
    endloop
  endfacet
  facet normal -0.44721359550002893 0 0.89442719099988033
    outer loop
      vertex 150.16 56 0.080000000000000002
      vertex 150.12 40 0.060000000000000012
      vertex 150.16 40 0.080000000000000002
    endloop
  endfacet
  facet normal -0.44721359550002893 0 0.89442719099988033
    outer loop
      vertex 150.12 52 0.060000000000000012
      vertex 150.16 56 0.080000000000000002
      vertex 150.16 60 0.080000000000000002
    endloop
  endfacet
  facet normal -0.44721359550002893 0 0.89442719099988033
    outer loop
      vertex 150.12 52 0.060000000000000012
      vertex 150.16 60 0.080000000000000002
      vertex 150.12 60 0.060000000000000012
    endloop
  endfacet
  facet normal 0.44721359550002893 0 0.89442719099988033
    outer loop
      vertex 150.88 -52 0.060000000000000012
      vertex 150.84 -56 0.080000000000000002
      vertex 150.84 -60 0.080000000000000002
    endloop
  endfacet
  facet normal 0.44721359550002893 0 0.89442719099988033
    outer loop
      vertex 150.88 -52 0.060000000000000012
      vertex 150.84 -60 0.080000000000000002
      vertex 150.88 -60 0.060000000000000012
    endloop
  endfacet
  facet normal 0.44721359550002893 0 0.89442719099988033
    outer loop
      vertex 150.84 -56 0.080000000000000002
      vertex 150.88 -52 0.060000000000000012
      vertex 150.88 -40 0.060000000000000012
    endloop
  endfacet
  facet normal 0.44721359550002893 -0 0.89442719099988033
    outer loop
      vertex 150.84 -56 0.080000000000000002
      vertex 150.88 -40 0.060000000000000012
      vertex 150.84 -40 0.080000000000000002
    endloop
  endfacet
  facet normal 0.44721359550002893 0 0.89442719099988033
    outer loop
      vertex 150.88 -32 0.060000000000000012
      vertex 150.84 -36 0.080000000000000002
      vertex 150.84 -40 0.080000000000000002
    endloop
  endfacet
  facet normal 0.44721359550002893 0 0.89442719099988033
    outer loop
      vertex 150.88 -32 0.060000000000000012
      vertex 150.84 -40 0.080000000000000002
      vertex 150.88 -40 0.060000000000000012
    endloop
  endfacet
  facet normal 0.44721359550002893 0 0.89442719099988033
    outer loop
      vertex 150.84 -36 0.080000000000000002
      vertex 150.88 -32 0.060000000000000012
      vertex 150.88 -20 0.060000000000000012
    endloop
  endfacet
  facet normal 0.44721359550002893 -0 0.89442719099988033
    outer loop
      vertex 150.84 -36 0.080000000000000002
      vertex 150.88 -20 0.060000000000000012
      vertex 150.84 -20 0.080000000000000002
    endloop
  endfacet
  facet normal 0.44721359550002893 0 0.89442719099988033
    outer loop
      vertex 150.88 -16 0.060000000000000012
      vertex 150.84 -18 0.080000000000000002
      vertex 150.84 -20 0.080000000000000002
    endloop
  endfacet
  facet normal 0.44721359550002893 0 0.89442719099988033
    outer loop
      vertex 150.88 -16 0.060000000000000012
      vertex 150.84 -20 0.080000000000000002
      vertex 150.88 -20 0.060000000000000012
    endloop
  endfacet
  facet normal 0.44721359550002893 0 0.89442719099988033
    outer loop
      vertex 150.84 -18 0.080000000000000002
      vertex 150.88 -16 0.060000000000000012
      vertex 150.88 -10 0.060000000000000012
    endloop
  endfacet
  facet normal 0.44721359550002893 -0 0.89442719099988033
    outer loop
      vertex 150.84 -18 0.080000000000000002
      vertex 150.88 -10 0.060000000000000012
      vertex 150.84 -10 0.080000000000000002
    endloop
  endfacet
  facet normal 0.44721359550002898 0 0.89442719099988044
    outer loop
      vertex 150.88 -6.0000000000000009 0.060000000000000012
      vertex 150.84 -8 0.080000000000000002
      vertex 150.84 -10 0.080000000000000002
    endloop
  endfacet
  facet normal 0.44721359550002898 0 0.89442719099988044
    outer loop
      vertex 150.88 -6.0000000000000009 0.060000000000000012
      vertex 150.84 -10 0.080000000000000002
      vertex 150.88 -10 0.060000000000000012
    endloop
  endfacet
  facet normal 0.44721359550002893 0 0.89442719099988033
    outer loop
      vertex 150.84 -8 0.080000000000000002
      vertex 150.88 -6.0000000000000009 0.060000000000000012
      vertex 150.88 0 0.060000000000000012
    endloop
  endfacet
  facet normal 0.44721359550002893 -0 0.89442719099988033
    outer loop
      vertex 150.84 -8 0.080000000000000002
      vertex 150.88 0 0.060000000000000012
      vertex 150.84 0 0.080000000000000002
    endloop
  endfacet
  facet normal 0.44721359550002893 0 0.89442719099988033
    outer loop
      vertex 150.88 0.00039999999999999996 0.060000000000000012
      vertex 150.84 0.00020000000000000004 0.080000000000000002
      vertex 150.84 0 0.080000000000000002
    endloop
  endfacet
  facet normal 0.44721359550002893 0 0.89442719099988033
    outer loop
      vertex 150.88 0.00039999999999999996 0.060000000000000012
      vertex 150.84 0 0.080000000000000002
      vertex 150.88 0 0.060000000000000012
    endloop
  endfacet
  facet normal 0.44721359550002898 0 0.89442719099988044
    outer loop
      vertex 150.84 0.00020000000000000004 0.080000000000000002
      vertex 150.88 0.00039999999999999991 0.060000000000000012
      vertex 150.88 0.001 0.060000000000000012
    endloop
  endfacet
  facet normal 0.44721359550002893 -0 0.89442719099988033
    outer loop
      vertex 150.84 0.00020000000000000004 0.080000000000000002
      vertex 150.88 0.001 0.060000000000000012
      vertex 150.84 0.001 0.080000000000000002
    endloop
  endfacet
  facet normal 0.44721359550002893 0 0.89442719099988033
    outer loop
      vertex 150.88 4.0005999999999986 0.060000000000000012
      vertex 150.84 2.0007999999999999 0.080000000000000002
      vertex 150.84 0.001 0.080000000000000002
    endloop
  endfacet
  facet normal 0.44721359550002898 0 0.89442719099988044
    outer loop
      vertex 150.88 4.0005999999999986 0.060000000000000012
      vertex 150.84 0.001 0.080000000000000002
      vertex 150.88 0.001 0.060000000000000012
    endloop
  endfacet
  facet normal 0.44721359550002893 0 0.89442719099988033
    outer loop
      vertex 150.84 2.0008000000000008 0.080000000000000002
      vertex 150.88 4.0005999999999995 0.060000000000000012
      vertex 150.88 10 0.060000000000000012
    endloop
  endfacet
  facet normal 0.44721359550002898 -0 0.89442719099988044
    outer loop
      vertex 150.84 2.0008000000000008 0.080000000000000002
      vertex 150.88 10 0.060000000000000012
      vertex 150.84 10 0.080000000000000002
    endloop
  endfacet
  facet normal 0.44721359550002893 0 0.89442719099988033
    outer loop
      vertex 150.88 14 0.060000000000000012
      vertex 150.84 12 0.080000000000000002
      vertex 150.84 10 0.080000000000000002
    endloop
  endfacet
  facet normal 0.44721359550002893 0 0.89442719099988033
    outer loop
      vertex 150.88 14 0.060000000000000012
      vertex 150.84 10 0.080000000000000002
      vertex 150.88 10 0.060000000000000012
    endloop
  endfacet
  facet normal 0.44721359550002893 0 0.89442719099988033
    outer loop
      vertex 150.84 12 0.080000000000000002
      vertex 150.88 14 0.060000000000000012
      vertex 150.88 20 0.060000000000000012
    endloop
  endfacet
  facet normal 0.44721359550002893 -0 0.89442719099988033
    outer loop
      vertex 150.84 12 0.080000000000000002
      vertex 150.88 20 0.060000000000000012
      vertex 150.84 20 0.080000000000000002
    endloop
  endfacet
  facet normal 0.44721359550002893 0 0.89442719099988033
    outer loop
      vertex 150.88 28 0.060000000000000012
      vertex 150.84 24 0.080000000000000002
      vertex 150.84 20 0.080000000000000002
    endloop
  endfacet
  facet normal 0.44721359550002893 0 0.89442719099988033
    outer loop
      vertex 150.88 28 0.060000000000000012
      vertex 150.84 20 0.080000000000000002
      vertex 150.88 20 0.060000000000000012
    endloop
  endfacet
  facet normal 0.44721359550002893 0 0.89442719099988033
    outer loop
      vertex 150.84 24 0.080000000000000002
      vertex 150.88 28 0.060000000000000012
      vertex 150.88 40 0.060000000000000012
    endloop
  endfacet
  facet normal 0.44721359550002893 -0 0.89442719099988033
    outer loop
      vertex 150.84 24 0.080000000000000002
      vertex 150.88 40 0.060000000000000012
      vertex 150.84 40 0.080000000000000002
    endloop
  endfacet
  facet normal 0.44721359550002893 0 0.89442719099988033
    outer loop
      vertex 150.88 48 0.060000000000000012
      vertex 150.84 44 0.080000000000000002
      vertex 150.84 40 0.080000000000000002
    endloop
  endfacet
  facet normal 0.44721359550002893 0 0.89442719099988033
    outer loop
      vertex 150.88 48 0.060000000000000012
      vertex 150.84 40 0.080000000000000002
      vertex 150.88 40 0.060000000000000012
    endloop
  endfacet
  facet normal 0.44721359550002893 0 0.89442719099988033
    outer loop
      vertex 150.84 44 0.080000000000000002
      vertex 150.88 48 0.060000000000000012
      vertex 150.88 60 0.060000000000000012
    endloop
  endfacet
  facet normal 0.44721359550002893 -0 0.89442719099988033
    outer loop
      vertex 150.84 44 0.080000000000000002
      vertex 150.88 60 0.060000000000000012
      vertex 150.84 60 0.080000000000000002
    endloop
  endfacet
  facet normal -0.44721359550002893 0 0.89442719099988033
    outer loop
      vertex 175.16 -44 0.080000000000000002
      vertex 175.12 -48 0.060000000000000012
      vertex 175.12 -60 0.060000000000000012
    endloop
  endfacet
  facet normal -0.44721359550002893 0 0.89442719099988033
    outer loop
      vertex 175.16 -44 0.080000000000000002
      vertex 175.12 -60 0.060000000000000012
      vertex 175.16 -60 0.080000000000000002
    endloop
  endfacet
  facet normal -0.44721359550002893 0 0.89442719099988033
    outer loop
      vertex 175.12 -48 0.060000000000000012
      vertex 175.16 -44 0.080000000000000002
      vertex 175.16 -40 0.080000000000000002
    endloop
  endfacet
  facet normal -0.44721359550002893 0 0.89442719099988033
    outer loop
      vertex 175.12 -48 0.060000000000000012
      vertex 175.16 -40 0.080000000000000002
      vertex 175.12 -40 0.060000000000000012
    endloop
  endfacet
  facet normal -0.44721359550002893 0 0.89442719099988033
    outer loop
      vertex 175.16 -24 0.080000000000000002
      vertex 175.12 -28 0.060000000000000012
      vertex 175.12 -40 0.060000000000000012
    endloop
  endfacet
  facet normal -0.44721359550002893 0 0.89442719099988033
    outer loop
      vertex 175.16 -24 0.080000000000000002
      vertex 175.12 -40 0.060000000000000012
      vertex 175.16 -40 0.080000000000000002
    endloop
  endfacet
  facet normal -0.44721359550002893 0 0.89442719099988033
    outer loop
      vertex 175.12 -28 0.060000000000000012
      vertex 175.16 -24 0.080000000000000002
      vertex 175.16 -20 0.080000000000000002
    endloop
  endfacet
  facet normal -0.44721359550002893 0 0.89442719099988033
    outer loop
      vertex 175.12 -28 0.060000000000000012
      vertex 175.16 -20 0.080000000000000002
      vertex 175.12 -20 0.060000000000000012
    endloop
  endfacet
  facet normal -0.44721359550002893 0 0.89442719099988033
    outer loop
      vertex 175.16 -12 0.080000000000000002
      vertex 175.12 -14 0.060000000000000012
      vertex 175.12 -20 0.060000000000000012
    endloop
  endfacet
  facet normal -0.44721359550002893 0 0.89442719099988033
    outer loop
      vertex 175.16 -12 0.080000000000000002
      vertex 175.12 -20 0.060000000000000012
      vertex 175.16 -20 0.080000000000000002
    endloop
  endfacet
  facet normal -0.44721359550002893 0 0.89442719099988033
    outer loop
      vertex 175.12 -14 0.060000000000000012
      vertex 175.16 -12 0.080000000000000002
      vertex 175.16 -10 0.080000000000000002
    endloop
  endfacet
  facet normal -0.44721359550002893 0 0.89442719099988033
    outer loop
      vertex 175.12 -14 0.060000000000000012
      vertex 175.16 -10 0.080000000000000002
      vertex 175.12 -10 0.060000000000000012
    endloop
  endfacet
  facet normal -0.44721359550002893 0 0.89442719099988033
    outer loop
      vertex 175.16 -2.0000000000000004 0.080000000000000002
      vertex 175.12 -3.9999999999999991 0.060000000000000012
      vertex 175.12 -10 0.060000000000000012
    endloop
  endfacet
  facet normal -0.44721359550002893 0 0.89442719099988033
    outer loop
      vertex 175.16 -2.0000000000000004 0.080000000000000002
      vertex 175.12 -10 0.060000000000000012
      vertex 175.16 -10 0.080000000000000002
    endloop
  endfacet
  facet normal -0.44721359550002898 0 0.89442719099988044
    outer loop
      vertex 175.12 -3.9999999999999991 0.060000000000000012
      vertex 175.16 -2 0.080000000000000002
      vertex 175.16 0 0.080000000000000002
    endloop
  endfacet
  facet normal -0.44721359550002898 0 0.89442719099988044
    outer loop
      vertex 175.12 -3.9999999999999991 0.060000000000000012
      vertex 175.16 0 0.080000000000000002
      vertex 175.12 0 0.060000000000000012
    endloop
  endfacet
  facet normal -0.44721359550002898 0 0.89442719099988044
    outer loop
      vertex 175.16 0.00079999999999999993 0.080000000000000002
      vertex 175.12 0.00060000000000000006 0.060000000000000012
      vertex 175.12 0 0.060000000000000012
    endloop
  endfacet
  facet normal -0.44721359550002893 0 0.89442719099988033
    outer loop
      vertex 175.16 0.00079999999999999993 0.080000000000000002
      vertex 175.12 0 0.060000000000000012
      vertex 175.16 0 0.080000000000000002
    endloop
  endfacet
  facet normal -0.44721359550002893 0 0.89442719099988033
    outer loop
      vertex 175.12 0.00060000000000000006 0.060000000000000012
      vertex 175.16 0.00079999999999999993 0.080000000000000002
      vertex 175.16 0.001 0.080000000000000002
    endloop
  endfacet
  facet normal -0.44721359550002893 0 0.89442719099988033
    outer loop
      vertex 175.12 0.00060000000000000006 0.060000000000000012
      vertex 175.16 0.001 0.080000000000000002
      vertex 175.12 0.001 0.060000000000000012
    endloop
  endfacet
  facet normal -0.44721359550002893 0 0.89442719099988033
    outer loop
      vertex 175.16 8.0001999999999995 0.080000000000000002
      vertex 175.12 6.0004000000000008 0.060000000000000012
      vertex 175.12 0.001 0.060000000000000012
    endloop
  endfacet
  facet normal -0.44721359550002898 0 0.89442719099988044
    outer loop
      vertex 175.16 8.0001999999999995 0.080000000000000002
      vertex 175.12 0.001 0.060000000000000012
      vertex 175.16 0.001 0.080000000000000002
    endloop
  endfacet
  facet normal -0.44721359550002898 0 0.89442719099988044
    outer loop
      vertex 175.12 6.0004000000000017 0.060000000000000012
      vertex 175.16 8.0001999999999995 0.080000000000000002
      vertex 175.16 10 0.080000000000000002
    endloop
  endfacet
  facet normal -0.44721359550002893 0 0.89442719099988044
    outer loop
      vertex 175.12 6.0004000000000017 0.060000000000000012
      vertex 175.16 10 0.080000000000000002
      vertex 175.12 10 0.060000000000000012
    endloop
  endfacet
  facet normal -0.44721359550002893 0 0.89442719099988033
    outer loop
      vertex 175.16 18 0.080000000000000002
      vertex 175.12 16 0.060000000000000012
      vertex 175.12 10 0.060000000000000012
    endloop
  endfacet
  facet normal -0.44721359550002893 0 0.89442719099988033
    outer loop
      vertex 175.16 18 0.080000000000000002
      vertex 175.12 10 0.060000000000000012
      vertex 175.16 10 0.080000000000000002
    endloop
  endfacet
  facet normal -0.44721359550002893 0 0.89442719099988033
    outer loop
      vertex 175.12 16 0.060000000000000012
      vertex 175.16 18 0.080000000000000002
      vertex 175.16 20 0.080000000000000002
    endloop
  endfacet
  facet normal -0.44721359550002893 0 0.89442719099988033
    outer loop
      vertex 175.12 16 0.060000000000000012
      vertex 175.16 20 0.080000000000000002
      vertex 175.12 20 0.060000000000000012
    endloop
  endfacet
  facet normal -0.44721359550002893 0 0.89442719099988033
    outer loop
      vertex 175.16 36 0.080000000000000002
      vertex 175.12 32 0.060000000000000012
      vertex 175.12 20 0.060000000000000012
    endloop
  endfacet
  facet normal -0.44721359550002893 0 0.89442719099988033
    outer loop
      vertex 175.16 36 0.080000000000000002
      vertex 175.12 20 0.060000000000000012
      vertex 175.16 20 0.080000000000000002
    endloop
  endfacet
  facet normal -0.44721359550002893 0 0.89442719099988033
    outer loop
      vertex 175.12 32 0.060000000000000012
      vertex 175.16 36 0.080000000000000002
      vertex 175.16 40 0.080000000000000002
    endloop
  endfacet
  facet normal -0.44721359550002893 0 0.89442719099988033
    outer loop
      vertex 175.12 32 0.060000000000000012
      vertex 175.16 40 0.080000000000000002
      vertex 175.12 40 0.060000000000000012
    endloop
  endfacet
  facet normal -0.44721359550002893 0 0.89442719099988033
    outer loop
      vertex 175.16 56 0.080000000000000002
      vertex 175.12 52 0.060000000000000012
      vertex 175.12 40 0.060000000000000012
    endloop
  endfacet
  facet normal -0.44721359550002893 0 0.89442719099988033
    outer loop
      vertex 175.16 56 0.080000000000000002
      vertex 175.12 40 0.060000000000000012
      vertex 175.16 40 0.080000000000000002
    endloop
  endfacet
  facet normal -0.44721359550002893 0 0.89442719099988033
    outer loop
      vertex 175.12 52 0.060000000000000012
      vertex 175.16 56 0.080000000000000002
      vertex 175.16 60 0.080000000000000002
    endloop
  endfacet
  facet normal -0.44721359550002893 0 0.89442719099988033
    outer loop
      vertex 175.12 52 0.060000000000000012
      vertex 175.16 60 0.080000000000000002
      vertex 175.12 60 0.060000000000000012
    endloop
  endfacet
  facet normal 0.44721359550002893 0 0.89442719099988033
    outer loop
      vertex 177.88 -52 0.060000000000000012
      vertex 177.84 -56 0.080000000000000002
      vertex 177.84 -60 0.080000000000000002
    endloop
  endfacet
  facet normal 0.44721359550002893 0 0.89442719099988033
    outer loop
      vertex 177.88 -52 0.060000000000000012
      vertex 177.84 -60 0.080000000000000002
      vertex 177.88 -60 0.060000000000000012
    endloop
  endfacet
  facet normal 0.44721359550002893 0 0.89442719099988033
    outer loop
      vertex 177.84 -56 0.080000000000000002
      vertex 177.88 -52 0.060000000000000012
      vertex 177.88 -40 0.060000000000000012
    endloop
  endfacet
  facet normal 0.44721359550002893 -0 0.89442719099988033
    outer loop
      vertex 177.84 -56 0.080000000000000002
      vertex 177.88 -40 0.060000000000000012
      vertex 177.84 -40 0.080000000000000002
    endloop
  endfacet
  facet normal 0.44721359550002893 0 0.89442719099988033
    outer loop
      vertex 177.88 -32 0.060000000000000012
      vertex 177.84 -36 0.080000000000000002
      vertex 177.84 -40 0.080000000000000002
    endloop
  endfacet
  facet normal 0.44721359550002893 0 0.89442719099988033
    outer loop
      vertex 177.88 -32 0.060000000000000012
      vertex 177.84 -40 0.080000000000000002
      vertex 177.88 -40 0.060000000000000012
    endloop
  endfacet
  facet normal 0.44721359550002893 0 0.89442719099988033
    outer loop
      vertex 177.84 -36 0.080000000000000002
      vertex 177.88 -32 0.060000000000000012
      vertex 177.88 -20 0.060000000000000012
    endloop
  endfacet
  facet normal 0.44721359550002893 -0 0.89442719099988033
    outer loop
      vertex 177.84 -36 0.080000000000000002
      vertex 177.88 -20 0.060000000000000012
      vertex 177.84 -20 0.080000000000000002
    endloop
  endfacet
  facet normal 0.44721359550002893 0 0.89442719099988033
    outer loop
      vertex 177.88 -16 0.060000000000000012
      vertex 177.84 -18 0.080000000000000002
      vertex 177.84 -20 0.080000000000000002
    endloop
  endfacet
  facet normal 0.44721359550002893 0 0.89442719099988033
    outer loop
      vertex 177.88 -16 0.060000000000000012
      vertex 177.84 -20 0.080000000000000002
      vertex 177.88 -20 0.060000000000000012
    endloop
  endfacet
  facet normal 0.44721359550002893 0 0.89442719099988033
    outer loop
      vertex 177.84 -18 0.080000000000000002
      vertex 177.88 -16 0.060000000000000012
      vertex 177.88 -10 0.060000000000000012
    endloop
  endfacet
  facet normal 0.44721359550002893 -0 0.89442719099988033
    outer loop
      vertex 177.84 -18 0.080000000000000002
      vertex 177.88 -10 0.060000000000000012
      vertex 177.84 -10 0.080000000000000002
    endloop
  endfacet
  facet normal 0.44721359550002898 0 0.89442719099988044
    outer loop
      vertex 177.88 -6.0000000000000009 0.060000000000000012
      vertex 177.84 -8 0.080000000000000002
      vertex 177.84 -10 0.080000000000000002
    endloop
  endfacet
  facet normal 0.44721359550002898 0 0.89442719099988044
    outer loop
      vertex 177.88 -6.0000000000000009 0.060000000000000012
      vertex 177.84 -10 0.080000000000000002
      vertex 177.88 -10 0.060000000000000012
    endloop
  endfacet
  facet normal 0.44721359550002893 0 0.89442719099988033
    outer loop
      vertex 177.84 -8 0.080000000000000002
      vertex 177.88 -6.0000000000000009 0.060000000000000012
      vertex 177.88 0 0.060000000000000012
    endloop
  endfacet
  facet normal 0.44721359550002893 -0 0.89442719099988033
    outer loop
      vertex 177.84 -8 0.080000000000000002
      vertex 177.88 0 0.060000000000000012
      vertex 177.84 0 0.080000000000000002
    endloop
  endfacet
  facet normal 0.44721359550002893 0 0.89442719099988033
    outer loop
      vertex 177.88 0.00039999999999999996 0.060000000000000012
      vertex 177.84 0.00020000000000000004 0.080000000000000002
      vertex 177.84 0 0.080000000000000002
    endloop
  endfacet
  facet normal 0.44721359550002893 0 0.89442719099988033
    outer loop
      vertex 177.88 0.00039999999999999996 0.060000000000000012
      vertex 177.84 0 0.080000000000000002
      vertex 177.88 0 0.060000000000000012
    endloop
  endfacet
  facet normal 0.44721359550002898 0 0.89442719099988044
    outer loop
      vertex 177.84 0.00020000000000000004 0.080000000000000002
      vertex 177.88 0.00039999999999999991 0.060000000000000012
      vertex 177.88 0.001 0.060000000000000012
    endloop
  endfacet
  facet normal 0.44721359550002893 -0 0.89442719099988033
    outer loop
      vertex 177.84 0.00020000000000000004 0.080000000000000002
      vertex 177.88 0.001 0.060000000000000012
      vertex 177.84 0.001 0.080000000000000002
    endloop
  endfacet
  facet normal 0.44721359550002893 0 0.89442719099988033
    outer loop
      vertex 177.88 4.0005999999999986 0.060000000000000012
      vertex 177.84 2.0007999999999999 0.080000000000000002
      vertex 177.84 0.001 0.080000000000000002
    endloop
  endfacet
  facet normal 0.44721359550002898 0 0.89442719099988044
    outer loop
      vertex 177.88 4.0005999999999986 0.060000000000000012
      vertex 177.84 0.001 0.080000000000000002
      vertex 177.88 0.001 0.060000000000000012
    endloop
  endfacet
  facet normal 0.44721359550002893 0 0.89442719099988033
    outer loop
      vertex 177.84 2.0008000000000008 0.080000000000000002
      vertex 177.88 4.0005999999999995 0.060000000000000012
      vertex 177.88 10 0.060000000000000012
    endloop
  endfacet
  facet normal 0.44721359550002898 -0 0.89442719099988044
    outer loop
      vertex 177.84 2.0008000000000008 0.080000000000000002
      vertex 177.88 10 0.060000000000000012
      vertex 177.84 10 0.080000000000000002
    endloop
  endfacet
  facet normal 0.44721359550002893 0 0.89442719099988033
    outer loop
      vertex 177.88 14 0.060000000000000012
      vertex 177.84 12 0.080000000000000002
      vertex 177.84 10 0.080000000000000002
    endloop
  endfacet
  facet normal 0.44721359550002893 0 0.89442719099988033
    outer loop
      vertex 177.88 14 0.060000000000000012
      vertex 177.84 10 0.080000000000000002
      vertex 177.88 10 0.060000000000000012
    endloop
  endfacet
  facet normal 0.44721359550002893 0 0.89442719099988033
    outer loop
      vertex 177.84 12 0.080000000000000002
      vertex 177.88 14 0.060000000000000012
      vertex 177.88 20 0.060000000000000012
    endloop
  endfacet
  facet normal 0.44721359550002893 -0 0.89442719099988033
    outer loop
      vertex 177.84 12 0.080000000000000002
      vertex 177.88 20 0.060000000000000012
      vertex 177.84 20 0.080000000000000002
    endloop
  endfacet
  facet normal 0.44721359550002893 0 0.89442719099988033
    outer loop
      vertex 177.88 28 0.060000000000000012
      vertex 177.84 24 0.080000000000000002
      vertex 177.84 20 0.080000000000000002
    endloop
  endfacet
  facet normal 0.44721359550002893 0 0.89442719099988033
    outer loop
      vertex 177.88 28 0.060000000000000012
      vertex 177.84 20 0.080000000000000002
      vertex 177.88 20 0.060000000000000012
    endloop
  endfacet
  facet normal 0.44721359550002893 0 0.89442719099988033
    outer loop
      vertex 177.84 24 0.080000000000000002
      vertex 177.88 28 0.060000000000000012
      vertex 177.88 40 0.060000000000000012
    endloop
  endfacet
  facet normal 0.44721359550002893 -0 0.89442719099988033
    outer loop
      vertex 177.84 24 0.080000000000000002
      vertex 177.88 40 0.060000000000000012
      vertex 177.84 40 0.080000000000000002
    endloop
  endfacet
  facet normal 0.44721359550002893 0 0.89442719099988033
    outer loop
      vertex 177.88 48 0.060000000000000012
      vertex 177.84 44 0.080000000000000002
      vertex 177.84 40 0.080000000000000002
    endloop
  endfacet
  facet normal 0.44721359550002893 0 0.89442719099988033
    outer loop
      vertex 177.88 48 0.060000000000000012
      vertex 177.84 40 0.080000000000000002
      vertex 177.88 40 0.060000000000000012
    endloop
  endfacet
  facet normal 0.44721359550002893 0 0.89442719099988033
    outer loop
      vertex 177.84 44 0.080000000000000002
      vertex 177.88 48 0.060000000000000012
      vertex 177.88 60 0.060000000000000012
    endloop
  endfacet
  facet normal 0.44721359550002893 -0 0.89442719099988033
    outer loop
      vertex 177.84 44 0.080000000000000002
      vertex 177.88 60 0.060000000000000012
      vertex 177.84 60 0.080000000000000002
    endloop
  endfacet
endsolid terrain_band_4
