solid terrain_band_1
  facet normal 0.58834840541460542 0.19611613513817858 0.78446454055269754
    outer loop
      vertex 161.36000000000001 80.159999999999997 -0.16
      vertex 161.40000000000001 80.040000000000006 -0.16
      vertex 161.40000000000001 80.200000000000003 -0.20000000000000001
    endloop
  endfacet
  facet normal 0.70710678118661796 -0 0.70710678118647707
    outer loop
      vertex 161.36000000000001 80.159999999999997 -0.16
      vertex 161.40000000000001 80.200000000000003 -0.20000000000000001
      vertex 161.36000000000001 80.200000000000003 -0.16
    endloop
  endfacet
  facet normal 0.70710678118661796 0 0.70710678118647718
    outer loop
      vertex 161.36000000000001 96.040000000000006 -0.16
      vertex 161.36000000000001 80.200000000000003 -0.16
      vertex 161.40000000000001 80.200000000000003 -0.20000000000000001
    endloop
  endfacet
  facet normal 0.70710678118661807 0 0.70710678118647718
    outer loop
      vertex 161.36000000000001 96.040000000000006 -0.16
      vertex 161.40000000000001 80.200000000000003 -0.20000000000000001
      vertex 161.40000000000001 100 -0.20000000000000001
    endloop
  endfacet
  facet normal 0.70710678118661796 -0 0.70710678118647718
    outer loop
      vertex 161.36000000000001 96.039999999999992 -0.16
      vertex 161.40000000000001 100 -0.20000000000000001
      vertex 161.36000000000001 100 -0.16
    endloop
  endfacet
  facet normal -0 0.24253562503633788 0.97014250014533066
    outer loop
      vertex 161.44 80.040000000000006 -0.16
      vertex 161.59999999999999 80.040000000000006 -0.16
      vertex 161.59999999999999 80.200000000000003 -0.20000000000000001
    endloop
  endfacet
  facet normal -0 0.24253562503633791 0.97014250014533066
    outer loop
      vertex 161.40000000000001 80.040000000000006 -0.16
      vertex 161.44 80.040000000000006 -0.16
      vertex 161.59999999999999 80.200000000000003 -0.20000000000000001
    endloop
  endfacet
  facet normal 0 0.24253562503633794 0.97014250014533077
    outer loop
      vertex 161.40000000000001 80.040000000000006 -0.16
      vertex 161.59999999999999 80.200000000000003 -0.20000000000000001
      vertex 161.40000000000001 80.200000000000003 -0.20000000000000001
    endloop
  endfacet
  facet normal 0 0 1
    outer loop
      vertex 161.40000000000001 80.200000000000003 -0.20000000000000001
      vertex 161.59999999999999 80.200000000000003 -0.20000000000000001
      vertex 161.59999999999999 100 -0.20000000000000001
    endloop
  endfacet
  facet normal 0 0 1
    outer loop
      vertex 161.40000000000001 80.200000000000003 -0.20000000000000001
      vertex 161.59999999999999 100 -0.20000000000000001
      vertex 161.40000000000001 100 -0.20000000000000001
    endloop
  endfacet
  facet normal -0 0.24253562503633788 0.97014250014533066
    outer loop
      vertex 162.59999999999999 80.040000000000006 -0.16
      vertex 166.59999999999999 80.040000000000006 -0.16
      vertex 166.59999999999999 80.200000000000003 -0.20000000000000001
    endloop
  endfacet
  facet normal -0 0.24253562503633788 0.97014250014533066
    outer loop
      vertex 161.59999999999999 80.040000000000006 -0.16
      vertex 162.59999999999999 80.040000000000006 -0.16
      vertex 166.59999999999999 80.200000000000003 -0.20000000000000001
    endloop
  endfacet
  facet normal 0 0.24253562503633788 0.97014250014533066
    outer loop
      vertex 161.59999999999999 80.040000000000006 -0.16
      vertex 166.59999999999999 80.200000000000003 -0.20000000000000001
      vertex 161.59999999999999 80.200000000000003 -0.20000000000000001
    endloop
  endfacet
  facet normal 0 0 1
    outer loop
      vertex 161.59999999999999 80.200000000000003 -0.20000000000000001
      vertex 166.59999999999999 80.200000000000003 -0.20000000000000001
      vertex 166.59999999999999 100 -0.20000000000000001
    endloop
  endfacet
  facet normal 0 0 1
    outer loop
      vertex 161.59999999999999 80.200000000000003 -0.20000000000000001
      vertex 166.59999999999999 100 -0.20000000000000001
      vertex 161.59999999999999 100 -0.20000000000000001
    endloop
  endfacet
  facet normal -0 0.24253562503633788 0.97014250014533066
    outer loop
      vertex 166.63999999999999 80.040000000000006 -0.16
      vertex 166.80000000000001 80.040000000000006 -0.16
      vertex 166.80000000000001 80.200000000000003 -0.20000000000000001
    endloop
  endfacet
  facet normal -0 0.24253562503633791 0.97014250014533066
    outer loop
      vertex 166.59999999999999 80.040000000000006 -0.16
      vertex 166.63999999999999 80.040000000000006 -0.16
      vertex 166.80000000000001 80.200000000000003 -0.20000000000000001
    endloop
  endfacet
  facet normal 0 0.24253562503633785 0.97014250014533054
    outer loop
      vertex 166.59999999999999 80.040000000000006 -0.16
      vertex 166.80000000000001 80.200000000000003 -0.20000000000000001
      vertex 166.59999999999999 80.200000000000003 -0.20000000000000001
    endloop
  endfacet
  facet normal 0 0 1
    outer loop
      vertex 166.59999999999999 80.200000000000003 -0.20000000000000001
      vertex 166.80000000000001 80.200000000000003 -0.20000000000000001
      vertex 166.80000000000001 100 -0.20000000000000001
    endloop
  endfacet
  facet normal 0 0 1
    outer loop
      vertex 166.59999999999999 80.200000000000003 -0.20000000000000001
      vertex 166.80000000000001 100 -0.20000000000000001
      vertex 166.59999999999999 100 -0.20000000000000001
    endloop
  endfacet
  facet normal -0.038776514554655646 0.24235321596660292 0.96941286386639081
    outer loop
      vertex 166.80000000000001 80.040000000000006 -0.16
      vertex 167.80000000000001 80.200000000000003 -0.16
      vertex 166.80000000000001 80.200000000000003 -0.20000000000000001
    endloop
  endfacet
  facet normal -0.039968038348871589 0 0.99920095872178949
    outer loop
      vertex 167.80000000000001 84.159999999999997 -0.16
      vertex 166.80000000000001 80.200000000000003 -0.20000000000000001
      vertex 167.80000000000001 80.200000000000003 -0.16
    endloop
  endfacet
  facet normal -0.039968038348871589 0 0.99920095872178949
    outer loop
      vertex 166.80000000000001 80.200000000000003 -0.20000000000000001
      vertex 167.80000000000001 84.159999999999997 -0.16
      vertex 167.80000000000001 100 -0.16
    endloop
  endfacet
  facet normal -0.039968038348871582 0 0.99920095872178938
    outer loop
      vertex 166.80000000000001 80.200000000000003 -0.20000000000000001
      vertex 167.80000000000001 100 -0.16
      vertex 166.80000000000001 100 -0.20000000000000001
    endloop
  endfacet
  facet normal 0.58834840541463496 0.1961161351381652 0.78446454055267878
    outer loop
      vertex 204.96000000000001 40.160000000000004 -0.16
      vertex 205 40.039999999999999 -0.16
      vertex 205 40.200000000000003 -0.20000000000000001
    endloop
  endfacet
  facet normal 0.70710678118661796 -0 0.70710678118647707
    outer loop
      vertex 204.96000000000001 40.160000000000004 -0.16
      vertex 205 40.200000000000003 -0.20000000000000001
      vertex 204.96000000000001 40.200000000000003 -0.16
    endloop
  endfacet
  facet normal 0.70710678118661785 0 0.70710678118647718
    outer loop
      vertex 204.96000000000001 56.039999999999999 -0.16
      vertex 204.96000000000001 40.200000000000003 -0.16
      vertex 205 40.200000000000003 -0.20000000000000001
    endloop
  endfacet
  facet normal 0.70710678118661796 0 0.70710678118647718
    outer loop
      vertex 204.96000000000001 56.039999999999999 -0.16
      vertex 205 40.200000000000003 -0.20000000000000001
      vertex 205 60 -0.20000000000000001
    endloop
  endfacet
  facet normal 0.70710678118661796 -0 0.70710678118647718
    outer loop
      vertex 204.96000000000001 56.039999999999999 -0.16
      vertex 205 60 -0.20000000000000001
      vertex 204.96000000000001 60 -0.16
    endloop
  endfacet
  facet normal 0.62469504755450322 -0.46852128566577345 0.62469504755437888
    outer loop
      vertex 204.96000000000001 60 -0.16
      vertex 205 60 -0.20000000000000001
      vertex 205 60.053333333333335 -0.16
    endloop
  endfacet
  facet normal -0 0.24253562503632775 0.97014250014533321
    outer loop
      vertex 205.03999999999999 40.039999999999999 -0.16
      vertex 205.19999999999999 40.039999999999999 -0.16
      vertex 205.19999999999999 40.200000000000003 -0.20000000000000001
    endloop
  endfacet
  facet normal -0 0.24253562503632775 0.97014250014533321
    outer loop
      vertex 205 40.039999999999999 -0.16
      vertex 205.03999999999999 40.039999999999999 -0.16
      vertex 205.19999999999999 40.200000000000003 -0.20000000000000001
    endloop
  endfacet
  facet normal 0 0.24253562503632778 0.97014250014533321
    outer loop
      vertex 205 40.039999999999999 -0.16
      vertex 205.19999999999999 40.200000000000003 -0.20000000000000001
      vertex 205 40.200000000000003 -0.20000000000000001
    endloop
  endfacet
  facet normal 0 0 1
    outer loop
      vertex 205 40.200000000000003 -0.20000000000000001
      vertex 205.19999999999999 40.200000000000003 -0.20000000000000001
      vertex 205.19999999999999 60 -0.20000000000000001
    endloop
  endfacet
  facet normal 0 0 1
    outer loop
      vertex 205 40.200000000000003 -0.20000000000000001
      vertex 205.19999999999999 60 -0.20000000000000001
      vertex 205 60 -0.20000000000000001
    endloop
  endfacet
  facet normal 0 -0.59999999999999121 0.80000000000000671
    outer loop
      vertex 205.05333333333334 60.053333333333335 -0.16
      vertex 205 60 -0.20000000000000001
      vertex 205.19999999999999 60 -0.20000000000000001
    endloop
  endfacet
  facet normal 0 -0.5999999999999911 0.80000000000000659
    outer loop
      vertex 205.05333333333334 60.053333333333335 -0.16
      vertex 205.19999999999999 60 -0.20000000000000001
      vertex 205.19999999999999 60.053333333333335 -0.16
    endloop
  endfacet
  facet normal 0 -0.59999999999999121 0.80000000000000648
    outer loop
      vertex 205 60.053333333333335 -0.16
      vertex 205 60 -0.20000000000000001
      vertex 205.05333333333334 60.053333333333335 -0.16
    endloop
  endfacet
  facet normal -0 0.70710678118649239 0.70710678118660275
    outer loop
      vertex 205.36000000000001 -80.040000000000006 -0.16
      vertex 205.40000000000001 -80.040000000000006 -0.16
      vertex 205.40000000000001 -80 -0.20000000000000001
    endloop
  endfacet
  facet normal 0.70710678118661796 -0 0.70710678118647707
    outer loop
      vertex 205.36000000000001 -80.040000000000006 -0.16
      vertex 205.40000000000001 -80 -0.20000000000000001
      vertex 205.36000000000001 -80 -0.16
    endloop
  endfacet
  facet normal 0.70710678118661796 0 0.70710678118647718
    outer loop
      vertex 205.36000000000001 -64.159999999999997 -0.16
      vertex 205.36000000000001 -80 -0.16
      vertex 205.40000000000001 -80 -0.20000000000000001
    endloop
  endfacet
  facet normal 0.70710678118661807 0 0.70710678118647718
    outer loop
      vertex 205.36000000000001 -64.159999999999997 -0.16
      vertex 205.40000000000001 -80 -0.20000000000000001
      vertex 205.40000000000001 -60.200000000000003 -0.20000000000000001
    endloop
  endfacet
  facet normal 0.70710678118661796 -0 0.70710678118647707
    outer loop
      vertex 205.36000000000001 -64.159999999999997 -0.16
      vertex 205.40000000000001 -60.200000000000003 -0.20000000000000001
      vertex 205.36000000000001 -60.200000000000003 -0.16
    endloop
  endfacet
  facet normal 0.57735026918969834 -0.57735026918959576 0.57735026918958332
    outer loop
      vertex 205.36000000000001 -60.200000000000003 -0.16
      vertex 205.40000000000001 -60.200000000000003 -0.20000000000000001
      vertex 205.40000000000001 -60.160000000000004 -0.16
    endloop
  endfacet
  facet normal -0.69631062382286324 0.17407765595567717 0.69631062382272457
    outer loop
      vertex 205.19999999999999 40.039999999999999 -0.16
      vertex 205.23999999999998 40.200000000000003 -0.16
      vertex 205.19999999999999 40.200000000000003 -0.20000000000000001
    endloop
  endfacet
  facet normal -0.70710678118661796 0 0.70710678118647718
    outer loop
      vertex 205.23999999999998 44.160000000000004 -0.16
      vertex 205.19999999999999 40.200000000000003 -0.20000000000000001
      vertex 205.23999999999998 40.200000000000003 -0.16
    endloop
  endfacet
  facet normal -0.70710678118661785 0 0.70710678118647718
    outer loop
      vertex 205.19999999999999 40.200000000000003 -0.20000000000000001
      vertex 205.23999999999998 44.160000000000004 -0.16
      vertex 205.23999999999998 60 -0.16
    endloop
  endfacet
  facet normal -0.70710678118661807 0 0.70710678118647718
    outer loop
      vertex 205.19999999999999 40.200000000000003 -0.20000000000000001
      vertex 205.23999999999998 60 -0.16
      vertex 205.19999999999999 60 -0.20000000000000001
    endloop
  endfacet
  facet normal -0.70710678118661796 0 0.70710678118647707
    outer loop
      vertex 205.23999999999998 60.039999999999999 -0.16
      vertex 205.19999999999999 60 -0.20000000000000001
      vertex 205.23999999999998 60 -0.16
    endloop
  endfacet
  facet normal -0.19611613513824827 -0.5883484054145357 0.78446454055273229
    outer loop
      vertex 205.19999999999999 60.053333333333335 -0.16
      vertex 205.19999999999999 60 -0.20000000000000001
      vertex 205.23999999999998 60.039999999999999 -0.16
    endloop
  endfacet
  facet normal -0 0.70710678118649228 0.70710678118660275
    outer loop
      vertex 209.40000000000001 -80.040000000000006 -0.16
      vertex 210.40000000000001 -80.040000000000006 -0.16
      vertex 210.40000000000001 -80 -0.20000000000000001
    endloop
  endfacet
  facet normal -0 0.70710678118649228 0.70710678118660275
    outer loop
      vertex 205.40000000000001 -80.040000000000006 -0.16
      vertex 209.40000000000001 -80.040000000000006 -0.16
      vertex 210.40000000000001 -80 -0.20000000000000001
    endloop
  endfacet
  facet normal 0 0.70710678118649228 0.70710678118660264
    outer loop
      vertex 205.40000000000001 -80.040000000000006 -0.16
      vertex 210.40000000000001 -80 -0.20000000000000001
      vertex 205.40000000000001 -80 -0.20000000000000001
    endloop
  endfacet
  facet normal 0 0 1
    outer loop
      vertex 205.40000000000001 -80 -0.20000000000000001
      vertex 210.40000000000001 -80 -0.20000000000000001
      vertex 210.40000000000001 -60.200000000000003 -0.20000000000000001
    endloop
  endfacet
  facet normal 0 0 1
    outer loop
      vertex 205.40000000000001 -80 -0.20000000000000001
      vertex 210.40000000000001 -60.200000000000003 -0.20000000000000001
      vertex 205.40000000000001 -60.200000000000003 -0.20000000000000001
    endloop
  endfacet
  facet normal 0 -0.70710678118655512 0.70710678118653991
    outer loop
      vertex 206.40000000000001 -60.160000000000004 -0.16
      vertex 205.40000000000001 -60.200000000000003 -0.20000000000000001
      vertex 210.40000000000001 -60.200000000000003 -0.20000000000000001
    endloop
  endfacet
  facet normal 0 -0.70710678118655512 0.70710678118653991
    outer loop
      vertex 206.40000000000001 -60.160000000000004 -0.16
      vertex 210.40000000000001 -60.200000000000003 -0.20000000000000001
      vertex 210.40000000000001 -60.160000000000004 -0.16
    endloop
  endfacet
  facet normal 0 -0.70710678118655512 0.70710678118653991
    outer loop
      vertex 205.40000000000001 -60.160000000000004 -0.16
      vertex 205.40000000000001 -60.200000000000003 -0.20000000000000001
      vertex 206.40000000000001 -60.160000000000004 -0.16
    endloop
  endfacet
  facet normal -0 0.70710678118649239 0.70710678118660275
    outer loop
      vertex 210.56 -80.040000000000006 -0.16
      vertex 210.59999999999999 -80.040000000000006 -0.16
      vertex 210.59999999999999 -80 -0.20000000000000001
    endloop
  endfacet
  facet normal -0 0.70710678118649239 0.70710678118660275
    outer loop
      vertex 210.40000000000001 -80.040000000000006 -0.16
      vertex 210.56 -80.040000000000006 -0.16
      vertex 210.59999999999999 -80 -0.20000000000000001
    endloop
  endfacet
  facet normal 0 0.70710678118649239 0.70710678118660275
    outer loop
      vertex 210.40000000000001 -80.040000000000006 -0.16
      vertex 210.59999999999999 -80 -0.20000000000000001
      vertex 210.40000000000001 -80 -0.20000000000000001
    endloop
  endfacet
  facet normal 0 0 1
    outer loop
      vertex 210.40000000000001 -80 -0.20000000000000001
      vertex 210.59999999999999 -80 -0.20000000000000001
      vertex 210.59999999999999 -60.200000000000003 -0.20000000000000001
    endloop
  endfacet
  facet normal 0 0 1
    outer loop
      vertex 210.40000000000001 -80 -0.20000000000000001
      vertex 210.59999999999999 -60.200000000000003 -0.20000000000000001
      vertex 210.40000000000001 -60.200000000000003 -0.20000000000000001
    endloop
  endfacet
  facet normal 0 -0.70710678118655523 0.70710678118653991
    outer loop
      vertex 210.44 -60.160000000000004 -0.16
      vertex 210.40000000000001 -60.200000000000003 -0.20000000000000001
      vertex 210.59999999999999 -60.200000000000003 -0.20000000000000001
    endloop
  endfacet
  facet normal 0 -0.70710678118655523 0.70710678118654002
    outer loop
      vertex 210.44 -60.160000000000004 -0.16
      vertex 210.59999999999999 -60.200000000000003 -0.20000000000000001
      vertex 210.59999999999999 -60.160000000000004 -0.16
    endloop
  endfacet
  facet normal 0 -0.70710678118655523 0.70710678118654002
    outer loop
      vertex 210.40000000000001 -60.160000000000004 -0.16
      vertex 210.40000000000001 -60.200000000000003 -0.20000000000000001
      vertex 210.44 -60.160000000000004 -0.16
    endloop
  endfacet
  facet normal -0 0.70710678118654746 0.70710678118654746
    outer loop
      vertex 210.56 0.16 -0.16
      vertex 210.59999999999999 0.16 -0.16
      vertex 210.59999999999999 0.20000000000000001 -0.20000000000000001
    endloop
  endfacet
  facet normal 0.70710678118661807 -0 0.70710678118647718
    outer loop
      vertex 210.56 0.16 -0.16
      vertex 210.59999999999999 0.20000000000000001 -0.20000000000000001
      vertex 210.56 0.20000000000000001 -0.16
    endloop
  endfacet
  facet normal 0.70710678118661796 0 0.70710678118647707
    outer loop
      vertex 210.56 8.0399999999999991 -0.16
      vertex 210.56 0.20000000000000001 -0.16
      vertex 210.59999999999999 0.20000000000000001 -0.20000000000000001
    endloop
  endfacet
  facet normal 0.70710678118661796 0 0.70710678118647696
    outer loop
      vertex 210.56 8.0399999999999991 -0.16
      vertex 210.59999999999999 0.20000000000000001 -0.20000000000000001
      vertex 210.59999999999999 10 -0.20000000000000001
    endloop
  endfacet
  facet normal 0.70710678118661796 -0 0.70710678118647707
    outer loop
      vertex 210.56 8.0399999999999991 -0.16
      vertex 210.59999999999999 10 -0.20000000000000001
      vertex 210.56 10 -0.16
    endloop
  endfacet
  facet normal 0.6963106238228628 -0.17407765595568092 0.69631062382272413
    outer loop
      vertex 210.56 10 -0.16
      vertex 210.59999999999999 10 -0.20000000000000001
      vertex 210.59999999999999 10.16 -0.16
    endloop
  endfacet
  facet normal -0 0.70710678118649239 0.70710678118660275
    outer loop
      vertex 210.76000000000002 -80.040000000000006 -0.16
      vertex 210.80000000000001 -80.040000000000006 -0.16
      vertex 210.80000000000001 -80 -0.20000000000000001
    endloop
  endfacet
  facet normal -0 0.70710678118649239 0.70710678118660275
    outer loop
      vertex 210.59999999999999 -80.040000000000006 -0.16
      vertex 210.76000000000002 -80.040000000000006 -0.16
      vertex 210.80000000000001 -80 -0.20000000000000001
    endloop
  endfacet
  facet normal 0 0.70710678118649228 0.70710678118660264
    outer loop
      vertex 210.59999999999999 -80.040000000000006 -0.16
      vertex 210.80000000000001 -80 -0.20000000000000001
      vertex 210.59999999999999 -80 -0.20000000000000001
    endloop
  endfacet
  facet normal 0 0 1
    outer loop
      vertex 210.59999999999999 -80 -0.20000000000000001
      vertex 210.80000000000001 -80 -0.20000000000000001
      vertex 210.80000000000001 -60.200000000000003 -0.20000000000000001
    endloop
  endfacet
  facet normal 0 0 1
    outer loop
      vertex 210.59999999999999 -80 -0.20000000000000001
      vertex 210.80000000000001 -60.200000000000003 -0.20000000000000001
      vertex 210.59999999999999 -60.200000000000003 -0.20000000000000001
    endloop
  endfacet
  facet normal 0 -0.70710678118655512 0.70710678118654002
    outer loop
      vertex 210.63999999999999 -60.160000000000004 -0.16
      vertex 210.59999999999999 -60.200000000000003 -0.20000000000000001
      vertex 210.80000000000001 -60.200000000000003 -0.20000000000000001
    endloop
  endfacet
  facet normal 0 -0.70710678118655523 0.70710678118654002
    outer loop
      vertex 210.63999999999999 -60.160000000000004 -0.16
      vertex 210.80000000000001 -60.200000000000003 -0.20000000000000001
      vertex 210.80000000000001 -60.160000000000004 -0.16
    endloop
  endfacet
  facet normal 0 -0.70710678118655523 0.70710678118654002
    outer loop
      vertex 210.59999999999999 -60.160000000000004 -0.16
      vertex 210.59999999999999 -60.200000000000003 -0.20000000000000001
      vertex 210.63999999999999 -60.160000000000004 -0.16
    endloop
  endfacet
  facet normal -0 0.70710678118654746 0.70710678118654746
    outer loop
      vertex 210.76000000000002 0.16 -0.16
      vertex 210.80000000000001 0.16 -0.16
      vertex 210.80000000000001 0.20000000000000001 -0.20000000000000001
    endloop
  endfacet
  facet normal -0 0.70710678118654746 0.70710678118654746
    outer loop
      vertex 210.59999999999999 0.16 -0.16
      vertex 210.76000000000002 0.16 -0.16
      vertex 210.80000000000001 0.20000000000000001 -0.20000000000000001
    endloop
  endfacet
  facet normal 0 0.70710678118654757 0.70710678118654757
    outer loop
      vertex 210.59999999999999 0.16 -0.16
      vertex 210.80000000000001 0.20000000000000001 -0.20000000000000001
      vertex 210.59999999999999 0.20000000000000001 -0.20000000000000001
    endloop
  endfacet
  facet normal 0 0 1
    outer loop
      vertex 210.59999999999999 0.20000000000000001 -0.20000000000000001
      vertex 210.80000000000001 0.20000000000000001 -0.20000000000000001
      vertex 210.80000000000001 10 -0.20000000000000001
    endloop
  endfacet
  facet normal 0 0 1
    outer loop
      vertex 210.59999999999999 0.20000000000000001 -0.20000000000000001
      vertex 210.80000000000001 10 -0.20000000000000001
      vertex 210.59999999999999 10 -0.20000000000000001
    endloop
  endfacet
  facet normal 0 -0.24253562503633286 0.97014250014533199
    outer loop
      vertex 210.76000000000002 10.16 -0.16
      vertex 210.59999999999999 10 -0.20000000000000001
      vertex 210.80000000000001 10 -0.20000000000000001
    endloop
  endfacet
  facet normal 0 -0.24253562503633283 0.97014250014533199
    outer loop
      vertex 210.76000000000002 10.16 -0.16
      vertex 210.80000000000001 10 -0.20000000000000001
      vertex 210.80000000000001 10.16 -0.16
    endloop
  endfacet
  facet normal 0 -0.24253562503633283 0.97014250014533199
    outer loop
      vertex 210.59999999999999 10.16 -0.16
      vertex 210.59999999999999 10 -0.20000000000000001
      vertex 210.76000000000002 10.16 -0.16
    endloop
  endfacet
  facet normal -0.028272964322667907 0.70682410806658713 0.70682410806669749
    outer loop
      vertex 210.80000000000001 -80.040000000000006 -0.16
      vertex 211.80000000000001 -80 -0.16
      vertex 210.80000000000001 -80 -0.20000000000000001
    endloop
  endfacet
  facet normal -0.039968038348871582 0 0.99920095872178938
    outer loop
      vertex 211.80000000000001 -76.039999999999992 -0.16
      vertex 210.80000000000001 -80 -0.20000000000000001
      vertex 211.80000000000001 -80 -0.16
    endloop
  endfacet
  facet normal -0.039968038348871589 0 0.99920095872178949
    outer loop
      vertex 210.80000000000001 -80 -0.20000000000000001
      vertex 211.80000000000001 -76.040000000000006 -0.16
      vertex 211.80000000000001 -60.200000000000003 -0.16
    endloop
  endfacet
  facet normal -0.039968038348871582 0 0.99920095872178938
    outer loop
      vertex 210.80000000000001 -80 -0.20000000000000001
      vertex 211.80000000000001 -60.200000000000003 -0.16
      vertex 210.80000000000001 -60.200000000000003 -0.20000000000000001
    endloop
  endfacet
  facet normal -0.039968038348871589 0 0.99920095872178949
    outer loop
      vertex 211.80000000000001 -60.160000000000004 -0.16
      vertex 210.80000000000001 -60.200000000000003 -0.20000000000000001
      vertex 211.80000000000001 -60.200000000000003 -0.16
    endloop
  endfacet
  facet normal 0 -0.70710678118655512 0.70710678118653991
    outer loop
      vertex 210.80000000000001 -60.160000000000004 -0.16
      vertex 210.80000000000001 -60.200000000000003 -0.20000000000000001
      vertex 211.80000000000001 -60.160000000000004 -0.16
    endloop
  endfacet
  facet normal -0.0062468285873951224 0.78085357342438699 0.62468285873950891
    outer loop
      vertex 214.80000000000001 0.16 -0.16
      vertex 215.80000000000001 0.16800000000000004 -0.16
      vertex 215.80000000000001 0.20000000000000001 -0.20000000000000001
    endloop
  endfacet
  facet normal -0 0.70710678118654746 0.70710678118654746
    outer loop
      vertex 210.80000000000001 0.16 -0.16
      vertex 214.80000000000001 0.16 -0.16
      vertex 215.80000000000001 0.20000000000000001 -0.20000000000000001
    endloop
  endfacet
  facet normal 0 0.70710678118654757 0.70710678118654757
    outer loop
      vertex 210.80000000000001 0.16 -0.16
      vertex 215.80000000000001 0.20000000000000001 -0.20000000000000001
      vertex 210.80000000000001 0.20000000000000001 -0.20000000000000001
    endloop
  endfacet
  facet normal 0 0 1
    outer loop
      vertex 210.80000000000001 0.20000000000000001 -0.20000000000000001
      vertex 215.80000000000001 0.20000000000000001 -0.20000000000000001
      vertex 215.80000000000001 10 -0.20000000000000001
    endloop
  endfacet
  facet normal 0 0 1
    outer loop
      vertex 210.80000000000001 0.20000000000000001 -0.20000000000000001
      vertex 215.80000000000001 10 -0.20000000000000001
      vertex 210.80000000000001 10 -0.20000000000000001
    endloop
  endfacet
  facet normal 0 -0.2425356250363328 0.97014250014533199
    outer loop
      vertex 214.80000000000001 10.16 -0.16
      vertex 210.80000000000001 10 -0.20000000000000001
      vertex 215.80000000000001 10 -0.20000000000000001
    endloop
  endfacet
  facet normal 0 -0.2425356250363328 0.97014250014533188
    outer loop
      vertex 214.80000000000001 10.16 -0.16
      vertex 215.80000000000001 10 -0.20000000000000001
      vertex 215.80000000000001 10.16 -0.16
    endloop
  endfacet
  facet normal 0 -0.2425356250363328 0.97014250014533188
    outer loop
      vertex 210.80000000000001 10.16 -0.16
      vertex 210.80000000000001 10 -0.20000000000000001
      vertex 214.80000000000001 10.16 -0.16
    endloop
  endfacet
  facet normal -6.7729572769921643e-16 0.78086880944303061 0.62469504755442384
    outer loop
      vertex 215.96799999999999 0.16800000000000001 -0.16
      vertex 216 0.16800000000000004 -0.16
      vertex 216 0.20000000000000001 -0.20000000000000001
    endloop
  endfacet
  facet normal -1.29008710038006e-16 0.78086880944303072 0.62469504755442384
    outer loop
      vertex 215.80000000000001 0.16800000000000001 -0.16
      vertex 215.96799999999999 0.16800000000000004 -0.16
      vertex 216 0.20000000000000001 -0.20000000000000001
    endloop
  endfacet
  facet normal 0 0.78086880944303039 0.62469504755442418
    outer loop
      vertex 215.80000000000001 0.16800000000000001 -0.16
      vertex 216 0.20000000000000001 -0.20000000000000001
      vertex 215.80000000000001 0.20000000000000001 -0.20000000000000001
    endloop
  endfacet
  facet normal 0 0 1
    outer loop
      vertex 215.80000000000001 0.20000000000000001 -0.20000000000000001
      vertex 216 0.20000000000000001 -0.20000000000000001
      vertex 216 10 -0.20000000000000001
    endloop
  endfacet
  facet normal 0 0 1
    outer loop
      vertex 215.80000000000001 0.20000000000000001 -0.20000000000000001
      vertex 216 10 -0.20000000000000001
      vertex 215.80000000000001 10 -0.20000000000000001
    endloop
  endfacet
  facet normal 0 -0.24253562503633283 0.97014250014533199
    outer loop
      vertex 215.96000000000001 10.16 -0.16
      vertex 215.80000000000001 10 -0.20000000000000001
      vertex 216 10 -0.20000000000000001
    endloop
  endfacet
  facet normal 0 -0.24253562503633283 0.97014250014533199
    outer loop
      vertex 215.96000000000001 10.16 -0.16
      vertex 216 10 -0.20000000000000001
      vertex 216 10.16 -0.16
    endloop
  endfacet
  facet normal 0 -0.2425356250363328 0.97014250014533188
    outer loop
      vertex 215.80000000000001 10.16 -0.16
      vertex 215.80000000000001 10 -0.20000000000000001
      vertex 215.96000000000001 10.16 -0.16
    endloop
  endfacet
  facet normal -0.52981294282609337 0.66226617853248493 0.52981294282598779
    outer loop
      vertex 216 0.16800000000000001 -0.16
      vertex 216.03999999999999 0.20000000000000001 -0.16
      vertex 216 0.20000000000000001 -0.20000000000000001
    endloop
  endfacet
  facet normal -0.70710678118661796 0 0.70710678118647718
    outer loop
      vertex 216.03999999999999 2.1600000000000001 -0.16
      vertex 216 0.20000000000000001 -0.20000000000000001
      vertex 216.03999999999999 0.20000000000000001 -0.16
    endloop
  endfacet
  facet normal -0.70710678118661796 0 0.70710678118647696
    outer loop
      vertex 216 0.20000000000000001 -0.20000000000000001
      vertex 216.03999999999999 2.1600000000000006 -0.16
      vertex 216.03999999999999 10 -0.16
    endloop
  endfacet
  facet normal -0.70710678118661796 0 0.70710678118647707
    outer loop
      vertex 216 0.20000000000000001 -0.20000000000000001
      vertex 216.03999999999999 10 -0.16
      vertex 216 10 -0.20000000000000001
    endloop
  endfacet
  facet normal -0.70710678118661796 0 0.70710678118647707
    outer loop
      vertex 216.03999999999999 10.039999999999999 -0.16
      vertex 216 10 -0.20000000000000001
      vertex 216.03999999999999 10 -0.16
    endloop
  endfacet
  facet normal -0.58834840541463151 -0.19611613513816986 0.78446454055268
    outer loop
      vertex 216 10.16 -0.16
      vertex 216 10 -0.20000000000000001
      vertex 216.03999999999999 10.039999999999999 -0.16
    endloop
  endfacet
endsolid terrain_band_1
