solid terrain_band_6
  facet normal 0 0 1
    outer loop
      vertex 50.200000000000003 -60 0.10000000000000001
      vertex 50.399999999999999 -60 0.10000000000000001
      vertex 50.399999999999999 -40 0.10000000000000001
    endloop
  endfacet
  facet normal 0 0 1
    outer loop
      vertex 50.200000000000003 -60 0.10000000000000001
      vertex 50.399999999999999 -40 0.10000000000000001
      vertex 50.200000000000003 -40 0.10000000000000001
    endloop
  endfacet
  facet normal 0 0 1
    outer loop
      vertex 50.200000000000003 -40 0.10000000000000001
      vertex 50.399999999999999 -40 0.10000000000000001
      vertex 50.399999999999999 -20 0.10000000000000001
    endloop
  endfacet
  facet normal 0 0 1
    outer loop
      vertex 50.200000000000003 -40 0.10000000000000001
      vertex 50.399999999999999 -20 0.10000000000000001
      vertex 50.200000000000003 -20 0.10000000000000001
    endloop
  endfacet
  facet normal 0 0 1
    outer loop
      vertex 50.200000000000003 -20 0.10000000000000001
      vertex 50.399999999999999 -20 0.10000000000000001
      vertex 50.399999999999999 -10 0.10000000000000001
    endloop
  endfacet
  facet normal 0 0 1
    outer loop
      vertex 50.200000000000003 -20 0.10000000000000001
      vertex 50.399999999999999 -10 0.10000000000000001
      vertex 50.200000000000003 -10 0.10000000000000001
    endloop
  endfacet
  facet normal 0 0 1
    outer loop
      vertex 50.200000000000003 -10 0.10000000000000001
      vertex 50.399999999999999 -10 0.10000000000000001
      vertex 50.399999999999999 0 0.10000000000000001
    endloop
  endfacet
  facet normal 0 0 1
    outer loop
      vertex 50.200000000000003 -10 0.10000000000000001
      vertex 50.399999999999999 0 0.10000000000000001
      vertex 50.200000000000003 0 0.10000000000000001
    endloop
  endfacet
  facet normal 0 0 1
    outer loop
      vertex 50.200000000000003 0 0.10000000000000001
      vertex 50.399999999999999 0 0.10000000000000001
      vertex 50.399999999999999 0.001 0.10000000000000001
    endloop
  endfacet
  facet normal 0 0 1
    outer loop
      vertex 50.200000000000003 0 0.10000000000000001
      vertex 50.399999999999999 0.001 0.10000000000000001
      vertex 50.200000000000003 0.001 0.10000000000000001
    endloop
  endfacet
  facet normal 0 0 1
    outer loop
      vertex 50.200000000000003 0.001 0.10000000000000001
      vertex 50.399999999999999 0.001 0.10000000000000001
      vertex 50.399999999999999 10 0.10000000000000001
    endloop
  endfacet
  facet normal 0 0 1
    outer loop
      vertex 50.200000000000003 0.001 0.10000000000000001
      vertex 50.399999999999999 10 0.10000000000000001
      vertex 50.200000000000003 10 0.10000000000000001
    endloop
  endfacet
  facet normal 0 0 1
    outer loop
      vertex 50.200000000000003 10 0.10000000000000001
      vertex 50.399999999999999 10 0.10000000000000001
      vertex 50.399999999999999 20 0.10000000000000001
    endloop
  endfacet
  facet normal 0 0 1
    outer loop
      vertex 50.200000000000003 10 0.10000000000000001
      vertex 50.399999999999999 20 0.10000000000000001
      vertex 50.200000000000003 20 0.10000000000000001
    endloop
  endfacet
  facet normal 0 0 1
    outer loop
      vertex 50.200000000000003 20 0.10000000000000001
      vertex 50.399999999999999 20 0.10000000000000001
      vertex 50.399999999999999 40 0.10000000000000001
    endloop
  endfacet
  facet normal 0 0 1
    outer loop
      vertex 50.200000000000003 20 0.10000000000000001
      vertex 50.399999999999999 40 0.10000000000000001
      vertex 50.200000000000003 40 0.10000000000000001
    endloop
  endfacet
  facet normal 0 0 1
    outer loop
      vertex 50.200000000000003 40 0.10000000000000001
      vertex 50.399999999999999 40 0.10000000000000001
      vertex 50.399999999999999 60 0.10000000000000001
    endloop
  endfacet
  facet normal 0 0 1
    outer loop
      vertex 50.200000000000003 40 0.10000000000000001
      vertex 50.399999999999999 60 0.10000000000000001
      vertex 50.200000000000003 60 0.10000000000000001
    endloop
  endfacet
  facet normal 0 0 1
    outer loop
      vertex 50.399999999999999 -60 0.10000000000000001
      vertex 50.600000000000001 -60 0.10000000000000001
      vertex 50.600000000000001 -40 0.10000000000000001
    endloop
  endfacet
  facet normal 0 0 1
    outer loop
      vertex 50.399999999999999 -60 0.10000000000000001
      vertex 50.600000000000001 -40 0.10000000000000001
      vertex 50.399999999999999 -40 0.10000000000000001
    endloop
  endfacet
  facet normal 0 0 1
    outer loop
      vertex 50.399999999999999 -40 0.10000000000000001
      vertex 50.600000000000001 -40 0.10000000000000001
      vertex 50.600000000000001 -20 0.10000000000000001
    endloop
  endfacet
  facet normal 0 0 1
    outer loop
      vertex 50.399999999999999 -40 0.10000000000000001
      vertex 50.600000000000001 -20 0.10000000000000001
      vertex 50.399999999999999 -20 0.10000000000000001
    endloop
  endfacet
  facet normal 0 0 1
    outer loop
      vertex 50.399999999999999 -20 0.10000000000000001
      vertex 50.600000000000001 -20 0.10000000000000001
      vertex 50.600000000000001 -10 0.10000000000000001
    endloop
  endfacet
  facet normal 0 0 1
    outer loop
      vertex 50.399999999999999 -20 0.10000000000000001
      vertex 50.600000000000001 -10 0.10000000000000001
      vertex 50.399999999999999 -10 0.10000000000000001
    endloop
  endfacet
  facet normal 0 0 1
    outer loop
      vertex 50.399999999999999 -10 0.10000000000000001
      vertex 50.600000000000001 -10 0.10000000000000001
      vertex 50.600000000000001 0 0.10000000000000001
    endloop
  endfacet
  facet normal 0 0 1
    outer loop
      vertex 50.399999999999999 -10 0.10000000000000001
      vertex 50.600000000000001 0 0.10000000000000001
      vertex 50.399999999999999 0 0.10000000000000001
    endloop
  endfacet
  facet normal 0 0 1
    outer loop
      vertex 50.399999999999999 0 0.10000000000000001
      vertex 50.600000000000001 0 0.10000000000000001
      vertex 50.600000000000001 0.001 0.10000000000000001
    endloop
  endfacet
  facet normal 0 0 1
    outer loop
      vertex 50.399999999999999 0 0.10000000000000001
      vertex 50.600000000000001 0.001 0.10000000000000001
      vertex 50.399999999999999 0.001 0.10000000000000001
    endloop
  endfacet
  facet normal 0 0 1
    outer loop
      vertex 50.399999999999999 0.001 0.10000000000000001
      vertex 50.600000000000001 0.001 0.10000000000000001
      vertex 50.600000000000001 10 0.10000000000000001
    endloop
  endfacet
  facet normal 0 0 1
    outer loop
      vertex 50.399999999999999 0.001 0.10000000000000001
      vertex 50.600000000000001 10 0.10000000000000001
      vertex 50.399999999999999 10 0.10000000000000001
    endloop
  endfacet
  facet normal 0 0 1
    outer loop
      vertex 50.399999999999999 10 0.10000000000000001
      vertex 50.600000000000001 10 0.10000000000000001
      vertex 50.600000000000001 20 0.10000000000000001
    endloop
  endfacet
  facet normal 0 0 1
    outer loop
      vertex 50.399999999999999 10 0.10000000000000001
      vertex 50.600000000000001 20 0.10000000000000001
      vertex 50.399999999999999 20 0.10000000000000001
    endloop
  endfacet
  facet normal 0 0 1
    outer loop
      vertex 50.399999999999999 20 0.10000000000000001
      vertex 50.600000000000001 20 0.10000000000000001
      vertex 50.600000000000001 40 0.10000000000000001
    endloop
  endfacet
  facet normal 0 0 1
    outer loop
      vertex 50.399999999999999 20 0.10000000000000001
      vertex 50.600000000000001 40 0.10000000000000001
      vertex 50.399999999999999 40 0.10000000000000001
    endloop
  endfacet
  facet normal 0 0 1
    outer loop
      vertex 50.399999999999999 40 0.10000000000000001
      vertex 50.600000000000001 40 0.10000000000000001
      vertex 50.600000000000001 60 0.10000000000000001
    endloop
  endfacet
  facet normal 0 0 1
    outer loop
      vertex 50.399999999999999 40 0.10000000000000001
      vertex 50.600000000000001 60 0.10000000000000001
      vertex 50.399999999999999 60 0.10000000000000001
    endloop
  endfacet
  facet normal 0 0 1
    outer loop
      vertex 50.600000000000001 -60 0.10000000000000001
      vertex 50.799999999999997 -60 0.10000000000000001
      vertex 50.799999999999997 -40 0.10000000000000001
    endloop
  endfacet
  facet normal 0 0 1
    outer loop
      vertex 50.600000000000001 -60 0.10000000000000001
      vertex 50.799999999999997 -40 0.10000000000000001
      vertex 50.600000000000001 -40 0.10000000000000001
    endloop
  endfacet
  facet normal 0 0 1
    outer loop
      vertex 50.600000000000001 -40 0.10000000000000001
      vertex 50.799999999999997 -40 0.10000000000000001
      vertex 50.799999999999997 -20 0.10000000000000001
    endloop
  endfacet
  facet normal 0 0 1
    outer loop
      vertex 50.600000000000001 -40 0.10000000000000001
      vertex 50.799999999999997 -20 0.10000000000000001
      vertex 50.600000000000001 -20 0.10000000000000001
    endloop
  endfacet
  facet normal 0 0 1
    outer loop
      vertex 50.600000000000001 -20 0.10000000000000001
      vertex 50.799999999999997 -20 0.10000000000000001
      vertex 50.799999999999997 -10 0.10000000000000001
    endloop
  endfacet
  facet normal 0 0 1
    outer loop
      vertex 50.600000000000001 -20 0.10000000000000001
      vertex 50.799999999999997 -10 0.10000000000000001
      vertex 50.600000000000001 -10 0.10000000000000001
    endloop
  endfacet
  facet normal 0 0 1
    outer loop
      vertex 50.600000000000001 -10 0.10000000000000001
      vertex 50.799999999999997 -10 0.10000000000000001
      vertex 50.799999999999997 0 0.10000000000000001
    endloop
  endfacet
  facet normal 0 0 1
    outer loop
      vertex 50.600000000000001 -10 0.10000000000000001
      vertex 50.799999999999997 0 0.10000000000000001
      vertex 50.600000000000001 0 0.10000000000000001
    endloop
  endfacet
  facet normal 0 0 1
    outer loop
      vertex 50.600000000000001 0 0.10000000000000001
      vertex 50.799999999999997 0 0.10000000000000001
      vertex 50.799999999999997 0.001 0.10000000000000001
    endloop
  endfacet
  facet normal 0 0 1
    outer loop
      vertex 50.600000000000001 0 0.10000000000000001
      vertex 50.799999999999997 0.001 0.10000000000000001
      vertex 50.600000000000001 0.001 0.10000000000000001
    endloop
  endfacet
  facet normal 0 0 1
    outer loop
      vertex 50.600000000000001 0.001 0.10000000000000001
      vertex 50.799999999999997 0.001 0.10000000000000001
      vertex 50.799999999999997 10 0.10000000000000001
    endloop
  endfacet
  facet normal 0 0 1
    outer loop
      vertex 50.600000000000001 0.001 0.10000000000000001
      vertex 50.799999999999997 10 0.10000000000000001
      vertex 50.600000000000001 10 0.10000000000000001
    endloop
  endfacet
  facet normal 0 0 1
    outer loop
      vertex 50.600000000000001 10 0.10000000000000001
      vertex 50.799999999999997 10 0.10000000000000001
      vertex 50.799999999999997 20 0.10000000000000001
    endloop
  endfacet
  facet normal 0 0 1
    outer loop
      vertex 50.600000000000001 10 0.10000000000000001
      vertex 50.799999999999997 20 0.10000000000000001
      vertex 50.600000000000001 20 0.10000000000000001
    endloop
  endfacet
  facet normal 0 0 1
    outer loop
      vertex 50.600000000000001 20 0.10000000000000001
      vertex 50.799999999999997 20 0.10000000000000001
      vertex 50.799999999999997 40 0.10000000000000001
    endloop
  endfacet
  facet normal 0 0 1
    outer loop
      vertex 50.600000000000001 20 0.10000000000000001
      vertex 50.799999999999997 40 0.10000000000000001
      vertex 50.600000000000001 40 0.10000000000000001
    endloop
  endfacet
  facet normal 0 0 1
    outer loop
      vertex 50.600000000000001 40 0.10000000000000001
      vertex 50.799999999999997 40 0.10000000000000001
      vertex 50.799999999999997 60 0.10000000000000001
    endloop
  endfacet
  facet normal 0 0 1
    outer loop
      vertex 50.600000000000001 40 0.10000000000000001
      vertex 50.799999999999997 60 0.10000000000000001
      vertex 50.600000000000001 60 0.10000000000000001
    endloop
  endfacet
  facet normal 0 0 1
    outer loop
      vertex 75.200000000000003 -60 0.10000000000000001
      vertex 75.400000000000006 -60 0.10000000000000001
      vertex 75.400000000000006 -40 0.10000000000000001
    endloop
  endfacet
  facet normal 0 0 1
    outer loop
      vertex 75.200000000000003 -60 0.10000000000000001
      vertex 75.400000000000006 -40 0.10000000000000001
      vertex 75.200000000000003 -40 0.10000000000000001
    endloop
  endfacet
  facet normal 0 0 1
    outer loop
      vertex 75.200000000000003 -40 0.10000000000000001
      vertex 75.400000000000006 -40 0.10000000000000001
      vertex 75.400000000000006 -20 0.10000000000000001
    endloop
  endfacet
  facet normal 0 0 1
    outer loop
      vertex 75.200000000000003 -40 0.10000000000000001
      vertex 75.400000000000006 -20 0.10000000000000001
      vertex 75.200000000000003 -20 0.10000000000000001
    endloop
  endfacet
  facet normal 0 0 1
    outer loop
      vertex 75.200000000000003 -20 0.10000000000000001
      vertex 75.400000000000006 -20 0.10000000000000001
      vertex 75.400000000000006 -10 0.10000000000000001
    endloop
  endfacet
  facet normal 0 0 1
    outer loop
      vertex 75.200000000000003 -20 0.10000000000000001
      vertex 75.400000000000006 -10 0.10000000000000001
      vertex 75.200000000000003 -10 0.10000000000000001
    endloop
  endfacet
  facet normal 0 0 1
    outer loop
      vertex 75.200000000000003 -10 0.10000000000000001
      vertex 75.400000000000006 -10 0.10000000000000001
      vertex 75.400000000000006 0 0.10000000000000001
    endloop
  endfacet
  facet normal 0 0 1
    outer loop
      vertex 75.200000000000003 -10 0.10000000000000001
      vertex 75.400000000000006 0 0.10000000000000001
      vertex 75.200000000000003 0 0.10000000000000001
    endloop
  endfacet
  facet normal 0 0 1
    outer loop
      vertex 75.200000000000003 0 0.10000000000000001
      vertex 75.400000000000006 0 0.10000000000000001
      vertex 75.400000000000006 0.001 0.10000000000000001
    endloop
  endfacet
  facet normal 0 0 1
    outer loop
      vertex 75.200000000000003 0 0.10000000000000001
      vertex 75.400000000000006 0.001 0.10000000000000001
      vertex 75.200000000000003 0.001 0.10000000000000001
    endloop
  endfacet
  facet normal 0 0 1
    outer loop
      vertex 75.200000000000003 0.001 0.10000000000000001
      vertex 75.400000000000006 0.001 0.10000000000000001
      vertex 75.400000000000006 10 0.10000000000000001
    endloop
  endfacet
  facet normal 0 0 1
    outer loop
      vertex 75.200000000000003 0.001 0.10000000000000001
      vertex 75.400000000000006 10 0.10000000000000001
      vertex 75.200000000000003 10 0.10000000000000001
    endloop
  endfacet
  facet normal 0 0 1
    outer loop
      vertex 75.200000000000003 10 0.10000000000000001
      vertex 75.400000000000006 10 0.10000000000000001
      vertex 75.400000000000006 20 0.10000000000000001
    endloop
  endfacet
  facet normal 0 0 1
    outer loop
      vertex 75.200000000000003 10 0.10000000000000001
      vertex 75.400000000000006 20 0.10000000000000001
      vertex 75.200000000000003 20 0.10000000000000001
    endloop
  endfacet
  facet normal 0 0 1
    outer loop
      vertex 75.200000000000003 20 0.10000000000000001
      vertex 75.400000000000006 20 0.10000000000000001
      vertex 75.400000000000006 40 0.10000000000000001
    endloop
  endfacet
  facet normal 0 0 1
    outer loop
      vertex 75.200000000000003 20 0.10000000000000001
      vertex 75.400000000000006 40 0.10000000000000001
      vertex 75.200000000000003 40 0.10000000000000001
    endloop
  endfacet
  facet normal 0 0 1
    outer loop
      vertex 75.200000000000003 40 0.10000000000000001
      vertex 75.400000000000006 40 0.10000000000000001
      vertex 75.400000000000006 60 0.10000000000000001
    endloop
  endfacet
  facet normal 0 0 1
    outer loop
      vertex 75.200000000000003 40 0.10000000000000001
      vertex 75.400000000000006 60 0.10000000000000001
      vertex 75.200000000000003 60 0.10000000000000001
    endloop
  endfacet
  facet normal 0 0 1
    outer loop
      vertex 75.400000000000006 -60 0.10000000000000001
      vertex 75.599999999999994 -60 0.10000000000000001
      vertex 75.599999999999994 -40 0.10000000000000001
    endloop
  endfacet
  facet normal 0 0 1
    outer loop
      vertex 75.400000000000006 -60 0.10000000000000001
      vertex 75.599999999999994 -40 0.10000000000000001
      vertex 75.400000000000006 -40 0.10000000000000001
    endloop
  endfacet
  facet normal 0 0 1
    outer loop
      vertex 75.400000000000006 -40 0.10000000000000001
      vertex 75.599999999999994 -40 0.10000000000000001
      vertex 75.599999999999994 -20 0.10000000000000001
    endloop
  endfacet
  facet normal 0 0 1
    outer loop
      vertex 75.400000000000006 -40 0.10000000000000001
      vertex 75.599999999999994 -20 0.10000000000000001
      vertex 75.400000000000006 -20 0.10000000000000001
    endloop
  endfacet
  facet normal 0 0 1
    outer loop
      vertex 75.400000000000006 -20 0.10000000000000001
      vertex 75.599999999999994 -20 0.10000000000000001
      vertex 75.599999999999994 -10 0.10000000000000001
    endloop
  endfacet
  facet normal 0 0 1
    outer loop
      vertex 75.400000000000006 -20 0.10000000000000001
      vertex 75.599999999999994 -10 0.10000000000000001
      vertex 75.400000000000006 -10 0.10000000000000001
    endloop
  endfacet
  facet normal 0 0 1
    outer loop
      vertex 75.400000000000006 -10 0.10000000000000001
      vertex 75.599999999999994 -10 0.10000000000000001
      vertex 75.599999999999994 0 0.10000000000000001
    endloop
  endfacet
  facet normal 0 0 1
    outer loop
      vertex 75.400000000000006 -10 0.10000000000000001
      vertex 75.599999999999994 0 0.10000000000000001
      vertex 75.400000000000006 0 0.10000000000000001
    endloop
  endfacet
  facet normal 0 0 1
    outer loop
      vertex 75.400000000000006 0 0.10000000000000001
      vertex 75.599999999999994 0 0.10000000000000001
      vertex 75.599999999999994 0.001 0.10000000000000001
    endloop
  endfacet
  facet normal 0 0 1
    outer loop
      vertex 75.400000000000006 0 0.10000000000000001
      vertex 75.599999999999994 0.001 0.10000000000000001
      vertex 75.400000000000006 0.001 0.10000000000000001
    endloop
  endfacet
  facet normal 0 0 1
    outer loop
      vertex 75.400000000000006 0.001 0.10000000000000001
      vertex 75.599999999999994 0.001 0.10000000000000001
      vertex 75.599999999999994 10 0.10000000000000001
    endloop
  endfacet
  facet normal 0 0 1
    outer loop
      vertex 75.400000000000006 0.001 0.10000000000000001
      vertex 75.599999999999994 10 0.10000000000000001
      vertex 75.400000000000006 10 0.10000000000000001
    endloop
  endfacet
  facet normal 0 0 1
    outer loop
      vertex 75.400000000000006 10 0.10000000000000001
      vertex 75.599999999999994 10 0.10000000000000001
      vertex 75.599999999999994 20 0.10000000000000001
    endloop
  endfacet
  facet normal 0 0 1
    outer loop
      vertex 75.400000000000006 10 0.10000000000000001
      vertex 75.599999999999994 20 0.10000000000000001
      vertex 75.400000000000006 20 0.10000000000000001
    endloop
  endfacet
  facet normal 0 0 1
    outer loop
      vertex 75.400000000000006 20 0.10000000000000001
      vertex 75.599999999999994 20 0.10000000000000001
      vertex 75.599999999999994 40 0.10000000000000001
    endloop
  endfacet
  facet normal 0 0 1
    outer loop
      vertex 75.400000000000006 20 0.10000000000000001
      vertex 75.599999999999994 40 0.10000000000000001
      vertex 75.400000000000006 40 0.10000000000000001
    endloop
  endfacet
  facet normal 0 0 1
    outer loop
      vertex 75.400000000000006 40 0.10000000000000001
      vertex 75.599999999999994 40 0.10000000000000001
      vertex 75.599999999999994 60 0.10000000000000001
    endloop
  endfacet
  facet normal 0 0 1
    outer loop
      vertex 75.400000000000006 40 0.10000000000000001
      vertex 75.599999999999994 60 0.10000000000000001
      vertex 75.400000000000006 60 0.10000000000000001
    endloop
  endfacet
  facet normal 0 0 1
    outer loop
      vertex 75.599999999999994 -60 0.10000000000000001
      vertex 75.799999999999997 -60 0.10000000000000001
      vertex 75.799999999999997 -40 0.10000000000000001
    endloop
  endfacet
  facet normal 0 0 1
    outer loop
      vertex 75.599999999999994 -60 0.10000000000000001
      vertex 75.799999999999997 -40 0.10000000000000001
      vertex 75.599999999999994 -40 0.10000000000000001
    endloop
  endfacet
  facet normal 0 0 1
    outer loop
      vertex 75.599999999999994 -40 0.10000000000000001
      vertex 75.799999999999997 -40 0.10000000000000001
      vertex 75.799999999999997 -20 0.10000000000000001
    endloop
  endfacet
  facet normal 0 0 1
    outer loop
      vertex 75.599999999999994 -40 0.10000000000000001
      vertex 75.799999999999997 -20 0.10000000000000001
      vertex 75.599999999999994 -20 0.10000000000000001
    endloop
  endfacet
  facet normal 0 0 1
    outer loop
      vertex 75.599999999999994 -20 0.10000000000000001
      vertex 75.799999999999997 -20 0.10000000000000001
      vertex 75.799999999999997 -10 0.10000000000000001
    endloop
  endfacet
  facet normal 0 0 1
    outer loop
      vertex 75.599999999999994 -20 0.10000000000000001
      vertex 75.799999999999997 -10 0.10000000000000001
      vertex 75.599999999999994 -10 0.10000000000000001
    endloop
  endfacet
  facet normal 0 0 1
    outer loop
      vertex 75.599999999999994 -10 0.10000000000000001
      vertex 75.799999999999997 -10 0.10000000000000001
      vertex 75.799999999999997 0 0.10000000000000001
    endloop
  endfacet
  facet normal 0 0 1
    outer loop
      vertex 75.599999999999994 -10 0.10000000000000001
      vertex 75.799999999999997 0 0.10000000000000001
      vertex 75.599999999999994 0 0.10000000000000001
    endloop
  endfacet
  facet normal 0 0 1
    outer loop
      vertex 75.599999999999994 0 0.10000000000000001
      vertex 75.799999999999997 0 0.10000000000000001
      vertex 75.799999999999997 0.001 0.10000000000000001
    endloop
  endfacet
  facet normal 0 0 1
    outer loop
      vertex 75.599999999999994 0 0.10000000000000001
      vertex 75.799999999999997 0.001 0.10000000000000001
      vertex 75.599999999999994 0.001 0.10000000000000001
    endloop
  endfacet
  facet normal 0 0 1
    outer loop
      vertex 75.599999999999994 0.001 0.10000000000000001
      vertex 75.799999999999997 0.001 0.10000000000000001
      vertex 75.799999999999997 10 0.10000000000000001
    endloop
  endfacet
  facet normal 0 0 1
    outer loop
      vertex 75.599999999999994 0.001 0.10000000000000001
      vertex 75.799999999999997 10 0.10000000000000001
      vertex 75.599999999999994 10 0.10000000000000001
    endloop
  endfacet
  facet normal 0 0 1
    outer loop
      vertex 75.599999999999994 10 0.10000000000000001
      vertex 75.799999999999997 10 0.10000000000000001
      vertex 75.799999999999997 20 0.10000000000000001
    endloop
  endfacet
  facet normal 0 0 1
    outer loop
      vertex 75.599999999999994 10 0.10000000000000001
      vertex 75.799999999999997 20 0.10000000000000001
      vertex 75.599999999999994 20 0.10000000000000001
    endloop
  endfacet
  facet normal 0 0 1
    outer loop
      vertex 75.599999999999994 20 0.10000000000000001
      vertex 75.799999999999997 20 0.10000000000000001
      vertex 75.799999999999997 40 0.10000000000000001
    endloop
  endfacet
  facet normal 0 0 1
    outer loop
      vertex 75.599999999999994 20 0.10000000000000001
      vertex 75.799999999999997 40 0.10000000000000001
      vertex 75.599999999999994 40 0.10000000000000001
    endloop
  endfacet
  facet normal 0 0 1
    outer loop
      vertex 75.599999999999994 40 0.10000000000000001
      vertex 75.799999999999997 40 0.10000000000000001
      vertex 75.799999999999997 60 0.10000000000000001
    endloop
  endfacet
  facet normal 0 0 1
    outer loop
      vertex 75.599999999999994 40 0.10000000000000001
      vertex 75.799999999999997 60 0.10000000000000001
      vertex 75.599999999999994 60 0.10000000000000001
    endloop
  endfacet
  facet normal -0.24253562503633802 0 0.97014250014533054
    outer loop
      vertex 75.879999999999995 -51.999999999999993 0.12000000000000002
      vertex 75.799999999999997 -60 0.10000000000000001
      vertex 75.879999999999995 -60 0.12000000000000002
    endloop
  endfacet
  facet normal -0.24253562503633805 0 0.97014250014533066
    outer loop
      vertex 75.799999999999997 -60 0.10000000000000001
      vertex 75.879999999999995 -51.999999999999993 0.12000000000000002
      vertex 75.879999999999995 -40 0.12000000000000002
    endloop
  endfacet
  facet normal -0.24253562503633805 0 0.97014250014533066
    outer loop
      vertex 75.799999999999997 -60 0.10000000000000001
      vertex 75.879999999999995 -40 0.12000000000000002
      vertex 75.799999999999997 -40 0.10000000000000001
    endloop
  endfacet
  facet normal -0.24253562503633802 0 0.97014250014533054
    outer loop
      vertex 75.879999999999995 -31.999999999999993 0.12000000000000002
      vertex 75.799999999999997 -40 0.10000000000000001
      vertex 75.879999999999995 -40 0.12000000000000002
    endloop
  endfacet
  facet normal -0.24253562503633805 0 0.97014250014533066
    outer loop
      vertex 75.799999999999997 -40 0.10000000000000001
      vertex 75.879999999999995 -31.999999999999993 0.12000000000000002
      vertex 75.879999999999995 -20 0.12000000000000002
    endloop
  endfacet
  facet normal -0.24253562503633805 0 0.97014250014533066
    outer loop
      vertex 75.799999999999997 -40 0.10000000000000001
      vertex 75.879999999999995 -20 0.12000000000000002
      vertex 75.799999999999997 -20 0.10000000000000001
    endloop
  endfacet
  facet normal -0.24253562503633802 0 0.97014250014533054
    outer loop
      vertex 75.879999999999995 -15.999999999999996 0.12000000000000002
      vertex 75.799999999999997 -20 0.10000000000000001
      vertex 75.879999999999995 -20 0.12000000000000002
    endloop
  endfacet
  facet normal -0.24253562503633805 0 0.97014250014533066
    outer loop
      vertex 75.799999999999997 -20 0.10000000000000001
      vertex 75.879999999999995 -15.999999999999996 0.12000000000000002
      vertex 75.879999999999995 -10 0.12000000000000002
    endloop
  endfacet
  facet normal -0.24253562503633805 0 0.97014250014533066
    outer loop
      vertex 75.799999999999997 -20 0.10000000000000001
      vertex 75.879999999999995 -10 0.12000000000000002
      vertex 75.799999999999997 -10 0.10000000000000001
    endloop
  endfacet
  facet normal -0.24253562503633802 0 0.97014250014533054
    outer loop
      vertex 75.879999999999995 -5.9999999999999956 0.12000000000000002
      vertex 75.799999999999997 -10 0.10000000000000001
      vertex 75.879999999999995 -10 0.12000000000000002
    endloop
  endfacet
  facet normal -0.24253562503633805 0 0.97014250014533066
    outer loop
      vertex 75.799999999999997 -10 0.10000000000000001
      vertex 75.879999999999995 -5.9999999999999956 0.12000000000000002
      vertex 75.879999999999995 0 0.12000000000000002
    endloop
  endfacet
  facet normal -0.24253562503633805 0 0.97014250014533066
    outer loop
      vertex 75.799999999999997 -10 0.10000000000000001
      vertex 75.879999999999995 0 0.12000000000000002
      vertex 75.799999999999997 0 0.10000000000000001
    endloop
  endfacet
  facet normal -0.24253562503633802 0 0.97014250014533066
    outer loop
      vertex 75.879999999999995 0.00040000000000000051 0.12000000000000002
      vertex 75.799999999999997 0 0.10000000000000001
      vertex 75.879999999999995 0 0.12000000000000002
    endloop
  endfacet
  facet normal -0.24253562503633802 0 0.97014250014533066
    outer loop
      vertex 75.799999999999997 0 0.10000000000000001
      vertex 75.879999999999995 0.00040000000000000045 0.12000000000000002
      vertex 75.879999999999995 0.001 0.12000000000000002
    endloop
  endfacet
  facet normal -0.24253562503633805 0 0.97014250014533066
    outer loop
      vertex 75.799999999999997 0 0.10000000000000001
      vertex 75.879999999999995 0.001 0.12000000000000002
      vertex 75.799999999999997 0.001 0.10000000000000001
    endloop
  endfacet
  facet normal -0.24253562503633802 0 0.97014250014533054
    outer loop
      vertex 75.879999999999995 4.0006000000000039 0.12000000000000002
      vertex 75.799999999999997 0.001 0.10000000000000001
      vertex 75.879999999999995 0.001 0.12000000000000002
    endloop
  endfacet
  facet normal -0.24253562503633805 0 0.97014250014533066
    outer loop
      vertex 75.799999999999997 0.001 0.10000000000000001
      vertex 75.879999999999995 4.0006000000000048 0.12000000000000002
      vertex 75.879999999999995 10 0.12000000000000002
    endloop
  endfacet
  facet normal -0.24253562503633805 0 0.97014250014533054
    outer loop
      vertex 75.799999999999997 0.001 0.10000000000000001
      vertex 75.879999999999995 10 0.12000000000000002
      vertex 75.799999999999997 10 0.10000000000000001
    endloop
  endfacet
  facet normal -0.24253562503633802 0 0.97014250014533054
    outer loop
      vertex 75.879999999999995 14.000000000000004 0.12000000000000002
      vertex 75.799999999999997 10 0.10000000000000001
      vertex 75.879999999999995 10 0.12000000000000002
    endloop
  endfacet
  facet normal -0.24253562503633805 0 0.97014250014533066
    outer loop
      vertex 75.799999999999997 10 0.10000000000000001
      vertex 75.879999999999995 14.000000000000004 0.12000000000000002
      vertex 75.879999999999995 20 0.12000000000000002
    endloop
  endfacet
  facet normal -0.24253562503633805 0 0.97014250014533066
    outer loop
      vertex 75.799999999999997 10 0.10000000000000001
      vertex 75.879999999999995 20 0.12000000000000002
      vertex 75.799999999999997 20 0.10000000000000001
    endloop
  endfacet
  facet normal -0.24253562503633802 0 0.97014250014533054
    outer loop
      vertex 75.879999999999995 28.000000000000007 0.12000000000000002
      vertex 75.799999999999997 20 0.10000000000000001
      vertex 75.879999999999995 20 0.12000000000000002
    endloop
  endfacet
  facet normal -0.24253562503633805 0 0.97014250014533066
    outer loop
      vertex 75.799999999999997 20 0.10000000000000001
      vertex 75.879999999999995 28.000000000000007 0.12000000000000002
      vertex 75.879999999999995 40 0.12000000000000002
    endloop
  endfacet
  facet normal -0.24253562503633805 0 0.97014250014533066
    outer loop
      vertex 75.799999999999997 20 0.10000000000000001
      vertex 75.879999999999995 40 0.12000000000000002
      vertex 75.799999999999997 40 0.10000000000000001
    endloop
  endfacet
  facet normal -0.24253562503633802 0 0.97014250014533054
    outer loop
      vertex 75.879999999999995 48.000000000000007 0.12000000000000002
      vertex 75.799999999999997 40 0.10000000000000001
      vertex 75.879999999999995 40 0.12000000000000002
    endloop
  endfacet
  facet normal -0.24253562503633805 0 0.97014250014533066
    outer loop
      vertex 75.799999999999997 40 0.10000000000000001
      vertex 75.879999999999995 48.000000000000007 0.12000000000000002
      vertex 75.879999999999995 60 0.12000000000000002
    endloop
  endfacet
  facet normal -0.24253562503633805 0 0.97014250014533066
    outer loop
      vertex 75.799999999999997 40 0.10000000000000001
      vertex 75.879999999999995 60 0.12000000000000002
      vertex 75.799999999999997 60 0.10000000000000001
    endloop
  endfacet
  facet normal 0.44721359550002937 0 0.89442719099988
    outer loop
      vertex 77.560000000000002 -44 0.12000000000000002
      vertex 77.560000000000002 -60 0.12000000000000002
      vertex 77.599999999999994 -60 0.10000000000000001
    endloop
  endfacet
  facet normal 0.44721359550002948 0 0.89442719099988022
    outer loop
      vertex 77.560000000000002 -44 0.12000000000000002
      vertex 77.599999999999994 -60 0.10000000000000001
      vertex 77.599999999999994 -40 0.10000000000000001
    endloop
  endfacet
  facet normal 0.44721359550002937 -0 0.89442719099988
    outer loop
      vertex 77.560000000000002 -44 0.12000000000000002
      vertex 77.599999999999994 -40 0.10000000000000001
      vertex 77.560000000000002 -40 0.12000000000000002
    endloop
  endfacet
  facet normal 0.44721359550002943 0 0.89442719099988011
    outer loop
      vertex 77.560000000000002 -24.000000000000004 0.12000000000000002
      vertex 77.560000000000002 -40 0.12000000000000002
      vertex 77.599999999999994 -40 0.10000000000000001
    endloop
  endfacet
  facet normal 0.44721359550002948 0 0.89442719099988022
    outer loop
      vertex 77.560000000000002 -24.000000000000004 0.12000000000000002
      vertex 77.599999999999994 -40 0.10000000000000001
      vertex 77.599999999999994 -20 0.10000000000000001
    endloop
  endfacet
  facet normal 0.44721359550002943 -0 0.89442719099988011
    outer loop
      vertex 77.560000000000002 -24.000000000000004 0.12000000000000002
      vertex 77.599999999999994 -20 0.10000000000000001
      vertex 77.560000000000002 -20 0.12000000000000002
    endloop
  endfacet
  facet normal 0.44721359550002943 0 0.89442719099988011
    outer loop
      vertex 77.560000000000002 -12.000000000000002 0.12000000000000002
      vertex 77.560000000000002 -20 0.12000000000000002
      vertex 77.599999999999994 -20 0.10000000000000001
    endloop
  endfacet
  facet normal 0.44721359550002948 0 0.89442719099988022
    outer loop
      vertex 77.560000000000002 -12.000000000000002 0.12000000000000002
      vertex 77.599999999999994 -20 0.10000000000000001
      vertex 77.599999999999994 -10 0.10000000000000001
    endloop
  endfacet
  facet normal 0.44721359550002943 -0 0.89442719099988011
    outer loop
      vertex 77.560000000000002 -12.000000000000002 0.12000000000000002
      vertex 77.599999999999994 -10 0.10000000000000001
      vertex 77.560000000000002 -10 0.12000000000000002
    endloop
  endfacet
  facet normal 0.44721359550002943 0 0.89442719099988011
    outer loop
      vertex 77.560000000000002 -2.0000000000000018 0.12000000000000002
      vertex 77.560000000000002 -10 0.12000000000000002
      vertex 77.599999999999994 -10 0.10000000000000001
    endloop
  endfacet
  facet normal 0.44721359550002948 0 0.89442719099988022
    outer loop
      vertex 77.560000000000002 -2.0000000000000018 0.12000000000000002
      vertex 77.599999999999994 -10 0.10000000000000001
      vertex 77.599999999999994 0 0.10000000000000001
    endloop
  endfacet
  facet normal 0.44721359550002943 -0 0.89442719099988011
    outer loop
      vertex 77.560000000000002 -2.0000000000000018 0.12000000000000002
      vertex 77.599999999999994 0 0.10000000000000001
      vertex 77.560000000000002 0 0.12000000000000002
    endloop
  endfacet
  facet normal 0.44721359550002937 0 0.89442719099988022
    outer loop
      vertex 77.560000000000002 0.00079999999999999982 0.12000000000000002
      vertex 77.560000000000002 0 0.12000000000000002
      vertex 77.599999999999994 0 0.10000000000000001
    endloop
  endfacet
  facet normal 0.44721359550002948 0 0.89442719099988022
    outer loop
      vertex 77.560000000000002 0.00079999999999999982 0.12000000000000002
      vertex 77.599999999999994 0 0.10000000000000001
      vertex 77.599999999999994 0.001 0.10000000000000001
    endloop
  endfacet
  facet normal 0.44721359550002943 -0 0.89442719099988011
    outer loop
      vertex 77.560000000000002 0.00079999999999999982 0.12000000000000002
      vertex 77.599999999999994 0.001 0.10000000000000001
      vertex 77.560000000000002 0.001 0.12000000000000002
    endloop
  endfacet
  facet normal 0.44721359550002943 0 0.89442719099988011
    outer loop
      vertex 77.560000000000002 8.0001999999999978 0.12000000000000002
      vertex 77.560000000000002 0.001 0.12000000000000002
      vertex 77.599999999999994 0.001 0.10000000000000001
    endloop
  endfacet
  facet normal 0.44721359550002948 0 0.89442719099988011
    outer loop
      vertex 77.560000000000002 8.0001999999999978 0.12000000000000002
      vertex 77.599999999999994 0.001 0.10000000000000001
      vertex 77.599999999999994 10 0.10000000000000001
    endloop
  endfacet
  facet normal 0.44721359550002943 -0 0.89442719099988011
    outer loop
      vertex 77.560000000000002 8.0001999999999978 0.12000000000000002
      vertex 77.599999999999994 10 0.10000000000000001
      vertex 77.560000000000002 10 0.12000000000000002
    endloop
  endfacet
  facet normal 0.44721359550002937 0 0.89442719099988
    outer loop
      vertex 77.560000000000002 18 0.12000000000000002
      vertex 77.560000000000002 10 0.12000000000000002
      vertex 77.599999999999994 10 0.10000000000000001
    endloop
  endfacet
  facet normal 0.44721359550002948 0 0.89442719099988022
    outer loop
      vertex 77.560000000000002 18 0.12000000000000002
      vertex 77.599999999999994 10 0.10000000000000001
      vertex 77.599999999999994 20 0.10000000000000001
    endloop
  endfacet
  facet normal 0.44721359550002937 -0 0.89442719099988
    outer loop
      vertex 77.560000000000002 18 0.12000000000000002
      vertex 77.599999999999994 20 0.10000000000000001
      vertex 77.560000000000002 20 0.12000000000000002
    endloop
  endfacet
  facet normal 0.44721359550002937 0 0.89442719099988
    outer loop
      vertex 77.560000000000002 36 0.12000000000000002
      vertex 77.560000000000002 20 0.12000000000000002
      vertex 77.599999999999994 20 0.10000000000000001
    endloop
  endfacet
  facet normal 0.44721359550002948 0 0.89442719099988022
    outer loop
      vertex 77.560000000000002 36 0.12000000000000002
      vertex 77.599999999999994 20 0.10000000000000001
      vertex 77.599999999999994 40 0.10000000000000001
    endloop
  endfacet
  facet normal 0.44721359550002937 -0 0.89442719099988
    outer loop
      vertex 77.560000000000002 36 0.12000000000000002
      vertex 77.599999999999994 40 0.10000000000000001
      vertex 77.560000000000002 40 0.12000000000000002
    endloop
  endfacet
  facet normal 0.44721359550002937 0 0.89442719099988
    outer loop
      vertex 77.560000000000002 56 0.12000000000000002
      vertex 77.560000000000002 40 0.12000000000000002
      vertex 77.599999999999994 40 0.10000000000000001
    endloop
  endfacet
  facet normal 0.44721359550002948 0 0.89442719099988022
    outer loop
      vertex 77.560000000000002 56 0.12000000000000002
      vertex 77.599999999999994 40 0.10000000000000001
      vertex 77.599999999999994 60 0.10000000000000001
    endloop
  endfacet
  facet normal 0.44721359550002937 -0 0.89442719099988
    outer loop
      vertex 77.560000000000002 56 0.12000000000000002
      vertex 77.599999999999994 60 0.10000000000000001
      vertex 77.560000000000002 60 0.12000000000000002
    endloop
  endfacet
  facet normal 0 0 1
    outer loop
      vertex 77.599999999999994 -60 0.10000000000000001
      vertex 77.799999999999997 -60 0.10000000000000001
      vertex 77.799999999999997 -40 0.10000000000000001
    endloop
  endfacet
  facet normal 0 0 1
    outer loop
      vertex 77.599999999999994 -60 0.10000000000000001
      vertex 77.799999999999997 -40 0.10000000000000001
      vertex 77.599999999999994 -40 0.10000000000000001
    endloop
  endfacet
  facet normal 0 0 1
    outer loop
      vertex 77.599999999999994 -40 0.10000000000000001
      vertex 77.799999999999997 -40 0.10000000000000001
      vertex 77.799999999999997 -20 0.10000000000000001
    endloop
  endfacet
  facet normal 0 0 1
    outer loop
      vertex 77.599999999999994 -40 0.10000000000000001
      vertex 77.799999999999997 -20 0.10000000000000001
      vertex 77.599999999999994 -20 0.10000000000000001
    endloop
  endfacet
  facet normal 0 0 1
    outer loop
      vertex 77.599999999999994 -20 0.10000000000000001
      vertex 77.799999999999997 -20 0.10000000000000001
      vertex 77.799999999999997 -10 0.10000000000000001
    endloop
  endfacet
  facet normal 0 0 1
    outer loop
      vertex 77.599999999999994 -20 0.10000000000000001
      vertex 77.799999999999997 -10 0.10000000000000001
      vertex 77.599999999999994 -10 0.10000000000000001
    endloop
  endfacet
  facet normal 0 0 1
    outer loop
      vertex 77.599999999999994 -10 0.10000000000000001
      vertex 77.799999999999997 -10 0.10000000000000001
      vertex 77.799999999999997 0 0.10000000000000001
    endloop
  endfacet
  facet normal 0 0 1
    outer loop
      vertex 77.599999999999994 -10 0.10000000000000001
      vertex 77.799999999999997 0 0.10000000000000001
      vertex 77.599999999999994 0 0.10000000000000001
    endloop
  endfacet
  facet normal 0 0 1
    outer loop
      vertex 77.599999999999994 0 0.10000000000000001
      vertex 77.799999999999997 0 0.10000000000000001
      vertex 77.799999999999997 0.001 0.10000000000000001
    endloop
  endfacet
  facet normal 0 0 1
    outer loop
      vertex 77.599999999999994 0 0.10000000000000001
      vertex 77.799999999999997 0.001 0.10000000000000001
      vertex 77.599999999999994 0.001 0.10000000000000001
    endloop
  endfacet
  facet normal 0 0 1
    outer loop
      vertex 77.599999999999994 0.001 0.10000000000000001
      vertex 77.799999999999997 0.001 0.10000000000000001
      vertex 77.799999999999997 10 0.10000000000000001
    endloop
  endfacet
  facet normal 0 0 1
    outer loop
      vertex 77.599999999999994 0.001 0.10000000000000001
      vertex 77.799999999999997 10 0.10000000000000001
      vertex 77.599999999999994 10 0.10000000000000001
    endloop
  endfacet
  facet normal 0 0 1
    outer loop
      vertex 77.599999999999994 10 0.10000000000000001
      vertex 77.799999999999997 10 0.10000000000000001
      vertex 77.799999999999997 20 0.10000000000000001
    endloop
  endfacet
  facet normal 0 0 1
    outer loop
      vertex 77.599999999999994 10 0.10000000000000001
      vertex 77.799999999999997 20 0.10000000000000001
      vertex 77.599999999999994 20 0.10000000000000001
    endloop
  endfacet
  facet normal 0 0 1
    outer loop
      vertex 77.599999999999994 20 0.10000000000000001
      vertex 77.799999999999997 20 0.10000000000000001
      vertex 77.799999999999997 40 0.10000000000000001
    endloop
  endfacet
  facet normal 0 0 1
    outer loop
      vertex 77.599999999999994 20 0.10000000000000001
      vertex 77.799999999999997 40 0.10000000000000001
      vertex 77.599999999999994 40 0.10000000000000001
    endloop
  endfacet
  facet normal 0 0 1
    outer loop
      vertex 77.599999999999994 40 0.10000000000000001
      vertex 77.799999999999997 40 0.10000000000000001
      vertex 77.799999999999997 60 0.10000000000000001
    endloop
  endfacet
  facet normal 0 0 1
    outer loop
      vertex 77.599999999999994 40 0.10000000000000001
      vertex 77.799999999999997 60 0.10000000000000001
      vertex 77.599999999999994 60 0.10000000000000001
    endloop
  endfacet
endsolid terrain_band_6
